M48
; DRILL file {KiCad (5.1.2)-1} date 2020/06/11 21:16:16
; FORMAT={-:-/ absolute / metric / decimal}
; #@! TF.CreationDate,2020-06-11T21:16:16+09:00
; #@! TF.GenerationSoftware,Kicad,Pcbnew,(5.1.2)-1
FMAT,2
METRIC
T1C0.400
T2C1.000
T3C1.100
T4C1.100
T5C3.200
%
G90
G05
T1
X102.616Y-107.798
X102.621Y-97.521
X103.505Y-93.32
X103.873Y-118.643
X103.899Y-114.351
X104.3Y-92.685
X105.222Y-101.529
X105.689Y-78.588
X105.715Y-80.874
X105.722Y-92.514
X105.727Y-93.571
X106.157Y-123.49
X106.172Y-67.297
X106.258Y-86.985
X106.27Y-85.41
X106.299Y-69.063
X106.337Y-101.01
X107.635Y-124.927
X108.814Y-66.192
X108.915Y-64.948
X108.963Y-126.365
X109.663Y-63.754
X109.906Y-87.018
X109.906Y-89.51
X109.957Y-67.64
X110.234Y-101.47
X110.274Y-127.66
X110.414Y-78.689
X110.414Y-80.721
X110.435Y-69.076
X110.846Y-96.037
X110.851Y-94.938
X110.896Y-98.222
X111.1Y-97.104
X111.101Y-93.176
X111.139Y-63.322
X111.214Y-70.79
X111.227Y-72.517
X111.252Y-91.587
X111.597Y-103.883
X111.697Y-129.045
X111.844Y-106.5
X112.001Y-100.249
X112.078Y-110.846
X112.09Y-112.141
X112.201Y-108.702
X112.415Y-125.268
X112.973Y-107.71
X113.157Y-94.966
X113.454Y-124.201
X113.68Y-97.211
X113.805Y-88.265
X113.995Y-89.294
X114.061Y-102.578
X114.173Y-77.953
X114.183Y-81.346
X114.297Y-127.432
X114.351Y-62.789
X114.363Y-112.839
X114.413Y-87.28
X114.414Y-71.145
X114.423Y-111.803
X114.456Y-103.497
X114.465Y-72.479
X114.526Y-123.17
X114.659Y-91.871
X114.732Y-90.437
X115.306Y-126.357
X115.457Y-89.719
X115.646Y-62.928
X115.835Y-69.571
X116.103Y-110.175
X116.108Y-109.084
X116.154Y-117.295
X116.154Y-122.276
X116.324Y-61.92
X116.474Y-125.232
X116.479Y-68.435
X116.529Y-90.745
X116.738Y-97.561
X116.791Y-103.893
X116.86Y-112.668
X116.936Y-101.093
X117.567Y-90.745
X117.576Y-77.473
X117.576Y-80.521
X117.584Y-61.92
X117.742Y-91.745
X117.879Y-107.318
X117.879Y-110.574
X118.948Y-93.942
X119.177Y-109.334
X119.258Y-117.592
X119.258Y-118.963
X119.298Y-69.261
X119.685Y-90.678
X119.734Y-89.656
X119.866Y-70.677
X120.058Y-120.411
X120.244Y-93.942
X120.538Y-65.092
X120.548Y-84.71
X120.696Y-111.468
X120.717Y-119.63
X120.746Y-70.012
X120.866Y-89.438
X120.866Y-114.122
X120.937Y-92.177
X120.962Y-121.136
X121.056Y-80.785
X121.131Y-118.631
X121.462Y-85.115
X121.514Y-87.325
X121.641Y-121.871
X121.648Y-64.633
X121.818Y-89.967
X121.92Y-97.028
X121.92Y-99.568
X121.92Y-102.108
X121.92Y-104.648
X121.92Y-107.188
X123.066Y-66.024
X123.225Y-84.493
X123.509Y-119.772
X123.586Y-123.342
X123.749Y-86.653
X124.063Y-117.887
X124.257Y-75.26
X124.257Y-76.657
X124.308Y-78.054
X124.387Y-116.407
X124.46Y-97.028
X124.46Y-99.568
X124.46Y-102.108
X124.46Y-104.648
X124.46Y-107.188
X124.633Y-124.148
X124.876Y-91.925
X125.007Y-117.557
X125.451Y-114.694
X125.771Y-113.461
X125.946Y-91.084
X126.174Y-97.815
X126.337Y-86.21
X126.496Y-115.316
X126.822Y-77.622
X126.848Y-78.971
X126.929Y-70.434
X127.0Y-99.568
X127.0Y-102.108
X127.0Y-104.648
X127.0Y-107.188
X127.061Y-128.905
X127.686Y-80.34
X127.813Y-96.19
X127.859Y-116.864
X128.018Y-115.867
X128.305Y-74.501
X128.359Y-97.803
X128.396Y-114.888
X128.844Y-96.148
X128.896Y-68.741
X129.274Y-91.184
X129.54Y-102.108
X129.54Y-99.568
X129.54Y-104.648
X129.54Y-107.188
X129.56Y-75.618
X129.56Y-77.216
X129.565Y-115.706
X129.565Y-78.753
X129.717Y-88.886
X129.87Y-95.91
X129.882Y-90.336
X129.896Y-68.962
X130.515Y-114.253
X130.62Y-115.383
X130.758Y-88.89
X130.785Y-111.152
X130.861Y-97.765
X130.945Y-92.164
X131.166Y-70.46
X131.483Y-120.813
X131.59Y-85.359
X131.902Y-69.748
X132.08Y-99.568
X132.08Y-102.108
X132.08Y-104.648
X132.08Y-107.188
X132.633Y-85.341
X132.744Y-70.327
X132.842Y-89.116
X133.139Y-78.153
X133.162Y-76.5
X133.162Y-79.865
X133.172Y-96.825
X133.476Y-69.641
X133.604Y-85.103
X133.804Y-114.57
X134.03Y-90.596
X134.163Y-93.751
X134.188Y-109.944
X134.426Y-69.952
X134.431Y-88.682
X134.655Y-85.194
X134.823Y-111.152
X135.315Y-114.709
X135.352Y-70.358
X135.382Y-94.742
X135.651Y-84.922
X135.915Y-123.393
X135.966Y-125.73
X136.236Y-115.17
X136.243Y-113.922
X136.533Y-93.451
X137.003Y-99.635
X137.414Y-109.969
X137.449Y-94.313
X137.541Y-96.075
X137.541Y-96.965
X137.801Y-116.595
X137.863Y-106.765
X137.972Y-99.389
X138.092Y-105.674
X138.278Y-112.739
X138.468Y-84.595
X138.558Y-115.87
X138.592Y-91.138
X138.781Y-90.122
X138.905Y-98.823
X139.024Y-99.965
X139.355Y-121.117
X139.456Y-104.585
X139.476Y-117.165
X139.563Y-73.022
X139.573Y-113.983
X140.08Y-98.342
X140.081Y-75.006
X140.09Y-97.098
X140.277Y-109.22
X140.306Y-76.53
X140.306Y-78.448
X140.306Y-80.381
X140.311Y-85.707
X140.402Y-105.765
X140.417Y-72.099
X140.441Y-113.486
X140.487Y-70.637
X140.521Y-99.239
X140.764Y-104.816
X140.957Y-111.176
X141.224Y-71.374
X141.246Y-100.236
X142.262Y-108.981
X142.682Y-100.373
X142.758Y-116.119
X143.0Y-102.374
X143.091Y-113.208
X143.227Y-110.925
X143.421Y-89.649
X143.68Y-101.628
X143.772Y-119.014
X143.964Y-110.086
X144.132Y-100.393
X144.638Y-90.13
X144.815Y-92.535
X144.815Y-94.44
X144.815Y-96.345
X144.815Y-98.25
X144.984Y-89.112
X145.009Y-110.36
X145.339Y-108.547
X146.088Y-89.433
X146.397Y-108.579
X146.766Y-118.986
X146.964Y-105.624
X147.218Y-101.354
X147.431Y-108.55
X147.927Y-96.586
X148.399Y-106.261
X148.473Y-102.824
X149.273Y-116.043
X149.92Y-97.59
X149.929Y-119.014
X149.933Y-99.063
X150.695Y-109.985
X150.847Y-74.967
X150.847Y-78.184
X151.333Y-113.221
X151.543Y-99.543
X151.638Y-70.688
X151.673Y-97.577
X151.887Y-65.248
X151.917Y-118.707
X151.917Y-119.977
X151.973Y-91.867
X152.456Y-128.91
X153.077Y-106.12
X153.187Y-118.707
X153.187Y-119.977
X153.459Y-97.602
X153.459Y-99.057
X153.543Y-83.248
X153.543Y-86.741
X153.606Y-70.688
X153.764Y-93.082
X154.051Y-91.897
X154.114Y-106.453
X154.457Y-118.707
X154.457Y-119.977
X154.53Y-78.183
X154.6Y-93.835
X155.295Y-106.223
X155.727Y-118.707
X155.727Y-119.977
X155.919Y-102.904
X156.27Y-92.027
X156.273Y-83.248
X156.273Y-86.741
X156.372Y-104.354
X156.464Y-69.748
X156.548Y-93.766
X157.49Y-104.295
X157.832Y-110.124
X157.946Y-96.241
X157.946Y-102.745
X158.232Y-106.774
X158.394Y-69.774
X158.48Y-120.45
X158.481Y-119.06
X158.506Y-121.847
X159.131Y-83.248
X159.131Y-86.741
X159.347Y-97.917
X159.347Y-99.758
X159.347Y-101.536
X159.611Y-111.139
X159.614Y-91.694
X160.299Y-69.774
X160.365Y-106.774
X160.762Y-111.155
X161.696Y-114.706
X161.709Y-72.466
X161.925Y-91.967
X162.052Y-83.248
X162.052Y-86.741
X162.649Y-69.482
X162.763Y-96.139
X162.888Y-108.659
X163.297Y-114.122
X163.573Y-118.252
X163.575Y-107.123
X163.576Y-119.697
X163.817Y-69.431
X163.865Y-100.905
X163.932Y-112.89
X164.293Y-68.517
X164.329Y-107.871
X164.465Y-110.414
X164.909Y-91.967
X165.024Y-102.032
X165.04Y-100.906
X165.341Y-103.099
X165.417Y-96.139
X165.43Y-68.618
X166.129Y-67.869
X166.395Y-66.878
X166.583Y-104.333
X166.595Y-105.591
X166.811Y-102.314
X167.192Y-110.124
X167.205Y-111.204
X167.831Y-91.967
X168.148Y-96.139
X168.234Y-116.983
X168.25Y-103.175
X168.577Y-111.953
X169.008Y-107.788
X169.174Y-117.998
X169.38Y-79.428
X169.418Y-86.97
X169.428Y-84.884
X169.502Y-92.776
X169.507Y-103.264
X169.799Y-77.724
X170.038Y-73.134
X170.139Y-102.174
X170.157Y-91.514
X170.19Y-119.027
X170.736Y-114.227
X170.739Y-89.408
X170.786Y-93.742
X170.815Y-96.139
X170.901Y-76.558
X171.286Y-88.344
X171.294Y-118.291
X171.65Y-114.227
X171.752Y-116.906
X171.761Y-80.279
X171.914Y-93.83
X171.942Y-75.479
X172.093Y-71.854
X172.105Y-68.263
X172.11Y-70.053
X172.491Y-79.426
X172.763Y-108.158
X172.763Y-110.19
X172.771Y-106.108
X172.783Y-94.325
X173.124Y-86.972
X173.634Y-92.367
X174.152Y-88.316
X174.183Y-84.597
X174.795Y-106.126
X174.795Y-108.158
X174.795Y-110.19
X175.003Y-116.259
X175.171Y-101.867
X175.321Y-85.778
X175.353Y-73.136
X175.933Y-91.262
X176.441Y-95.415
X176.441Y-96.837
X176.619Y-93.789
X176.827Y-106.126
X176.827Y-108.158
X176.827Y-110.19
X176.894Y-92.308
X177.025Y-114.579
X177.136Y-117.916
X177.136Y-119.04
X177.14Y-66.802
X177.14Y-68.936
X177.19Y-73.558
X177.19Y-74.955
X177.673Y-85.979
X177.708Y-120.406
X177.708Y-125.435
X177.787Y-99.251
X177.795Y-93.419
X177.945Y-84.051
X178.089Y-82.692
X178.991Y-121.897
X178.991Y-123.104
X179.095Y-99.619
X179.73Y-113.589
X179.781Y-71.73
X180.683Y-111.722
X180.95Y-89.56
X181.224Y-107.978
X181.543Y-86.172
X181.559Y-81.712
X181.559Y-83.312
X181.559Y-84.76
X181.844Y-99.741
X181.851Y-79.426
X182.677Y-89.56
X182.875Y-113.604
X182.905Y-109.779
X183.321Y-86.172
X183.528Y-105.55
X183.947Y-126.492
X183.972Y-127.622
X184.439Y-116.259
X184.871Y-119.852
X184.942Y-121.737
X184.942Y-123.007
X184.963Y-105.73
X184.963Y-109.995
X185.316Y-94.912
X185.318Y-93.574
X185.42Y-89.535
X185.5Y-124.9
X185.979Y-101.295
X186.149Y-115.479
X187.096Y-126.213
X187.101Y-125.182
X187.249Y-89.535
X187.338Y-95.23
X187.747Y-115.481
X187.998Y-105.943
X188.346Y-95.242
X189.276Y-105.946
X189.362Y-115.473
X189.484Y-101.016
X189.497Y-102.113
X189.53Y-107.559
X189.535Y-108.852
X189.662Y-119.507
X190.739Y-98.412
X190.739Y-99.809
X190.848Y-109.997
X190.929Y-111.557
X192.161Y-99.792
X192.169Y-98.387
X192.225Y-109.99
X192.263Y-111.547
T2
X127.076Y-124.46
X127.076Y-127.0
X129.616Y-124.46
X129.616Y-127.0
X132.156Y-124.46
X132.156Y-127.0
X134.696Y-124.46
X134.696Y-127.0
X137.236Y-124.46
X137.236Y-127.0
X139.776Y-124.46
X139.776Y-127.0
X142.316Y-124.46
X142.316Y-127.0
X144.856Y-124.46
X144.856Y-127.0
X147.396Y-124.46
X147.396Y-127.0
X149.936Y-124.46
X149.936Y-127.0
X152.476Y-124.46
X152.476Y-127.0
X155.016Y-124.46
X155.016Y-127.0
X157.556Y-124.46
X157.556Y-127.0
X160.096Y-124.46
X160.096Y-127.0
X162.636Y-124.46
X162.636Y-127.0
X165.176Y-124.46
X165.176Y-127.0
X167.716Y-124.46
X167.716Y-127.0
X170.256Y-124.46
X170.256Y-127.0
X172.796Y-124.46
X172.796Y-127.0
X175.336Y-124.46
X175.336Y-127.0
X144.094Y-75.959
X144.094Y-78.499
X127.076Y-60.96
X127.076Y-63.5
X129.616Y-60.96
X129.616Y-63.5
X132.156Y-60.96
X132.156Y-63.5
X134.696Y-60.96
X134.696Y-63.5
X137.236Y-60.96
X137.236Y-63.5
X139.776Y-60.96
X139.776Y-63.5
X142.316Y-60.96
X142.316Y-63.5
X144.856Y-60.96
X144.856Y-63.5
X147.396Y-60.96
X147.396Y-63.5
X149.936Y-60.96
X149.936Y-63.5
X152.476Y-60.96
X152.476Y-63.5
X155.016Y-60.96
X155.016Y-63.5
X157.556Y-60.96
X157.556Y-63.5
X160.096Y-60.96
X160.096Y-63.5
X162.636Y-60.96
X162.636Y-63.5
X165.176Y-60.96
X165.176Y-63.5
X167.716Y-60.96
X167.716Y-63.5
X170.256Y-60.96
X170.256Y-63.5
X172.796Y-60.96
X172.796Y-63.5
X175.336Y-60.96
X175.336Y-63.5
X193.065Y-67.869
T3
X105.736Y-76.556
X105.736Y-83.056
X110.236Y-76.556
X110.236Y-83.056
X105.664Y-113.134
X105.664Y-119.634
X110.164Y-113.134
X110.164Y-119.634
T4
X194.881Y-102.616
X194.881Y-107.366
T5
X104.0Y-61.0
X193.0Y-61.0
X104.0Y-127.0
X193.0Y-127.0
T0
M30
