G04 #@! TF.GenerationSoftware,KiCad,Pcbnew,(5.1.2)-1*
G04 #@! TF.CreationDate,2020-06-11T18:45:19+09:00*
G04 #@! TF.ProjectId,o2_breakout,6f325f62-7265-4616-9b6f-75742e6b6963,rev?*
G04 #@! TF.SameCoordinates,Original*
G04 #@! TF.FileFunction,Legend,Bot*
G04 #@! TF.FilePolarity,Positive*
%FSLAX46Y46*%
G04 Gerber Fmt 4.6, Leading zero omitted, Abs format (unit mm)*
G04 Created by KiCad (PCBNEW (5.1.2)-1) date 2020-06-11 18:45:19*
%MOMM*%
%LPD*%
G04 APERTURE LIST*
%ADD10C,0.120000*%
%ADD11C,0.150000*%
G04 APERTURE END LIST*
D10*
X104165500Y-101548120D02*
X104165500Y-102048120D01*
X103225500Y-102048120D02*
X103225500Y-101548120D01*
X182892800Y-72800400D02*
X182892800Y-73300400D01*
X181952800Y-73300400D02*
X181952800Y-72800400D01*
X182816400Y-111756000D02*
X182816400Y-111256000D01*
X183756400Y-111256000D02*
X183756400Y-111756000D01*
X174481300Y-93916600D02*
X173981300Y-93916600D01*
X173981300Y-92976600D02*
X174481300Y-92976600D01*
X168592400Y-105444100D02*
X168592400Y-104944100D01*
X169532400Y-104944100D02*
X169532400Y-105444100D01*
X167322400Y-105444100D02*
X167322400Y-104944100D01*
X168262400Y-104944100D02*
X168262400Y-105444100D01*
X110544800Y-121526200D02*
X111044800Y-121526200D01*
X111044800Y-122466200D02*
X110544800Y-122466200D01*
X102374600Y-95652400D02*
X102374600Y-95152400D01*
X103314600Y-95152400D02*
X103314600Y-95652400D01*
X148942600Y-101225800D02*
X148942600Y-101725800D01*
X148002600Y-101725800D02*
X148002600Y-101225800D01*
X149479900Y-99532600D02*
X149979900Y-99532600D01*
X149979900Y-100472600D02*
X149479900Y-100472600D01*
X155891420Y-77713740D02*
X156391420Y-77713740D01*
X156391420Y-78653740D02*
X155891420Y-78653740D01*
X179874100Y-114363200D02*
X179174100Y-114363200D01*
X179174100Y-115563200D02*
X179874100Y-115563200D01*
X103513520Y-109110400D02*
X103513520Y-108110400D01*
X105213520Y-108110400D02*
X105213520Y-109110400D01*
X127716380Y-75388660D02*
X127716380Y-75888660D01*
X126776380Y-75888660D02*
X126776380Y-75388660D01*
X133642200Y-98225800D02*
X133642200Y-98725800D01*
X132702200Y-98725800D02*
X132702200Y-98225800D01*
X176774220Y-88977100D02*
X177774220Y-88977100D01*
X177774220Y-90677100D02*
X176774220Y-90677100D01*
X135781300Y-107356000D02*
X135281300Y-107356000D01*
X135281300Y-106416000D02*
X135781300Y-106416000D01*
X123792500Y-93652700D02*
X123292500Y-93652700D01*
X123292500Y-92712700D02*
X123792500Y-92712700D01*
X179891500Y-108445400D02*
X179391500Y-108445400D01*
X179391500Y-107505400D02*
X179891500Y-107505400D01*
X170790500Y-107686000D02*
X171290500Y-107686000D01*
X171290500Y-108626000D02*
X170790500Y-108626000D01*
X130849560Y-109351980D02*
X131349560Y-109351980D01*
X131349560Y-110291980D02*
X130849560Y-110291980D01*
X118183200Y-97860300D02*
X118183200Y-98360300D01*
X117243200Y-98360300D02*
X117243200Y-97860300D01*
X129239200Y-80175000D02*
X129739200Y-80175000D01*
X129739200Y-81115000D02*
X129239200Y-81115000D01*
D11*
X104495860Y-103743522D02*
X104019670Y-103410189D01*
X104495860Y-103172094D02*
X103495860Y-103172094D01*
X103495860Y-103553046D01*
X103543480Y-103648284D01*
X103591099Y-103695903D01*
X103686337Y-103743522D01*
X103829194Y-103743522D01*
X103924432Y-103695903D01*
X103972051Y-103648284D01*
X104019670Y-103553046D01*
X104019670Y-103172094D01*
X104495860Y-104695903D02*
X104495860Y-104124475D01*
X104495860Y-104410189D02*
X103495860Y-104410189D01*
X103638718Y-104314951D01*
X103733956Y-104219713D01*
X103781575Y-104124475D01*
X103924432Y-105267332D02*
X103876813Y-105172094D01*
X103829194Y-105124475D01*
X103733956Y-105076856D01*
X103686337Y-105076856D01*
X103591099Y-105124475D01*
X103543480Y-105172094D01*
X103495860Y-105267332D01*
X103495860Y-105457808D01*
X103543480Y-105553046D01*
X103591099Y-105600665D01*
X103686337Y-105648284D01*
X103733956Y-105648284D01*
X103829194Y-105600665D01*
X103876813Y-105553046D01*
X103924432Y-105457808D01*
X103924432Y-105267332D01*
X103972051Y-105172094D01*
X104019670Y-105124475D01*
X104114908Y-105076856D01*
X104305384Y-105076856D01*
X104400622Y-105124475D01*
X104448241Y-105172094D01*
X104495860Y-105267332D01*
X104495860Y-105457808D01*
X104448241Y-105553046D01*
X104400622Y-105600665D01*
X104305384Y-105648284D01*
X104114908Y-105648284D01*
X104019670Y-105600665D01*
X103972051Y-105553046D01*
X103924432Y-105457808D01*
X181605180Y-72407542D02*
X181128990Y-72074209D01*
X181605180Y-71836114D02*
X180605180Y-71836114D01*
X180605180Y-72217066D01*
X180652800Y-72312304D01*
X180700419Y-72359923D01*
X180795657Y-72407542D01*
X180938514Y-72407542D01*
X181033752Y-72359923D01*
X181081371Y-72312304D01*
X181128990Y-72217066D01*
X181128990Y-71836114D01*
X180605180Y-72740876D02*
X180605180Y-73359923D01*
X180986133Y-73026590D01*
X180986133Y-73169447D01*
X181033752Y-73264685D01*
X181081371Y-73312304D01*
X181176609Y-73359923D01*
X181414704Y-73359923D01*
X181509942Y-73312304D01*
X181557561Y-73264685D01*
X181605180Y-73169447D01*
X181605180Y-72883733D01*
X181557561Y-72788495D01*
X181509942Y-72740876D01*
X181605180Y-74312304D02*
X181605180Y-73740876D01*
X181605180Y-74026590D02*
X180605180Y-74026590D01*
X180748038Y-73931352D01*
X180843276Y-73836114D01*
X180890895Y-73740876D01*
X185072280Y-111663242D02*
X184596090Y-111329909D01*
X185072280Y-111091814D02*
X184072280Y-111091814D01*
X184072280Y-111472766D01*
X184119900Y-111568004D01*
X184167519Y-111615623D01*
X184262757Y-111663242D01*
X184405614Y-111663242D01*
X184500852Y-111615623D01*
X184548471Y-111568004D01*
X184596090Y-111472766D01*
X184596090Y-111091814D01*
X185072280Y-112615623D02*
X185072280Y-112044195D01*
X185072280Y-112329909D02*
X184072280Y-112329909D01*
X184215138Y-112234671D01*
X184310376Y-112139433D01*
X184357995Y-112044195D01*
X184167519Y-112996576D02*
X184119900Y-113044195D01*
X184072280Y-113139433D01*
X184072280Y-113377528D01*
X184119900Y-113472766D01*
X184167519Y-113520385D01*
X184262757Y-113568004D01*
X184357995Y-113568004D01*
X184500852Y-113520385D01*
X185072280Y-112948957D01*
X185072280Y-113568004D01*
X175394857Y-95194380D02*
X175728190Y-94718190D01*
X175966285Y-95194380D02*
X175966285Y-94194380D01*
X175585333Y-94194380D01*
X175490095Y-94242000D01*
X175442476Y-94289619D01*
X175394857Y-94384857D01*
X175394857Y-94527714D01*
X175442476Y-94622952D01*
X175490095Y-94670571D01*
X175585333Y-94718190D01*
X175966285Y-94718190D01*
X175013904Y-94289619D02*
X174966285Y-94242000D01*
X174871047Y-94194380D01*
X174632952Y-94194380D01*
X174537714Y-94242000D01*
X174490095Y-94289619D01*
X174442476Y-94384857D01*
X174442476Y-94480095D01*
X174490095Y-94622952D01*
X175061523Y-95194380D01*
X174442476Y-95194380D01*
X173966285Y-95194380D02*
X173775809Y-95194380D01*
X173680571Y-95146761D01*
X173632952Y-95099142D01*
X173537714Y-94956285D01*
X173490095Y-94765809D01*
X173490095Y-94384857D01*
X173537714Y-94289619D01*
X173585333Y-94242000D01*
X173680571Y-94194380D01*
X173871047Y-94194380D01*
X173966285Y-94242000D01*
X174013904Y-94289619D01*
X174061523Y-94384857D01*
X174061523Y-94622952D01*
X174013904Y-94718190D01*
X173966285Y-94765809D01*
X173871047Y-94813428D01*
X173680571Y-94813428D01*
X173585333Y-94765809D01*
X173537714Y-94718190D01*
X173490095Y-94622952D01*
X170845180Y-104261942D02*
X170368990Y-103928609D01*
X170845180Y-103690514D02*
X169845180Y-103690514D01*
X169845180Y-104071466D01*
X169892800Y-104166704D01*
X169940419Y-104214323D01*
X170035657Y-104261942D01*
X170178514Y-104261942D01*
X170273752Y-104214323D01*
X170321371Y-104166704D01*
X170368990Y-104071466D01*
X170368990Y-103690514D01*
X169940419Y-104642895D02*
X169892800Y-104690514D01*
X169845180Y-104785752D01*
X169845180Y-105023847D01*
X169892800Y-105119085D01*
X169940419Y-105166704D01*
X170035657Y-105214323D01*
X170130895Y-105214323D01*
X170273752Y-105166704D01*
X170845180Y-104595276D01*
X170845180Y-105214323D01*
X170273752Y-105785752D02*
X170226133Y-105690514D01*
X170178514Y-105642895D01*
X170083276Y-105595276D01*
X170035657Y-105595276D01*
X169940419Y-105642895D01*
X169892800Y-105690514D01*
X169845180Y-105785752D01*
X169845180Y-105976228D01*
X169892800Y-106071466D01*
X169940419Y-106119085D01*
X170035657Y-106166704D01*
X170083276Y-106166704D01*
X170178514Y-106119085D01*
X170226133Y-106071466D01*
X170273752Y-105976228D01*
X170273752Y-105785752D01*
X170321371Y-105690514D01*
X170368990Y-105642895D01*
X170464228Y-105595276D01*
X170654704Y-105595276D01*
X170749942Y-105642895D01*
X170797561Y-105690514D01*
X170845180Y-105785752D01*
X170845180Y-105976228D01*
X170797561Y-106071466D01*
X170749942Y-106119085D01*
X170654704Y-106166704D01*
X170464228Y-106166704D01*
X170368990Y-106119085D01*
X170321371Y-106071466D01*
X170273752Y-105976228D01*
X168292480Y-107043242D02*
X167816290Y-106709909D01*
X168292480Y-106471814D02*
X167292480Y-106471814D01*
X167292480Y-106852766D01*
X167340100Y-106948004D01*
X167387719Y-106995623D01*
X167482957Y-107043242D01*
X167625814Y-107043242D01*
X167721052Y-106995623D01*
X167768671Y-106948004D01*
X167816290Y-106852766D01*
X167816290Y-106471814D01*
X167387719Y-107424195D02*
X167340100Y-107471814D01*
X167292480Y-107567052D01*
X167292480Y-107805147D01*
X167340100Y-107900385D01*
X167387719Y-107948004D01*
X167482957Y-107995623D01*
X167578195Y-107995623D01*
X167721052Y-107948004D01*
X168292480Y-107376576D01*
X168292480Y-107995623D01*
X167292480Y-108328957D02*
X167292480Y-108995623D01*
X168292480Y-108567052D01*
X111437657Y-123718580D02*
X111770990Y-123242390D01*
X112009085Y-123718580D02*
X112009085Y-122718580D01*
X111628133Y-122718580D01*
X111532895Y-122766200D01*
X111485276Y-122813819D01*
X111437657Y-122909057D01*
X111437657Y-123051914D01*
X111485276Y-123147152D01*
X111532895Y-123194771D01*
X111628133Y-123242390D01*
X112009085Y-123242390D01*
X110485276Y-123718580D02*
X111056704Y-123718580D01*
X110770990Y-123718580D02*
X110770990Y-122718580D01*
X110866228Y-122861438D01*
X110961466Y-122956676D01*
X111056704Y-123004295D01*
X109866228Y-122718580D02*
X109770990Y-122718580D01*
X109675752Y-122766200D01*
X109628133Y-122813819D01*
X109580514Y-122909057D01*
X109532895Y-123099533D01*
X109532895Y-123337628D01*
X109580514Y-123528104D01*
X109628133Y-123623342D01*
X109675752Y-123670961D01*
X109770990Y-123718580D01*
X109866228Y-123718580D01*
X109961466Y-123670961D01*
X110009085Y-123623342D01*
X110056704Y-123528104D01*
X110104323Y-123337628D01*
X110104323Y-123099533D01*
X110056704Y-122909057D01*
X110009085Y-122813819D01*
X109961466Y-122766200D01*
X109866228Y-122718580D01*
X104566980Y-94759542D02*
X104090790Y-94426209D01*
X104566980Y-94188114D02*
X103566980Y-94188114D01*
X103566980Y-94569066D01*
X103614600Y-94664304D01*
X103662219Y-94711923D01*
X103757457Y-94759542D01*
X103900314Y-94759542D01*
X103995552Y-94711923D01*
X104043171Y-94664304D01*
X104090790Y-94569066D01*
X104090790Y-94188114D01*
X103662219Y-95140495D02*
X103614600Y-95188114D01*
X103566980Y-95283352D01*
X103566980Y-95521447D01*
X103614600Y-95616685D01*
X103662219Y-95664304D01*
X103757457Y-95711923D01*
X103852695Y-95711923D01*
X103995552Y-95664304D01*
X104566980Y-95092876D01*
X104566980Y-95711923D01*
X103566980Y-96569066D02*
X103566980Y-96378590D01*
X103614600Y-96283352D01*
X103662219Y-96235733D01*
X103805076Y-96140495D01*
X103995552Y-96092876D01*
X104376504Y-96092876D01*
X104471742Y-96140495D01*
X104519361Y-96188114D01*
X104566980Y-96283352D01*
X104566980Y-96473828D01*
X104519361Y-96569066D01*
X104471742Y-96616685D01*
X104376504Y-96664304D01*
X104138409Y-96664304D01*
X104043171Y-96616685D01*
X103995552Y-96569066D01*
X103947933Y-96473828D01*
X103947933Y-96283352D01*
X103995552Y-96188114D01*
X104043171Y-96140495D01*
X104138409Y-96092876D01*
X147866360Y-102583953D02*
X147390170Y-102250620D01*
X147866360Y-102012524D02*
X146866360Y-102012524D01*
X146866360Y-102393477D01*
X146913980Y-102488715D01*
X146961599Y-102536334D01*
X147056837Y-102583953D01*
X147199694Y-102583953D01*
X147294932Y-102536334D01*
X147342551Y-102488715D01*
X147390170Y-102393477D01*
X147390170Y-102012524D01*
X147294932Y-103155381D02*
X147247313Y-103060143D01*
X147199694Y-103012524D01*
X147104456Y-102964905D01*
X147056837Y-102964905D01*
X146961599Y-103012524D01*
X146913980Y-103060143D01*
X146866360Y-103155381D01*
X146866360Y-103345858D01*
X146913980Y-103441096D01*
X146961599Y-103488715D01*
X147056837Y-103536334D01*
X147104456Y-103536334D01*
X147199694Y-103488715D01*
X147247313Y-103441096D01*
X147294932Y-103345858D01*
X147294932Y-103155381D01*
X147342551Y-103060143D01*
X147390170Y-103012524D01*
X147485408Y-102964905D01*
X147675884Y-102964905D01*
X147771122Y-103012524D01*
X147818741Y-103060143D01*
X147866360Y-103155381D01*
X147866360Y-103345858D01*
X147818741Y-103441096D01*
X147771122Y-103488715D01*
X147675884Y-103536334D01*
X147485408Y-103536334D01*
X147390170Y-103488715D01*
X147342551Y-103441096D01*
X147294932Y-103345858D01*
X151163257Y-101706940D02*
X151496590Y-101230750D01*
X151734685Y-101706940D02*
X151734685Y-100706940D01*
X151353733Y-100706940D01*
X151258495Y-100754560D01*
X151210876Y-100802179D01*
X151163257Y-100897417D01*
X151163257Y-101040274D01*
X151210876Y-101135512D01*
X151258495Y-101183131D01*
X151353733Y-101230750D01*
X151734685Y-101230750D01*
X150210876Y-101706940D02*
X150782304Y-101706940D01*
X150496590Y-101706940D02*
X150496590Y-100706940D01*
X150591828Y-100849798D01*
X150687066Y-100945036D01*
X150782304Y-100992655D01*
X149353733Y-101040274D02*
X149353733Y-101706940D01*
X149591828Y-100659321D02*
X149829923Y-101373607D01*
X149210876Y-101373607D01*
X159448737Y-78462142D02*
X159496356Y-78509761D01*
X159639213Y-78557380D01*
X159734451Y-78557380D01*
X159877308Y-78509761D01*
X159972546Y-78414523D01*
X160020165Y-78319285D01*
X160067784Y-78128809D01*
X160067784Y-77985952D01*
X160020165Y-77795476D01*
X159972546Y-77700238D01*
X159877308Y-77605000D01*
X159734451Y-77557380D01*
X159639213Y-77557380D01*
X159496356Y-77605000D01*
X159448737Y-77652619D01*
X159067784Y-77652619D02*
X159020165Y-77605000D01*
X158924927Y-77557380D01*
X158686832Y-77557380D01*
X158591594Y-77605000D01*
X158543975Y-77652619D01*
X158496356Y-77747857D01*
X158496356Y-77843095D01*
X158543975Y-77985952D01*
X159115403Y-78557380D01*
X158496356Y-78557380D01*
X157639213Y-77890714D02*
X157639213Y-78557380D01*
X157877308Y-77509761D02*
X158115403Y-78224047D01*
X157496356Y-78224047D01*
X179614566Y-116807500D02*
X179947900Y-116331310D01*
X180185995Y-116807500D02*
X180185995Y-115807500D01*
X179805042Y-115807500D01*
X179709804Y-115855120D01*
X179662185Y-115902739D01*
X179614566Y-115997977D01*
X179614566Y-116140834D01*
X179662185Y-116236072D01*
X179709804Y-116283691D01*
X179805042Y-116331310D01*
X180185995Y-116331310D01*
X178662185Y-116807500D02*
X179233614Y-116807500D01*
X178947900Y-116807500D02*
X178947900Y-115807500D01*
X179043138Y-115950358D01*
X179138376Y-116045596D01*
X179233614Y-116093215D01*
X180336804Y-117474334D02*
X180336804Y-118141000D01*
X180574900Y-117093381D02*
X180812995Y-117807667D01*
X180193947Y-117807667D01*
X179908233Y-117141000D02*
X179241566Y-117141000D01*
X179670138Y-118141000D01*
X178670138Y-117141000D02*
X178574900Y-117141000D01*
X178479661Y-117188620D01*
X178432042Y-117236239D01*
X178384423Y-117331477D01*
X178336804Y-117521953D01*
X178336804Y-117760048D01*
X178384423Y-117950524D01*
X178432042Y-118045762D01*
X178479661Y-118093381D01*
X178574900Y-118141000D01*
X178670138Y-118141000D01*
X178765376Y-118093381D01*
X178812995Y-118045762D01*
X178860614Y-117950524D01*
X178908233Y-117760048D01*
X178908233Y-117521953D01*
X178860614Y-117331477D01*
X178812995Y-117236239D01*
X178765376Y-117188620D01*
X178670138Y-117141000D01*
X102985842Y-109110542D02*
X103033461Y-109062923D01*
X103081080Y-108920066D01*
X103081080Y-108824828D01*
X103033461Y-108681971D01*
X102938223Y-108586733D01*
X102842985Y-108539114D01*
X102652509Y-108491495D01*
X102509652Y-108491495D01*
X102319176Y-108539114D01*
X102223938Y-108586733D01*
X102128700Y-108681971D01*
X102081080Y-108824828D01*
X102081080Y-108920066D01*
X102128700Y-109062923D01*
X102176319Y-109110542D01*
X103081080Y-110062923D02*
X103081080Y-109491495D01*
X103081080Y-109777209D02*
X102081080Y-109777209D01*
X102223938Y-109681971D01*
X102319176Y-109586733D01*
X102366795Y-109491495D01*
X103081080Y-110539114D02*
X103081080Y-110729590D01*
X103033461Y-110824828D01*
X102985842Y-110872447D01*
X102842985Y-110967685D01*
X102652509Y-111015304D01*
X102271557Y-111015304D01*
X102176319Y-110967685D01*
X102128700Y-110920066D01*
X102081080Y-110824828D01*
X102081080Y-110634352D01*
X102128700Y-110539114D01*
X102176319Y-110491495D01*
X102271557Y-110443876D01*
X102509652Y-110443876D01*
X102604890Y-110491495D01*
X102652509Y-110539114D01*
X102700128Y-110634352D01*
X102700128Y-110824828D01*
X102652509Y-110920066D01*
X102604890Y-110967685D01*
X102509652Y-111015304D01*
X126417342Y-75411033D02*
X126464961Y-75363414D01*
X126512580Y-75220557D01*
X126512580Y-75125319D01*
X126464961Y-74982461D01*
X126369723Y-74887223D01*
X126274485Y-74839604D01*
X126084009Y-74791985D01*
X125941152Y-74791985D01*
X125750676Y-74839604D01*
X125655438Y-74887223D01*
X125560200Y-74982461D01*
X125512580Y-75125319D01*
X125512580Y-75220557D01*
X125560200Y-75363414D01*
X125607819Y-75411033D01*
X125512580Y-76268176D02*
X125512580Y-76077700D01*
X125560200Y-75982461D01*
X125607819Y-75934842D01*
X125750676Y-75839604D01*
X125941152Y-75791985D01*
X126322104Y-75791985D01*
X126417342Y-75839604D01*
X126464961Y-75887223D01*
X126512580Y-75982461D01*
X126512580Y-76172938D01*
X126464961Y-76268176D01*
X126417342Y-76315795D01*
X126322104Y-76363414D01*
X126084009Y-76363414D01*
X125988771Y-76315795D01*
X125941152Y-76268176D01*
X125893533Y-76172938D01*
X125893533Y-75982461D01*
X125941152Y-75887223D01*
X125988771Y-75839604D01*
X126084009Y-75791985D01*
X134944122Y-97789762D02*
X134991741Y-97742143D01*
X135039360Y-97599286D01*
X135039360Y-97504048D01*
X134991741Y-97361191D01*
X134896503Y-97265953D01*
X134801265Y-97218334D01*
X134610789Y-97170715D01*
X134467932Y-97170715D01*
X134277456Y-97218334D01*
X134182218Y-97265953D01*
X134086980Y-97361191D01*
X134039360Y-97504048D01*
X134039360Y-97599286D01*
X134086980Y-97742143D01*
X134134599Y-97789762D01*
X134039360Y-98123096D02*
X134039360Y-98742143D01*
X134420313Y-98408810D01*
X134420313Y-98551667D01*
X134467932Y-98646905D01*
X134515551Y-98694524D01*
X134610789Y-98742143D01*
X134848884Y-98742143D01*
X134944122Y-98694524D01*
X134991741Y-98646905D01*
X135039360Y-98551667D01*
X135039360Y-98265953D01*
X134991741Y-98170715D01*
X134944122Y-98123096D01*
X134039360Y-99646905D02*
X134039360Y-99170715D01*
X134515551Y-99123096D01*
X134467932Y-99170715D01*
X134420313Y-99265953D01*
X134420313Y-99504048D01*
X134467932Y-99599286D01*
X134515551Y-99646905D01*
X134610789Y-99694524D01*
X134848884Y-99694524D01*
X134944122Y-99646905D01*
X134991741Y-99599286D01*
X135039360Y-99504048D01*
X135039360Y-99265953D01*
X134991741Y-99170715D01*
X134944122Y-99123096D01*
X178044077Y-88380842D02*
X178091696Y-88428461D01*
X178234553Y-88476080D01*
X178329791Y-88476080D01*
X178472648Y-88428461D01*
X178567886Y-88333223D01*
X178615505Y-88237985D01*
X178663124Y-88047509D01*
X178663124Y-87904652D01*
X178615505Y-87714176D01*
X178567886Y-87618938D01*
X178472648Y-87523700D01*
X178329791Y-87476080D01*
X178234553Y-87476080D01*
X178091696Y-87523700D01*
X178044077Y-87571319D01*
X177710743Y-87476080D02*
X177091696Y-87476080D01*
X177425029Y-87857033D01*
X177282172Y-87857033D01*
X177186934Y-87904652D01*
X177139315Y-87952271D01*
X177091696Y-88047509D01*
X177091696Y-88285604D01*
X177139315Y-88380842D01*
X177186934Y-88428461D01*
X177282172Y-88476080D01*
X177567886Y-88476080D01*
X177663124Y-88428461D01*
X177710743Y-88380842D01*
X176710743Y-87571319D02*
X176663124Y-87523700D01*
X176567886Y-87476080D01*
X176329791Y-87476080D01*
X176234553Y-87523700D01*
X176186934Y-87571319D01*
X176139315Y-87666557D01*
X176139315Y-87761795D01*
X176186934Y-87904652D01*
X176758362Y-88476080D01*
X176139315Y-88476080D01*
X179849328Y-92120980D02*
X180420757Y-92120980D01*
X180135042Y-92120980D02*
X180135042Y-91120980D01*
X180230280Y-91263838D01*
X180325519Y-91359076D01*
X180420757Y-91406695D01*
X179230280Y-91120980D02*
X179135042Y-91120980D01*
X179039804Y-91168600D01*
X178992185Y-91216219D01*
X178944566Y-91311457D01*
X178896947Y-91501933D01*
X178896947Y-91740028D01*
X178944566Y-91930504D01*
X178992185Y-92025742D01*
X179039804Y-92073361D01*
X179135042Y-92120980D01*
X179230280Y-92120980D01*
X179325519Y-92073361D01*
X179373138Y-92025742D01*
X179420757Y-91930504D01*
X179468376Y-91740028D01*
X179468376Y-91501933D01*
X179420757Y-91311457D01*
X179373138Y-91216219D01*
X179325519Y-91168600D01*
X179230280Y-91120980D01*
X178039804Y-91454314D02*
X178039804Y-92120980D01*
X178468376Y-91454314D02*
X178468376Y-91978123D01*
X178420757Y-92073361D01*
X178325519Y-92120980D01*
X178182661Y-92120980D01*
X178087423Y-92073361D01*
X178039804Y-92025742D01*
X177230280Y-91597171D02*
X177563614Y-91597171D01*
X177563614Y-92120980D02*
X177563614Y-91120980D01*
X177087423Y-91120980D01*
X135697966Y-105973142D02*
X135745585Y-106020761D01*
X135888442Y-106068380D01*
X135983680Y-106068380D01*
X136126538Y-106020761D01*
X136221776Y-105925523D01*
X136269395Y-105830285D01*
X136317014Y-105639809D01*
X136317014Y-105496952D01*
X136269395Y-105306476D01*
X136221776Y-105211238D01*
X136126538Y-105116000D01*
X135983680Y-105068380D01*
X135888442Y-105068380D01*
X135745585Y-105116000D01*
X135697966Y-105163619D01*
X135317014Y-105163619D02*
X135269395Y-105116000D01*
X135174157Y-105068380D01*
X134936061Y-105068380D01*
X134840823Y-105116000D01*
X134793204Y-105163619D01*
X134745585Y-105258857D01*
X134745585Y-105354095D01*
X134793204Y-105496952D01*
X135364633Y-106068380D01*
X134745585Y-106068380D01*
X123709166Y-92269842D02*
X123756785Y-92317461D01*
X123899642Y-92365080D01*
X123994880Y-92365080D01*
X124137738Y-92317461D01*
X124232976Y-92222223D01*
X124280595Y-92126985D01*
X124328214Y-91936509D01*
X124328214Y-91793652D01*
X124280595Y-91603176D01*
X124232976Y-91507938D01*
X124137738Y-91412700D01*
X123994880Y-91365080D01*
X123899642Y-91365080D01*
X123756785Y-91412700D01*
X123709166Y-91460319D01*
X122756785Y-92365080D02*
X123328214Y-92365080D01*
X123042500Y-92365080D02*
X123042500Y-91365080D01*
X123137738Y-91507938D01*
X123232976Y-91603176D01*
X123328214Y-91650795D01*
X180284357Y-107062542D02*
X180331976Y-107110161D01*
X180474833Y-107157780D01*
X180570071Y-107157780D01*
X180712928Y-107110161D01*
X180808166Y-107014923D01*
X180855785Y-106919685D01*
X180903404Y-106729209D01*
X180903404Y-106586352D01*
X180855785Y-106395876D01*
X180808166Y-106300638D01*
X180712928Y-106205400D01*
X180570071Y-106157780D01*
X180474833Y-106157780D01*
X180331976Y-106205400D01*
X180284357Y-106253019D01*
X179331976Y-107157780D02*
X179903404Y-107157780D01*
X179617690Y-107157780D02*
X179617690Y-106157780D01*
X179712928Y-106300638D01*
X179808166Y-106395876D01*
X179903404Y-106443495D01*
X178474833Y-106491114D02*
X178474833Y-107157780D01*
X178712928Y-106110161D02*
X178951023Y-106824447D01*
X178331976Y-106824447D01*
X171683357Y-109846642D02*
X171730976Y-109894261D01*
X171873833Y-109941880D01*
X171969071Y-109941880D01*
X172111928Y-109894261D01*
X172207166Y-109799023D01*
X172254785Y-109703785D01*
X172302404Y-109513309D01*
X172302404Y-109370452D01*
X172254785Y-109179976D01*
X172207166Y-109084738D01*
X172111928Y-108989500D01*
X171969071Y-108941880D01*
X171873833Y-108941880D01*
X171730976Y-108989500D01*
X171683357Y-109037119D01*
X170730976Y-109941880D02*
X171302404Y-109941880D01*
X171016690Y-109941880D02*
X171016690Y-108941880D01*
X171111928Y-109084738D01*
X171207166Y-109179976D01*
X171302404Y-109227595D01*
X169778595Y-109941880D02*
X170350023Y-109941880D01*
X170064309Y-109941880D02*
X170064309Y-108941880D01*
X170159547Y-109084738D01*
X170254785Y-109179976D01*
X170350023Y-109227595D01*
X131757657Y-108853242D02*
X131805276Y-108900861D01*
X131948133Y-108948480D01*
X132043371Y-108948480D01*
X132186228Y-108900861D01*
X132281466Y-108805623D01*
X132329085Y-108710385D01*
X132376704Y-108519909D01*
X132376704Y-108377052D01*
X132329085Y-108186576D01*
X132281466Y-108091338D01*
X132186228Y-107996100D01*
X132043371Y-107948480D01*
X131948133Y-107948480D01*
X131805276Y-107996100D01*
X131757657Y-108043719D01*
X130805276Y-108948480D02*
X131376704Y-108948480D01*
X131090990Y-108948480D02*
X131090990Y-107948480D01*
X131186228Y-108091338D01*
X131281466Y-108186576D01*
X131376704Y-108234195D01*
X130186228Y-107948480D02*
X130090990Y-107948480D01*
X129995752Y-107996100D01*
X129948133Y-108043719D01*
X129900514Y-108138957D01*
X129852895Y-108329433D01*
X129852895Y-108567528D01*
X129900514Y-108758004D01*
X129948133Y-108853242D01*
X129995752Y-108900861D01*
X130090990Y-108948480D01*
X130186228Y-108948480D01*
X130281466Y-108900861D01*
X130329085Y-108853242D01*
X130376704Y-108758004D01*
X130424323Y-108567528D01*
X130424323Y-108329433D01*
X130376704Y-108138957D01*
X130329085Y-108043719D01*
X130281466Y-107996100D01*
X130186228Y-107948480D01*
X119365742Y-97562633D02*
X119413361Y-97515014D01*
X119460980Y-97372157D01*
X119460980Y-97276919D01*
X119413361Y-97134061D01*
X119318123Y-97038823D01*
X119222885Y-96991204D01*
X119032409Y-96943585D01*
X118889552Y-96943585D01*
X118699076Y-96991204D01*
X118603838Y-97038823D01*
X118508600Y-97134061D01*
X118460980Y-97276919D01*
X118460980Y-97372157D01*
X118508600Y-97515014D01*
X118556219Y-97562633D01*
X118460980Y-98467395D02*
X118460980Y-97991204D01*
X118937171Y-97943585D01*
X118889552Y-97991204D01*
X118841933Y-98086442D01*
X118841933Y-98324538D01*
X118889552Y-98419776D01*
X118937171Y-98467395D01*
X119032409Y-98515014D01*
X119270504Y-98515014D01*
X119365742Y-98467395D01*
X119413361Y-98419776D01*
X119460980Y-98324538D01*
X119460980Y-98086442D01*
X119413361Y-97991204D01*
X119365742Y-97943585D01*
X129582206Y-82256902D02*
X129629825Y-82304521D01*
X129772682Y-82352140D01*
X129867920Y-82352140D01*
X130010778Y-82304521D01*
X130106016Y-82209283D01*
X130153635Y-82114045D01*
X130201254Y-81923569D01*
X130201254Y-81780712D01*
X130153635Y-81590236D01*
X130106016Y-81494998D01*
X130010778Y-81399760D01*
X129867920Y-81352140D01*
X129772682Y-81352140D01*
X129629825Y-81399760D01*
X129582206Y-81447379D01*
X129248873Y-81352140D02*
X128582206Y-81352140D01*
X129010778Y-82352140D01*
M02*
