G04 #@! TF.GenerationSoftware,KiCad,Pcbnew,(5.1.2)-1*
G04 #@! TF.CreationDate,2020-06-03T11:36:28+09:00*
G04 #@! TF.ProjectId,o2_breakout,6f325f62-7265-4616-9b6f-75742e6b6963,rev?*
G04 #@! TF.SameCoordinates,Original*
G04 #@! TF.FileFunction,Paste,Top*
G04 #@! TF.FilePolarity,Positive*
%FSLAX46Y46*%
G04 Gerber Fmt 4.6, Leading zero omitted, Abs format (unit mm)*
G04 Created by KiCad (PCBNEW (5.1.2)-1) date 2020-06-03 11:36:28*
%MOMM*%
%LPD*%
G04 APERTURE LIST*
%ADD10R,0.600000X0.500000*%
%ADD11R,1.100000X1.900000*%
%ADD12R,1.060000X0.650000*%
%ADD13R,0.800000X0.750000*%
%ADD14R,1.900000X1.800000*%
%ADD15R,2.800000X1.500000*%
%ADD16R,0.800000X1.500000*%
%ADD17R,1.200000X1.500000*%
%ADD18R,1.500000X1.000000*%
%ADD19R,1.500000X0.700000*%
%ADD20R,1.000000X2.500000*%
%ADD21R,0.500000X0.600000*%
%ADD22R,1.250000X1.000000*%
%ADD23R,0.600000X2.250000*%
%ADD24R,1.900000X1.200000*%
%ADD25R,1.750000X0.400000*%
%ADD26R,1.350000X0.400000*%
%ADD27R,1.900000X1.600000*%
%ADD28R,2.000000X2.100000*%
%ADD29R,0.600000X1.550000*%
%ADD30C,0.100000*%
%ADD31C,0.600000*%
%ADD32R,0.750000X0.800000*%
%ADD33R,0.400000X0.650000*%
%ADD34R,1.000000X1.250000*%
%ADD35R,1.760000X1.760000*%
%ADD36R,1.400000X0.300000*%
%ADD37R,0.300000X1.400000*%
%ADD38R,0.600000X1.300000*%
%ADD39R,1.800000X1.540000*%
%ADD40R,2.000000X0.600000*%
%ADD41R,1.500000X0.300000*%
%ADD42R,0.300000X1.500000*%
G04 APERTURE END LIST*
D10*
X116564500Y-107327700D03*
X115464500Y-107327700D03*
D11*
X108130300Y-89109860D03*
X105720300Y-89109860D03*
D10*
X105256240Y-91191080D03*
X106356240Y-91191080D03*
D12*
X152404900Y-73802200D03*
X152404900Y-74752200D03*
X152404900Y-75702200D03*
X154604900Y-75702200D03*
X154604900Y-73802200D03*
D10*
X147209600Y-73952100D03*
X146109600Y-73952100D03*
D13*
X144374300Y-73863200D03*
X142874300Y-73863200D03*
X176999200Y-71729600D03*
X178499200Y-71729600D03*
D14*
X194776500Y-74136000D03*
D15*
X194326500Y-88136000D03*
D16*
X190176500Y-88136000D03*
D17*
X183976500Y-88136000D03*
D18*
X179526500Y-76736000D03*
D19*
X179526500Y-86936000D03*
X179526500Y-85986000D03*
X179526500Y-84886000D03*
X179526500Y-83786000D03*
X179526500Y-82686000D03*
X179526500Y-81586000D03*
X179526500Y-80486000D03*
X179526500Y-79386000D03*
X179526500Y-78286000D03*
D20*
X170328720Y-81892140D03*
X167328720Y-81892140D03*
D21*
X110169400Y-121999000D03*
X110169400Y-123099000D03*
D22*
X174604680Y-81095340D03*
X174604680Y-83095340D03*
D10*
X147145920Y-100078540D03*
X148245920Y-100078540D03*
D23*
X151990500Y-89828500D03*
X153260500Y-89828500D03*
X154530500Y-89828500D03*
X155800500Y-89828500D03*
X157070500Y-89828500D03*
X158340500Y-89828500D03*
X159610500Y-89828500D03*
X160880500Y-89828500D03*
X162150500Y-89828500D03*
X163420500Y-89828500D03*
X163420500Y-80128500D03*
X162150500Y-80128500D03*
X160880500Y-80128500D03*
X159610500Y-80128500D03*
X158340500Y-80128500D03*
X157070500Y-80128500D03*
X155800500Y-80128500D03*
X154530500Y-80128500D03*
X153260500Y-80128500D03*
X151990500Y-80128500D03*
D24*
X194038220Y-104143440D03*
X194038220Y-105843440D03*
D25*
X191163220Y-106293440D03*
D26*
X191363220Y-105643440D03*
D25*
X191163220Y-104993440D03*
X191163220Y-104343440D03*
X191163220Y-103693440D03*
D27*
X194038220Y-100893440D03*
X194038220Y-109093440D03*
D28*
X191688220Y-101893440D03*
X191688220Y-108093440D03*
D21*
X169024300Y-105223400D03*
X169024300Y-104123400D03*
X167881300Y-105223400D03*
X167881300Y-104123400D03*
X104797300Y-85952500D03*
X104797300Y-87052500D03*
D29*
X149953980Y-101285020D03*
X151223980Y-101285020D03*
X152493980Y-101285020D03*
X153763980Y-101285020D03*
X153763980Y-95885020D03*
X152493980Y-95885020D03*
X151223980Y-95885020D03*
X149953980Y-95885020D03*
D30*
G36*
X138629703Y-81576722D02*
G01*
X138644264Y-81578882D01*
X138658543Y-81582459D01*
X138672403Y-81587418D01*
X138685710Y-81593712D01*
X138698336Y-81601280D01*
X138710159Y-81610048D01*
X138721066Y-81619934D01*
X138730952Y-81630841D01*
X138739720Y-81642664D01*
X138747288Y-81655290D01*
X138753582Y-81668597D01*
X138758541Y-81682457D01*
X138762118Y-81696736D01*
X138764278Y-81711297D01*
X138765000Y-81726000D01*
X138765000Y-83826000D01*
X138764278Y-83840703D01*
X138762118Y-83855264D01*
X138758541Y-83869543D01*
X138753582Y-83883403D01*
X138747288Y-83896710D01*
X138739720Y-83909336D01*
X138730952Y-83921159D01*
X138721066Y-83932066D01*
X138710159Y-83941952D01*
X138698336Y-83950720D01*
X138685710Y-83958288D01*
X138672403Y-83964582D01*
X138658543Y-83969541D01*
X138644264Y-83973118D01*
X138629703Y-83975278D01*
X138615000Y-83976000D01*
X138315000Y-83976000D01*
X138300297Y-83975278D01*
X138285736Y-83973118D01*
X138271457Y-83969541D01*
X138257597Y-83964582D01*
X138244290Y-83958288D01*
X138231664Y-83950720D01*
X138219841Y-83941952D01*
X138208934Y-83932066D01*
X138199048Y-83921159D01*
X138190280Y-83909336D01*
X138182712Y-83896710D01*
X138176418Y-83883403D01*
X138171459Y-83869543D01*
X138167882Y-83855264D01*
X138165722Y-83840703D01*
X138165000Y-83826000D01*
X138165000Y-81726000D01*
X138165722Y-81711297D01*
X138167882Y-81696736D01*
X138171459Y-81682457D01*
X138176418Y-81668597D01*
X138182712Y-81655290D01*
X138190280Y-81642664D01*
X138199048Y-81630841D01*
X138208934Y-81619934D01*
X138219841Y-81610048D01*
X138231664Y-81601280D01*
X138244290Y-81593712D01*
X138257597Y-81587418D01*
X138271457Y-81582459D01*
X138285736Y-81578882D01*
X138300297Y-81576722D01*
X138315000Y-81576000D01*
X138615000Y-81576000D01*
X138629703Y-81576722D01*
X138629703Y-81576722D01*
G37*
D31*
X138465000Y-82776000D03*
D30*
G36*
X137359703Y-81576722D02*
G01*
X137374264Y-81578882D01*
X137388543Y-81582459D01*
X137402403Y-81587418D01*
X137415710Y-81593712D01*
X137428336Y-81601280D01*
X137440159Y-81610048D01*
X137451066Y-81619934D01*
X137460952Y-81630841D01*
X137469720Y-81642664D01*
X137477288Y-81655290D01*
X137483582Y-81668597D01*
X137488541Y-81682457D01*
X137492118Y-81696736D01*
X137494278Y-81711297D01*
X137495000Y-81726000D01*
X137495000Y-83826000D01*
X137494278Y-83840703D01*
X137492118Y-83855264D01*
X137488541Y-83869543D01*
X137483582Y-83883403D01*
X137477288Y-83896710D01*
X137469720Y-83909336D01*
X137460952Y-83921159D01*
X137451066Y-83932066D01*
X137440159Y-83941952D01*
X137428336Y-83950720D01*
X137415710Y-83958288D01*
X137402403Y-83964582D01*
X137388543Y-83969541D01*
X137374264Y-83973118D01*
X137359703Y-83975278D01*
X137345000Y-83976000D01*
X137045000Y-83976000D01*
X137030297Y-83975278D01*
X137015736Y-83973118D01*
X137001457Y-83969541D01*
X136987597Y-83964582D01*
X136974290Y-83958288D01*
X136961664Y-83950720D01*
X136949841Y-83941952D01*
X136938934Y-83932066D01*
X136929048Y-83921159D01*
X136920280Y-83909336D01*
X136912712Y-83896710D01*
X136906418Y-83883403D01*
X136901459Y-83869543D01*
X136897882Y-83855264D01*
X136895722Y-83840703D01*
X136895000Y-83826000D01*
X136895000Y-81726000D01*
X136895722Y-81711297D01*
X136897882Y-81696736D01*
X136901459Y-81682457D01*
X136906418Y-81668597D01*
X136912712Y-81655290D01*
X136920280Y-81642664D01*
X136929048Y-81630841D01*
X136938934Y-81619934D01*
X136949841Y-81610048D01*
X136961664Y-81601280D01*
X136974290Y-81593712D01*
X136987597Y-81587418D01*
X137001457Y-81582459D01*
X137015736Y-81578882D01*
X137030297Y-81576722D01*
X137045000Y-81576000D01*
X137345000Y-81576000D01*
X137359703Y-81576722D01*
X137359703Y-81576722D01*
G37*
D31*
X137195000Y-82776000D03*
D30*
G36*
X136089703Y-81576722D02*
G01*
X136104264Y-81578882D01*
X136118543Y-81582459D01*
X136132403Y-81587418D01*
X136145710Y-81593712D01*
X136158336Y-81601280D01*
X136170159Y-81610048D01*
X136181066Y-81619934D01*
X136190952Y-81630841D01*
X136199720Y-81642664D01*
X136207288Y-81655290D01*
X136213582Y-81668597D01*
X136218541Y-81682457D01*
X136222118Y-81696736D01*
X136224278Y-81711297D01*
X136225000Y-81726000D01*
X136225000Y-83826000D01*
X136224278Y-83840703D01*
X136222118Y-83855264D01*
X136218541Y-83869543D01*
X136213582Y-83883403D01*
X136207288Y-83896710D01*
X136199720Y-83909336D01*
X136190952Y-83921159D01*
X136181066Y-83932066D01*
X136170159Y-83941952D01*
X136158336Y-83950720D01*
X136145710Y-83958288D01*
X136132403Y-83964582D01*
X136118543Y-83969541D01*
X136104264Y-83973118D01*
X136089703Y-83975278D01*
X136075000Y-83976000D01*
X135775000Y-83976000D01*
X135760297Y-83975278D01*
X135745736Y-83973118D01*
X135731457Y-83969541D01*
X135717597Y-83964582D01*
X135704290Y-83958288D01*
X135691664Y-83950720D01*
X135679841Y-83941952D01*
X135668934Y-83932066D01*
X135659048Y-83921159D01*
X135650280Y-83909336D01*
X135642712Y-83896710D01*
X135636418Y-83883403D01*
X135631459Y-83869543D01*
X135627882Y-83855264D01*
X135625722Y-83840703D01*
X135625000Y-83826000D01*
X135625000Y-81726000D01*
X135625722Y-81711297D01*
X135627882Y-81696736D01*
X135631459Y-81682457D01*
X135636418Y-81668597D01*
X135642712Y-81655290D01*
X135650280Y-81642664D01*
X135659048Y-81630841D01*
X135668934Y-81619934D01*
X135679841Y-81610048D01*
X135691664Y-81601280D01*
X135704290Y-81593712D01*
X135717597Y-81587418D01*
X135731457Y-81582459D01*
X135745736Y-81578882D01*
X135760297Y-81576722D01*
X135775000Y-81576000D01*
X136075000Y-81576000D01*
X136089703Y-81576722D01*
X136089703Y-81576722D01*
G37*
D31*
X135925000Y-82776000D03*
D30*
G36*
X134819703Y-81576722D02*
G01*
X134834264Y-81578882D01*
X134848543Y-81582459D01*
X134862403Y-81587418D01*
X134875710Y-81593712D01*
X134888336Y-81601280D01*
X134900159Y-81610048D01*
X134911066Y-81619934D01*
X134920952Y-81630841D01*
X134929720Y-81642664D01*
X134937288Y-81655290D01*
X134943582Y-81668597D01*
X134948541Y-81682457D01*
X134952118Y-81696736D01*
X134954278Y-81711297D01*
X134955000Y-81726000D01*
X134955000Y-83826000D01*
X134954278Y-83840703D01*
X134952118Y-83855264D01*
X134948541Y-83869543D01*
X134943582Y-83883403D01*
X134937288Y-83896710D01*
X134929720Y-83909336D01*
X134920952Y-83921159D01*
X134911066Y-83932066D01*
X134900159Y-83941952D01*
X134888336Y-83950720D01*
X134875710Y-83958288D01*
X134862403Y-83964582D01*
X134848543Y-83969541D01*
X134834264Y-83973118D01*
X134819703Y-83975278D01*
X134805000Y-83976000D01*
X134505000Y-83976000D01*
X134490297Y-83975278D01*
X134475736Y-83973118D01*
X134461457Y-83969541D01*
X134447597Y-83964582D01*
X134434290Y-83958288D01*
X134421664Y-83950720D01*
X134409841Y-83941952D01*
X134398934Y-83932066D01*
X134389048Y-83921159D01*
X134380280Y-83909336D01*
X134372712Y-83896710D01*
X134366418Y-83883403D01*
X134361459Y-83869543D01*
X134357882Y-83855264D01*
X134355722Y-83840703D01*
X134355000Y-83826000D01*
X134355000Y-81726000D01*
X134355722Y-81711297D01*
X134357882Y-81696736D01*
X134361459Y-81682457D01*
X134366418Y-81668597D01*
X134372712Y-81655290D01*
X134380280Y-81642664D01*
X134389048Y-81630841D01*
X134398934Y-81619934D01*
X134409841Y-81610048D01*
X134421664Y-81601280D01*
X134434290Y-81593712D01*
X134447597Y-81587418D01*
X134461457Y-81582459D01*
X134475736Y-81578882D01*
X134490297Y-81576722D01*
X134505000Y-81576000D01*
X134805000Y-81576000D01*
X134819703Y-81576722D01*
X134819703Y-81576722D01*
G37*
D31*
X134655000Y-82776000D03*
D30*
G36*
X133549703Y-81576722D02*
G01*
X133564264Y-81578882D01*
X133578543Y-81582459D01*
X133592403Y-81587418D01*
X133605710Y-81593712D01*
X133618336Y-81601280D01*
X133630159Y-81610048D01*
X133641066Y-81619934D01*
X133650952Y-81630841D01*
X133659720Y-81642664D01*
X133667288Y-81655290D01*
X133673582Y-81668597D01*
X133678541Y-81682457D01*
X133682118Y-81696736D01*
X133684278Y-81711297D01*
X133685000Y-81726000D01*
X133685000Y-83826000D01*
X133684278Y-83840703D01*
X133682118Y-83855264D01*
X133678541Y-83869543D01*
X133673582Y-83883403D01*
X133667288Y-83896710D01*
X133659720Y-83909336D01*
X133650952Y-83921159D01*
X133641066Y-83932066D01*
X133630159Y-83941952D01*
X133618336Y-83950720D01*
X133605710Y-83958288D01*
X133592403Y-83964582D01*
X133578543Y-83969541D01*
X133564264Y-83973118D01*
X133549703Y-83975278D01*
X133535000Y-83976000D01*
X133235000Y-83976000D01*
X133220297Y-83975278D01*
X133205736Y-83973118D01*
X133191457Y-83969541D01*
X133177597Y-83964582D01*
X133164290Y-83958288D01*
X133151664Y-83950720D01*
X133139841Y-83941952D01*
X133128934Y-83932066D01*
X133119048Y-83921159D01*
X133110280Y-83909336D01*
X133102712Y-83896710D01*
X133096418Y-83883403D01*
X133091459Y-83869543D01*
X133087882Y-83855264D01*
X133085722Y-83840703D01*
X133085000Y-83826000D01*
X133085000Y-81726000D01*
X133085722Y-81711297D01*
X133087882Y-81696736D01*
X133091459Y-81682457D01*
X133096418Y-81668597D01*
X133102712Y-81655290D01*
X133110280Y-81642664D01*
X133119048Y-81630841D01*
X133128934Y-81619934D01*
X133139841Y-81610048D01*
X133151664Y-81601280D01*
X133164290Y-81593712D01*
X133177597Y-81587418D01*
X133191457Y-81582459D01*
X133205736Y-81578882D01*
X133220297Y-81576722D01*
X133235000Y-81576000D01*
X133535000Y-81576000D01*
X133549703Y-81576722D01*
X133549703Y-81576722D01*
G37*
D31*
X133385000Y-82776000D03*
D30*
G36*
X132279703Y-81576722D02*
G01*
X132294264Y-81578882D01*
X132308543Y-81582459D01*
X132322403Y-81587418D01*
X132335710Y-81593712D01*
X132348336Y-81601280D01*
X132360159Y-81610048D01*
X132371066Y-81619934D01*
X132380952Y-81630841D01*
X132389720Y-81642664D01*
X132397288Y-81655290D01*
X132403582Y-81668597D01*
X132408541Y-81682457D01*
X132412118Y-81696736D01*
X132414278Y-81711297D01*
X132415000Y-81726000D01*
X132415000Y-83826000D01*
X132414278Y-83840703D01*
X132412118Y-83855264D01*
X132408541Y-83869543D01*
X132403582Y-83883403D01*
X132397288Y-83896710D01*
X132389720Y-83909336D01*
X132380952Y-83921159D01*
X132371066Y-83932066D01*
X132360159Y-83941952D01*
X132348336Y-83950720D01*
X132335710Y-83958288D01*
X132322403Y-83964582D01*
X132308543Y-83969541D01*
X132294264Y-83973118D01*
X132279703Y-83975278D01*
X132265000Y-83976000D01*
X131965000Y-83976000D01*
X131950297Y-83975278D01*
X131935736Y-83973118D01*
X131921457Y-83969541D01*
X131907597Y-83964582D01*
X131894290Y-83958288D01*
X131881664Y-83950720D01*
X131869841Y-83941952D01*
X131858934Y-83932066D01*
X131849048Y-83921159D01*
X131840280Y-83909336D01*
X131832712Y-83896710D01*
X131826418Y-83883403D01*
X131821459Y-83869543D01*
X131817882Y-83855264D01*
X131815722Y-83840703D01*
X131815000Y-83826000D01*
X131815000Y-81726000D01*
X131815722Y-81711297D01*
X131817882Y-81696736D01*
X131821459Y-81682457D01*
X131826418Y-81668597D01*
X131832712Y-81655290D01*
X131840280Y-81642664D01*
X131849048Y-81630841D01*
X131858934Y-81619934D01*
X131869841Y-81610048D01*
X131881664Y-81601280D01*
X131894290Y-81593712D01*
X131907597Y-81587418D01*
X131921457Y-81582459D01*
X131935736Y-81578882D01*
X131950297Y-81576722D01*
X131965000Y-81576000D01*
X132265000Y-81576000D01*
X132279703Y-81576722D01*
X132279703Y-81576722D01*
G37*
D31*
X132115000Y-82776000D03*
D30*
G36*
X131009703Y-81576722D02*
G01*
X131024264Y-81578882D01*
X131038543Y-81582459D01*
X131052403Y-81587418D01*
X131065710Y-81593712D01*
X131078336Y-81601280D01*
X131090159Y-81610048D01*
X131101066Y-81619934D01*
X131110952Y-81630841D01*
X131119720Y-81642664D01*
X131127288Y-81655290D01*
X131133582Y-81668597D01*
X131138541Y-81682457D01*
X131142118Y-81696736D01*
X131144278Y-81711297D01*
X131145000Y-81726000D01*
X131145000Y-83826000D01*
X131144278Y-83840703D01*
X131142118Y-83855264D01*
X131138541Y-83869543D01*
X131133582Y-83883403D01*
X131127288Y-83896710D01*
X131119720Y-83909336D01*
X131110952Y-83921159D01*
X131101066Y-83932066D01*
X131090159Y-83941952D01*
X131078336Y-83950720D01*
X131065710Y-83958288D01*
X131052403Y-83964582D01*
X131038543Y-83969541D01*
X131024264Y-83973118D01*
X131009703Y-83975278D01*
X130995000Y-83976000D01*
X130695000Y-83976000D01*
X130680297Y-83975278D01*
X130665736Y-83973118D01*
X130651457Y-83969541D01*
X130637597Y-83964582D01*
X130624290Y-83958288D01*
X130611664Y-83950720D01*
X130599841Y-83941952D01*
X130588934Y-83932066D01*
X130579048Y-83921159D01*
X130570280Y-83909336D01*
X130562712Y-83896710D01*
X130556418Y-83883403D01*
X130551459Y-83869543D01*
X130547882Y-83855264D01*
X130545722Y-83840703D01*
X130545000Y-83826000D01*
X130545000Y-81726000D01*
X130545722Y-81711297D01*
X130547882Y-81696736D01*
X130551459Y-81682457D01*
X130556418Y-81668597D01*
X130562712Y-81655290D01*
X130570280Y-81642664D01*
X130579048Y-81630841D01*
X130588934Y-81619934D01*
X130599841Y-81610048D01*
X130611664Y-81601280D01*
X130624290Y-81593712D01*
X130637597Y-81587418D01*
X130651457Y-81582459D01*
X130665736Y-81578882D01*
X130680297Y-81576722D01*
X130695000Y-81576000D01*
X130995000Y-81576000D01*
X131009703Y-81576722D01*
X131009703Y-81576722D01*
G37*
D31*
X130845000Y-82776000D03*
D30*
G36*
X129739703Y-81576722D02*
G01*
X129754264Y-81578882D01*
X129768543Y-81582459D01*
X129782403Y-81587418D01*
X129795710Y-81593712D01*
X129808336Y-81601280D01*
X129820159Y-81610048D01*
X129831066Y-81619934D01*
X129840952Y-81630841D01*
X129849720Y-81642664D01*
X129857288Y-81655290D01*
X129863582Y-81668597D01*
X129868541Y-81682457D01*
X129872118Y-81696736D01*
X129874278Y-81711297D01*
X129875000Y-81726000D01*
X129875000Y-83826000D01*
X129874278Y-83840703D01*
X129872118Y-83855264D01*
X129868541Y-83869543D01*
X129863582Y-83883403D01*
X129857288Y-83896710D01*
X129849720Y-83909336D01*
X129840952Y-83921159D01*
X129831066Y-83932066D01*
X129820159Y-83941952D01*
X129808336Y-83950720D01*
X129795710Y-83958288D01*
X129782403Y-83964582D01*
X129768543Y-83969541D01*
X129754264Y-83973118D01*
X129739703Y-83975278D01*
X129725000Y-83976000D01*
X129425000Y-83976000D01*
X129410297Y-83975278D01*
X129395736Y-83973118D01*
X129381457Y-83969541D01*
X129367597Y-83964582D01*
X129354290Y-83958288D01*
X129341664Y-83950720D01*
X129329841Y-83941952D01*
X129318934Y-83932066D01*
X129309048Y-83921159D01*
X129300280Y-83909336D01*
X129292712Y-83896710D01*
X129286418Y-83883403D01*
X129281459Y-83869543D01*
X129277882Y-83855264D01*
X129275722Y-83840703D01*
X129275000Y-83826000D01*
X129275000Y-81726000D01*
X129275722Y-81711297D01*
X129277882Y-81696736D01*
X129281459Y-81682457D01*
X129286418Y-81668597D01*
X129292712Y-81655290D01*
X129300280Y-81642664D01*
X129309048Y-81630841D01*
X129318934Y-81619934D01*
X129329841Y-81610048D01*
X129341664Y-81601280D01*
X129354290Y-81593712D01*
X129367597Y-81587418D01*
X129381457Y-81582459D01*
X129395736Y-81578882D01*
X129410297Y-81576722D01*
X129425000Y-81576000D01*
X129725000Y-81576000D01*
X129739703Y-81576722D01*
X129739703Y-81576722D01*
G37*
D31*
X129575000Y-82776000D03*
D30*
G36*
X128469703Y-81576722D02*
G01*
X128484264Y-81578882D01*
X128498543Y-81582459D01*
X128512403Y-81587418D01*
X128525710Y-81593712D01*
X128538336Y-81601280D01*
X128550159Y-81610048D01*
X128561066Y-81619934D01*
X128570952Y-81630841D01*
X128579720Y-81642664D01*
X128587288Y-81655290D01*
X128593582Y-81668597D01*
X128598541Y-81682457D01*
X128602118Y-81696736D01*
X128604278Y-81711297D01*
X128605000Y-81726000D01*
X128605000Y-83826000D01*
X128604278Y-83840703D01*
X128602118Y-83855264D01*
X128598541Y-83869543D01*
X128593582Y-83883403D01*
X128587288Y-83896710D01*
X128579720Y-83909336D01*
X128570952Y-83921159D01*
X128561066Y-83932066D01*
X128550159Y-83941952D01*
X128538336Y-83950720D01*
X128525710Y-83958288D01*
X128512403Y-83964582D01*
X128498543Y-83969541D01*
X128484264Y-83973118D01*
X128469703Y-83975278D01*
X128455000Y-83976000D01*
X128155000Y-83976000D01*
X128140297Y-83975278D01*
X128125736Y-83973118D01*
X128111457Y-83969541D01*
X128097597Y-83964582D01*
X128084290Y-83958288D01*
X128071664Y-83950720D01*
X128059841Y-83941952D01*
X128048934Y-83932066D01*
X128039048Y-83921159D01*
X128030280Y-83909336D01*
X128022712Y-83896710D01*
X128016418Y-83883403D01*
X128011459Y-83869543D01*
X128007882Y-83855264D01*
X128005722Y-83840703D01*
X128005000Y-83826000D01*
X128005000Y-81726000D01*
X128005722Y-81711297D01*
X128007882Y-81696736D01*
X128011459Y-81682457D01*
X128016418Y-81668597D01*
X128022712Y-81655290D01*
X128030280Y-81642664D01*
X128039048Y-81630841D01*
X128048934Y-81619934D01*
X128059841Y-81610048D01*
X128071664Y-81601280D01*
X128084290Y-81593712D01*
X128097597Y-81587418D01*
X128111457Y-81582459D01*
X128125736Y-81578882D01*
X128140297Y-81576722D01*
X128155000Y-81576000D01*
X128455000Y-81576000D01*
X128469703Y-81576722D01*
X128469703Y-81576722D01*
G37*
D31*
X128305000Y-82776000D03*
D30*
G36*
X127199703Y-81576722D02*
G01*
X127214264Y-81578882D01*
X127228543Y-81582459D01*
X127242403Y-81587418D01*
X127255710Y-81593712D01*
X127268336Y-81601280D01*
X127280159Y-81610048D01*
X127291066Y-81619934D01*
X127300952Y-81630841D01*
X127309720Y-81642664D01*
X127317288Y-81655290D01*
X127323582Y-81668597D01*
X127328541Y-81682457D01*
X127332118Y-81696736D01*
X127334278Y-81711297D01*
X127335000Y-81726000D01*
X127335000Y-83826000D01*
X127334278Y-83840703D01*
X127332118Y-83855264D01*
X127328541Y-83869543D01*
X127323582Y-83883403D01*
X127317288Y-83896710D01*
X127309720Y-83909336D01*
X127300952Y-83921159D01*
X127291066Y-83932066D01*
X127280159Y-83941952D01*
X127268336Y-83950720D01*
X127255710Y-83958288D01*
X127242403Y-83964582D01*
X127228543Y-83969541D01*
X127214264Y-83973118D01*
X127199703Y-83975278D01*
X127185000Y-83976000D01*
X126885000Y-83976000D01*
X126870297Y-83975278D01*
X126855736Y-83973118D01*
X126841457Y-83969541D01*
X126827597Y-83964582D01*
X126814290Y-83958288D01*
X126801664Y-83950720D01*
X126789841Y-83941952D01*
X126778934Y-83932066D01*
X126769048Y-83921159D01*
X126760280Y-83909336D01*
X126752712Y-83896710D01*
X126746418Y-83883403D01*
X126741459Y-83869543D01*
X126737882Y-83855264D01*
X126735722Y-83840703D01*
X126735000Y-83826000D01*
X126735000Y-81726000D01*
X126735722Y-81711297D01*
X126737882Y-81696736D01*
X126741459Y-81682457D01*
X126746418Y-81668597D01*
X126752712Y-81655290D01*
X126760280Y-81642664D01*
X126769048Y-81630841D01*
X126778934Y-81619934D01*
X126789841Y-81610048D01*
X126801664Y-81601280D01*
X126814290Y-81593712D01*
X126827597Y-81587418D01*
X126841457Y-81582459D01*
X126855736Y-81578882D01*
X126870297Y-81576722D01*
X126885000Y-81576000D01*
X127185000Y-81576000D01*
X127199703Y-81576722D01*
X127199703Y-81576722D01*
G37*
D31*
X127035000Y-82776000D03*
D30*
G36*
X125929703Y-81576722D02*
G01*
X125944264Y-81578882D01*
X125958543Y-81582459D01*
X125972403Y-81587418D01*
X125985710Y-81593712D01*
X125998336Y-81601280D01*
X126010159Y-81610048D01*
X126021066Y-81619934D01*
X126030952Y-81630841D01*
X126039720Y-81642664D01*
X126047288Y-81655290D01*
X126053582Y-81668597D01*
X126058541Y-81682457D01*
X126062118Y-81696736D01*
X126064278Y-81711297D01*
X126065000Y-81726000D01*
X126065000Y-83826000D01*
X126064278Y-83840703D01*
X126062118Y-83855264D01*
X126058541Y-83869543D01*
X126053582Y-83883403D01*
X126047288Y-83896710D01*
X126039720Y-83909336D01*
X126030952Y-83921159D01*
X126021066Y-83932066D01*
X126010159Y-83941952D01*
X125998336Y-83950720D01*
X125985710Y-83958288D01*
X125972403Y-83964582D01*
X125958543Y-83969541D01*
X125944264Y-83973118D01*
X125929703Y-83975278D01*
X125915000Y-83976000D01*
X125615000Y-83976000D01*
X125600297Y-83975278D01*
X125585736Y-83973118D01*
X125571457Y-83969541D01*
X125557597Y-83964582D01*
X125544290Y-83958288D01*
X125531664Y-83950720D01*
X125519841Y-83941952D01*
X125508934Y-83932066D01*
X125499048Y-83921159D01*
X125490280Y-83909336D01*
X125482712Y-83896710D01*
X125476418Y-83883403D01*
X125471459Y-83869543D01*
X125467882Y-83855264D01*
X125465722Y-83840703D01*
X125465000Y-83826000D01*
X125465000Y-81726000D01*
X125465722Y-81711297D01*
X125467882Y-81696736D01*
X125471459Y-81682457D01*
X125476418Y-81668597D01*
X125482712Y-81655290D01*
X125490280Y-81642664D01*
X125499048Y-81630841D01*
X125508934Y-81619934D01*
X125519841Y-81610048D01*
X125531664Y-81601280D01*
X125544290Y-81593712D01*
X125557597Y-81587418D01*
X125571457Y-81582459D01*
X125585736Y-81578882D01*
X125600297Y-81576722D01*
X125615000Y-81576000D01*
X125915000Y-81576000D01*
X125929703Y-81576722D01*
X125929703Y-81576722D01*
G37*
D31*
X125765000Y-82776000D03*
D30*
G36*
X124659703Y-81576722D02*
G01*
X124674264Y-81578882D01*
X124688543Y-81582459D01*
X124702403Y-81587418D01*
X124715710Y-81593712D01*
X124728336Y-81601280D01*
X124740159Y-81610048D01*
X124751066Y-81619934D01*
X124760952Y-81630841D01*
X124769720Y-81642664D01*
X124777288Y-81655290D01*
X124783582Y-81668597D01*
X124788541Y-81682457D01*
X124792118Y-81696736D01*
X124794278Y-81711297D01*
X124795000Y-81726000D01*
X124795000Y-83826000D01*
X124794278Y-83840703D01*
X124792118Y-83855264D01*
X124788541Y-83869543D01*
X124783582Y-83883403D01*
X124777288Y-83896710D01*
X124769720Y-83909336D01*
X124760952Y-83921159D01*
X124751066Y-83932066D01*
X124740159Y-83941952D01*
X124728336Y-83950720D01*
X124715710Y-83958288D01*
X124702403Y-83964582D01*
X124688543Y-83969541D01*
X124674264Y-83973118D01*
X124659703Y-83975278D01*
X124645000Y-83976000D01*
X124345000Y-83976000D01*
X124330297Y-83975278D01*
X124315736Y-83973118D01*
X124301457Y-83969541D01*
X124287597Y-83964582D01*
X124274290Y-83958288D01*
X124261664Y-83950720D01*
X124249841Y-83941952D01*
X124238934Y-83932066D01*
X124229048Y-83921159D01*
X124220280Y-83909336D01*
X124212712Y-83896710D01*
X124206418Y-83883403D01*
X124201459Y-83869543D01*
X124197882Y-83855264D01*
X124195722Y-83840703D01*
X124195000Y-83826000D01*
X124195000Y-81726000D01*
X124195722Y-81711297D01*
X124197882Y-81696736D01*
X124201459Y-81682457D01*
X124206418Y-81668597D01*
X124212712Y-81655290D01*
X124220280Y-81642664D01*
X124229048Y-81630841D01*
X124238934Y-81619934D01*
X124249841Y-81610048D01*
X124261664Y-81601280D01*
X124274290Y-81593712D01*
X124287597Y-81587418D01*
X124301457Y-81582459D01*
X124315736Y-81578882D01*
X124330297Y-81576722D01*
X124345000Y-81576000D01*
X124645000Y-81576000D01*
X124659703Y-81576722D01*
X124659703Y-81576722D01*
G37*
D31*
X124495000Y-82776000D03*
D30*
G36*
X123389703Y-81576722D02*
G01*
X123404264Y-81578882D01*
X123418543Y-81582459D01*
X123432403Y-81587418D01*
X123445710Y-81593712D01*
X123458336Y-81601280D01*
X123470159Y-81610048D01*
X123481066Y-81619934D01*
X123490952Y-81630841D01*
X123499720Y-81642664D01*
X123507288Y-81655290D01*
X123513582Y-81668597D01*
X123518541Y-81682457D01*
X123522118Y-81696736D01*
X123524278Y-81711297D01*
X123525000Y-81726000D01*
X123525000Y-83826000D01*
X123524278Y-83840703D01*
X123522118Y-83855264D01*
X123518541Y-83869543D01*
X123513582Y-83883403D01*
X123507288Y-83896710D01*
X123499720Y-83909336D01*
X123490952Y-83921159D01*
X123481066Y-83932066D01*
X123470159Y-83941952D01*
X123458336Y-83950720D01*
X123445710Y-83958288D01*
X123432403Y-83964582D01*
X123418543Y-83969541D01*
X123404264Y-83973118D01*
X123389703Y-83975278D01*
X123375000Y-83976000D01*
X123075000Y-83976000D01*
X123060297Y-83975278D01*
X123045736Y-83973118D01*
X123031457Y-83969541D01*
X123017597Y-83964582D01*
X123004290Y-83958288D01*
X122991664Y-83950720D01*
X122979841Y-83941952D01*
X122968934Y-83932066D01*
X122959048Y-83921159D01*
X122950280Y-83909336D01*
X122942712Y-83896710D01*
X122936418Y-83883403D01*
X122931459Y-83869543D01*
X122927882Y-83855264D01*
X122925722Y-83840703D01*
X122925000Y-83826000D01*
X122925000Y-81726000D01*
X122925722Y-81711297D01*
X122927882Y-81696736D01*
X122931459Y-81682457D01*
X122936418Y-81668597D01*
X122942712Y-81655290D01*
X122950280Y-81642664D01*
X122959048Y-81630841D01*
X122968934Y-81619934D01*
X122979841Y-81610048D01*
X122991664Y-81601280D01*
X123004290Y-81593712D01*
X123017597Y-81587418D01*
X123031457Y-81582459D01*
X123045736Y-81578882D01*
X123060297Y-81576722D01*
X123075000Y-81576000D01*
X123375000Y-81576000D01*
X123389703Y-81576722D01*
X123389703Y-81576722D01*
G37*
D31*
X123225000Y-82776000D03*
D30*
G36*
X122119703Y-81576722D02*
G01*
X122134264Y-81578882D01*
X122148543Y-81582459D01*
X122162403Y-81587418D01*
X122175710Y-81593712D01*
X122188336Y-81601280D01*
X122200159Y-81610048D01*
X122211066Y-81619934D01*
X122220952Y-81630841D01*
X122229720Y-81642664D01*
X122237288Y-81655290D01*
X122243582Y-81668597D01*
X122248541Y-81682457D01*
X122252118Y-81696736D01*
X122254278Y-81711297D01*
X122255000Y-81726000D01*
X122255000Y-83826000D01*
X122254278Y-83840703D01*
X122252118Y-83855264D01*
X122248541Y-83869543D01*
X122243582Y-83883403D01*
X122237288Y-83896710D01*
X122229720Y-83909336D01*
X122220952Y-83921159D01*
X122211066Y-83932066D01*
X122200159Y-83941952D01*
X122188336Y-83950720D01*
X122175710Y-83958288D01*
X122162403Y-83964582D01*
X122148543Y-83969541D01*
X122134264Y-83973118D01*
X122119703Y-83975278D01*
X122105000Y-83976000D01*
X121805000Y-83976000D01*
X121790297Y-83975278D01*
X121775736Y-83973118D01*
X121761457Y-83969541D01*
X121747597Y-83964582D01*
X121734290Y-83958288D01*
X121721664Y-83950720D01*
X121709841Y-83941952D01*
X121698934Y-83932066D01*
X121689048Y-83921159D01*
X121680280Y-83909336D01*
X121672712Y-83896710D01*
X121666418Y-83883403D01*
X121661459Y-83869543D01*
X121657882Y-83855264D01*
X121655722Y-83840703D01*
X121655000Y-83826000D01*
X121655000Y-81726000D01*
X121655722Y-81711297D01*
X121657882Y-81696736D01*
X121661459Y-81682457D01*
X121666418Y-81668597D01*
X121672712Y-81655290D01*
X121680280Y-81642664D01*
X121689048Y-81630841D01*
X121698934Y-81619934D01*
X121709841Y-81610048D01*
X121721664Y-81601280D01*
X121734290Y-81593712D01*
X121747597Y-81587418D01*
X121761457Y-81582459D01*
X121775736Y-81578882D01*
X121790297Y-81576722D01*
X121805000Y-81576000D01*
X122105000Y-81576000D01*
X122119703Y-81576722D01*
X122119703Y-81576722D01*
G37*
D31*
X121955000Y-82776000D03*
D30*
G36*
X120849703Y-81576722D02*
G01*
X120864264Y-81578882D01*
X120878543Y-81582459D01*
X120892403Y-81587418D01*
X120905710Y-81593712D01*
X120918336Y-81601280D01*
X120930159Y-81610048D01*
X120941066Y-81619934D01*
X120950952Y-81630841D01*
X120959720Y-81642664D01*
X120967288Y-81655290D01*
X120973582Y-81668597D01*
X120978541Y-81682457D01*
X120982118Y-81696736D01*
X120984278Y-81711297D01*
X120985000Y-81726000D01*
X120985000Y-83826000D01*
X120984278Y-83840703D01*
X120982118Y-83855264D01*
X120978541Y-83869543D01*
X120973582Y-83883403D01*
X120967288Y-83896710D01*
X120959720Y-83909336D01*
X120950952Y-83921159D01*
X120941066Y-83932066D01*
X120930159Y-83941952D01*
X120918336Y-83950720D01*
X120905710Y-83958288D01*
X120892403Y-83964582D01*
X120878543Y-83969541D01*
X120864264Y-83973118D01*
X120849703Y-83975278D01*
X120835000Y-83976000D01*
X120535000Y-83976000D01*
X120520297Y-83975278D01*
X120505736Y-83973118D01*
X120491457Y-83969541D01*
X120477597Y-83964582D01*
X120464290Y-83958288D01*
X120451664Y-83950720D01*
X120439841Y-83941952D01*
X120428934Y-83932066D01*
X120419048Y-83921159D01*
X120410280Y-83909336D01*
X120402712Y-83896710D01*
X120396418Y-83883403D01*
X120391459Y-83869543D01*
X120387882Y-83855264D01*
X120385722Y-83840703D01*
X120385000Y-83826000D01*
X120385000Y-81726000D01*
X120385722Y-81711297D01*
X120387882Y-81696736D01*
X120391459Y-81682457D01*
X120396418Y-81668597D01*
X120402712Y-81655290D01*
X120410280Y-81642664D01*
X120419048Y-81630841D01*
X120428934Y-81619934D01*
X120439841Y-81610048D01*
X120451664Y-81601280D01*
X120464290Y-81593712D01*
X120477597Y-81587418D01*
X120491457Y-81582459D01*
X120505736Y-81578882D01*
X120520297Y-81576722D01*
X120535000Y-81576000D01*
X120835000Y-81576000D01*
X120849703Y-81576722D01*
X120849703Y-81576722D01*
G37*
D31*
X120685000Y-82776000D03*
D30*
G36*
X119579703Y-81576722D02*
G01*
X119594264Y-81578882D01*
X119608543Y-81582459D01*
X119622403Y-81587418D01*
X119635710Y-81593712D01*
X119648336Y-81601280D01*
X119660159Y-81610048D01*
X119671066Y-81619934D01*
X119680952Y-81630841D01*
X119689720Y-81642664D01*
X119697288Y-81655290D01*
X119703582Y-81668597D01*
X119708541Y-81682457D01*
X119712118Y-81696736D01*
X119714278Y-81711297D01*
X119715000Y-81726000D01*
X119715000Y-83826000D01*
X119714278Y-83840703D01*
X119712118Y-83855264D01*
X119708541Y-83869543D01*
X119703582Y-83883403D01*
X119697288Y-83896710D01*
X119689720Y-83909336D01*
X119680952Y-83921159D01*
X119671066Y-83932066D01*
X119660159Y-83941952D01*
X119648336Y-83950720D01*
X119635710Y-83958288D01*
X119622403Y-83964582D01*
X119608543Y-83969541D01*
X119594264Y-83973118D01*
X119579703Y-83975278D01*
X119565000Y-83976000D01*
X119265000Y-83976000D01*
X119250297Y-83975278D01*
X119235736Y-83973118D01*
X119221457Y-83969541D01*
X119207597Y-83964582D01*
X119194290Y-83958288D01*
X119181664Y-83950720D01*
X119169841Y-83941952D01*
X119158934Y-83932066D01*
X119149048Y-83921159D01*
X119140280Y-83909336D01*
X119132712Y-83896710D01*
X119126418Y-83883403D01*
X119121459Y-83869543D01*
X119117882Y-83855264D01*
X119115722Y-83840703D01*
X119115000Y-83826000D01*
X119115000Y-81726000D01*
X119115722Y-81711297D01*
X119117882Y-81696736D01*
X119121459Y-81682457D01*
X119126418Y-81668597D01*
X119132712Y-81655290D01*
X119140280Y-81642664D01*
X119149048Y-81630841D01*
X119158934Y-81619934D01*
X119169841Y-81610048D01*
X119181664Y-81601280D01*
X119194290Y-81593712D01*
X119207597Y-81587418D01*
X119221457Y-81582459D01*
X119235736Y-81578882D01*
X119250297Y-81576722D01*
X119265000Y-81576000D01*
X119565000Y-81576000D01*
X119579703Y-81576722D01*
X119579703Y-81576722D01*
G37*
D31*
X119415000Y-82776000D03*
D30*
G36*
X118309703Y-81576722D02*
G01*
X118324264Y-81578882D01*
X118338543Y-81582459D01*
X118352403Y-81587418D01*
X118365710Y-81593712D01*
X118378336Y-81601280D01*
X118390159Y-81610048D01*
X118401066Y-81619934D01*
X118410952Y-81630841D01*
X118419720Y-81642664D01*
X118427288Y-81655290D01*
X118433582Y-81668597D01*
X118438541Y-81682457D01*
X118442118Y-81696736D01*
X118444278Y-81711297D01*
X118445000Y-81726000D01*
X118445000Y-83826000D01*
X118444278Y-83840703D01*
X118442118Y-83855264D01*
X118438541Y-83869543D01*
X118433582Y-83883403D01*
X118427288Y-83896710D01*
X118419720Y-83909336D01*
X118410952Y-83921159D01*
X118401066Y-83932066D01*
X118390159Y-83941952D01*
X118378336Y-83950720D01*
X118365710Y-83958288D01*
X118352403Y-83964582D01*
X118338543Y-83969541D01*
X118324264Y-83973118D01*
X118309703Y-83975278D01*
X118295000Y-83976000D01*
X117995000Y-83976000D01*
X117980297Y-83975278D01*
X117965736Y-83973118D01*
X117951457Y-83969541D01*
X117937597Y-83964582D01*
X117924290Y-83958288D01*
X117911664Y-83950720D01*
X117899841Y-83941952D01*
X117888934Y-83932066D01*
X117879048Y-83921159D01*
X117870280Y-83909336D01*
X117862712Y-83896710D01*
X117856418Y-83883403D01*
X117851459Y-83869543D01*
X117847882Y-83855264D01*
X117845722Y-83840703D01*
X117845000Y-83826000D01*
X117845000Y-81726000D01*
X117845722Y-81711297D01*
X117847882Y-81696736D01*
X117851459Y-81682457D01*
X117856418Y-81668597D01*
X117862712Y-81655290D01*
X117870280Y-81642664D01*
X117879048Y-81630841D01*
X117888934Y-81619934D01*
X117899841Y-81610048D01*
X117911664Y-81601280D01*
X117924290Y-81593712D01*
X117937597Y-81587418D01*
X117951457Y-81582459D01*
X117965736Y-81578882D01*
X117980297Y-81576722D01*
X117995000Y-81576000D01*
X118295000Y-81576000D01*
X118309703Y-81576722D01*
X118309703Y-81576722D01*
G37*
D31*
X118145000Y-82776000D03*
D30*
G36*
X117039703Y-81576722D02*
G01*
X117054264Y-81578882D01*
X117068543Y-81582459D01*
X117082403Y-81587418D01*
X117095710Y-81593712D01*
X117108336Y-81601280D01*
X117120159Y-81610048D01*
X117131066Y-81619934D01*
X117140952Y-81630841D01*
X117149720Y-81642664D01*
X117157288Y-81655290D01*
X117163582Y-81668597D01*
X117168541Y-81682457D01*
X117172118Y-81696736D01*
X117174278Y-81711297D01*
X117175000Y-81726000D01*
X117175000Y-83826000D01*
X117174278Y-83840703D01*
X117172118Y-83855264D01*
X117168541Y-83869543D01*
X117163582Y-83883403D01*
X117157288Y-83896710D01*
X117149720Y-83909336D01*
X117140952Y-83921159D01*
X117131066Y-83932066D01*
X117120159Y-83941952D01*
X117108336Y-83950720D01*
X117095710Y-83958288D01*
X117082403Y-83964582D01*
X117068543Y-83969541D01*
X117054264Y-83973118D01*
X117039703Y-83975278D01*
X117025000Y-83976000D01*
X116725000Y-83976000D01*
X116710297Y-83975278D01*
X116695736Y-83973118D01*
X116681457Y-83969541D01*
X116667597Y-83964582D01*
X116654290Y-83958288D01*
X116641664Y-83950720D01*
X116629841Y-83941952D01*
X116618934Y-83932066D01*
X116609048Y-83921159D01*
X116600280Y-83909336D01*
X116592712Y-83896710D01*
X116586418Y-83883403D01*
X116581459Y-83869543D01*
X116577882Y-83855264D01*
X116575722Y-83840703D01*
X116575000Y-83826000D01*
X116575000Y-81726000D01*
X116575722Y-81711297D01*
X116577882Y-81696736D01*
X116581459Y-81682457D01*
X116586418Y-81668597D01*
X116592712Y-81655290D01*
X116600280Y-81642664D01*
X116609048Y-81630841D01*
X116618934Y-81619934D01*
X116629841Y-81610048D01*
X116641664Y-81601280D01*
X116654290Y-81593712D01*
X116667597Y-81587418D01*
X116681457Y-81582459D01*
X116695736Y-81578882D01*
X116710297Y-81576722D01*
X116725000Y-81576000D01*
X117025000Y-81576000D01*
X117039703Y-81576722D01*
X117039703Y-81576722D01*
G37*
D31*
X116875000Y-82776000D03*
D30*
G36*
X117039703Y-71376722D02*
G01*
X117054264Y-71378882D01*
X117068543Y-71382459D01*
X117082403Y-71387418D01*
X117095710Y-71393712D01*
X117108336Y-71401280D01*
X117120159Y-71410048D01*
X117131066Y-71419934D01*
X117140952Y-71430841D01*
X117149720Y-71442664D01*
X117157288Y-71455290D01*
X117163582Y-71468597D01*
X117168541Y-71482457D01*
X117172118Y-71496736D01*
X117174278Y-71511297D01*
X117175000Y-71526000D01*
X117175000Y-73626000D01*
X117174278Y-73640703D01*
X117172118Y-73655264D01*
X117168541Y-73669543D01*
X117163582Y-73683403D01*
X117157288Y-73696710D01*
X117149720Y-73709336D01*
X117140952Y-73721159D01*
X117131066Y-73732066D01*
X117120159Y-73741952D01*
X117108336Y-73750720D01*
X117095710Y-73758288D01*
X117082403Y-73764582D01*
X117068543Y-73769541D01*
X117054264Y-73773118D01*
X117039703Y-73775278D01*
X117025000Y-73776000D01*
X116725000Y-73776000D01*
X116710297Y-73775278D01*
X116695736Y-73773118D01*
X116681457Y-73769541D01*
X116667597Y-73764582D01*
X116654290Y-73758288D01*
X116641664Y-73750720D01*
X116629841Y-73741952D01*
X116618934Y-73732066D01*
X116609048Y-73721159D01*
X116600280Y-73709336D01*
X116592712Y-73696710D01*
X116586418Y-73683403D01*
X116581459Y-73669543D01*
X116577882Y-73655264D01*
X116575722Y-73640703D01*
X116575000Y-73626000D01*
X116575000Y-71526000D01*
X116575722Y-71511297D01*
X116577882Y-71496736D01*
X116581459Y-71482457D01*
X116586418Y-71468597D01*
X116592712Y-71455290D01*
X116600280Y-71442664D01*
X116609048Y-71430841D01*
X116618934Y-71419934D01*
X116629841Y-71410048D01*
X116641664Y-71401280D01*
X116654290Y-71393712D01*
X116667597Y-71387418D01*
X116681457Y-71382459D01*
X116695736Y-71378882D01*
X116710297Y-71376722D01*
X116725000Y-71376000D01*
X117025000Y-71376000D01*
X117039703Y-71376722D01*
X117039703Y-71376722D01*
G37*
D31*
X116875000Y-72576000D03*
D30*
G36*
X118309703Y-71376722D02*
G01*
X118324264Y-71378882D01*
X118338543Y-71382459D01*
X118352403Y-71387418D01*
X118365710Y-71393712D01*
X118378336Y-71401280D01*
X118390159Y-71410048D01*
X118401066Y-71419934D01*
X118410952Y-71430841D01*
X118419720Y-71442664D01*
X118427288Y-71455290D01*
X118433582Y-71468597D01*
X118438541Y-71482457D01*
X118442118Y-71496736D01*
X118444278Y-71511297D01*
X118445000Y-71526000D01*
X118445000Y-73626000D01*
X118444278Y-73640703D01*
X118442118Y-73655264D01*
X118438541Y-73669543D01*
X118433582Y-73683403D01*
X118427288Y-73696710D01*
X118419720Y-73709336D01*
X118410952Y-73721159D01*
X118401066Y-73732066D01*
X118390159Y-73741952D01*
X118378336Y-73750720D01*
X118365710Y-73758288D01*
X118352403Y-73764582D01*
X118338543Y-73769541D01*
X118324264Y-73773118D01*
X118309703Y-73775278D01*
X118295000Y-73776000D01*
X117995000Y-73776000D01*
X117980297Y-73775278D01*
X117965736Y-73773118D01*
X117951457Y-73769541D01*
X117937597Y-73764582D01*
X117924290Y-73758288D01*
X117911664Y-73750720D01*
X117899841Y-73741952D01*
X117888934Y-73732066D01*
X117879048Y-73721159D01*
X117870280Y-73709336D01*
X117862712Y-73696710D01*
X117856418Y-73683403D01*
X117851459Y-73669543D01*
X117847882Y-73655264D01*
X117845722Y-73640703D01*
X117845000Y-73626000D01*
X117845000Y-71526000D01*
X117845722Y-71511297D01*
X117847882Y-71496736D01*
X117851459Y-71482457D01*
X117856418Y-71468597D01*
X117862712Y-71455290D01*
X117870280Y-71442664D01*
X117879048Y-71430841D01*
X117888934Y-71419934D01*
X117899841Y-71410048D01*
X117911664Y-71401280D01*
X117924290Y-71393712D01*
X117937597Y-71387418D01*
X117951457Y-71382459D01*
X117965736Y-71378882D01*
X117980297Y-71376722D01*
X117995000Y-71376000D01*
X118295000Y-71376000D01*
X118309703Y-71376722D01*
X118309703Y-71376722D01*
G37*
D31*
X118145000Y-72576000D03*
D30*
G36*
X119579703Y-71376722D02*
G01*
X119594264Y-71378882D01*
X119608543Y-71382459D01*
X119622403Y-71387418D01*
X119635710Y-71393712D01*
X119648336Y-71401280D01*
X119660159Y-71410048D01*
X119671066Y-71419934D01*
X119680952Y-71430841D01*
X119689720Y-71442664D01*
X119697288Y-71455290D01*
X119703582Y-71468597D01*
X119708541Y-71482457D01*
X119712118Y-71496736D01*
X119714278Y-71511297D01*
X119715000Y-71526000D01*
X119715000Y-73626000D01*
X119714278Y-73640703D01*
X119712118Y-73655264D01*
X119708541Y-73669543D01*
X119703582Y-73683403D01*
X119697288Y-73696710D01*
X119689720Y-73709336D01*
X119680952Y-73721159D01*
X119671066Y-73732066D01*
X119660159Y-73741952D01*
X119648336Y-73750720D01*
X119635710Y-73758288D01*
X119622403Y-73764582D01*
X119608543Y-73769541D01*
X119594264Y-73773118D01*
X119579703Y-73775278D01*
X119565000Y-73776000D01*
X119265000Y-73776000D01*
X119250297Y-73775278D01*
X119235736Y-73773118D01*
X119221457Y-73769541D01*
X119207597Y-73764582D01*
X119194290Y-73758288D01*
X119181664Y-73750720D01*
X119169841Y-73741952D01*
X119158934Y-73732066D01*
X119149048Y-73721159D01*
X119140280Y-73709336D01*
X119132712Y-73696710D01*
X119126418Y-73683403D01*
X119121459Y-73669543D01*
X119117882Y-73655264D01*
X119115722Y-73640703D01*
X119115000Y-73626000D01*
X119115000Y-71526000D01*
X119115722Y-71511297D01*
X119117882Y-71496736D01*
X119121459Y-71482457D01*
X119126418Y-71468597D01*
X119132712Y-71455290D01*
X119140280Y-71442664D01*
X119149048Y-71430841D01*
X119158934Y-71419934D01*
X119169841Y-71410048D01*
X119181664Y-71401280D01*
X119194290Y-71393712D01*
X119207597Y-71387418D01*
X119221457Y-71382459D01*
X119235736Y-71378882D01*
X119250297Y-71376722D01*
X119265000Y-71376000D01*
X119565000Y-71376000D01*
X119579703Y-71376722D01*
X119579703Y-71376722D01*
G37*
D31*
X119415000Y-72576000D03*
D30*
G36*
X120849703Y-71376722D02*
G01*
X120864264Y-71378882D01*
X120878543Y-71382459D01*
X120892403Y-71387418D01*
X120905710Y-71393712D01*
X120918336Y-71401280D01*
X120930159Y-71410048D01*
X120941066Y-71419934D01*
X120950952Y-71430841D01*
X120959720Y-71442664D01*
X120967288Y-71455290D01*
X120973582Y-71468597D01*
X120978541Y-71482457D01*
X120982118Y-71496736D01*
X120984278Y-71511297D01*
X120985000Y-71526000D01*
X120985000Y-73626000D01*
X120984278Y-73640703D01*
X120982118Y-73655264D01*
X120978541Y-73669543D01*
X120973582Y-73683403D01*
X120967288Y-73696710D01*
X120959720Y-73709336D01*
X120950952Y-73721159D01*
X120941066Y-73732066D01*
X120930159Y-73741952D01*
X120918336Y-73750720D01*
X120905710Y-73758288D01*
X120892403Y-73764582D01*
X120878543Y-73769541D01*
X120864264Y-73773118D01*
X120849703Y-73775278D01*
X120835000Y-73776000D01*
X120535000Y-73776000D01*
X120520297Y-73775278D01*
X120505736Y-73773118D01*
X120491457Y-73769541D01*
X120477597Y-73764582D01*
X120464290Y-73758288D01*
X120451664Y-73750720D01*
X120439841Y-73741952D01*
X120428934Y-73732066D01*
X120419048Y-73721159D01*
X120410280Y-73709336D01*
X120402712Y-73696710D01*
X120396418Y-73683403D01*
X120391459Y-73669543D01*
X120387882Y-73655264D01*
X120385722Y-73640703D01*
X120385000Y-73626000D01*
X120385000Y-71526000D01*
X120385722Y-71511297D01*
X120387882Y-71496736D01*
X120391459Y-71482457D01*
X120396418Y-71468597D01*
X120402712Y-71455290D01*
X120410280Y-71442664D01*
X120419048Y-71430841D01*
X120428934Y-71419934D01*
X120439841Y-71410048D01*
X120451664Y-71401280D01*
X120464290Y-71393712D01*
X120477597Y-71387418D01*
X120491457Y-71382459D01*
X120505736Y-71378882D01*
X120520297Y-71376722D01*
X120535000Y-71376000D01*
X120835000Y-71376000D01*
X120849703Y-71376722D01*
X120849703Y-71376722D01*
G37*
D31*
X120685000Y-72576000D03*
D30*
G36*
X122119703Y-71376722D02*
G01*
X122134264Y-71378882D01*
X122148543Y-71382459D01*
X122162403Y-71387418D01*
X122175710Y-71393712D01*
X122188336Y-71401280D01*
X122200159Y-71410048D01*
X122211066Y-71419934D01*
X122220952Y-71430841D01*
X122229720Y-71442664D01*
X122237288Y-71455290D01*
X122243582Y-71468597D01*
X122248541Y-71482457D01*
X122252118Y-71496736D01*
X122254278Y-71511297D01*
X122255000Y-71526000D01*
X122255000Y-73626000D01*
X122254278Y-73640703D01*
X122252118Y-73655264D01*
X122248541Y-73669543D01*
X122243582Y-73683403D01*
X122237288Y-73696710D01*
X122229720Y-73709336D01*
X122220952Y-73721159D01*
X122211066Y-73732066D01*
X122200159Y-73741952D01*
X122188336Y-73750720D01*
X122175710Y-73758288D01*
X122162403Y-73764582D01*
X122148543Y-73769541D01*
X122134264Y-73773118D01*
X122119703Y-73775278D01*
X122105000Y-73776000D01*
X121805000Y-73776000D01*
X121790297Y-73775278D01*
X121775736Y-73773118D01*
X121761457Y-73769541D01*
X121747597Y-73764582D01*
X121734290Y-73758288D01*
X121721664Y-73750720D01*
X121709841Y-73741952D01*
X121698934Y-73732066D01*
X121689048Y-73721159D01*
X121680280Y-73709336D01*
X121672712Y-73696710D01*
X121666418Y-73683403D01*
X121661459Y-73669543D01*
X121657882Y-73655264D01*
X121655722Y-73640703D01*
X121655000Y-73626000D01*
X121655000Y-71526000D01*
X121655722Y-71511297D01*
X121657882Y-71496736D01*
X121661459Y-71482457D01*
X121666418Y-71468597D01*
X121672712Y-71455290D01*
X121680280Y-71442664D01*
X121689048Y-71430841D01*
X121698934Y-71419934D01*
X121709841Y-71410048D01*
X121721664Y-71401280D01*
X121734290Y-71393712D01*
X121747597Y-71387418D01*
X121761457Y-71382459D01*
X121775736Y-71378882D01*
X121790297Y-71376722D01*
X121805000Y-71376000D01*
X122105000Y-71376000D01*
X122119703Y-71376722D01*
X122119703Y-71376722D01*
G37*
D31*
X121955000Y-72576000D03*
D30*
G36*
X123389703Y-71376722D02*
G01*
X123404264Y-71378882D01*
X123418543Y-71382459D01*
X123432403Y-71387418D01*
X123445710Y-71393712D01*
X123458336Y-71401280D01*
X123470159Y-71410048D01*
X123481066Y-71419934D01*
X123490952Y-71430841D01*
X123499720Y-71442664D01*
X123507288Y-71455290D01*
X123513582Y-71468597D01*
X123518541Y-71482457D01*
X123522118Y-71496736D01*
X123524278Y-71511297D01*
X123525000Y-71526000D01*
X123525000Y-73626000D01*
X123524278Y-73640703D01*
X123522118Y-73655264D01*
X123518541Y-73669543D01*
X123513582Y-73683403D01*
X123507288Y-73696710D01*
X123499720Y-73709336D01*
X123490952Y-73721159D01*
X123481066Y-73732066D01*
X123470159Y-73741952D01*
X123458336Y-73750720D01*
X123445710Y-73758288D01*
X123432403Y-73764582D01*
X123418543Y-73769541D01*
X123404264Y-73773118D01*
X123389703Y-73775278D01*
X123375000Y-73776000D01*
X123075000Y-73776000D01*
X123060297Y-73775278D01*
X123045736Y-73773118D01*
X123031457Y-73769541D01*
X123017597Y-73764582D01*
X123004290Y-73758288D01*
X122991664Y-73750720D01*
X122979841Y-73741952D01*
X122968934Y-73732066D01*
X122959048Y-73721159D01*
X122950280Y-73709336D01*
X122942712Y-73696710D01*
X122936418Y-73683403D01*
X122931459Y-73669543D01*
X122927882Y-73655264D01*
X122925722Y-73640703D01*
X122925000Y-73626000D01*
X122925000Y-71526000D01*
X122925722Y-71511297D01*
X122927882Y-71496736D01*
X122931459Y-71482457D01*
X122936418Y-71468597D01*
X122942712Y-71455290D01*
X122950280Y-71442664D01*
X122959048Y-71430841D01*
X122968934Y-71419934D01*
X122979841Y-71410048D01*
X122991664Y-71401280D01*
X123004290Y-71393712D01*
X123017597Y-71387418D01*
X123031457Y-71382459D01*
X123045736Y-71378882D01*
X123060297Y-71376722D01*
X123075000Y-71376000D01*
X123375000Y-71376000D01*
X123389703Y-71376722D01*
X123389703Y-71376722D01*
G37*
D31*
X123225000Y-72576000D03*
D30*
G36*
X124659703Y-71376722D02*
G01*
X124674264Y-71378882D01*
X124688543Y-71382459D01*
X124702403Y-71387418D01*
X124715710Y-71393712D01*
X124728336Y-71401280D01*
X124740159Y-71410048D01*
X124751066Y-71419934D01*
X124760952Y-71430841D01*
X124769720Y-71442664D01*
X124777288Y-71455290D01*
X124783582Y-71468597D01*
X124788541Y-71482457D01*
X124792118Y-71496736D01*
X124794278Y-71511297D01*
X124795000Y-71526000D01*
X124795000Y-73626000D01*
X124794278Y-73640703D01*
X124792118Y-73655264D01*
X124788541Y-73669543D01*
X124783582Y-73683403D01*
X124777288Y-73696710D01*
X124769720Y-73709336D01*
X124760952Y-73721159D01*
X124751066Y-73732066D01*
X124740159Y-73741952D01*
X124728336Y-73750720D01*
X124715710Y-73758288D01*
X124702403Y-73764582D01*
X124688543Y-73769541D01*
X124674264Y-73773118D01*
X124659703Y-73775278D01*
X124645000Y-73776000D01*
X124345000Y-73776000D01*
X124330297Y-73775278D01*
X124315736Y-73773118D01*
X124301457Y-73769541D01*
X124287597Y-73764582D01*
X124274290Y-73758288D01*
X124261664Y-73750720D01*
X124249841Y-73741952D01*
X124238934Y-73732066D01*
X124229048Y-73721159D01*
X124220280Y-73709336D01*
X124212712Y-73696710D01*
X124206418Y-73683403D01*
X124201459Y-73669543D01*
X124197882Y-73655264D01*
X124195722Y-73640703D01*
X124195000Y-73626000D01*
X124195000Y-71526000D01*
X124195722Y-71511297D01*
X124197882Y-71496736D01*
X124201459Y-71482457D01*
X124206418Y-71468597D01*
X124212712Y-71455290D01*
X124220280Y-71442664D01*
X124229048Y-71430841D01*
X124238934Y-71419934D01*
X124249841Y-71410048D01*
X124261664Y-71401280D01*
X124274290Y-71393712D01*
X124287597Y-71387418D01*
X124301457Y-71382459D01*
X124315736Y-71378882D01*
X124330297Y-71376722D01*
X124345000Y-71376000D01*
X124645000Y-71376000D01*
X124659703Y-71376722D01*
X124659703Y-71376722D01*
G37*
D31*
X124495000Y-72576000D03*
D30*
G36*
X125929703Y-71376722D02*
G01*
X125944264Y-71378882D01*
X125958543Y-71382459D01*
X125972403Y-71387418D01*
X125985710Y-71393712D01*
X125998336Y-71401280D01*
X126010159Y-71410048D01*
X126021066Y-71419934D01*
X126030952Y-71430841D01*
X126039720Y-71442664D01*
X126047288Y-71455290D01*
X126053582Y-71468597D01*
X126058541Y-71482457D01*
X126062118Y-71496736D01*
X126064278Y-71511297D01*
X126065000Y-71526000D01*
X126065000Y-73626000D01*
X126064278Y-73640703D01*
X126062118Y-73655264D01*
X126058541Y-73669543D01*
X126053582Y-73683403D01*
X126047288Y-73696710D01*
X126039720Y-73709336D01*
X126030952Y-73721159D01*
X126021066Y-73732066D01*
X126010159Y-73741952D01*
X125998336Y-73750720D01*
X125985710Y-73758288D01*
X125972403Y-73764582D01*
X125958543Y-73769541D01*
X125944264Y-73773118D01*
X125929703Y-73775278D01*
X125915000Y-73776000D01*
X125615000Y-73776000D01*
X125600297Y-73775278D01*
X125585736Y-73773118D01*
X125571457Y-73769541D01*
X125557597Y-73764582D01*
X125544290Y-73758288D01*
X125531664Y-73750720D01*
X125519841Y-73741952D01*
X125508934Y-73732066D01*
X125499048Y-73721159D01*
X125490280Y-73709336D01*
X125482712Y-73696710D01*
X125476418Y-73683403D01*
X125471459Y-73669543D01*
X125467882Y-73655264D01*
X125465722Y-73640703D01*
X125465000Y-73626000D01*
X125465000Y-71526000D01*
X125465722Y-71511297D01*
X125467882Y-71496736D01*
X125471459Y-71482457D01*
X125476418Y-71468597D01*
X125482712Y-71455290D01*
X125490280Y-71442664D01*
X125499048Y-71430841D01*
X125508934Y-71419934D01*
X125519841Y-71410048D01*
X125531664Y-71401280D01*
X125544290Y-71393712D01*
X125557597Y-71387418D01*
X125571457Y-71382459D01*
X125585736Y-71378882D01*
X125600297Y-71376722D01*
X125615000Y-71376000D01*
X125915000Y-71376000D01*
X125929703Y-71376722D01*
X125929703Y-71376722D01*
G37*
D31*
X125765000Y-72576000D03*
D30*
G36*
X127199703Y-71376722D02*
G01*
X127214264Y-71378882D01*
X127228543Y-71382459D01*
X127242403Y-71387418D01*
X127255710Y-71393712D01*
X127268336Y-71401280D01*
X127280159Y-71410048D01*
X127291066Y-71419934D01*
X127300952Y-71430841D01*
X127309720Y-71442664D01*
X127317288Y-71455290D01*
X127323582Y-71468597D01*
X127328541Y-71482457D01*
X127332118Y-71496736D01*
X127334278Y-71511297D01*
X127335000Y-71526000D01*
X127335000Y-73626000D01*
X127334278Y-73640703D01*
X127332118Y-73655264D01*
X127328541Y-73669543D01*
X127323582Y-73683403D01*
X127317288Y-73696710D01*
X127309720Y-73709336D01*
X127300952Y-73721159D01*
X127291066Y-73732066D01*
X127280159Y-73741952D01*
X127268336Y-73750720D01*
X127255710Y-73758288D01*
X127242403Y-73764582D01*
X127228543Y-73769541D01*
X127214264Y-73773118D01*
X127199703Y-73775278D01*
X127185000Y-73776000D01*
X126885000Y-73776000D01*
X126870297Y-73775278D01*
X126855736Y-73773118D01*
X126841457Y-73769541D01*
X126827597Y-73764582D01*
X126814290Y-73758288D01*
X126801664Y-73750720D01*
X126789841Y-73741952D01*
X126778934Y-73732066D01*
X126769048Y-73721159D01*
X126760280Y-73709336D01*
X126752712Y-73696710D01*
X126746418Y-73683403D01*
X126741459Y-73669543D01*
X126737882Y-73655264D01*
X126735722Y-73640703D01*
X126735000Y-73626000D01*
X126735000Y-71526000D01*
X126735722Y-71511297D01*
X126737882Y-71496736D01*
X126741459Y-71482457D01*
X126746418Y-71468597D01*
X126752712Y-71455290D01*
X126760280Y-71442664D01*
X126769048Y-71430841D01*
X126778934Y-71419934D01*
X126789841Y-71410048D01*
X126801664Y-71401280D01*
X126814290Y-71393712D01*
X126827597Y-71387418D01*
X126841457Y-71382459D01*
X126855736Y-71378882D01*
X126870297Y-71376722D01*
X126885000Y-71376000D01*
X127185000Y-71376000D01*
X127199703Y-71376722D01*
X127199703Y-71376722D01*
G37*
D31*
X127035000Y-72576000D03*
D30*
G36*
X128469703Y-71376722D02*
G01*
X128484264Y-71378882D01*
X128498543Y-71382459D01*
X128512403Y-71387418D01*
X128525710Y-71393712D01*
X128538336Y-71401280D01*
X128550159Y-71410048D01*
X128561066Y-71419934D01*
X128570952Y-71430841D01*
X128579720Y-71442664D01*
X128587288Y-71455290D01*
X128593582Y-71468597D01*
X128598541Y-71482457D01*
X128602118Y-71496736D01*
X128604278Y-71511297D01*
X128605000Y-71526000D01*
X128605000Y-73626000D01*
X128604278Y-73640703D01*
X128602118Y-73655264D01*
X128598541Y-73669543D01*
X128593582Y-73683403D01*
X128587288Y-73696710D01*
X128579720Y-73709336D01*
X128570952Y-73721159D01*
X128561066Y-73732066D01*
X128550159Y-73741952D01*
X128538336Y-73750720D01*
X128525710Y-73758288D01*
X128512403Y-73764582D01*
X128498543Y-73769541D01*
X128484264Y-73773118D01*
X128469703Y-73775278D01*
X128455000Y-73776000D01*
X128155000Y-73776000D01*
X128140297Y-73775278D01*
X128125736Y-73773118D01*
X128111457Y-73769541D01*
X128097597Y-73764582D01*
X128084290Y-73758288D01*
X128071664Y-73750720D01*
X128059841Y-73741952D01*
X128048934Y-73732066D01*
X128039048Y-73721159D01*
X128030280Y-73709336D01*
X128022712Y-73696710D01*
X128016418Y-73683403D01*
X128011459Y-73669543D01*
X128007882Y-73655264D01*
X128005722Y-73640703D01*
X128005000Y-73626000D01*
X128005000Y-71526000D01*
X128005722Y-71511297D01*
X128007882Y-71496736D01*
X128011459Y-71482457D01*
X128016418Y-71468597D01*
X128022712Y-71455290D01*
X128030280Y-71442664D01*
X128039048Y-71430841D01*
X128048934Y-71419934D01*
X128059841Y-71410048D01*
X128071664Y-71401280D01*
X128084290Y-71393712D01*
X128097597Y-71387418D01*
X128111457Y-71382459D01*
X128125736Y-71378882D01*
X128140297Y-71376722D01*
X128155000Y-71376000D01*
X128455000Y-71376000D01*
X128469703Y-71376722D01*
X128469703Y-71376722D01*
G37*
D31*
X128305000Y-72576000D03*
D30*
G36*
X129739703Y-71376722D02*
G01*
X129754264Y-71378882D01*
X129768543Y-71382459D01*
X129782403Y-71387418D01*
X129795710Y-71393712D01*
X129808336Y-71401280D01*
X129820159Y-71410048D01*
X129831066Y-71419934D01*
X129840952Y-71430841D01*
X129849720Y-71442664D01*
X129857288Y-71455290D01*
X129863582Y-71468597D01*
X129868541Y-71482457D01*
X129872118Y-71496736D01*
X129874278Y-71511297D01*
X129875000Y-71526000D01*
X129875000Y-73626000D01*
X129874278Y-73640703D01*
X129872118Y-73655264D01*
X129868541Y-73669543D01*
X129863582Y-73683403D01*
X129857288Y-73696710D01*
X129849720Y-73709336D01*
X129840952Y-73721159D01*
X129831066Y-73732066D01*
X129820159Y-73741952D01*
X129808336Y-73750720D01*
X129795710Y-73758288D01*
X129782403Y-73764582D01*
X129768543Y-73769541D01*
X129754264Y-73773118D01*
X129739703Y-73775278D01*
X129725000Y-73776000D01*
X129425000Y-73776000D01*
X129410297Y-73775278D01*
X129395736Y-73773118D01*
X129381457Y-73769541D01*
X129367597Y-73764582D01*
X129354290Y-73758288D01*
X129341664Y-73750720D01*
X129329841Y-73741952D01*
X129318934Y-73732066D01*
X129309048Y-73721159D01*
X129300280Y-73709336D01*
X129292712Y-73696710D01*
X129286418Y-73683403D01*
X129281459Y-73669543D01*
X129277882Y-73655264D01*
X129275722Y-73640703D01*
X129275000Y-73626000D01*
X129275000Y-71526000D01*
X129275722Y-71511297D01*
X129277882Y-71496736D01*
X129281459Y-71482457D01*
X129286418Y-71468597D01*
X129292712Y-71455290D01*
X129300280Y-71442664D01*
X129309048Y-71430841D01*
X129318934Y-71419934D01*
X129329841Y-71410048D01*
X129341664Y-71401280D01*
X129354290Y-71393712D01*
X129367597Y-71387418D01*
X129381457Y-71382459D01*
X129395736Y-71378882D01*
X129410297Y-71376722D01*
X129425000Y-71376000D01*
X129725000Y-71376000D01*
X129739703Y-71376722D01*
X129739703Y-71376722D01*
G37*
D31*
X129575000Y-72576000D03*
D30*
G36*
X131009703Y-71376722D02*
G01*
X131024264Y-71378882D01*
X131038543Y-71382459D01*
X131052403Y-71387418D01*
X131065710Y-71393712D01*
X131078336Y-71401280D01*
X131090159Y-71410048D01*
X131101066Y-71419934D01*
X131110952Y-71430841D01*
X131119720Y-71442664D01*
X131127288Y-71455290D01*
X131133582Y-71468597D01*
X131138541Y-71482457D01*
X131142118Y-71496736D01*
X131144278Y-71511297D01*
X131145000Y-71526000D01*
X131145000Y-73626000D01*
X131144278Y-73640703D01*
X131142118Y-73655264D01*
X131138541Y-73669543D01*
X131133582Y-73683403D01*
X131127288Y-73696710D01*
X131119720Y-73709336D01*
X131110952Y-73721159D01*
X131101066Y-73732066D01*
X131090159Y-73741952D01*
X131078336Y-73750720D01*
X131065710Y-73758288D01*
X131052403Y-73764582D01*
X131038543Y-73769541D01*
X131024264Y-73773118D01*
X131009703Y-73775278D01*
X130995000Y-73776000D01*
X130695000Y-73776000D01*
X130680297Y-73775278D01*
X130665736Y-73773118D01*
X130651457Y-73769541D01*
X130637597Y-73764582D01*
X130624290Y-73758288D01*
X130611664Y-73750720D01*
X130599841Y-73741952D01*
X130588934Y-73732066D01*
X130579048Y-73721159D01*
X130570280Y-73709336D01*
X130562712Y-73696710D01*
X130556418Y-73683403D01*
X130551459Y-73669543D01*
X130547882Y-73655264D01*
X130545722Y-73640703D01*
X130545000Y-73626000D01*
X130545000Y-71526000D01*
X130545722Y-71511297D01*
X130547882Y-71496736D01*
X130551459Y-71482457D01*
X130556418Y-71468597D01*
X130562712Y-71455290D01*
X130570280Y-71442664D01*
X130579048Y-71430841D01*
X130588934Y-71419934D01*
X130599841Y-71410048D01*
X130611664Y-71401280D01*
X130624290Y-71393712D01*
X130637597Y-71387418D01*
X130651457Y-71382459D01*
X130665736Y-71378882D01*
X130680297Y-71376722D01*
X130695000Y-71376000D01*
X130995000Y-71376000D01*
X131009703Y-71376722D01*
X131009703Y-71376722D01*
G37*
D31*
X130845000Y-72576000D03*
D30*
G36*
X132279703Y-71376722D02*
G01*
X132294264Y-71378882D01*
X132308543Y-71382459D01*
X132322403Y-71387418D01*
X132335710Y-71393712D01*
X132348336Y-71401280D01*
X132360159Y-71410048D01*
X132371066Y-71419934D01*
X132380952Y-71430841D01*
X132389720Y-71442664D01*
X132397288Y-71455290D01*
X132403582Y-71468597D01*
X132408541Y-71482457D01*
X132412118Y-71496736D01*
X132414278Y-71511297D01*
X132415000Y-71526000D01*
X132415000Y-73626000D01*
X132414278Y-73640703D01*
X132412118Y-73655264D01*
X132408541Y-73669543D01*
X132403582Y-73683403D01*
X132397288Y-73696710D01*
X132389720Y-73709336D01*
X132380952Y-73721159D01*
X132371066Y-73732066D01*
X132360159Y-73741952D01*
X132348336Y-73750720D01*
X132335710Y-73758288D01*
X132322403Y-73764582D01*
X132308543Y-73769541D01*
X132294264Y-73773118D01*
X132279703Y-73775278D01*
X132265000Y-73776000D01*
X131965000Y-73776000D01*
X131950297Y-73775278D01*
X131935736Y-73773118D01*
X131921457Y-73769541D01*
X131907597Y-73764582D01*
X131894290Y-73758288D01*
X131881664Y-73750720D01*
X131869841Y-73741952D01*
X131858934Y-73732066D01*
X131849048Y-73721159D01*
X131840280Y-73709336D01*
X131832712Y-73696710D01*
X131826418Y-73683403D01*
X131821459Y-73669543D01*
X131817882Y-73655264D01*
X131815722Y-73640703D01*
X131815000Y-73626000D01*
X131815000Y-71526000D01*
X131815722Y-71511297D01*
X131817882Y-71496736D01*
X131821459Y-71482457D01*
X131826418Y-71468597D01*
X131832712Y-71455290D01*
X131840280Y-71442664D01*
X131849048Y-71430841D01*
X131858934Y-71419934D01*
X131869841Y-71410048D01*
X131881664Y-71401280D01*
X131894290Y-71393712D01*
X131907597Y-71387418D01*
X131921457Y-71382459D01*
X131935736Y-71378882D01*
X131950297Y-71376722D01*
X131965000Y-71376000D01*
X132265000Y-71376000D01*
X132279703Y-71376722D01*
X132279703Y-71376722D01*
G37*
D31*
X132115000Y-72576000D03*
D30*
G36*
X133549703Y-71376722D02*
G01*
X133564264Y-71378882D01*
X133578543Y-71382459D01*
X133592403Y-71387418D01*
X133605710Y-71393712D01*
X133618336Y-71401280D01*
X133630159Y-71410048D01*
X133641066Y-71419934D01*
X133650952Y-71430841D01*
X133659720Y-71442664D01*
X133667288Y-71455290D01*
X133673582Y-71468597D01*
X133678541Y-71482457D01*
X133682118Y-71496736D01*
X133684278Y-71511297D01*
X133685000Y-71526000D01*
X133685000Y-73626000D01*
X133684278Y-73640703D01*
X133682118Y-73655264D01*
X133678541Y-73669543D01*
X133673582Y-73683403D01*
X133667288Y-73696710D01*
X133659720Y-73709336D01*
X133650952Y-73721159D01*
X133641066Y-73732066D01*
X133630159Y-73741952D01*
X133618336Y-73750720D01*
X133605710Y-73758288D01*
X133592403Y-73764582D01*
X133578543Y-73769541D01*
X133564264Y-73773118D01*
X133549703Y-73775278D01*
X133535000Y-73776000D01*
X133235000Y-73776000D01*
X133220297Y-73775278D01*
X133205736Y-73773118D01*
X133191457Y-73769541D01*
X133177597Y-73764582D01*
X133164290Y-73758288D01*
X133151664Y-73750720D01*
X133139841Y-73741952D01*
X133128934Y-73732066D01*
X133119048Y-73721159D01*
X133110280Y-73709336D01*
X133102712Y-73696710D01*
X133096418Y-73683403D01*
X133091459Y-73669543D01*
X133087882Y-73655264D01*
X133085722Y-73640703D01*
X133085000Y-73626000D01*
X133085000Y-71526000D01*
X133085722Y-71511297D01*
X133087882Y-71496736D01*
X133091459Y-71482457D01*
X133096418Y-71468597D01*
X133102712Y-71455290D01*
X133110280Y-71442664D01*
X133119048Y-71430841D01*
X133128934Y-71419934D01*
X133139841Y-71410048D01*
X133151664Y-71401280D01*
X133164290Y-71393712D01*
X133177597Y-71387418D01*
X133191457Y-71382459D01*
X133205736Y-71378882D01*
X133220297Y-71376722D01*
X133235000Y-71376000D01*
X133535000Y-71376000D01*
X133549703Y-71376722D01*
X133549703Y-71376722D01*
G37*
D31*
X133385000Y-72576000D03*
D30*
G36*
X134819703Y-71376722D02*
G01*
X134834264Y-71378882D01*
X134848543Y-71382459D01*
X134862403Y-71387418D01*
X134875710Y-71393712D01*
X134888336Y-71401280D01*
X134900159Y-71410048D01*
X134911066Y-71419934D01*
X134920952Y-71430841D01*
X134929720Y-71442664D01*
X134937288Y-71455290D01*
X134943582Y-71468597D01*
X134948541Y-71482457D01*
X134952118Y-71496736D01*
X134954278Y-71511297D01*
X134955000Y-71526000D01*
X134955000Y-73626000D01*
X134954278Y-73640703D01*
X134952118Y-73655264D01*
X134948541Y-73669543D01*
X134943582Y-73683403D01*
X134937288Y-73696710D01*
X134929720Y-73709336D01*
X134920952Y-73721159D01*
X134911066Y-73732066D01*
X134900159Y-73741952D01*
X134888336Y-73750720D01*
X134875710Y-73758288D01*
X134862403Y-73764582D01*
X134848543Y-73769541D01*
X134834264Y-73773118D01*
X134819703Y-73775278D01*
X134805000Y-73776000D01*
X134505000Y-73776000D01*
X134490297Y-73775278D01*
X134475736Y-73773118D01*
X134461457Y-73769541D01*
X134447597Y-73764582D01*
X134434290Y-73758288D01*
X134421664Y-73750720D01*
X134409841Y-73741952D01*
X134398934Y-73732066D01*
X134389048Y-73721159D01*
X134380280Y-73709336D01*
X134372712Y-73696710D01*
X134366418Y-73683403D01*
X134361459Y-73669543D01*
X134357882Y-73655264D01*
X134355722Y-73640703D01*
X134355000Y-73626000D01*
X134355000Y-71526000D01*
X134355722Y-71511297D01*
X134357882Y-71496736D01*
X134361459Y-71482457D01*
X134366418Y-71468597D01*
X134372712Y-71455290D01*
X134380280Y-71442664D01*
X134389048Y-71430841D01*
X134398934Y-71419934D01*
X134409841Y-71410048D01*
X134421664Y-71401280D01*
X134434290Y-71393712D01*
X134447597Y-71387418D01*
X134461457Y-71382459D01*
X134475736Y-71378882D01*
X134490297Y-71376722D01*
X134505000Y-71376000D01*
X134805000Y-71376000D01*
X134819703Y-71376722D01*
X134819703Y-71376722D01*
G37*
D31*
X134655000Y-72576000D03*
D30*
G36*
X136089703Y-71376722D02*
G01*
X136104264Y-71378882D01*
X136118543Y-71382459D01*
X136132403Y-71387418D01*
X136145710Y-71393712D01*
X136158336Y-71401280D01*
X136170159Y-71410048D01*
X136181066Y-71419934D01*
X136190952Y-71430841D01*
X136199720Y-71442664D01*
X136207288Y-71455290D01*
X136213582Y-71468597D01*
X136218541Y-71482457D01*
X136222118Y-71496736D01*
X136224278Y-71511297D01*
X136225000Y-71526000D01*
X136225000Y-73626000D01*
X136224278Y-73640703D01*
X136222118Y-73655264D01*
X136218541Y-73669543D01*
X136213582Y-73683403D01*
X136207288Y-73696710D01*
X136199720Y-73709336D01*
X136190952Y-73721159D01*
X136181066Y-73732066D01*
X136170159Y-73741952D01*
X136158336Y-73750720D01*
X136145710Y-73758288D01*
X136132403Y-73764582D01*
X136118543Y-73769541D01*
X136104264Y-73773118D01*
X136089703Y-73775278D01*
X136075000Y-73776000D01*
X135775000Y-73776000D01*
X135760297Y-73775278D01*
X135745736Y-73773118D01*
X135731457Y-73769541D01*
X135717597Y-73764582D01*
X135704290Y-73758288D01*
X135691664Y-73750720D01*
X135679841Y-73741952D01*
X135668934Y-73732066D01*
X135659048Y-73721159D01*
X135650280Y-73709336D01*
X135642712Y-73696710D01*
X135636418Y-73683403D01*
X135631459Y-73669543D01*
X135627882Y-73655264D01*
X135625722Y-73640703D01*
X135625000Y-73626000D01*
X135625000Y-71526000D01*
X135625722Y-71511297D01*
X135627882Y-71496736D01*
X135631459Y-71482457D01*
X135636418Y-71468597D01*
X135642712Y-71455290D01*
X135650280Y-71442664D01*
X135659048Y-71430841D01*
X135668934Y-71419934D01*
X135679841Y-71410048D01*
X135691664Y-71401280D01*
X135704290Y-71393712D01*
X135717597Y-71387418D01*
X135731457Y-71382459D01*
X135745736Y-71378882D01*
X135760297Y-71376722D01*
X135775000Y-71376000D01*
X136075000Y-71376000D01*
X136089703Y-71376722D01*
X136089703Y-71376722D01*
G37*
D31*
X135925000Y-72576000D03*
D30*
G36*
X137359703Y-71376722D02*
G01*
X137374264Y-71378882D01*
X137388543Y-71382459D01*
X137402403Y-71387418D01*
X137415710Y-71393712D01*
X137428336Y-71401280D01*
X137440159Y-71410048D01*
X137451066Y-71419934D01*
X137460952Y-71430841D01*
X137469720Y-71442664D01*
X137477288Y-71455290D01*
X137483582Y-71468597D01*
X137488541Y-71482457D01*
X137492118Y-71496736D01*
X137494278Y-71511297D01*
X137495000Y-71526000D01*
X137495000Y-73626000D01*
X137494278Y-73640703D01*
X137492118Y-73655264D01*
X137488541Y-73669543D01*
X137483582Y-73683403D01*
X137477288Y-73696710D01*
X137469720Y-73709336D01*
X137460952Y-73721159D01*
X137451066Y-73732066D01*
X137440159Y-73741952D01*
X137428336Y-73750720D01*
X137415710Y-73758288D01*
X137402403Y-73764582D01*
X137388543Y-73769541D01*
X137374264Y-73773118D01*
X137359703Y-73775278D01*
X137345000Y-73776000D01*
X137045000Y-73776000D01*
X137030297Y-73775278D01*
X137015736Y-73773118D01*
X137001457Y-73769541D01*
X136987597Y-73764582D01*
X136974290Y-73758288D01*
X136961664Y-73750720D01*
X136949841Y-73741952D01*
X136938934Y-73732066D01*
X136929048Y-73721159D01*
X136920280Y-73709336D01*
X136912712Y-73696710D01*
X136906418Y-73683403D01*
X136901459Y-73669543D01*
X136897882Y-73655264D01*
X136895722Y-73640703D01*
X136895000Y-73626000D01*
X136895000Y-71526000D01*
X136895722Y-71511297D01*
X136897882Y-71496736D01*
X136901459Y-71482457D01*
X136906418Y-71468597D01*
X136912712Y-71455290D01*
X136920280Y-71442664D01*
X136929048Y-71430841D01*
X136938934Y-71419934D01*
X136949841Y-71410048D01*
X136961664Y-71401280D01*
X136974290Y-71393712D01*
X136987597Y-71387418D01*
X137001457Y-71382459D01*
X137015736Y-71378882D01*
X137030297Y-71376722D01*
X137045000Y-71376000D01*
X137345000Y-71376000D01*
X137359703Y-71376722D01*
X137359703Y-71376722D01*
G37*
D31*
X137195000Y-72576000D03*
D30*
G36*
X138629703Y-71376722D02*
G01*
X138644264Y-71378882D01*
X138658543Y-71382459D01*
X138672403Y-71387418D01*
X138685710Y-71393712D01*
X138698336Y-71401280D01*
X138710159Y-71410048D01*
X138721066Y-71419934D01*
X138730952Y-71430841D01*
X138739720Y-71442664D01*
X138747288Y-71455290D01*
X138753582Y-71468597D01*
X138758541Y-71482457D01*
X138762118Y-71496736D01*
X138764278Y-71511297D01*
X138765000Y-71526000D01*
X138765000Y-73626000D01*
X138764278Y-73640703D01*
X138762118Y-73655264D01*
X138758541Y-73669543D01*
X138753582Y-73683403D01*
X138747288Y-73696710D01*
X138739720Y-73709336D01*
X138730952Y-73721159D01*
X138721066Y-73732066D01*
X138710159Y-73741952D01*
X138698336Y-73750720D01*
X138685710Y-73758288D01*
X138672403Y-73764582D01*
X138658543Y-73769541D01*
X138644264Y-73773118D01*
X138629703Y-73775278D01*
X138615000Y-73776000D01*
X138315000Y-73776000D01*
X138300297Y-73775278D01*
X138285736Y-73773118D01*
X138271457Y-73769541D01*
X138257597Y-73764582D01*
X138244290Y-73758288D01*
X138231664Y-73750720D01*
X138219841Y-73741952D01*
X138208934Y-73732066D01*
X138199048Y-73721159D01*
X138190280Y-73709336D01*
X138182712Y-73696710D01*
X138176418Y-73683403D01*
X138171459Y-73669543D01*
X138167882Y-73655264D01*
X138165722Y-73640703D01*
X138165000Y-73626000D01*
X138165000Y-71526000D01*
X138165722Y-71511297D01*
X138167882Y-71496736D01*
X138171459Y-71482457D01*
X138176418Y-71468597D01*
X138182712Y-71455290D01*
X138190280Y-71442664D01*
X138199048Y-71430841D01*
X138208934Y-71419934D01*
X138219841Y-71410048D01*
X138231664Y-71401280D01*
X138244290Y-71393712D01*
X138257597Y-71387418D01*
X138271457Y-71382459D01*
X138285736Y-71378882D01*
X138300297Y-71376722D01*
X138315000Y-71376000D01*
X138615000Y-71376000D01*
X138629703Y-71376722D01*
X138629703Y-71376722D01*
G37*
D31*
X138465000Y-72576000D03*
D13*
X183513160Y-94419420D03*
X182013160Y-94419420D03*
D32*
X182176420Y-104898760D03*
X182176420Y-106398760D03*
D13*
X186131900Y-103771700D03*
X184631900Y-103771700D03*
X184648540Y-102026720D03*
X183148540Y-102026720D03*
D33*
X109433600Y-109057480D03*
X110733600Y-109057480D03*
X110083600Y-109057480D03*
X110733600Y-107157480D03*
X109433600Y-107157480D03*
D34*
X186072780Y-96723200D03*
X188072780Y-96723200D03*
D35*
X182160440Y-118512580D03*
X182160440Y-115812580D03*
X179210440Y-115812580D03*
X179210440Y-118512580D03*
D36*
X178865000Y-110920000D03*
D37*
X177540000Y-104095000D03*
D36*
X170715000Y-105420000D03*
X170715000Y-105920000D03*
X170715000Y-106420000D03*
X170715000Y-106920000D03*
X170715000Y-107420000D03*
X170715000Y-107920000D03*
X170715000Y-108420000D03*
X170715000Y-108920000D03*
X170715000Y-109420000D03*
X170715000Y-109920000D03*
X170715000Y-110420000D03*
X170715000Y-110920000D03*
D37*
X172040000Y-112245000D03*
X172540000Y-112245000D03*
X173040000Y-112245000D03*
X173540000Y-112245000D03*
X174040000Y-112245000D03*
X174540000Y-112245000D03*
X175040000Y-112245000D03*
X175540000Y-112245000D03*
X176040000Y-112245000D03*
X176540000Y-112245000D03*
X177040000Y-112245000D03*
X177540000Y-112245000D03*
D36*
X178865000Y-110420000D03*
X178865000Y-109920000D03*
X178865000Y-109420000D03*
X178865000Y-108920000D03*
X178865000Y-108420000D03*
X178865000Y-107920000D03*
X178865000Y-107420000D03*
X178865000Y-106920000D03*
X178865000Y-106420000D03*
X178865000Y-105920000D03*
X178865000Y-105420000D03*
D37*
X177040000Y-104095000D03*
X176540000Y-104095000D03*
X176040000Y-104095000D03*
X175540000Y-104095000D03*
X175040000Y-104095000D03*
X174540000Y-104095000D03*
X174040000Y-104095000D03*
X173540000Y-104095000D03*
X173040000Y-104095000D03*
X172540000Y-104095000D03*
X172040000Y-104095000D03*
D29*
X189649100Y-112108000D03*
X188379100Y-112108000D03*
X187109100Y-112108000D03*
X185839100Y-112108000D03*
X185839100Y-117508000D03*
X187109100Y-117508000D03*
X188379100Y-117508000D03*
X189649100Y-117508000D03*
D22*
X148417280Y-81763360D03*
X148417280Y-83763360D03*
D32*
X149326600Y-78574200D03*
X149326600Y-80074200D03*
D21*
X150139400Y-81724500D03*
X150139400Y-82824500D03*
D10*
X148606600Y-75133200D03*
X147506600Y-75133200D03*
D21*
X158534100Y-73821200D03*
X158534100Y-74921200D03*
D10*
X175700600Y-88188800D03*
X176800600Y-88188800D03*
D13*
X186097480Y-109697520D03*
X187597480Y-109697520D03*
D38*
X105006100Y-109038100D03*
X106906100Y-109038100D03*
X105956100Y-106938100D03*
D39*
X105991200Y-96424600D03*
X105991200Y-99104600D03*
X108791200Y-99104600D03*
X108791200Y-96424600D03*
D10*
X150084700Y-94048580D03*
X151184700Y-94048580D03*
D32*
X179265580Y-96995680D03*
X179265580Y-95495680D03*
D10*
X163973600Y-102209600D03*
X162873600Y-102209600D03*
X167135900Y-108991400D03*
X166035900Y-108991400D03*
X167123200Y-107873800D03*
X166023200Y-107873800D03*
X167123200Y-106756200D03*
X166023200Y-106756200D03*
X105200540Y-104297480D03*
X104100540Y-104297480D03*
X105187840Y-103012240D03*
X104087840Y-103012240D03*
D32*
X156702760Y-76088240D03*
X156702760Y-74588240D03*
D22*
X172501560Y-81468720D03*
X172501560Y-83468720D03*
D10*
X180475800Y-120878600D03*
X181575800Y-120878600D03*
D13*
X188453460Y-127345440D03*
X186953460Y-127345440D03*
D22*
X187706000Y-99076000D03*
X187706000Y-101076000D03*
D21*
X176441100Y-82012700D03*
X176441100Y-83112700D03*
D32*
X114706400Y-118783800D03*
X114706400Y-117283800D03*
D10*
X132139780Y-91305380D03*
X131039780Y-91305380D03*
D40*
X161176020Y-76089880D03*
X161176020Y-74389880D03*
D13*
X108588240Y-104447340D03*
X107088240Y-104447340D03*
X108600240Y-102720140D03*
X107100240Y-102720140D03*
D32*
X181317900Y-125470220D03*
X181317900Y-126970220D03*
X179692300Y-125470220D03*
X179692300Y-126970220D03*
D10*
X109937640Y-94256860D03*
X108837640Y-94256860D03*
X119676000Y-92710000D03*
X118576000Y-92710000D03*
D21*
X183766460Y-108731140D03*
X183766460Y-107631140D03*
D32*
X186055000Y-107953240D03*
X186055000Y-106453240D03*
D21*
X173936100Y-115695900D03*
X173936100Y-116795900D03*
D10*
X183490780Y-100070920D03*
X184590780Y-100070920D03*
D21*
X191195960Y-118987660D03*
X191195960Y-117887660D03*
D10*
X178146800Y-102654100D03*
X177046800Y-102654100D03*
X118736200Y-111518700D03*
X117636200Y-111518700D03*
D21*
X148031200Y-95589180D03*
X148031200Y-94489180D03*
X133946900Y-111616400D03*
X133946900Y-112716400D03*
D10*
X114156580Y-101092000D03*
X113056580Y-101092000D03*
D12*
X184183200Y-98270100D03*
X184183200Y-97320100D03*
X184183200Y-96370100D03*
X181983200Y-96370100D03*
X181983200Y-98270100D03*
D41*
X119462000Y-107860000D03*
X119462000Y-107360000D03*
X119462000Y-106860000D03*
X119462000Y-106360000D03*
X119462000Y-105860000D03*
X119462000Y-105360000D03*
X119462000Y-104860000D03*
X119462000Y-104360000D03*
X119462000Y-103860000D03*
X119462000Y-103360000D03*
X119462000Y-102860000D03*
X119462000Y-102360000D03*
X119462000Y-101860000D03*
X119462000Y-101360000D03*
X119462000Y-100860000D03*
X119462000Y-100360000D03*
X119462000Y-99860000D03*
X119462000Y-99360000D03*
X119462000Y-98860000D03*
X119462000Y-98360000D03*
X119462000Y-97860000D03*
X119462000Y-97360000D03*
X119462000Y-96860000D03*
X119462000Y-96360000D03*
D42*
X121162000Y-94160000D03*
X121662000Y-94160000D03*
X122162000Y-94160000D03*
X122662000Y-94160000D03*
X123162000Y-94160000D03*
X123662000Y-94160000D03*
X124162000Y-94160000D03*
X124662000Y-94160000D03*
X125162000Y-94160000D03*
X125662000Y-94160000D03*
X126162000Y-94160000D03*
X126662000Y-94160000D03*
X127162000Y-94160000D03*
X127662000Y-94160000D03*
X128162000Y-94160000D03*
X128662000Y-94160000D03*
X129162000Y-94160000D03*
X129662000Y-94160000D03*
X130162000Y-94160000D03*
X130662000Y-94160000D03*
X131162000Y-94160000D03*
X131662000Y-94160000D03*
X132162000Y-94160000D03*
X132662000Y-94160000D03*
D41*
X134862000Y-95860000D03*
X134862000Y-96360000D03*
X134862000Y-96860000D03*
X134862000Y-97360000D03*
X134862000Y-97860000D03*
X134862000Y-98360000D03*
X134862000Y-98860000D03*
X134862000Y-99360000D03*
X134862000Y-99860000D03*
X134862000Y-100360000D03*
X134862000Y-100860000D03*
X134862000Y-101360000D03*
X134862000Y-101860000D03*
X134862000Y-102360000D03*
X134862000Y-102860000D03*
X134862000Y-103360000D03*
X134862000Y-103860000D03*
X134862000Y-104360000D03*
X134862000Y-104860000D03*
X134862000Y-105360000D03*
X134862000Y-105860000D03*
X134862000Y-106360000D03*
X134862000Y-106860000D03*
X134862000Y-107360000D03*
D42*
X133162000Y-109560000D03*
X132662000Y-109560000D03*
X132162000Y-109560000D03*
X131662000Y-109560000D03*
X131162000Y-109560000D03*
X130662000Y-109560000D03*
X130162000Y-109560000D03*
X129662000Y-109560000D03*
X129162000Y-109560000D03*
X128662000Y-109560000D03*
X128162000Y-109560000D03*
X127662000Y-109560000D03*
X127162000Y-109560000D03*
X126662000Y-109560000D03*
X126162000Y-109560000D03*
X125662000Y-109560000D03*
X125162000Y-109560000D03*
X124662000Y-109560000D03*
X124162000Y-109560000D03*
X123662000Y-109560000D03*
X123162000Y-109560000D03*
X122662000Y-109560000D03*
X122162000Y-109560000D03*
X121662000Y-109560000D03*
X121162000Y-109560000D03*
D41*
X134862000Y-107860000D03*
D42*
X133162000Y-94160000D03*
D41*
X119462000Y-95860000D03*
M02*
