M48
; DRILL file {KiCad (5.1.2)-1} date 2020/02/28 22:39:49
; FORMAT={-:-/ absolute / metric / decimal}
; #@! TF.CreationDate,2020-02-28T22:39:49+09:00
; #@! TF.GenerationSoftware,Kicad,Pcbnew,(5.1.2)-1
FMAT,2
METRIC
T1C0.400
T2C1.000
T3C1.100
T4C1.100
T5C3.200
%
G90
G05
T1
X102.616Y-107.798
X102.621Y-97.521
X103.505Y-93.32
X103.683Y-106.236
X103.873Y-118.643
X103.899Y-114.351
X105.423Y-90.513
X105.448Y-93.789
X105.689Y-78.588
X105.715Y-80.874
X106.157Y-123.49
X106.172Y-67.297
X106.258Y-86.985
X106.27Y-85.41
X106.299Y-69.063
X106.782Y-101.371
X107.635Y-124.927
X108.814Y-66.192
X108.915Y-64.948
X108.963Y-126.365
X109.536Y-109.711
X109.663Y-63.754
X109.88Y-92.634
X109.906Y-89.51
X109.957Y-67.64
X110.274Y-127.66
X110.414Y-78.689
X110.414Y-80.721
X110.435Y-69.076
X110.846Y-96.037
X110.896Y-98.222
X111.1Y-97.104
X111.139Y-63.322
X111.214Y-70.79
X111.227Y-72.517
X111.527Y-91.948
X111.608Y-94.323
X111.697Y-129.045
X112.039Y-105.232
X112.078Y-110.846
X112.09Y-112.141
X112.201Y-108.702
X112.319Y-100.432
X112.415Y-125.268
X112.973Y-107.71
X113.454Y-124.201
X113.668Y-112.525
X113.805Y-88.265
X113.995Y-89.294
X114.123Y-102.942
X114.173Y-77.953
X114.183Y-81.346
X114.224Y-96.799
X114.297Y-127.432
X114.351Y-62.789
X114.413Y-87.28
X114.414Y-71.145
X114.452Y-103.886
X114.465Y-72.479
X114.526Y-123.17
X114.604Y-111.34
X114.643Y-92.253
X114.66Y-98.135
X114.732Y-90.437
X115.008Y-112.255
X115.113Y-110.134
X115.118Y-109.043
X115.291Y-61.9
X115.306Y-126.357
X115.457Y-89.719
X115.646Y-62.928
X115.835Y-69.571
X116.078Y-101.45
X116.154Y-117.295
X116.154Y-122.276
X116.479Y-68.435
X116.529Y-90.745
X116.637Y-61.938
X116.662Y-124.943
X116.738Y-97.561
X116.977Y-107.241
X117.078Y-104.38
X117.383Y-110.569
X117.496Y-113.864
X117.567Y-90.745
X117.675Y-77.524
X117.675Y-80.572
X117.742Y-91.745
X118.821Y-117.754
X118.821Y-119.126
X118.948Y-93.942
X119.15Y-115.995
X119.298Y-69.261
X119.685Y-90.678
X119.734Y-89.656
X119.866Y-70.677
X119.99Y-64.656
X120.244Y-93.942
X120.269Y-111.468
X120.548Y-84.71
X120.688Y-118.631
X120.726Y-112.446
X120.746Y-69.667
X120.751Y-120.045
X120.853Y-114.198
X120.866Y-89.438
X120.937Y-92.177
X121.056Y-80.785
X121.107Y-121.285
X121.183Y-64.631
X121.462Y-85.115
X121.514Y-87.325
X121.818Y-89.967
X121.92Y-97.028
X121.92Y-99.568
X121.92Y-102.108
X121.92Y-104.648
X121.92Y-107.188
X122.044Y-121.993
X122.597Y-65.566
X123.14Y-119.315
X123.19Y-86.665
X123.209Y-122.115
X123.215Y-84.492
X123.698Y-123.495
X124.063Y-117.887
X124.257Y-75.26
X124.257Y-76.657
X124.308Y-78.054
X124.46Y-97.028
X124.46Y-99.568
X124.46Y-102.108
X124.46Y-104.648
X124.46Y-107.188
X124.876Y-91.925
X124.917Y-124.079
X125.007Y-117.557
X125.12Y-115.443
X125.4Y-116.637
X125.771Y-113.461
X125.93Y-91.328
X126.337Y-86.21
X126.454Y-70.244
X126.496Y-115.316
X126.822Y-77.622
X126.848Y-78.971
X127.0Y-99.568
X127.0Y-102.108
X127.0Y-104.648
X127.0Y-107.188
X127.061Y-128.905
X127.686Y-80.34
X127.813Y-96.19
X127.859Y-116.864
X128.018Y-115.867
X128.305Y-74.501
X128.396Y-114.888
X128.524Y-97.536
X128.844Y-96.148
X128.896Y-68.741
X129.274Y-91.184
X129.54Y-102.108
X129.54Y-99.568
X129.54Y-104.648
X129.54Y-107.188
X129.56Y-75.618
X129.56Y-77.216
X129.565Y-115.706
X129.565Y-78.753
X129.717Y-88.886
X129.87Y-95.91
X129.882Y-90.336
X129.896Y-68.962
X130.459Y-114.309
X130.62Y-115.383
X130.758Y-88.89
X130.785Y-111.152
X130.945Y-92.164
X131.064Y-97.536
X131.166Y-70.46
X131.59Y-85.359
X131.902Y-69.748
X132.08Y-99.568
X132.08Y-102.108
X132.08Y-104.648
X132.08Y-107.188
X132.633Y-85.341
X132.744Y-70.327
X132.828Y-114.402
X133.139Y-78.153
X133.162Y-76.5
X133.162Y-79.865
X133.172Y-96.825
X133.476Y-69.641
X133.604Y-85.103
X134.03Y-90.596
X134.163Y-93.751
X134.426Y-69.952
X134.431Y-88.682
X134.547Y-114.319
X134.655Y-85.194
X134.823Y-111.152
X135.352Y-70.358
X135.382Y-94.742
X135.651Y-84.922
X135.692Y-114.74
X135.915Y-123.393
X135.966Y-125.73
X136.533Y-93.451
X136.83Y-114.986
X137.003Y-99.635
X137.414Y-109.969
X137.449Y-94.313
X137.49Y-112.014
X137.512Y-105.616
X137.541Y-96.075
X137.541Y-96.965
X137.801Y-116.595
X137.863Y-106.765
X137.972Y-99.389
X138.278Y-112.739
X138.468Y-84.595
X138.558Y-115.87
X138.592Y-91.138
X138.781Y-90.122
X138.905Y-98.823
X139.024Y-99.965
X139.456Y-104.585
X139.476Y-117.165
X139.563Y-73.022
X139.573Y-113.983
X140.08Y-98.342
X140.09Y-97.098
X140.277Y-109.22
X140.306Y-76.19
X140.306Y-78.222
X140.306Y-80.381
X140.402Y-105.765
X140.417Y-72.099
X140.441Y-113.486
X140.487Y-70.637
X140.487Y-85.707
X140.521Y-99.239
X140.764Y-104.816
X140.957Y-111.176
X141.224Y-71.374
X141.679Y-98.649
X141.907Y-100.409
X142.262Y-108.981
X142.758Y-116.119
X143.227Y-110.925
X143.421Y-89.649
X143.507Y-100.409
X143.692Y-102.272
X143.873Y-118.836
X143.964Y-110.086
X144.32Y-101.345
X144.638Y-90.13
X144.815Y-92.535
X144.815Y-94.44
X144.815Y-96.345
X144.815Y-98.25
X144.984Y-89.112
X145.009Y-110.36
X145.339Y-108.547
X146.088Y-89.433
X146.11Y-68.291
X146.397Y-108.579
X146.868Y-118.808
X146.944Y-105.624
X147.218Y-101.354
X147.431Y-108.55
X147.927Y-96.586
X147.971Y-66.427
X148.399Y-106.261
X148.473Y-102.824
X149.273Y-116.043
X149.454Y-72.86
X149.92Y-97.59
X150.03Y-118.836
X150.444Y-71.882
X150.847Y-74.967
X150.847Y-78.184
X151.025Y-110.01
X151.511Y-70.841
X151.543Y-99.543
X151.673Y-97.577
X151.887Y-65.248
X151.917Y-118.707
X151.917Y-119.977
X151.973Y-91.867
X152.456Y-128.91
X153.077Y-106.12
X153.187Y-118.707
X153.187Y-119.977
X153.459Y-97.602
X153.459Y-99.057
X153.543Y-83.248
X153.543Y-86.741
X153.764Y-93.082
X154.051Y-91.897
X154.114Y-106.453
X154.457Y-118.707
X154.457Y-119.977
X154.6Y-93.835
X155.727Y-118.707
X155.727Y-119.977
X155.926Y-103.241
X155.969Y-104.773
X156.07Y-106.223
X156.27Y-92.027
X156.273Y-83.248
X156.273Y-86.741
X156.548Y-93.766
X156.972Y-104.851
X157.642Y-110.112
X157.866Y-104.02
X157.874Y-69.761
X157.946Y-96.241
X158.232Y-106.774
X158.48Y-120.45
X158.481Y-119.06
X158.506Y-121.847
X159.131Y-83.248
X159.131Y-86.741
X159.347Y-97.917
X159.347Y-99.758
X159.347Y-101.536
X159.611Y-111.139
X159.614Y-91.694
X159.804Y-69.787
X160.365Y-106.774
X160.762Y-111.155
X161.696Y-114.706
X161.709Y-72.466
X161.925Y-91.967
X162.052Y-83.248
X162.052Y-86.741
X162.649Y-69.482
X162.763Y-96.139
X162.888Y-108.659
X163.297Y-114.122
X163.573Y-118.252
X163.575Y-107.123
X163.817Y-69.431
X163.865Y-100.905
X164.293Y-68.517
X164.3Y-112.42
X164.329Y-108.062
X164.719Y-115.39
X164.859Y-110.731
X164.909Y-91.967
X165.024Y-102.032
X165.04Y-100.906
X165.341Y-103.099
X165.417Y-96.139
X165.43Y-68.618
X165.636Y-118.252
X166.129Y-67.869
X166.136Y-114.859
X166.395Y-66.878
X167.192Y-110.124
X167.192Y-112.347
X167.205Y-111.204
X167.831Y-91.967
X168.148Y-96.139
X168.234Y-116.983
X168.25Y-103.175
X168.577Y-111.953
X169.008Y-107.788
X169.199Y-117.91
X169.393Y-79.985
X169.393Y-82.271
X169.418Y-84.684
X169.418Y-86.97
X169.502Y-92.776
X169.507Y-103.264
X169.799Y-77.724
X170.038Y-73.134
X170.434Y-112.649
X170.739Y-89.408
X170.786Y-93.742
X170.815Y-96.139
X170.896Y-116.134
X170.901Y-76.558
X171.286Y-88.344
X171.298Y-118.262
X171.761Y-80.279
X171.867Y-117.135
X171.914Y-93.83
X171.942Y-75.479
X172.093Y-71.854
X172.105Y-68.263
X172.11Y-70.053
X172.372Y-94.719
X172.491Y-79.426
X172.763Y-108.158
X172.763Y-110.19
X172.771Y-106.108
X173.114Y-86.98
X173.609Y-93.604
X174.152Y-84.356
X174.152Y-88.316
X174.795Y-106.126
X174.795Y-108.158
X174.795Y-110.19
X175.003Y-116.259
X175.171Y-101.867
X175.353Y-73.136
X175.438Y-91.44
X175.753Y-84.343
X176.352Y-92.532
X176.479Y-96.342
X176.479Y-97.765
X176.619Y-94.844
X176.827Y-106.126
X176.827Y-108.158
X176.827Y-110.19
X177.025Y-114.579
X177.112Y-117.259
X177.112Y-118.466
X177.14Y-66.802
X177.14Y-70.053
X177.19Y-73.558
X177.292Y-93.599
X177.673Y-85.979
X177.708Y-120.406
X177.708Y-125.435
X177.787Y-99.251
X178.022Y-81.191
X178.089Y-82.692
X178.991Y-121.897
X178.991Y-123.104
X178.999Y-112.227
X179.07Y-100.889
X179.095Y-99.619
X179.73Y-113.589
X180.95Y-89.56
X181.293Y-108.134
X181.543Y-86.172
X181.559Y-81.712
X181.559Y-83.312
X181.559Y-84.76
X181.844Y-99.741
X181.859Y-100.833
X182.601Y-112.179
X182.608Y-109.022
X182.677Y-89.56
X182.875Y-113.604
X183.321Y-86.172
X183.477Y-106.393
X183.947Y-126.492
X183.972Y-127.622
X184.429Y-119.852
X184.434Y-109.581
X184.439Y-116.259
X184.824Y-105.592
X184.942Y-121.737
X184.942Y-123.007
X185.316Y-94.912
X185.318Y-93.574
X185.42Y-89.535
X185.5Y-124.9
X185.979Y-101.295
X186.149Y-115.479
X187.096Y-126.213
X187.101Y-125.182
X187.249Y-89.535
X187.338Y-95.23
X187.747Y-115.481
X187.998Y-105.943
X188.346Y-95.242
X188.976Y-89.535
X189.276Y-105.946
X189.362Y-115.473
X189.484Y-101.016
X189.497Y-102.113
X189.53Y-107.559
X189.535Y-108.852
X189.662Y-119.507
X190.739Y-98.412
X190.739Y-99.809
X190.848Y-109.997
X192.161Y-99.792
X192.169Y-98.387
X192.199Y-111.303
X192.225Y-109.99
X193.533Y-111.293
T2
X144.094Y-75.959
X144.094Y-78.499
X193.065Y-67.869
X127.076Y-124.46
X127.076Y-127.0
X129.616Y-124.46
X129.616Y-127.0
X132.156Y-124.46
X132.156Y-127.0
X134.696Y-124.46
X134.696Y-127.0
X137.236Y-124.46
X137.236Y-127.0
X139.776Y-124.46
X139.776Y-127.0
X142.316Y-124.46
X142.316Y-127.0
X144.856Y-124.46
X144.856Y-127.0
X147.396Y-124.46
X147.396Y-127.0
X149.936Y-124.46
X149.936Y-127.0
X152.476Y-124.46
X152.476Y-127.0
X155.016Y-124.46
X155.016Y-127.0
X157.556Y-124.46
X157.556Y-127.0
X160.096Y-124.46
X160.096Y-127.0
X162.636Y-124.46
X162.636Y-127.0
X165.176Y-124.46
X165.176Y-127.0
X167.716Y-124.46
X167.716Y-127.0
X170.256Y-124.46
X170.256Y-127.0
X172.796Y-124.46
X172.796Y-127.0
X175.336Y-124.46
X175.336Y-127.0
X127.076Y-60.96
X127.076Y-63.5
X129.616Y-60.96
X129.616Y-63.5
X132.156Y-60.96
X132.156Y-63.5
X134.696Y-60.96
X134.696Y-63.5
X137.236Y-60.96
X137.236Y-63.5
X139.776Y-60.96
X139.776Y-63.5
X142.316Y-60.96
X142.316Y-63.5
X144.856Y-60.96
X144.856Y-63.5
X147.396Y-60.96
X147.396Y-63.5
X149.936Y-60.96
X149.936Y-63.5
X152.476Y-60.96
X152.476Y-63.5
X155.016Y-60.96
X155.016Y-63.5
X157.556Y-60.96
X157.556Y-63.5
X160.096Y-60.96
X160.096Y-63.5
X162.636Y-60.96
X162.636Y-63.5
X165.176Y-60.96
X165.176Y-63.5
X167.716Y-60.96
X167.716Y-63.5
X170.256Y-60.96
X170.256Y-63.5
X172.796Y-60.96
X172.796Y-63.5
X175.336Y-60.96
X175.336Y-63.5
T3
X105.664Y-113.134
X105.664Y-119.634
X110.164Y-113.134
X110.164Y-119.634
X105.736Y-76.556
X105.736Y-83.056
X110.236Y-76.556
X110.236Y-83.056
T4
X194.881Y-102.616
X194.881Y-107.366
T5
X104.0Y-61.0
X193.0Y-61.0
X104.0Y-127.0
X193.0Y-127.0
T0
M30
