G04 #@! TF.GenerationSoftware,KiCad,Pcbnew,(5.1.2)-1*
G04 #@! TF.CreationDate,2020-02-28T22:39:46+09:00*
G04 #@! TF.ProjectId,o2_breakout,6f325f62-7265-4616-9b6f-75742e6b6963,rev?*
G04 #@! TF.SameCoordinates,Original*
G04 #@! TF.FileFunction,Soldermask,Bot*
G04 #@! TF.FilePolarity,Negative*
%FSLAX46Y46*%
G04 Gerber Fmt 4.6, Leading zero omitted, Abs format (unit mm)*
G04 Created by KiCad (PCBNEW (5.1.2)-1) date 2020-02-28 22:39:46*
%MOMM*%
%LPD*%
G04 APERTURE LIST*
%ADD10C,0.100000*%
G04 APERTURE END LIST*
D10*
G36*
X156232860Y-120484900D02*
G01*
X151406860Y-120484900D01*
X151406860Y-118198900D01*
X156232860Y-118198900D01*
X156232860Y-120484900D01*
G37*
G36*
X193375256Y-125391298D02*
G01*
X193481579Y-125412447D01*
X193782042Y-125536903D01*
X194052451Y-125717585D01*
X194282415Y-125947549D01*
X194463097Y-126217958D01*
X194587553Y-126518421D01*
X194651000Y-126837391D01*
X194651000Y-127162609D01*
X194587553Y-127481579D01*
X194463097Y-127782042D01*
X194282415Y-128052451D01*
X194052451Y-128282415D01*
X193782042Y-128463097D01*
X193481579Y-128587553D01*
X193375256Y-128608702D01*
X193162611Y-128651000D01*
X192837389Y-128651000D01*
X192624744Y-128608702D01*
X192518421Y-128587553D01*
X192217958Y-128463097D01*
X191947549Y-128282415D01*
X191717585Y-128052451D01*
X191536903Y-127782042D01*
X191412447Y-127481579D01*
X191349000Y-127162609D01*
X191349000Y-126837391D01*
X191412447Y-126518421D01*
X191536903Y-126217958D01*
X191717585Y-125947549D01*
X191947549Y-125717585D01*
X192217958Y-125536903D01*
X192518421Y-125412447D01*
X192624744Y-125391298D01*
X192837389Y-125349000D01*
X193162611Y-125349000D01*
X193375256Y-125391298D01*
X193375256Y-125391298D01*
G37*
G36*
X104375256Y-125391298D02*
G01*
X104481579Y-125412447D01*
X104782042Y-125536903D01*
X105052451Y-125717585D01*
X105282415Y-125947549D01*
X105463097Y-126217958D01*
X105587553Y-126518421D01*
X105651000Y-126837391D01*
X105651000Y-127162609D01*
X105587553Y-127481579D01*
X105463097Y-127782042D01*
X105282415Y-128052451D01*
X105052451Y-128282415D01*
X104782042Y-128463097D01*
X104481579Y-128587553D01*
X104375256Y-128608702D01*
X104162611Y-128651000D01*
X103837389Y-128651000D01*
X103624744Y-128608702D01*
X103518421Y-128587553D01*
X103217958Y-128463097D01*
X102947549Y-128282415D01*
X102717585Y-128052451D01*
X102536903Y-127782042D01*
X102412447Y-127481579D01*
X102349000Y-127162609D01*
X102349000Y-126837391D01*
X102412447Y-126518421D01*
X102536903Y-126217958D01*
X102717585Y-125947549D01*
X102947549Y-125717585D01*
X103217958Y-125536903D01*
X103518421Y-125412447D01*
X103624744Y-125391298D01*
X103837389Y-125349000D01*
X104162611Y-125349000D01*
X104375256Y-125391298D01*
X104375256Y-125391298D01*
G37*
G36*
X127977200Y-127901000D02*
G01*
X126175200Y-127901000D01*
X126175200Y-126099000D01*
X127977200Y-126099000D01*
X127977200Y-127901000D01*
X127977200Y-127901000D01*
G37*
G36*
X155126643Y-126105519D02*
G01*
X155192827Y-126112037D01*
X155362666Y-126163557D01*
X155519191Y-126247222D01*
X155554929Y-126276552D01*
X155656386Y-126359814D01*
X155739648Y-126461271D01*
X155768978Y-126497009D01*
X155852643Y-126653534D01*
X155904163Y-126823373D01*
X155921559Y-127000000D01*
X155904163Y-127176627D01*
X155852643Y-127346466D01*
X155768978Y-127502991D01*
X155739648Y-127538729D01*
X155656386Y-127640186D01*
X155554929Y-127723448D01*
X155519191Y-127752778D01*
X155362666Y-127836443D01*
X155192827Y-127887963D01*
X155126642Y-127894482D01*
X155060460Y-127901000D01*
X154971940Y-127901000D01*
X154905758Y-127894482D01*
X154839573Y-127887963D01*
X154669734Y-127836443D01*
X154513209Y-127752778D01*
X154477471Y-127723448D01*
X154376014Y-127640186D01*
X154292752Y-127538729D01*
X154263422Y-127502991D01*
X154179757Y-127346466D01*
X154128237Y-127176627D01*
X154110841Y-127000000D01*
X154128237Y-126823373D01*
X154179757Y-126653534D01*
X154263422Y-126497009D01*
X154292752Y-126461271D01*
X154376014Y-126359814D01*
X154477471Y-126276552D01*
X154513209Y-126247222D01*
X154669734Y-126163557D01*
X154839573Y-126112037D01*
X154905757Y-126105519D01*
X154971940Y-126099000D01*
X155060460Y-126099000D01*
X155126643Y-126105519D01*
X155126643Y-126105519D01*
G37*
G36*
X132266643Y-126105519D02*
G01*
X132332827Y-126112037D01*
X132502666Y-126163557D01*
X132659191Y-126247222D01*
X132694929Y-126276552D01*
X132796386Y-126359814D01*
X132879648Y-126461271D01*
X132908978Y-126497009D01*
X132992643Y-126653534D01*
X133044163Y-126823373D01*
X133061559Y-127000000D01*
X133044163Y-127176627D01*
X132992643Y-127346466D01*
X132908978Y-127502991D01*
X132879648Y-127538729D01*
X132796386Y-127640186D01*
X132694929Y-127723448D01*
X132659191Y-127752778D01*
X132502666Y-127836443D01*
X132332827Y-127887963D01*
X132266642Y-127894482D01*
X132200460Y-127901000D01*
X132111940Y-127901000D01*
X132045758Y-127894482D01*
X131979573Y-127887963D01*
X131809734Y-127836443D01*
X131653209Y-127752778D01*
X131617471Y-127723448D01*
X131516014Y-127640186D01*
X131432752Y-127538729D01*
X131403422Y-127502991D01*
X131319757Y-127346466D01*
X131268237Y-127176627D01*
X131250841Y-127000000D01*
X131268237Y-126823373D01*
X131319757Y-126653534D01*
X131403422Y-126497009D01*
X131432752Y-126461271D01*
X131516014Y-126359814D01*
X131617471Y-126276552D01*
X131653209Y-126247222D01*
X131809734Y-126163557D01*
X131979573Y-126112037D01*
X132045757Y-126105519D01*
X132111940Y-126099000D01*
X132200460Y-126099000D01*
X132266643Y-126105519D01*
X132266643Y-126105519D01*
G37*
G36*
X134806643Y-126105519D02*
G01*
X134872827Y-126112037D01*
X135042666Y-126163557D01*
X135199191Y-126247222D01*
X135234929Y-126276552D01*
X135336386Y-126359814D01*
X135419648Y-126461271D01*
X135448978Y-126497009D01*
X135532643Y-126653534D01*
X135584163Y-126823373D01*
X135601559Y-127000000D01*
X135584163Y-127176627D01*
X135532643Y-127346466D01*
X135448978Y-127502991D01*
X135419648Y-127538729D01*
X135336386Y-127640186D01*
X135234929Y-127723448D01*
X135199191Y-127752778D01*
X135042666Y-127836443D01*
X134872827Y-127887963D01*
X134806642Y-127894482D01*
X134740460Y-127901000D01*
X134651940Y-127901000D01*
X134585758Y-127894482D01*
X134519573Y-127887963D01*
X134349734Y-127836443D01*
X134193209Y-127752778D01*
X134157471Y-127723448D01*
X134056014Y-127640186D01*
X133972752Y-127538729D01*
X133943422Y-127502991D01*
X133859757Y-127346466D01*
X133808237Y-127176627D01*
X133790841Y-127000000D01*
X133808237Y-126823373D01*
X133859757Y-126653534D01*
X133943422Y-126497009D01*
X133972752Y-126461271D01*
X134056014Y-126359814D01*
X134157471Y-126276552D01*
X134193209Y-126247222D01*
X134349734Y-126163557D01*
X134519573Y-126112037D01*
X134585757Y-126105519D01*
X134651940Y-126099000D01*
X134740460Y-126099000D01*
X134806643Y-126105519D01*
X134806643Y-126105519D01*
G37*
G36*
X137346643Y-126105519D02*
G01*
X137412827Y-126112037D01*
X137582666Y-126163557D01*
X137739191Y-126247222D01*
X137774929Y-126276552D01*
X137876386Y-126359814D01*
X137959648Y-126461271D01*
X137988978Y-126497009D01*
X138072643Y-126653534D01*
X138124163Y-126823373D01*
X138141559Y-127000000D01*
X138124163Y-127176627D01*
X138072643Y-127346466D01*
X137988978Y-127502991D01*
X137959648Y-127538729D01*
X137876386Y-127640186D01*
X137774929Y-127723448D01*
X137739191Y-127752778D01*
X137582666Y-127836443D01*
X137412827Y-127887963D01*
X137346642Y-127894482D01*
X137280460Y-127901000D01*
X137191940Y-127901000D01*
X137125758Y-127894482D01*
X137059573Y-127887963D01*
X136889734Y-127836443D01*
X136733209Y-127752778D01*
X136697471Y-127723448D01*
X136596014Y-127640186D01*
X136512752Y-127538729D01*
X136483422Y-127502991D01*
X136399757Y-127346466D01*
X136348237Y-127176627D01*
X136330841Y-127000000D01*
X136348237Y-126823373D01*
X136399757Y-126653534D01*
X136483422Y-126497009D01*
X136512752Y-126461271D01*
X136596014Y-126359814D01*
X136697471Y-126276552D01*
X136733209Y-126247222D01*
X136889734Y-126163557D01*
X137059573Y-126112037D01*
X137125757Y-126105519D01*
X137191940Y-126099000D01*
X137280460Y-126099000D01*
X137346643Y-126105519D01*
X137346643Y-126105519D01*
G37*
G36*
X139886643Y-126105519D02*
G01*
X139952827Y-126112037D01*
X140122666Y-126163557D01*
X140279191Y-126247222D01*
X140314929Y-126276552D01*
X140416386Y-126359814D01*
X140499648Y-126461271D01*
X140528978Y-126497009D01*
X140612643Y-126653534D01*
X140664163Y-126823373D01*
X140681559Y-127000000D01*
X140664163Y-127176627D01*
X140612643Y-127346466D01*
X140528978Y-127502991D01*
X140499648Y-127538729D01*
X140416386Y-127640186D01*
X140314929Y-127723448D01*
X140279191Y-127752778D01*
X140122666Y-127836443D01*
X139952827Y-127887963D01*
X139886642Y-127894482D01*
X139820460Y-127901000D01*
X139731940Y-127901000D01*
X139665758Y-127894482D01*
X139599573Y-127887963D01*
X139429734Y-127836443D01*
X139273209Y-127752778D01*
X139237471Y-127723448D01*
X139136014Y-127640186D01*
X139052752Y-127538729D01*
X139023422Y-127502991D01*
X138939757Y-127346466D01*
X138888237Y-127176627D01*
X138870841Y-127000000D01*
X138888237Y-126823373D01*
X138939757Y-126653534D01*
X139023422Y-126497009D01*
X139052752Y-126461271D01*
X139136014Y-126359814D01*
X139237471Y-126276552D01*
X139273209Y-126247222D01*
X139429734Y-126163557D01*
X139599573Y-126112037D01*
X139665757Y-126105519D01*
X139731940Y-126099000D01*
X139820460Y-126099000D01*
X139886643Y-126105519D01*
X139886643Y-126105519D01*
G37*
G36*
X142426643Y-126105519D02*
G01*
X142492827Y-126112037D01*
X142662666Y-126163557D01*
X142819191Y-126247222D01*
X142854929Y-126276552D01*
X142956386Y-126359814D01*
X143039648Y-126461271D01*
X143068978Y-126497009D01*
X143152643Y-126653534D01*
X143204163Y-126823373D01*
X143221559Y-127000000D01*
X143204163Y-127176627D01*
X143152643Y-127346466D01*
X143068978Y-127502991D01*
X143039648Y-127538729D01*
X142956386Y-127640186D01*
X142854929Y-127723448D01*
X142819191Y-127752778D01*
X142662666Y-127836443D01*
X142492827Y-127887963D01*
X142426642Y-127894482D01*
X142360460Y-127901000D01*
X142271940Y-127901000D01*
X142205758Y-127894482D01*
X142139573Y-127887963D01*
X141969734Y-127836443D01*
X141813209Y-127752778D01*
X141777471Y-127723448D01*
X141676014Y-127640186D01*
X141592752Y-127538729D01*
X141563422Y-127502991D01*
X141479757Y-127346466D01*
X141428237Y-127176627D01*
X141410841Y-127000000D01*
X141428237Y-126823373D01*
X141479757Y-126653534D01*
X141563422Y-126497009D01*
X141592752Y-126461271D01*
X141676014Y-126359814D01*
X141777471Y-126276552D01*
X141813209Y-126247222D01*
X141969734Y-126163557D01*
X142139573Y-126112037D01*
X142205757Y-126105519D01*
X142271940Y-126099000D01*
X142360460Y-126099000D01*
X142426643Y-126105519D01*
X142426643Y-126105519D01*
G37*
G36*
X144966643Y-126105519D02*
G01*
X145032827Y-126112037D01*
X145202666Y-126163557D01*
X145359191Y-126247222D01*
X145394929Y-126276552D01*
X145496386Y-126359814D01*
X145579648Y-126461271D01*
X145608978Y-126497009D01*
X145692643Y-126653534D01*
X145744163Y-126823373D01*
X145761559Y-127000000D01*
X145744163Y-127176627D01*
X145692643Y-127346466D01*
X145608978Y-127502991D01*
X145579648Y-127538729D01*
X145496386Y-127640186D01*
X145394929Y-127723448D01*
X145359191Y-127752778D01*
X145202666Y-127836443D01*
X145032827Y-127887963D01*
X144966642Y-127894482D01*
X144900460Y-127901000D01*
X144811940Y-127901000D01*
X144745758Y-127894482D01*
X144679573Y-127887963D01*
X144509734Y-127836443D01*
X144353209Y-127752778D01*
X144317471Y-127723448D01*
X144216014Y-127640186D01*
X144132752Y-127538729D01*
X144103422Y-127502991D01*
X144019757Y-127346466D01*
X143968237Y-127176627D01*
X143950841Y-127000000D01*
X143968237Y-126823373D01*
X144019757Y-126653534D01*
X144103422Y-126497009D01*
X144132752Y-126461271D01*
X144216014Y-126359814D01*
X144317471Y-126276552D01*
X144353209Y-126247222D01*
X144509734Y-126163557D01*
X144679573Y-126112037D01*
X144745757Y-126105519D01*
X144811940Y-126099000D01*
X144900460Y-126099000D01*
X144966643Y-126105519D01*
X144966643Y-126105519D01*
G37*
G36*
X147506643Y-126105519D02*
G01*
X147572827Y-126112037D01*
X147742666Y-126163557D01*
X147899191Y-126247222D01*
X147934929Y-126276552D01*
X148036386Y-126359814D01*
X148119648Y-126461271D01*
X148148978Y-126497009D01*
X148232643Y-126653534D01*
X148284163Y-126823373D01*
X148301559Y-127000000D01*
X148284163Y-127176627D01*
X148232643Y-127346466D01*
X148148978Y-127502991D01*
X148119648Y-127538729D01*
X148036386Y-127640186D01*
X147934929Y-127723448D01*
X147899191Y-127752778D01*
X147742666Y-127836443D01*
X147572827Y-127887963D01*
X147506642Y-127894482D01*
X147440460Y-127901000D01*
X147351940Y-127901000D01*
X147285758Y-127894482D01*
X147219573Y-127887963D01*
X147049734Y-127836443D01*
X146893209Y-127752778D01*
X146857471Y-127723448D01*
X146756014Y-127640186D01*
X146672752Y-127538729D01*
X146643422Y-127502991D01*
X146559757Y-127346466D01*
X146508237Y-127176627D01*
X146490841Y-127000000D01*
X146508237Y-126823373D01*
X146559757Y-126653534D01*
X146643422Y-126497009D01*
X146672752Y-126461271D01*
X146756014Y-126359814D01*
X146857471Y-126276552D01*
X146893209Y-126247222D01*
X147049734Y-126163557D01*
X147219573Y-126112037D01*
X147285757Y-126105519D01*
X147351940Y-126099000D01*
X147440460Y-126099000D01*
X147506643Y-126105519D01*
X147506643Y-126105519D01*
G37*
G36*
X150046643Y-126105519D02*
G01*
X150112827Y-126112037D01*
X150282666Y-126163557D01*
X150439191Y-126247222D01*
X150474929Y-126276552D01*
X150576386Y-126359814D01*
X150659648Y-126461271D01*
X150688978Y-126497009D01*
X150772643Y-126653534D01*
X150824163Y-126823373D01*
X150841559Y-127000000D01*
X150824163Y-127176627D01*
X150772643Y-127346466D01*
X150688978Y-127502991D01*
X150659648Y-127538729D01*
X150576386Y-127640186D01*
X150474929Y-127723448D01*
X150439191Y-127752778D01*
X150282666Y-127836443D01*
X150112827Y-127887963D01*
X150046642Y-127894482D01*
X149980460Y-127901000D01*
X149891940Y-127901000D01*
X149825758Y-127894482D01*
X149759573Y-127887963D01*
X149589734Y-127836443D01*
X149433209Y-127752778D01*
X149397471Y-127723448D01*
X149296014Y-127640186D01*
X149212752Y-127538729D01*
X149183422Y-127502991D01*
X149099757Y-127346466D01*
X149048237Y-127176627D01*
X149030841Y-127000000D01*
X149048237Y-126823373D01*
X149099757Y-126653534D01*
X149183422Y-126497009D01*
X149212752Y-126461271D01*
X149296014Y-126359814D01*
X149397471Y-126276552D01*
X149433209Y-126247222D01*
X149589734Y-126163557D01*
X149759573Y-126112037D01*
X149825757Y-126105519D01*
X149891940Y-126099000D01*
X149980460Y-126099000D01*
X150046643Y-126105519D01*
X150046643Y-126105519D01*
G37*
G36*
X152586643Y-126105519D02*
G01*
X152652827Y-126112037D01*
X152822666Y-126163557D01*
X152979191Y-126247222D01*
X153014929Y-126276552D01*
X153116386Y-126359814D01*
X153199648Y-126461271D01*
X153228978Y-126497009D01*
X153312643Y-126653534D01*
X153364163Y-126823373D01*
X153381559Y-127000000D01*
X153364163Y-127176627D01*
X153312643Y-127346466D01*
X153228978Y-127502991D01*
X153199648Y-127538729D01*
X153116386Y-127640186D01*
X153014929Y-127723448D01*
X152979191Y-127752778D01*
X152822666Y-127836443D01*
X152652827Y-127887963D01*
X152586642Y-127894482D01*
X152520460Y-127901000D01*
X152431940Y-127901000D01*
X152365758Y-127894482D01*
X152299573Y-127887963D01*
X152129734Y-127836443D01*
X151973209Y-127752778D01*
X151937471Y-127723448D01*
X151836014Y-127640186D01*
X151752752Y-127538729D01*
X151723422Y-127502991D01*
X151639757Y-127346466D01*
X151588237Y-127176627D01*
X151570841Y-127000000D01*
X151588237Y-126823373D01*
X151639757Y-126653534D01*
X151723422Y-126497009D01*
X151752752Y-126461271D01*
X151836014Y-126359814D01*
X151937471Y-126276552D01*
X151973209Y-126247222D01*
X152129734Y-126163557D01*
X152299573Y-126112037D01*
X152365757Y-126105519D01*
X152431940Y-126099000D01*
X152520460Y-126099000D01*
X152586643Y-126105519D01*
X152586643Y-126105519D01*
G37*
G36*
X157666643Y-126105519D02*
G01*
X157732827Y-126112037D01*
X157902666Y-126163557D01*
X158059191Y-126247222D01*
X158094929Y-126276552D01*
X158196386Y-126359814D01*
X158279648Y-126461271D01*
X158308978Y-126497009D01*
X158392643Y-126653534D01*
X158444163Y-126823373D01*
X158461559Y-127000000D01*
X158444163Y-127176627D01*
X158392643Y-127346466D01*
X158308978Y-127502991D01*
X158279648Y-127538729D01*
X158196386Y-127640186D01*
X158094929Y-127723448D01*
X158059191Y-127752778D01*
X157902666Y-127836443D01*
X157732827Y-127887963D01*
X157666642Y-127894482D01*
X157600460Y-127901000D01*
X157511940Y-127901000D01*
X157445758Y-127894482D01*
X157379573Y-127887963D01*
X157209734Y-127836443D01*
X157053209Y-127752778D01*
X157017471Y-127723448D01*
X156916014Y-127640186D01*
X156832752Y-127538729D01*
X156803422Y-127502991D01*
X156719757Y-127346466D01*
X156668237Y-127176627D01*
X156650841Y-127000000D01*
X156668237Y-126823373D01*
X156719757Y-126653534D01*
X156803422Y-126497009D01*
X156832752Y-126461271D01*
X156916014Y-126359814D01*
X157017471Y-126276552D01*
X157053209Y-126247222D01*
X157209734Y-126163557D01*
X157379573Y-126112037D01*
X157445757Y-126105519D01*
X157511940Y-126099000D01*
X157600460Y-126099000D01*
X157666643Y-126105519D01*
X157666643Y-126105519D01*
G37*
G36*
X160206643Y-126105519D02*
G01*
X160272827Y-126112037D01*
X160442666Y-126163557D01*
X160599191Y-126247222D01*
X160634929Y-126276552D01*
X160736386Y-126359814D01*
X160819648Y-126461271D01*
X160848978Y-126497009D01*
X160932643Y-126653534D01*
X160984163Y-126823373D01*
X161001559Y-127000000D01*
X160984163Y-127176627D01*
X160932643Y-127346466D01*
X160848978Y-127502991D01*
X160819648Y-127538729D01*
X160736386Y-127640186D01*
X160634929Y-127723448D01*
X160599191Y-127752778D01*
X160442666Y-127836443D01*
X160272827Y-127887963D01*
X160206642Y-127894482D01*
X160140460Y-127901000D01*
X160051940Y-127901000D01*
X159985758Y-127894482D01*
X159919573Y-127887963D01*
X159749734Y-127836443D01*
X159593209Y-127752778D01*
X159557471Y-127723448D01*
X159456014Y-127640186D01*
X159372752Y-127538729D01*
X159343422Y-127502991D01*
X159259757Y-127346466D01*
X159208237Y-127176627D01*
X159190841Y-127000000D01*
X159208237Y-126823373D01*
X159259757Y-126653534D01*
X159343422Y-126497009D01*
X159372752Y-126461271D01*
X159456014Y-126359814D01*
X159557471Y-126276552D01*
X159593209Y-126247222D01*
X159749734Y-126163557D01*
X159919573Y-126112037D01*
X159985757Y-126105519D01*
X160051940Y-126099000D01*
X160140460Y-126099000D01*
X160206643Y-126105519D01*
X160206643Y-126105519D01*
G37*
G36*
X162746643Y-126105519D02*
G01*
X162812827Y-126112037D01*
X162982666Y-126163557D01*
X163139191Y-126247222D01*
X163174929Y-126276552D01*
X163276386Y-126359814D01*
X163359648Y-126461271D01*
X163388978Y-126497009D01*
X163472643Y-126653534D01*
X163524163Y-126823373D01*
X163541559Y-127000000D01*
X163524163Y-127176627D01*
X163472643Y-127346466D01*
X163388978Y-127502991D01*
X163359648Y-127538729D01*
X163276386Y-127640186D01*
X163174929Y-127723448D01*
X163139191Y-127752778D01*
X162982666Y-127836443D01*
X162812827Y-127887963D01*
X162746642Y-127894482D01*
X162680460Y-127901000D01*
X162591940Y-127901000D01*
X162525758Y-127894482D01*
X162459573Y-127887963D01*
X162289734Y-127836443D01*
X162133209Y-127752778D01*
X162097471Y-127723448D01*
X161996014Y-127640186D01*
X161912752Y-127538729D01*
X161883422Y-127502991D01*
X161799757Y-127346466D01*
X161748237Y-127176627D01*
X161730841Y-127000000D01*
X161748237Y-126823373D01*
X161799757Y-126653534D01*
X161883422Y-126497009D01*
X161912752Y-126461271D01*
X161996014Y-126359814D01*
X162097471Y-126276552D01*
X162133209Y-126247222D01*
X162289734Y-126163557D01*
X162459573Y-126112037D01*
X162525757Y-126105519D01*
X162591940Y-126099000D01*
X162680460Y-126099000D01*
X162746643Y-126105519D01*
X162746643Y-126105519D01*
G37*
G36*
X165286643Y-126105519D02*
G01*
X165352827Y-126112037D01*
X165522666Y-126163557D01*
X165679191Y-126247222D01*
X165714929Y-126276552D01*
X165816386Y-126359814D01*
X165899648Y-126461271D01*
X165928978Y-126497009D01*
X166012643Y-126653534D01*
X166064163Y-126823373D01*
X166081559Y-127000000D01*
X166064163Y-127176627D01*
X166012643Y-127346466D01*
X165928978Y-127502991D01*
X165899648Y-127538729D01*
X165816386Y-127640186D01*
X165714929Y-127723448D01*
X165679191Y-127752778D01*
X165522666Y-127836443D01*
X165352827Y-127887963D01*
X165286642Y-127894482D01*
X165220460Y-127901000D01*
X165131940Y-127901000D01*
X165065758Y-127894482D01*
X164999573Y-127887963D01*
X164829734Y-127836443D01*
X164673209Y-127752778D01*
X164637471Y-127723448D01*
X164536014Y-127640186D01*
X164452752Y-127538729D01*
X164423422Y-127502991D01*
X164339757Y-127346466D01*
X164288237Y-127176627D01*
X164270841Y-127000000D01*
X164288237Y-126823373D01*
X164339757Y-126653534D01*
X164423422Y-126497009D01*
X164452752Y-126461271D01*
X164536014Y-126359814D01*
X164637471Y-126276552D01*
X164673209Y-126247222D01*
X164829734Y-126163557D01*
X164999573Y-126112037D01*
X165065757Y-126105519D01*
X165131940Y-126099000D01*
X165220460Y-126099000D01*
X165286643Y-126105519D01*
X165286643Y-126105519D01*
G37*
G36*
X167826643Y-126105519D02*
G01*
X167892827Y-126112037D01*
X168062666Y-126163557D01*
X168219191Y-126247222D01*
X168254929Y-126276552D01*
X168356386Y-126359814D01*
X168439648Y-126461271D01*
X168468978Y-126497009D01*
X168552643Y-126653534D01*
X168604163Y-126823373D01*
X168621559Y-127000000D01*
X168604163Y-127176627D01*
X168552643Y-127346466D01*
X168468978Y-127502991D01*
X168439648Y-127538729D01*
X168356386Y-127640186D01*
X168254929Y-127723448D01*
X168219191Y-127752778D01*
X168062666Y-127836443D01*
X167892827Y-127887963D01*
X167826642Y-127894482D01*
X167760460Y-127901000D01*
X167671940Y-127901000D01*
X167605758Y-127894482D01*
X167539573Y-127887963D01*
X167369734Y-127836443D01*
X167213209Y-127752778D01*
X167177471Y-127723448D01*
X167076014Y-127640186D01*
X166992752Y-127538729D01*
X166963422Y-127502991D01*
X166879757Y-127346466D01*
X166828237Y-127176627D01*
X166810841Y-127000000D01*
X166828237Y-126823373D01*
X166879757Y-126653534D01*
X166963422Y-126497009D01*
X166992752Y-126461271D01*
X167076014Y-126359814D01*
X167177471Y-126276552D01*
X167213209Y-126247222D01*
X167369734Y-126163557D01*
X167539573Y-126112037D01*
X167605757Y-126105519D01*
X167671940Y-126099000D01*
X167760460Y-126099000D01*
X167826643Y-126105519D01*
X167826643Y-126105519D01*
G37*
G36*
X170366643Y-126105519D02*
G01*
X170432827Y-126112037D01*
X170602666Y-126163557D01*
X170759191Y-126247222D01*
X170794929Y-126276552D01*
X170896386Y-126359814D01*
X170979648Y-126461271D01*
X171008978Y-126497009D01*
X171092643Y-126653534D01*
X171144163Y-126823373D01*
X171161559Y-127000000D01*
X171144163Y-127176627D01*
X171092643Y-127346466D01*
X171008978Y-127502991D01*
X170979648Y-127538729D01*
X170896386Y-127640186D01*
X170794929Y-127723448D01*
X170759191Y-127752778D01*
X170602666Y-127836443D01*
X170432827Y-127887963D01*
X170366642Y-127894482D01*
X170300460Y-127901000D01*
X170211940Y-127901000D01*
X170145758Y-127894482D01*
X170079573Y-127887963D01*
X169909734Y-127836443D01*
X169753209Y-127752778D01*
X169717471Y-127723448D01*
X169616014Y-127640186D01*
X169532752Y-127538729D01*
X169503422Y-127502991D01*
X169419757Y-127346466D01*
X169368237Y-127176627D01*
X169350841Y-127000000D01*
X169368237Y-126823373D01*
X169419757Y-126653534D01*
X169503422Y-126497009D01*
X169532752Y-126461271D01*
X169616014Y-126359814D01*
X169717471Y-126276552D01*
X169753209Y-126247222D01*
X169909734Y-126163557D01*
X170079573Y-126112037D01*
X170145757Y-126105519D01*
X170211940Y-126099000D01*
X170300460Y-126099000D01*
X170366643Y-126105519D01*
X170366643Y-126105519D01*
G37*
G36*
X172906643Y-126105519D02*
G01*
X172972827Y-126112037D01*
X173142666Y-126163557D01*
X173299191Y-126247222D01*
X173334929Y-126276552D01*
X173436386Y-126359814D01*
X173519648Y-126461271D01*
X173548978Y-126497009D01*
X173632643Y-126653534D01*
X173684163Y-126823373D01*
X173701559Y-127000000D01*
X173684163Y-127176627D01*
X173632643Y-127346466D01*
X173548978Y-127502991D01*
X173519648Y-127538729D01*
X173436386Y-127640186D01*
X173334929Y-127723448D01*
X173299191Y-127752778D01*
X173142666Y-127836443D01*
X172972827Y-127887963D01*
X172906642Y-127894482D01*
X172840460Y-127901000D01*
X172751940Y-127901000D01*
X172685758Y-127894482D01*
X172619573Y-127887963D01*
X172449734Y-127836443D01*
X172293209Y-127752778D01*
X172257471Y-127723448D01*
X172156014Y-127640186D01*
X172072752Y-127538729D01*
X172043422Y-127502991D01*
X171959757Y-127346466D01*
X171908237Y-127176627D01*
X171890841Y-127000000D01*
X171908237Y-126823373D01*
X171959757Y-126653534D01*
X172043422Y-126497009D01*
X172072752Y-126461271D01*
X172156014Y-126359814D01*
X172257471Y-126276552D01*
X172293209Y-126247222D01*
X172449734Y-126163557D01*
X172619573Y-126112037D01*
X172685757Y-126105519D01*
X172751940Y-126099000D01*
X172840460Y-126099000D01*
X172906643Y-126105519D01*
X172906643Y-126105519D01*
G37*
G36*
X175446643Y-126105519D02*
G01*
X175512827Y-126112037D01*
X175682666Y-126163557D01*
X175839191Y-126247222D01*
X175874929Y-126276552D01*
X175976386Y-126359814D01*
X176059648Y-126461271D01*
X176088978Y-126497009D01*
X176172643Y-126653534D01*
X176224163Y-126823373D01*
X176241559Y-127000000D01*
X176224163Y-127176627D01*
X176172643Y-127346466D01*
X176088978Y-127502991D01*
X176059648Y-127538729D01*
X175976386Y-127640186D01*
X175874929Y-127723448D01*
X175839191Y-127752778D01*
X175682666Y-127836443D01*
X175512827Y-127887963D01*
X175446642Y-127894482D01*
X175380460Y-127901000D01*
X175291940Y-127901000D01*
X175225758Y-127894482D01*
X175159573Y-127887963D01*
X174989734Y-127836443D01*
X174833209Y-127752778D01*
X174797471Y-127723448D01*
X174696014Y-127640186D01*
X174612752Y-127538729D01*
X174583422Y-127502991D01*
X174499757Y-127346466D01*
X174448237Y-127176627D01*
X174430841Y-127000000D01*
X174448237Y-126823373D01*
X174499757Y-126653534D01*
X174583422Y-126497009D01*
X174612752Y-126461271D01*
X174696014Y-126359814D01*
X174797471Y-126276552D01*
X174833209Y-126247222D01*
X174989734Y-126163557D01*
X175159573Y-126112037D01*
X175225757Y-126105519D01*
X175291940Y-126099000D01*
X175380460Y-126099000D01*
X175446643Y-126105519D01*
X175446643Y-126105519D01*
G37*
G36*
X129726643Y-126105519D02*
G01*
X129792827Y-126112037D01*
X129962666Y-126163557D01*
X130119191Y-126247222D01*
X130154929Y-126276552D01*
X130256386Y-126359814D01*
X130339648Y-126461271D01*
X130368978Y-126497009D01*
X130452643Y-126653534D01*
X130504163Y-126823373D01*
X130521559Y-127000000D01*
X130504163Y-127176627D01*
X130452643Y-127346466D01*
X130368978Y-127502991D01*
X130339648Y-127538729D01*
X130256386Y-127640186D01*
X130154929Y-127723448D01*
X130119191Y-127752778D01*
X129962666Y-127836443D01*
X129792827Y-127887963D01*
X129726642Y-127894482D01*
X129660460Y-127901000D01*
X129571940Y-127901000D01*
X129505758Y-127894482D01*
X129439573Y-127887963D01*
X129269734Y-127836443D01*
X129113209Y-127752778D01*
X129077471Y-127723448D01*
X128976014Y-127640186D01*
X128892752Y-127538729D01*
X128863422Y-127502991D01*
X128779757Y-127346466D01*
X128728237Y-127176627D01*
X128710841Y-127000000D01*
X128728237Y-126823373D01*
X128779757Y-126653534D01*
X128863422Y-126497009D01*
X128892752Y-126461271D01*
X128976014Y-126359814D01*
X129077471Y-126276552D01*
X129113209Y-126247222D01*
X129269734Y-126163557D01*
X129439573Y-126112037D01*
X129505757Y-126105519D01*
X129571940Y-126099000D01*
X129660460Y-126099000D01*
X129726643Y-126105519D01*
X129726643Y-126105519D01*
G37*
G36*
X120448020Y-127645520D02*
G01*
X118846020Y-127645520D01*
X118846020Y-126293520D01*
X120448020Y-126293520D01*
X120448020Y-127645520D01*
X120448020Y-127645520D01*
G37*
G36*
X117948020Y-127645520D02*
G01*
X116346020Y-127645520D01*
X116346020Y-126293520D01*
X117948020Y-126293520D01*
X117948020Y-127645520D01*
X117948020Y-127645520D01*
G37*
G36*
X152586642Y-123565518D02*
G01*
X152652827Y-123572037D01*
X152822666Y-123623557D01*
X152979191Y-123707222D01*
X153014929Y-123736552D01*
X153116386Y-123819814D01*
X153199648Y-123921271D01*
X153228978Y-123957009D01*
X153312643Y-124113534D01*
X153364163Y-124283373D01*
X153381559Y-124460000D01*
X153364163Y-124636627D01*
X153312643Y-124806466D01*
X153228978Y-124962991D01*
X153199648Y-124998729D01*
X153116386Y-125100186D01*
X153014929Y-125183448D01*
X152979191Y-125212778D01*
X152822666Y-125296443D01*
X152652827Y-125347963D01*
X152586642Y-125354482D01*
X152520460Y-125361000D01*
X152431940Y-125361000D01*
X152365758Y-125354482D01*
X152299573Y-125347963D01*
X152129734Y-125296443D01*
X151973209Y-125212778D01*
X151937471Y-125183448D01*
X151836014Y-125100186D01*
X151752752Y-124998729D01*
X151723422Y-124962991D01*
X151639757Y-124806466D01*
X151588237Y-124636627D01*
X151570841Y-124460000D01*
X151588237Y-124283373D01*
X151639757Y-124113534D01*
X151723422Y-123957009D01*
X151752752Y-123921271D01*
X151836014Y-123819814D01*
X151937471Y-123736552D01*
X151973209Y-123707222D01*
X152129734Y-123623557D01*
X152299573Y-123572037D01*
X152365758Y-123565518D01*
X152431940Y-123559000D01*
X152520460Y-123559000D01*
X152586642Y-123565518D01*
X152586642Y-123565518D01*
G37*
G36*
X157666642Y-123565518D02*
G01*
X157732827Y-123572037D01*
X157902666Y-123623557D01*
X158059191Y-123707222D01*
X158094929Y-123736552D01*
X158196386Y-123819814D01*
X158279648Y-123921271D01*
X158308978Y-123957009D01*
X158392643Y-124113534D01*
X158444163Y-124283373D01*
X158461559Y-124460000D01*
X158444163Y-124636627D01*
X158392643Y-124806466D01*
X158308978Y-124962991D01*
X158279648Y-124998729D01*
X158196386Y-125100186D01*
X158094929Y-125183448D01*
X158059191Y-125212778D01*
X157902666Y-125296443D01*
X157732827Y-125347963D01*
X157666642Y-125354482D01*
X157600460Y-125361000D01*
X157511940Y-125361000D01*
X157445758Y-125354482D01*
X157379573Y-125347963D01*
X157209734Y-125296443D01*
X157053209Y-125212778D01*
X157017471Y-125183448D01*
X156916014Y-125100186D01*
X156832752Y-124998729D01*
X156803422Y-124962991D01*
X156719757Y-124806466D01*
X156668237Y-124636627D01*
X156650841Y-124460000D01*
X156668237Y-124283373D01*
X156719757Y-124113534D01*
X156803422Y-123957009D01*
X156832752Y-123921271D01*
X156916014Y-123819814D01*
X157017471Y-123736552D01*
X157053209Y-123707222D01*
X157209734Y-123623557D01*
X157379573Y-123572037D01*
X157445758Y-123565518D01*
X157511940Y-123559000D01*
X157600460Y-123559000D01*
X157666642Y-123565518D01*
X157666642Y-123565518D01*
G37*
G36*
X150046642Y-123565518D02*
G01*
X150112827Y-123572037D01*
X150282666Y-123623557D01*
X150439191Y-123707222D01*
X150474929Y-123736552D01*
X150576386Y-123819814D01*
X150659648Y-123921271D01*
X150688978Y-123957009D01*
X150772643Y-124113534D01*
X150824163Y-124283373D01*
X150841559Y-124460000D01*
X150824163Y-124636627D01*
X150772643Y-124806466D01*
X150688978Y-124962991D01*
X150659648Y-124998729D01*
X150576386Y-125100186D01*
X150474929Y-125183448D01*
X150439191Y-125212778D01*
X150282666Y-125296443D01*
X150112827Y-125347963D01*
X150046642Y-125354482D01*
X149980460Y-125361000D01*
X149891940Y-125361000D01*
X149825758Y-125354482D01*
X149759573Y-125347963D01*
X149589734Y-125296443D01*
X149433209Y-125212778D01*
X149397471Y-125183448D01*
X149296014Y-125100186D01*
X149212752Y-124998729D01*
X149183422Y-124962991D01*
X149099757Y-124806466D01*
X149048237Y-124636627D01*
X149030841Y-124460000D01*
X149048237Y-124283373D01*
X149099757Y-124113534D01*
X149183422Y-123957009D01*
X149212752Y-123921271D01*
X149296014Y-123819814D01*
X149397471Y-123736552D01*
X149433209Y-123707222D01*
X149589734Y-123623557D01*
X149759573Y-123572037D01*
X149825758Y-123565518D01*
X149891940Y-123559000D01*
X149980460Y-123559000D01*
X150046642Y-123565518D01*
X150046642Y-123565518D01*
G37*
G36*
X160206642Y-123565518D02*
G01*
X160272827Y-123572037D01*
X160442666Y-123623557D01*
X160599191Y-123707222D01*
X160634929Y-123736552D01*
X160736386Y-123819814D01*
X160819648Y-123921271D01*
X160848978Y-123957009D01*
X160932643Y-124113534D01*
X160984163Y-124283373D01*
X161001559Y-124460000D01*
X160984163Y-124636627D01*
X160932643Y-124806466D01*
X160848978Y-124962991D01*
X160819648Y-124998729D01*
X160736386Y-125100186D01*
X160634929Y-125183448D01*
X160599191Y-125212778D01*
X160442666Y-125296443D01*
X160272827Y-125347963D01*
X160206642Y-125354482D01*
X160140460Y-125361000D01*
X160051940Y-125361000D01*
X159985758Y-125354482D01*
X159919573Y-125347963D01*
X159749734Y-125296443D01*
X159593209Y-125212778D01*
X159557471Y-125183448D01*
X159456014Y-125100186D01*
X159372752Y-124998729D01*
X159343422Y-124962991D01*
X159259757Y-124806466D01*
X159208237Y-124636627D01*
X159190841Y-124460000D01*
X159208237Y-124283373D01*
X159259757Y-124113534D01*
X159343422Y-123957009D01*
X159372752Y-123921271D01*
X159456014Y-123819814D01*
X159557471Y-123736552D01*
X159593209Y-123707222D01*
X159749734Y-123623557D01*
X159919573Y-123572037D01*
X159985758Y-123565518D01*
X160051940Y-123559000D01*
X160140460Y-123559000D01*
X160206642Y-123565518D01*
X160206642Y-123565518D01*
G37*
G36*
X147506642Y-123565518D02*
G01*
X147572827Y-123572037D01*
X147742666Y-123623557D01*
X147899191Y-123707222D01*
X147934929Y-123736552D01*
X148036386Y-123819814D01*
X148119648Y-123921271D01*
X148148978Y-123957009D01*
X148232643Y-124113534D01*
X148284163Y-124283373D01*
X148301559Y-124460000D01*
X148284163Y-124636627D01*
X148232643Y-124806466D01*
X148148978Y-124962991D01*
X148119648Y-124998729D01*
X148036386Y-125100186D01*
X147934929Y-125183448D01*
X147899191Y-125212778D01*
X147742666Y-125296443D01*
X147572827Y-125347963D01*
X147506642Y-125354482D01*
X147440460Y-125361000D01*
X147351940Y-125361000D01*
X147285758Y-125354482D01*
X147219573Y-125347963D01*
X147049734Y-125296443D01*
X146893209Y-125212778D01*
X146857471Y-125183448D01*
X146756014Y-125100186D01*
X146672752Y-124998729D01*
X146643422Y-124962991D01*
X146559757Y-124806466D01*
X146508237Y-124636627D01*
X146490841Y-124460000D01*
X146508237Y-124283373D01*
X146559757Y-124113534D01*
X146643422Y-123957009D01*
X146672752Y-123921271D01*
X146756014Y-123819814D01*
X146857471Y-123736552D01*
X146893209Y-123707222D01*
X147049734Y-123623557D01*
X147219573Y-123572037D01*
X147285758Y-123565518D01*
X147351940Y-123559000D01*
X147440460Y-123559000D01*
X147506642Y-123565518D01*
X147506642Y-123565518D01*
G37*
G36*
X162746642Y-123565518D02*
G01*
X162812827Y-123572037D01*
X162982666Y-123623557D01*
X163139191Y-123707222D01*
X163174929Y-123736552D01*
X163276386Y-123819814D01*
X163359648Y-123921271D01*
X163388978Y-123957009D01*
X163472643Y-124113534D01*
X163524163Y-124283373D01*
X163541559Y-124460000D01*
X163524163Y-124636627D01*
X163472643Y-124806466D01*
X163388978Y-124962991D01*
X163359648Y-124998729D01*
X163276386Y-125100186D01*
X163174929Y-125183448D01*
X163139191Y-125212778D01*
X162982666Y-125296443D01*
X162812827Y-125347963D01*
X162746642Y-125354482D01*
X162680460Y-125361000D01*
X162591940Y-125361000D01*
X162525758Y-125354482D01*
X162459573Y-125347963D01*
X162289734Y-125296443D01*
X162133209Y-125212778D01*
X162097471Y-125183448D01*
X161996014Y-125100186D01*
X161912752Y-124998729D01*
X161883422Y-124962991D01*
X161799757Y-124806466D01*
X161748237Y-124636627D01*
X161730841Y-124460000D01*
X161748237Y-124283373D01*
X161799757Y-124113534D01*
X161883422Y-123957009D01*
X161912752Y-123921271D01*
X161996014Y-123819814D01*
X162097471Y-123736552D01*
X162133209Y-123707222D01*
X162289734Y-123623557D01*
X162459573Y-123572037D01*
X162525758Y-123565518D01*
X162591940Y-123559000D01*
X162680460Y-123559000D01*
X162746642Y-123565518D01*
X162746642Y-123565518D01*
G37*
G36*
X144966642Y-123565518D02*
G01*
X145032827Y-123572037D01*
X145202666Y-123623557D01*
X145359191Y-123707222D01*
X145394929Y-123736552D01*
X145496386Y-123819814D01*
X145579648Y-123921271D01*
X145608978Y-123957009D01*
X145692643Y-124113534D01*
X145744163Y-124283373D01*
X145761559Y-124460000D01*
X145744163Y-124636627D01*
X145692643Y-124806466D01*
X145608978Y-124962991D01*
X145579648Y-124998729D01*
X145496386Y-125100186D01*
X145394929Y-125183448D01*
X145359191Y-125212778D01*
X145202666Y-125296443D01*
X145032827Y-125347963D01*
X144966642Y-125354482D01*
X144900460Y-125361000D01*
X144811940Y-125361000D01*
X144745758Y-125354482D01*
X144679573Y-125347963D01*
X144509734Y-125296443D01*
X144353209Y-125212778D01*
X144317471Y-125183448D01*
X144216014Y-125100186D01*
X144132752Y-124998729D01*
X144103422Y-124962991D01*
X144019757Y-124806466D01*
X143968237Y-124636627D01*
X143950841Y-124460000D01*
X143968237Y-124283373D01*
X144019757Y-124113534D01*
X144103422Y-123957009D01*
X144132752Y-123921271D01*
X144216014Y-123819814D01*
X144317471Y-123736552D01*
X144353209Y-123707222D01*
X144509734Y-123623557D01*
X144679573Y-123572037D01*
X144745758Y-123565518D01*
X144811940Y-123559000D01*
X144900460Y-123559000D01*
X144966642Y-123565518D01*
X144966642Y-123565518D01*
G37*
G36*
X165286642Y-123565518D02*
G01*
X165352827Y-123572037D01*
X165522666Y-123623557D01*
X165679191Y-123707222D01*
X165714929Y-123736552D01*
X165816386Y-123819814D01*
X165899648Y-123921271D01*
X165928978Y-123957009D01*
X166012643Y-124113534D01*
X166064163Y-124283373D01*
X166081559Y-124460000D01*
X166064163Y-124636627D01*
X166012643Y-124806466D01*
X165928978Y-124962991D01*
X165899648Y-124998729D01*
X165816386Y-125100186D01*
X165714929Y-125183448D01*
X165679191Y-125212778D01*
X165522666Y-125296443D01*
X165352827Y-125347963D01*
X165286642Y-125354482D01*
X165220460Y-125361000D01*
X165131940Y-125361000D01*
X165065758Y-125354482D01*
X164999573Y-125347963D01*
X164829734Y-125296443D01*
X164673209Y-125212778D01*
X164637471Y-125183448D01*
X164536014Y-125100186D01*
X164452752Y-124998729D01*
X164423422Y-124962991D01*
X164339757Y-124806466D01*
X164288237Y-124636627D01*
X164270841Y-124460000D01*
X164288237Y-124283373D01*
X164339757Y-124113534D01*
X164423422Y-123957009D01*
X164452752Y-123921271D01*
X164536014Y-123819814D01*
X164637471Y-123736552D01*
X164673209Y-123707222D01*
X164829734Y-123623557D01*
X164999573Y-123572037D01*
X165065758Y-123565518D01*
X165131940Y-123559000D01*
X165220460Y-123559000D01*
X165286642Y-123565518D01*
X165286642Y-123565518D01*
G37*
G36*
X142426642Y-123565518D02*
G01*
X142492827Y-123572037D01*
X142662666Y-123623557D01*
X142819191Y-123707222D01*
X142854929Y-123736552D01*
X142956386Y-123819814D01*
X143039648Y-123921271D01*
X143068978Y-123957009D01*
X143152643Y-124113534D01*
X143204163Y-124283373D01*
X143221559Y-124460000D01*
X143204163Y-124636627D01*
X143152643Y-124806466D01*
X143068978Y-124962991D01*
X143039648Y-124998729D01*
X142956386Y-125100186D01*
X142854929Y-125183448D01*
X142819191Y-125212778D01*
X142662666Y-125296443D01*
X142492827Y-125347963D01*
X142426642Y-125354482D01*
X142360460Y-125361000D01*
X142271940Y-125361000D01*
X142205758Y-125354482D01*
X142139573Y-125347963D01*
X141969734Y-125296443D01*
X141813209Y-125212778D01*
X141777471Y-125183448D01*
X141676014Y-125100186D01*
X141592752Y-124998729D01*
X141563422Y-124962991D01*
X141479757Y-124806466D01*
X141428237Y-124636627D01*
X141410841Y-124460000D01*
X141428237Y-124283373D01*
X141479757Y-124113534D01*
X141563422Y-123957009D01*
X141592752Y-123921271D01*
X141676014Y-123819814D01*
X141777471Y-123736552D01*
X141813209Y-123707222D01*
X141969734Y-123623557D01*
X142139573Y-123572037D01*
X142205758Y-123565518D01*
X142271940Y-123559000D01*
X142360460Y-123559000D01*
X142426642Y-123565518D01*
X142426642Y-123565518D01*
G37*
G36*
X155126642Y-123565518D02*
G01*
X155192827Y-123572037D01*
X155362666Y-123623557D01*
X155519191Y-123707222D01*
X155554929Y-123736552D01*
X155656386Y-123819814D01*
X155739648Y-123921271D01*
X155768978Y-123957009D01*
X155852643Y-124113534D01*
X155904163Y-124283373D01*
X155921559Y-124460000D01*
X155904163Y-124636627D01*
X155852643Y-124806466D01*
X155768978Y-124962991D01*
X155739648Y-124998729D01*
X155656386Y-125100186D01*
X155554929Y-125183448D01*
X155519191Y-125212778D01*
X155362666Y-125296443D01*
X155192827Y-125347963D01*
X155126642Y-125354482D01*
X155060460Y-125361000D01*
X154971940Y-125361000D01*
X154905758Y-125354482D01*
X154839573Y-125347963D01*
X154669734Y-125296443D01*
X154513209Y-125212778D01*
X154477471Y-125183448D01*
X154376014Y-125100186D01*
X154292752Y-124998729D01*
X154263422Y-124962991D01*
X154179757Y-124806466D01*
X154128237Y-124636627D01*
X154110841Y-124460000D01*
X154128237Y-124283373D01*
X154179757Y-124113534D01*
X154263422Y-123957009D01*
X154292752Y-123921271D01*
X154376014Y-123819814D01*
X154477471Y-123736552D01*
X154513209Y-123707222D01*
X154669734Y-123623557D01*
X154839573Y-123572037D01*
X154905758Y-123565518D01*
X154971940Y-123559000D01*
X155060460Y-123559000D01*
X155126642Y-123565518D01*
X155126642Y-123565518D01*
G37*
G36*
X167826642Y-123565518D02*
G01*
X167892827Y-123572037D01*
X168062666Y-123623557D01*
X168219191Y-123707222D01*
X168254929Y-123736552D01*
X168356386Y-123819814D01*
X168439648Y-123921271D01*
X168468978Y-123957009D01*
X168552643Y-124113534D01*
X168604163Y-124283373D01*
X168621559Y-124460000D01*
X168604163Y-124636627D01*
X168552643Y-124806466D01*
X168468978Y-124962991D01*
X168439648Y-124998729D01*
X168356386Y-125100186D01*
X168254929Y-125183448D01*
X168219191Y-125212778D01*
X168062666Y-125296443D01*
X167892827Y-125347963D01*
X167826642Y-125354482D01*
X167760460Y-125361000D01*
X167671940Y-125361000D01*
X167605758Y-125354482D01*
X167539573Y-125347963D01*
X167369734Y-125296443D01*
X167213209Y-125212778D01*
X167177471Y-125183448D01*
X167076014Y-125100186D01*
X166992752Y-124998729D01*
X166963422Y-124962991D01*
X166879757Y-124806466D01*
X166828237Y-124636627D01*
X166810841Y-124460000D01*
X166828237Y-124283373D01*
X166879757Y-124113534D01*
X166963422Y-123957009D01*
X166992752Y-123921271D01*
X167076014Y-123819814D01*
X167177471Y-123736552D01*
X167213209Y-123707222D01*
X167369734Y-123623557D01*
X167539573Y-123572037D01*
X167605758Y-123565518D01*
X167671940Y-123559000D01*
X167760460Y-123559000D01*
X167826642Y-123565518D01*
X167826642Y-123565518D01*
G37*
G36*
X139886642Y-123565518D02*
G01*
X139952827Y-123572037D01*
X140122666Y-123623557D01*
X140279191Y-123707222D01*
X140314929Y-123736552D01*
X140416386Y-123819814D01*
X140499648Y-123921271D01*
X140528978Y-123957009D01*
X140612643Y-124113534D01*
X140664163Y-124283373D01*
X140681559Y-124460000D01*
X140664163Y-124636627D01*
X140612643Y-124806466D01*
X140528978Y-124962991D01*
X140499648Y-124998729D01*
X140416386Y-125100186D01*
X140314929Y-125183448D01*
X140279191Y-125212778D01*
X140122666Y-125296443D01*
X139952827Y-125347963D01*
X139886642Y-125354482D01*
X139820460Y-125361000D01*
X139731940Y-125361000D01*
X139665758Y-125354482D01*
X139599573Y-125347963D01*
X139429734Y-125296443D01*
X139273209Y-125212778D01*
X139237471Y-125183448D01*
X139136014Y-125100186D01*
X139052752Y-124998729D01*
X139023422Y-124962991D01*
X138939757Y-124806466D01*
X138888237Y-124636627D01*
X138870841Y-124460000D01*
X138888237Y-124283373D01*
X138939757Y-124113534D01*
X139023422Y-123957009D01*
X139052752Y-123921271D01*
X139136014Y-123819814D01*
X139237471Y-123736552D01*
X139273209Y-123707222D01*
X139429734Y-123623557D01*
X139599573Y-123572037D01*
X139665758Y-123565518D01*
X139731940Y-123559000D01*
X139820460Y-123559000D01*
X139886642Y-123565518D01*
X139886642Y-123565518D01*
G37*
G36*
X172906642Y-123565518D02*
G01*
X172972827Y-123572037D01*
X173142666Y-123623557D01*
X173299191Y-123707222D01*
X173334929Y-123736552D01*
X173436386Y-123819814D01*
X173519648Y-123921271D01*
X173548978Y-123957009D01*
X173632643Y-124113534D01*
X173684163Y-124283373D01*
X173701559Y-124460000D01*
X173684163Y-124636627D01*
X173632643Y-124806466D01*
X173548978Y-124962991D01*
X173519648Y-124998729D01*
X173436386Y-125100186D01*
X173334929Y-125183448D01*
X173299191Y-125212778D01*
X173142666Y-125296443D01*
X172972827Y-125347963D01*
X172906642Y-125354482D01*
X172840460Y-125361000D01*
X172751940Y-125361000D01*
X172685758Y-125354482D01*
X172619573Y-125347963D01*
X172449734Y-125296443D01*
X172293209Y-125212778D01*
X172257471Y-125183448D01*
X172156014Y-125100186D01*
X172072752Y-124998729D01*
X172043422Y-124962991D01*
X171959757Y-124806466D01*
X171908237Y-124636627D01*
X171890841Y-124460000D01*
X171908237Y-124283373D01*
X171959757Y-124113534D01*
X172043422Y-123957009D01*
X172072752Y-123921271D01*
X172156014Y-123819814D01*
X172257471Y-123736552D01*
X172293209Y-123707222D01*
X172449734Y-123623557D01*
X172619573Y-123572037D01*
X172685758Y-123565518D01*
X172751940Y-123559000D01*
X172840460Y-123559000D01*
X172906642Y-123565518D01*
X172906642Y-123565518D01*
G37*
G36*
X127186642Y-123565518D02*
G01*
X127252827Y-123572037D01*
X127422666Y-123623557D01*
X127579191Y-123707222D01*
X127614929Y-123736552D01*
X127716386Y-123819814D01*
X127799648Y-123921271D01*
X127828978Y-123957009D01*
X127912643Y-124113534D01*
X127964163Y-124283373D01*
X127981559Y-124460000D01*
X127964163Y-124636627D01*
X127912643Y-124806466D01*
X127828978Y-124962991D01*
X127799648Y-124998729D01*
X127716386Y-125100186D01*
X127614929Y-125183448D01*
X127579191Y-125212778D01*
X127422666Y-125296443D01*
X127252827Y-125347963D01*
X127186642Y-125354482D01*
X127120460Y-125361000D01*
X127031940Y-125361000D01*
X126965758Y-125354482D01*
X126899573Y-125347963D01*
X126729734Y-125296443D01*
X126573209Y-125212778D01*
X126537471Y-125183448D01*
X126436014Y-125100186D01*
X126352752Y-124998729D01*
X126323422Y-124962991D01*
X126239757Y-124806466D01*
X126188237Y-124636627D01*
X126170841Y-124460000D01*
X126188237Y-124283373D01*
X126239757Y-124113534D01*
X126323422Y-123957009D01*
X126352752Y-123921271D01*
X126436014Y-123819814D01*
X126537471Y-123736552D01*
X126573209Y-123707222D01*
X126729734Y-123623557D01*
X126899573Y-123572037D01*
X126965758Y-123565518D01*
X127031940Y-123559000D01*
X127120460Y-123559000D01*
X127186642Y-123565518D01*
X127186642Y-123565518D01*
G37*
G36*
X129726642Y-123565518D02*
G01*
X129792827Y-123572037D01*
X129962666Y-123623557D01*
X130119191Y-123707222D01*
X130154929Y-123736552D01*
X130256386Y-123819814D01*
X130339648Y-123921271D01*
X130368978Y-123957009D01*
X130452643Y-124113534D01*
X130504163Y-124283373D01*
X130521559Y-124460000D01*
X130504163Y-124636627D01*
X130452643Y-124806466D01*
X130368978Y-124962991D01*
X130339648Y-124998729D01*
X130256386Y-125100186D01*
X130154929Y-125183448D01*
X130119191Y-125212778D01*
X129962666Y-125296443D01*
X129792827Y-125347963D01*
X129726642Y-125354482D01*
X129660460Y-125361000D01*
X129571940Y-125361000D01*
X129505758Y-125354482D01*
X129439573Y-125347963D01*
X129269734Y-125296443D01*
X129113209Y-125212778D01*
X129077471Y-125183448D01*
X128976014Y-125100186D01*
X128892752Y-124998729D01*
X128863422Y-124962991D01*
X128779757Y-124806466D01*
X128728237Y-124636627D01*
X128710841Y-124460000D01*
X128728237Y-124283373D01*
X128779757Y-124113534D01*
X128863422Y-123957009D01*
X128892752Y-123921271D01*
X128976014Y-123819814D01*
X129077471Y-123736552D01*
X129113209Y-123707222D01*
X129269734Y-123623557D01*
X129439573Y-123572037D01*
X129505758Y-123565518D01*
X129571940Y-123559000D01*
X129660460Y-123559000D01*
X129726642Y-123565518D01*
X129726642Y-123565518D01*
G37*
G36*
X132266642Y-123565518D02*
G01*
X132332827Y-123572037D01*
X132502666Y-123623557D01*
X132659191Y-123707222D01*
X132694929Y-123736552D01*
X132796386Y-123819814D01*
X132879648Y-123921271D01*
X132908978Y-123957009D01*
X132992643Y-124113534D01*
X133044163Y-124283373D01*
X133061559Y-124460000D01*
X133044163Y-124636627D01*
X132992643Y-124806466D01*
X132908978Y-124962991D01*
X132879648Y-124998729D01*
X132796386Y-125100186D01*
X132694929Y-125183448D01*
X132659191Y-125212778D01*
X132502666Y-125296443D01*
X132332827Y-125347963D01*
X132266642Y-125354482D01*
X132200460Y-125361000D01*
X132111940Y-125361000D01*
X132045758Y-125354482D01*
X131979573Y-125347963D01*
X131809734Y-125296443D01*
X131653209Y-125212778D01*
X131617471Y-125183448D01*
X131516014Y-125100186D01*
X131432752Y-124998729D01*
X131403422Y-124962991D01*
X131319757Y-124806466D01*
X131268237Y-124636627D01*
X131250841Y-124460000D01*
X131268237Y-124283373D01*
X131319757Y-124113534D01*
X131403422Y-123957009D01*
X131432752Y-123921271D01*
X131516014Y-123819814D01*
X131617471Y-123736552D01*
X131653209Y-123707222D01*
X131809734Y-123623557D01*
X131979573Y-123572037D01*
X132045758Y-123565518D01*
X132111940Y-123559000D01*
X132200460Y-123559000D01*
X132266642Y-123565518D01*
X132266642Y-123565518D01*
G37*
G36*
X175446642Y-123565518D02*
G01*
X175512827Y-123572037D01*
X175682666Y-123623557D01*
X175839191Y-123707222D01*
X175874929Y-123736552D01*
X175976386Y-123819814D01*
X176059648Y-123921271D01*
X176088978Y-123957009D01*
X176172643Y-124113534D01*
X176224163Y-124283373D01*
X176241559Y-124460000D01*
X176224163Y-124636627D01*
X176172643Y-124806466D01*
X176088978Y-124962991D01*
X176059648Y-124998729D01*
X175976386Y-125100186D01*
X175874929Y-125183448D01*
X175839191Y-125212778D01*
X175682666Y-125296443D01*
X175512827Y-125347963D01*
X175446642Y-125354482D01*
X175380460Y-125361000D01*
X175291940Y-125361000D01*
X175225758Y-125354482D01*
X175159573Y-125347963D01*
X174989734Y-125296443D01*
X174833209Y-125212778D01*
X174797471Y-125183448D01*
X174696014Y-125100186D01*
X174612752Y-124998729D01*
X174583422Y-124962991D01*
X174499757Y-124806466D01*
X174448237Y-124636627D01*
X174430841Y-124460000D01*
X174448237Y-124283373D01*
X174499757Y-124113534D01*
X174583422Y-123957009D01*
X174612752Y-123921271D01*
X174696014Y-123819814D01*
X174797471Y-123736552D01*
X174833209Y-123707222D01*
X174989734Y-123623557D01*
X175159573Y-123572037D01*
X175225758Y-123565518D01*
X175291940Y-123559000D01*
X175380460Y-123559000D01*
X175446642Y-123565518D01*
X175446642Y-123565518D01*
G37*
G36*
X134806642Y-123565518D02*
G01*
X134872827Y-123572037D01*
X135042666Y-123623557D01*
X135199191Y-123707222D01*
X135234929Y-123736552D01*
X135336386Y-123819814D01*
X135419648Y-123921271D01*
X135448978Y-123957009D01*
X135532643Y-124113534D01*
X135584163Y-124283373D01*
X135601559Y-124460000D01*
X135584163Y-124636627D01*
X135532643Y-124806466D01*
X135448978Y-124962991D01*
X135419648Y-124998729D01*
X135336386Y-125100186D01*
X135234929Y-125183448D01*
X135199191Y-125212778D01*
X135042666Y-125296443D01*
X134872827Y-125347963D01*
X134806642Y-125354482D01*
X134740460Y-125361000D01*
X134651940Y-125361000D01*
X134585758Y-125354482D01*
X134519573Y-125347963D01*
X134349734Y-125296443D01*
X134193209Y-125212778D01*
X134157471Y-125183448D01*
X134056014Y-125100186D01*
X133972752Y-124998729D01*
X133943422Y-124962991D01*
X133859757Y-124806466D01*
X133808237Y-124636627D01*
X133790841Y-124460000D01*
X133808237Y-124283373D01*
X133859757Y-124113534D01*
X133943422Y-123957009D01*
X133972752Y-123921271D01*
X134056014Y-123819814D01*
X134157471Y-123736552D01*
X134193209Y-123707222D01*
X134349734Y-123623557D01*
X134519573Y-123572037D01*
X134585758Y-123565518D01*
X134651940Y-123559000D01*
X134740460Y-123559000D01*
X134806642Y-123565518D01*
X134806642Y-123565518D01*
G37*
G36*
X137346642Y-123565518D02*
G01*
X137412827Y-123572037D01*
X137582666Y-123623557D01*
X137739191Y-123707222D01*
X137774929Y-123736552D01*
X137876386Y-123819814D01*
X137959648Y-123921271D01*
X137988978Y-123957009D01*
X138072643Y-124113534D01*
X138124163Y-124283373D01*
X138141559Y-124460000D01*
X138124163Y-124636627D01*
X138072643Y-124806466D01*
X137988978Y-124962991D01*
X137959648Y-124998729D01*
X137876386Y-125100186D01*
X137774929Y-125183448D01*
X137739191Y-125212778D01*
X137582666Y-125296443D01*
X137412827Y-125347963D01*
X137346642Y-125354482D01*
X137280460Y-125361000D01*
X137191940Y-125361000D01*
X137125758Y-125354482D01*
X137059573Y-125347963D01*
X136889734Y-125296443D01*
X136733209Y-125212778D01*
X136697471Y-125183448D01*
X136596014Y-125100186D01*
X136512752Y-124998729D01*
X136483422Y-124962991D01*
X136399757Y-124806466D01*
X136348237Y-124636627D01*
X136330841Y-124460000D01*
X136348237Y-124283373D01*
X136399757Y-124113534D01*
X136483422Y-123957009D01*
X136512752Y-123921271D01*
X136596014Y-123819814D01*
X136697471Y-123736552D01*
X136733209Y-123707222D01*
X136889734Y-123623557D01*
X137059573Y-123572037D01*
X137125758Y-123565518D01*
X137191940Y-123559000D01*
X137280460Y-123559000D01*
X137346642Y-123565518D01*
X137346642Y-123565518D01*
G37*
G36*
X170366642Y-123565518D02*
G01*
X170432827Y-123572037D01*
X170602666Y-123623557D01*
X170759191Y-123707222D01*
X170794929Y-123736552D01*
X170896386Y-123819814D01*
X170979648Y-123921271D01*
X171008978Y-123957009D01*
X171092643Y-124113534D01*
X171144163Y-124283373D01*
X171161559Y-124460000D01*
X171144163Y-124636627D01*
X171092643Y-124806466D01*
X171008978Y-124962991D01*
X170979648Y-124998729D01*
X170896386Y-125100186D01*
X170794929Y-125183448D01*
X170759191Y-125212778D01*
X170602666Y-125296443D01*
X170432827Y-125347963D01*
X170366642Y-125354482D01*
X170300460Y-125361000D01*
X170211940Y-125361000D01*
X170145758Y-125354482D01*
X170079573Y-125347963D01*
X169909734Y-125296443D01*
X169753209Y-125212778D01*
X169717471Y-125183448D01*
X169616014Y-125100186D01*
X169532752Y-124998729D01*
X169503422Y-124962991D01*
X169419757Y-124806466D01*
X169368237Y-124636627D01*
X169350841Y-124460000D01*
X169368237Y-124283373D01*
X169419757Y-124113534D01*
X169503422Y-123957009D01*
X169532752Y-123921271D01*
X169616014Y-123819814D01*
X169717471Y-123736552D01*
X169753209Y-123707222D01*
X169909734Y-123623557D01*
X170079573Y-123572037D01*
X170145758Y-123565518D01*
X170211940Y-123559000D01*
X170300460Y-123559000D01*
X170366642Y-123565518D01*
X170366642Y-123565518D01*
G37*
G36*
X111695800Y-122297200D02*
G01*
X110993800Y-122297200D01*
X110993800Y-121695200D01*
X111695800Y-121695200D01*
X111695800Y-122297200D01*
X111695800Y-122297200D01*
G37*
G36*
X110595800Y-122297200D02*
G01*
X109893800Y-122297200D01*
X109893800Y-121695200D01*
X110595800Y-121695200D01*
X110595800Y-122297200D01*
X110595800Y-122297200D01*
G37*
G36*
X105970564Y-118623389D02*
G01*
X106161833Y-118702615D01*
X106161835Y-118702616D01*
X106333973Y-118817635D01*
X106480365Y-118964027D01*
X106595385Y-119136167D01*
X106674611Y-119327436D01*
X106715000Y-119530484D01*
X106715000Y-119737516D01*
X106674611Y-119940564D01*
X106595385Y-120131833D01*
X106595384Y-120131835D01*
X106480365Y-120303973D01*
X106333973Y-120450365D01*
X106161835Y-120565384D01*
X106161834Y-120565385D01*
X106161833Y-120565385D01*
X105970564Y-120644611D01*
X105767516Y-120685000D01*
X105560484Y-120685000D01*
X105357436Y-120644611D01*
X105166167Y-120565385D01*
X105166166Y-120565385D01*
X105166165Y-120565384D01*
X104994027Y-120450365D01*
X104847635Y-120303973D01*
X104732616Y-120131835D01*
X104732615Y-120131833D01*
X104653389Y-119940564D01*
X104613000Y-119737516D01*
X104613000Y-119530484D01*
X104653389Y-119327436D01*
X104732615Y-119136167D01*
X104847635Y-118964027D01*
X104994027Y-118817635D01*
X105166165Y-118702616D01*
X105166167Y-118702615D01*
X105357436Y-118623389D01*
X105560484Y-118583000D01*
X105767516Y-118583000D01*
X105970564Y-118623389D01*
X105970564Y-118623389D01*
G37*
G36*
X110470564Y-118623389D02*
G01*
X110661833Y-118702615D01*
X110661835Y-118702616D01*
X110833973Y-118817635D01*
X110980365Y-118964027D01*
X111095385Y-119136167D01*
X111174611Y-119327436D01*
X111215000Y-119530484D01*
X111215000Y-119737516D01*
X111174611Y-119940564D01*
X111095385Y-120131833D01*
X111095384Y-120131835D01*
X110980365Y-120303973D01*
X110833973Y-120450365D01*
X110661835Y-120565384D01*
X110661834Y-120565385D01*
X110661833Y-120565385D01*
X110470564Y-120644611D01*
X110267516Y-120685000D01*
X110060484Y-120685000D01*
X109857436Y-120644611D01*
X109666167Y-120565385D01*
X109666166Y-120565385D01*
X109666165Y-120565384D01*
X109494027Y-120450365D01*
X109347635Y-120303973D01*
X109232616Y-120131835D01*
X109232615Y-120131833D01*
X109153389Y-119940564D01*
X109113000Y-119737516D01*
X109113000Y-119530484D01*
X109153389Y-119327436D01*
X109232615Y-119136167D01*
X109347635Y-118964027D01*
X109494027Y-118817635D01*
X109666165Y-118702616D01*
X109666167Y-118702615D01*
X109857436Y-118623389D01*
X110060484Y-118583000D01*
X110267516Y-118583000D01*
X110470564Y-118623389D01*
X110470564Y-118623389D01*
G37*
G36*
X179225100Y-115389200D02*
G01*
X178323100Y-115389200D01*
X178323100Y-114537200D01*
X179225100Y-114537200D01*
X179225100Y-115389200D01*
X179225100Y-115389200D01*
G37*
G36*
X180725100Y-115389200D02*
G01*
X179823100Y-115389200D01*
X179823100Y-114537200D01*
X180725100Y-114537200D01*
X180725100Y-115389200D01*
X180725100Y-115389200D01*
G37*
G36*
X110470564Y-112123389D02*
G01*
X110661833Y-112202615D01*
X110661835Y-112202616D01*
X110833973Y-112317635D01*
X110980365Y-112464027D01*
X111095385Y-112636167D01*
X111174611Y-112827436D01*
X111215000Y-113030484D01*
X111215000Y-113237516D01*
X111174611Y-113440564D01*
X111095385Y-113631833D01*
X111095384Y-113631835D01*
X110980365Y-113803973D01*
X110833973Y-113950365D01*
X110661835Y-114065384D01*
X110661834Y-114065385D01*
X110661833Y-114065385D01*
X110470564Y-114144611D01*
X110267516Y-114185000D01*
X110060484Y-114185000D01*
X109857436Y-114144611D01*
X109666167Y-114065385D01*
X109666166Y-114065385D01*
X109666165Y-114065384D01*
X109494027Y-113950365D01*
X109347635Y-113803973D01*
X109232616Y-113631835D01*
X109232615Y-113631833D01*
X109153389Y-113440564D01*
X109113000Y-113237516D01*
X109113000Y-113030484D01*
X109153389Y-112827436D01*
X109232615Y-112636167D01*
X109347635Y-112464027D01*
X109494027Y-112317635D01*
X109666165Y-112202616D01*
X109666167Y-112202615D01*
X109857436Y-112123389D01*
X110060484Y-112083000D01*
X110267516Y-112083000D01*
X110470564Y-112123389D01*
X110470564Y-112123389D01*
G37*
G36*
X105970564Y-112123389D02*
G01*
X106161833Y-112202615D01*
X106161835Y-112202616D01*
X106333973Y-112317635D01*
X106480365Y-112464027D01*
X106595385Y-112636167D01*
X106674611Y-112827436D01*
X106715000Y-113030484D01*
X106715000Y-113237516D01*
X106674611Y-113440564D01*
X106595385Y-113631833D01*
X106595384Y-113631835D01*
X106480365Y-113803973D01*
X106333973Y-113950365D01*
X106161835Y-114065384D01*
X106161834Y-114065385D01*
X106161833Y-114065385D01*
X105970564Y-114144611D01*
X105767516Y-114185000D01*
X105560484Y-114185000D01*
X105357436Y-114144611D01*
X105166167Y-114065385D01*
X105166166Y-114065385D01*
X105166165Y-114065384D01*
X104994027Y-113950365D01*
X104847635Y-113803973D01*
X104732616Y-113631835D01*
X104732615Y-113631833D01*
X104653389Y-113440564D01*
X104613000Y-113237516D01*
X104613000Y-113030484D01*
X104653389Y-112827436D01*
X104732615Y-112636167D01*
X104847635Y-112464027D01*
X104994027Y-112317635D01*
X105166165Y-112202616D01*
X105166167Y-112202615D01*
X105357436Y-112123389D01*
X105560484Y-112083000D01*
X105767516Y-112083000D01*
X105970564Y-112123389D01*
X105970564Y-112123389D01*
G37*
G36*
X183676300Y-111619600D02*
G01*
X183074300Y-111619600D01*
X183074300Y-110917600D01*
X183676300Y-110917600D01*
X183676300Y-111619600D01*
X183676300Y-111619600D01*
G37*
G36*
X181580800Y-110870300D02*
G01*
X180978800Y-110870300D01*
X180978800Y-110168300D01*
X181580800Y-110168300D01*
X181580800Y-110870300D01*
X181580800Y-110870300D01*
G37*
G36*
X183676300Y-110519600D02*
G01*
X183074300Y-110519600D01*
X183074300Y-109817600D01*
X183676300Y-109817600D01*
X183676300Y-110519600D01*
X183676300Y-110519600D01*
G37*
G36*
X130898200Y-110130600D02*
G01*
X130196200Y-110130600D01*
X130196200Y-109528600D01*
X130898200Y-109528600D01*
X130898200Y-110130600D01*
X130898200Y-110130600D01*
G37*
G36*
X129798200Y-110130600D02*
G01*
X129096200Y-110130600D01*
X129096200Y-109528600D01*
X129798200Y-109528600D01*
X129798200Y-110130600D01*
X129798200Y-110130600D01*
G37*
G36*
X116747300Y-109828900D02*
G01*
X116145300Y-109828900D01*
X116145300Y-109126900D01*
X116747300Y-109126900D01*
X116747300Y-109828900D01*
X116747300Y-109828900D01*
G37*
G36*
X181580800Y-109770300D02*
G01*
X180978800Y-109770300D01*
X180978800Y-109068300D01*
X181580800Y-109068300D01*
X181580800Y-109770300D01*
X181580800Y-109770300D01*
G37*
G36*
X116747300Y-108728900D02*
G01*
X116145300Y-108728900D01*
X116145300Y-108026900D01*
X116747300Y-108026900D01*
X116747300Y-108728900D01*
X116747300Y-108728900D01*
G37*
G36*
X171941500Y-108457000D02*
G01*
X171239500Y-108457000D01*
X171239500Y-107855000D01*
X171941500Y-107855000D01*
X171941500Y-108457000D01*
X171941500Y-108457000D01*
G37*
G36*
X170841500Y-108457000D02*
G01*
X170139500Y-108457000D01*
X170139500Y-107855000D01*
X170841500Y-107855000D01*
X170841500Y-108457000D01*
X170841500Y-108457000D01*
G37*
G36*
X195018101Y-106780197D02*
G01*
X195056805Y-106787896D01*
X195088840Y-106801165D01*
X195166180Y-106833200D01*
X195264615Y-106898973D01*
X195348327Y-106982685D01*
X195414100Y-107081120D01*
X195459404Y-107190496D01*
X195482500Y-107306605D01*
X195482500Y-107424995D01*
X195459404Y-107541104D01*
X195414100Y-107650480D01*
X195348327Y-107748915D01*
X195264615Y-107832627D01*
X195166180Y-107898400D01*
X195088840Y-107930435D01*
X195056805Y-107943704D01*
X195018101Y-107951403D01*
X194940695Y-107966800D01*
X194822305Y-107966800D01*
X194744899Y-107951403D01*
X194706195Y-107943704D01*
X194674160Y-107930435D01*
X194596820Y-107898400D01*
X194498385Y-107832627D01*
X194414673Y-107748915D01*
X194348900Y-107650480D01*
X194303596Y-107541104D01*
X194280500Y-107424995D01*
X194280500Y-107306605D01*
X194303596Y-107190496D01*
X194348900Y-107081120D01*
X194414673Y-106982685D01*
X194498385Y-106898973D01*
X194596820Y-106833200D01*
X194674160Y-106801165D01*
X194706195Y-106787896D01*
X194744899Y-106780197D01*
X194822305Y-106764800D01*
X194940695Y-106764800D01*
X195018101Y-106780197D01*
X195018101Y-106780197D01*
G37*
G36*
X135332300Y-107187000D02*
G01*
X134630300Y-107187000D01*
X134630300Y-106585000D01*
X135332300Y-106585000D01*
X135332300Y-107187000D01*
X135332300Y-107187000D01*
G37*
G36*
X136432300Y-107187000D02*
G01*
X135730300Y-107187000D01*
X135730300Y-106585000D01*
X136432300Y-106585000D01*
X136432300Y-107187000D01*
X136432300Y-107187000D01*
G37*
G36*
X169363400Y-106095100D02*
G01*
X168761400Y-106095100D01*
X168761400Y-105393100D01*
X169363400Y-105393100D01*
X169363400Y-106095100D01*
X169363400Y-106095100D01*
G37*
G36*
X168093400Y-106095100D02*
G01*
X167491400Y-106095100D01*
X167491400Y-105393100D01*
X168093400Y-105393100D01*
X168093400Y-106095100D01*
X168093400Y-106095100D01*
G37*
G36*
X168093400Y-104995100D02*
G01*
X167491400Y-104995100D01*
X167491400Y-104293100D01*
X168093400Y-104293100D01*
X168093400Y-104995100D01*
X168093400Y-104995100D01*
G37*
G36*
X169363400Y-104995100D02*
G01*
X168761400Y-104995100D01*
X168761400Y-104293100D01*
X169363400Y-104293100D01*
X169363400Y-104995100D01*
X169363400Y-104995100D01*
G37*
G36*
X195018101Y-102030397D02*
G01*
X195056805Y-102038096D01*
X195088840Y-102051365D01*
X195166180Y-102083400D01*
X195264615Y-102149173D01*
X195348327Y-102232885D01*
X195414100Y-102331320D01*
X195459404Y-102440696D01*
X195482500Y-102556805D01*
X195482500Y-102675195D01*
X195459404Y-102791304D01*
X195414100Y-102900680D01*
X195348327Y-102999115D01*
X195264615Y-103082827D01*
X195166180Y-103148600D01*
X195088840Y-103180635D01*
X195056805Y-103193904D01*
X195018101Y-103201603D01*
X194940695Y-103217000D01*
X194822305Y-103217000D01*
X194744899Y-103201603D01*
X194706195Y-103193904D01*
X194674160Y-103180635D01*
X194596820Y-103148600D01*
X194498385Y-103082827D01*
X194414673Y-102999115D01*
X194348900Y-102900680D01*
X194303596Y-102791304D01*
X194280500Y-102675195D01*
X194280500Y-102556805D01*
X194303596Y-102440696D01*
X194348900Y-102331320D01*
X194414673Y-102232885D01*
X194498385Y-102149173D01*
X194596820Y-102083400D01*
X194674160Y-102051365D01*
X194706195Y-102038096D01*
X194744899Y-102030397D01*
X194822305Y-102015000D01*
X194940695Y-102015000D01*
X195018101Y-102030397D01*
X195018101Y-102030397D01*
G37*
G36*
X148553000Y-101649800D02*
G01*
X147851000Y-101649800D01*
X147851000Y-101047800D01*
X148553000Y-101047800D01*
X148553000Y-101649800D01*
X148553000Y-101649800D01*
G37*
G36*
X149653000Y-101649800D02*
G01*
X148951000Y-101649800D01*
X148951000Y-101047800D01*
X149653000Y-101047800D01*
X149653000Y-101649800D01*
X149653000Y-101649800D01*
G37*
G36*
X149505500Y-100329000D02*
G01*
X148803500Y-100329000D01*
X148803500Y-99727000D01*
X149505500Y-99727000D01*
X149505500Y-100329000D01*
X149505500Y-100329000D01*
G37*
G36*
X150605500Y-100329000D02*
G01*
X149903500Y-100329000D01*
X149903500Y-99727000D01*
X150605500Y-99727000D01*
X150605500Y-100329000D01*
X150605500Y-100329000D01*
G37*
G36*
X133473200Y-99376800D02*
G01*
X132871200Y-99376800D01*
X132871200Y-98674800D01*
X133473200Y-98674800D01*
X133473200Y-99376800D01*
X133473200Y-99376800D01*
G37*
G36*
X118014200Y-99011300D02*
G01*
X117412200Y-99011300D01*
X117412200Y-98309300D01*
X118014200Y-98309300D01*
X118014200Y-99011300D01*
X118014200Y-99011300D01*
G37*
G36*
X133473200Y-98276800D02*
G01*
X132871200Y-98276800D01*
X132871200Y-97574800D01*
X133473200Y-97574800D01*
X133473200Y-98276800D01*
X133473200Y-98276800D01*
G37*
G36*
X118014200Y-97911300D02*
G01*
X117412200Y-97911300D01*
X117412200Y-97209300D01*
X118014200Y-97209300D01*
X118014200Y-97911300D01*
X118014200Y-97911300D01*
G37*
G36*
X103145600Y-96303400D02*
G01*
X102543600Y-96303400D01*
X102543600Y-95601400D01*
X103145600Y-95601400D01*
X103145600Y-96303400D01*
X103145600Y-96303400D01*
G37*
G36*
X103145600Y-95203400D02*
G01*
X102543600Y-95203400D01*
X102543600Y-94501400D01*
X103145600Y-94501400D01*
X103145600Y-95203400D01*
X103145600Y-95203400D01*
G37*
G36*
X173930700Y-95043000D02*
G01*
X173228700Y-95043000D01*
X173228700Y-94441000D01*
X173930700Y-94441000D01*
X173930700Y-95043000D01*
X173930700Y-95043000D01*
G37*
G36*
X175030700Y-95043000D02*
G01*
X174328700Y-95043000D01*
X174328700Y-94441000D01*
X175030700Y-94441000D01*
X175030700Y-95043000D01*
X175030700Y-95043000D01*
G37*
G36*
X123343500Y-93483700D02*
G01*
X122641500Y-93483700D01*
X122641500Y-92881700D01*
X123343500Y-92881700D01*
X123343500Y-93483700D01*
X123343500Y-93483700D01*
G37*
G36*
X124443500Y-93483700D02*
G01*
X123741500Y-93483700D01*
X123741500Y-92881700D01*
X124443500Y-92881700D01*
X124443500Y-93483700D01*
X124443500Y-93483700D01*
G37*
G36*
X176825220Y-90503100D02*
G01*
X175223220Y-90503100D01*
X175223220Y-89151100D01*
X176825220Y-89151100D01*
X176825220Y-90503100D01*
X176825220Y-90503100D01*
G37*
G36*
X179325220Y-90503100D02*
G01*
X177723220Y-90503100D01*
X177723220Y-89151100D01*
X179325220Y-89151100D01*
X179325220Y-90503100D01*
X179325220Y-90503100D01*
G37*
G36*
X110542564Y-82044989D02*
G01*
X110733833Y-82124215D01*
X110733835Y-82124216D01*
X110905973Y-82239235D01*
X111052365Y-82385627D01*
X111167385Y-82557767D01*
X111246611Y-82749036D01*
X111287000Y-82952084D01*
X111287000Y-83159116D01*
X111246611Y-83362164D01*
X111167385Y-83553433D01*
X111167384Y-83553435D01*
X111052365Y-83725573D01*
X110905973Y-83871965D01*
X110733835Y-83986984D01*
X110733834Y-83986985D01*
X110733833Y-83986985D01*
X110542564Y-84066211D01*
X110339516Y-84106600D01*
X110132484Y-84106600D01*
X109929436Y-84066211D01*
X109738167Y-83986985D01*
X109738166Y-83986985D01*
X109738165Y-83986984D01*
X109566027Y-83871965D01*
X109419635Y-83725573D01*
X109304616Y-83553435D01*
X109304615Y-83553433D01*
X109225389Y-83362164D01*
X109185000Y-83159116D01*
X109185000Y-82952084D01*
X109225389Y-82749036D01*
X109304615Y-82557767D01*
X109419635Y-82385627D01*
X109566027Y-82239235D01*
X109738165Y-82124216D01*
X109738167Y-82124215D01*
X109929436Y-82044989D01*
X110132484Y-82004600D01*
X110339516Y-82004600D01*
X110542564Y-82044989D01*
X110542564Y-82044989D01*
G37*
G36*
X106042564Y-82044989D02*
G01*
X106233833Y-82124215D01*
X106233835Y-82124216D01*
X106405973Y-82239235D01*
X106552365Y-82385627D01*
X106667385Y-82557767D01*
X106746611Y-82749036D01*
X106787000Y-82952084D01*
X106787000Y-83159116D01*
X106746611Y-83362164D01*
X106667385Y-83553433D01*
X106667384Y-83553435D01*
X106552365Y-83725573D01*
X106405973Y-83871965D01*
X106233835Y-83986984D01*
X106233834Y-83986985D01*
X106233833Y-83986985D01*
X106042564Y-84066211D01*
X105839516Y-84106600D01*
X105632484Y-84106600D01*
X105429436Y-84066211D01*
X105238167Y-83986985D01*
X105238166Y-83986985D01*
X105238165Y-83986984D01*
X105066027Y-83871965D01*
X104919635Y-83725573D01*
X104804616Y-83553435D01*
X104804615Y-83553433D01*
X104725389Y-83362164D01*
X104685000Y-83159116D01*
X104685000Y-82952084D01*
X104725389Y-82749036D01*
X104804615Y-82557767D01*
X104919635Y-82385627D01*
X105066027Y-82239235D01*
X105238165Y-82124216D01*
X105238167Y-82124215D01*
X105429436Y-82044989D01*
X105632484Y-82004600D01*
X105839516Y-82004600D01*
X106042564Y-82044989D01*
X106042564Y-82044989D01*
G37*
G36*
X177252640Y-83097940D02*
G01*
X176650640Y-83097940D01*
X176650640Y-82395940D01*
X177252640Y-82395940D01*
X177252640Y-83097940D01*
X177252640Y-83097940D01*
G37*
G36*
X177252640Y-81997940D02*
G01*
X176650640Y-81997940D01*
X176650640Y-81295940D01*
X177252640Y-81295940D01*
X177252640Y-81997940D01*
X177252640Y-81997940D01*
G37*
G36*
X130390200Y-80946000D02*
G01*
X129688200Y-80946000D01*
X129688200Y-80344000D01*
X130390200Y-80344000D01*
X130390200Y-80946000D01*
X130390200Y-80946000D01*
G37*
G36*
X129290200Y-80946000D02*
G01*
X128588200Y-80946000D01*
X128588200Y-80344000D01*
X129290200Y-80344000D01*
X129290200Y-80946000D01*
X129290200Y-80946000D01*
G37*
G36*
X179301100Y-80247700D02*
G01*
X176699100Y-80247700D01*
X176699100Y-79145700D01*
X179301100Y-79145700D01*
X179301100Y-80247700D01*
X179301100Y-80247700D01*
G37*
G36*
X144342428Y-77680403D02*
G01*
X144497300Y-77744553D01*
X144636681Y-77837685D01*
X144755215Y-77956219D01*
X144848347Y-78095600D01*
X144912497Y-78250472D01*
X144945200Y-78414884D01*
X144945200Y-78582516D01*
X144912497Y-78746928D01*
X144848347Y-78901800D01*
X144755215Y-79041181D01*
X144636681Y-79159715D01*
X144497300Y-79252847D01*
X144342428Y-79316997D01*
X144178016Y-79349700D01*
X144010384Y-79349700D01*
X143845972Y-79316997D01*
X143691100Y-79252847D01*
X143551719Y-79159715D01*
X143433185Y-79041181D01*
X143340053Y-78901800D01*
X143275903Y-78746928D01*
X143243200Y-78582516D01*
X143243200Y-78414884D01*
X143275903Y-78250472D01*
X143340053Y-78095600D01*
X143433185Y-77956219D01*
X143551719Y-77837685D01*
X143691100Y-77744553D01*
X143845972Y-77680403D01*
X144010384Y-77647700D01*
X144178016Y-77647700D01*
X144342428Y-77680403D01*
X144342428Y-77680403D01*
G37*
G36*
X110542564Y-75544989D02*
G01*
X110733833Y-75624215D01*
X110733835Y-75624216D01*
X110862925Y-75710471D01*
X110905973Y-75739235D01*
X111052365Y-75885627D01*
X111167385Y-76057767D01*
X111246611Y-76249036D01*
X111287000Y-76452084D01*
X111287000Y-76659116D01*
X111246611Y-76862164D01*
X111167385Y-77053433D01*
X111167384Y-77053435D01*
X111052365Y-77225573D01*
X110905973Y-77371965D01*
X110733835Y-77486984D01*
X110733834Y-77486985D01*
X110733833Y-77486985D01*
X110542564Y-77566211D01*
X110339516Y-77606600D01*
X110132484Y-77606600D01*
X109929436Y-77566211D01*
X109738167Y-77486985D01*
X109738166Y-77486985D01*
X109738165Y-77486984D01*
X109566027Y-77371965D01*
X109419635Y-77225573D01*
X109304616Y-77053435D01*
X109304615Y-77053433D01*
X109225389Y-76862164D01*
X109185000Y-76659116D01*
X109185000Y-76452084D01*
X109225389Y-76249036D01*
X109304615Y-76057767D01*
X109419635Y-75885627D01*
X109566027Y-75739235D01*
X109609075Y-75710471D01*
X109738165Y-75624216D01*
X109738167Y-75624215D01*
X109929436Y-75544989D01*
X110132484Y-75504600D01*
X110339516Y-75504600D01*
X110542564Y-75544989D01*
X110542564Y-75544989D01*
G37*
G36*
X106042564Y-75544989D02*
G01*
X106233833Y-75624215D01*
X106233835Y-75624216D01*
X106362925Y-75710471D01*
X106405973Y-75739235D01*
X106552365Y-75885627D01*
X106667385Y-76057767D01*
X106746611Y-76249036D01*
X106787000Y-76452084D01*
X106787000Y-76659116D01*
X106746611Y-76862164D01*
X106667385Y-77053433D01*
X106667384Y-77053435D01*
X106552365Y-77225573D01*
X106405973Y-77371965D01*
X106233835Y-77486984D01*
X106233834Y-77486985D01*
X106233833Y-77486985D01*
X106042564Y-77566211D01*
X105839516Y-77606600D01*
X105632484Y-77606600D01*
X105429436Y-77566211D01*
X105238167Y-77486985D01*
X105238166Y-77486985D01*
X105238165Y-77486984D01*
X105066027Y-77371965D01*
X104919635Y-77225573D01*
X104804616Y-77053435D01*
X104804615Y-77053433D01*
X104725389Y-76862164D01*
X104685000Y-76659116D01*
X104685000Y-76452084D01*
X104725389Y-76249036D01*
X104804615Y-76057767D01*
X104919635Y-75885627D01*
X105066027Y-75739235D01*
X105109075Y-75710471D01*
X105238165Y-75624216D01*
X105238167Y-75624215D01*
X105429436Y-75544989D01*
X105632484Y-75504600D01*
X105839516Y-75504600D01*
X106042564Y-75544989D01*
X106042564Y-75544989D01*
G37*
G36*
X179301100Y-77247700D02*
G01*
X176699100Y-77247700D01*
X176699100Y-76145700D01*
X179301100Y-76145700D01*
X179301100Y-77247700D01*
X179301100Y-77247700D01*
G37*
G36*
X144342428Y-75140403D02*
G01*
X144497300Y-75204553D01*
X144636681Y-75297685D01*
X144755215Y-75416219D01*
X144848347Y-75555600D01*
X144912497Y-75710472D01*
X144945200Y-75874884D01*
X144945200Y-76042516D01*
X144912497Y-76206928D01*
X144848347Y-76361800D01*
X144755215Y-76501181D01*
X144636681Y-76619715D01*
X144497300Y-76712847D01*
X144342428Y-76776997D01*
X144178016Y-76809700D01*
X144010384Y-76809700D01*
X143845972Y-76776997D01*
X143691100Y-76712847D01*
X143551719Y-76619715D01*
X143433185Y-76501181D01*
X143340053Y-76361800D01*
X143275903Y-76206928D01*
X143243200Y-76042516D01*
X143243200Y-75874884D01*
X143275903Y-75710472D01*
X143340053Y-75555600D01*
X143433185Y-75416219D01*
X143551719Y-75297685D01*
X143691100Y-75204553D01*
X143845972Y-75140403D01*
X144010384Y-75107700D01*
X144178016Y-75107700D01*
X144342428Y-75140403D01*
X144342428Y-75140403D01*
G37*
G36*
X127547380Y-76539660D02*
G01*
X126945380Y-76539660D01*
X126945380Y-75837660D01*
X127547380Y-75837660D01*
X127547380Y-76539660D01*
X127547380Y-76539660D01*
G37*
G36*
X127547380Y-75439660D02*
G01*
X126945380Y-75439660D01*
X126945380Y-74737660D01*
X127547380Y-74737660D01*
X127547380Y-75439660D01*
X127547380Y-75439660D01*
G37*
G36*
X193313628Y-67050503D02*
G01*
X193468500Y-67114653D01*
X193607881Y-67207785D01*
X193726415Y-67326319D01*
X193819547Y-67465700D01*
X193883697Y-67620572D01*
X193916400Y-67784984D01*
X193916400Y-67952616D01*
X193883697Y-68117028D01*
X193819547Y-68271900D01*
X193726415Y-68411281D01*
X193607881Y-68529815D01*
X193468500Y-68622947D01*
X193313628Y-68687097D01*
X193149216Y-68719800D01*
X192981584Y-68719800D01*
X192817172Y-68687097D01*
X192662300Y-68622947D01*
X192522919Y-68529815D01*
X192404385Y-68411281D01*
X192311253Y-68271900D01*
X192247103Y-68117028D01*
X192214400Y-67952616D01*
X192214400Y-67784984D01*
X192247103Y-67620572D01*
X192311253Y-67465700D01*
X192404385Y-67326319D01*
X192522919Y-67207785D01*
X192662300Y-67114653D01*
X192817172Y-67050503D01*
X192981584Y-67017800D01*
X193149216Y-67017800D01*
X193313628Y-67050503D01*
X193313628Y-67050503D01*
G37*
G36*
X175446642Y-62605518D02*
G01*
X175512827Y-62612037D01*
X175682666Y-62663557D01*
X175839191Y-62747222D01*
X175874929Y-62776552D01*
X175976386Y-62859814D01*
X176059648Y-62961271D01*
X176088978Y-62997009D01*
X176172643Y-63153534D01*
X176224163Y-63323373D01*
X176241559Y-63500000D01*
X176224163Y-63676627D01*
X176172643Y-63846466D01*
X176088978Y-64002991D01*
X176059648Y-64038729D01*
X175976386Y-64140186D01*
X175874929Y-64223448D01*
X175839191Y-64252778D01*
X175682666Y-64336443D01*
X175512827Y-64387963D01*
X175446642Y-64394482D01*
X175380460Y-64401000D01*
X175291940Y-64401000D01*
X175225758Y-64394482D01*
X175159573Y-64387963D01*
X174989734Y-64336443D01*
X174833209Y-64252778D01*
X174797471Y-64223448D01*
X174696014Y-64140186D01*
X174612752Y-64038729D01*
X174583422Y-64002991D01*
X174499757Y-63846466D01*
X174448237Y-63676627D01*
X174430841Y-63500000D01*
X174448237Y-63323373D01*
X174499757Y-63153534D01*
X174583422Y-62997009D01*
X174612752Y-62961271D01*
X174696014Y-62859814D01*
X174797471Y-62776552D01*
X174833209Y-62747222D01*
X174989734Y-62663557D01*
X175159573Y-62612037D01*
X175225758Y-62605518D01*
X175291940Y-62599000D01*
X175380460Y-62599000D01*
X175446642Y-62605518D01*
X175446642Y-62605518D01*
G37*
G36*
X160206642Y-62605518D02*
G01*
X160272827Y-62612037D01*
X160442666Y-62663557D01*
X160599191Y-62747222D01*
X160634929Y-62776552D01*
X160736386Y-62859814D01*
X160819648Y-62961271D01*
X160848978Y-62997009D01*
X160932643Y-63153534D01*
X160984163Y-63323373D01*
X161001559Y-63500000D01*
X160984163Y-63676627D01*
X160932643Y-63846466D01*
X160848978Y-64002991D01*
X160819648Y-64038729D01*
X160736386Y-64140186D01*
X160634929Y-64223448D01*
X160599191Y-64252778D01*
X160442666Y-64336443D01*
X160272827Y-64387963D01*
X160206642Y-64394482D01*
X160140460Y-64401000D01*
X160051940Y-64401000D01*
X159985758Y-64394482D01*
X159919573Y-64387963D01*
X159749734Y-64336443D01*
X159593209Y-64252778D01*
X159557471Y-64223448D01*
X159456014Y-64140186D01*
X159372752Y-64038729D01*
X159343422Y-64002991D01*
X159259757Y-63846466D01*
X159208237Y-63676627D01*
X159190841Y-63500000D01*
X159208237Y-63323373D01*
X159259757Y-63153534D01*
X159343422Y-62997009D01*
X159372752Y-62961271D01*
X159456014Y-62859814D01*
X159557471Y-62776552D01*
X159593209Y-62747222D01*
X159749734Y-62663557D01*
X159919573Y-62612037D01*
X159985758Y-62605518D01*
X160051940Y-62599000D01*
X160140460Y-62599000D01*
X160206642Y-62605518D01*
X160206642Y-62605518D01*
G37*
G36*
X165286642Y-62605518D02*
G01*
X165352827Y-62612037D01*
X165522666Y-62663557D01*
X165679191Y-62747222D01*
X165714929Y-62776552D01*
X165816386Y-62859814D01*
X165899648Y-62961271D01*
X165928978Y-62997009D01*
X166012643Y-63153534D01*
X166064163Y-63323373D01*
X166081559Y-63500000D01*
X166064163Y-63676627D01*
X166012643Y-63846466D01*
X165928978Y-64002991D01*
X165899648Y-64038729D01*
X165816386Y-64140186D01*
X165714929Y-64223448D01*
X165679191Y-64252778D01*
X165522666Y-64336443D01*
X165352827Y-64387963D01*
X165286642Y-64394482D01*
X165220460Y-64401000D01*
X165131940Y-64401000D01*
X165065758Y-64394482D01*
X164999573Y-64387963D01*
X164829734Y-64336443D01*
X164673209Y-64252778D01*
X164637471Y-64223448D01*
X164536014Y-64140186D01*
X164452752Y-64038729D01*
X164423422Y-64002991D01*
X164339757Y-63846466D01*
X164288237Y-63676627D01*
X164270841Y-63500000D01*
X164288237Y-63323373D01*
X164339757Y-63153534D01*
X164423422Y-62997009D01*
X164452752Y-62961271D01*
X164536014Y-62859814D01*
X164637471Y-62776552D01*
X164673209Y-62747222D01*
X164829734Y-62663557D01*
X164999573Y-62612037D01*
X165065758Y-62605518D01*
X165131940Y-62599000D01*
X165220460Y-62599000D01*
X165286642Y-62605518D01*
X165286642Y-62605518D01*
G37*
G36*
X144966642Y-62605518D02*
G01*
X145032827Y-62612037D01*
X145202666Y-62663557D01*
X145359191Y-62747222D01*
X145394929Y-62776552D01*
X145496386Y-62859814D01*
X145579648Y-62961271D01*
X145608978Y-62997009D01*
X145692643Y-63153534D01*
X145744163Y-63323373D01*
X145761559Y-63500000D01*
X145744163Y-63676627D01*
X145692643Y-63846466D01*
X145608978Y-64002991D01*
X145579648Y-64038729D01*
X145496386Y-64140186D01*
X145394929Y-64223448D01*
X145359191Y-64252778D01*
X145202666Y-64336443D01*
X145032827Y-64387963D01*
X144966642Y-64394482D01*
X144900460Y-64401000D01*
X144811940Y-64401000D01*
X144745758Y-64394482D01*
X144679573Y-64387963D01*
X144509734Y-64336443D01*
X144353209Y-64252778D01*
X144317471Y-64223448D01*
X144216014Y-64140186D01*
X144132752Y-64038729D01*
X144103422Y-64002991D01*
X144019757Y-63846466D01*
X143968237Y-63676627D01*
X143950841Y-63500000D01*
X143968237Y-63323373D01*
X144019757Y-63153534D01*
X144103422Y-62997009D01*
X144132752Y-62961271D01*
X144216014Y-62859814D01*
X144317471Y-62776552D01*
X144353209Y-62747222D01*
X144509734Y-62663557D01*
X144679573Y-62612037D01*
X144745758Y-62605518D01*
X144811940Y-62599000D01*
X144900460Y-62599000D01*
X144966642Y-62605518D01*
X144966642Y-62605518D01*
G37*
G36*
X172906642Y-62605518D02*
G01*
X172972827Y-62612037D01*
X173142666Y-62663557D01*
X173299191Y-62747222D01*
X173334929Y-62776552D01*
X173436386Y-62859814D01*
X173519648Y-62961271D01*
X173548978Y-62997009D01*
X173632643Y-63153534D01*
X173684163Y-63323373D01*
X173701559Y-63500000D01*
X173684163Y-63676627D01*
X173632643Y-63846466D01*
X173548978Y-64002991D01*
X173519648Y-64038729D01*
X173436386Y-64140186D01*
X173334929Y-64223448D01*
X173299191Y-64252778D01*
X173142666Y-64336443D01*
X172972827Y-64387963D01*
X172906642Y-64394482D01*
X172840460Y-64401000D01*
X172751940Y-64401000D01*
X172685758Y-64394482D01*
X172619573Y-64387963D01*
X172449734Y-64336443D01*
X172293209Y-64252778D01*
X172257471Y-64223448D01*
X172156014Y-64140186D01*
X172072752Y-64038729D01*
X172043422Y-64002991D01*
X171959757Y-63846466D01*
X171908237Y-63676627D01*
X171890841Y-63500000D01*
X171908237Y-63323373D01*
X171959757Y-63153534D01*
X172043422Y-62997009D01*
X172072752Y-62961271D01*
X172156014Y-62859814D01*
X172257471Y-62776552D01*
X172293209Y-62747222D01*
X172449734Y-62663557D01*
X172619573Y-62612037D01*
X172685758Y-62605518D01*
X172751940Y-62599000D01*
X172840460Y-62599000D01*
X172906642Y-62605518D01*
X172906642Y-62605518D01*
G37*
G36*
X142426642Y-62605518D02*
G01*
X142492827Y-62612037D01*
X142662666Y-62663557D01*
X142819191Y-62747222D01*
X142854929Y-62776552D01*
X142956386Y-62859814D01*
X143039648Y-62961271D01*
X143068978Y-62997009D01*
X143152643Y-63153534D01*
X143204163Y-63323373D01*
X143221559Y-63500000D01*
X143204163Y-63676627D01*
X143152643Y-63846466D01*
X143068978Y-64002991D01*
X143039648Y-64038729D01*
X142956386Y-64140186D01*
X142854929Y-64223448D01*
X142819191Y-64252778D01*
X142662666Y-64336443D01*
X142492827Y-64387963D01*
X142426642Y-64394482D01*
X142360460Y-64401000D01*
X142271940Y-64401000D01*
X142205758Y-64394482D01*
X142139573Y-64387963D01*
X141969734Y-64336443D01*
X141813209Y-64252778D01*
X141777471Y-64223448D01*
X141676014Y-64140186D01*
X141592752Y-64038729D01*
X141563422Y-64002991D01*
X141479757Y-63846466D01*
X141428237Y-63676627D01*
X141410841Y-63500000D01*
X141428237Y-63323373D01*
X141479757Y-63153534D01*
X141563422Y-62997009D01*
X141592752Y-62961271D01*
X141676014Y-62859814D01*
X141777471Y-62776552D01*
X141813209Y-62747222D01*
X141969734Y-62663557D01*
X142139573Y-62612037D01*
X142205758Y-62605518D01*
X142271940Y-62599000D01*
X142360460Y-62599000D01*
X142426642Y-62605518D01*
X142426642Y-62605518D01*
G37*
G36*
X170366642Y-62605518D02*
G01*
X170432827Y-62612037D01*
X170602666Y-62663557D01*
X170759191Y-62747222D01*
X170794929Y-62776552D01*
X170896386Y-62859814D01*
X170979648Y-62961271D01*
X171008978Y-62997009D01*
X171092643Y-63153534D01*
X171144163Y-63323373D01*
X171161559Y-63500000D01*
X171144163Y-63676627D01*
X171092643Y-63846466D01*
X171008978Y-64002991D01*
X170979648Y-64038729D01*
X170896386Y-64140186D01*
X170794929Y-64223448D01*
X170759191Y-64252778D01*
X170602666Y-64336443D01*
X170432827Y-64387963D01*
X170366642Y-64394482D01*
X170300460Y-64401000D01*
X170211940Y-64401000D01*
X170145758Y-64394482D01*
X170079573Y-64387963D01*
X169909734Y-64336443D01*
X169753209Y-64252778D01*
X169717471Y-64223448D01*
X169616014Y-64140186D01*
X169532752Y-64038729D01*
X169503422Y-64002991D01*
X169419757Y-63846466D01*
X169368237Y-63676627D01*
X169350841Y-63500000D01*
X169368237Y-63323373D01*
X169419757Y-63153534D01*
X169503422Y-62997009D01*
X169532752Y-62961271D01*
X169616014Y-62859814D01*
X169717471Y-62776552D01*
X169753209Y-62747222D01*
X169909734Y-62663557D01*
X170079573Y-62612037D01*
X170145758Y-62605518D01*
X170211940Y-62599000D01*
X170300460Y-62599000D01*
X170366642Y-62605518D01*
X170366642Y-62605518D01*
G37*
G36*
X139886642Y-62605518D02*
G01*
X139952827Y-62612037D01*
X140122666Y-62663557D01*
X140279191Y-62747222D01*
X140314929Y-62776552D01*
X140416386Y-62859814D01*
X140499648Y-62961271D01*
X140528978Y-62997009D01*
X140612643Y-63153534D01*
X140664163Y-63323373D01*
X140681559Y-63500000D01*
X140664163Y-63676627D01*
X140612643Y-63846466D01*
X140528978Y-64002991D01*
X140499648Y-64038729D01*
X140416386Y-64140186D01*
X140314929Y-64223448D01*
X140279191Y-64252778D01*
X140122666Y-64336443D01*
X139952827Y-64387963D01*
X139886642Y-64394482D01*
X139820460Y-64401000D01*
X139731940Y-64401000D01*
X139665758Y-64394482D01*
X139599573Y-64387963D01*
X139429734Y-64336443D01*
X139273209Y-64252778D01*
X139237471Y-64223448D01*
X139136014Y-64140186D01*
X139052752Y-64038729D01*
X139023422Y-64002991D01*
X138939757Y-63846466D01*
X138888237Y-63676627D01*
X138870841Y-63500000D01*
X138888237Y-63323373D01*
X138939757Y-63153534D01*
X139023422Y-62997009D01*
X139052752Y-62961271D01*
X139136014Y-62859814D01*
X139237471Y-62776552D01*
X139273209Y-62747222D01*
X139429734Y-62663557D01*
X139599573Y-62612037D01*
X139665758Y-62605518D01*
X139731940Y-62599000D01*
X139820460Y-62599000D01*
X139886642Y-62605518D01*
X139886642Y-62605518D01*
G37*
G36*
X167826642Y-62605518D02*
G01*
X167892827Y-62612037D01*
X168062666Y-62663557D01*
X168219191Y-62747222D01*
X168254929Y-62776552D01*
X168356386Y-62859814D01*
X168439648Y-62961271D01*
X168468978Y-62997009D01*
X168552643Y-63153534D01*
X168604163Y-63323373D01*
X168621559Y-63500000D01*
X168604163Y-63676627D01*
X168552643Y-63846466D01*
X168468978Y-64002991D01*
X168439648Y-64038729D01*
X168356386Y-64140186D01*
X168254929Y-64223448D01*
X168219191Y-64252778D01*
X168062666Y-64336443D01*
X167892827Y-64387963D01*
X167826642Y-64394482D01*
X167760460Y-64401000D01*
X167671940Y-64401000D01*
X167605758Y-64394482D01*
X167539573Y-64387963D01*
X167369734Y-64336443D01*
X167213209Y-64252778D01*
X167177471Y-64223448D01*
X167076014Y-64140186D01*
X166992752Y-64038729D01*
X166963422Y-64002991D01*
X166879757Y-63846466D01*
X166828237Y-63676627D01*
X166810841Y-63500000D01*
X166828237Y-63323373D01*
X166879757Y-63153534D01*
X166963422Y-62997009D01*
X166992752Y-62961271D01*
X167076014Y-62859814D01*
X167177471Y-62776552D01*
X167213209Y-62747222D01*
X167369734Y-62663557D01*
X167539573Y-62612037D01*
X167605758Y-62605518D01*
X167671940Y-62599000D01*
X167760460Y-62599000D01*
X167826642Y-62605518D01*
X167826642Y-62605518D01*
G37*
G36*
X137346642Y-62605518D02*
G01*
X137412827Y-62612037D01*
X137582666Y-62663557D01*
X137739191Y-62747222D01*
X137774929Y-62776552D01*
X137876386Y-62859814D01*
X137959648Y-62961271D01*
X137988978Y-62997009D01*
X138072643Y-63153534D01*
X138124163Y-63323373D01*
X138141559Y-63500000D01*
X138124163Y-63676627D01*
X138072643Y-63846466D01*
X137988978Y-64002991D01*
X137959648Y-64038729D01*
X137876386Y-64140186D01*
X137774929Y-64223448D01*
X137739191Y-64252778D01*
X137582666Y-64336443D01*
X137412827Y-64387963D01*
X137346642Y-64394482D01*
X137280460Y-64401000D01*
X137191940Y-64401000D01*
X137125758Y-64394482D01*
X137059573Y-64387963D01*
X136889734Y-64336443D01*
X136733209Y-64252778D01*
X136697471Y-64223448D01*
X136596014Y-64140186D01*
X136512752Y-64038729D01*
X136483422Y-64002991D01*
X136399757Y-63846466D01*
X136348237Y-63676627D01*
X136330841Y-63500000D01*
X136348237Y-63323373D01*
X136399757Y-63153534D01*
X136483422Y-62997009D01*
X136512752Y-62961271D01*
X136596014Y-62859814D01*
X136697471Y-62776552D01*
X136733209Y-62747222D01*
X136889734Y-62663557D01*
X137059573Y-62612037D01*
X137125758Y-62605518D01*
X137191940Y-62599000D01*
X137280460Y-62599000D01*
X137346642Y-62605518D01*
X137346642Y-62605518D01*
G37*
G36*
X147506642Y-62605518D02*
G01*
X147572827Y-62612037D01*
X147742666Y-62663557D01*
X147899191Y-62747222D01*
X147934929Y-62776552D01*
X148036386Y-62859814D01*
X148119648Y-62961271D01*
X148148978Y-62997009D01*
X148232643Y-63153534D01*
X148284163Y-63323373D01*
X148301559Y-63500000D01*
X148284163Y-63676627D01*
X148232643Y-63846466D01*
X148148978Y-64002991D01*
X148119648Y-64038729D01*
X148036386Y-64140186D01*
X147934929Y-64223448D01*
X147899191Y-64252778D01*
X147742666Y-64336443D01*
X147572827Y-64387963D01*
X147506642Y-64394482D01*
X147440460Y-64401000D01*
X147351940Y-64401000D01*
X147285758Y-64394482D01*
X147219573Y-64387963D01*
X147049734Y-64336443D01*
X146893209Y-64252778D01*
X146857471Y-64223448D01*
X146756014Y-64140186D01*
X146672752Y-64038729D01*
X146643422Y-64002991D01*
X146559757Y-63846466D01*
X146508237Y-63676627D01*
X146490841Y-63500000D01*
X146508237Y-63323373D01*
X146559757Y-63153534D01*
X146643422Y-62997009D01*
X146672752Y-62961271D01*
X146756014Y-62859814D01*
X146857471Y-62776552D01*
X146893209Y-62747222D01*
X147049734Y-62663557D01*
X147219573Y-62612037D01*
X147285758Y-62605518D01*
X147351940Y-62599000D01*
X147440460Y-62599000D01*
X147506642Y-62605518D01*
X147506642Y-62605518D01*
G37*
G36*
X132266642Y-62605518D02*
G01*
X132332827Y-62612037D01*
X132502666Y-62663557D01*
X132659191Y-62747222D01*
X132694929Y-62776552D01*
X132796386Y-62859814D01*
X132879648Y-62961271D01*
X132908978Y-62997009D01*
X132992643Y-63153534D01*
X133044163Y-63323373D01*
X133061559Y-63500000D01*
X133044163Y-63676627D01*
X132992643Y-63846466D01*
X132908978Y-64002991D01*
X132879648Y-64038729D01*
X132796386Y-64140186D01*
X132694929Y-64223448D01*
X132659191Y-64252778D01*
X132502666Y-64336443D01*
X132332827Y-64387963D01*
X132266642Y-64394482D01*
X132200460Y-64401000D01*
X132111940Y-64401000D01*
X132045758Y-64394482D01*
X131979573Y-64387963D01*
X131809734Y-64336443D01*
X131653209Y-64252778D01*
X131617471Y-64223448D01*
X131516014Y-64140186D01*
X131432752Y-64038729D01*
X131403422Y-64002991D01*
X131319757Y-63846466D01*
X131268237Y-63676627D01*
X131250841Y-63500000D01*
X131268237Y-63323373D01*
X131319757Y-63153534D01*
X131403422Y-62997009D01*
X131432752Y-62961271D01*
X131516014Y-62859814D01*
X131617471Y-62776552D01*
X131653209Y-62747222D01*
X131809734Y-62663557D01*
X131979573Y-62612037D01*
X132045758Y-62605518D01*
X132111940Y-62599000D01*
X132200460Y-62599000D01*
X132266642Y-62605518D01*
X132266642Y-62605518D01*
G37*
G36*
X150046642Y-62605518D02*
G01*
X150112827Y-62612037D01*
X150282666Y-62663557D01*
X150439191Y-62747222D01*
X150474929Y-62776552D01*
X150576386Y-62859814D01*
X150659648Y-62961271D01*
X150688978Y-62997009D01*
X150772643Y-63153534D01*
X150824163Y-63323373D01*
X150841559Y-63500000D01*
X150824163Y-63676627D01*
X150772643Y-63846466D01*
X150688978Y-64002991D01*
X150659648Y-64038729D01*
X150576386Y-64140186D01*
X150474929Y-64223448D01*
X150439191Y-64252778D01*
X150282666Y-64336443D01*
X150112827Y-64387963D01*
X150046642Y-64394482D01*
X149980460Y-64401000D01*
X149891940Y-64401000D01*
X149825758Y-64394482D01*
X149759573Y-64387963D01*
X149589734Y-64336443D01*
X149433209Y-64252778D01*
X149397471Y-64223448D01*
X149296014Y-64140186D01*
X149212752Y-64038729D01*
X149183422Y-64002991D01*
X149099757Y-63846466D01*
X149048237Y-63676627D01*
X149030841Y-63500000D01*
X149048237Y-63323373D01*
X149099757Y-63153534D01*
X149183422Y-62997009D01*
X149212752Y-62961271D01*
X149296014Y-62859814D01*
X149397471Y-62776552D01*
X149433209Y-62747222D01*
X149589734Y-62663557D01*
X149759573Y-62612037D01*
X149825758Y-62605518D01*
X149891940Y-62599000D01*
X149980460Y-62599000D01*
X150046642Y-62605518D01*
X150046642Y-62605518D01*
G37*
G36*
X129726642Y-62605518D02*
G01*
X129792827Y-62612037D01*
X129962666Y-62663557D01*
X130119191Y-62747222D01*
X130154929Y-62776552D01*
X130256386Y-62859814D01*
X130339648Y-62961271D01*
X130368978Y-62997009D01*
X130452643Y-63153534D01*
X130504163Y-63323373D01*
X130521559Y-63500000D01*
X130504163Y-63676627D01*
X130452643Y-63846466D01*
X130368978Y-64002991D01*
X130339648Y-64038729D01*
X130256386Y-64140186D01*
X130154929Y-64223448D01*
X130119191Y-64252778D01*
X129962666Y-64336443D01*
X129792827Y-64387963D01*
X129726642Y-64394482D01*
X129660460Y-64401000D01*
X129571940Y-64401000D01*
X129505758Y-64394482D01*
X129439573Y-64387963D01*
X129269734Y-64336443D01*
X129113209Y-64252778D01*
X129077471Y-64223448D01*
X128976014Y-64140186D01*
X128892752Y-64038729D01*
X128863422Y-64002991D01*
X128779757Y-63846466D01*
X128728237Y-63676627D01*
X128710841Y-63500000D01*
X128728237Y-63323373D01*
X128779757Y-63153534D01*
X128863422Y-62997009D01*
X128892752Y-62961271D01*
X128976014Y-62859814D01*
X129077471Y-62776552D01*
X129113209Y-62747222D01*
X129269734Y-62663557D01*
X129439573Y-62612037D01*
X129505758Y-62605518D01*
X129571940Y-62599000D01*
X129660460Y-62599000D01*
X129726642Y-62605518D01*
X129726642Y-62605518D01*
G37*
G36*
X152586642Y-62605518D02*
G01*
X152652827Y-62612037D01*
X152822666Y-62663557D01*
X152979191Y-62747222D01*
X153014929Y-62776552D01*
X153116386Y-62859814D01*
X153199648Y-62961271D01*
X153228978Y-62997009D01*
X153312643Y-63153534D01*
X153364163Y-63323373D01*
X153381559Y-63500000D01*
X153364163Y-63676627D01*
X153312643Y-63846466D01*
X153228978Y-64002991D01*
X153199648Y-64038729D01*
X153116386Y-64140186D01*
X153014929Y-64223448D01*
X152979191Y-64252778D01*
X152822666Y-64336443D01*
X152652827Y-64387963D01*
X152586642Y-64394482D01*
X152520460Y-64401000D01*
X152431940Y-64401000D01*
X152365758Y-64394482D01*
X152299573Y-64387963D01*
X152129734Y-64336443D01*
X151973209Y-64252778D01*
X151937471Y-64223448D01*
X151836014Y-64140186D01*
X151752752Y-64038729D01*
X151723422Y-64002991D01*
X151639757Y-63846466D01*
X151588237Y-63676627D01*
X151570841Y-63500000D01*
X151588237Y-63323373D01*
X151639757Y-63153534D01*
X151723422Y-62997009D01*
X151752752Y-62961271D01*
X151836014Y-62859814D01*
X151937471Y-62776552D01*
X151973209Y-62747222D01*
X152129734Y-62663557D01*
X152299573Y-62612037D01*
X152365758Y-62605518D01*
X152431940Y-62599000D01*
X152520460Y-62599000D01*
X152586642Y-62605518D01*
X152586642Y-62605518D01*
G37*
G36*
X157666642Y-62605518D02*
G01*
X157732827Y-62612037D01*
X157902666Y-62663557D01*
X158059191Y-62747222D01*
X158094929Y-62776552D01*
X158196386Y-62859814D01*
X158279648Y-62961271D01*
X158308978Y-62997009D01*
X158392643Y-63153534D01*
X158444163Y-63323373D01*
X158461559Y-63500000D01*
X158444163Y-63676627D01*
X158392643Y-63846466D01*
X158308978Y-64002991D01*
X158279648Y-64038729D01*
X158196386Y-64140186D01*
X158094929Y-64223448D01*
X158059191Y-64252778D01*
X157902666Y-64336443D01*
X157732827Y-64387963D01*
X157666642Y-64394482D01*
X157600460Y-64401000D01*
X157511940Y-64401000D01*
X157445758Y-64394482D01*
X157379573Y-64387963D01*
X157209734Y-64336443D01*
X157053209Y-64252778D01*
X157017471Y-64223448D01*
X156916014Y-64140186D01*
X156832752Y-64038729D01*
X156803422Y-64002991D01*
X156719757Y-63846466D01*
X156668237Y-63676627D01*
X156650841Y-63500000D01*
X156668237Y-63323373D01*
X156719757Y-63153534D01*
X156803422Y-62997009D01*
X156832752Y-62961271D01*
X156916014Y-62859814D01*
X157017471Y-62776552D01*
X157053209Y-62747222D01*
X157209734Y-62663557D01*
X157379573Y-62612037D01*
X157445758Y-62605518D01*
X157511940Y-62599000D01*
X157600460Y-62599000D01*
X157666642Y-62605518D01*
X157666642Y-62605518D01*
G37*
G36*
X127186642Y-62605518D02*
G01*
X127252827Y-62612037D01*
X127422666Y-62663557D01*
X127579191Y-62747222D01*
X127614929Y-62776552D01*
X127716386Y-62859814D01*
X127799648Y-62961271D01*
X127828978Y-62997009D01*
X127912643Y-63153534D01*
X127964163Y-63323373D01*
X127981559Y-63500000D01*
X127964163Y-63676627D01*
X127912643Y-63846466D01*
X127828978Y-64002991D01*
X127799648Y-64038729D01*
X127716386Y-64140186D01*
X127614929Y-64223448D01*
X127579191Y-64252778D01*
X127422666Y-64336443D01*
X127252827Y-64387963D01*
X127186642Y-64394482D01*
X127120460Y-64401000D01*
X127031940Y-64401000D01*
X126965758Y-64394482D01*
X126899573Y-64387963D01*
X126729734Y-64336443D01*
X126573209Y-64252778D01*
X126537471Y-64223448D01*
X126436014Y-64140186D01*
X126352752Y-64038729D01*
X126323422Y-64002991D01*
X126239757Y-63846466D01*
X126188237Y-63676627D01*
X126170841Y-63500000D01*
X126188237Y-63323373D01*
X126239757Y-63153534D01*
X126323422Y-62997009D01*
X126352752Y-62961271D01*
X126436014Y-62859814D01*
X126537471Y-62776552D01*
X126573209Y-62747222D01*
X126729734Y-62663557D01*
X126899573Y-62612037D01*
X126965758Y-62605518D01*
X127031940Y-62599000D01*
X127120460Y-62599000D01*
X127186642Y-62605518D01*
X127186642Y-62605518D01*
G37*
G36*
X155126642Y-62605518D02*
G01*
X155192827Y-62612037D01*
X155362666Y-62663557D01*
X155519191Y-62747222D01*
X155554929Y-62776552D01*
X155656386Y-62859814D01*
X155739648Y-62961271D01*
X155768978Y-62997009D01*
X155852643Y-63153534D01*
X155904163Y-63323373D01*
X155921559Y-63500000D01*
X155904163Y-63676627D01*
X155852643Y-63846466D01*
X155768978Y-64002991D01*
X155739648Y-64038729D01*
X155656386Y-64140186D01*
X155554929Y-64223448D01*
X155519191Y-64252778D01*
X155362666Y-64336443D01*
X155192827Y-64387963D01*
X155126642Y-64394482D01*
X155060460Y-64401000D01*
X154971940Y-64401000D01*
X154905758Y-64394482D01*
X154839573Y-64387963D01*
X154669734Y-64336443D01*
X154513209Y-64252778D01*
X154477471Y-64223448D01*
X154376014Y-64140186D01*
X154292752Y-64038729D01*
X154263422Y-64002991D01*
X154179757Y-63846466D01*
X154128237Y-63676627D01*
X154110841Y-63500000D01*
X154128237Y-63323373D01*
X154179757Y-63153534D01*
X154263422Y-62997009D01*
X154292752Y-62961271D01*
X154376014Y-62859814D01*
X154477471Y-62776552D01*
X154513209Y-62747222D01*
X154669734Y-62663557D01*
X154839573Y-62612037D01*
X154905758Y-62605518D01*
X154971940Y-62599000D01*
X155060460Y-62599000D01*
X155126642Y-62605518D01*
X155126642Y-62605518D01*
G37*
G36*
X162746642Y-62605518D02*
G01*
X162812827Y-62612037D01*
X162982666Y-62663557D01*
X163139191Y-62747222D01*
X163174929Y-62776552D01*
X163276386Y-62859814D01*
X163359648Y-62961271D01*
X163388978Y-62997009D01*
X163472643Y-63153534D01*
X163524163Y-63323373D01*
X163541559Y-63500000D01*
X163524163Y-63676627D01*
X163472643Y-63846466D01*
X163388978Y-64002991D01*
X163359648Y-64038729D01*
X163276386Y-64140186D01*
X163174929Y-64223448D01*
X163139191Y-64252778D01*
X162982666Y-64336443D01*
X162812827Y-64387963D01*
X162746642Y-64394482D01*
X162680460Y-64401000D01*
X162591940Y-64401000D01*
X162525758Y-64394482D01*
X162459573Y-64387963D01*
X162289734Y-64336443D01*
X162133209Y-64252778D01*
X162097471Y-64223448D01*
X161996014Y-64140186D01*
X161912752Y-64038729D01*
X161883422Y-64002991D01*
X161799757Y-63846466D01*
X161748237Y-63676627D01*
X161730841Y-63500000D01*
X161748237Y-63323373D01*
X161799757Y-63153534D01*
X161883422Y-62997009D01*
X161912752Y-62961271D01*
X161996014Y-62859814D01*
X162097471Y-62776552D01*
X162133209Y-62747222D01*
X162289734Y-62663557D01*
X162459573Y-62612037D01*
X162525758Y-62605518D01*
X162591940Y-62599000D01*
X162680460Y-62599000D01*
X162746642Y-62605518D01*
X162746642Y-62605518D01*
G37*
G36*
X134806642Y-62605518D02*
G01*
X134872827Y-62612037D01*
X135042666Y-62663557D01*
X135199191Y-62747222D01*
X135234929Y-62776552D01*
X135336386Y-62859814D01*
X135419648Y-62961271D01*
X135448978Y-62997009D01*
X135532643Y-63153534D01*
X135584163Y-63323373D01*
X135601559Y-63500000D01*
X135584163Y-63676627D01*
X135532643Y-63846466D01*
X135448978Y-64002991D01*
X135419648Y-64038729D01*
X135336386Y-64140186D01*
X135234929Y-64223448D01*
X135199191Y-64252778D01*
X135042666Y-64336443D01*
X134872827Y-64387963D01*
X134806642Y-64394482D01*
X134740460Y-64401000D01*
X134651940Y-64401000D01*
X134585758Y-64394482D01*
X134519573Y-64387963D01*
X134349734Y-64336443D01*
X134193209Y-64252778D01*
X134157471Y-64223448D01*
X134056014Y-64140186D01*
X133972752Y-64038729D01*
X133943422Y-64002991D01*
X133859757Y-63846466D01*
X133808237Y-63676627D01*
X133790841Y-63500000D01*
X133808237Y-63323373D01*
X133859757Y-63153534D01*
X133943422Y-62997009D01*
X133972752Y-62961271D01*
X134056014Y-62859814D01*
X134157471Y-62776552D01*
X134193209Y-62747222D01*
X134349734Y-62663557D01*
X134519573Y-62612037D01*
X134585758Y-62605518D01*
X134651940Y-62599000D01*
X134740460Y-62599000D01*
X134806642Y-62605518D01*
X134806642Y-62605518D01*
G37*
G36*
X104375256Y-59391298D02*
G01*
X104481579Y-59412447D01*
X104782042Y-59536903D01*
X105052451Y-59717585D01*
X105282415Y-59947549D01*
X105463097Y-60217958D01*
X105587553Y-60518421D01*
X105651000Y-60837391D01*
X105651000Y-61162609D01*
X105587553Y-61481579D01*
X105463097Y-61782042D01*
X105282415Y-62052451D01*
X105052451Y-62282415D01*
X104782042Y-62463097D01*
X104481579Y-62587553D01*
X104424031Y-62599000D01*
X104162611Y-62651000D01*
X103837389Y-62651000D01*
X103575969Y-62599000D01*
X103518421Y-62587553D01*
X103217958Y-62463097D01*
X102947549Y-62282415D01*
X102717585Y-62052451D01*
X102536903Y-61782042D01*
X102412447Y-61481579D01*
X102349000Y-61162609D01*
X102349000Y-60837391D01*
X102412447Y-60518421D01*
X102536903Y-60217958D01*
X102717585Y-59947549D01*
X102947549Y-59717585D01*
X103217958Y-59536903D01*
X103518421Y-59412447D01*
X103624744Y-59391298D01*
X103837389Y-59349000D01*
X104162611Y-59349000D01*
X104375256Y-59391298D01*
X104375256Y-59391298D01*
G37*
G36*
X193375256Y-59391298D02*
G01*
X193481579Y-59412447D01*
X193782042Y-59536903D01*
X194052451Y-59717585D01*
X194282415Y-59947549D01*
X194463097Y-60217958D01*
X194587553Y-60518421D01*
X194651000Y-60837391D01*
X194651000Y-61162609D01*
X194587553Y-61481579D01*
X194463097Y-61782042D01*
X194282415Y-62052451D01*
X194052451Y-62282415D01*
X193782042Y-62463097D01*
X193481579Y-62587553D01*
X193424031Y-62599000D01*
X193162611Y-62651000D01*
X192837389Y-62651000D01*
X192575969Y-62599000D01*
X192518421Y-62587553D01*
X192217958Y-62463097D01*
X191947549Y-62282415D01*
X191717585Y-62052451D01*
X191536903Y-61782042D01*
X191412447Y-61481579D01*
X191349000Y-61162609D01*
X191349000Y-60837391D01*
X191412447Y-60518421D01*
X191536903Y-60217958D01*
X191717585Y-59947549D01*
X191947549Y-59717585D01*
X192217958Y-59536903D01*
X192518421Y-59412447D01*
X192624744Y-59391298D01*
X192837389Y-59349000D01*
X193162611Y-59349000D01*
X193375256Y-59391298D01*
X193375256Y-59391298D01*
G37*
G36*
X137346642Y-60065518D02*
G01*
X137412827Y-60072037D01*
X137582666Y-60123557D01*
X137739191Y-60207222D01*
X137752275Y-60217960D01*
X137876386Y-60319814D01*
X137959648Y-60421271D01*
X137988978Y-60457009D01*
X138072643Y-60613534D01*
X138124163Y-60783373D01*
X138141559Y-60960000D01*
X138124163Y-61136627D01*
X138072643Y-61306466D01*
X137988978Y-61462991D01*
X137973724Y-61481578D01*
X137876386Y-61600186D01*
X137774929Y-61683448D01*
X137739191Y-61712778D01*
X137582666Y-61796443D01*
X137412827Y-61847963D01*
X137346643Y-61854481D01*
X137280460Y-61861000D01*
X137191940Y-61861000D01*
X137125757Y-61854481D01*
X137059573Y-61847963D01*
X136889734Y-61796443D01*
X136733209Y-61712778D01*
X136697471Y-61683448D01*
X136596014Y-61600186D01*
X136498676Y-61481578D01*
X136483422Y-61462991D01*
X136399757Y-61306466D01*
X136348237Y-61136627D01*
X136330841Y-60960000D01*
X136348237Y-60783373D01*
X136399757Y-60613534D01*
X136483422Y-60457009D01*
X136512752Y-60421271D01*
X136596014Y-60319814D01*
X136720125Y-60217960D01*
X136733209Y-60207222D01*
X136889734Y-60123557D01*
X137059573Y-60072037D01*
X137125758Y-60065518D01*
X137191940Y-60059000D01*
X137280460Y-60059000D01*
X137346642Y-60065518D01*
X137346642Y-60065518D01*
G37*
G36*
X134806642Y-60065518D02*
G01*
X134872827Y-60072037D01*
X135042666Y-60123557D01*
X135199191Y-60207222D01*
X135212275Y-60217960D01*
X135336386Y-60319814D01*
X135419648Y-60421271D01*
X135448978Y-60457009D01*
X135532643Y-60613534D01*
X135584163Y-60783373D01*
X135601559Y-60960000D01*
X135584163Y-61136627D01*
X135532643Y-61306466D01*
X135448978Y-61462991D01*
X135433724Y-61481578D01*
X135336386Y-61600186D01*
X135234929Y-61683448D01*
X135199191Y-61712778D01*
X135042666Y-61796443D01*
X134872827Y-61847963D01*
X134806643Y-61854481D01*
X134740460Y-61861000D01*
X134651940Y-61861000D01*
X134585757Y-61854481D01*
X134519573Y-61847963D01*
X134349734Y-61796443D01*
X134193209Y-61712778D01*
X134157471Y-61683448D01*
X134056014Y-61600186D01*
X133958676Y-61481578D01*
X133943422Y-61462991D01*
X133859757Y-61306466D01*
X133808237Y-61136627D01*
X133790841Y-60960000D01*
X133808237Y-60783373D01*
X133859757Y-60613534D01*
X133943422Y-60457009D01*
X133972752Y-60421271D01*
X134056014Y-60319814D01*
X134180125Y-60217960D01*
X134193209Y-60207222D01*
X134349734Y-60123557D01*
X134519573Y-60072037D01*
X134585758Y-60065518D01*
X134651940Y-60059000D01*
X134740460Y-60059000D01*
X134806642Y-60065518D01*
X134806642Y-60065518D01*
G37*
G36*
X132266642Y-60065518D02*
G01*
X132332827Y-60072037D01*
X132502666Y-60123557D01*
X132659191Y-60207222D01*
X132672275Y-60217960D01*
X132796386Y-60319814D01*
X132879648Y-60421271D01*
X132908978Y-60457009D01*
X132992643Y-60613534D01*
X133044163Y-60783373D01*
X133061559Y-60960000D01*
X133044163Y-61136627D01*
X132992643Y-61306466D01*
X132908978Y-61462991D01*
X132893724Y-61481578D01*
X132796386Y-61600186D01*
X132694929Y-61683448D01*
X132659191Y-61712778D01*
X132502666Y-61796443D01*
X132332827Y-61847963D01*
X132266643Y-61854481D01*
X132200460Y-61861000D01*
X132111940Y-61861000D01*
X132045757Y-61854481D01*
X131979573Y-61847963D01*
X131809734Y-61796443D01*
X131653209Y-61712778D01*
X131617471Y-61683448D01*
X131516014Y-61600186D01*
X131418676Y-61481578D01*
X131403422Y-61462991D01*
X131319757Y-61306466D01*
X131268237Y-61136627D01*
X131250841Y-60960000D01*
X131268237Y-60783373D01*
X131319757Y-60613534D01*
X131403422Y-60457009D01*
X131432752Y-60421271D01*
X131516014Y-60319814D01*
X131640125Y-60217960D01*
X131653209Y-60207222D01*
X131809734Y-60123557D01*
X131979573Y-60072037D01*
X132045758Y-60065518D01*
X132111940Y-60059000D01*
X132200460Y-60059000D01*
X132266642Y-60065518D01*
X132266642Y-60065518D01*
G37*
G36*
X129726642Y-60065518D02*
G01*
X129792827Y-60072037D01*
X129962666Y-60123557D01*
X130119191Y-60207222D01*
X130132275Y-60217960D01*
X130256386Y-60319814D01*
X130339648Y-60421271D01*
X130368978Y-60457009D01*
X130452643Y-60613534D01*
X130504163Y-60783373D01*
X130521559Y-60960000D01*
X130504163Y-61136627D01*
X130452643Y-61306466D01*
X130368978Y-61462991D01*
X130353724Y-61481578D01*
X130256386Y-61600186D01*
X130154929Y-61683448D01*
X130119191Y-61712778D01*
X129962666Y-61796443D01*
X129792827Y-61847963D01*
X129726643Y-61854481D01*
X129660460Y-61861000D01*
X129571940Y-61861000D01*
X129505757Y-61854481D01*
X129439573Y-61847963D01*
X129269734Y-61796443D01*
X129113209Y-61712778D01*
X129077471Y-61683448D01*
X128976014Y-61600186D01*
X128878676Y-61481578D01*
X128863422Y-61462991D01*
X128779757Y-61306466D01*
X128728237Y-61136627D01*
X128710841Y-60960000D01*
X128728237Y-60783373D01*
X128779757Y-60613534D01*
X128863422Y-60457009D01*
X128892752Y-60421271D01*
X128976014Y-60319814D01*
X129100125Y-60217960D01*
X129113209Y-60207222D01*
X129269734Y-60123557D01*
X129439573Y-60072037D01*
X129505758Y-60065518D01*
X129571940Y-60059000D01*
X129660460Y-60059000D01*
X129726642Y-60065518D01*
X129726642Y-60065518D01*
G37*
G36*
X127186642Y-60065518D02*
G01*
X127252827Y-60072037D01*
X127422666Y-60123557D01*
X127579191Y-60207222D01*
X127592275Y-60217960D01*
X127716386Y-60319814D01*
X127799648Y-60421271D01*
X127828978Y-60457009D01*
X127912643Y-60613534D01*
X127964163Y-60783373D01*
X127981559Y-60960000D01*
X127964163Y-61136627D01*
X127912643Y-61306466D01*
X127828978Y-61462991D01*
X127813724Y-61481578D01*
X127716386Y-61600186D01*
X127614929Y-61683448D01*
X127579191Y-61712778D01*
X127422666Y-61796443D01*
X127252827Y-61847963D01*
X127186643Y-61854481D01*
X127120460Y-61861000D01*
X127031940Y-61861000D01*
X126965757Y-61854481D01*
X126899573Y-61847963D01*
X126729734Y-61796443D01*
X126573209Y-61712778D01*
X126537471Y-61683448D01*
X126436014Y-61600186D01*
X126338676Y-61481578D01*
X126323422Y-61462991D01*
X126239757Y-61306466D01*
X126188237Y-61136627D01*
X126170841Y-60960000D01*
X126188237Y-60783373D01*
X126239757Y-60613534D01*
X126323422Y-60457009D01*
X126352752Y-60421271D01*
X126436014Y-60319814D01*
X126560125Y-60217960D01*
X126573209Y-60207222D01*
X126729734Y-60123557D01*
X126899573Y-60072037D01*
X126965758Y-60065518D01*
X127031940Y-60059000D01*
X127120460Y-60059000D01*
X127186642Y-60065518D01*
X127186642Y-60065518D01*
G37*
G36*
X139886642Y-60065518D02*
G01*
X139952827Y-60072037D01*
X140122666Y-60123557D01*
X140279191Y-60207222D01*
X140292275Y-60217960D01*
X140416386Y-60319814D01*
X140499648Y-60421271D01*
X140528978Y-60457009D01*
X140612643Y-60613534D01*
X140664163Y-60783373D01*
X140681559Y-60960000D01*
X140664163Y-61136627D01*
X140612643Y-61306466D01*
X140528978Y-61462991D01*
X140513724Y-61481578D01*
X140416386Y-61600186D01*
X140314929Y-61683448D01*
X140279191Y-61712778D01*
X140122666Y-61796443D01*
X139952827Y-61847963D01*
X139886643Y-61854481D01*
X139820460Y-61861000D01*
X139731940Y-61861000D01*
X139665757Y-61854481D01*
X139599573Y-61847963D01*
X139429734Y-61796443D01*
X139273209Y-61712778D01*
X139237471Y-61683448D01*
X139136014Y-61600186D01*
X139038676Y-61481578D01*
X139023422Y-61462991D01*
X138939757Y-61306466D01*
X138888237Y-61136627D01*
X138870841Y-60960000D01*
X138888237Y-60783373D01*
X138939757Y-60613534D01*
X139023422Y-60457009D01*
X139052752Y-60421271D01*
X139136014Y-60319814D01*
X139260125Y-60217960D01*
X139273209Y-60207222D01*
X139429734Y-60123557D01*
X139599573Y-60072037D01*
X139665758Y-60065518D01*
X139731940Y-60059000D01*
X139820460Y-60059000D01*
X139886642Y-60065518D01*
X139886642Y-60065518D01*
G37*
G36*
X142426642Y-60065518D02*
G01*
X142492827Y-60072037D01*
X142662666Y-60123557D01*
X142819191Y-60207222D01*
X142832275Y-60217960D01*
X142956386Y-60319814D01*
X143039648Y-60421271D01*
X143068978Y-60457009D01*
X143152643Y-60613534D01*
X143204163Y-60783373D01*
X143221559Y-60960000D01*
X143204163Y-61136627D01*
X143152643Y-61306466D01*
X143068978Y-61462991D01*
X143053724Y-61481578D01*
X142956386Y-61600186D01*
X142854929Y-61683448D01*
X142819191Y-61712778D01*
X142662666Y-61796443D01*
X142492827Y-61847963D01*
X142426643Y-61854481D01*
X142360460Y-61861000D01*
X142271940Y-61861000D01*
X142205757Y-61854481D01*
X142139573Y-61847963D01*
X141969734Y-61796443D01*
X141813209Y-61712778D01*
X141777471Y-61683448D01*
X141676014Y-61600186D01*
X141578676Y-61481578D01*
X141563422Y-61462991D01*
X141479757Y-61306466D01*
X141428237Y-61136627D01*
X141410841Y-60960000D01*
X141428237Y-60783373D01*
X141479757Y-60613534D01*
X141563422Y-60457009D01*
X141592752Y-60421271D01*
X141676014Y-60319814D01*
X141800125Y-60217960D01*
X141813209Y-60207222D01*
X141969734Y-60123557D01*
X142139573Y-60072037D01*
X142205758Y-60065518D01*
X142271940Y-60059000D01*
X142360460Y-60059000D01*
X142426642Y-60065518D01*
X142426642Y-60065518D01*
G37*
G36*
X144966642Y-60065518D02*
G01*
X145032827Y-60072037D01*
X145202666Y-60123557D01*
X145359191Y-60207222D01*
X145372275Y-60217960D01*
X145496386Y-60319814D01*
X145579648Y-60421271D01*
X145608978Y-60457009D01*
X145692643Y-60613534D01*
X145744163Y-60783373D01*
X145761559Y-60960000D01*
X145744163Y-61136627D01*
X145692643Y-61306466D01*
X145608978Y-61462991D01*
X145593724Y-61481578D01*
X145496386Y-61600186D01*
X145394929Y-61683448D01*
X145359191Y-61712778D01*
X145202666Y-61796443D01*
X145032827Y-61847963D01*
X144966643Y-61854481D01*
X144900460Y-61861000D01*
X144811940Y-61861000D01*
X144745757Y-61854481D01*
X144679573Y-61847963D01*
X144509734Y-61796443D01*
X144353209Y-61712778D01*
X144317471Y-61683448D01*
X144216014Y-61600186D01*
X144118676Y-61481578D01*
X144103422Y-61462991D01*
X144019757Y-61306466D01*
X143968237Y-61136627D01*
X143950841Y-60960000D01*
X143968237Y-60783373D01*
X144019757Y-60613534D01*
X144103422Y-60457009D01*
X144132752Y-60421271D01*
X144216014Y-60319814D01*
X144340125Y-60217960D01*
X144353209Y-60207222D01*
X144509734Y-60123557D01*
X144679573Y-60072037D01*
X144745758Y-60065518D01*
X144811940Y-60059000D01*
X144900460Y-60059000D01*
X144966642Y-60065518D01*
X144966642Y-60065518D01*
G37*
G36*
X147506642Y-60065518D02*
G01*
X147572827Y-60072037D01*
X147742666Y-60123557D01*
X147899191Y-60207222D01*
X147912275Y-60217960D01*
X148036386Y-60319814D01*
X148119648Y-60421271D01*
X148148978Y-60457009D01*
X148232643Y-60613534D01*
X148284163Y-60783373D01*
X148301559Y-60960000D01*
X148284163Y-61136627D01*
X148232643Y-61306466D01*
X148148978Y-61462991D01*
X148133724Y-61481578D01*
X148036386Y-61600186D01*
X147934929Y-61683448D01*
X147899191Y-61712778D01*
X147742666Y-61796443D01*
X147572827Y-61847963D01*
X147506643Y-61854481D01*
X147440460Y-61861000D01*
X147351940Y-61861000D01*
X147285757Y-61854481D01*
X147219573Y-61847963D01*
X147049734Y-61796443D01*
X146893209Y-61712778D01*
X146857471Y-61683448D01*
X146756014Y-61600186D01*
X146658676Y-61481578D01*
X146643422Y-61462991D01*
X146559757Y-61306466D01*
X146508237Y-61136627D01*
X146490841Y-60960000D01*
X146508237Y-60783373D01*
X146559757Y-60613534D01*
X146643422Y-60457009D01*
X146672752Y-60421271D01*
X146756014Y-60319814D01*
X146880125Y-60217960D01*
X146893209Y-60207222D01*
X147049734Y-60123557D01*
X147219573Y-60072037D01*
X147285758Y-60065518D01*
X147351940Y-60059000D01*
X147440460Y-60059000D01*
X147506642Y-60065518D01*
X147506642Y-60065518D01*
G37*
G36*
X150046642Y-60065518D02*
G01*
X150112827Y-60072037D01*
X150282666Y-60123557D01*
X150439191Y-60207222D01*
X150452275Y-60217960D01*
X150576386Y-60319814D01*
X150659648Y-60421271D01*
X150688978Y-60457009D01*
X150772643Y-60613534D01*
X150824163Y-60783373D01*
X150841559Y-60960000D01*
X150824163Y-61136627D01*
X150772643Y-61306466D01*
X150688978Y-61462991D01*
X150673724Y-61481578D01*
X150576386Y-61600186D01*
X150474929Y-61683448D01*
X150439191Y-61712778D01*
X150282666Y-61796443D01*
X150112827Y-61847963D01*
X150046643Y-61854481D01*
X149980460Y-61861000D01*
X149891940Y-61861000D01*
X149825757Y-61854481D01*
X149759573Y-61847963D01*
X149589734Y-61796443D01*
X149433209Y-61712778D01*
X149397471Y-61683448D01*
X149296014Y-61600186D01*
X149198676Y-61481578D01*
X149183422Y-61462991D01*
X149099757Y-61306466D01*
X149048237Y-61136627D01*
X149030841Y-60960000D01*
X149048237Y-60783373D01*
X149099757Y-60613534D01*
X149183422Y-60457009D01*
X149212752Y-60421271D01*
X149296014Y-60319814D01*
X149420125Y-60217960D01*
X149433209Y-60207222D01*
X149589734Y-60123557D01*
X149759573Y-60072037D01*
X149825758Y-60065518D01*
X149891940Y-60059000D01*
X149980460Y-60059000D01*
X150046642Y-60065518D01*
X150046642Y-60065518D01*
G37*
G36*
X155126642Y-60065518D02*
G01*
X155192827Y-60072037D01*
X155362666Y-60123557D01*
X155519191Y-60207222D01*
X155532275Y-60217960D01*
X155656386Y-60319814D01*
X155739648Y-60421271D01*
X155768978Y-60457009D01*
X155852643Y-60613534D01*
X155904163Y-60783373D01*
X155921559Y-60960000D01*
X155904163Y-61136627D01*
X155852643Y-61306466D01*
X155768978Y-61462991D01*
X155753724Y-61481578D01*
X155656386Y-61600186D01*
X155554929Y-61683448D01*
X155519191Y-61712778D01*
X155362666Y-61796443D01*
X155192827Y-61847963D01*
X155126643Y-61854481D01*
X155060460Y-61861000D01*
X154971940Y-61861000D01*
X154905757Y-61854481D01*
X154839573Y-61847963D01*
X154669734Y-61796443D01*
X154513209Y-61712778D01*
X154477471Y-61683448D01*
X154376014Y-61600186D01*
X154278676Y-61481578D01*
X154263422Y-61462991D01*
X154179757Y-61306466D01*
X154128237Y-61136627D01*
X154110841Y-60960000D01*
X154128237Y-60783373D01*
X154179757Y-60613534D01*
X154263422Y-60457009D01*
X154292752Y-60421271D01*
X154376014Y-60319814D01*
X154500125Y-60217960D01*
X154513209Y-60207222D01*
X154669734Y-60123557D01*
X154839573Y-60072037D01*
X154905758Y-60065518D01*
X154971940Y-60059000D01*
X155060460Y-60059000D01*
X155126642Y-60065518D01*
X155126642Y-60065518D01*
G37*
G36*
X157666642Y-60065518D02*
G01*
X157732827Y-60072037D01*
X157902666Y-60123557D01*
X158059191Y-60207222D01*
X158072275Y-60217960D01*
X158196386Y-60319814D01*
X158279648Y-60421271D01*
X158308978Y-60457009D01*
X158392643Y-60613534D01*
X158444163Y-60783373D01*
X158461559Y-60960000D01*
X158444163Y-61136627D01*
X158392643Y-61306466D01*
X158308978Y-61462991D01*
X158293724Y-61481578D01*
X158196386Y-61600186D01*
X158094929Y-61683448D01*
X158059191Y-61712778D01*
X157902666Y-61796443D01*
X157732827Y-61847963D01*
X157666643Y-61854481D01*
X157600460Y-61861000D01*
X157511940Y-61861000D01*
X157445757Y-61854481D01*
X157379573Y-61847963D01*
X157209734Y-61796443D01*
X157053209Y-61712778D01*
X157017471Y-61683448D01*
X156916014Y-61600186D01*
X156818676Y-61481578D01*
X156803422Y-61462991D01*
X156719757Y-61306466D01*
X156668237Y-61136627D01*
X156650841Y-60960000D01*
X156668237Y-60783373D01*
X156719757Y-60613534D01*
X156803422Y-60457009D01*
X156832752Y-60421271D01*
X156916014Y-60319814D01*
X157040125Y-60217960D01*
X157053209Y-60207222D01*
X157209734Y-60123557D01*
X157379573Y-60072037D01*
X157445758Y-60065518D01*
X157511940Y-60059000D01*
X157600460Y-60059000D01*
X157666642Y-60065518D01*
X157666642Y-60065518D01*
G37*
G36*
X160206642Y-60065518D02*
G01*
X160272827Y-60072037D01*
X160442666Y-60123557D01*
X160599191Y-60207222D01*
X160612275Y-60217960D01*
X160736386Y-60319814D01*
X160819648Y-60421271D01*
X160848978Y-60457009D01*
X160932643Y-60613534D01*
X160984163Y-60783373D01*
X161001559Y-60960000D01*
X160984163Y-61136627D01*
X160932643Y-61306466D01*
X160848978Y-61462991D01*
X160833724Y-61481578D01*
X160736386Y-61600186D01*
X160634929Y-61683448D01*
X160599191Y-61712778D01*
X160442666Y-61796443D01*
X160272827Y-61847963D01*
X160206643Y-61854481D01*
X160140460Y-61861000D01*
X160051940Y-61861000D01*
X159985757Y-61854481D01*
X159919573Y-61847963D01*
X159749734Y-61796443D01*
X159593209Y-61712778D01*
X159557471Y-61683448D01*
X159456014Y-61600186D01*
X159358676Y-61481578D01*
X159343422Y-61462991D01*
X159259757Y-61306466D01*
X159208237Y-61136627D01*
X159190841Y-60960000D01*
X159208237Y-60783373D01*
X159259757Y-60613534D01*
X159343422Y-60457009D01*
X159372752Y-60421271D01*
X159456014Y-60319814D01*
X159580125Y-60217960D01*
X159593209Y-60207222D01*
X159749734Y-60123557D01*
X159919573Y-60072037D01*
X159985758Y-60065518D01*
X160051940Y-60059000D01*
X160140460Y-60059000D01*
X160206642Y-60065518D01*
X160206642Y-60065518D01*
G37*
G36*
X162746642Y-60065518D02*
G01*
X162812827Y-60072037D01*
X162982666Y-60123557D01*
X163139191Y-60207222D01*
X163152275Y-60217960D01*
X163276386Y-60319814D01*
X163359648Y-60421271D01*
X163388978Y-60457009D01*
X163472643Y-60613534D01*
X163524163Y-60783373D01*
X163541559Y-60960000D01*
X163524163Y-61136627D01*
X163472643Y-61306466D01*
X163388978Y-61462991D01*
X163373724Y-61481578D01*
X163276386Y-61600186D01*
X163174929Y-61683448D01*
X163139191Y-61712778D01*
X162982666Y-61796443D01*
X162812827Y-61847963D01*
X162746643Y-61854481D01*
X162680460Y-61861000D01*
X162591940Y-61861000D01*
X162525757Y-61854481D01*
X162459573Y-61847963D01*
X162289734Y-61796443D01*
X162133209Y-61712778D01*
X162097471Y-61683448D01*
X161996014Y-61600186D01*
X161898676Y-61481578D01*
X161883422Y-61462991D01*
X161799757Y-61306466D01*
X161748237Y-61136627D01*
X161730841Y-60960000D01*
X161748237Y-60783373D01*
X161799757Y-60613534D01*
X161883422Y-60457009D01*
X161912752Y-60421271D01*
X161996014Y-60319814D01*
X162120125Y-60217960D01*
X162133209Y-60207222D01*
X162289734Y-60123557D01*
X162459573Y-60072037D01*
X162525758Y-60065518D01*
X162591940Y-60059000D01*
X162680460Y-60059000D01*
X162746642Y-60065518D01*
X162746642Y-60065518D01*
G37*
G36*
X165286642Y-60065518D02*
G01*
X165352827Y-60072037D01*
X165522666Y-60123557D01*
X165679191Y-60207222D01*
X165692275Y-60217960D01*
X165816386Y-60319814D01*
X165899648Y-60421271D01*
X165928978Y-60457009D01*
X166012643Y-60613534D01*
X166064163Y-60783373D01*
X166081559Y-60960000D01*
X166064163Y-61136627D01*
X166012643Y-61306466D01*
X165928978Y-61462991D01*
X165913724Y-61481578D01*
X165816386Y-61600186D01*
X165714929Y-61683448D01*
X165679191Y-61712778D01*
X165522666Y-61796443D01*
X165352827Y-61847963D01*
X165286643Y-61854481D01*
X165220460Y-61861000D01*
X165131940Y-61861000D01*
X165065757Y-61854481D01*
X164999573Y-61847963D01*
X164829734Y-61796443D01*
X164673209Y-61712778D01*
X164637471Y-61683448D01*
X164536014Y-61600186D01*
X164438676Y-61481578D01*
X164423422Y-61462991D01*
X164339757Y-61306466D01*
X164288237Y-61136627D01*
X164270841Y-60960000D01*
X164288237Y-60783373D01*
X164339757Y-60613534D01*
X164423422Y-60457009D01*
X164452752Y-60421271D01*
X164536014Y-60319814D01*
X164660125Y-60217960D01*
X164673209Y-60207222D01*
X164829734Y-60123557D01*
X164999573Y-60072037D01*
X165065758Y-60065518D01*
X165131940Y-60059000D01*
X165220460Y-60059000D01*
X165286642Y-60065518D01*
X165286642Y-60065518D01*
G37*
G36*
X170366642Y-60065518D02*
G01*
X170432827Y-60072037D01*
X170602666Y-60123557D01*
X170759191Y-60207222D01*
X170772275Y-60217960D01*
X170896386Y-60319814D01*
X170979648Y-60421271D01*
X171008978Y-60457009D01*
X171092643Y-60613534D01*
X171144163Y-60783373D01*
X171161559Y-60960000D01*
X171144163Y-61136627D01*
X171092643Y-61306466D01*
X171008978Y-61462991D01*
X170993724Y-61481578D01*
X170896386Y-61600186D01*
X170794929Y-61683448D01*
X170759191Y-61712778D01*
X170602666Y-61796443D01*
X170432827Y-61847963D01*
X170366643Y-61854481D01*
X170300460Y-61861000D01*
X170211940Y-61861000D01*
X170145757Y-61854481D01*
X170079573Y-61847963D01*
X169909734Y-61796443D01*
X169753209Y-61712778D01*
X169717471Y-61683448D01*
X169616014Y-61600186D01*
X169518676Y-61481578D01*
X169503422Y-61462991D01*
X169419757Y-61306466D01*
X169368237Y-61136627D01*
X169350841Y-60960000D01*
X169368237Y-60783373D01*
X169419757Y-60613534D01*
X169503422Y-60457009D01*
X169532752Y-60421271D01*
X169616014Y-60319814D01*
X169740125Y-60217960D01*
X169753209Y-60207222D01*
X169909734Y-60123557D01*
X170079573Y-60072037D01*
X170145758Y-60065518D01*
X170211940Y-60059000D01*
X170300460Y-60059000D01*
X170366642Y-60065518D01*
X170366642Y-60065518D01*
G37*
G36*
X172906642Y-60065518D02*
G01*
X172972827Y-60072037D01*
X173142666Y-60123557D01*
X173299191Y-60207222D01*
X173312275Y-60217960D01*
X173436386Y-60319814D01*
X173519648Y-60421271D01*
X173548978Y-60457009D01*
X173632643Y-60613534D01*
X173684163Y-60783373D01*
X173701559Y-60960000D01*
X173684163Y-61136627D01*
X173632643Y-61306466D01*
X173548978Y-61462991D01*
X173533724Y-61481578D01*
X173436386Y-61600186D01*
X173334929Y-61683448D01*
X173299191Y-61712778D01*
X173142666Y-61796443D01*
X172972827Y-61847963D01*
X172906643Y-61854481D01*
X172840460Y-61861000D01*
X172751940Y-61861000D01*
X172685757Y-61854481D01*
X172619573Y-61847963D01*
X172449734Y-61796443D01*
X172293209Y-61712778D01*
X172257471Y-61683448D01*
X172156014Y-61600186D01*
X172058676Y-61481578D01*
X172043422Y-61462991D01*
X171959757Y-61306466D01*
X171908237Y-61136627D01*
X171890841Y-60960000D01*
X171908237Y-60783373D01*
X171959757Y-60613534D01*
X172043422Y-60457009D01*
X172072752Y-60421271D01*
X172156014Y-60319814D01*
X172280125Y-60217960D01*
X172293209Y-60207222D01*
X172449734Y-60123557D01*
X172619573Y-60072037D01*
X172685758Y-60065518D01*
X172751940Y-60059000D01*
X172840460Y-60059000D01*
X172906642Y-60065518D01*
X172906642Y-60065518D01*
G37*
G36*
X176237200Y-61861000D02*
G01*
X174435200Y-61861000D01*
X174435200Y-60059000D01*
X176237200Y-60059000D01*
X176237200Y-61861000D01*
X176237200Y-61861000D01*
G37*
G36*
X152586642Y-60065518D02*
G01*
X152652827Y-60072037D01*
X152822666Y-60123557D01*
X152979191Y-60207222D01*
X152992275Y-60217960D01*
X153116386Y-60319814D01*
X153199648Y-60421271D01*
X153228978Y-60457009D01*
X153312643Y-60613534D01*
X153364163Y-60783373D01*
X153381559Y-60960000D01*
X153364163Y-61136627D01*
X153312643Y-61306466D01*
X153228978Y-61462991D01*
X153213724Y-61481578D01*
X153116386Y-61600186D01*
X153014929Y-61683448D01*
X152979191Y-61712778D01*
X152822666Y-61796443D01*
X152652827Y-61847963D01*
X152586643Y-61854481D01*
X152520460Y-61861000D01*
X152431940Y-61861000D01*
X152365757Y-61854481D01*
X152299573Y-61847963D01*
X152129734Y-61796443D01*
X151973209Y-61712778D01*
X151937471Y-61683448D01*
X151836014Y-61600186D01*
X151738676Y-61481578D01*
X151723422Y-61462991D01*
X151639757Y-61306466D01*
X151588237Y-61136627D01*
X151570841Y-60960000D01*
X151588237Y-60783373D01*
X151639757Y-60613534D01*
X151723422Y-60457009D01*
X151752752Y-60421271D01*
X151836014Y-60319814D01*
X151960125Y-60217960D01*
X151973209Y-60207222D01*
X152129734Y-60123557D01*
X152299573Y-60072037D01*
X152365758Y-60065518D01*
X152431940Y-60059000D01*
X152520460Y-60059000D01*
X152586642Y-60065518D01*
X152586642Y-60065518D01*
G37*
G36*
X167826642Y-60065518D02*
G01*
X167892827Y-60072037D01*
X168062666Y-60123557D01*
X168219191Y-60207222D01*
X168232275Y-60217960D01*
X168356386Y-60319814D01*
X168439648Y-60421271D01*
X168468978Y-60457009D01*
X168552643Y-60613534D01*
X168604163Y-60783373D01*
X168621559Y-60960000D01*
X168604163Y-61136627D01*
X168552643Y-61306466D01*
X168468978Y-61462991D01*
X168453724Y-61481578D01*
X168356386Y-61600186D01*
X168254929Y-61683448D01*
X168219191Y-61712778D01*
X168062666Y-61796443D01*
X167892827Y-61847963D01*
X167826643Y-61854481D01*
X167760460Y-61861000D01*
X167671940Y-61861000D01*
X167605757Y-61854481D01*
X167539573Y-61847963D01*
X167369734Y-61796443D01*
X167213209Y-61712778D01*
X167177471Y-61683448D01*
X167076014Y-61600186D01*
X166978676Y-61481578D01*
X166963422Y-61462991D01*
X166879757Y-61306466D01*
X166828237Y-61136627D01*
X166810841Y-60960000D01*
X166828237Y-60783373D01*
X166879757Y-60613534D01*
X166963422Y-60457009D01*
X166992752Y-60421271D01*
X167076014Y-60319814D01*
X167200125Y-60217960D01*
X167213209Y-60207222D01*
X167369734Y-60123557D01*
X167539573Y-60072037D01*
X167605758Y-60065518D01*
X167671940Y-60059000D01*
X167760460Y-60059000D01*
X167826642Y-60065518D01*
X167826642Y-60065518D01*
G37*
M02*
