G04 #@! TF.GenerationSoftware,KiCad,Pcbnew,(5.1.2)-1*
G04 #@! TF.CreationDate,2020-02-28T22:39:46+09:00*
G04 #@! TF.ProjectId,o2_breakout,6f325f62-7265-4616-9b6f-75742e6b6963,rev?*
G04 #@! TF.SameCoordinates,Original*
G04 #@! TF.FileFunction,Soldermask,Top*
G04 #@! TF.FilePolarity,Negative*
%FSLAX46Y46*%
G04 Gerber Fmt 4.6, Leading zero omitted, Abs format (unit mm)*
G04 Created by KiCad (PCBNEW (5.1.2)-1) date 2020-02-28 22:39:46*
%MOMM*%
%LPD*%
G04 APERTURE LIST*
%ADD10C,0.100000*%
G04 APERTURE END LIST*
D10*
G36*
X110947200Y-108534200D02*
G01*
X109093000Y-108534200D01*
X109093000Y-107746800D01*
X110947200Y-107746800D01*
X110947200Y-108534200D01*
G37*
G36*
X184759600Y-98653600D02*
G01*
X183591200Y-98653600D01*
X183591200Y-95986600D01*
X184759600Y-95986600D01*
X184759600Y-98653600D01*
G37*
G36*
X156232860Y-120484900D02*
G01*
X151406860Y-120484900D01*
X151406860Y-118198900D01*
X156232860Y-118198900D01*
X156232860Y-120484900D01*
G37*
G36*
X192706700Y-108244900D02*
G01*
X193265500Y-108244900D01*
X193268600Y-109245400D01*
X190576200Y-109245400D01*
X190576200Y-107035600D01*
X192709800Y-107035600D01*
X192706700Y-108244900D01*
G37*
G36*
X193063850Y-101741100D02*
G01*
X192755950Y-101743900D01*
X192757500Y-103025200D01*
X190601600Y-103022400D01*
X190598500Y-100790000D01*
X193062300Y-100790000D01*
X193063850Y-101741100D01*
G37*
G36*
X192084400Y-106542400D02*
G01*
X190217500Y-106543800D01*
X190217500Y-105831899D01*
X190538101Y-105829102D01*
X190538100Y-105359200D01*
X190217500Y-105359198D01*
X190219472Y-103431600D01*
X192087501Y-103431600D01*
X192084400Y-106542400D01*
G37*
G36*
X180340000Y-87350600D02*
G01*
X179019200Y-87350600D01*
X179019200Y-77876400D01*
X180340000Y-77876400D01*
X180340000Y-87350600D01*
G37*
X180340000Y-87350600D02*
X179019200Y-87350600D01*
X179019200Y-77876400D01*
X180340000Y-77876400D01*
X180340000Y-87350600D01*
G36*
X179574900Y-111089700D02*
G01*
X178152500Y-111089700D01*
X178152500Y-105247700D01*
X179574900Y-105247700D01*
X179574900Y-111089700D01*
G37*
X179574900Y-111089700D02*
X178152500Y-111089700D01*
X178152500Y-105247700D01*
X179574900Y-105247700D01*
X179574900Y-111089700D01*
G36*
X177733400Y-112956600D02*
G01*
X171854430Y-112956600D01*
X171852170Y-111534200D01*
X177733400Y-111534200D01*
X177733400Y-112956600D01*
G37*
X177733400Y-112956600D02*
X171854430Y-112956600D01*
X171852170Y-111534200D01*
X177733400Y-111534200D01*
X177733400Y-112956600D01*
G36*
X177708000Y-104803200D02*
G01*
X171853300Y-104809550D01*
X171853300Y-103374450D01*
X177708000Y-103368100D01*
X177708000Y-104803200D01*
G37*
X177708000Y-104803200D02*
X171853300Y-104809550D01*
X171853300Y-103374450D01*
X177708000Y-103368100D01*
X177708000Y-104803200D01*
G36*
X171421500Y-111089700D02*
G01*
X169992040Y-111089700D01*
X169995570Y-105235000D01*
X171425030Y-105235000D01*
X171421500Y-111089700D01*
G37*
X171421500Y-111089700D02*
X169992040Y-111089700D01*
X169995570Y-105235000D01*
X171425030Y-105235000D01*
X171421500Y-111089700D01*
G36*
X135607500Y-108092500D02*
G01*
X134107192Y-108093454D01*
X134110609Y-95625921D01*
X135607500Y-95621100D01*
X135607500Y-108092500D01*
G37*
X135607500Y-108092500D02*
X134107192Y-108093454D01*
X134110609Y-95625921D01*
X135607500Y-95621100D01*
X135607500Y-108092500D01*
G36*
X133386270Y-110312460D02*
G01*
X120914870Y-110312460D01*
X120912330Y-108793540D01*
X133383730Y-108793540D01*
X133386270Y-110312460D01*
G37*
X133386270Y-110312460D02*
X120914870Y-110312460D01*
X120912330Y-108793540D01*
X133383730Y-108793540D01*
X133386270Y-110312460D01*
G36*
X120210580Y-108117900D02*
G01*
X118694200Y-108117900D01*
X118694910Y-95608400D01*
X120211290Y-95608400D01*
X120210580Y-108117900D01*
G37*
X120210580Y-108117900D02*
X118694200Y-108117900D01*
X118694910Y-95608400D01*
X120211290Y-95608400D01*
X120210580Y-108117900D01*
G36*
X133388175Y-94909900D02*
G01*
X120910425Y-94909900D01*
X120907250Y-93411300D01*
X133385000Y-93411300D01*
X133388175Y-94909900D01*
G37*
X133388175Y-94909900D02*
X120910425Y-94909900D01*
X120907250Y-93411300D01*
X133385000Y-93411300D01*
X133388175Y-94909900D01*
G36*
X193375256Y-125391298D02*
G01*
X193481579Y-125412447D01*
X193782042Y-125536903D01*
X194052451Y-125717585D01*
X194282415Y-125947549D01*
X194463097Y-126217958D01*
X194587553Y-126518421D01*
X194651000Y-126837391D01*
X194651000Y-127162609D01*
X194587553Y-127481579D01*
X194521856Y-127640185D01*
X194467489Y-127771440D01*
X194463097Y-127782042D01*
X194282415Y-128052451D01*
X194052451Y-128282415D01*
X193782042Y-128463097D01*
X193481579Y-128587553D01*
X193375256Y-128608702D01*
X193162611Y-128651000D01*
X192837389Y-128651000D01*
X192624744Y-128608702D01*
X192518421Y-128587553D01*
X192217958Y-128463097D01*
X191947549Y-128282415D01*
X191717585Y-128052451D01*
X191536903Y-127782042D01*
X191532512Y-127771440D01*
X191478144Y-127640185D01*
X191412447Y-127481579D01*
X191349000Y-127162609D01*
X191349000Y-126837391D01*
X191412447Y-126518421D01*
X191536903Y-126217958D01*
X191717585Y-125947549D01*
X191947549Y-125717585D01*
X192217958Y-125536903D01*
X192518421Y-125412447D01*
X192624744Y-125391298D01*
X192837389Y-125349000D01*
X193162611Y-125349000D01*
X193375256Y-125391298D01*
X193375256Y-125391298D01*
G37*
G36*
X104375256Y-125391298D02*
G01*
X104481579Y-125412447D01*
X104782042Y-125536903D01*
X105052451Y-125717585D01*
X105282415Y-125947549D01*
X105463097Y-126217958D01*
X105587553Y-126518421D01*
X105651000Y-126837391D01*
X105651000Y-127162609D01*
X105587553Y-127481579D01*
X105521856Y-127640185D01*
X105467489Y-127771440D01*
X105463097Y-127782042D01*
X105282415Y-128052451D01*
X105052451Y-128282415D01*
X104782042Y-128463097D01*
X104481579Y-128587553D01*
X104375256Y-128608702D01*
X104162611Y-128651000D01*
X103837389Y-128651000D01*
X103624744Y-128608702D01*
X103518421Y-128587553D01*
X103217958Y-128463097D01*
X102947549Y-128282415D01*
X102717585Y-128052451D01*
X102536903Y-127782042D01*
X102532512Y-127771440D01*
X102478144Y-127640185D01*
X102412447Y-127481579D01*
X102349000Y-127162609D01*
X102349000Y-126837391D01*
X102412447Y-126518421D01*
X102536903Y-126217958D01*
X102717585Y-125947549D01*
X102947549Y-125717585D01*
X103217958Y-125536903D01*
X103518421Y-125412447D01*
X103624744Y-125391298D01*
X103837389Y-125349000D01*
X104162611Y-125349000D01*
X104375256Y-125391298D01*
X104375256Y-125391298D01*
G37*
G36*
X127977200Y-127901000D02*
G01*
X126175200Y-127901000D01*
X126175200Y-126099000D01*
X127977200Y-126099000D01*
X127977200Y-127901000D01*
X127977200Y-127901000D01*
G37*
G36*
X155126643Y-126105519D02*
G01*
X155192827Y-126112037D01*
X155362666Y-126163557D01*
X155519191Y-126247222D01*
X155554929Y-126276552D01*
X155656386Y-126359814D01*
X155739648Y-126461271D01*
X155768978Y-126497009D01*
X155852643Y-126653534D01*
X155904163Y-126823373D01*
X155921559Y-127000000D01*
X155904163Y-127176627D01*
X155852643Y-127346466D01*
X155768978Y-127502991D01*
X155739648Y-127538729D01*
X155656386Y-127640186D01*
X155554929Y-127723448D01*
X155519191Y-127752778D01*
X155362666Y-127836443D01*
X155192827Y-127887963D01*
X155126642Y-127894482D01*
X155060460Y-127901000D01*
X154971940Y-127901000D01*
X154905758Y-127894482D01*
X154839573Y-127887963D01*
X154669734Y-127836443D01*
X154513209Y-127752778D01*
X154477471Y-127723448D01*
X154376014Y-127640186D01*
X154292752Y-127538729D01*
X154263422Y-127502991D01*
X154179757Y-127346466D01*
X154128237Y-127176627D01*
X154110841Y-127000000D01*
X154128237Y-126823373D01*
X154179757Y-126653534D01*
X154263422Y-126497009D01*
X154292752Y-126461271D01*
X154376014Y-126359814D01*
X154477471Y-126276552D01*
X154513209Y-126247222D01*
X154669734Y-126163557D01*
X154839573Y-126112037D01*
X154905757Y-126105519D01*
X154971940Y-126099000D01*
X155060460Y-126099000D01*
X155126643Y-126105519D01*
X155126643Y-126105519D01*
G37*
G36*
X132266643Y-126105519D02*
G01*
X132332827Y-126112037D01*
X132502666Y-126163557D01*
X132659191Y-126247222D01*
X132694929Y-126276552D01*
X132796386Y-126359814D01*
X132879648Y-126461271D01*
X132908978Y-126497009D01*
X132992643Y-126653534D01*
X133044163Y-126823373D01*
X133061559Y-127000000D01*
X133044163Y-127176627D01*
X132992643Y-127346466D01*
X132908978Y-127502991D01*
X132879648Y-127538729D01*
X132796386Y-127640186D01*
X132694929Y-127723448D01*
X132659191Y-127752778D01*
X132502666Y-127836443D01*
X132332827Y-127887963D01*
X132266642Y-127894482D01*
X132200460Y-127901000D01*
X132111940Y-127901000D01*
X132045758Y-127894482D01*
X131979573Y-127887963D01*
X131809734Y-127836443D01*
X131653209Y-127752778D01*
X131617471Y-127723448D01*
X131516014Y-127640186D01*
X131432752Y-127538729D01*
X131403422Y-127502991D01*
X131319757Y-127346466D01*
X131268237Y-127176627D01*
X131250841Y-127000000D01*
X131268237Y-126823373D01*
X131319757Y-126653534D01*
X131403422Y-126497009D01*
X131432752Y-126461271D01*
X131516014Y-126359814D01*
X131617471Y-126276552D01*
X131653209Y-126247222D01*
X131809734Y-126163557D01*
X131979573Y-126112037D01*
X132045757Y-126105519D01*
X132111940Y-126099000D01*
X132200460Y-126099000D01*
X132266643Y-126105519D01*
X132266643Y-126105519D01*
G37*
G36*
X134806643Y-126105519D02*
G01*
X134872827Y-126112037D01*
X135042666Y-126163557D01*
X135199191Y-126247222D01*
X135234929Y-126276552D01*
X135336386Y-126359814D01*
X135419648Y-126461271D01*
X135448978Y-126497009D01*
X135532643Y-126653534D01*
X135584163Y-126823373D01*
X135601559Y-127000000D01*
X135584163Y-127176627D01*
X135532643Y-127346466D01*
X135448978Y-127502991D01*
X135419648Y-127538729D01*
X135336386Y-127640186D01*
X135234929Y-127723448D01*
X135199191Y-127752778D01*
X135042666Y-127836443D01*
X134872827Y-127887963D01*
X134806642Y-127894482D01*
X134740460Y-127901000D01*
X134651940Y-127901000D01*
X134585758Y-127894482D01*
X134519573Y-127887963D01*
X134349734Y-127836443D01*
X134193209Y-127752778D01*
X134157471Y-127723448D01*
X134056014Y-127640186D01*
X133972752Y-127538729D01*
X133943422Y-127502991D01*
X133859757Y-127346466D01*
X133808237Y-127176627D01*
X133790841Y-127000000D01*
X133808237Y-126823373D01*
X133859757Y-126653534D01*
X133943422Y-126497009D01*
X133972752Y-126461271D01*
X134056014Y-126359814D01*
X134157471Y-126276552D01*
X134193209Y-126247222D01*
X134349734Y-126163557D01*
X134519573Y-126112037D01*
X134585757Y-126105519D01*
X134651940Y-126099000D01*
X134740460Y-126099000D01*
X134806643Y-126105519D01*
X134806643Y-126105519D01*
G37*
G36*
X137346643Y-126105519D02*
G01*
X137412827Y-126112037D01*
X137582666Y-126163557D01*
X137739191Y-126247222D01*
X137774929Y-126276552D01*
X137876386Y-126359814D01*
X137959648Y-126461271D01*
X137988978Y-126497009D01*
X138072643Y-126653534D01*
X138124163Y-126823373D01*
X138141559Y-127000000D01*
X138124163Y-127176627D01*
X138072643Y-127346466D01*
X137988978Y-127502991D01*
X137959648Y-127538729D01*
X137876386Y-127640186D01*
X137774929Y-127723448D01*
X137739191Y-127752778D01*
X137582666Y-127836443D01*
X137412827Y-127887963D01*
X137346642Y-127894482D01*
X137280460Y-127901000D01*
X137191940Y-127901000D01*
X137125758Y-127894482D01*
X137059573Y-127887963D01*
X136889734Y-127836443D01*
X136733209Y-127752778D01*
X136697471Y-127723448D01*
X136596014Y-127640186D01*
X136512752Y-127538729D01*
X136483422Y-127502991D01*
X136399757Y-127346466D01*
X136348237Y-127176627D01*
X136330841Y-127000000D01*
X136348237Y-126823373D01*
X136399757Y-126653534D01*
X136483422Y-126497009D01*
X136512752Y-126461271D01*
X136596014Y-126359814D01*
X136697471Y-126276552D01*
X136733209Y-126247222D01*
X136889734Y-126163557D01*
X137059573Y-126112037D01*
X137125757Y-126105519D01*
X137191940Y-126099000D01*
X137280460Y-126099000D01*
X137346643Y-126105519D01*
X137346643Y-126105519D01*
G37*
G36*
X139886643Y-126105519D02*
G01*
X139952827Y-126112037D01*
X140122666Y-126163557D01*
X140279191Y-126247222D01*
X140314929Y-126276552D01*
X140416386Y-126359814D01*
X140499648Y-126461271D01*
X140528978Y-126497009D01*
X140612643Y-126653534D01*
X140664163Y-126823373D01*
X140681559Y-127000000D01*
X140664163Y-127176627D01*
X140612643Y-127346466D01*
X140528978Y-127502991D01*
X140499648Y-127538729D01*
X140416386Y-127640186D01*
X140314929Y-127723448D01*
X140279191Y-127752778D01*
X140122666Y-127836443D01*
X139952827Y-127887963D01*
X139886642Y-127894482D01*
X139820460Y-127901000D01*
X139731940Y-127901000D01*
X139665758Y-127894482D01*
X139599573Y-127887963D01*
X139429734Y-127836443D01*
X139273209Y-127752778D01*
X139237471Y-127723448D01*
X139136014Y-127640186D01*
X139052752Y-127538729D01*
X139023422Y-127502991D01*
X138939757Y-127346466D01*
X138888237Y-127176627D01*
X138870841Y-127000000D01*
X138888237Y-126823373D01*
X138939757Y-126653534D01*
X139023422Y-126497009D01*
X139052752Y-126461271D01*
X139136014Y-126359814D01*
X139237471Y-126276552D01*
X139273209Y-126247222D01*
X139429734Y-126163557D01*
X139599573Y-126112037D01*
X139665757Y-126105519D01*
X139731940Y-126099000D01*
X139820460Y-126099000D01*
X139886643Y-126105519D01*
X139886643Y-126105519D01*
G37*
G36*
X142426643Y-126105519D02*
G01*
X142492827Y-126112037D01*
X142662666Y-126163557D01*
X142819191Y-126247222D01*
X142854929Y-126276552D01*
X142956386Y-126359814D01*
X143039648Y-126461271D01*
X143068978Y-126497009D01*
X143152643Y-126653534D01*
X143204163Y-126823373D01*
X143221559Y-127000000D01*
X143204163Y-127176627D01*
X143152643Y-127346466D01*
X143068978Y-127502991D01*
X143039648Y-127538729D01*
X142956386Y-127640186D01*
X142854929Y-127723448D01*
X142819191Y-127752778D01*
X142662666Y-127836443D01*
X142492827Y-127887963D01*
X142426642Y-127894482D01*
X142360460Y-127901000D01*
X142271940Y-127901000D01*
X142205758Y-127894482D01*
X142139573Y-127887963D01*
X141969734Y-127836443D01*
X141813209Y-127752778D01*
X141777471Y-127723448D01*
X141676014Y-127640186D01*
X141592752Y-127538729D01*
X141563422Y-127502991D01*
X141479757Y-127346466D01*
X141428237Y-127176627D01*
X141410841Y-127000000D01*
X141428237Y-126823373D01*
X141479757Y-126653534D01*
X141563422Y-126497009D01*
X141592752Y-126461271D01*
X141676014Y-126359814D01*
X141777471Y-126276552D01*
X141813209Y-126247222D01*
X141969734Y-126163557D01*
X142139573Y-126112037D01*
X142205757Y-126105519D01*
X142271940Y-126099000D01*
X142360460Y-126099000D01*
X142426643Y-126105519D01*
X142426643Y-126105519D01*
G37*
G36*
X144966643Y-126105519D02*
G01*
X145032827Y-126112037D01*
X145202666Y-126163557D01*
X145359191Y-126247222D01*
X145394929Y-126276552D01*
X145496386Y-126359814D01*
X145579648Y-126461271D01*
X145608978Y-126497009D01*
X145692643Y-126653534D01*
X145744163Y-126823373D01*
X145761559Y-127000000D01*
X145744163Y-127176627D01*
X145692643Y-127346466D01*
X145608978Y-127502991D01*
X145579648Y-127538729D01*
X145496386Y-127640186D01*
X145394929Y-127723448D01*
X145359191Y-127752778D01*
X145202666Y-127836443D01*
X145032827Y-127887963D01*
X144966642Y-127894482D01*
X144900460Y-127901000D01*
X144811940Y-127901000D01*
X144745758Y-127894482D01*
X144679573Y-127887963D01*
X144509734Y-127836443D01*
X144353209Y-127752778D01*
X144317471Y-127723448D01*
X144216014Y-127640186D01*
X144132752Y-127538729D01*
X144103422Y-127502991D01*
X144019757Y-127346466D01*
X143968237Y-127176627D01*
X143950841Y-127000000D01*
X143968237Y-126823373D01*
X144019757Y-126653534D01*
X144103422Y-126497009D01*
X144132752Y-126461271D01*
X144216014Y-126359814D01*
X144317471Y-126276552D01*
X144353209Y-126247222D01*
X144509734Y-126163557D01*
X144679573Y-126112037D01*
X144745757Y-126105519D01*
X144811940Y-126099000D01*
X144900460Y-126099000D01*
X144966643Y-126105519D01*
X144966643Y-126105519D01*
G37*
G36*
X147506643Y-126105519D02*
G01*
X147572827Y-126112037D01*
X147742666Y-126163557D01*
X147899191Y-126247222D01*
X147934929Y-126276552D01*
X148036386Y-126359814D01*
X148119648Y-126461271D01*
X148148978Y-126497009D01*
X148232643Y-126653534D01*
X148284163Y-126823373D01*
X148301559Y-127000000D01*
X148284163Y-127176627D01*
X148232643Y-127346466D01*
X148148978Y-127502991D01*
X148119648Y-127538729D01*
X148036386Y-127640186D01*
X147934929Y-127723448D01*
X147899191Y-127752778D01*
X147742666Y-127836443D01*
X147572827Y-127887963D01*
X147506642Y-127894482D01*
X147440460Y-127901000D01*
X147351940Y-127901000D01*
X147285758Y-127894482D01*
X147219573Y-127887963D01*
X147049734Y-127836443D01*
X146893209Y-127752778D01*
X146857471Y-127723448D01*
X146756014Y-127640186D01*
X146672752Y-127538729D01*
X146643422Y-127502991D01*
X146559757Y-127346466D01*
X146508237Y-127176627D01*
X146490841Y-127000000D01*
X146508237Y-126823373D01*
X146559757Y-126653534D01*
X146643422Y-126497009D01*
X146672752Y-126461271D01*
X146756014Y-126359814D01*
X146857471Y-126276552D01*
X146893209Y-126247222D01*
X147049734Y-126163557D01*
X147219573Y-126112037D01*
X147285757Y-126105519D01*
X147351940Y-126099000D01*
X147440460Y-126099000D01*
X147506643Y-126105519D01*
X147506643Y-126105519D01*
G37*
G36*
X150046643Y-126105519D02*
G01*
X150112827Y-126112037D01*
X150282666Y-126163557D01*
X150439191Y-126247222D01*
X150474929Y-126276552D01*
X150576386Y-126359814D01*
X150659648Y-126461271D01*
X150688978Y-126497009D01*
X150772643Y-126653534D01*
X150824163Y-126823373D01*
X150841559Y-127000000D01*
X150824163Y-127176627D01*
X150772643Y-127346466D01*
X150688978Y-127502991D01*
X150659648Y-127538729D01*
X150576386Y-127640186D01*
X150474929Y-127723448D01*
X150439191Y-127752778D01*
X150282666Y-127836443D01*
X150112827Y-127887963D01*
X150046642Y-127894482D01*
X149980460Y-127901000D01*
X149891940Y-127901000D01*
X149825758Y-127894482D01*
X149759573Y-127887963D01*
X149589734Y-127836443D01*
X149433209Y-127752778D01*
X149397471Y-127723448D01*
X149296014Y-127640186D01*
X149212752Y-127538729D01*
X149183422Y-127502991D01*
X149099757Y-127346466D01*
X149048237Y-127176627D01*
X149030841Y-127000000D01*
X149048237Y-126823373D01*
X149099757Y-126653534D01*
X149183422Y-126497009D01*
X149212752Y-126461271D01*
X149296014Y-126359814D01*
X149397471Y-126276552D01*
X149433209Y-126247222D01*
X149589734Y-126163557D01*
X149759573Y-126112037D01*
X149825757Y-126105519D01*
X149891940Y-126099000D01*
X149980460Y-126099000D01*
X150046643Y-126105519D01*
X150046643Y-126105519D01*
G37*
G36*
X152586643Y-126105519D02*
G01*
X152652827Y-126112037D01*
X152822666Y-126163557D01*
X152979191Y-126247222D01*
X153014929Y-126276552D01*
X153116386Y-126359814D01*
X153199648Y-126461271D01*
X153228978Y-126497009D01*
X153312643Y-126653534D01*
X153364163Y-126823373D01*
X153381559Y-127000000D01*
X153364163Y-127176627D01*
X153312643Y-127346466D01*
X153228978Y-127502991D01*
X153199648Y-127538729D01*
X153116386Y-127640186D01*
X153014929Y-127723448D01*
X152979191Y-127752778D01*
X152822666Y-127836443D01*
X152652827Y-127887963D01*
X152586642Y-127894482D01*
X152520460Y-127901000D01*
X152431940Y-127901000D01*
X152365758Y-127894482D01*
X152299573Y-127887963D01*
X152129734Y-127836443D01*
X151973209Y-127752778D01*
X151937471Y-127723448D01*
X151836014Y-127640186D01*
X151752752Y-127538729D01*
X151723422Y-127502991D01*
X151639757Y-127346466D01*
X151588237Y-127176627D01*
X151570841Y-127000000D01*
X151588237Y-126823373D01*
X151639757Y-126653534D01*
X151723422Y-126497009D01*
X151752752Y-126461271D01*
X151836014Y-126359814D01*
X151937471Y-126276552D01*
X151973209Y-126247222D01*
X152129734Y-126163557D01*
X152299573Y-126112037D01*
X152365757Y-126105519D01*
X152431940Y-126099000D01*
X152520460Y-126099000D01*
X152586643Y-126105519D01*
X152586643Y-126105519D01*
G37*
G36*
X157666643Y-126105519D02*
G01*
X157732827Y-126112037D01*
X157902666Y-126163557D01*
X158059191Y-126247222D01*
X158094929Y-126276552D01*
X158196386Y-126359814D01*
X158279648Y-126461271D01*
X158308978Y-126497009D01*
X158392643Y-126653534D01*
X158444163Y-126823373D01*
X158461559Y-127000000D01*
X158444163Y-127176627D01*
X158392643Y-127346466D01*
X158308978Y-127502991D01*
X158279648Y-127538729D01*
X158196386Y-127640186D01*
X158094929Y-127723448D01*
X158059191Y-127752778D01*
X157902666Y-127836443D01*
X157732827Y-127887963D01*
X157666642Y-127894482D01*
X157600460Y-127901000D01*
X157511940Y-127901000D01*
X157445758Y-127894482D01*
X157379573Y-127887963D01*
X157209734Y-127836443D01*
X157053209Y-127752778D01*
X157017471Y-127723448D01*
X156916014Y-127640186D01*
X156832752Y-127538729D01*
X156803422Y-127502991D01*
X156719757Y-127346466D01*
X156668237Y-127176627D01*
X156650841Y-127000000D01*
X156668237Y-126823373D01*
X156719757Y-126653534D01*
X156803422Y-126497009D01*
X156832752Y-126461271D01*
X156916014Y-126359814D01*
X157017471Y-126276552D01*
X157053209Y-126247222D01*
X157209734Y-126163557D01*
X157379573Y-126112037D01*
X157445757Y-126105519D01*
X157511940Y-126099000D01*
X157600460Y-126099000D01*
X157666643Y-126105519D01*
X157666643Y-126105519D01*
G37*
G36*
X160206643Y-126105519D02*
G01*
X160272827Y-126112037D01*
X160442666Y-126163557D01*
X160599191Y-126247222D01*
X160634929Y-126276552D01*
X160736386Y-126359814D01*
X160819648Y-126461271D01*
X160848978Y-126497009D01*
X160932643Y-126653534D01*
X160984163Y-126823373D01*
X161001559Y-127000000D01*
X160984163Y-127176627D01*
X160932643Y-127346466D01*
X160848978Y-127502991D01*
X160819648Y-127538729D01*
X160736386Y-127640186D01*
X160634929Y-127723448D01*
X160599191Y-127752778D01*
X160442666Y-127836443D01*
X160272827Y-127887963D01*
X160206642Y-127894482D01*
X160140460Y-127901000D01*
X160051940Y-127901000D01*
X159985758Y-127894482D01*
X159919573Y-127887963D01*
X159749734Y-127836443D01*
X159593209Y-127752778D01*
X159557471Y-127723448D01*
X159456014Y-127640186D01*
X159372752Y-127538729D01*
X159343422Y-127502991D01*
X159259757Y-127346466D01*
X159208237Y-127176627D01*
X159190841Y-127000000D01*
X159208237Y-126823373D01*
X159259757Y-126653534D01*
X159343422Y-126497009D01*
X159372752Y-126461271D01*
X159456014Y-126359814D01*
X159557471Y-126276552D01*
X159593209Y-126247222D01*
X159749734Y-126163557D01*
X159919573Y-126112037D01*
X159985757Y-126105519D01*
X160051940Y-126099000D01*
X160140460Y-126099000D01*
X160206643Y-126105519D01*
X160206643Y-126105519D01*
G37*
G36*
X162746643Y-126105519D02*
G01*
X162812827Y-126112037D01*
X162982666Y-126163557D01*
X163139191Y-126247222D01*
X163174929Y-126276552D01*
X163276386Y-126359814D01*
X163359648Y-126461271D01*
X163388978Y-126497009D01*
X163472643Y-126653534D01*
X163524163Y-126823373D01*
X163541559Y-127000000D01*
X163524163Y-127176627D01*
X163472643Y-127346466D01*
X163388978Y-127502991D01*
X163359648Y-127538729D01*
X163276386Y-127640186D01*
X163174929Y-127723448D01*
X163139191Y-127752778D01*
X162982666Y-127836443D01*
X162812827Y-127887963D01*
X162746642Y-127894482D01*
X162680460Y-127901000D01*
X162591940Y-127901000D01*
X162525758Y-127894482D01*
X162459573Y-127887963D01*
X162289734Y-127836443D01*
X162133209Y-127752778D01*
X162097471Y-127723448D01*
X161996014Y-127640186D01*
X161912752Y-127538729D01*
X161883422Y-127502991D01*
X161799757Y-127346466D01*
X161748237Y-127176627D01*
X161730841Y-127000000D01*
X161748237Y-126823373D01*
X161799757Y-126653534D01*
X161883422Y-126497009D01*
X161912752Y-126461271D01*
X161996014Y-126359814D01*
X162097471Y-126276552D01*
X162133209Y-126247222D01*
X162289734Y-126163557D01*
X162459573Y-126112037D01*
X162525757Y-126105519D01*
X162591940Y-126099000D01*
X162680460Y-126099000D01*
X162746643Y-126105519D01*
X162746643Y-126105519D01*
G37*
G36*
X165286643Y-126105519D02*
G01*
X165352827Y-126112037D01*
X165522666Y-126163557D01*
X165679191Y-126247222D01*
X165714929Y-126276552D01*
X165816386Y-126359814D01*
X165899648Y-126461271D01*
X165928978Y-126497009D01*
X166012643Y-126653534D01*
X166064163Y-126823373D01*
X166081559Y-127000000D01*
X166064163Y-127176627D01*
X166012643Y-127346466D01*
X165928978Y-127502991D01*
X165899648Y-127538729D01*
X165816386Y-127640186D01*
X165714929Y-127723448D01*
X165679191Y-127752778D01*
X165522666Y-127836443D01*
X165352827Y-127887963D01*
X165286642Y-127894482D01*
X165220460Y-127901000D01*
X165131940Y-127901000D01*
X165065758Y-127894482D01*
X164999573Y-127887963D01*
X164829734Y-127836443D01*
X164673209Y-127752778D01*
X164637471Y-127723448D01*
X164536014Y-127640186D01*
X164452752Y-127538729D01*
X164423422Y-127502991D01*
X164339757Y-127346466D01*
X164288237Y-127176627D01*
X164270841Y-127000000D01*
X164288237Y-126823373D01*
X164339757Y-126653534D01*
X164423422Y-126497009D01*
X164452752Y-126461271D01*
X164536014Y-126359814D01*
X164637471Y-126276552D01*
X164673209Y-126247222D01*
X164829734Y-126163557D01*
X164999573Y-126112037D01*
X165065757Y-126105519D01*
X165131940Y-126099000D01*
X165220460Y-126099000D01*
X165286643Y-126105519D01*
X165286643Y-126105519D01*
G37*
G36*
X167826643Y-126105519D02*
G01*
X167892827Y-126112037D01*
X168062666Y-126163557D01*
X168219191Y-126247222D01*
X168254929Y-126276552D01*
X168356386Y-126359814D01*
X168439648Y-126461271D01*
X168468978Y-126497009D01*
X168552643Y-126653534D01*
X168604163Y-126823373D01*
X168621559Y-127000000D01*
X168604163Y-127176627D01*
X168552643Y-127346466D01*
X168468978Y-127502991D01*
X168439648Y-127538729D01*
X168356386Y-127640186D01*
X168254929Y-127723448D01*
X168219191Y-127752778D01*
X168062666Y-127836443D01*
X167892827Y-127887963D01*
X167826642Y-127894482D01*
X167760460Y-127901000D01*
X167671940Y-127901000D01*
X167605758Y-127894482D01*
X167539573Y-127887963D01*
X167369734Y-127836443D01*
X167213209Y-127752778D01*
X167177471Y-127723448D01*
X167076014Y-127640186D01*
X166992752Y-127538729D01*
X166963422Y-127502991D01*
X166879757Y-127346466D01*
X166828237Y-127176627D01*
X166810841Y-127000000D01*
X166828237Y-126823373D01*
X166879757Y-126653534D01*
X166963422Y-126497009D01*
X166992752Y-126461271D01*
X167076014Y-126359814D01*
X167177471Y-126276552D01*
X167213209Y-126247222D01*
X167369734Y-126163557D01*
X167539573Y-126112037D01*
X167605757Y-126105519D01*
X167671940Y-126099000D01*
X167760460Y-126099000D01*
X167826643Y-126105519D01*
X167826643Y-126105519D01*
G37*
G36*
X170366643Y-126105519D02*
G01*
X170432827Y-126112037D01*
X170602666Y-126163557D01*
X170759191Y-126247222D01*
X170794929Y-126276552D01*
X170896386Y-126359814D01*
X170979648Y-126461271D01*
X171008978Y-126497009D01*
X171092643Y-126653534D01*
X171144163Y-126823373D01*
X171161559Y-127000000D01*
X171144163Y-127176627D01*
X171092643Y-127346466D01*
X171008978Y-127502991D01*
X170979648Y-127538729D01*
X170896386Y-127640186D01*
X170794929Y-127723448D01*
X170759191Y-127752778D01*
X170602666Y-127836443D01*
X170432827Y-127887963D01*
X170366642Y-127894482D01*
X170300460Y-127901000D01*
X170211940Y-127901000D01*
X170145758Y-127894482D01*
X170079573Y-127887963D01*
X169909734Y-127836443D01*
X169753209Y-127752778D01*
X169717471Y-127723448D01*
X169616014Y-127640186D01*
X169532752Y-127538729D01*
X169503422Y-127502991D01*
X169419757Y-127346466D01*
X169368237Y-127176627D01*
X169350841Y-127000000D01*
X169368237Y-126823373D01*
X169419757Y-126653534D01*
X169503422Y-126497009D01*
X169532752Y-126461271D01*
X169616014Y-126359814D01*
X169717471Y-126276552D01*
X169753209Y-126247222D01*
X169909734Y-126163557D01*
X170079573Y-126112037D01*
X170145757Y-126105519D01*
X170211940Y-126099000D01*
X170300460Y-126099000D01*
X170366643Y-126105519D01*
X170366643Y-126105519D01*
G37*
G36*
X172906643Y-126105519D02*
G01*
X172972827Y-126112037D01*
X173142666Y-126163557D01*
X173299191Y-126247222D01*
X173334929Y-126276552D01*
X173436386Y-126359814D01*
X173519648Y-126461271D01*
X173548978Y-126497009D01*
X173632643Y-126653534D01*
X173684163Y-126823373D01*
X173701559Y-127000000D01*
X173684163Y-127176627D01*
X173632643Y-127346466D01*
X173548978Y-127502991D01*
X173519648Y-127538729D01*
X173436386Y-127640186D01*
X173334929Y-127723448D01*
X173299191Y-127752778D01*
X173142666Y-127836443D01*
X172972827Y-127887963D01*
X172906642Y-127894482D01*
X172840460Y-127901000D01*
X172751940Y-127901000D01*
X172685758Y-127894482D01*
X172619573Y-127887963D01*
X172449734Y-127836443D01*
X172293209Y-127752778D01*
X172257471Y-127723448D01*
X172156014Y-127640186D01*
X172072752Y-127538729D01*
X172043422Y-127502991D01*
X171959757Y-127346466D01*
X171908237Y-127176627D01*
X171890841Y-127000000D01*
X171908237Y-126823373D01*
X171959757Y-126653534D01*
X172043422Y-126497009D01*
X172072752Y-126461271D01*
X172156014Y-126359814D01*
X172257471Y-126276552D01*
X172293209Y-126247222D01*
X172449734Y-126163557D01*
X172619573Y-126112037D01*
X172685757Y-126105519D01*
X172751940Y-126099000D01*
X172840460Y-126099000D01*
X172906643Y-126105519D01*
X172906643Y-126105519D01*
G37*
G36*
X175446643Y-126105519D02*
G01*
X175512827Y-126112037D01*
X175682666Y-126163557D01*
X175839191Y-126247222D01*
X175874929Y-126276552D01*
X175976386Y-126359814D01*
X176059648Y-126461271D01*
X176088978Y-126497009D01*
X176172643Y-126653534D01*
X176224163Y-126823373D01*
X176241559Y-127000000D01*
X176224163Y-127176627D01*
X176172643Y-127346466D01*
X176088978Y-127502991D01*
X176059648Y-127538729D01*
X175976386Y-127640186D01*
X175874929Y-127723448D01*
X175839191Y-127752778D01*
X175682666Y-127836443D01*
X175512827Y-127887963D01*
X175446642Y-127894482D01*
X175380460Y-127901000D01*
X175291940Y-127901000D01*
X175225758Y-127894482D01*
X175159573Y-127887963D01*
X174989734Y-127836443D01*
X174833209Y-127752778D01*
X174797471Y-127723448D01*
X174696014Y-127640186D01*
X174612752Y-127538729D01*
X174583422Y-127502991D01*
X174499757Y-127346466D01*
X174448237Y-127176627D01*
X174430841Y-127000000D01*
X174448237Y-126823373D01*
X174499757Y-126653534D01*
X174583422Y-126497009D01*
X174612752Y-126461271D01*
X174696014Y-126359814D01*
X174797471Y-126276552D01*
X174833209Y-126247222D01*
X174989734Y-126163557D01*
X175159573Y-126112037D01*
X175225757Y-126105519D01*
X175291940Y-126099000D01*
X175380460Y-126099000D01*
X175446643Y-126105519D01*
X175446643Y-126105519D01*
G37*
G36*
X129726643Y-126105519D02*
G01*
X129792827Y-126112037D01*
X129962666Y-126163557D01*
X130119191Y-126247222D01*
X130154929Y-126276552D01*
X130256386Y-126359814D01*
X130339648Y-126461271D01*
X130368978Y-126497009D01*
X130452643Y-126653534D01*
X130504163Y-126823373D01*
X130521559Y-127000000D01*
X130504163Y-127176627D01*
X130452643Y-127346466D01*
X130368978Y-127502991D01*
X130339648Y-127538729D01*
X130256386Y-127640186D01*
X130154929Y-127723448D01*
X130119191Y-127752778D01*
X129962666Y-127836443D01*
X129792827Y-127887963D01*
X129726642Y-127894482D01*
X129660460Y-127901000D01*
X129571940Y-127901000D01*
X129505758Y-127894482D01*
X129439573Y-127887963D01*
X129269734Y-127836443D01*
X129113209Y-127752778D01*
X129077471Y-127723448D01*
X128976014Y-127640186D01*
X128892752Y-127538729D01*
X128863422Y-127502991D01*
X128779757Y-127346466D01*
X128728237Y-127176627D01*
X128710841Y-127000000D01*
X128728237Y-126823373D01*
X128779757Y-126653534D01*
X128863422Y-126497009D01*
X128892752Y-126461271D01*
X128976014Y-126359814D01*
X129077471Y-126276552D01*
X129113209Y-126247222D01*
X129269734Y-126163557D01*
X129439573Y-126112037D01*
X129505757Y-126105519D01*
X129571940Y-126099000D01*
X129660460Y-126099000D01*
X129726643Y-126105519D01*
X129726643Y-126105519D01*
G37*
G36*
X188904460Y-127771440D02*
G01*
X188002460Y-127771440D01*
X188002460Y-126919440D01*
X188904460Y-126919440D01*
X188904460Y-127771440D01*
X188904460Y-127771440D01*
G37*
G36*
X187404460Y-127771440D02*
G01*
X186502460Y-127771440D01*
X186502460Y-126919440D01*
X187404460Y-126919440D01*
X187404460Y-127771440D01*
X187404460Y-127771440D01*
G37*
G36*
X180118300Y-127421220D02*
G01*
X179266300Y-127421220D01*
X179266300Y-126519220D01*
X180118300Y-126519220D01*
X180118300Y-127421220D01*
X180118300Y-127421220D01*
G37*
G36*
X181743900Y-127421220D02*
G01*
X180891900Y-127421220D01*
X180891900Y-126519220D01*
X181743900Y-126519220D01*
X181743900Y-127421220D01*
X181743900Y-127421220D01*
G37*
G36*
X122762400Y-127123200D02*
G01*
X122060400Y-127123200D01*
X122060400Y-126521200D01*
X122762400Y-126521200D01*
X122762400Y-127123200D01*
X122762400Y-127123200D01*
G37*
G36*
X123862400Y-127123200D02*
G01*
X123160400Y-127123200D01*
X123160400Y-126521200D01*
X123862400Y-126521200D01*
X123862400Y-127123200D01*
X123862400Y-127123200D01*
G37*
G36*
X120890600Y-127097800D02*
G01*
X120188600Y-127097800D01*
X120188600Y-126495800D01*
X120890600Y-126495800D01*
X120890600Y-127097800D01*
X120890600Y-127097800D01*
G37*
G36*
X119790600Y-127097800D02*
G01*
X119088600Y-127097800D01*
X119088600Y-126495800D01*
X119790600Y-126495800D01*
X119790600Y-127097800D01*
X119790600Y-127097800D01*
G37*
G36*
X180118300Y-125921220D02*
G01*
X179266300Y-125921220D01*
X179266300Y-125019220D01*
X180118300Y-125019220D01*
X180118300Y-125921220D01*
X180118300Y-125921220D01*
G37*
G36*
X181743900Y-125921220D02*
G01*
X180891900Y-125921220D01*
X180891900Y-125019220D01*
X181743900Y-125019220D01*
X181743900Y-125921220D01*
X181743900Y-125921220D01*
G37*
G36*
X122803200Y-125661000D02*
G01*
X121951200Y-125661000D01*
X121951200Y-124759000D01*
X122803200Y-124759000D01*
X122803200Y-125661000D01*
X122803200Y-125661000D01*
G37*
G36*
X120974400Y-125661000D02*
G01*
X120122400Y-125661000D01*
X120122400Y-124759000D01*
X120974400Y-124759000D01*
X120974400Y-125661000D01*
X120974400Y-125661000D01*
G37*
G36*
X162746642Y-123565518D02*
G01*
X162812827Y-123572037D01*
X162982666Y-123623557D01*
X163139191Y-123707222D01*
X163174929Y-123736552D01*
X163276386Y-123819814D01*
X163359648Y-123921271D01*
X163388978Y-123957009D01*
X163472643Y-124113534D01*
X163524163Y-124283373D01*
X163541559Y-124460000D01*
X163524163Y-124636627D01*
X163472643Y-124806466D01*
X163388978Y-124962991D01*
X163359648Y-124998729D01*
X163276386Y-125100186D01*
X163174929Y-125183448D01*
X163139191Y-125212778D01*
X162982666Y-125296443D01*
X162812827Y-125347963D01*
X162746642Y-125354482D01*
X162680460Y-125361000D01*
X162591940Y-125361000D01*
X162525758Y-125354482D01*
X162459573Y-125347963D01*
X162289734Y-125296443D01*
X162133209Y-125212778D01*
X162097471Y-125183448D01*
X161996014Y-125100186D01*
X161912752Y-124998729D01*
X161883422Y-124962991D01*
X161799757Y-124806466D01*
X161748237Y-124636627D01*
X161730841Y-124460000D01*
X161748237Y-124283373D01*
X161799757Y-124113534D01*
X161883422Y-123957009D01*
X161912752Y-123921271D01*
X161996014Y-123819814D01*
X162097471Y-123736552D01*
X162133209Y-123707222D01*
X162289734Y-123623557D01*
X162459573Y-123572037D01*
X162525758Y-123565518D01*
X162591940Y-123559000D01*
X162680460Y-123559000D01*
X162746642Y-123565518D01*
X162746642Y-123565518D01*
G37*
G36*
X160206642Y-123565518D02*
G01*
X160272827Y-123572037D01*
X160442666Y-123623557D01*
X160599191Y-123707222D01*
X160634929Y-123736552D01*
X160736386Y-123819814D01*
X160819648Y-123921271D01*
X160848978Y-123957009D01*
X160932643Y-124113534D01*
X160984163Y-124283373D01*
X161001559Y-124460000D01*
X160984163Y-124636627D01*
X160932643Y-124806466D01*
X160848978Y-124962991D01*
X160819648Y-124998729D01*
X160736386Y-125100186D01*
X160634929Y-125183448D01*
X160599191Y-125212778D01*
X160442666Y-125296443D01*
X160272827Y-125347963D01*
X160206642Y-125354482D01*
X160140460Y-125361000D01*
X160051940Y-125361000D01*
X159985758Y-125354482D01*
X159919573Y-125347963D01*
X159749734Y-125296443D01*
X159593209Y-125212778D01*
X159557471Y-125183448D01*
X159456014Y-125100186D01*
X159372752Y-124998729D01*
X159343422Y-124962991D01*
X159259757Y-124806466D01*
X159208237Y-124636627D01*
X159190841Y-124460000D01*
X159208237Y-124283373D01*
X159259757Y-124113534D01*
X159343422Y-123957009D01*
X159372752Y-123921271D01*
X159456014Y-123819814D01*
X159557471Y-123736552D01*
X159593209Y-123707222D01*
X159749734Y-123623557D01*
X159919573Y-123572037D01*
X159985758Y-123565518D01*
X160051940Y-123559000D01*
X160140460Y-123559000D01*
X160206642Y-123565518D01*
X160206642Y-123565518D01*
G37*
G36*
X165286642Y-123565518D02*
G01*
X165352827Y-123572037D01*
X165522666Y-123623557D01*
X165679191Y-123707222D01*
X165714929Y-123736552D01*
X165816386Y-123819814D01*
X165899648Y-123921271D01*
X165928978Y-123957009D01*
X166012643Y-124113534D01*
X166064163Y-124283373D01*
X166081559Y-124460000D01*
X166064163Y-124636627D01*
X166012643Y-124806466D01*
X165928978Y-124962991D01*
X165899648Y-124998729D01*
X165816386Y-125100186D01*
X165714929Y-125183448D01*
X165679191Y-125212778D01*
X165522666Y-125296443D01*
X165352827Y-125347963D01*
X165286642Y-125354482D01*
X165220460Y-125361000D01*
X165131940Y-125361000D01*
X165065758Y-125354482D01*
X164999573Y-125347963D01*
X164829734Y-125296443D01*
X164673209Y-125212778D01*
X164637471Y-125183448D01*
X164536014Y-125100186D01*
X164452752Y-124998729D01*
X164423422Y-124962991D01*
X164339757Y-124806466D01*
X164288237Y-124636627D01*
X164270841Y-124460000D01*
X164288237Y-124283373D01*
X164339757Y-124113534D01*
X164423422Y-123957009D01*
X164452752Y-123921271D01*
X164536014Y-123819814D01*
X164637471Y-123736552D01*
X164673209Y-123707222D01*
X164829734Y-123623557D01*
X164999573Y-123572037D01*
X165065758Y-123565518D01*
X165131940Y-123559000D01*
X165220460Y-123559000D01*
X165286642Y-123565518D01*
X165286642Y-123565518D01*
G37*
G36*
X157666642Y-123565518D02*
G01*
X157732827Y-123572037D01*
X157902666Y-123623557D01*
X158059191Y-123707222D01*
X158094929Y-123736552D01*
X158196386Y-123819814D01*
X158279648Y-123921271D01*
X158308978Y-123957009D01*
X158392643Y-124113534D01*
X158444163Y-124283373D01*
X158461559Y-124460000D01*
X158444163Y-124636627D01*
X158392643Y-124806466D01*
X158308978Y-124962991D01*
X158279648Y-124998729D01*
X158196386Y-125100186D01*
X158094929Y-125183448D01*
X158059191Y-125212778D01*
X157902666Y-125296443D01*
X157732827Y-125347963D01*
X157666642Y-125354482D01*
X157600460Y-125361000D01*
X157511940Y-125361000D01*
X157445758Y-125354482D01*
X157379573Y-125347963D01*
X157209734Y-125296443D01*
X157053209Y-125212778D01*
X157017471Y-125183448D01*
X156916014Y-125100186D01*
X156832752Y-124998729D01*
X156803422Y-124962991D01*
X156719757Y-124806466D01*
X156668237Y-124636627D01*
X156650841Y-124460000D01*
X156668237Y-124283373D01*
X156719757Y-124113534D01*
X156803422Y-123957009D01*
X156832752Y-123921271D01*
X156916014Y-123819814D01*
X157017471Y-123736552D01*
X157053209Y-123707222D01*
X157209734Y-123623557D01*
X157379573Y-123572037D01*
X157445758Y-123565518D01*
X157511940Y-123559000D01*
X157600460Y-123559000D01*
X157666642Y-123565518D01*
X157666642Y-123565518D01*
G37*
G36*
X132266642Y-123565518D02*
G01*
X132332827Y-123572037D01*
X132502666Y-123623557D01*
X132659191Y-123707222D01*
X132694929Y-123736552D01*
X132796386Y-123819814D01*
X132879648Y-123921271D01*
X132908978Y-123957009D01*
X132992643Y-124113534D01*
X133044163Y-124283373D01*
X133061559Y-124460000D01*
X133044163Y-124636627D01*
X132992643Y-124806466D01*
X132908978Y-124962991D01*
X132879648Y-124998729D01*
X132796386Y-125100186D01*
X132694929Y-125183448D01*
X132659191Y-125212778D01*
X132502666Y-125296443D01*
X132332827Y-125347963D01*
X132266642Y-125354482D01*
X132200460Y-125361000D01*
X132111940Y-125361000D01*
X132045758Y-125354482D01*
X131979573Y-125347963D01*
X131809734Y-125296443D01*
X131653209Y-125212778D01*
X131617471Y-125183448D01*
X131516014Y-125100186D01*
X131432752Y-124998729D01*
X131403422Y-124962991D01*
X131319757Y-124806466D01*
X131268237Y-124636627D01*
X131250841Y-124460000D01*
X131268237Y-124283373D01*
X131319757Y-124113534D01*
X131403422Y-123957009D01*
X131432752Y-123921271D01*
X131516014Y-123819814D01*
X131617471Y-123736552D01*
X131653209Y-123707222D01*
X131809734Y-123623557D01*
X131979573Y-123572037D01*
X132045758Y-123565518D01*
X132111940Y-123559000D01*
X132200460Y-123559000D01*
X132266642Y-123565518D01*
X132266642Y-123565518D01*
G37*
G36*
X134806642Y-123565518D02*
G01*
X134872827Y-123572037D01*
X135042666Y-123623557D01*
X135199191Y-123707222D01*
X135234929Y-123736552D01*
X135336386Y-123819814D01*
X135419648Y-123921271D01*
X135448978Y-123957009D01*
X135532643Y-124113534D01*
X135584163Y-124283373D01*
X135601559Y-124460000D01*
X135584163Y-124636627D01*
X135532643Y-124806466D01*
X135448978Y-124962991D01*
X135419648Y-124998729D01*
X135336386Y-125100186D01*
X135234929Y-125183448D01*
X135199191Y-125212778D01*
X135042666Y-125296443D01*
X134872827Y-125347963D01*
X134806642Y-125354482D01*
X134740460Y-125361000D01*
X134651940Y-125361000D01*
X134585758Y-125354482D01*
X134519573Y-125347963D01*
X134349734Y-125296443D01*
X134193209Y-125212778D01*
X134157471Y-125183448D01*
X134056014Y-125100186D01*
X133972752Y-124998729D01*
X133943422Y-124962991D01*
X133859757Y-124806466D01*
X133808237Y-124636627D01*
X133790841Y-124460000D01*
X133808237Y-124283373D01*
X133859757Y-124113534D01*
X133943422Y-123957009D01*
X133972752Y-123921271D01*
X134056014Y-123819814D01*
X134157471Y-123736552D01*
X134193209Y-123707222D01*
X134349734Y-123623557D01*
X134519573Y-123572037D01*
X134585758Y-123565518D01*
X134651940Y-123559000D01*
X134740460Y-123559000D01*
X134806642Y-123565518D01*
X134806642Y-123565518D01*
G37*
G36*
X127186642Y-123565518D02*
G01*
X127252827Y-123572037D01*
X127422666Y-123623557D01*
X127579191Y-123707222D01*
X127614929Y-123736552D01*
X127716386Y-123819814D01*
X127799648Y-123921271D01*
X127828978Y-123957009D01*
X127912643Y-124113534D01*
X127964163Y-124283373D01*
X127981559Y-124460000D01*
X127964163Y-124636627D01*
X127912643Y-124806466D01*
X127828978Y-124962991D01*
X127799648Y-124998729D01*
X127716386Y-125100186D01*
X127614929Y-125183448D01*
X127579191Y-125212778D01*
X127422666Y-125296443D01*
X127252827Y-125347963D01*
X127186642Y-125354482D01*
X127120460Y-125361000D01*
X127031940Y-125361000D01*
X126965758Y-125354482D01*
X126899573Y-125347963D01*
X126729734Y-125296443D01*
X126573209Y-125212778D01*
X126537471Y-125183448D01*
X126436014Y-125100186D01*
X126352752Y-124998729D01*
X126323422Y-124962991D01*
X126239757Y-124806466D01*
X126188237Y-124636627D01*
X126170841Y-124460000D01*
X126188237Y-124283373D01*
X126239757Y-124113534D01*
X126323422Y-123957009D01*
X126352752Y-123921271D01*
X126436014Y-123819814D01*
X126537471Y-123736552D01*
X126573209Y-123707222D01*
X126729734Y-123623557D01*
X126899573Y-123572037D01*
X126965758Y-123565518D01*
X127031940Y-123559000D01*
X127120460Y-123559000D01*
X127186642Y-123565518D01*
X127186642Y-123565518D01*
G37*
G36*
X139886642Y-123565518D02*
G01*
X139952827Y-123572037D01*
X140122666Y-123623557D01*
X140279191Y-123707222D01*
X140314929Y-123736552D01*
X140416386Y-123819814D01*
X140499648Y-123921271D01*
X140528978Y-123957009D01*
X140612643Y-124113534D01*
X140664163Y-124283373D01*
X140681559Y-124460000D01*
X140664163Y-124636627D01*
X140612643Y-124806466D01*
X140528978Y-124962991D01*
X140499648Y-124998729D01*
X140416386Y-125100186D01*
X140314929Y-125183448D01*
X140279191Y-125212778D01*
X140122666Y-125296443D01*
X139952827Y-125347963D01*
X139886642Y-125354482D01*
X139820460Y-125361000D01*
X139731940Y-125361000D01*
X139665758Y-125354482D01*
X139599573Y-125347963D01*
X139429734Y-125296443D01*
X139273209Y-125212778D01*
X139237471Y-125183448D01*
X139136014Y-125100186D01*
X139052752Y-124998729D01*
X139023422Y-124962991D01*
X138939757Y-124806466D01*
X138888237Y-124636627D01*
X138870841Y-124460000D01*
X138888237Y-124283373D01*
X138939757Y-124113534D01*
X139023422Y-123957009D01*
X139052752Y-123921271D01*
X139136014Y-123819814D01*
X139237471Y-123736552D01*
X139273209Y-123707222D01*
X139429734Y-123623557D01*
X139599573Y-123572037D01*
X139665758Y-123565518D01*
X139731940Y-123559000D01*
X139820460Y-123559000D01*
X139886642Y-123565518D01*
X139886642Y-123565518D01*
G37*
G36*
X129726642Y-123565518D02*
G01*
X129792827Y-123572037D01*
X129962666Y-123623557D01*
X130119191Y-123707222D01*
X130154929Y-123736552D01*
X130256386Y-123819814D01*
X130339648Y-123921271D01*
X130368978Y-123957009D01*
X130452643Y-124113534D01*
X130504163Y-124283373D01*
X130521559Y-124460000D01*
X130504163Y-124636627D01*
X130452643Y-124806466D01*
X130368978Y-124962991D01*
X130339648Y-124998729D01*
X130256386Y-125100186D01*
X130154929Y-125183448D01*
X130119191Y-125212778D01*
X129962666Y-125296443D01*
X129792827Y-125347963D01*
X129726642Y-125354482D01*
X129660460Y-125361000D01*
X129571940Y-125361000D01*
X129505758Y-125354482D01*
X129439573Y-125347963D01*
X129269734Y-125296443D01*
X129113209Y-125212778D01*
X129077471Y-125183448D01*
X128976014Y-125100186D01*
X128892752Y-124998729D01*
X128863422Y-124962991D01*
X128779757Y-124806466D01*
X128728237Y-124636627D01*
X128710841Y-124460000D01*
X128728237Y-124283373D01*
X128779757Y-124113534D01*
X128863422Y-123957009D01*
X128892752Y-123921271D01*
X128976014Y-123819814D01*
X129077471Y-123736552D01*
X129113209Y-123707222D01*
X129269734Y-123623557D01*
X129439573Y-123572037D01*
X129505758Y-123565518D01*
X129571940Y-123559000D01*
X129660460Y-123559000D01*
X129726642Y-123565518D01*
X129726642Y-123565518D01*
G37*
G36*
X142426642Y-123565518D02*
G01*
X142492827Y-123572037D01*
X142662666Y-123623557D01*
X142819191Y-123707222D01*
X142854929Y-123736552D01*
X142956386Y-123819814D01*
X143039648Y-123921271D01*
X143068978Y-123957009D01*
X143152643Y-124113534D01*
X143204163Y-124283373D01*
X143221559Y-124460000D01*
X143204163Y-124636627D01*
X143152643Y-124806466D01*
X143068978Y-124962991D01*
X143039648Y-124998729D01*
X142956386Y-125100186D01*
X142854929Y-125183448D01*
X142819191Y-125212778D01*
X142662666Y-125296443D01*
X142492827Y-125347963D01*
X142426642Y-125354482D01*
X142360460Y-125361000D01*
X142271940Y-125361000D01*
X142205758Y-125354482D01*
X142139573Y-125347963D01*
X141969734Y-125296443D01*
X141813209Y-125212778D01*
X141777471Y-125183448D01*
X141676014Y-125100186D01*
X141592752Y-124998729D01*
X141563422Y-124962991D01*
X141479757Y-124806466D01*
X141428237Y-124636627D01*
X141410841Y-124460000D01*
X141428237Y-124283373D01*
X141479757Y-124113534D01*
X141563422Y-123957009D01*
X141592752Y-123921271D01*
X141676014Y-123819814D01*
X141777471Y-123736552D01*
X141813209Y-123707222D01*
X141969734Y-123623557D01*
X142139573Y-123572037D01*
X142205758Y-123565518D01*
X142271940Y-123559000D01*
X142360460Y-123559000D01*
X142426642Y-123565518D01*
X142426642Y-123565518D01*
G37*
G36*
X147506642Y-123565518D02*
G01*
X147572827Y-123572037D01*
X147742666Y-123623557D01*
X147899191Y-123707222D01*
X147934929Y-123736552D01*
X148036386Y-123819814D01*
X148119648Y-123921271D01*
X148148978Y-123957009D01*
X148232643Y-124113534D01*
X148284163Y-124283373D01*
X148301559Y-124460000D01*
X148284163Y-124636627D01*
X148232643Y-124806466D01*
X148148978Y-124962991D01*
X148119648Y-124998729D01*
X148036386Y-125100186D01*
X147934929Y-125183448D01*
X147899191Y-125212778D01*
X147742666Y-125296443D01*
X147572827Y-125347963D01*
X147506642Y-125354482D01*
X147440460Y-125361000D01*
X147351940Y-125361000D01*
X147285758Y-125354482D01*
X147219573Y-125347963D01*
X147049734Y-125296443D01*
X146893209Y-125212778D01*
X146857471Y-125183448D01*
X146756014Y-125100186D01*
X146672752Y-124998729D01*
X146643422Y-124962991D01*
X146559757Y-124806466D01*
X146508237Y-124636627D01*
X146490841Y-124460000D01*
X146508237Y-124283373D01*
X146559757Y-124113534D01*
X146643422Y-123957009D01*
X146672752Y-123921271D01*
X146756014Y-123819814D01*
X146857471Y-123736552D01*
X146893209Y-123707222D01*
X147049734Y-123623557D01*
X147219573Y-123572037D01*
X147285758Y-123565518D01*
X147351940Y-123559000D01*
X147440460Y-123559000D01*
X147506642Y-123565518D01*
X147506642Y-123565518D01*
G37*
G36*
X144966642Y-123565518D02*
G01*
X145032827Y-123572037D01*
X145202666Y-123623557D01*
X145359191Y-123707222D01*
X145394929Y-123736552D01*
X145496386Y-123819814D01*
X145579648Y-123921271D01*
X145608978Y-123957009D01*
X145692643Y-124113534D01*
X145744163Y-124283373D01*
X145761559Y-124460000D01*
X145744163Y-124636627D01*
X145692643Y-124806466D01*
X145608978Y-124962991D01*
X145579648Y-124998729D01*
X145496386Y-125100186D01*
X145394929Y-125183448D01*
X145359191Y-125212778D01*
X145202666Y-125296443D01*
X145032827Y-125347963D01*
X144966642Y-125354482D01*
X144900460Y-125361000D01*
X144811940Y-125361000D01*
X144745758Y-125354482D01*
X144679573Y-125347963D01*
X144509734Y-125296443D01*
X144353209Y-125212778D01*
X144317471Y-125183448D01*
X144216014Y-125100186D01*
X144132752Y-124998729D01*
X144103422Y-124962991D01*
X144019757Y-124806466D01*
X143968237Y-124636627D01*
X143950841Y-124460000D01*
X143968237Y-124283373D01*
X144019757Y-124113534D01*
X144103422Y-123957009D01*
X144132752Y-123921271D01*
X144216014Y-123819814D01*
X144317471Y-123736552D01*
X144353209Y-123707222D01*
X144509734Y-123623557D01*
X144679573Y-123572037D01*
X144745758Y-123565518D01*
X144811940Y-123559000D01*
X144900460Y-123559000D01*
X144966642Y-123565518D01*
X144966642Y-123565518D01*
G37*
G36*
X167826642Y-123565518D02*
G01*
X167892827Y-123572037D01*
X168062666Y-123623557D01*
X168219191Y-123707222D01*
X168254929Y-123736552D01*
X168356386Y-123819814D01*
X168439648Y-123921271D01*
X168468978Y-123957009D01*
X168552643Y-124113534D01*
X168604163Y-124283373D01*
X168621559Y-124460000D01*
X168604163Y-124636627D01*
X168552643Y-124806466D01*
X168468978Y-124962991D01*
X168439648Y-124998729D01*
X168356386Y-125100186D01*
X168254929Y-125183448D01*
X168219191Y-125212778D01*
X168062666Y-125296443D01*
X167892827Y-125347963D01*
X167826642Y-125354482D01*
X167760460Y-125361000D01*
X167671940Y-125361000D01*
X167605758Y-125354482D01*
X167539573Y-125347963D01*
X167369734Y-125296443D01*
X167213209Y-125212778D01*
X167177471Y-125183448D01*
X167076014Y-125100186D01*
X166992752Y-124998729D01*
X166963422Y-124962991D01*
X166879757Y-124806466D01*
X166828237Y-124636627D01*
X166810841Y-124460000D01*
X166828237Y-124283373D01*
X166879757Y-124113534D01*
X166963422Y-123957009D01*
X166992752Y-123921271D01*
X167076014Y-123819814D01*
X167177471Y-123736552D01*
X167213209Y-123707222D01*
X167369734Y-123623557D01*
X167539573Y-123572037D01*
X167605758Y-123565518D01*
X167671940Y-123559000D01*
X167760460Y-123559000D01*
X167826642Y-123565518D01*
X167826642Y-123565518D01*
G37*
G36*
X137346642Y-123565518D02*
G01*
X137412827Y-123572037D01*
X137582666Y-123623557D01*
X137739191Y-123707222D01*
X137774929Y-123736552D01*
X137876386Y-123819814D01*
X137959648Y-123921271D01*
X137988978Y-123957009D01*
X138072643Y-124113534D01*
X138124163Y-124283373D01*
X138141559Y-124460000D01*
X138124163Y-124636627D01*
X138072643Y-124806466D01*
X137988978Y-124962991D01*
X137959648Y-124998729D01*
X137876386Y-125100186D01*
X137774929Y-125183448D01*
X137739191Y-125212778D01*
X137582666Y-125296443D01*
X137412827Y-125347963D01*
X137346642Y-125354482D01*
X137280460Y-125361000D01*
X137191940Y-125361000D01*
X137125758Y-125354482D01*
X137059573Y-125347963D01*
X136889734Y-125296443D01*
X136733209Y-125212778D01*
X136697471Y-125183448D01*
X136596014Y-125100186D01*
X136512752Y-124998729D01*
X136483422Y-124962991D01*
X136399757Y-124806466D01*
X136348237Y-124636627D01*
X136330841Y-124460000D01*
X136348237Y-124283373D01*
X136399757Y-124113534D01*
X136483422Y-123957009D01*
X136512752Y-123921271D01*
X136596014Y-123819814D01*
X136697471Y-123736552D01*
X136733209Y-123707222D01*
X136889734Y-123623557D01*
X137059573Y-123572037D01*
X137125758Y-123565518D01*
X137191940Y-123559000D01*
X137280460Y-123559000D01*
X137346642Y-123565518D01*
X137346642Y-123565518D01*
G37*
G36*
X155126642Y-123565518D02*
G01*
X155192827Y-123572037D01*
X155362666Y-123623557D01*
X155519191Y-123707222D01*
X155554929Y-123736552D01*
X155656386Y-123819814D01*
X155739648Y-123921271D01*
X155768978Y-123957009D01*
X155852643Y-124113534D01*
X155904163Y-124283373D01*
X155921559Y-124460000D01*
X155904163Y-124636627D01*
X155852643Y-124806466D01*
X155768978Y-124962991D01*
X155739648Y-124998729D01*
X155656386Y-125100186D01*
X155554929Y-125183448D01*
X155519191Y-125212778D01*
X155362666Y-125296443D01*
X155192827Y-125347963D01*
X155126642Y-125354482D01*
X155060460Y-125361000D01*
X154971940Y-125361000D01*
X154905758Y-125354482D01*
X154839573Y-125347963D01*
X154669734Y-125296443D01*
X154513209Y-125212778D01*
X154477471Y-125183448D01*
X154376014Y-125100186D01*
X154292752Y-124998729D01*
X154263422Y-124962991D01*
X154179757Y-124806466D01*
X154128237Y-124636627D01*
X154110841Y-124460000D01*
X154128237Y-124283373D01*
X154179757Y-124113534D01*
X154263422Y-123957009D01*
X154292752Y-123921271D01*
X154376014Y-123819814D01*
X154477471Y-123736552D01*
X154513209Y-123707222D01*
X154669734Y-123623557D01*
X154839573Y-123572037D01*
X154905758Y-123565518D01*
X154971940Y-123559000D01*
X155060460Y-123559000D01*
X155126642Y-123565518D01*
X155126642Y-123565518D01*
G37*
G36*
X170366642Y-123565518D02*
G01*
X170432827Y-123572037D01*
X170602666Y-123623557D01*
X170759191Y-123707222D01*
X170794929Y-123736552D01*
X170896386Y-123819814D01*
X170979648Y-123921271D01*
X171008978Y-123957009D01*
X171092643Y-124113534D01*
X171144163Y-124283373D01*
X171161559Y-124460000D01*
X171144163Y-124636627D01*
X171092643Y-124806466D01*
X171008978Y-124962991D01*
X170979648Y-124998729D01*
X170896386Y-125100186D01*
X170794929Y-125183448D01*
X170759191Y-125212778D01*
X170602666Y-125296443D01*
X170432827Y-125347963D01*
X170366642Y-125354482D01*
X170300460Y-125361000D01*
X170211940Y-125361000D01*
X170145758Y-125354482D01*
X170079573Y-125347963D01*
X169909734Y-125296443D01*
X169753209Y-125212778D01*
X169717471Y-125183448D01*
X169616014Y-125100186D01*
X169532752Y-124998729D01*
X169503422Y-124962991D01*
X169419757Y-124806466D01*
X169368237Y-124636627D01*
X169350841Y-124460000D01*
X169368237Y-124283373D01*
X169419757Y-124113534D01*
X169503422Y-123957009D01*
X169532752Y-123921271D01*
X169616014Y-123819814D01*
X169717471Y-123736552D01*
X169753209Y-123707222D01*
X169909734Y-123623557D01*
X170079573Y-123572037D01*
X170145758Y-123565518D01*
X170211940Y-123559000D01*
X170300460Y-123559000D01*
X170366642Y-123565518D01*
X170366642Y-123565518D01*
G37*
G36*
X152586642Y-123565518D02*
G01*
X152652827Y-123572037D01*
X152822666Y-123623557D01*
X152979191Y-123707222D01*
X153014929Y-123736552D01*
X153116386Y-123819814D01*
X153199648Y-123921271D01*
X153228978Y-123957009D01*
X153312643Y-124113534D01*
X153364163Y-124283373D01*
X153381559Y-124460000D01*
X153364163Y-124636627D01*
X153312643Y-124806466D01*
X153228978Y-124962991D01*
X153199648Y-124998729D01*
X153116386Y-125100186D01*
X153014929Y-125183448D01*
X152979191Y-125212778D01*
X152822666Y-125296443D01*
X152652827Y-125347963D01*
X152586642Y-125354482D01*
X152520460Y-125361000D01*
X152431940Y-125361000D01*
X152365758Y-125354482D01*
X152299573Y-125347963D01*
X152129734Y-125296443D01*
X151973209Y-125212778D01*
X151937471Y-125183448D01*
X151836014Y-125100186D01*
X151752752Y-124998729D01*
X151723422Y-124962991D01*
X151639757Y-124806466D01*
X151588237Y-124636627D01*
X151570841Y-124460000D01*
X151588237Y-124283373D01*
X151639757Y-124113534D01*
X151723422Y-123957009D01*
X151752752Y-123921271D01*
X151836014Y-123819814D01*
X151937471Y-123736552D01*
X151973209Y-123707222D01*
X152129734Y-123623557D01*
X152299573Y-123572037D01*
X152365758Y-123565518D01*
X152431940Y-123559000D01*
X152520460Y-123559000D01*
X152586642Y-123565518D01*
X152586642Y-123565518D01*
G37*
G36*
X172906642Y-123565518D02*
G01*
X172972827Y-123572037D01*
X173142666Y-123623557D01*
X173299191Y-123707222D01*
X173334929Y-123736552D01*
X173436386Y-123819814D01*
X173519648Y-123921271D01*
X173548978Y-123957009D01*
X173632643Y-124113534D01*
X173684163Y-124283373D01*
X173701559Y-124460000D01*
X173684163Y-124636627D01*
X173632643Y-124806466D01*
X173548978Y-124962991D01*
X173519648Y-124998729D01*
X173436386Y-125100186D01*
X173334929Y-125183448D01*
X173299191Y-125212778D01*
X173142666Y-125296443D01*
X172972827Y-125347963D01*
X172906642Y-125354482D01*
X172840460Y-125361000D01*
X172751940Y-125361000D01*
X172685758Y-125354482D01*
X172619573Y-125347963D01*
X172449734Y-125296443D01*
X172293209Y-125212778D01*
X172257471Y-125183448D01*
X172156014Y-125100186D01*
X172072752Y-124998729D01*
X172043422Y-124962991D01*
X171959757Y-124806466D01*
X171908237Y-124636627D01*
X171890841Y-124460000D01*
X171908237Y-124283373D01*
X171959757Y-124113534D01*
X172043422Y-123957009D01*
X172072752Y-123921271D01*
X172156014Y-123819814D01*
X172257471Y-123736552D01*
X172293209Y-123707222D01*
X172449734Y-123623557D01*
X172619573Y-123572037D01*
X172685758Y-123565518D01*
X172751940Y-123559000D01*
X172840460Y-123559000D01*
X172906642Y-123565518D01*
X172906642Y-123565518D01*
G37*
G36*
X150046642Y-123565518D02*
G01*
X150112827Y-123572037D01*
X150282666Y-123623557D01*
X150439191Y-123707222D01*
X150474929Y-123736552D01*
X150576386Y-123819814D01*
X150659648Y-123921271D01*
X150688978Y-123957009D01*
X150772643Y-124113534D01*
X150824163Y-124283373D01*
X150841559Y-124460000D01*
X150824163Y-124636627D01*
X150772643Y-124806466D01*
X150688978Y-124962991D01*
X150659648Y-124998729D01*
X150576386Y-125100186D01*
X150474929Y-125183448D01*
X150439191Y-125212778D01*
X150282666Y-125296443D01*
X150112827Y-125347963D01*
X150046642Y-125354482D01*
X149980460Y-125361000D01*
X149891940Y-125361000D01*
X149825758Y-125354482D01*
X149759573Y-125347963D01*
X149589734Y-125296443D01*
X149433209Y-125212778D01*
X149397471Y-125183448D01*
X149296014Y-125100186D01*
X149212752Y-124998729D01*
X149183422Y-124962991D01*
X149099757Y-124806466D01*
X149048237Y-124636627D01*
X149030841Y-124460000D01*
X149048237Y-124283373D01*
X149099757Y-124113534D01*
X149183422Y-123957009D01*
X149212752Y-123921271D01*
X149296014Y-123819814D01*
X149397471Y-123736552D01*
X149433209Y-123707222D01*
X149589734Y-123623557D01*
X149759573Y-123572037D01*
X149825758Y-123565518D01*
X149891940Y-123559000D01*
X149980460Y-123559000D01*
X150046642Y-123565518D01*
X150046642Y-123565518D01*
G37*
G36*
X175446642Y-123565518D02*
G01*
X175512827Y-123572037D01*
X175682666Y-123623557D01*
X175839191Y-123707222D01*
X175874929Y-123736552D01*
X175976386Y-123819814D01*
X176059648Y-123921271D01*
X176088978Y-123957009D01*
X176172643Y-124113534D01*
X176224163Y-124283373D01*
X176241559Y-124460000D01*
X176224163Y-124636627D01*
X176172643Y-124806466D01*
X176088978Y-124962991D01*
X176059648Y-124998729D01*
X175976386Y-125100186D01*
X175874929Y-125183448D01*
X175839191Y-125212778D01*
X175682666Y-125296443D01*
X175512827Y-125347963D01*
X175446642Y-125354482D01*
X175380460Y-125361000D01*
X175291940Y-125361000D01*
X175225758Y-125354482D01*
X175159573Y-125347963D01*
X174989734Y-125296443D01*
X174833209Y-125212778D01*
X174797471Y-125183448D01*
X174696014Y-125100186D01*
X174612752Y-124998729D01*
X174583422Y-124962991D01*
X174499757Y-124806466D01*
X174448237Y-124636627D01*
X174430841Y-124460000D01*
X174448237Y-124283373D01*
X174499757Y-124113534D01*
X174583422Y-123957009D01*
X174612752Y-123921271D01*
X174696014Y-123819814D01*
X174797471Y-123736552D01*
X174833209Y-123707222D01*
X174989734Y-123623557D01*
X175159573Y-123572037D01*
X175225758Y-123565518D01*
X175291940Y-123559000D01*
X175380460Y-123559000D01*
X175446642Y-123565518D01*
X175446642Y-123565518D01*
G37*
G36*
X122803200Y-124161000D02*
G01*
X121951200Y-124161000D01*
X121951200Y-123259000D01*
X122803200Y-123259000D01*
X122803200Y-124161000D01*
X122803200Y-124161000D01*
G37*
G36*
X120974400Y-124161000D02*
G01*
X120122400Y-124161000D01*
X120122400Y-123259000D01*
X120974400Y-123259000D01*
X120974400Y-124161000D01*
X120974400Y-124161000D01*
G37*
G36*
X110470400Y-123450000D02*
G01*
X109868400Y-123450000D01*
X109868400Y-122748000D01*
X110470400Y-122748000D01*
X110470400Y-123450000D01*
X110470400Y-123450000D01*
G37*
G36*
X110470400Y-122350000D02*
G01*
X109868400Y-122350000D01*
X109868400Y-121648000D01*
X110470400Y-121648000D01*
X110470400Y-122350000D01*
X110470400Y-122350000D01*
G37*
G36*
X180826800Y-121179600D02*
G01*
X180124800Y-121179600D01*
X180124800Y-120577600D01*
X180826800Y-120577600D01*
X180826800Y-121179600D01*
X180826800Y-121179600D01*
G37*
G36*
X181926800Y-121179600D02*
G01*
X181224800Y-121179600D01*
X181224800Y-120577600D01*
X181926800Y-120577600D01*
X181926800Y-121179600D01*
X181926800Y-121179600D01*
G37*
G36*
X110470564Y-118623389D02*
G01*
X110661833Y-118702615D01*
X110661835Y-118702616D01*
X110833973Y-118817635D01*
X110980365Y-118964027D01*
X111095385Y-119136167D01*
X111174611Y-119327436D01*
X111215000Y-119530484D01*
X111215000Y-119737516D01*
X111174611Y-119940564D01*
X111095385Y-120131833D01*
X111095384Y-120131835D01*
X110980365Y-120303973D01*
X110833973Y-120450365D01*
X110661835Y-120565384D01*
X110661834Y-120565385D01*
X110661833Y-120565385D01*
X110470564Y-120644611D01*
X110267516Y-120685000D01*
X110060484Y-120685000D01*
X109857436Y-120644611D01*
X109666167Y-120565385D01*
X109666166Y-120565385D01*
X109666165Y-120565384D01*
X109494027Y-120450365D01*
X109347635Y-120303973D01*
X109232616Y-120131835D01*
X109232615Y-120131833D01*
X109153389Y-119940564D01*
X109113000Y-119737516D01*
X109113000Y-119530484D01*
X109153389Y-119327436D01*
X109232615Y-119136167D01*
X109347635Y-118964027D01*
X109494027Y-118817635D01*
X109666165Y-118702616D01*
X109666167Y-118702615D01*
X109857436Y-118623389D01*
X110060484Y-118583000D01*
X110267516Y-118583000D01*
X110470564Y-118623389D01*
X110470564Y-118623389D01*
G37*
G36*
X105970564Y-118623389D02*
G01*
X106161833Y-118702615D01*
X106161835Y-118702616D01*
X106333973Y-118817635D01*
X106480365Y-118964027D01*
X106595385Y-119136167D01*
X106674611Y-119327436D01*
X106715000Y-119530484D01*
X106715000Y-119737516D01*
X106674611Y-119940564D01*
X106595385Y-120131833D01*
X106595384Y-120131835D01*
X106480365Y-120303973D01*
X106333973Y-120450365D01*
X106161835Y-120565384D01*
X106161834Y-120565385D01*
X106161833Y-120565385D01*
X105970564Y-120644611D01*
X105767516Y-120685000D01*
X105560484Y-120685000D01*
X105357436Y-120644611D01*
X105166167Y-120565385D01*
X105166166Y-120565385D01*
X105166165Y-120565384D01*
X104994027Y-120450365D01*
X104847635Y-120303973D01*
X104732616Y-120131835D01*
X104732615Y-120131833D01*
X104653389Y-119940564D01*
X104613000Y-119737516D01*
X104613000Y-119530484D01*
X104653389Y-119327436D01*
X104732615Y-119136167D01*
X104847635Y-118964027D01*
X104994027Y-118817635D01*
X105166165Y-118702616D01*
X105166167Y-118702615D01*
X105357436Y-118623389D01*
X105560484Y-118583000D01*
X105767516Y-118583000D01*
X105970564Y-118623389D01*
X105970564Y-118623389D01*
G37*
G36*
X183091440Y-119443580D02*
G01*
X181229440Y-119443580D01*
X181229440Y-117581580D01*
X183091440Y-117581580D01*
X183091440Y-119443580D01*
X183091440Y-119443580D01*
G37*
G36*
X180141440Y-119443580D02*
G01*
X178279440Y-119443580D01*
X178279440Y-117581580D01*
X180141440Y-117581580D01*
X180141440Y-119443580D01*
X180141440Y-119443580D01*
G37*
G36*
X191496960Y-119338660D02*
G01*
X190894960Y-119338660D01*
X190894960Y-118636660D01*
X191496960Y-118636660D01*
X191496960Y-119338660D01*
X191496960Y-119338660D01*
G37*
G36*
X115132400Y-119234800D02*
G01*
X114280400Y-119234800D01*
X114280400Y-118332800D01*
X115132400Y-118332800D01*
X115132400Y-119234800D01*
X115132400Y-119234800D01*
G37*
G36*
X187460100Y-118334000D02*
G01*
X186758100Y-118334000D01*
X186758100Y-116682000D01*
X187460100Y-116682000D01*
X187460100Y-118334000D01*
X187460100Y-118334000D01*
G37*
G36*
X188730100Y-118334000D02*
G01*
X188028100Y-118334000D01*
X188028100Y-116682000D01*
X188730100Y-116682000D01*
X188730100Y-118334000D01*
X188730100Y-118334000D01*
G37*
G36*
X190000100Y-118334000D02*
G01*
X189298100Y-118334000D01*
X189298100Y-116682000D01*
X190000100Y-116682000D01*
X190000100Y-118334000D01*
X190000100Y-118334000D01*
G37*
G36*
X186190100Y-118334000D02*
G01*
X185488100Y-118334000D01*
X185488100Y-116682000D01*
X186190100Y-116682000D01*
X186190100Y-118334000D01*
X186190100Y-118334000D01*
G37*
G36*
X191496960Y-118238660D02*
G01*
X190894960Y-118238660D01*
X190894960Y-117536660D01*
X191496960Y-117536660D01*
X191496960Y-118238660D01*
X191496960Y-118238660D01*
G37*
G36*
X115132400Y-117734800D02*
G01*
X114280400Y-117734800D01*
X114280400Y-116832800D01*
X115132400Y-116832800D01*
X115132400Y-117734800D01*
X115132400Y-117734800D01*
G37*
G36*
X183091440Y-116743580D02*
G01*
X181229440Y-116743580D01*
X181229440Y-114881580D01*
X183091440Y-114881580D01*
X183091440Y-116743580D01*
X183091440Y-116743580D01*
G37*
G36*
X180141440Y-116743580D02*
G01*
X178279440Y-116743580D01*
X178279440Y-114881580D01*
X180141440Y-114881580D01*
X180141440Y-116743580D01*
X180141440Y-116743580D01*
G37*
G36*
X174100500Y-115899500D02*
G01*
X173498500Y-115899500D01*
X173498500Y-115197500D01*
X174100500Y-115197500D01*
X174100500Y-115899500D01*
X174100500Y-115899500D01*
G37*
G36*
X174100500Y-114799500D02*
G01*
X173498500Y-114799500D01*
X173498500Y-114097500D01*
X174100500Y-114097500D01*
X174100500Y-114799500D01*
X174100500Y-114799500D01*
G37*
G36*
X110470564Y-112123389D02*
G01*
X110661833Y-112202615D01*
X110661835Y-112202616D01*
X110833973Y-112317635D01*
X110980365Y-112464027D01*
X111095385Y-112636167D01*
X111174611Y-112827436D01*
X111215000Y-113030484D01*
X111215000Y-113237516D01*
X111174611Y-113440564D01*
X111095385Y-113631833D01*
X111095384Y-113631835D01*
X110980365Y-113803973D01*
X110833973Y-113950365D01*
X110661835Y-114065384D01*
X110661834Y-114065385D01*
X110661833Y-114065385D01*
X110470564Y-114144611D01*
X110267516Y-114185000D01*
X110060484Y-114185000D01*
X109857436Y-114144611D01*
X109666167Y-114065385D01*
X109666166Y-114065385D01*
X109666165Y-114065384D01*
X109494027Y-113950365D01*
X109347635Y-113803973D01*
X109232616Y-113631835D01*
X109232615Y-113631833D01*
X109153389Y-113440564D01*
X109113000Y-113237516D01*
X109113000Y-113030484D01*
X109153389Y-112827436D01*
X109232615Y-112636167D01*
X109347635Y-112464027D01*
X109494027Y-112317635D01*
X109666165Y-112202616D01*
X109666167Y-112202615D01*
X109857436Y-112123389D01*
X110060484Y-112083000D01*
X110267516Y-112083000D01*
X110470564Y-112123389D01*
X110470564Y-112123389D01*
G37*
G36*
X105970564Y-112123389D02*
G01*
X106161833Y-112202615D01*
X106161835Y-112202616D01*
X106333973Y-112317635D01*
X106480365Y-112464027D01*
X106595385Y-112636167D01*
X106674611Y-112827436D01*
X106715000Y-113030484D01*
X106715000Y-113237516D01*
X106674611Y-113440564D01*
X106595385Y-113631833D01*
X106595384Y-113631835D01*
X106480365Y-113803973D01*
X106333973Y-113950365D01*
X106161835Y-114065384D01*
X106161834Y-114065385D01*
X106161833Y-114065385D01*
X105970564Y-114144611D01*
X105767516Y-114185000D01*
X105560484Y-114185000D01*
X105357436Y-114144611D01*
X105166167Y-114065385D01*
X105166166Y-114065385D01*
X105166165Y-114065384D01*
X104994027Y-113950365D01*
X104847635Y-113803973D01*
X104732616Y-113631835D01*
X104732615Y-113631833D01*
X104653389Y-113440564D01*
X104613000Y-113237516D01*
X104613000Y-113030484D01*
X104653389Y-112827436D01*
X104732615Y-112636167D01*
X104847635Y-112464027D01*
X104994027Y-112317635D01*
X105166165Y-112202616D01*
X105166167Y-112202615D01*
X105357436Y-112123389D01*
X105560484Y-112083000D01*
X105767516Y-112083000D01*
X105970564Y-112123389D01*
X105970564Y-112123389D01*
G37*
G36*
X177741000Y-112996000D02*
G01*
X171839000Y-112996000D01*
X171839000Y-111494000D01*
X177741000Y-111494000D01*
X177741000Y-112996000D01*
X177741000Y-112996000D01*
G37*
G36*
X190000100Y-112934000D02*
G01*
X189298100Y-112934000D01*
X189298100Y-111282000D01*
X190000100Y-111282000D01*
X190000100Y-112934000D01*
X190000100Y-112934000D01*
G37*
G36*
X188730100Y-112934000D02*
G01*
X188028100Y-112934000D01*
X188028100Y-111282000D01*
X188730100Y-111282000D01*
X188730100Y-112934000D01*
X188730100Y-112934000D01*
G37*
G36*
X187460100Y-112934000D02*
G01*
X186758100Y-112934000D01*
X186758100Y-111282000D01*
X187460100Y-111282000D01*
X187460100Y-112934000D01*
X187460100Y-112934000D01*
G37*
G36*
X186190100Y-112934000D02*
G01*
X185488100Y-112934000D01*
X185488100Y-111282000D01*
X186190100Y-111282000D01*
X186190100Y-112934000D01*
X186190100Y-112934000D01*
G37*
G36*
X134067000Y-112841600D02*
G01*
X133465000Y-112841600D01*
X133465000Y-112139600D01*
X134067000Y-112139600D01*
X134067000Y-112841600D01*
X134067000Y-112841600D01*
G37*
G36*
X119353900Y-111959400D02*
G01*
X118651900Y-111959400D01*
X118651900Y-111357400D01*
X119353900Y-111357400D01*
X119353900Y-111959400D01*
X119353900Y-111959400D01*
G37*
G36*
X118253900Y-111959400D02*
G01*
X117551900Y-111959400D01*
X117551900Y-111357400D01*
X118253900Y-111357400D01*
X118253900Y-111959400D01*
X118253900Y-111959400D01*
G37*
G36*
X134067000Y-111741600D02*
G01*
X133465000Y-111741600D01*
X133465000Y-111039600D01*
X134067000Y-111039600D01*
X134067000Y-111741600D01*
X134067000Y-111741600D01*
G37*
G36*
X171466000Y-111121000D02*
G01*
X169964000Y-111121000D01*
X169964000Y-105219000D01*
X171466000Y-105219000D01*
X171466000Y-111121000D01*
X171466000Y-111121000D01*
G37*
G36*
X179616000Y-111121000D02*
G01*
X178114000Y-111121000D01*
X178114000Y-105219000D01*
X179616000Y-105219000D01*
X179616000Y-111121000D01*
X179616000Y-111121000D01*
G37*
G36*
X133363000Y-110361000D02*
G01*
X120961000Y-110361000D01*
X120961000Y-108759000D01*
X133363000Y-108759000D01*
X133363000Y-110361000D01*
X133363000Y-110361000D01*
G37*
G36*
X188048480Y-110123520D02*
G01*
X187146480Y-110123520D01*
X187146480Y-109271520D01*
X188048480Y-109271520D01*
X188048480Y-110123520D01*
X188048480Y-110123520D01*
G37*
G36*
X186548480Y-110123520D02*
G01*
X185646480Y-110123520D01*
X185646480Y-109271520D01*
X186548480Y-109271520D01*
X186548480Y-110123520D01*
X186548480Y-110123520D01*
G37*
G36*
X195039220Y-109944440D02*
G01*
X193037220Y-109944440D01*
X193037220Y-108242440D01*
X195039220Y-108242440D01*
X195039220Y-109944440D01*
X195039220Y-109944440D01*
G37*
G36*
X105376100Y-109758100D02*
G01*
X104636100Y-109758100D01*
X104636100Y-108318100D01*
X105376100Y-108318100D01*
X105376100Y-109758100D01*
X105376100Y-109758100D01*
G37*
G36*
X107276100Y-109758100D02*
G01*
X106536100Y-109758100D01*
X106536100Y-108318100D01*
X107276100Y-108318100D01*
X107276100Y-109758100D01*
X107276100Y-109758100D01*
G37*
G36*
X167486900Y-109292400D02*
G01*
X166784900Y-109292400D01*
X166784900Y-108690400D01*
X167486900Y-108690400D01*
X167486900Y-109292400D01*
X167486900Y-109292400D01*
G37*
G36*
X166386900Y-109292400D02*
G01*
X165684900Y-109292400D01*
X165684900Y-108690400D01*
X166386900Y-108690400D01*
X166386900Y-109292400D01*
X166386900Y-109292400D01*
G37*
G36*
X192739220Y-109194440D02*
G01*
X190637220Y-109194440D01*
X190637220Y-106992440D01*
X192739220Y-106992440D01*
X192739220Y-109194440D01*
X192739220Y-109194440D01*
G37*
G36*
X184067460Y-109082140D02*
G01*
X183465460Y-109082140D01*
X183465460Y-108380140D01*
X184067460Y-108380140D01*
X184067460Y-109082140D01*
X184067460Y-109082140D01*
G37*
G36*
X110933800Y-108526700D02*
G01*
X109131800Y-108526700D01*
X109131800Y-107774700D01*
X110933800Y-107774700D01*
X110933800Y-108526700D01*
X110933800Y-108526700D01*
G37*
G36*
X186481000Y-108404240D02*
G01*
X185629000Y-108404240D01*
X185629000Y-107502240D01*
X186481000Y-107502240D01*
X186481000Y-108404240D01*
X186481000Y-108404240D01*
G37*
G36*
X166374200Y-108174800D02*
G01*
X165672200Y-108174800D01*
X165672200Y-107572800D01*
X166374200Y-107572800D01*
X166374200Y-108174800D01*
X166374200Y-108174800D01*
G37*
G36*
X167474200Y-108174800D02*
G01*
X166772200Y-108174800D01*
X166772200Y-107572800D01*
X167474200Y-107572800D01*
X167474200Y-108174800D01*
X167474200Y-108174800D01*
G37*
G36*
X135663000Y-108061000D02*
G01*
X134061000Y-108061000D01*
X134061000Y-95659000D01*
X135663000Y-95659000D01*
X135663000Y-108061000D01*
X135663000Y-108061000D01*
G37*
G36*
X120263000Y-108061000D02*
G01*
X118661000Y-108061000D01*
X118661000Y-95659000D01*
X120263000Y-95659000D01*
X120263000Y-108061000D01*
X120263000Y-108061000D01*
G37*
G36*
X184067460Y-107982140D02*
G01*
X183465460Y-107982140D01*
X183465460Y-107280140D01*
X184067460Y-107280140D01*
X184067460Y-107982140D01*
X184067460Y-107982140D01*
G37*
G36*
X195018101Y-106780197D02*
G01*
X195056805Y-106787896D01*
X195088840Y-106801165D01*
X195166180Y-106833200D01*
X195264615Y-106898973D01*
X195348327Y-106982685D01*
X195414100Y-107081120D01*
X195459404Y-107190496D01*
X195482500Y-107306605D01*
X195482500Y-107424995D01*
X195459404Y-107541104D01*
X195414100Y-107650480D01*
X195348327Y-107748915D01*
X195264615Y-107832627D01*
X195166180Y-107898400D01*
X195088840Y-107930435D01*
X195056805Y-107943704D01*
X195018101Y-107951403D01*
X194940695Y-107966800D01*
X194822305Y-107966800D01*
X194744899Y-107951403D01*
X194706195Y-107943704D01*
X194674160Y-107930435D01*
X194596820Y-107898400D01*
X194498385Y-107832627D01*
X194414673Y-107748915D01*
X194348900Y-107650480D01*
X194303596Y-107541104D01*
X194280500Y-107424995D01*
X194280500Y-107306605D01*
X194303596Y-107190496D01*
X194348900Y-107081120D01*
X194414673Y-106982685D01*
X194498385Y-106898973D01*
X194596820Y-106833200D01*
X194674160Y-106801165D01*
X194706195Y-106787896D01*
X194744899Y-106780197D01*
X194822305Y-106764800D01*
X194940695Y-106764800D01*
X195018101Y-106780197D01*
X195018101Y-106780197D01*
G37*
G36*
X106326100Y-107658100D02*
G01*
X105586100Y-107658100D01*
X105586100Y-106218100D01*
X106326100Y-106218100D01*
X106326100Y-107658100D01*
X106326100Y-107658100D01*
G37*
G36*
X166374200Y-107057200D02*
G01*
X165672200Y-107057200D01*
X165672200Y-106455200D01*
X166374200Y-106455200D01*
X166374200Y-107057200D01*
X166374200Y-107057200D01*
G37*
G36*
X167474200Y-107057200D02*
G01*
X166772200Y-107057200D01*
X166772200Y-106455200D01*
X167474200Y-106455200D01*
X167474200Y-107057200D01*
X167474200Y-107057200D01*
G37*
G36*
X186481000Y-106904240D02*
G01*
X185629000Y-106904240D01*
X185629000Y-106002240D01*
X186481000Y-106002240D01*
X186481000Y-106904240D01*
X186481000Y-106904240D01*
G37*
G36*
X182602420Y-106849760D02*
G01*
X181750420Y-106849760D01*
X181750420Y-105947760D01*
X182602420Y-105947760D01*
X182602420Y-106849760D01*
X182602420Y-106849760D01*
G37*
G36*
X109633800Y-106626700D02*
G01*
X109131800Y-106626700D01*
X109131800Y-105874700D01*
X109633800Y-105874700D01*
X109633800Y-106626700D01*
X109633800Y-106626700D01*
G37*
G36*
X110933800Y-106626700D02*
G01*
X110431800Y-106626700D01*
X110431800Y-105874700D01*
X110933800Y-105874700D01*
X110933800Y-106626700D01*
X110933800Y-106626700D01*
G37*
G36*
X192089220Y-106544440D02*
G01*
X190237220Y-106544440D01*
X190237220Y-106042440D01*
X190512221Y-106042440D01*
X190536607Y-106040038D01*
X190560056Y-106032925D01*
X190581667Y-106021374D01*
X190600609Y-106005829D01*
X190616154Y-105986887D01*
X190627705Y-105965276D01*
X190634818Y-105941827D01*
X190637220Y-105917441D01*
X190637220Y-105369439D01*
X190634818Y-105345053D01*
X190627705Y-105321604D01*
X190616154Y-105299993D01*
X190600609Y-105281051D01*
X190581667Y-105265506D01*
X190560056Y-105253955D01*
X190536607Y-105246842D01*
X190512221Y-105244440D01*
X190237220Y-105244440D01*
X190237220Y-103442440D01*
X192089220Y-103442440D01*
X192089220Y-106544440D01*
X192089220Y-106544440D01*
G37*
G36*
X195039220Y-106494440D02*
G01*
X193037220Y-106494440D01*
X193037220Y-105192440D01*
X195039220Y-105192440D01*
X195039220Y-106494440D01*
X195039220Y-106494440D01*
G37*
G36*
X168182300Y-105574400D02*
G01*
X167580300Y-105574400D01*
X167580300Y-104872400D01*
X168182300Y-104872400D01*
X168182300Y-105574400D01*
X168182300Y-105574400D01*
G37*
G36*
X169325300Y-105574400D02*
G01*
X168723300Y-105574400D01*
X168723300Y-104872400D01*
X169325300Y-104872400D01*
X169325300Y-105574400D01*
X169325300Y-105574400D01*
G37*
G36*
X107784200Y-105482400D02*
G01*
X107082200Y-105482400D01*
X107082200Y-104880400D01*
X107784200Y-104880400D01*
X107784200Y-105482400D01*
X107784200Y-105482400D01*
G37*
G36*
X106684200Y-105482400D02*
G01*
X105982200Y-105482400D01*
X105982200Y-104880400D01*
X106684200Y-104880400D01*
X106684200Y-105482400D01*
X106684200Y-105482400D01*
G37*
G36*
X182602420Y-105349760D02*
G01*
X181750420Y-105349760D01*
X181750420Y-104447760D01*
X182602420Y-104447760D01*
X182602420Y-105349760D01*
X182602420Y-105349760D01*
G37*
G36*
X177741000Y-104846000D02*
G01*
X171839000Y-104846000D01*
X171839000Y-103344000D01*
X177741000Y-103344000D01*
X177741000Y-104846000D01*
X177741000Y-104846000D01*
G37*
G36*
X195039220Y-104794440D02*
G01*
X193037220Y-104794440D01*
X193037220Y-103492440D01*
X195039220Y-103492440D01*
X195039220Y-104794440D01*
X195039220Y-104794440D01*
G37*
G36*
X111284600Y-104718400D02*
G01*
X110382600Y-104718400D01*
X110382600Y-103866400D01*
X111284600Y-103866400D01*
X111284600Y-104718400D01*
X111284600Y-104718400D01*
G37*
G36*
X109784600Y-104718400D02*
G01*
X108882600Y-104718400D01*
X108882600Y-103866400D01*
X109784600Y-103866400D01*
X109784600Y-104718400D01*
X109784600Y-104718400D01*
G37*
G36*
X169325300Y-104474400D02*
G01*
X168723300Y-104474400D01*
X168723300Y-103772400D01*
X169325300Y-103772400D01*
X169325300Y-104474400D01*
X169325300Y-104474400D01*
G37*
G36*
X168182300Y-104474400D02*
G01*
X167580300Y-104474400D01*
X167580300Y-103772400D01*
X168182300Y-103772400D01*
X168182300Y-104474400D01*
X168182300Y-104474400D01*
G37*
G36*
X186582900Y-104197700D02*
G01*
X185680900Y-104197700D01*
X185680900Y-103345700D01*
X186582900Y-103345700D01*
X186582900Y-104197700D01*
X186582900Y-104197700D01*
G37*
G36*
X185082900Y-104197700D02*
G01*
X184180900Y-104197700D01*
X184180900Y-103345700D01*
X185082900Y-103345700D01*
X185082900Y-104197700D01*
X185082900Y-104197700D01*
G37*
G36*
X195018101Y-102030397D02*
G01*
X195056805Y-102038096D01*
X195088840Y-102051365D01*
X195166180Y-102083400D01*
X195264615Y-102149173D01*
X195348327Y-102232885D01*
X195414100Y-102331320D01*
X195459404Y-102440696D01*
X195482500Y-102556805D01*
X195482500Y-102675195D01*
X195459404Y-102791304D01*
X195414100Y-102900680D01*
X195348327Y-102999115D01*
X195264615Y-103082827D01*
X195166180Y-103148600D01*
X195088840Y-103180635D01*
X195056805Y-103193904D01*
X195018101Y-103201603D01*
X194940695Y-103217000D01*
X194822305Y-103217000D01*
X194744899Y-103201603D01*
X194706195Y-103193904D01*
X194674160Y-103180635D01*
X194596820Y-103148600D01*
X194498385Y-103082827D01*
X194414673Y-102999115D01*
X194348900Y-102900680D01*
X194303596Y-102791304D01*
X194280500Y-102675195D01*
X194280500Y-102556805D01*
X194303596Y-102440696D01*
X194348900Y-102331320D01*
X194414673Y-102232885D01*
X194498385Y-102149173D01*
X194596820Y-102083400D01*
X194674160Y-102051365D01*
X194706195Y-102038096D01*
X194744899Y-102030397D01*
X194822305Y-102015000D01*
X194940695Y-102015000D01*
X195018101Y-102030397D01*
X195018101Y-102030397D01*
G37*
G36*
X106684200Y-103158300D02*
G01*
X105982200Y-103158300D01*
X105982200Y-102556300D01*
X106684200Y-102556300D01*
X106684200Y-103158300D01*
X106684200Y-103158300D01*
G37*
G36*
X107784200Y-103158300D02*
G01*
X107082200Y-103158300D01*
X107082200Y-102556300D01*
X107784200Y-102556300D01*
X107784200Y-103158300D01*
X107784200Y-103158300D01*
G37*
G36*
X192739220Y-102994440D02*
G01*
X190637220Y-102994440D01*
X190637220Y-100792440D01*
X192739220Y-100792440D01*
X192739220Y-102994440D01*
X192739220Y-102994440D01*
G37*
G36*
X111296600Y-102991200D02*
G01*
X110394600Y-102991200D01*
X110394600Y-102139200D01*
X111296600Y-102139200D01*
X111296600Y-102991200D01*
X111296600Y-102991200D01*
G37*
G36*
X109796600Y-102991200D02*
G01*
X108894600Y-102991200D01*
X108894600Y-102139200D01*
X109796600Y-102139200D01*
X109796600Y-102991200D01*
X109796600Y-102991200D01*
G37*
G36*
X178497800Y-102955100D02*
G01*
X177795800Y-102955100D01*
X177795800Y-102353100D01*
X178497800Y-102353100D01*
X178497800Y-102955100D01*
X178497800Y-102955100D01*
G37*
G36*
X177397800Y-102955100D02*
G01*
X176695800Y-102955100D01*
X176695800Y-102353100D01*
X177397800Y-102353100D01*
X177397800Y-102955100D01*
X177397800Y-102955100D01*
G37*
G36*
X164324600Y-102510600D02*
G01*
X163622600Y-102510600D01*
X163622600Y-101908600D01*
X164324600Y-101908600D01*
X164324600Y-102510600D01*
X164324600Y-102510600D01*
G37*
G36*
X163224600Y-102510600D02*
G01*
X162522600Y-102510600D01*
X162522600Y-101908600D01*
X163224600Y-101908600D01*
X163224600Y-102510600D01*
X163224600Y-102510600D01*
G37*
G36*
X185099540Y-102452720D02*
G01*
X184197540Y-102452720D01*
X184197540Y-101600720D01*
X185099540Y-101600720D01*
X185099540Y-102452720D01*
X185099540Y-102452720D01*
G37*
G36*
X183599540Y-102452720D02*
G01*
X182697540Y-102452720D01*
X182697540Y-101600720D01*
X183599540Y-101600720D01*
X183599540Y-102452720D01*
X183599540Y-102452720D01*
G37*
G36*
X154114980Y-102111020D02*
G01*
X153412980Y-102111020D01*
X153412980Y-100459020D01*
X154114980Y-100459020D01*
X154114980Y-102111020D01*
X154114980Y-102111020D01*
G37*
G36*
X152844980Y-102111020D02*
G01*
X152142980Y-102111020D01*
X152142980Y-100459020D01*
X152844980Y-100459020D01*
X152844980Y-102111020D01*
X152844980Y-102111020D01*
G37*
G36*
X150304980Y-102111020D02*
G01*
X149602980Y-102111020D01*
X149602980Y-100459020D01*
X150304980Y-100459020D01*
X150304980Y-102111020D01*
X150304980Y-102111020D01*
G37*
G36*
X151574980Y-102111020D02*
G01*
X150872980Y-102111020D01*
X150872980Y-100459020D01*
X151574980Y-100459020D01*
X151574980Y-102111020D01*
X151574980Y-102111020D01*
G37*
G36*
X195039220Y-101744440D02*
G01*
X193037220Y-101744440D01*
X193037220Y-100042440D01*
X195039220Y-100042440D01*
X195039220Y-101744440D01*
X195039220Y-101744440D01*
G37*
G36*
X188382000Y-101627000D02*
G01*
X187030000Y-101627000D01*
X187030000Y-100525000D01*
X188382000Y-100525000D01*
X188382000Y-101627000D01*
X188382000Y-101627000D01*
G37*
G36*
X113872400Y-101393000D02*
G01*
X113170400Y-101393000D01*
X113170400Y-100791000D01*
X113872400Y-100791000D01*
X113872400Y-101393000D01*
X113872400Y-101393000D01*
G37*
G36*
X114972400Y-101393000D02*
G01*
X114270400Y-101393000D01*
X114270400Y-100791000D01*
X114972400Y-100791000D01*
X114972400Y-101393000D01*
X114972400Y-101393000D01*
G37*
G36*
X147496920Y-100379540D02*
G01*
X146794920Y-100379540D01*
X146794920Y-99777540D01*
X147496920Y-99777540D01*
X147496920Y-100379540D01*
X147496920Y-100379540D01*
G37*
G36*
X148596920Y-100379540D02*
G01*
X147894920Y-100379540D01*
X147894920Y-99777540D01*
X148596920Y-99777540D01*
X148596920Y-100379540D01*
X148596920Y-100379540D01*
G37*
G36*
X184941780Y-100371920D02*
G01*
X184239780Y-100371920D01*
X184239780Y-99769920D01*
X184941780Y-99769920D01*
X184941780Y-100371920D01*
X184941780Y-100371920D01*
G37*
G36*
X183841780Y-100371920D02*
G01*
X183139780Y-100371920D01*
X183139780Y-99769920D01*
X183841780Y-99769920D01*
X183841780Y-100371920D01*
X183841780Y-100371920D01*
G37*
G36*
X109742200Y-99925600D02*
G01*
X107840200Y-99925600D01*
X107840200Y-98283600D01*
X109742200Y-98283600D01*
X109742200Y-99925600D01*
X109742200Y-99925600D01*
G37*
G36*
X106942200Y-99925600D02*
G01*
X105040200Y-99925600D01*
X105040200Y-98283600D01*
X106942200Y-98283600D01*
X106942200Y-99925600D01*
X106942200Y-99925600D01*
G37*
G36*
X188382000Y-99627000D02*
G01*
X187030000Y-99627000D01*
X187030000Y-98525000D01*
X188382000Y-98525000D01*
X188382000Y-99627000D01*
X188382000Y-99627000D01*
G37*
G36*
X182564200Y-98646100D02*
G01*
X181402200Y-98646100D01*
X181402200Y-97894100D01*
X182564200Y-97894100D01*
X182564200Y-98646100D01*
X182564200Y-98646100D01*
G37*
G36*
X184764200Y-98646100D02*
G01*
X183602200Y-98646100D01*
X183602200Y-95994100D01*
X184764200Y-95994100D01*
X184764200Y-98646100D01*
X184764200Y-98646100D01*
G37*
G36*
X179691580Y-97446680D02*
G01*
X178839580Y-97446680D01*
X178839580Y-96544680D01*
X179691580Y-96544680D01*
X179691580Y-97446680D01*
X179691580Y-97446680D01*
G37*
G36*
X188623780Y-97399200D02*
G01*
X187521780Y-97399200D01*
X187521780Y-96047200D01*
X188623780Y-96047200D01*
X188623780Y-97399200D01*
X188623780Y-97399200D01*
G37*
G36*
X186623780Y-97399200D02*
G01*
X185521780Y-97399200D01*
X185521780Y-96047200D01*
X186623780Y-96047200D01*
X186623780Y-97399200D01*
X186623780Y-97399200D01*
G37*
G36*
X109742200Y-97245600D02*
G01*
X107840200Y-97245600D01*
X107840200Y-95603600D01*
X109742200Y-95603600D01*
X109742200Y-97245600D01*
X109742200Y-97245600D01*
G37*
G36*
X106942200Y-97245600D02*
G01*
X105040200Y-97245600D01*
X105040200Y-95603600D01*
X106942200Y-95603600D01*
X106942200Y-97245600D01*
X106942200Y-97245600D01*
G37*
G36*
X182564200Y-96746100D02*
G01*
X181402200Y-96746100D01*
X181402200Y-95994100D01*
X182564200Y-95994100D01*
X182564200Y-96746100D01*
X182564200Y-96746100D01*
G37*
G36*
X152844980Y-96711020D02*
G01*
X152142980Y-96711020D01*
X152142980Y-95059020D01*
X152844980Y-95059020D01*
X152844980Y-96711020D01*
X152844980Y-96711020D01*
G37*
G36*
X154114980Y-96711020D02*
G01*
X153412980Y-96711020D01*
X153412980Y-95059020D01*
X154114980Y-95059020D01*
X154114980Y-96711020D01*
X154114980Y-96711020D01*
G37*
G36*
X150304980Y-96711020D02*
G01*
X149602980Y-96711020D01*
X149602980Y-95059020D01*
X150304980Y-95059020D01*
X150304980Y-96711020D01*
X150304980Y-96711020D01*
G37*
G36*
X151574980Y-96711020D02*
G01*
X150872980Y-96711020D01*
X150872980Y-95059020D01*
X151574980Y-95059020D01*
X151574980Y-96711020D01*
X151574980Y-96711020D01*
G37*
G36*
X103780600Y-96328800D02*
G01*
X103178600Y-96328800D01*
X103178600Y-95626800D01*
X103780600Y-95626800D01*
X103780600Y-96328800D01*
X103780600Y-96328800D01*
G37*
G36*
X148230600Y-95973200D02*
G01*
X147628600Y-95973200D01*
X147628600Y-95271200D01*
X148230600Y-95271200D01*
X148230600Y-95973200D01*
X148230600Y-95973200D01*
G37*
G36*
X179691580Y-95946680D02*
G01*
X178839580Y-95946680D01*
X178839580Y-95044680D01*
X179691580Y-95044680D01*
X179691580Y-95946680D01*
X179691580Y-95946680D01*
G37*
G36*
X103780600Y-95228800D02*
G01*
X103178600Y-95228800D01*
X103178600Y-94526800D01*
X103780600Y-94526800D01*
X103780600Y-95228800D01*
X103780600Y-95228800D01*
G37*
G36*
X133363000Y-94961000D02*
G01*
X120961000Y-94961000D01*
X120961000Y-93359000D01*
X133363000Y-93359000D01*
X133363000Y-94961000D01*
X133363000Y-94961000D01*
G37*
G36*
X148230600Y-94873200D02*
G01*
X147628600Y-94873200D01*
X147628600Y-94171200D01*
X148230600Y-94171200D01*
X148230600Y-94873200D01*
X148230600Y-94873200D01*
G37*
G36*
X183964160Y-94845420D02*
G01*
X183062160Y-94845420D01*
X183062160Y-93993420D01*
X183964160Y-93993420D01*
X183964160Y-94845420D01*
X183964160Y-94845420D01*
G37*
G36*
X182464160Y-94845420D02*
G01*
X181562160Y-94845420D01*
X181562160Y-93993420D01*
X182464160Y-93993420D01*
X182464160Y-94845420D01*
X182464160Y-94845420D01*
G37*
G36*
X150435700Y-94349580D02*
G01*
X149733700Y-94349580D01*
X149733700Y-93747580D01*
X150435700Y-93747580D01*
X150435700Y-94349580D01*
X150435700Y-94349580D01*
G37*
G36*
X151535700Y-94349580D02*
G01*
X150833700Y-94349580D01*
X150833700Y-93747580D01*
X151535700Y-93747580D01*
X151535700Y-94349580D01*
X151535700Y-94349580D01*
G37*
G36*
X120027000Y-93011000D02*
G01*
X119325000Y-93011000D01*
X119325000Y-92409000D01*
X120027000Y-92409000D01*
X120027000Y-93011000D01*
X120027000Y-93011000D01*
G37*
G36*
X118927000Y-93011000D02*
G01*
X118225000Y-93011000D01*
X118225000Y-92409000D01*
X118927000Y-92409000D01*
X118927000Y-93011000D01*
X118927000Y-93011000D01*
G37*
G36*
X132396800Y-91690200D02*
G01*
X131694800Y-91690200D01*
X131694800Y-91088200D01*
X132396800Y-91088200D01*
X132396800Y-91690200D01*
X132396800Y-91690200D01*
G37*
G36*
X131296800Y-91690200D02*
G01*
X130594800Y-91690200D01*
X130594800Y-91088200D01*
X131296800Y-91088200D01*
X131296800Y-91690200D01*
X131296800Y-91690200D01*
G37*
G36*
X153611500Y-91004500D02*
G01*
X152909500Y-91004500D01*
X152909500Y-88652500D01*
X153611500Y-88652500D01*
X153611500Y-91004500D01*
X153611500Y-91004500D01*
G37*
G36*
X152341500Y-91004500D02*
G01*
X151639500Y-91004500D01*
X151639500Y-88652500D01*
X152341500Y-88652500D01*
X152341500Y-91004500D01*
X152341500Y-91004500D01*
G37*
G36*
X154881500Y-91004500D02*
G01*
X154179500Y-91004500D01*
X154179500Y-88652500D01*
X154881500Y-88652500D01*
X154881500Y-91004500D01*
X154881500Y-91004500D01*
G37*
G36*
X156151500Y-91004500D02*
G01*
X155449500Y-91004500D01*
X155449500Y-88652500D01*
X156151500Y-88652500D01*
X156151500Y-91004500D01*
X156151500Y-91004500D01*
G37*
G36*
X163771500Y-91004500D02*
G01*
X163069500Y-91004500D01*
X163069500Y-88652500D01*
X163771500Y-88652500D01*
X163771500Y-91004500D01*
X163771500Y-91004500D01*
G37*
G36*
X157421500Y-91004500D02*
G01*
X156719500Y-91004500D01*
X156719500Y-88652500D01*
X157421500Y-88652500D01*
X157421500Y-91004500D01*
X157421500Y-91004500D01*
G37*
G36*
X158691500Y-91004500D02*
G01*
X157989500Y-91004500D01*
X157989500Y-88652500D01*
X158691500Y-88652500D01*
X158691500Y-91004500D01*
X158691500Y-91004500D01*
G37*
G36*
X161231500Y-91004500D02*
G01*
X160529500Y-91004500D01*
X160529500Y-88652500D01*
X161231500Y-88652500D01*
X161231500Y-91004500D01*
X161231500Y-91004500D01*
G37*
G36*
X159961500Y-91004500D02*
G01*
X159259500Y-91004500D01*
X159259500Y-88652500D01*
X159961500Y-88652500D01*
X159961500Y-91004500D01*
X159961500Y-91004500D01*
G37*
G36*
X162501500Y-91004500D02*
G01*
X161799500Y-91004500D01*
X161799500Y-88652500D01*
X162501500Y-88652500D01*
X162501500Y-91004500D01*
X162501500Y-91004500D01*
G37*
G36*
X184627500Y-88937000D02*
G01*
X183325500Y-88937000D01*
X183325500Y-87335000D01*
X184627500Y-87335000D01*
X184627500Y-88937000D01*
X184627500Y-88937000D01*
G37*
G36*
X190627500Y-88937000D02*
G01*
X189725500Y-88937000D01*
X189725500Y-87335000D01*
X190627500Y-87335000D01*
X190627500Y-88937000D01*
X190627500Y-88937000D01*
G37*
G36*
X195777500Y-88937000D02*
G01*
X192875500Y-88937000D01*
X192875500Y-87335000D01*
X195777500Y-87335000D01*
X195777500Y-88937000D01*
X195777500Y-88937000D01*
G37*
G36*
X176051600Y-88489800D02*
G01*
X175349600Y-88489800D01*
X175349600Y-87887800D01*
X176051600Y-87887800D01*
X176051600Y-88489800D01*
X176051600Y-88489800D01*
G37*
G36*
X177151600Y-88489800D02*
G01*
X176449600Y-88489800D01*
X176449600Y-87887800D01*
X177151600Y-87887800D01*
X177151600Y-88489800D01*
X177151600Y-88489800D01*
G37*
G36*
X105098300Y-87403500D02*
G01*
X104496300Y-87403500D01*
X104496300Y-86701500D01*
X105098300Y-86701500D01*
X105098300Y-87403500D01*
X105098300Y-87403500D01*
G37*
G36*
X180327500Y-87337000D02*
G01*
X178725500Y-87337000D01*
X178725500Y-85585000D01*
X180327500Y-85585000D01*
X180327500Y-87337000D01*
X180327500Y-87337000D01*
G37*
G36*
X105098300Y-86303500D02*
G01*
X104496300Y-86303500D01*
X104496300Y-85601500D01*
X105098300Y-85601500D01*
X105098300Y-86303500D01*
X105098300Y-86303500D01*
G37*
G36*
X180327500Y-85287000D02*
G01*
X178725500Y-85287000D01*
X178725500Y-84485000D01*
X180327500Y-84485000D01*
X180327500Y-85287000D01*
X180327500Y-85287000D01*
G37*
G36*
X149093280Y-84314360D02*
G01*
X147741280Y-84314360D01*
X147741280Y-83212360D01*
X149093280Y-83212360D01*
X149093280Y-84314360D01*
X149093280Y-84314360D01*
G37*
G36*
X180327500Y-84187000D02*
G01*
X178725500Y-84187000D01*
X178725500Y-83385000D01*
X180327500Y-83385000D01*
X180327500Y-84187000D01*
X180327500Y-84187000D01*
G37*
G36*
X106042564Y-82044989D02*
G01*
X106233833Y-82124215D01*
X106233835Y-82124216D01*
X106405973Y-82239235D01*
X106552365Y-82385627D01*
X106667385Y-82557767D01*
X106746611Y-82749036D01*
X106787000Y-82952084D01*
X106787000Y-83159116D01*
X106746611Y-83362164D01*
X106737152Y-83385000D01*
X106667384Y-83553435D01*
X106552365Y-83725573D01*
X106405973Y-83871965D01*
X106233835Y-83986984D01*
X106233834Y-83986985D01*
X106233833Y-83986985D01*
X106042564Y-84066211D01*
X105839516Y-84106600D01*
X105632484Y-84106600D01*
X105429436Y-84066211D01*
X105238167Y-83986985D01*
X105238166Y-83986985D01*
X105238165Y-83986984D01*
X105066027Y-83871965D01*
X104919635Y-83725573D01*
X104804616Y-83553435D01*
X104734848Y-83385000D01*
X104725389Y-83362164D01*
X104685000Y-83159116D01*
X104685000Y-82952084D01*
X104725389Y-82749036D01*
X104804615Y-82557767D01*
X104919635Y-82385627D01*
X105066027Y-82239235D01*
X105238165Y-82124216D01*
X105238167Y-82124215D01*
X105429436Y-82044989D01*
X105632484Y-82004600D01*
X105839516Y-82004600D01*
X106042564Y-82044989D01*
X106042564Y-82044989D01*
G37*
G36*
X110542564Y-82044989D02*
G01*
X110733833Y-82124215D01*
X110733835Y-82124216D01*
X110905973Y-82239235D01*
X111052365Y-82385627D01*
X111167385Y-82557767D01*
X111246611Y-82749036D01*
X111287000Y-82952084D01*
X111287000Y-83159116D01*
X111246611Y-83362164D01*
X111237152Y-83385000D01*
X111167384Y-83553435D01*
X111052365Y-83725573D01*
X110905973Y-83871965D01*
X110733835Y-83986984D01*
X110733834Y-83986985D01*
X110733833Y-83986985D01*
X110542564Y-84066211D01*
X110339516Y-84106600D01*
X110132484Y-84106600D01*
X109929436Y-84066211D01*
X109738167Y-83986985D01*
X109738166Y-83986985D01*
X109738165Y-83986984D01*
X109566027Y-83871965D01*
X109419635Y-83725573D01*
X109304616Y-83553435D01*
X109234848Y-83385000D01*
X109225389Y-83362164D01*
X109185000Y-83159116D01*
X109185000Y-82952084D01*
X109225389Y-82749036D01*
X109304615Y-82557767D01*
X109419635Y-82385627D01*
X109566027Y-82239235D01*
X109738165Y-82124216D01*
X109738167Y-82124215D01*
X109929436Y-82044989D01*
X110132484Y-82004600D01*
X110339516Y-82004600D01*
X110542564Y-82044989D01*
X110542564Y-82044989D01*
G37*
G36*
X131104928Y-81527764D02*
G01*
X131126009Y-81534160D01*
X131145445Y-81544548D01*
X131162476Y-81558524D01*
X131176452Y-81575555D01*
X131186840Y-81594991D01*
X131193236Y-81616072D01*
X131196000Y-81644140D01*
X131196000Y-83907860D01*
X131193236Y-83935928D01*
X131186840Y-83957009D01*
X131176452Y-83976445D01*
X131162476Y-83993476D01*
X131145445Y-84007452D01*
X131126009Y-84017840D01*
X131104928Y-84024236D01*
X131076860Y-84027000D01*
X130613140Y-84027000D01*
X130585072Y-84024236D01*
X130563991Y-84017840D01*
X130544555Y-84007452D01*
X130527524Y-83993476D01*
X130513548Y-83976445D01*
X130503160Y-83957009D01*
X130496764Y-83935928D01*
X130494000Y-83907860D01*
X130494000Y-81644140D01*
X130496764Y-81616072D01*
X130503160Y-81594991D01*
X130513548Y-81575555D01*
X130527524Y-81558524D01*
X130544555Y-81544548D01*
X130563991Y-81534160D01*
X130585072Y-81527764D01*
X130613140Y-81525000D01*
X131076860Y-81525000D01*
X131104928Y-81527764D01*
X131104928Y-81527764D01*
G37*
G36*
X137454928Y-81527764D02*
G01*
X137476009Y-81534160D01*
X137495445Y-81544548D01*
X137512476Y-81558524D01*
X137526452Y-81575555D01*
X137536840Y-81594991D01*
X137543236Y-81616072D01*
X137546000Y-81644140D01*
X137546000Y-83907860D01*
X137543236Y-83935928D01*
X137536840Y-83957009D01*
X137526452Y-83976445D01*
X137512476Y-83993476D01*
X137495445Y-84007452D01*
X137476009Y-84017840D01*
X137454928Y-84024236D01*
X137426860Y-84027000D01*
X136963140Y-84027000D01*
X136935072Y-84024236D01*
X136913991Y-84017840D01*
X136894555Y-84007452D01*
X136877524Y-83993476D01*
X136863548Y-83976445D01*
X136853160Y-83957009D01*
X136846764Y-83935928D01*
X136844000Y-83907860D01*
X136844000Y-81644140D01*
X136846764Y-81616072D01*
X136853160Y-81594991D01*
X136863548Y-81575555D01*
X136877524Y-81558524D01*
X136894555Y-81544548D01*
X136913991Y-81534160D01*
X136935072Y-81527764D01*
X136963140Y-81525000D01*
X137426860Y-81525000D01*
X137454928Y-81527764D01*
X137454928Y-81527764D01*
G37*
G36*
X132374928Y-81527764D02*
G01*
X132396009Y-81534160D01*
X132415445Y-81544548D01*
X132432476Y-81558524D01*
X132446452Y-81575555D01*
X132456840Y-81594991D01*
X132463236Y-81616072D01*
X132466000Y-81644140D01*
X132466000Y-83907860D01*
X132463236Y-83935928D01*
X132456840Y-83957009D01*
X132446452Y-83976445D01*
X132432476Y-83993476D01*
X132415445Y-84007452D01*
X132396009Y-84017840D01*
X132374928Y-84024236D01*
X132346860Y-84027000D01*
X131883140Y-84027000D01*
X131855072Y-84024236D01*
X131833991Y-84017840D01*
X131814555Y-84007452D01*
X131797524Y-83993476D01*
X131783548Y-83976445D01*
X131773160Y-83957009D01*
X131766764Y-83935928D01*
X131764000Y-83907860D01*
X131764000Y-81644140D01*
X131766764Y-81616072D01*
X131773160Y-81594991D01*
X131783548Y-81575555D01*
X131797524Y-81558524D01*
X131814555Y-81544548D01*
X131833991Y-81534160D01*
X131855072Y-81527764D01*
X131883140Y-81525000D01*
X132346860Y-81525000D01*
X132374928Y-81527764D01*
X132374928Y-81527764D01*
G37*
G36*
X133644928Y-81527764D02*
G01*
X133666009Y-81534160D01*
X133685445Y-81544548D01*
X133702476Y-81558524D01*
X133716452Y-81575555D01*
X133726840Y-81594991D01*
X133733236Y-81616072D01*
X133736000Y-81644140D01*
X133736000Y-83907860D01*
X133733236Y-83935928D01*
X133726840Y-83957009D01*
X133716452Y-83976445D01*
X133702476Y-83993476D01*
X133685445Y-84007452D01*
X133666009Y-84017840D01*
X133644928Y-84024236D01*
X133616860Y-84027000D01*
X133153140Y-84027000D01*
X133125072Y-84024236D01*
X133103991Y-84017840D01*
X133084555Y-84007452D01*
X133067524Y-83993476D01*
X133053548Y-83976445D01*
X133043160Y-83957009D01*
X133036764Y-83935928D01*
X133034000Y-83907860D01*
X133034000Y-81644140D01*
X133036764Y-81616072D01*
X133043160Y-81594991D01*
X133053548Y-81575555D01*
X133067524Y-81558524D01*
X133084555Y-81544548D01*
X133103991Y-81534160D01*
X133125072Y-81527764D01*
X133153140Y-81525000D01*
X133616860Y-81525000D01*
X133644928Y-81527764D01*
X133644928Y-81527764D01*
G37*
G36*
X134914928Y-81527764D02*
G01*
X134936009Y-81534160D01*
X134955445Y-81544548D01*
X134972476Y-81558524D01*
X134986452Y-81575555D01*
X134996840Y-81594991D01*
X135003236Y-81616072D01*
X135006000Y-81644140D01*
X135006000Y-83907860D01*
X135003236Y-83935928D01*
X134996840Y-83957009D01*
X134986452Y-83976445D01*
X134972476Y-83993476D01*
X134955445Y-84007452D01*
X134936009Y-84017840D01*
X134914928Y-84024236D01*
X134886860Y-84027000D01*
X134423140Y-84027000D01*
X134395072Y-84024236D01*
X134373991Y-84017840D01*
X134354555Y-84007452D01*
X134337524Y-83993476D01*
X134323548Y-83976445D01*
X134313160Y-83957009D01*
X134306764Y-83935928D01*
X134304000Y-83907860D01*
X134304000Y-81644140D01*
X134306764Y-81616072D01*
X134313160Y-81594991D01*
X134323548Y-81575555D01*
X134337524Y-81558524D01*
X134354555Y-81544548D01*
X134373991Y-81534160D01*
X134395072Y-81527764D01*
X134423140Y-81525000D01*
X134886860Y-81525000D01*
X134914928Y-81527764D01*
X134914928Y-81527764D01*
G37*
G36*
X136184928Y-81527764D02*
G01*
X136206009Y-81534160D01*
X136225445Y-81544548D01*
X136242476Y-81558524D01*
X136256452Y-81575555D01*
X136266840Y-81594991D01*
X136273236Y-81616072D01*
X136276000Y-81644140D01*
X136276000Y-83907860D01*
X136273236Y-83935928D01*
X136266840Y-83957009D01*
X136256452Y-83976445D01*
X136242476Y-83993476D01*
X136225445Y-84007452D01*
X136206009Y-84017840D01*
X136184928Y-84024236D01*
X136156860Y-84027000D01*
X135693140Y-84027000D01*
X135665072Y-84024236D01*
X135643991Y-84017840D01*
X135624555Y-84007452D01*
X135607524Y-83993476D01*
X135593548Y-83976445D01*
X135583160Y-83957009D01*
X135576764Y-83935928D01*
X135574000Y-83907860D01*
X135574000Y-81644140D01*
X135576764Y-81616072D01*
X135583160Y-81594991D01*
X135593548Y-81575555D01*
X135607524Y-81558524D01*
X135624555Y-81544548D01*
X135643991Y-81534160D01*
X135665072Y-81527764D01*
X135693140Y-81525000D01*
X136156860Y-81525000D01*
X136184928Y-81527764D01*
X136184928Y-81527764D01*
G37*
G36*
X129834928Y-81527764D02*
G01*
X129856009Y-81534160D01*
X129875445Y-81544548D01*
X129892476Y-81558524D01*
X129906452Y-81575555D01*
X129916840Y-81594991D01*
X129923236Y-81616072D01*
X129926000Y-81644140D01*
X129926000Y-83907860D01*
X129923236Y-83935928D01*
X129916840Y-83957009D01*
X129906452Y-83976445D01*
X129892476Y-83993476D01*
X129875445Y-84007452D01*
X129856009Y-84017840D01*
X129834928Y-84024236D01*
X129806860Y-84027000D01*
X129343140Y-84027000D01*
X129315072Y-84024236D01*
X129293991Y-84017840D01*
X129274555Y-84007452D01*
X129257524Y-83993476D01*
X129243548Y-83976445D01*
X129233160Y-83957009D01*
X129226764Y-83935928D01*
X129224000Y-83907860D01*
X129224000Y-81644140D01*
X129226764Y-81616072D01*
X129233160Y-81594991D01*
X129243548Y-81575555D01*
X129257524Y-81558524D01*
X129274555Y-81544548D01*
X129293991Y-81534160D01*
X129315072Y-81527764D01*
X129343140Y-81525000D01*
X129806860Y-81525000D01*
X129834928Y-81527764D01*
X129834928Y-81527764D01*
G37*
G36*
X117134928Y-81527764D02*
G01*
X117156009Y-81534160D01*
X117175445Y-81544548D01*
X117192476Y-81558524D01*
X117206452Y-81575555D01*
X117216840Y-81594991D01*
X117223236Y-81616072D01*
X117226000Y-81644140D01*
X117226000Y-83907860D01*
X117223236Y-83935928D01*
X117216840Y-83957009D01*
X117206452Y-83976445D01*
X117192476Y-83993476D01*
X117175445Y-84007452D01*
X117156009Y-84017840D01*
X117134928Y-84024236D01*
X117106860Y-84027000D01*
X116643140Y-84027000D01*
X116615072Y-84024236D01*
X116593991Y-84017840D01*
X116574555Y-84007452D01*
X116557524Y-83993476D01*
X116543548Y-83976445D01*
X116533160Y-83957009D01*
X116526764Y-83935928D01*
X116524000Y-83907860D01*
X116524000Y-81644140D01*
X116526764Y-81616072D01*
X116533160Y-81594991D01*
X116543548Y-81575555D01*
X116557524Y-81558524D01*
X116574555Y-81544548D01*
X116593991Y-81534160D01*
X116615072Y-81527764D01*
X116643140Y-81525000D01*
X117106860Y-81525000D01*
X117134928Y-81527764D01*
X117134928Y-81527764D01*
G37*
G36*
X124754928Y-81527764D02*
G01*
X124776009Y-81534160D01*
X124795445Y-81544548D01*
X124812476Y-81558524D01*
X124826452Y-81575555D01*
X124836840Y-81594991D01*
X124843236Y-81616072D01*
X124846000Y-81644140D01*
X124846000Y-83907860D01*
X124843236Y-83935928D01*
X124836840Y-83957009D01*
X124826452Y-83976445D01*
X124812476Y-83993476D01*
X124795445Y-84007452D01*
X124776009Y-84017840D01*
X124754928Y-84024236D01*
X124726860Y-84027000D01*
X124263140Y-84027000D01*
X124235072Y-84024236D01*
X124213991Y-84017840D01*
X124194555Y-84007452D01*
X124177524Y-83993476D01*
X124163548Y-83976445D01*
X124153160Y-83957009D01*
X124146764Y-83935928D01*
X124144000Y-83907860D01*
X124144000Y-81644140D01*
X124146764Y-81616072D01*
X124153160Y-81594991D01*
X124163548Y-81575555D01*
X124177524Y-81558524D01*
X124194555Y-81544548D01*
X124213991Y-81534160D01*
X124235072Y-81527764D01*
X124263140Y-81525000D01*
X124726860Y-81525000D01*
X124754928Y-81527764D01*
X124754928Y-81527764D01*
G37*
G36*
X138724928Y-81527764D02*
G01*
X138746009Y-81534160D01*
X138765445Y-81544548D01*
X138782476Y-81558524D01*
X138796452Y-81575555D01*
X138806840Y-81594991D01*
X138813236Y-81616072D01*
X138816000Y-81644140D01*
X138816000Y-83907860D01*
X138813236Y-83935928D01*
X138806840Y-83957009D01*
X138796452Y-83976445D01*
X138782476Y-83993476D01*
X138765445Y-84007452D01*
X138746009Y-84017840D01*
X138724928Y-84024236D01*
X138696860Y-84027000D01*
X138233140Y-84027000D01*
X138205072Y-84024236D01*
X138183991Y-84017840D01*
X138164555Y-84007452D01*
X138147524Y-83993476D01*
X138133548Y-83976445D01*
X138123160Y-83957009D01*
X138116764Y-83935928D01*
X138114000Y-83907860D01*
X138114000Y-81644140D01*
X138116764Y-81616072D01*
X138123160Y-81594991D01*
X138133548Y-81575555D01*
X138147524Y-81558524D01*
X138164555Y-81544548D01*
X138183991Y-81534160D01*
X138205072Y-81527764D01*
X138233140Y-81525000D01*
X138696860Y-81525000D01*
X138724928Y-81527764D01*
X138724928Y-81527764D01*
G37*
G36*
X128564928Y-81527764D02*
G01*
X128586009Y-81534160D01*
X128605445Y-81544548D01*
X128622476Y-81558524D01*
X128636452Y-81575555D01*
X128646840Y-81594991D01*
X128653236Y-81616072D01*
X128656000Y-81644140D01*
X128656000Y-83907860D01*
X128653236Y-83935928D01*
X128646840Y-83957009D01*
X128636452Y-83976445D01*
X128622476Y-83993476D01*
X128605445Y-84007452D01*
X128586009Y-84017840D01*
X128564928Y-84024236D01*
X128536860Y-84027000D01*
X128073140Y-84027000D01*
X128045072Y-84024236D01*
X128023991Y-84017840D01*
X128004555Y-84007452D01*
X127987524Y-83993476D01*
X127973548Y-83976445D01*
X127963160Y-83957009D01*
X127956764Y-83935928D01*
X127954000Y-83907860D01*
X127954000Y-81644140D01*
X127956764Y-81616072D01*
X127963160Y-81594991D01*
X127973548Y-81575555D01*
X127987524Y-81558524D01*
X128004555Y-81544548D01*
X128023991Y-81534160D01*
X128045072Y-81527764D01*
X128073140Y-81525000D01*
X128536860Y-81525000D01*
X128564928Y-81527764D01*
X128564928Y-81527764D01*
G37*
G36*
X126024928Y-81527764D02*
G01*
X126046009Y-81534160D01*
X126065445Y-81544548D01*
X126082476Y-81558524D01*
X126096452Y-81575555D01*
X126106840Y-81594991D01*
X126113236Y-81616072D01*
X126116000Y-81644140D01*
X126116000Y-83907860D01*
X126113236Y-83935928D01*
X126106840Y-83957009D01*
X126096452Y-83976445D01*
X126082476Y-83993476D01*
X126065445Y-84007452D01*
X126046009Y-84017840D01*
X126024928Y-84024236D01*
X125996860Y-84027000D01*
X125533140Y-84027000D01*
X125505072Y-84024236D01*
X125483991Y-84017840D01*
X125464555Y-84007452D01*
X125447524Y-83993476D01*
X125433548Y-83976445D01*
X125423160Y-83957009D01*
X125416764Y-83935928D01*
X125414000Y-83907860D01*
X125414000Y-81644140D01*
X125416764Y-81616072D01*
X125423160Y-81594991D01*
X125433548Y-81575555D01*
X125447524Y-81558524D01*
X125464555Y-81544548D01*
X125483991Y-81534160D01*
X125505072Y-81527764D01*
X125533140Y-81525000D01*
X125996860Y-81525000D01*
X126024928Y-81527764D01*
X126024928Y-81527764D01*
G37*
G36*
X118404928Y-81527764D02*
G01*
X118426009Y-81534160D01*
X118445445Y-81544548D01*
X118462476Y-81558524D01*
X118476452Y-81575555D01*
X118486840Y-81594991D01*
X118493236Y-81616072D01*
X118496000Y-81644140D01*
X118496000Y-83907860D01*
X118493236Y-83935928D01*
X118486840Y-83957009D01*
X118476452Y-83976445D01*
X118462476Y-83993476D01*
X118445445Y-84007452D01*
X118426009Y-84017840D01*
X118404928Y-84024236D01*
X118376860Y-84027000D01*
X117913140Y-84027000D01*
X117885072Y-84024236D01*
X117863991Y-84017840D01*
X117844555Y-84007452D01*
X117827524Y-83993476D01*
X117813548Y-83976445D01*
X117803160Y-83957009D01*
X117796764Y-83935928D01*
X117794000Y-83907860D01*
X117794000Y-81644140D01*
X117796764Y-81616072D01*
X117803160Y-81594991D01*
X117813548Y-81575555D01*
X117827524Y-81558524D01*
X117844555Y-81544548D01*
X117863991Y-81534160D01*
X117885072Y-81527764D01*
X117913140Y-81525000D01*
X118376860Y-81525000D01*
X118404928Y-81527764D01*
X118404928Y-81527764D01*
G37*
G36*
X119674928Y-81527764D02*
G01*
X119696009Y-81534160D01*
X119715445Y-81544548D01*
X119732476Y-81558524D01*
X119746452Y-81575555D01*
X119756840Y-81594991D01*
X119763236Y-81616072D01*
X119766000Y-81644140D01*
X119766000Y-83907860D01*
X119763236Y-83935928D01*
X119756840Y-83957009D01*
X119746452Y-83976445D01*
X119732476Y-83993476D01*
X119715445Y-84007452D01*
X119696009Y-84017840D01*
X119674928Y-84024236D01*
X119646860Y-84027000D01*
X119183140Y-84027000D01*
X119155072Y-84024236D01*
X119133991Y-84017840D01*
X119114555Y-84007452D01*
X119097524Y-83993476D01*
X119083548Y-83976445D01*
X119073160Y-83957009D01*
X119066764Y-83935928D01*
X119064000Y-83907860D01*
X119064000Y-81644140D01*
X119066764Y-81616072D01*
X119073160Y-81594991D01*
X119083548Y-81575555D01*
X119097524Y-81558524D01*
X119114555Y-81544548D01*
X119133991Y-81534160D01*
X119155072Y-81527764D01*
X119183140Y-81525000D01*
X119646860Y-81525000D01*
X119674928Y-81527764D01*
X119674928Y-81527764D01*
G37*
G36*
X120944928Y-81527764D02*
G01*
X120966009Y-81534160D01*
X120985445Y-81544548D01*
X121002476Y-81558524D01*
X121016452Y-81575555D01*
X121026840Y-81594991D01*
X121033236Y-81616072D01*
X121036000Y-81644140D01*
X121036000Y-83907860D01*
X121033236Y-83935928D01*
X121026840Y-83957009D01*
X121016452Y-83976445D01*
X121002476Y-83993476D01*
X120985445Y-84007452D01*
X120966009Y-84017840D01*
X120944928Y-84024236D01*
X120916860Y-84027000D01*
X120453140Y-84027000D01*
X120425072Y-84024236D01*
X120403991Y-84017840D01*
X120384555Y-84007452D01*
X120367524Y-83993476D01*
X120353548Y-83976445D01*
X120343160Y-83957009D01*
X120336764Y-83935928D01*
X120334000Y-83907860D01*
X120334000Y-81644140D01*
X120336764Y-81616072D01*
X120343160Y-81594991D01*
X120353548Y-81575555D01*
X120367524Y-81558524D01*
X120384555Y-81544548D01*
X120403991Y-81534160D01*
X120425072Y-81527764D01*
X120453140Y-81525000D01*
X120916860Y-81525000D01*
X120944928Y-81527764D01*
X120944928Y-81527764D01*
G37*
G36*
X122214928Y-81527764D02*
G01*
X122236009Y-81534160D01*
X122255445Y-81544548D01*
X122272476Y-81558524D01*
X122286452Y-81575555D01*
X122296840Y-81594991D01*
X122303236Y-81616072D01*
X122306000Y-81644140D01*
X122306000Y-83907860D01*
X122303236Y-83935928D01*
X122296840Y-83957009D01*
X122286452Y-83976445D01*
X122272476Y-83993476D01*
X122255445Y-84007452D01*
X122236009Y-84017840D01*
X122214928Y-84024236D01*
X122186860Y-84027000D01*
X121723140Y-84027000D01*
X121695072Y-84024236D01*
X121673991Y-84017840D01*
X121654555Y-84007452D01*
X121637524Y-83993476D01*
X121623548Y-83976445D01*
X121613160Y-83957009D01*
X121606764Y-83935928D01*
X121604000Y-83907860D01*
X121604000Y-81644140D01*
X121606764Y-81616072D01*
X121613160Y-81594991D01*
X121623548Y-81575555D01*
X121637524Y-81558524D01*
X121654555Y-81544548D01*
X121673991Y-81534160D01*
X121695072Y-81527764D01*
X121723140Y-81525000D01*
X122186860Y-81525000D01*
X122214928Y-81527764D01*
X122214928Y-81527764D01*
G37*
G36*
X123484928Y-81527764D02*
G01*
X123506009Y-81534160D01*
X123525445Y-81544548D01*
X123542476Y-81558524D01*
X123556452Y-81575555D01*
X123566840Y-81594991D01*
X123573236Y-81616072D01*
X123576000Y-81644140D01*
X123576000Y-83907860D01*
X123573236Y-83935928D01*
X123566840Y-83957009D01*
X123556452Y-83976445D01*
X123542476Y-83993476D01*
X123525445Y-84007452D01*
X123506009Y-84017840D01*
X123484928Y-84024236D01*
X123456860Y-84027000D01*
X122993140Y-84027000D01*
X122965072Y-84024236D01*
X122943991Y-84017840D01*
X122924555Y-84007452D01*
X122907524Y-83993476D01*
X122893548Y-83976445D01*
X122883160Y-83957009D01*
X122876764Y-83935928D01*
X122874000Y-83907860D01*
X122874000Y-81644140D01*
X122876764Y-81616072D01*
X122883160Y-81594991D01*
X122893548Y-81575555D01*
X122907524Y-81558524D01*
X122924555Y-81544548D01*
X122943991Y-81534160D01*
X122965072Y-81527764D01*
X122993140Y-81525000D01*
X123456860Y-81525000D01*
X123484928Y-81527764D01*
X123484928Y-81527764D01*
G37*
G36*
X127294928Y-81527764D02*
G01*
X127316009Y-81534160D01*
X127335445Y-81544548D01*
X127352476Y-81558524D01*
X127366452Y-81575555D01*
X127376840Y-81594991D01*
X127383236Y-81616072D01*
X127386000Y-81644140D01*
X127386000Y-83907860D01*
X127383236Y-83935928D01*
X127376840Y-83957009D01*
X127366452Y-83976445D01*
X127352476Y-83993476D01*
X127335445Y-84007452D01*
X127316009Y-84017840D01*
X127294928Y-84024236D01*
X127266860Y-84027000D01*
X126803140Y-84027000D01*
X126775072Y-84024236D01*
X126753991Y-84017840D01*
X126734555Y-84007452D01*
X126717524Y-83993476D01*
X126703548Y-83976445D01*
X126693160Y-83957009D01*
X126686764Y-83935928D01*
X126684000Y-83907860D01*
X126684000Y-81644140D01*
X126686764Y-81616072D01*
X126693160Y-81594991D01*
X126703548Y-81575555D01*
X126717524Y-81558524D01*
X126734555Y-81544548D01*
X126753991Y-81534160D01*
X126775072Y-81527764D01*
X126803140Y-81525000D01*
X127266860Y-81525000D01*
X127294928Y-81527764D01*
X127294928Y-81527764D01*
G37*
G36*
X176647200Y-83593000D02*
G01*
X175295200Y-83593000D01*
X175295200Y-82491000D01*
X176647200Y-82491000D01*
X176647200Y-83593000D01*
X176647200Y-83593000D01*
G37*
G36*
X174459700Y-83583100D02*
G01*
X173107700Y-83583100D01*
X173107700Y-82481100D01*
X174459700Y-82481100D01*
X174459700Y-83583100D01*
X174459700Y-83583100D01*
G37*
G36*
X150440400Y-83175500D02*
G01*
X149838400Y-83175500D01*
X149838400Y-82473500D01*
X150440400Y-82473500D01*
X150440400Y-83175500D01*
X150440400Y-83175500D01*
G37*
G36*
X180327500Y-83087000D02*
G01*
X178725500Y-83087000D01*
X178725500Y-82285000D01*
X180327500Y-82285000D01*
X180327500Y-83087000D01*
X180327500Y-83087000D01*
G37*
G36*
X149093280Y-82314360D02*
G01*
X147741280Y-82314360D01*
X147741280Y-81212360D01*
X149093280Y-81212360D01*
X149093280Y-82314360D01*
X149093280Y-82314360D01*
G37*
G36*
X150440400Y-82075500D02*
G01*
X149838400Y-82075500D01*
X149838400Y-81373500D01*
X150440400Y-81373500D01*
X150440400Y-82075500D01*
X150440400Y-82075500D01*
G37*
G36*
X180327500Y-81987000D02*
G01*
X178725500Y-81987000D01*
X178725500Y-81185000D01*
X180327500Y-81185000D01*
X180327500Y-81987000D01*
X180327500Y-81987000D01*
G37*
G36*
X176647200Y-81593000D02*
G01*
X175295200Y-81593000D01*
X175295200Y-80491000D01*
X176647200Y-80491000D01*
X176647200Y-81593000D01*
X176647200Y-81593000D01*
G37*
G36*
X174459700Y-81583100D02*
G01*
X173107700Y-81583100D01*
X173107700Y-80481100D01*
X174459700Y-80481100D01*
X174459700Y-81583100D01*
X174459700Y-81583100D01*
G37*
G36*
X152341500Y-81304500D02*
G01*
X151639500Y-81304500D01*
X151639500Y-78952500D01*
X152341500Y-78952500D01*
X152341500Y-81304500D01*
X152341500Y-81304500D01*
G37*
G36*
X153611500Y-81304500D02*
G01*
X152909500Y-81304500D01*
X152909500Y-78952500D01*
X153611500Y-78952500D01*
X153611500Y-81304500D01*
X153611500Y-81304500D01*
G37*
G36*
X154881500Y-81304500D02*
G01*
X154179500Y-81304500D01*
X154179500Y-78952500D01*
X154881500Y-78952500D01*
X154881500Y-81304500D01*
X154881500Y-81304500D01*
G37*
G36*
X156151500Y-81304500D02*
G01*
X155449500Y-81304500D01*
X155449500Y-78952500D01*
X156151500Y-78952500D01*
X156151500Y-81304500D01*
X156151500Y-81304500D01*
G37*
G36*
X158691500Y-81304500D02*
G01*
X157989500Y-81304500D01*
X157989500Y-78952500D01*
X158691500Y-78952500D01*
X158691500Y-81304500D01*
X158691500Y-81304500D01*
G37*
G36*
X159961500Y-81304500D02*
G01*
X159259500Y-81304500D01*
X159259500Y-78952500D01*
X159961500Y-78952500D01*
X159961500Y-81304500D01*
X159961500Y-81304500D01*
G37*
G36*
X161231500Y-81304500D02*
G01*
X160529500Y-81304500D01*
X160529500Y-78952500D01*
X161231500Y-78952500D01*
X161231500Y-81304500D01*
X161231500Y-81304500D01*
G37*
G36*
X162501500Y-81304500D02*
G01*
X161799500Y-81304500D01*
X161799500Y-78952500D01*
X162501500Y-78952500D01*
X162501500Y-81304500D01*
X162501500Y-81304500D01*
G37*
G36*
X163771500Y-81304500D02*
G01*
X163069500Y-81304500D01*
X163069500Y-78952500D01*
X163771500Y-78952500D01*
X163771500Y-81304500D01*
X163771500Y-81304500D01*
G37*
G36*
X157421500Y-81304500D02*
G01*
X156719500Y-81304500D01*
X156719500Y-78952500D01*
X157421500Y-78952500D01*
X157421500Y-81304500D01*
X157421500Y-81304500D01*
G37*
G36*
X180327500Y-80887000D02*
G01*
X178725500Y-80887000D01*
X178725500Y-80085000D01*
X180327500Y-80085000D01*
X180327500Y-80887000D01*
X180327500Y-80887000D01*
G37*
G36*
X149752600Y-80525200D02*
G01*
X148900600Y-80525200D01*
X148900600Y-79623200D01*
X149752600Y-79623200D01*
X149752600Y-80525200D01*
X149752600Y-80525200D01*
G37*
G36*
X180327500Y-79787000D02*
G01*
X178725500Y-79787000D01*
X178725500Y-78985000D01*
X180327500Y-78985000D01*
X180327500Y-79787000D01*
X180327500Y-79787000D01*
G37*
G36*
X144342428Y-77680403D02*
G01*
X144497300Y-77744553D01*
X144636681Y-77837685D01*
X144755215Y-77956219D01*
X144848347Y-78095600D01*
X144912497Y-78250472D01*
X144945200Y-78414884D01*
X144945200Y-78582516D01*
X144912497Y-78746928D01*
X144848347Y-78901800D01*
X144755215Y-79041181D01*
X144636681Y-79159715D01*
X144497300Y-79252847D01*
X144342428Y-79316997D01*
X144178016Y-79349700D01*
X144010384Y-79349700D01*
X143845972Y-79316997D01*
X143691100Y-79252847D01*
X143551719Y-79159715D01*
X143433185Y-79041181D01*
X143340053Y-78901800D01*
X143275903Y-78746928D01*
X143243200Y-78582516D01*
X143243200Y-78414884D01*
X143275903Y-78250472D01*
X143340053Y-78095600D01*
X143433185Y-77956219D01*
X143551719Y-77837685D01*
X143691100Y-77744553D01*
X143845972Y-77680403D01*
X144010384Y-77647700D01*
X144178016Y-77647700D01*
X144342428Y-77680403D01*
X144342428Y-77680403D01*
G37*
G36*
X149752600Y-79025200D02*
G01*
X148900600Y-79025200D01*
X148900600Y-78123200D01*
X149752600Y-78123200D01*
X149752600Y-79025200D01*
X149752600Y-79025200D01*
G37*
G36*
X180327500Y-78687000D02*
G01*
X178725500Y-78687000D01*
X178725500Y-77885000D01*
X180327500Y-77885000D01*
X180327500Y-78687000D01*
X180327500Y-78687000D01*
G37*
G36*
X155454740Y-77768460D02*
G01*
X154752740Y-77768460D01*
X154752740Y-77166460D01*
X155454740Y-77166460D01*
X155454740Y-77768460D01*
X155454740Y-77768460D01*
G37*
G36*
X156554740Y-77768460D02*
G01*
X155852740Y-77768460D01*
X155852740Y-77166460D01*
X156554740Y-77166460D01*
X156554740Y-77768460D01*
X156554740Y-77768460D01*
G37*
G36*
X110542564Y-75544989D02*
G01*
X110733833Y-75624215D01*
X110733835Y-75624216D01*
X110769580Y-75648100D01*
X110905973Y-75739235D01*
X111052365Y-75885627D01*
X111167385Y-76057767D01*
X111246611Y-76249036D01*
X111287000Y-76452084D01*
X111287000Y-76659116D01*
X111246611Y-76862164D01*
X111167385Y-77053433D01*
X111167384Y-77053435D01*
X111052365Y-77225573D01*
X110905973Y-77371965D01*
X110733835Y-77486984D01*
X110733834Y-77486985D01*
X110733833Y-77486985D01*
X110542564Y-77566211D01*
X110339516Y-77606600D01*
X110132484Y-77606600D01*
X109929436Y-77566211D01*
X109738167Y-77486985D01*
X109738166Y-77486985D01*
X109738165Y-77486984D01*
X109566027Y-77371965D01*
X109419635Y-77225573D01*
X109304616Y-77053435D01*
X109304615Y-77053433D01*
X109225389Y-76862164D01*
X109185000Y-76659116D01*
X109185000Y-76452084D01*
X109225389Y-76249036D01*
X109304615Y-76057767D01*
X109419635Y-75885627D01*
X109566027Y-75739235D01*
X109702420Y-75648100D01*
X109738165Y-75624216D01*
X109738167Y-75624215D01*
X109929436Y-75544989D01*
X110132484Y-75504600D01*
X110339516Y-75504600D01*
X110542564Y-75544989D01*
X110542564Y-75544989D01*
G37*
G36*
X106042564Y-75544989D02*
G01*
X106233833Y-75624215D01*
X106233835Y-75624216D01*
X106269580Y-75648100D01*
X106405973Y-75739235D01*
X106552365Y-75885627D01*
X106667385Y-76057767D01*
X106746611Y-76249036D01*
X106787000Y-76452084D01*
X106787000Y-76659116D01*
X106746611Y-76862164D01*
X106667385Y-77053433D01*
X106667384Y-77053435D01*
X106552365Y-77225573D01*
X106405973Y-77371965D01*
X106233835Y-77486984D01*
X106233834Y-77486985D01*
X106233833Y-77486985D01*
X106042564Y-77566211D01*
X105839516Y-77606600D01*
X105632484Y-77606600D01*
X105429436Y-77566211D01*
X105238167Y-77486985D01*
X105238166Y-77486985D01*
X105238165Y-77486984D01*
X105066027Y-77371965D01*
X104919635Y-77225573D01*
X104804616Y-77053435D01*
X104804615Y-77053433D01*
X104725389Y-76862164D01*
X104685000Y-76659116D01*
X104685000Y-76452084D01*
X104725389Y-76249036D01*
X104804615Y-76057767D01*
X104919635Y-75885627D01*
X105066027Y-75739235D01*
X105202420Y-75648100D01*
X105238165Y-75624216D01*
X105238167Y-75624215D01*
X105429436Y-75544989D01*
X105632484Y-75504600D01*
X105839516Y-75504600D01*
X106042564Y-75544989D01*
X106042564Y-75544989D01*
G37*
G36*
X180327500Y-77287000D02*
G01*
X178725500Y-77287000D01*
X178725500Y-76185000D01*
X180327500Y-76185000D01*
X180327500Y-77287000D01*
X180327500Y-77287000D01*
G37*
G36*
X144342428Y-75140403D02*
G01*
X144497300Y-75204553D01*
X144636681Y-75297685D01*
X144755215Y-75416219D01*
X144848347Y-75555600D01*
X144912497Y-75710472D01*
X144945200Y-75874884D01*
X144945200Y-76042516D01*
X144912497Y-76206928D01*
X144848347Y-76361800D01*
X144755215Y-76501181D01*
X144636681Y-76619715D01*
X144497300Y-76712847D01*
X144342428Y-76776997D01*
X144178016Y-76809700D01*
X144010384Y-76809700D01*
X143845972Y-76776997D01*
X143691100Y-76712847D01*
X143551719Y-76619715D01*
X143433185Y-76501181D01*
X143340053Y-76361800D01*
X143275903Y-76206928D01*
X143243200Y-76042516D01*
X143243200Y-75874884D01*
X143275903Y-75710472D01*
X143340053Y-75555600D01*
X143433185Y-75416219D01*
X143551719Y-75297685D01*
X143691100Y-75204553D01*
X143845972Y-75140403D01*
X144010384Y-75107700D01*
X144178016Y-75107700D01*
X144342428Y-75140403D01*
X144342428Y-75140403D01*
G37*
G36*
X156826500Y-76550100D02*
G01*
X155974500Y-76550100D01*
X155974500Y-75648100D01*
X156826500Y-75648100D01*
X156826500Y-76550100D01*
X156826500Y-76550100D01*
G37*
G36*
X162227020Y-76440880D02*
G01*
X160125020Y-76440880D01*
X160125020Y-75738880D01*
X162227020Y-75738880D01*
X162227020Y-76440880D01*
X162227020Y-76440880D01*
G37*
G36*
X159000200Y-76440600D02*
G01*
X158398200Y-76440600D01*
X158398200Y-75738600D01*
X159000200Y-75738600D01*
X159000200Y-76440600D01*
X159000200Y-76440600D01*
G37*
G36*
X148957600Y-75434200D02*
G01*
X148255600Y-75434200D01*
X148255600Y-74832200D01*
X148957600Y-74832200D01*
X148957600Y-75434200D01*
X148957600Y-75434200D01*
G37*
G36*
X147857600Y-75434200D02*
G01*
X147155600Y-75434200D01*
X147155600Y-74832200D01*
X147857600Y-74832200D01*
X147857600Y-75434200D01*
X147857600Y-75434200D01*
G37*
G36*
X159000200Y-75340600D02*
G01*
X158398200Y-75340600D01*
X158398200Y-74638600D01*
X159000200Y-74638600D01*
X159000200Y-75340600D01*
X159000200Y-75340600D01*
G37*
G36*
X195777500Y-75087000D02*
G01*
X193775500Y-75087000D01*
X193775500Y-73185000D01*
X195777500Y-73185000D01*
X195777500Y-75087000D01*
X195777500Y-75087000D01*
G37*
G36*
X155347200Y-75063900D02*
G01*
X154045200Y-75063900D01*
X154045200Y-74211900D01*
X155347200Y-74211900D01*
X155347200Y-75063900D01*
X155347200Y-75063900D01*
G37*
G36*
X153447200Y-75063900D02*
G01*
X152145200Y-75063900D01*
X152145200Y-74211900D01*
X153447200Y-74211900D01*
X153447200Y-75063900D01*
X153447200Y-75063900D01*
G37*
G36*
X156826500Y-75050100D02*
G01*
X155974500Y-75050100D01*
X155974500Y-74148100D01*
X156826500Y-74148100D01*
X156826500Y-75050100D01*
X156826500Y-75050100D01*
G37*
G36*
X162227020Y-74740880D02*
G01*
X160125020Y-74740880D01*
X160125020Y-74038880D01*
X162227020Y-74038880D01*
X162227020Y-74740880D01*
X162227020Y-74740880D01*
G37*
G36*
X122214928Y-71327764D02*
G01*
X122236009Y-71334160D01*
X122255445Y-71344548D01*
X122272476Y-71358524D01*
X122286452Y-71375555D01*
X122296840Y-71394991D01*
X122303236Y-71416072D01*
X122306000Y-71444140D01*
X122306000Y-73707860D01*
X122303236Y-73735928D01*
X122296840Y-73757009D01*
X122286452Y-73776445D01*
X122272476Y-73793476D01*
X122255445Y-73807452D01*
X122236009Y-73817840D01*
X122214928Y-73824236D01*
X122186860Y-73827000D01*
X121723140Y-73827000D01*
X121695072Y-73824236D01*
X121673991Y-73817840D01*
X121654555Y-73807452D01*
X121637524Y-73793476D01*
X121623548Y-73776445D01*
X121613160Y-73757009D01*
X121606764Y-73735928D01*
X121604000Y-73707860D01*
X121604000Y-71444140D01*
X121606764Y-71416072D01*
X121613160Y-71394991D01*
X121623548Y-71375555D01*
X121637524Y-71358524D01*
X121654555Y-71344548D01*
X121673991Y-71334160D01*
X121695072Y-71327764D01*
X121723140Y-71325000D01*
X122186860Y-71325000D01*
X122214928Y-71327764D01*
X122214928Y-71327764D01*
G37*
G36*
X138724928Y-71327764D02*
G01*
X138746009Y-71334160D01*
X138765445Y-71344548D01*
X138782476Y-71358524D01*
X138796452Y-71375555D01*
X138806840Y-71394991D01*
X138813236Y-71416072D01*
X138816000Y-71444140D01*
X138816000Y-73707860D01*
X138813236Y-73735928D01*
X138806840Y-73757009D01*
X138796452Y-73776445D01*
X138782476Y-73793476D01*
X138765445Y-73807452D01*
X138746009Y-73817840D01*
X138724928Y-73824236D01*
X138696860Y-73827000D01*
X138233140Y-73827000D01*
X138205072Y-73824236D01*
X138183991Y-73817840D01*
X138164555Y-73807452D01*
X138147524Y-73793476D01*
X138133548Y-73776445D01*
X138123160Y-73757009D01*
X138116764Y-73735928D01*
X138114000Y-73707860D01*
X138114000Y-71444140D01*
X138116764Y-71416072D01*
X138123160Y-71394991D01*
X138133548Y-71375555D01*
X138147524Y-71358524D01*
X138164555Y-71344548D01*
X138183991Y-71334160D01*
X138205072Y-71327764D01*
X138233140Y-71325000D01*
X138696860Y-71325000D01*
X138724928Y-71327764D01*
X138724928Y-71327764D01*
G37*
G36*
X136184928Y-71327764D02*
G01*
X136206009Y-71334160D01*
X136225445Y-71344548D01*
X136242476Y-71358524D01*
X136256452Y-71375555D01*
X136266840Y-71394991D01*
X136273236Y-71416072D01*
X136276000Y-71444140D01*
X136276000Y-73707860D01*
X136273236Y-73735928D01*
X136266840Y-73757009D01*
X136256452Y-73776445D01*
X136242476Y-73793476D01*
X136225445Y-73807452D01*
X136206009Y-73817840D01*
X136184928Y-73824236D01*
X136156860Y-73827000D01*
X135693140Y-73827000D01*
X135665072Y-73824236D01*
X135643991Y-73817840D01*
X135624555Y-73807452D01*
X135607524Y-73793476D01*
X135593548Y-73776445D01*
X135583160Y-73757009D01*
X135576764Y-73735928D01*
X135574000Y-73707860D01*
X135574000Y-71444140D01*
X135576764Y-71416072D01*
X135583160Y-71394991D01*
X135593548Y-71375555D01*
X135607524Y-71358524D01*
X135624555Y-71344548D01*
X135643991Y-71334160D01*
X135665072Y-71327764D01*
X135693140Y-71325000D01*
X136156860Y-71325000D01*
X136184928Y-71327764D01*
X136184928Y-71327764D01*
G37*
G36*
X134914928Y-71327764D02*
G01*
X134936009Y-71334160D01*
X134955445Y-71344548D01*
X134972476Y-71358524D01*
X134986452Y-71375555D01*
X134996840Y-71394991D01*
X135003236Y-71416072D01*
X135006000Y-71444140D01*
X135006000Y-73707860D01*
X135003236Y-73735928D01*
X134996840Y-73757009D01*
X134986452Y-73776445D01*
X134972476Y-73793476D01*
X134955445Y-73807452D01*
X134936009Y-73817840D01*
X134914928Y-73824236D01*
X134886860Y-73827000D01*
X134423140Y-73827000D01*
X134395072Y-73824236D01*
X134373991Y-73817840D01*
X134354555Y-73807452D01*
X134337524Y-73793476D01*
X134323548Y-73776445D01*
X134313160Y-73757009D01*
X134306764Y-73735928D01*
X134304000Y-73707860D01*
X134304000Y-71444140D01*
X134306764Y-71416072D01*
X134313160Y-71394991D01*
X134323548Y-71375555D01*
X134337524Y-71358524D01*
X134354555Y-71344548D01*
X134373991Y-71334160D01*
X134395072Y-71327764D01*
X134423140Y-71325000D01*
X134886860Y-71325000D01*
X134914928Y-71327764D01*
X134914928Y-71327764D01*
G37*
G36*
X133644928Y-71327764D02*
G01*
X133666009Y-71334160D01*
X133685445Y-71344548D01*
X133702476Y-71358524D01*
X133716452Y-71375555D01*
X133726840Y-71394991D01*
X133733236Y-71416072D01*
X133736000Y-71444140D01*
X133736000Y-73707860D01*
X133733236Y-73735928D01*
X133726840Y-73757009D01*
X133716452Y-73776445D01*
X133702476Y-73793476D01*
X133685445Y-73807452D01*
X133666009Y-73817840D01*
X133644928Y-73824236D01*
X133616860Y-73827000D01*
X133153140Y-73827000D01*
X133125072Y-73824236D01*
X133103991Y-73817840D01*
X133084555Y-73807452D01*
X133067524Y-73793476D01*
X133053548Y-73776445D01*
X133043160Y-73757009D01*
X133036764Y-73735928D01*
X133034000Y-73707860D01*
X133034000Y-71444140D01*
X133036764Y-71416072D01*
X133043160Y-71394991D01*
X133053548Y-71375555D01*
X133067524Y-71358524D01*
X133084555Y-71344548D01*
X133103991Y-71334160D01*
X133125072Y-71327764D01*
X133153140Y-71325000D01*
X133616860Y-71325000D01*
X133644928Y-71327764D01*
X133644928Y-71327764D01*
G37*
G36*
X132374928Y-71327764D02*
G01*
X132396009Y-71334160D01*
X132415445Y-71344548D01*
X132432476Y-71358524D01*
X132446452Y-71375555D01*
X132456840Y-71394991D01*
X132463236Y-71416072D01*
X132466000Y-71444140D01*
X132466000Y-73707860D01*
X132463236Y-73735928D01*
X132456840Y-73757009D01*
X132446452Y-73776445D01*
X132432476Y-73793476D01*
X132415445Y-73807452D01*
X132396009Y-73817840D01*
X132374928Y-73824236D01*
X132346860Y-73827000D01*
X131883140Y-73827000D01*
X131855072Y-73824236D01*
X131833991Y-73817840D01*
X131814555Y-73807452D01*
X131797524Y-73793476D01*
X131783548Y-73776445D01*
X131773160Y-73757009D01*
X131766764Y-73735928D01*
X131764000Y-73707860D01*
X131764000Y-71444140D01*
X131766764Y-71416072D01*
X131773160Y-71394991D01*
X131783548Y-71375555D01*
X131797524Y-71358524D01*
X131814555Y-71344548D01*
X131833991Y-71334160D01*
X131855072Y-71327764D01*
X131883140Y-71325000D01*
X132346860Y-71325000D01*
X132374928Y-71327764D01*
X132374928Y-71327764D01*
G37*
G36*
X131104928Y-71327764D02*
G01*
X131126009Y-71334160D01*
X131145445Y-71344548D01*
X131162476Y-71358524D01*
X131176452Y-71375555D01*
X131186840Y-71394991D01*
X131193236Y-71416072D01*
X131196000Y-71444140D01*
X131196000Y-73707860D01*
X131193236Y-73735928D01*
X131186840Y-73757009D01*
X131176452Y-73776445D01*
X131162476Y-73793476D01*
X131145445Y-73807452D01*
X131126009Y-73817840D01*
X131104928Y-73824236D01*
X131076860Y-73827000D01*
X130613140Y-73827000D01*
X130585072Y-73824236D01*
X130563991Y-73817840D01*
X130544555Y-73807452D01*
X130527524Y-73793476D01*
X130513548Y-73776445D01*
X130503160Y-73757009D01*
X130496764Y-73735928D01*
X130494000Y-73707860D01*
X130494000Y-71444140D01*
X130496764Y-71416072D01*
X130503160Y-71394991D01*
X130513548Y-71375555D01*
X130527524Y-71358524D01*
X130544555Y-71344548D01*
X130563991Y-71334160D01*
X130585072Y-71327764D01*
X130613140Y-71325000D01*
X131076860Y-71325000D01*
X131104928Y-71327764D01*
X131104928Y-71327764D01*
G37*
G36*
X129834928Y-71327764D02*
G01*
X129856009Y-71334160D01*
X129875445Y-71344548D01*
X129892476Y-71358524D01*
X129906452Y-71375555D01*
X129916840Y-71394991D01*
X129923236Y-71416072D01*
X129926000Y-71444140D01*
X129926000Y-73707860D01*
X129923236Y-73735928D01*
X129916840Y-73757009D01*
X129906452Y-73776445D01*
X129892476Y-73793476D01*
X129875445Y-73807452D01*
X129856009Y-73817840D01*
X129834928Y-73824236D01*
X129806860Y-73827000D01*
X129343140Y-73827000D01*
X129315072Y-73824236D01*
X129293991Y-73817840D01*
X129274555Y-73807452D01*
X129257524Y-73793476D01*
X129243548Y-73776445D01*
X129233160Y-73757009D01*
X129226764Y-73735928D01*
X129224000Y-73707860D01*
X129224000Y-71444140D01*
X129226764Y-71416072D01*
X129233160Y-71394991D01*
X129243548Y-71375555D01*
X129257524Y-71358524D01*
X129274555Y-71344548D01*
X129293991Y-71334160D01*
X129315072Y-71327764D01*
X129343140Y-71325000D01*
X129806860Y-71325000D01*
X129834928Y-71327764D01*
X129834928Y-71327764D01*
G37*
G36*
X128564928Y-71327764D02*
G01*
X128586009Y-71334160D01*
X128605445Y-71344548D01*
X128622476Y-71358524D01*
X128636452Y-71375555D01*
X128646840Y-71394991D01*
X128653236Y-71416072D01*
X128656000Y-71444140D01*
X128656000Y-73707860D01*
X128653236Y-73735928D01*
X128646840Y-73757009D01*
X128636452Y-73776445D01*
X128622476Y-73793476D01*
X128605445Y-73807452D01*
X128586009Y-73817840D01*
X128564928Y-73824236D01*
X128536860Y-73827000D01*
X128073140Y-73827000D01*
X128045072Y-73824236D01*
X128023991Y-73817840D01*
X128004555Y-73807452D01*
X127987524Y-73793476D01*
X127973548Y-73776445D01*
X127963160Y-73757009D01*
X127956764Y-73735928D01*
X127954000Y-73707860D01*
X127954000Y-71444140D01*
X127956764Y-71416072D01*
X127963160Y-71394991D01*
X127973548Y-71375555D01*
X127987524Y-71358524D01*
X128004555Y-71344548D01*
X128023991Y-71334160D01*
X128045072Y-71327764D01*
X128073140Y-71325000D01*
X128536860Y-71325000D01*
X128564928Y-71327764D01*
X128564928Y-71327764D01*
G37*
G36*
X126024928Y-71327764D02*
G01*
X126046009Y-71334160D01*
X126065445Y-71344548D01*
X126082476Y-71358524D01*
X126096452Y-71375555D01*
X126106840Y-71394991D01*
X126113236Y-71416072D01*
X126116000Y-71444140D01*
X126116000Y-73707860D01*
X126113236Y-73735928D01*
X126106840Y-73757009D01*
X126096452Y-73776445D01*
X126082476Y-73793476D01*
X126065445Y-73807452D01*
X126046009Y-73817840D01*
X126024928Y-73824236D01*
X125996860Y-73827000D01*
X125533140Y-73827000D01*
X125505072Y-73824236D01*
X125483991Y-73817840D01*
X125464555Y-73807452D01*
X125447524Y-73793476D01*
X125433548Y-73776445D01*
X125423160Y-73757009D01*
X125416764Y-73735928D01*
X125414000Y-73707860D01*
X125414000Y-71444140D01*
X125416764Y-71416072D01*
X125423160Y-71394991D01*
X125433548Y-71375555D01*
X125447524Y-71358524D01*
X125464555Y-71344548D01*
X125483991Y-71334160D01*
X125505072Y-71327764D01*
X125533140Y-71325000D01*
X125996860Y-71325000D01*
X126024928Y-71327764D01*
X126024928Y-71327764D01*
G37*
G36*
X124754928Y-71327764D02*
G01*
X124776009Y-71334160D01*
X124795445Y-71344548D01*
X124812476Y-71358524D01*
X124826452Y-71375555D01*
X124836840Y-71394991D01*
X124843236Y-71416072D01*
X124846000Y-71444140D01*
X124846000Y-73707860D01*
X124843236Y-73735928D01*
X124836840Y-73757009D01*
X124826452Y-73776445D01*
X124812476Y-73793476D01*
X124795445Y-73807452D01*
X124776009Y-73817840D01*
X124754928Y-73824236D01*
X124726860Y-73827000D01*
X124263140Y-73827000D01*
X124235072Y-73824236D01*
X124213991Y-73817840D01*
X124194555Y-73807452D01*
X124177524Y-73793476D01*
X124163548Y-73776445D01*
X124153160Y-73757009D01*
X124146764Y-73735928D01*
X124144000Y-73707860D01*
X124144000Y-71444140D01*
X124146764Y-71416072D01*
X124153160Y-71394991D01*
X124163548Y-71375555D01*
X124177524Y-71358524D01*
X124194555Y-71344548D01*
X124213991Y-71334160D01*
X124235072Y-71327764D01*
X124263140Y-71325000D01*
X124726860Y-71325000D01*
X124754928Y-71327764D01*
X124754928Y-71327764D01*
G37*
G36*
X123484928Y-71327764D02*
G01*
X123506009Y-71334160D01*
X123525445Y-71344548D01*
X123542476Y-71358524D01*
X123556452Y-71375555D01*
X123566840Y-71394991D01*
X123573236Y-71416072D01*
X123576000Y-71444140D01*
X123576000Y-73707860D01*
X123573236Y-73735928D01*
X123566840Y-73757009D01*
X123556452Y-73776445D01*
X123542476Y-73793476D01*
X123525445Y-73807452D01*
X123506009Y-73817840D01*
X123484928Y-73824236D01*
X123456860Y-73827000D01*
X122993140Y-73827000D01*
X122965072Y-73824236D01*
X122943991Y-73817840D01*
X122924555Y-73807452D01*
X122907524Y-73793476D01*
X122893548Y-73776445D01*
X122883160Y-73757009D01*
X122876764Y-73735928D01*
X122874000Y-73707860D01*
X122874000Y-71444140D01*
X122876764Y-71416072D01*
X122883160Y-71394991D01*
X122893548Y-71375555D01*
X122907524Y-71358524D01*
X122924555Y-71344548D01*
X122943991Y-71334160D01*
X122965072Y-71327764D01*
X122993140Y-71325000D01*
X123456860Y-71325000D01*
X123484928Y-71327764D01*
X123484928Y-71327764D01*
G37*
G36*
X127294928Y-71327764D02*
G01*
X127316009Y-71334160D01*
X127335445Y-71344548D01*
X127352476Y-71358524D01*
X127366452Y-71375555D01*
X127376840Y-71394991D01*
X127383236Y-71416072D01*
X127386000Y-71444140D01*
X127386000Y-73707860D01*
X127383236Y-73735928D01*
X127376840Y-73757009D01*
X127366452Y-73776445D01*
X127352476Y-73793476D01*
X127335445Y-73807452D01*
X127316009Y-73817840D01*
X127294928Y-73824236D01*
X127266860Y-73827000D01*
X126803140Y-73827000D01*
X126775072Y-73824236D01*
X126753991Y-73817840D01*
X126734555Y-73807452D01*
X126717524Y-73793476D01*
X126703548Y-73776445D01*
X126693160Y-73757009D01*
X126686764Y-73735928D01*
X126684000Y-73707860D01*
X126684000Y-71444140D01*
X126686764Y-71416072D01*
X126693160Y-71394991D01*
X126703548Y-71375555D01*
X126717524Y-71358524D01*
X126734555Y-71344548D01*
X126753991Y-71334160D01*
X126775072Y-71327764D01*
X126803140Y-71325000D01*
X127266860Y-71325000D01*
X127294928Y-71327764D01*
X127294928Y-71327764D01*
G37*
G36*
X120944928Y-71327764D02*
G01*
X120966009Y-71334160D01*
X120985445Y-71344548D01*
X121002476Y-71358524D01*
X121016452Y-71375555D01*
X121026840Y-71394991D01*
X121033236Y-71416072D01*
X121036000Y-71444140D01*
X121036000Y-73707860D01*
X121033236Y-73735928D01*
X121026840Y-73757009D01*
X121016452Y-73776445D01*
X121002476Y-73793476D01*
X120985445Y-73807452D01*
X120966009Y-73817840D01*
X120944928Y-73824236D01*
X120916860Y-73827000D01*
X120453140Y-73827000D01*
X120425072Y-73824236D01*
X120403991Y-73817840D01*
X120384555Y-73807452D01*
X120367524Y-73793476D01*
X120353548Y-73776445D01*
X120343160Y-73757009D01*
X120336764Y-73735928D01*
X120334000Y-73707860D01*
X120334000Y-71444140D01*
X120336764Y-71416072D01*
X120343160Y-71394991D01*
X120353548Y-71375555D01*
X120367524Y-71358524D01*
X120384555Y-71344548D01*
X120403991Y-71334160D01*
X120425072Y-71327764D01*
X120453140Y-71325000D01*
X120916860Y-71325000D01*
X120944928Y-71327764D01*
X120944928Y-71327764D01*
G37*
G36*
X119674928Y-71327764D02*
G01*
X119696009Y-71334160D01*
X119715445Y-71344548D01*
X119732476Y-71358524D01*
X119746452Y-71375555D01*
X119756840Y-71394991D01*
X119763236Y-71416072D01*
X119766000Y-71444140D01*
X119766000Y-73707860D01*
X119763236Y-73735928D01*
X119756840Y-73757009D01*
X119746452Y-73776445D01*
X119732476Y-73793476D01*
X119715445Y-73807452D01*
X119696009Y-73817840D01*
X119674928Y-73824236D01*
X119646860Y-73827000D01*
X119183140Y-73827000D01*
X119155072Y-73824236D01*
X119133991Y-73817840D01*
X119114555Y-73807452D01*
X119097524Y-73793476D01*
X119083548Y-73776445D01*
X119073160Y-73757009D01*
X119066764Y-73735928D01*
X119064000Y-73707860D01*
X119064000Y-71444140D01*
X119066764Y-71416072D01*
X119073160Y-71394991D01*
X119083548Y-71375555D01*
X119097524Y-71358524D01*
X119114555Y-71344548D01*
X119133991Y-71334160D01*
X119155072Y-71327764D01*
X119183140Y-71325000D01*
X119646860Y-71325000D01*
X119674928Y-71327764D01*
X119674928Y-71327764D01*
G37*
G36*
X118404928Y-71327764D02*
G01*
X118426009Y-71334160D01*
X118445445Y-71344548D01*
X118462476Y-71358524D01*
X118476452Y-71375555D01*
X118486840Y-71394991D01*
X118493236Y-71416072D01*
X118496000Y-71444140D01*
X118496000Y-73707860D01*
X118493236Y-73735928D01*
X118486840Y-73757009D01*
X118476452Y-73776445D01*
X118462476Y-73793476D01*
X118445445Y-73807452D01*
X118426009Y-73817840D01*
X118404928Y-73824236D01*
X118376860Y-73827000D01*
X117913140Y-73827000D01*
X117885072Y-73824236D01*
X117863991Y-73817840D01*
X117844555Y-73807452D01*
X117827524Y-73793476D01*
X117813548Y-73776445D01*
X117803160Y-73757009D01*
X117796764Y-73735928D01*
X117794000Y-73707860D01*
X117794000Y-71444140D01*
X117796764Y-71416072D01*
X117803160Y-71394991D01*
X117813548Y-71375555D01*
X117827524Y-71358524D01*
X117844555Y-71344548D01*
X117863991Y-71334160D01*
X117885072Y-71327764D01*
X117913140Y-71325000D01*
X118376860Y-71325000D01*
X118404928Y-71327764D01*
X118404928Y-71327764D01*
G37*
G36*
X137454928Y-71327764D02*
G01*
X137476009Y-71334160D01*
X137495445Y-71344548D01*
X137512476Y-71358524D01*
X137526452Y-71375555D01*
X137536840Y-71394991D01*
X137543236Y-71416072D01*
X137546000Y-71444140D01*
X137546000Y-73707860D01*
X137543236Y-73735928D01*
X137536840Y-73757009D01*
X137526452Y-73776445D01*
X137512476Y-73793476D01*
X137495445Y-73807452D01*
X137476009Y-73817840D01*
X137454928Y-73824236D01*
X137426860Y-73827000D01*
X136963140Y-73827000D01*
X136935072Y-73824236D01*
X136913991Y-73817840D01*
X136894555Y-73807452D01*
X136877524Y-73793476D01*
X136863548Y-73776445D01*
X136853160Y-73757009D01*
X136846764Y-73735928D01*
X136844000Y-73707860D01*
X136844000Y-71444140D01*
X136846764Y-71416072D01*
X136853160Y-71394991D01*
X136863548Y-71375555D01*
X136877524Y-71358524D01*
X136894555Y-71344548D01*
X136913991Y-71334160D01*
X136935072Y-71327764D01*
X136963140Y-71325000D01*
X137426860Y-71325000D01*
X137454928Y-71327764D01*
X137454928Y-71327764D01*
G37*
G36*
X117134928Y-71327764D02*
G01*
X117156009Y-71334160D01*
X117175445Y-71344548D01*
X117192476Y-71358524D01*
X117206452Y-71375555D01*
X117216840Y-71394991D01*
X117223236Y-71416072D01*
X117226000Y-71444140D01*
X117226000Y-73707860D01*
X117223236Y-73735928D01*
X117216840Y-73757009D01*
X117206452Y-73776445D01*
X117192476Y-73793476D01*
X117175445Y-73807452D01*
X117156009Y-73817840D01*
X117134928Y-73824236D01*
X117106860Y-73827000D01*
X116643140Y-73827000D01*
X116615072Y-73824236D01*
X116593991Y-73817840D01*
X116574555Y-73807452D01*
X116557524Y-73793476D01*
X116543548Y-73776445D01*
X116533160Y-73757009D01*
X116526764Y-73735928D01*
X116524000Y-73707860D01*
X116524000Y-71444140D01*
X116526764Y-71416072D01*
X116533160Y-71394991D01*
X116543548Y-71375555D01*
X116557524Y-71358524D01*
X116574555Y-71344548D01*
X116593991Y-71334160D01*
X116615072Y-71327764D01*
X116643140Y-71325000D01*
X117106860Y-71325000D01*
X117134928Y-71327764D01*
X117134928Y-71327764D01*
G37*
G36*
X193313628Y-67050503D02*
G01*
X193468500Y-67114653D01*
X193607881Y-67207785D01*
X193726415Y-67326319D01*
X193819547Y-67465700D01*
X193883697Y-67620572D01*
X193916400Y-67784984D01*
X193916400Y-67952616D01*
X193883697Y-68117028D01*
X193819547Y-68271900D01*
X193726415Y-68411281D01*
X193607881Y-68529815D01*
X193468500Y-68622947D01*
X193313628Y-68687097D01*
X193149216Y-68719800D01*
X192981584Y-68719800D01*
X192817172Y-68687097D01*
X192662300Y-68622947D01*
X192522919Y-68529815D01*
X192404385Y-68411281D01*
X192311253Y-68271900D01*
X192247103Y-68117028D01*
X192214400Y-67952616D01*
X192214400Y-67784984D01*
X192247103Y-67620572D01*
X192311253Y-67465700D01*
X192404385Y-67326319D01*
X192522919Y-67207785D01*
X192662300Y-67114653D01*
X192817172Y-67050503D01*
X192981584Y-67017800D01*
X193149216Y-67017800D01*
X193313628Y-67050503D01*
X193313628Y-67050503D01*
G37*
G36*
X175446642Y-62605518D02*
G01*
X175512827Y-62612037D01*
X175682666Y-62663557D01*
X175839191Y-62747222D01*
X175874929Y-62776552D01*
X175976386Y-62859814D01*
X176059648Y-62961271D01*
X176088978Y-62997009D01*
X176172643Y-63153534D01*
X176224163Y-63323373D01*
X176241559Y-63500000D01*
X176224163Y-63676627D01*
X176172643Y-63846466D01*
X176088978Y-64002991D01*
X176059648Y-64038729D01*
X175976386Y-64140186D01*
X175874929Y-64223448D01*
X175839191Y-64252778D01*
X175682666Y-64336443D01*
X175512827Y-64387963D01*
X175446642Y-64394482D01*
X175380460Y-64401000D01*
X175291940Y-64401000D01*
X175225758Y-64394482D01*
X175159573Y-64387963D01*
X174989734Y-64336443D01*
X174833209Y-64252778D01*
X174797471Y-64223448D01*
X174696014Y-64140186D01*
X174612752Y-64038729D01*
X174583422Y-64002991D01*
X174499757Y-63846466D01*
X174448237Y-63676627D01*
X174430841Y-63500000D01*
X174448237Y-63323373D01*
X174499757Y-63153534D01*
X174583422Y-62997009D01*
X174612752Y-62961271D01*
X174696014Y-62859814D01*
X174797471Y-62776552D01*
X174833209Y-62747222D01*
X174989734Y-62663557D01*
X175159573Y-62612037D01*
X175225758Y-62605518D01*
X175291940Y-62599000D01*
X175380460Y-62599000D01*
X175446642Y-62605518D01*
X175446642Y-62605518D01*
G37*
G36*
X142426642Y-62605518D02*
G01*
X142492827Y-62612037D01*
X142662666Y-62663557D01*
X142819191Y-62747222D01*
X142854929Y-62776552D01*
X142956386Y-62859814D01*
X143039648Y-62961271D01*
X143068978Y-62997009D01*
X143152643Y-63153534D01*
X143204163Y-63323373D01*
X143221559Y-63500000D01*
X143204163Y-63676627D01*
X143152643Y-63846466D01*
X143068978Y-64002991D01*
X143039648Y-64038729D01*
X142956386Y-64140186D01*
X142854929Y-64223448D01*
X142819191Y-64252778D01*
X142662666Y-64336443D01*
X142492827Y-64387963D01*
X142426642Y-64394482D01*
X142360460Y-64401000D01*
X142271940Y-64401000D01*
X142205758Y-64394482D01*
X142139573Y-64387963D01*
X141969734Y-64336443D01*
X141813209Y-64252778D01*
X141777471Y-64223448D01*
X141676014Y-64140186D01*
X141592752Y-64038729D01*
X141563422Y-64002991D01*
X141479757Y-63846466D01*
X141428237Y-63676627D01*
X141410841Y-63500000D01*
X141428237Y-63323373D01*
X141479757Y-63153534D01*
X141563422Y-62997009D01*
X141592752Y-62961271D01*
X141676014Y-62859814D01*
X141777471Y-62776552D01*
X141813209Y-62747222D01*
X141969734Y-62663557D01*
X142139573Y-62612037D01*
X142205758Y-62605518D01*
X142271940Y-62599000D01*
X142360460Y-62599000D01*
X142426642Y-62605518D01*
X142426642Y-62605518D01*
G37*
G36*
X160206642Y-62605518D02*
G01*
X160272827Y-62612037D01*
X160442666Y-62663557D01*
X160599191Y-62747222D01*
X160634929Y-62776552D01*
X160736386Y-62859814D01*
X160819648Y-62961271D01*
X160848978Y-62997009D01*
X160932643Y-63153534D01*
X160984163Y-63323373D01*
X161001559Y-63500000D01*
X160984163Y-63676627D01*
X160932643Y-63846466D01*
X160848978Y-64002991D01*
X160819648Y-64038729D01*
X160736386Y-64140186D01*
X160634929Y-64223448D01*
X160599191Y-64252778D01*
X160442666Y-64336443D01*
X160272827Y-64387963D01*
X160206642Y-64394482D01*
X160140460Y-64401000D01*
X160051940Y-64401000D01*
X159985758Y-64394482D01*
X159919573Y-64387963D01*
X159749734Y-64336443D01*
X159593209Y-64252778D01*
X159557471Y-64223448D01*
X159456014Y-64140186D01*
X159372752Y-64038729D01*
X159343422Y-64002991D01*
X159259757Y-63846466D01*
X159208237Y-63676627D01*
X159190841Y-63500000D01*
X159208237Y-63323373D01*
X159259757Y-63153534D01*
X159343422Y-62997009D01*
X159372752Y-62961271D01*
X159456014Y-62859814D01*
X159557471Y-62776552D01*
X159593209Y-62747222D01*
X159749734Y-62663557D01*
X159919573Y-62612037D01*
X159985758Y-62605518D01*
X160051940Y-62599000D01*
X160140460Y-62599000D01*
X160206642Y-62605518D01*
X160206642Y-62605518D01*
G37*
G36*
X127186642Y-62605518D02*
G01*
X127252827Y-62612037D01*
X127422666Y-62663557D01*
X127579191Y-62747222D01*
X127614929Y-62776552D01*
X127716386Y-62859814D01*
X127799648Y-62961271D01*
X127828978Y-62997009D01*
X127912643Y-63153534D01*
X127964163Y-63323373D01*
X127981559Y-63500000D01*
X127964163Y-63676627D01*
X127912643Y-63846466D01*
X127828978Y-64002991D01*
X127799648Y-64038729D01*
X127716386Y-64140186D01*
X127614929Y-64223448D01*
X127579191Y-64252778D01*
X127422666Y-64336443D01*
X127252827Y-64387963D01*
X127186642Y-64394482D01*
X127120460Y-64401000D01*
X127031940Y-64401000D01*
X126965758Y-64394482D01*
X126899573Y-64387963D01*
X126729734Y-64336443D01*
X126573209Y-64252778D01*
X126537471Y-64223448D01*
X126436014Y-64140186D01*
X126352752Y-64038729D01*
X126323422Y-64002991D01*
X126239757Y-63846466D01*
X126188237Y-63676627D01*
X126170841Y-63500000D01*
X126188237Y-63323373D01*
X126239757Y-63153534D01*
X126323422Y-62997009D01*
X126352752Y-62961271D01*
X126436014Y-62859814D01*
X126537471Y-62776552D01*
X126573209Y-62747222D01*
X126729734Y-62663557D01*
X126899573Y-62612037D01*
X126965758Y-62605518D01*
X127031940Y-62599000D01*
X127120460Y-62599000D01*
X127186642Y-62605518D01*
X127186642Y-62605518D01*
G37*
G36*
X147506642Y-62605518D02*
G01*
X147572827Y-62612037D01*
X147742666Y-62663557D01*
X147899191Y-62747222D01*
X147934929Y-62776552D01*
X148036386Y-62859814D01*
X148119648Y-62961271D01*
X148148978Y-62997009D01*
X148232643Y-63153534D01*
X148284163Y-63323373D01*
X148301559Y-63500000D01*
X148284163Y-63676627D01*
X148232643Y-63846466D01*
X148148978Y-64002991D01*
X148119648Y-64038729D01*
X148036386Y-64140186D01*
X147934929Y-64223448D01*
X147899191Y-64252778D01*
X147742666Y-64336443D01*
X147572827Y-64387963D01*
X147506642Y-64394482D01*
X147440460Y-64401000D01*
X147351940Y-64401000D01*
X147285758Y-64394482D01*
X147219573Y-64387963D01*
X147049734Y-64336443D01*
X146893209Y-64252778D01*
X146857471Y-64223448D01*
X146756014Y-64140186D01*
X146672752Y-64038729D01*
X146643422Y-64002991D01*
X146559757Y-63846466D01*
X146508237Y-63676627D01*
X146490841Y-63500000D01*
X146508237Y-63323373D01*
X146559757Y-63153534D01*
X146643422Y-62997009D01*
X146672752Y-62961271D01*
X146756014Y-62859814D01*
X146857471Y-62776552D01*
X146893209Y-62747222D01*
X147049734Y-62663557D01*
X147219573Y-62612037D01*
X147285758Y-62605518D01*
X147351940Y-62599000D01*
X147440460Y-62599000D01*
X147506642Y-62605518D01*
X147506642Y-62605518D01*
G37*
G36*
X150046642Y-62605518D02*
G01*
X150112827Y-62612037D01*
X150282666Y-62663557D01*
X150439191Y-62747222D01*
X150474929Y-62776552D01*
X150576386Y-62859814D01*
X150659648Y-62961271D01*
X150688978Y-62997009D01*
X150772643Y-63153534D01*
X150824163Y-63323373D01*
X150841559Y-63500000D01*
X150824163Y-63676627D01*
X150772643Y-63846466D01*
X150688978Y-64002991D01*
X150659648Y-64038729D01*
X150576386Y-64140186D01*
X150474929Y-64223448D01*
X150439191Y-64252778D01*
X150282666Y-64336443D01*
X150112827Y-64387963D01*
X150046642Y-64394482D01*
X149980460Y-64401000D01*
X149891940Y-64401000D01*
X149825758Y-64394482D01*
X149759573Y-64387963D01*
X149589734Y-64336443D01*
X149433209Y-64252778D01*
X149397471Y-64223448D01*
X149296014Y-64140186D01*
X149212752Y-64038729D01*
X149183422Y-64002991D01*
X149099757Y-63846466D01*
X149048237Y-63676627D01*
X149030841Y-63500000D01*
X149048237Y-63323373D01*
X149099757Y-63153534D01*
X149183422Y-62997009D01*
X149212752Y-62961271D01*
X149296014Y-62859814D01*
X149397471Y-62776552D01*
X149433209Y-62747222D01*
X149589734Y-62663557D01*
X149759573Y-62612037D01*
X149825758Y-62605518D01*
X149891940Y-62599000D01*
X149980460Y-62599000D01*
X150046642Y-62605518D01*
X150046642Y-62605518D01*
G37*
G36*
X152586642Y-62605518D02*
G01*
X152652827Y-62612037D01*
X152822666Y-62663557D01*
X152979191Y-62747222D01*
X153014929Y-62776552D01*
X153116386Y-62859814D01*
X153199648Y-62961271D01*
X153228978Y-62997009D01*
X153312643Y-63153534D01*
X153364163Y-63323373D01*
X153381559Y-63500000D01*
X153364163Y-63676627D01*
X153312643Y-63846466D01*
X153228978Y-64002991D01*
X153199648Y-64038729D01*
X153116386Y-64140186D01*
X153014929Y-64223448D01*
X152979191Y-64252778D01*
X152822666Y-64336443D01*
X152652827Y-64387963D01*
X152586642Y-64394482D01*
X152520460Y-64401000D01*
X152431940Y-64401000D01*
X152365758Y-64394482D01*
X152299573Y-64387963D01*
X152129734Y-64336443D01*
X151973209Y-64252778D01*
X151937471Y-64223448D01*
X151836014Y-64140186D01*
X151752752Y-64038729D01*
X151723422Y-64002991D01*
X151639757Y-63846466D01*
X151588237Y-63676627D01*
X151570841Y-63500000D01*
X151588237Y-63323373D01*
X151639757Y-63153534D01*
X151723422Y-62997009D01*
X151752752Y-62961271D01*
X151836014Y-62859814D01*
X151937471Y-62776552D01*
X151973209Y-62747222D01*
X152129734Y-62663557D01*
X152299573Y-62612037D01*
X152365758Y-62605518D01*
X152431940Y-62599000D01*
X152520460Y-62599000D01*
X152586642Y-62605518D01*
X152586642Y-62605518D01*
G37*
G36*
X155126642Y-62605518D02*
G01*
X155192827Y-62612037D01*
X155362666Y-62663557D01*
X155519191Y-62747222D01*
X155554929Y-62776552D01*
X155656386Y-62859814D01*
X155739648Y-62961271D01*
X155768978Y-62997009D01*
X155852643Y-63153534D01*
X155904163Y-63323373D01*
X155921559Y-63500000D01*
X155904163Y-63676627D01*
X155852643Y-63846466D01*
X155768978Y-64002991D01*
X155739648Y-64038729D01*
X155656386Y-64140186D01*
X155554929Y-64223448D01*
X155519191Y-64252778D01*
X155362666Y-64336443D01*
X155192827Y-64387963D01*
X155126642Y-64394482D01*
X155060460Y-64401000D01*
X154971940Y-64401000D01*
X154905758Y-64394482D01*
X154839573Y-64387963D01*
X154669734Y-64336443D01*
X154513209Y-64252778D01*
X154477471Y-64223448D01*
X154376014Y-64140186D01*
X154292752Y-64038729D01*
X154263422Y-64002991D01*
X154179757Y-63846466D01*
X154128237Y-63676627D01*
X154110841Y-63500000D01*
X154128237Y-63323373D01*
X154179757Y-63153534D01*
X154263422Y-62997009D01*
X154292752Y-62961271D01*
X154376014Y-62859814D01*
X154477471Y-62776552D01*
X154513209Y-62747222D01*
X154669734Y-62663557D01*
X154839573Y-62612037D01*
X154905758Y-62605518D01*
X154971940Y-62599000D01*
X155060460Y-62599000D01*
X155126642Y-62605518D01*
X155126642Y-62605518D01*
G37*
G36*
X157666642Y-62605518D02*
G01*
X157732827Y-62612037D01*
X157902666Y-62663557D01*
X158059191Y-62747222D01*
X158094929Y-62776552D01*
X158196386Y-62859814D01*
X158279648Y-62961271D01*
X158308978Y-62997009D01*
X158392643Y-63153534D01*
X158444163Y-63323373D01*
X158461559Y-63500000D01*
X158444163Y-63676627D01*
X158392643Y-63846466D01*
X158308978Y-64002991D01*
X158279648Y-64038729D01*
X158196386Y-64140186D01*
X158094929Y-64223448D01*
X158059191Y-64252778D01*
X157902666Y-64336443D01*
X157732827Y-64387963D01*
X157666642Y-64394482D01*
X157600460Y-64401000D01*
X157511940Y-64401000D01*
X157445758Y-64394482D01*
X157379573Y-64387963D01*
X157209734Y-64336443D01*
X157053209Y-64252778D01*
X157017471Y-64223448D01*
X156916014Y-64140186D01*
X156832752Y-64038729D01*
X156803422Y-64002991D01*
X156719757Y-63846466D01*
X156668237Y-63676627D01*
X156650841Y-63500000D01*
X156668237Y-63323373D01*
X156719757Y-63153534D01*
X156803422Y-62997009D01*
X156832752Y-62961271D01*
X156916014Y-62859814D01*
X157017471Y-62776552D01*
X157053209Y-62747222D01*
X157209734Y-62663557D01*
X157379573Y-62612037D01*
X157445758Y-62605518D01*
X157511940Y-62599000D01*
X157600460Y-62599000D01*
X157666642Y-62605518D01*
X157666642Y-62605518D01*
G37*
G36*
X129726642Y-62605518D02*
G01*
X129792827Y-62612037D01*
X129962666Y-62663557D01*
X130119191Y-62747222D01*
X130154929Y-62776552D01*
X130256386Y-62859814D01*
X130339648Y-62961271D01*
X130368978Y-62997009D01*
X130452643Y-63153534D01*
X130504163Y-63323373D01*
X130521559Y-63500000D01*
X130504163Y-63676627D01*
X130452643Y-63846466D01*
X130368978Y-64002991D01*
X130339648Y-64038729D01*
X130256386Y-64140186D01*
X130154929Y-64223448D01*
X130119191Y-64252778D01*
X129962666Y-64336443D01*
X129792827Y-64387963D01*
X129726642Y-64394482D01*
X129660460Y-64401000D01*
X129571940Y-64401000D01*
X129505758Y-64394482D01*
X129439573Y-64387963D01*
X129269734Y-64336443D01*
X129113209Y-64252778D01*
X129077471Y-64223448D01*
X128976014Y-64140186D01*
X128892752Y-64038729D01*
X128863422Y-64002991D01*
X128779757Y-63846466D01*
X128728237Y-63676627D01*
X128710841Y-63500000D01*
X128728237Y-63323373D01*
X128779757Y-63153534D01*
X128863422Y-62997009D01*
X128892752Y-62961271D01*
X128976014Y-62859814D01*
X129077471Y-62776552D01*
X129113209Y-62747222D01*
X129269734Y-62663557D01*
X129439573Y-62612037D01*
X129505758Y-62605518D01*
X129571940Y-62599000D01*
X129660460Y-62599000D01*
X129726642Y-62605518D01*
X129726642Y-62605518D01*
G37*
G36*
X172906642Y-62605518D02*
G01*
X172972827Y-62612037D01*
X173142666Y-62663557D01*
X173299191Y-62747222D01*
X173334929Y-62776552D01*
X173436386Y-62859814D01*
X173519648Y-62961271D01*
X173548978Y-62997009D01*
X173632643Y-63153534D01*
X173684163Y-63323373D01*
X173701559Y-63500000D01*
X173684163Y-63676627D01*
X173632643Y-63846466D01*
X173548978Y-64002991D01*
X173519648Y-64038729D01*
X173436386Y-64140186D01*
X173334929Y-64223448D01*
X173299191Y-64252778D01*
X173142666Y-64336443D01*
X172972827Y-64387963D01*
X172906642Y-64394482D01*
X172840460Y-64401000D01*
X172751940Y-64401000D01*
X172685758Y-64394482D01*
X172619573Y-64387963D01*
X172449734Y-64336443D01*
X172293209Y-64252778D01*
X172257471Y-64223448D01*
X172156014Y-64140186D01*
X172072752Y-64038729D01*
X172043422Y-64002991D01*
X171959757Y-63846466D01*
X171908237Y-63676627D01*
X171890841Y-63500000D01*
X171908237Y-63323373D01*
X171959757Y-63153534D01*
X172043422Y-62997009D01*
X172072752Y-62961271D01*
X172156014Y-62859814D01*
X172257471Y-62776552D01*
X172293209Y-62747222D01*
X172449734Y-62663557D01*
X172619573Y-62612037D01*
X172685758Y-62605518D01*
X172751940Y-62599000D01*
X172840460Y-62599000D01*
X172906642Y-62605518D01*
X172906642Y-62605518D01*
G37*
G36*
X137346642Y-62605518D02*
G01*
X137412827Y-62612037D01*
X137582666Y-62663557D01*
X137739191Y-62747222D01*
X137774929Y-62776552D01*
X137876386Y-62859814D01*
X137959648Y-62961271D01*
X137988978Y-62997009D01*
X138072643Y-63153534D01*
X138124163Y-63323373D01*
X138141559Y-63500000D01*
X138124163Y-63676627D01*
X138072643Y-63846466D01*
X137988978Y-64002991D01*
X137959648Y-64038729D01*
X137876386Y-64140186D01*
X137774929Y-64223448D01*
X137739191Y-64252778D01*
X137582666Y-64336443D01*
X137412827Y-64387963D01*
X137346642Y-64394482D01*
X137280460Y-64401000D01*
X137191940Y-64401000D01*
X137125758Y-64394482D01*
X137059573Y-64387963D01*
X136889734Y-64336443D01*
X136733209Y-64252778D01*
X136697471Y-64223448D01*
X136596014Y-64140186D01*
X136512752Y-64038729D01*
X136483422Y-64002991D01*
X136399757Y-63846466D01*
X136348237Y-63676627D01*
X136330841Y-63500000D01*
X136348237Y-63323373D01*
X136399757Y-63153534D01*
X136483422Y-62997009D01*
X136512752Y-62961271D01*
X136596014Y-62859814D01*
X136697471Y-62776552D01*
X136733209Y-62747222D01*
X136889734Y-62663557D01*
X137059573Y-62612037D01*
X137125758Y-62605518D01*
X137191940Y-62599000D01*
X137280460Y-62599000D01*
X137346642Y-62605518D01*
X137346642Y-62605518D01*
G37*
G36*
X170366642Y-62605518D02*
G01*
X170432827Y-62612037D01*
X170602666Y-62663557D01*
X170759191Y-62747222D01*
X170794929Y-62776552D01*
X170896386Y-62859814D01*
X170979648Y-62961271D01*
X171008978Y-62997009D01*
X171092643Y-63153534D01*
X171144163Y-63323373D01*
X171161559Y-63500000D01*
X171144163Y-63676627D01*
X171092643Y-63846466D01*
X171008978Y-64002991D01*
X170979648Y-64038729D01*
X170896386Y-64140186D01*
X170794929Y-64223448D01*
X170759191Y-64252778D01*
X170602666Y-64336443D01*
X170432827Y-64387963D01*
X170366642Y-64394482D01*
X170300460Y-64401000D01*
X170211940Y-64401000D01*
X170145758Y-64394482D01*
X170079573Y-64387963D01*
X169909734Y-64336443D01*
X169753209Y-64252778D01*
X169717471Y-64223448D01*
X169616014Y-64140186D01*
X169532752Y-64038729D01*
X169503422Y-64002991D01*
X169419757Y-63846466D01*
X169368237Y-63676627D01*
X169350841Y-63500000D01*
X169368237Y-63323373D01*
X169419757Y-63153534D01*
X169503422Y-62997009D01*
X169532752Y-62961271D01*
X169616014Y-62859814D01*
X169717471Y-62776552D01*
X169753209Y-62747222D01*
X169909734Y-62663557D01*
X170079573Y-62612037D01*
X170145758Y-62605518D01*
X170211940Y-62599000D01*
X170300460Y-62599000D01*
X170366642Y-62605518D01*
X170366642Y-62605518D01*
G37*
G36*
X134806642Y-62605518D02*
G01*
X134872827Y-62612037D01*
X135042666Y-62663557D01*
X135199191Y-62747222D01*
X135234929Y-62776552D01*
X135336386Y-62859814D01*
X135419648Y-62961271D01*
X135448978Y-62997009D01*
X135532643Y-63153534D01*
X135584163Y-63323373D01*
X135601559Y-63500000D01*
X135584163Y-63676627D01*
X135532643Y-63846466D01*
X135448978Y-64002991D01*
X135419648Y-64038729D01*
X135336386Y-64140186D01*
X135234929Y-64223448D01*
X135199191Y-64252778D01*
X135042666Y-64336443D01*
X134872827Y-64387963D01*
X134806642Y-64394482D01*
X134740460Y-64401000D01*
X134651940Y-64401000D01*
X134585758Y-64394482D01*
X134519573Y-64387963D01*
X134349734Y-64336443D01*
X134193209Y-64252778D01*
X134157471Y-64223448D01*
X134056014Y-64140186D01*
X133972752Y-64038729D01*
X133943422Y-64002991D01*
X133859757Y-63846466D01*
X133808237Y-63676627D01*
X133790841Y-63500000D01*
X133808237Y-63323373D01*
X133859757Y-63153534D01*
X133943422Y-62997009D01*
X133972752Y-62961271D01*
X134056014Y-62859814D01*
X134157471Y-62776552D01*
X134193209Y-62747222D01*
X134349734Y-62663557D01*
X134519573Y-62612037D01*
X134585758Y-62605518D01*
X134651940Y-62599000D01*
X134740460Y-62599000D01*
X134806642Y-62605518D01*
X134806642Y-62605518D01*
G37*
G36*
X167826642Y-62605518D02*
G01*
X167892827Y-62612037D01*
X168062666Y-62663557D01*
X168219191Y-62747222D01*
X168254929Y-62776552D01*
X168356386Y-62859814D01*
X168439648Y-62961271D01*
X168468978Y-62997009D01*
X168552643Y-63153534D01*
X168604163Y-63323373D01*
X168621559Y-63500000D01*
X168604163Y-63676627D01*
X168552643Y-63846466D01*
X168468978Y-64002991D01*
X168439648Y-64038729D01*
X168356386Y-64140186D01*
X168254929Y-64223448D01*
X168219191Y-64252778D01*
X168062666Y-64336443D01*
X167892827Y-64387963D01*
X167826642Y-64394482D01*
X167760460Y-64401000D01*
X167671940Y-64401000D01*
X167605758Y-64394482D01*
X167539573Y-64387963D01*
X167369734Y-64336443D01*
X167213209Y-64252778D01*
X167177471Y-64223448D01*
X167076014Y-64140186D01*
X166992752Y-64038729D01*
X166963422Y-64002991D01*
X166879757Y-63846466D01*
X166828237Y-63676627D01*
X166810841Y-63500000D01*
X166828237Y-63323373D01*
X166879757Y-63153534D01*
X166963422Y-62997009D01*
X166992752Y-62961271D01*
X167076014Y-62859814D01*
X167177471Y-62776552D01*
X167213209Y-62747222D01*
X167369734Y-62663557D01*
X167539573Y-62612037D01*
X167605758Y-62605518D01*
X167671940Y-62599000D01*
X167760460Y-62599000D01*
X167826642Y-62605518D01*
X167826642Y-62605518D01*
G37*
G36*
X132266642Y-62605518D02*
G01*
X132332827Y-62612037D01*
X132502666Y-62663557D01*
X132659191Y-62747222D01*
X132694929Y-62776552D01*
X132796386Y-62859814D01*
X132879648Y-62961271D01*
X132908978Y-62997009D01*
X132992643Y-63153534D01*
X133044163Y-63323373D01*
X133061559Y-63500000D01*
X133044163Y-63676627D01*
X132992643Y-63846466D01*
X132908978Y-64002991D01*
X132879648Y-64038729D01*
X132796386Y-64140186D01*
X132694929Y-64223448D01*
X132659191Y-64252778D01*
X132502666Y-64336443D01*
X132332827Y-64387963D01*
X132266642Y-64394482D01*
X132200460Y-64401000D01*
X132111940Y-64401000D01*
X132045758Y-64394482D01*
X131979573Y-64387963D01*
X131809734Y-64336443D01*
X131653209Y-64252778D01*
X131617471Y-64223448D01*
X131516014Y-64140186D01*
X131432752Y-64038729D01*
X131403422Y-64002991D01*
X131319757Y-63846466D01*
X131268237Y-63676627D01*
X131250841Y-63500000D01*
X131268237Y-63323373D01*
X131319757Y-63153534D01*
X131403422Y-62997009D01*
X131432752Y-62961271D01*
X131516014Y-62859814D01*
X131617471Y-62776552D01*
X131653209Y-62747222D01*
X131809734Y-62663557D01*
X131979573Y-62612037D01*
X132045758Y-62605518D01*
X132111940Y-62599000D01*
X132200460Y-62599000D01*
X132266642Y-62605518D01*
X132266642Y-62605518D01*
G37*
G36*
X165286642Y-62605518D02*
G01*
X165352827Y-62612037D01*
X165522666Y-62663557D01*
X165679191Y-62747222D01*
X165714929Y-62776552D01*
X165816386Y-62859814D01*
X165899648Y-62961271D01*
X165928978Y-62997009D01*
X166012643Y-63153534D01*
X166064163Y-63323373D01*
X166081559Y-63500000D01*
X166064163Y-63676627D01*
X166012643Y-63846466D01*
X165928978Y-64002991D01*
X165899648Y-64038729D01*
X165816386Y-64140186D01*
X165714929Y-64223448D01*
X165679191Y-64252778D01*
X165522666Y-64336443D01*
X165352827Y-64387963D01*
X165286642Y-64394482D01*
X165220460Y-64401000D01*
X165131940Y-64401000D01*
X165065758Y-64394482D01*
X164999573Y-64387963D01*
X164829734Y-64336443D01*
X164673209Y-64252778D01*
X164637471Y-64223448D01*
X164536014Y-64140186D01*
X164452752Y-64038729D01*
X164423422Y-64002991D01*
X164339757Y-63846466D01*
X164288237Y-63676627D01*
X164270841Y-63500000D01*
X164288237Y-63323373D01*
X164339757Y-63153534D01*
X164423422Y-62997009D01*
X164452752Y-62961271D01*
X164536014Y-62859814D01*
X164637471Y-62776552D01*
X164673209Y-62747222D01*
X164829734Y-62663557D01*
X164999573Y-62612037D01*
X165065758Y-62605518D01*
X165131940Y-62599000D01*
X165220460Y-62599000D01*
X165286642Y-62605518D01*
X165286642Y-62605518D01*
G37*
G36*
X144966642Y-62605518D02*
G01*
X145032827Y-62612037D01*
X145202666Y-62663557D01*
X145359191Y-62747222D01*
X145394929Y-62776552D01*
X145496386Y-62859814D01*
X145579648Y-62961271D01*
X145608978Y-62997009D01*
X145692643Y-63153534D01*
X145744163Y-63323373D01*
X145761559Y-63500000D01*
X145744163Y-63676627D01*
X145692643Y-63846466D01*
X145608978Y-64002991D01*
X145579648Y-64038729D01*
X145496386Y-64140186D01*
X145394929Y-64223448D01*
X145359191Y-64252778D01*
X145202666Y-64336443D01*
X145032827Y-64387963D01*
X144966642Y-64394482D01*
X144900460Y-64401000D01*
X144811940Y-64401000D01*
X144745758Y-64394482D01*
X144679573Y-64387963D01*
X144509734Y-64336443D01*
X144353209Y-64252778D01*
X144317471Y-64223448D01*
X144216014Y-64140186D01*
X144132752Y-64038729D01*
X144103422Y-64002991D01*
X144019757Y-63846466D01*
X143968237Y-63676627D01*
X143950841Y-63500000D01*
X143968237Y-63323373D01*
X144019757Y-63153534D01*
X144103422Y-62997009D01*
X144132752Y-62961271D01*
X144216014Y-62859814D01*
X144317471Y-62776552D01*
X144353209Y-62747222D01*
X144509734Y-62663557D01*
X144679573Y-62612037D01*
X144745758Y-62605518D01*
X144811940Y-62599000D01*
X144900460Y-62599000D01*
X144966642Y-62605518D01*
X144966642Y-62605518D01*
G37*
G36*
X162746642Y-62605518D02*
G01*
X162812827Y-62612037D01*
X162982666Y-62663557D01*
X163139191Y-62747222D01*
X163174929Y-62776552D01*
X163276386Y-62859814D01*
X163359648Y-62961271D01*
X163388978Y-62997009D01*
X163472643Y-63153534D01*
X163524163Y-63323373D01*
X163541559Y-63500000D01*
X163524163Y-63676627D01*
X163472643Y-63846466D01*
X163388978Y-64002991D01*
X163359648Y-64038729D01*
X163276386Y-64140186D01*
X163174929Y-64223448D01*
X163139191Y-64252778D01*
X162982666Y-64336443D01*
X162812827Y-64387963D01*
X162746642Y-64394482D01*
X162680460Y-64401000D01*
X162591940Y-64401000D01*
X162525758Y-64394482D01*
X162459573Y-64387963D01*
X162289734Y-64336443D01*
X162133209Y-64252778D01*
X162097471Y-64223448D01*
X161996014Y-64140186D01*
X161912752Y-64038729D01*
X161883422Y-64002991D01*
X161799757Y-63846466D01*
X161748237Y-63676627D01*
X161730841Y-63500000D01*
X161748237Y-63323373D01*
X161799757Y-63153534D01*
X161883422Y-62997009D01*
X161912752Y-62961271D01*
X161996014Y-62859814D01*
X162097471Y-62776552D01*
X162133209Y-62747222D01*
X162289734Y-62663557D01*
X162459573Y-62612037D01*
X162525758Y-62605518D01*
X162591940Y-62599000D01*
X162680460Y-62599000D01*
X162746642Y-62605518D01*
X162746642Y-62605518D01*
G37*
G36*
X139886642Y-62605518D02*
G01*
X139952827Y-62612037D01*
X140122666Y-62663557D01*
X140279191Y-62747222D01*
X140314929Y-62776552D01*
X140416386Y-62859814D01*
X140499648Y-62961271D01*
X140528978Y-62997009D01*
X140612643Y-63153534D01*
X140664163Y-63323373D01*
X140681559Y-63500000D01*
X140664163Y-63676627D01*
X140612643Y-63846466D01*
X140528978Y-64002991D01*
X140499648Y-64038729D01*
X140416386Y-64140186D01*
X140314929Y-64223448D01*
X140279191Y-64252778D01*
X140122666Y-64336443D01*
X139952827Y-64387963D01*
X139886642Y-64394482D01*
X139820460Y-64401000D01*
X139731940Y-64401000D01*
X139665758Y-64394482D01*
X139599573Y-64387963D01*
X139429734Y-64336443D01*
X139273209Y-64252778D01*
X139237471Y-64223448D01*
X139136014Y-64140186D01*
X139052752Y-64038729D01*
X139023422Y-64002991D01*
X138939757Y-63846466D01*
X138888237Y-63676627D01*
X138870841Y-63500000D01*
X138888237Y-63323373D01*
X138939757Y-63153534D01*
X139023422Y-62997009D01*
X139052752Y-62961271D01*
X139136014Y-62859814D01*
X139237471Y-62776552D01*
X139273209Y-62747222D01*
X139429734Y-62663557D01*
X139599573Y-62612037D01*
X139665758Y-62605518D01*
X139731940Y-62599000D01*
X139820460Y-62599000D01*
X139886642Y-62605518D01*
X139886642Y-62605518D01*
G37*
G36*
X193375256Y-59391298D02*
G01*
X193481579Y-59412447D01*
X193782042Y-59536903D01*
X194052451Y-59717585D01*
X194282415Y-59947549D01*
X194463097Y-60217958D01*
X194587553Y-60518421D01*
X194651000Y-60837391D01*
X194651000Y-61162609D01*
X194587553Y-61481579D01*
X194463097Y-61782042D01*
X194282415Y-62052451D01*
X194052451Y-62282415D01*
X193782042Y-62463097D01*
X193481579Y-62587553D01*
X193424031Y-62599000D01*
X193162611Y-62651000D01*
X192837389Y-62651000D01*
X192575969Y-62599000D01*
X192518421Y-62587553D01*
X192217958Y-62463097D01*
X191947549Y-62282415D01*
X191717585Y-62052451D01*
X191536903Y-61782042D01*
X191412447Y-61481579D01*
X191349000Y-61162609D01*
X191349000Y-60837391D01*
X191412447Y-60518421D01*
X191536903Y-60217958D01*
X191717585Y-59947549D01*
X191947549Y-59717585D01*
X192217958Y-59536903D01*
X192518421Y-59412447D01*
X192624744Y-59391298D01*
X192837389Y-59349000D01*
X193162611Y-59349000D01*
X193375256Y-59391298D01*
X193375256Y-59391298D01*
G37*
G36*
X104375256Y-59391298D02*
G01*
X104481579Y-59412447D01*
X104782042Y-59536903D01*
X105052451Y-59717585D01*
X105282415Y-59947549D01*
X105463097Y-60217958D01*
X105587553Y-60518421D01*
X105651000Y-60837391D01*
X105651000Y-61162609D01*
X105587553Y-61481579D01*
X105463097Y-61782042D01*
X105282415Y-62052451D01*
X105052451Y-62282415D01*
X104782042Y-62463097D01*
X104481579Y-62587553D01*
X104424031Y-62599000D01*
X104162611Y-62651000D01*
X103837389Y-62651000D01*
X103575969Y-62599000D01*
X103518421Y-62587553D01*
X103217958Y-62463097D01*
X102947549Y-62282415D01*
X102717585Y-62052451D01*
X102536903Y-61782042D01*
X102412447Y-61481579D01*
X102349000Y-61162609D01*
X102349000Y-60837391D01*
X102412447Y-60518421D01*
X102536903Y-60217958D01*
X102717585Y-59947549D01*
X102947549Y-59717585D01*
X103217958Y-59536903D01*
X103518421Y-59412447D01*
X103624744Y-59391298D01*
X103837389Y-59349000D01*
X104162611Y-59349000D01*
X104375256Y-59391298D01*
X104375256Y-59391298D01*
G37*
G36*
X165286642Y-60065518D02*
G01*
X165352827Y-60072037D01*
X165522666Y-60123557D01*
X165679191Y-60207222D01*
X165692275Y-60217960D01*
X165816386Y-60319814D01*
X165899648Y-60421271D01*
X165928978Y-60457009D01*
X166012643Y-60613534D01*
X166064163Y-60783373D01*
X166081559Y-60960000D01*
X166064163Y-61136627D01*
X166012643Y-61306466D01*
X165928978Y-61462991D01*
X165913724Y-61481578D01*
X165816386Y-61600186D01*
X165714929Y-61683448D01*
X165679191Y-61712778D01*
X165522666Y-61796443D01*
X165352827Y-61847963D01*
X165286643Y-61854481D01*
X165220460Y-61861000D01*
X165131940Y-61861000D01*
X165065757Y-61854481D01*
X164999573Y-61847963D01*
X164829734Y-61796443D01*
X164673209Y-61712778D01*
X164637471Y-61683448D01*
X164536014Y-61600186D01*
X164438676Y-61481578D01*
X164423422Y-61462991D01*
X164339757Y-61306466D01*
X164288237Y-61136627D01*
X164270841Y-60960000D01*
X164288237Y-60783373D01*
X164339757Y-60613534D01*
X164423422Y-60457009D01*
X164452752Y-60421271D01*
X164536014Y-60319814D01*
X164660125Y-60217960D01*
X164673209Y-60207222D01*
X164829734Y-60123557D01*
X164999573Y-60072037D01*
X165065758Y-60065518D01*
X165131940Y-60059000D01*
X165220460Y-60059000D01*
X165286642Y-60065518D01*
X165286642Y-60065518D01*
G37*
G36*
X176237200Y-61861000D02*
G01*
X174435200Y-61861000D01*
X174435200Y-60059000D01*
X176237200Y-60059000D01*
X176237200Y-61861000D01*
X176237200Y-61861000D01*
G37*
G36*
X172906642Y-60065518D02*
G01*
X172972827Y-60072037D01*
X173142666Y-60123557D01*
X173299191Y-60207222D01*
X173312275Y-60217960D01*
X173436386Y-60319814D01*
X173519648Y-60421271D01*
X173548978Y-60457009D01*
X173632643Y-60613534D01*
X173684163Y-60783373D01*
X173701559Y-60960000D01*
X173684163Y-61136627D01*
X173632643Y-61306466D01*
X173548978Y-61462991D01*
X173533724Y-61481578D01*
X173436386Y-61600186D01*
X173334929Y-61683448D01*
X173299191Y-61712778D01*
X173142666Y-61796443D01*
X172972827Y-61847963D01*
X172906643Y-61854481D01*
X172840460Y-61861000D01*
X172751940Y-61861000D01*
X172685757Y-61854481D01*
X172619573Y-61847963D01*
X172449734Y-61796443D01*
X172293209Y-61712778D01*
X172257471Y-61683448D01*
X172156014Y-61600186D01*
X172058676Y-61481578D01*
X172043422Y-61462991D01*
X171959757Y-61306466D01*
X171908237Y-61136627D01*
X171890841Y-60960000D01*
X171908237Y-60783373D01*
X171959757Y-60613534D01*
X172043422Y-60457009D01*
X172072752Y-60421271D01*
X172156014Y-60319814D01*
X172280125Y-60217960D01*
X172293209Y-60207222D01*
X172449734Y-60123557D01*
X172619573Y-60072037D01*
X172685758Y-60065518D01*
X172751940Y-60059000D01*
X172840460Y-60059000D01*
X172906642Y-60065518D01*
X172906642Y-60065518D01*
G37*
G36*
X170366642Y-60065518D02*
G01*
X170432827Y-60072037D01*
X170602666Y-60123557D01*
X170759191Y-60207222D01*
X170772275Y-60217960D01*
X170896386Y-60319814D01*
X170979648Y-60421271D01*
X171008978Y-60457009D01*
X171092643Y-60613534D01*
X171144163Y-60783373D01*
X171161559Y-60960000D01*
X171144163Y-61136627D01*
X171092643Y-61306466D01*
X171008978Y-61462991D01*
X170993724Y-61481578D01*
X170896386Y-61600186D01*
X170794929Y-61683448D01*
X170759191Y-61712778D01*
X170602666Y-61796443D01*
X170432827Y-61847963D01*
X170366643Y-61854481D01*
X170300460Y-61861000D01*
X170211940Y-61861000D01*
X170145757Y-61854481D01*
X170079573Y-61847963D01*
X169909734Y-61796443D01*
X169753209Y-61712778D01*
X169717471Y-61683448D01*
X169616014Y-61600186D01*
X169518676Y-61481578D01*
X169503422Y-61462991D01*
X169419757Y-61306466D01*
X169368237Y-61136627D01*
X169350841Y-60960000D01*
X169368237Y-60783373D01*
X169419757Y-60613534D01*
X169503422Y-60457009D01*
X169532752Y-60421271D01*
X169616014Y-60319814D01*
X169740125Y-60217960D01*
X169753209Y-60207222D01*
X169909734Y-60123557D01*
X170079573Y-60072037D01*
X170145758Y-60065518D01*
X170211940Y-60059000D01*
X170300460Y-60059000D01*
X170366642Y-60065518D01*
X170366642Y-60065518D01*
G37*
G36*
X167826642Y-60065518D02*
G01*
X167892827Y-60072037D01*
X168062666Y-60123557D01*
X168219191Y-60207222D01*
X168232275Y-60217960D01*
X168356386Y-60319814D01*
X168439648Y-60421271D01*
X168468978Y-60457009D01*
X168552643Y-60613534D01*
X168604163Y-60783373D01*
X168621559Y-60960000D01*
X168604163Y-61136627D01*
X168552643Y-61306466D01*
X168468978Y-61462991D01*
X168453724Y-61481578D01*
X168356386Y-61600186D01*
X168254929Y-61683448D01*
X168219191Y-61712778D01*
X168062666Y-61796443D01*
X167892827Y-61847963D01*
X167826643Y-61854481D01*
X167760460Y-61861000D01*
X167671940Y-61861000D01*
X167605757Y-61854481D01*
X167539573Y-61847963D01*
X167369734Y-61796443D01*
X167213209Y-61712778D01*
X167177471Y-61683448D01*
X167076014Y-61600186D01*
X166978676Y-61481578D01*
X166963422Y-61462991D01*
X166879757Y-61306466D01*
X166828237Y-61136627D01*
X166810841Y-60960000D01*
X166828237Y-60783373D01*
X166879757Y-60613534D01*
X166963422Y-60457009D01*
X166992752Y-60421271D01*
X167076014Y-60319814D01*
X167200125Y-60217960D01*
X167213209Y-60207222D01*
X167369734Y-60123557D01*
X167539573Y-60072037D01*
X167605758Y-60065518D01*
X167671940Y-60059000D01*
X167760460Y-60059000D01*
X167826642Y-60065518D01*
X167826642Y-60065518D01*
G37*
G36*
X127186642Y-60065518D02*
G01*
X127252827Y-60072037D01*
X127422666Y-60123557D01*
X127579191Y-60207222D01*
X127592275Y-60217960D01*
X127716386Y-60319814D01*
X127799648Y-60421271D01*
X127828978Y-60457009D01*
X127912643Y-60613534D01*
X127964163Y-60783373D01*
X127981559Y-60960000D01*
X127964163Y-61136627D01*
X127912643Y-61306466D01*
X127828978Y-61462991D01*
X127813724Y-61481578D01*
X127716386Y-61600186D01*
X127614929Y-61683448D01*
X127579191Y-61712778D01*
X127422666Y-61796443D01*
X127252827Y-61847963D01*
X127186643Y-61854481D01*
X127120460Y-61861000D01*
X127031940Y-61861000D01*
X126965757Y-61854481D01*
X126899573Y-61847963D01*
X126729734Y-61796443D01*
X126573209Y-61712778D01*
X126537471Y-61683448D01*
X126436014Y-61600186D01*
X126338676Y-61481578D01*
X126323422Y-61462991D01*
X126239757Y-61306466D01*
X126188237Y-61136627D01*
X126170841Y-60960000D01*
X126188237Y-60783373D01*
X126239757Y-60613534D01*
X126323422Y-60457009D01*
X126352752Y-60421271D01*
X126436014Y-60319814D01*
X126560125Y-60217960D01*
X126573209Y-60207222D01*
X126729734Y-60123557D01*
X126899573Y-60072037D01*
X126965758Y-60065518D01*
X127031940Y-60059000D01*
X127120460Y-60059000D01*
X127186642Y-60065518D01*
X127186642Y-60065518D01*
G37*
G36*
X129726642Y-60065518D02*
G01*
X129792827Y-60072037D01*
X129962666Y-60123557D01*
X130119191Y-60207222D01*
X130132275Y-60217960D01*
X130256386Y-60319814D01*
X130339648Y-60421271D01*
X130368978Y-60457009D01*
X130452643Y-60613534D01*
X130504163Y-60783373D01*
X130521559Y-60960000D01*
X130504163Y-61136627D01*
X130452643Y-61306466D01*
X130368978Y-61462991D01*
X130353724Y-61481578D01*
X130256386Y-61600186D01*
X130154929Y-61683448D01*
X130119191Y-61712778D01*
X129962666Y-61796443D01*
X129792827Y-61847963D01*
X129726643Y-61854481D01*
X129660460Y-61861000D01*
X129571940Y-61861000D01*
X129505757Y-61854481D01*
X129439573Y-61847963D01*
X129269734Y-61796443D01*
X129113209Y-61712778D01*
X129077471Y-61683448D01*
X128976014Y-61600186D01*
X128878676Y-61481578D01*
X128863422Y-61462991D01*
X128779757Y-61306466D01*
X128728237Y-61136627D01*
X128710841Y-60960000D01*
X128728237Y-60783373D01*
X128779757Y-60613534D01*
X128863422Y-60457009D01*
X128892752Y-60421271D01*
X128976014Y-60319814D01*
X129100125Y-60217960D01*
X129113209Y-60207222D01*
X129269734Y-60123557D01*
X129439573Y-60072037D01*
X129505758Y-60065518D01*
X129571940Y-60059000D01*
X129660460Y-60059000D01*
X129726642Y-60065518D01*
X129726642Y-60065518D01*
G37*
G36*
X160206642Y-60065518D02*
G01*
X160272827Y-60072037D01*
X160442666Y-60123557D01*
X160599191Y-60207222D01*
X160612275Y-60217960D01*
X160736386Y-60319814D01*
X160819648Y-60421271D01*
X160848978Y-60457009D01*
X160932643Y-60613534D01*
X160984163Y-60783373D01*
X161001559Y-60960000D01*
X160984163Y-61136627D01*
X160932643Y-61306466D01*
X160848978Y-61462991D01*
X160833724Y-61481578D01*
X160736386Y-61600186D01*
X160634929Y-61683448D01*
X160599191Y-61712778D01*
X160442666Y-61796443D01*
X160272827Y-61847963D01*
X160206643Y-61854481D01*
X160140460Y-61861000D01*
X160051940Y-61861000D01*
X159985757Y-61854481D01*
X159919573Y-61847963D01*
X159749734Y-61796443D01*
X159593209Y-61712778D01*
X159557471Y-61683448D01*
X159456014Y-61600186D01*
X159358676Y-61481578D01*
X159343422Y-61462991D01*
X159259757Y-61306466D01*
X159208237Y-61136627D01*
X159190841Y-60960000D01*
X159208237Y-60783373D01*
X159259757Y-60613534D01*
X159343422Y-60457009D01*
X159372752Y-60421271D01*
X159456014Y-60319814D01*
X159580125Y-60217960D01*
X159593209Y-60207222D01*
X159749734Y-60123557D01*
X159919573Y-60072037D01*
X159985758Y-60065518D01*
X160051940Y-60059000D01*
X160140460Y-60059000D01*
X160206642Y-60065518D01*
X160206642Y-60065518D01*
G37*
G36*
X157666642Y-60065518D02*
G01*
X157732827Y-60072037D01*
X157902666Y-60123557D01*
X158059191Y-60207222D01*
X158072275Y-60217960D01*
X158196386Y-60319814D01*
X158279648Y-60421271D01*
X158308978Y-60457009D01*
X158392643Y-60613534D01*
X158444163Y-60783373D01*
X158461559Y-60960000D01*
X158444163Y-61136627D01*
X158392643Y-61306466D01*
X158308978Y-61462991D01*
X158293724Y-61481578D01*
X158196386Y-61600186D01*
X158094929Y-61683448D01*
X158059191Y-61712778D01*
X157902666Y-61796443D01*
X157732827Y-61847963D01*
X157666643Y-61854481D01*
X157600460Y-61861000D01*
X157511940Y-61861000D01*
X157445757Y-61854481D01*
X157379573Y-61847963D01*
X157209734Y-61796443D01*
X157053209Y-61712778D01*
X157017471Y-61683448D01*
X156916014Y-61600186D01*
X156818676Y-61481578D01*
X156803422Y-61462991D01*
X156719757Y-61306466D01*
X156668237Y-61136627D01*
X156650841Y-60960000D01*
X156668237Y-60783373D01*
X156719757Y-60613534D01*
X156803422Y-60457009D01*
X156832752Y-60421271D01*
X156916014Y-60319814D01*
X157040125Y-60217960D01*
X157053209Y-60207222D01*
X157209734Y-60123557D01*
X157379573Y-60072037D01*
X157445758Y-60065518D01*
X157511940Y-60059000D01*
X157600460Y-60059000D01*
X157666642Y-60065518D01*
X157666642Y-60065518D01*
G37*
G36*
X132266642Y-60065518D02*
G01*
X132332827Y-60072037D01*
X132502666Y-60123557D01*
X132659191Y-60207222D01*
X132672275Y-60217960D01*
X132796386Y-60319814D01*
X132879648Y-60421271D01*
X132908978Y-60457009D01*
X132992643Y-60613534D01*
X133044163Y-60783373D01*
X133061559Y-60960000D01*
X133044163Y-61136627D01*
X132992643Y-61306466D01*
X132908978Y-61462991D01*
X132893724Y-61481578D01*
X132796386Y-61600186D01*
X132694929Y-61683448D01*
X132659191Y-61712778D01*
X132502666Y-61796443D01*
X132332827Y-61847963D01*
X132266643Y-61854481D01*
X132200460Y-61861000D01*
X132111940Y-61861000D01*
X132045757Y-61854481D01*
X131979573Y-61847963D01*
X131809734Y-61796443D01*
X131653209Y-61712778D01*
X131617471Y-61683448D01*
X131516014Y-61600186D01*
X131418676Y-61481578D01*
X131403422Y-61462991D01*
X131319757Y-61306466D01*
X131268237Y-61136627D01*
X131250841Y-60960000D01*
X131268237Y-60783373D01*
X131319757Y-60613534D01*
X131403422Y-60457009D01*
X131432752Y-60421271D01*
X131516014Y-60319814D01*
X131640125Y-60217960D01*
X131653209Y-60207222D01*
X131809734Y-60123557D01*
X131979573Y-60072037D01*
X132045758Y-60065518D01*
X132111940Y-60059000D01*
X132200460Y-60059000D01*
X132266642Y-60065518D01*
X132266642Y-60065518D01*
G37*
G36*
X155126642Y-60065518D02*
G01*
X155192827Y-60072037D01*
X155362666Y-60123557D01*
X155519191Y-60207222D01*
X155532275Y-60217960D01*
X155656386Y-60319814D01*
X155739648Y-60421271D01*
X155768978Y-60457009D01*
X155852643Y-60613534D01*
X155904163Y-60783373D01*
X155921559Y-60960000D01*
X155904163Y-61136627D01*
X155852643Y-61306466D01*
X155768978Y-61462991D01*
X155753724Y-61481578D01*
X155656386Y-61600186D01*
X155554929Y-61683448D01*
X155519191Y-61712778D01*
X155362666Y-61796443D01*
X155192827Y-61847963D01*
X155126643Y-61854481D01*
X155060460Y-61861000D01*
X154971940Y-61861000D01*
X154905757Y-61854481D01*
X154839573Y-61847963D01*
X154669734Y-61796443D01*
X154513209Y-61712778D01*
X154477471Y-61683448D01*
X154376014Y-61600186D01*
X154278676Y-61481578D01*
X154263422Y-61462991D01*
X154179757Y-61306466D01*
X154128237Y-61136627D01*
X154110841Y-60960000D01*
X154128237Y-60783373D01*
X154179757Y-60613534D01*
X154263422Y-60457009D01*
X154292752Y-60421271D01*
X154376014Y-60319814D01*
X154500125Y-60217960D01*
X154513209Y-60207222D01*
X154669734Y-60123557D01*
X154839573Y-60072037D01*
X154905758Y-60065518D01*
X154971940Y-60059000D01*
X155060460Y-60059000D01*
X155126642Y-60065518D01*
X155126642Y-60065518D01*
G37*
G36*
X134806642Y-60065518D02*
G01*
X134872827Y-60072037D01*
X135042666Y-60123557D01*
X135199191Y-60207222D01*
X135212275Y-60217960D01*
X135336386Y-60319814D01*
X135419648Y-60421271D01*
X135448978Y-60457009D01*
X135532643Y-60613534D01*
X135584163Y-60783373D01*
X135601559Y-60960000D01*
X135584163Y-61136627D01*
X135532643Y-61306466D01*
X135448978Y-61462991D01*
X135433724Y-61481578D01*
X135336386Y-61600186D01*
X135234929Y-61683448D01*
X135199191Y-61712778D01*
X135042666Y-61796443D01*
X134872827Y-61847963D01*
X134806643Y-61854481D01*
X134740460Y-61861000D01*
X134651940Y-61861000D01*
X134585757Y-61854481D01*
X134519573Y-61847963D01*
X134349734Y-61796443D01*
X134193209Y-61712778D01*
X134157471Y-61683448D01*
X134056014Y-61600186D01*
X133958676Y-61481578D01*
X133943422Y-61462991D01*
X133859757Y-61306466D01*
X133808237Y-61136627D01*
X133790841Y-60960000D01*
X133808237Y-60783373D01*
X133859757Y-60613534D01*
X133943422Y-60457009D01*
X133972752Y-60421271D01*
X134056014Y-60319814D01*
X134180125Y-60217960D01*
X134193209Y-60207222D01*
X134349734Y-60123557D01*
X134519573Y-60072037D01*
X134585758Y-60065518D01*
X134651940Y-60059000D01*
X134740460Y-60059000D01*
X134806642Y-60065518D01*
X134806642Y-60065518D01*
G37*
G36*
X152586642Y-60065518D02*
G01*
X152652827Y-60072037D01*
X152822666Y-60123557D01*
X152979191Y-60207222D01*
X152992275Y-60217960D01*
X153116386Y-60319814D01*
X153199648Y-60421271D01*
X153228978Y-60457009D01*
X153312643Y-60613534D01*
X153364163Y-60783373D01*
X153381559Y-60960000D01*
X153364163Y-61136627D01*
X153312643Y-61306466D01*
X153228978Y-61462991D01*
X153213724Y-61481578D01*
X153116386Y-61600186D01*
X153014929Y-61683448D01*
X152979191Y-61712778D01*
X152822666Y-61796443D01*
X152652827Y-61847963D01*
X152586643Y-61854481D01*
X152520460Y-61861000D01*
X152431940Y-61861000D01*
X152365757Y-61854481D01*
X152299573Y-61847963D01*
X152129734Y-61796443D01*
X151973209Y-61712778D01*
X151937471Y-61683448D01*
X151836014Y-61600186D01*
X151738676Y-61481578D01*
X151723422Y-61462991D01*
X151639757Y-61306466D01*
X151588237Y-61136627D01*
X151570841Y-60960000D01*
X151588237Y-60783373D01*
X151639757Y-60613534D01*
X151723422Y-60457009D01*
X151752752Y-60421271D01*
X151836014Y-60319814D01*
X151960125Y-60217960D01*
X151973209Y-60207222D01*
X152129734Y-60123557D01*
X152299573Y-60072037D01*
X152365758Y-60065518D01*
X152431940Y-60059000D01*
X152520460Y-60059000D01*
X152586642Y-60065518D01*
X152586642Y-60065518D01*
G37*
G36*
X137346642Y-60065518D02*
G01*
X137412827Y-60072037D01*
X137582666Y-60123557D01*
X137739191Y-60207222D01*
X137752275Y-60217960D01*
X137876386Y-60319814D01*
X137959648Y-60421271D01*
X137988978Y-60457009D01*
X138072643Y-60613534D01*
X138124163Y-60783373D01*
X138141559Y-60960000D01*
X138124163Y-61136627D01*
X138072643Y-61306466D01*
X137988978Y-61462991D01*
X137973724Y-61481578D01*
X137876386Y-61600186D01*
X137774929Y-61683448D01*
X137739191Y-61712778D01*
X137582666Y-61796443D01*
X137412827Y-61847963D01*
X137346643Y-61854481D01*
X137280460Y-61861000D01*
X137191940Y-61861000D01*
X137125757Y-61854481D01*
X137059573Y-61847963D01*
X136889734Y-61796443D01*
X136733209Y-61712778D01*
X136697471Y-61683448D01*
X136596014Y-61600186D01*
X136498676Y-61481578D01*
X136483422Y-61462991D01*
X136399757Y-61306466D01*
X136348237Y-61136627D01*
X136330841Y-60960000D01*
X136348237Y-60783373D01*
X136399757Y-60613534D01*
X136483422Y-60457009D01*
X136512752Y-60421271D01*
X136596014Y-60319814D01*
X136720125Y-60217960D01*
X136733209Y-60207222D01*
X136889734Y-60123557D01*
X137059573Y-60072037D01*
X137125758Y-60065518D01*
X137191940Y-60059000D01*
X137280460Y-60059000D01*
X137346642Y-60065518D01*
X137346642Y-60065518D01*
G37*
G36*
X150046642Y-60065518D02*
G01*
X150112827Y-60072037D01*
X150282666Y-60123557D01*
X150439191Y-60207222D01*
X150452275Y-60217960D01*
X150576386Y-60319814D01*
X150659648Y-60421271D01*
X150688978Y-60457009D01*
X150772643Y-60613534D01*
X150824163Y-60783373D01*
X150841559Y-60960000D01*
X150824163Y-61136627D01*
X150772643Y-61306466D01*
X150688978Y-61462991D01*
X150673724Y-61481578D01*
X150576386Y-61600186D01*
X150474929Y-61683448D01*
X150439191Y-61712778D01*
X150282666Y-61796443D01*
X150112827Y-61847963D01*
X150046643Y-61854481D01*
X149980460Y-61861000D01*
X149891940Y-61861000D01*
X149825757Y-61854481D01*
X149759573Y-61847963D01*
X149589734Y-61796443D01*
X149433209Y-61712778D01*
X149397471Y-61683448D01*
X149296014Y-61600186D01*
X149198676Y-61481578D01*
X149183422Y-61462991D01*
X149099757Y-61306466D01*
X149048237Y-61136627D01*
X149030841Y-60960000D01*
X149048237Y-60783373D01*
X149099757Y-60613534D01*
X149183422Y-60457009D01*
X149212752Y-60421271D01*
X149296014Y-60319814D01*
X149420125Y-60217960D01*
X149433209Y-60207222D01*
X149589734Y-60123557D01*
X149759573Y-60072037D01*
X149825758Y-60065518D01*
X149891940Y-60059000D01*
X149980460Y-60059000D01*
X150046642Y-60065518D01*
X150046642Y-60065518D01*
G37*
G36*
X139886642Y-60065518D02*
G01*
X139952827Y-60072037D01*
X140122666Y-60123557D01*
X140279191Y-60207222D01*
X140292275Y-60217960D01*
X140416386Y-60319814D01*
X140499648Y-60421271D01*
X140528978Y-60457009D01*
X140612643Y-60613534D01*
X140664163Y-60783373D01*
X140681559Y-60960000D01*
X140664163Y-61136627D01*
X140612643Y-61306466D01*
X140528978Y-61462991D01*
X140513724Y-61481578D01*
X140416386Y-61600186D01*
X140314929Y-61683448D01*
X140279191Y-61712778D01*
X140122666Y-61796443D01*
X139952827Y-61847963D01*
X139886643Y-61854481D01*
X139820460Y-61861000D01*
X139731940Y-61861000D01*
X139665757Y-61854481D01*
X139599573Y-61847963D01*
X139429734Y-61796443D01*
X139273209Y-61712778D01*
X139237471Y-61683448D01*
X139136014Y-61600186D01*
X139038676Y-61481578D01*
X139023422Y-61462991D01*
X138939757Y-61306466D01*
X138888237Y-61136627D01*
X138870841Y-60960000D01*
X138888237Y-60783373D01*
X138939757Y-60613534D01*
X139023422Y-60457009D01*
X139052752Y-60421271D01*
X139136014Y-60319814D01*
X139260125Y-60217960D01*
X139273209Y-60207222D01*
X139429734Y-60123557D01*
X139599573Y-60072037D01*
X139665758Y-60065518D01*
X139731940Y-60059000D01*
X139820460Y-60059000D01*
X139886642Y-60065518D01*
X139886642Y-60065518D01*
G37*
G36*
X147506642Y-60065518D02*
G01*
X147572827Y-60072037D01*
X147742666Y-60123557D01*
X147899191Y-60207222D01*
X147912275Y-60217960D01*
X148036386Y-60319814D01*
X148119648Y-60421271D01*
X148148978Y-60457009D01*
X148232643Y-60613534D01*
X148284163Y-60783373D01*
X148301559Y-60960000D01*
X148284163Y-61136627D01*
X148232643Y-61306466D01*
X148148978Y-61462991D01*
X148133724Y-61481578D01*
X148036386Y-61600186D01*
X147934929Y-61683448D01*
X147899191Y-61712778D01*
X147742666Y-61796443D01*
X147572827Y-61847963D01*
X147506643Y-61854481D01*
X147440460Y-61861000D01*
X147351940Y-61861000D01*
X147285757Y-61854481D01*
X147219573Y-61847963D01*
X147049734Y-61796443D01*
X146893209Y-61712778D01*
X146857471Y-61683448D01*
X146756014Y-61600186D01*
X146658676Y-61481578D01*
X146643422Y-61462991D01*
X146559757Y-61306466D01*
X146508237Y-61136627D01*
X146490841Y-60960000D01*
X146508237Y-60783373D01*
X146559757Y-60613534D01*
X146643422Y-60457009D01*
X146672752Y-60421271D01*
X146756014Y-60319814D01*
X146880125Y-60217960D01*
X146893209Y-60207222D01*
X147049734Y-60123557D01*
X147219573Y-60072037D01*
X147285758Y-60065518D01*
X147351940Y-60059000D01*
X147440460Y-60059000D01*
X147506642Y-60065518D01*
X147506642Y-60065518D01*
G37*
G36*
X142426642Y-60065518D02*
G01*
X142492827Y-60072037D01*
X142662666Y-60123557D01*
X142819191Y-60207222D01*
X142832275Y-60217960D01*
X142956386Y-60319814D01*
X143039648Y-60421271D01*
X143068978Y-60457009D01*
X143152643Y-60613534D01*
X143204163Y-60783373D01*
X143221559Y-60960000D01*
X143204163Y-61136627D01*
X143152643Y-61306466D01*
X143068978Y-61462991D01*
X143053724Y-61481578D01*
X142956386Y-61600186D01*
X142854929Y-61683448D01*
X142819191Y-61712778D01*
X142662666Y-61796443D01*
X142492827Y-61847963D01*
X142426643Y-61854481D01*
X142360460Y-61861000D01*
X142271940Y-61861000D01*
X142205757Y-61854481D01*
X142139573Y-61847963D01*
X141969734Y-61796443D01*
X141813209Y-61712778D01*
X141777471Y-61683448D01*
X141676014Y-61600186D01*
X141578676Y-61481578D01*
X141563422Y-61462991D01*
X141479757Y-61306466D01*
X141428237Y-61136627D01*
X141410841Y-60960000D01*
X141428237Y-60783373D01*
X141479757Y-60613534D01*
X141563422Y-60457009D01*
X141592752Y-60421271D01*
X141676014Y-60319814D01*
X141800125Y-60217960D01*
X141813209Y-60207222D01*
X141969734Y-60123557D01*
X142139573Y-60072037D01*
X142205758Y-60065518D01*
X142271940Y-60059000D01*
X142360460Y-60059000D01*
X142426642Y-60065518D01*
X142426642Y-60065518D01*
G37*
G36*
X144966642Y-60065518D02*
G01*
X145032827Y-60072037D01*
X145202666Y-60123557D01*
X145359191Y-60207222D01*
X145372275Y-60217960D01*
X145496386Y-60319814D01*
X145579648Y-60421271D01*
X145608978Y-60457009D01*
X145692643Y-60613534D01*
X145744163Y-60783373D01*
X145761559Y-60960000D01*
X145744163Y-61136627D01*
X145692643Y-61306466D01*
X145608978Y-61462991D01*
X145593724Y-61481578D01*
X145496386Y-61600186D01*
X145394929Y-61683448D01*
X145359191Y-61712778D01*
X145202666Y-61796443D01*
X145032827Y-61847963D01*
X144966643Y-61854481D01*
X144900460Y-61861000D01*
X144811940Y-61861000D01*
X144745757Y-61854481D01*
X144679573Y-61847963D01*
X144509734Y-61796443D01*
X144353209Y-61712778D01*
X144317471Y-61683448D01*
X144216014Y-61600186D01*
X144118676Y-61481578D01*
X144103422Y-61462991D01*
X144019757Y-61306466D01*
X143968237Y-61136627D01*
X143950841Y-60960000D01*
X143968237Y-60783373D01*
X144019757Y-60613534D01*
X144103422Y-60457009D01*
X144132752Y-60421271D01*
X144216014Y-60319814D01*
X144340125Y-60217960D01*
X144353209Y-60207222D01*
X144509734Y-60123557D01*
X144679573Y-60072037D01*
X144745758Y-60065518D01*
X144811940Y-60059000D01*
X144900460Y-60059000D01*
X144966642Y-60065518D01*
X144966642Y-60065518D01*
G37*
G36*
X162746642Y-60065518D02*
G01*
X162812827Y-60072037D01*
X162982666Y-60123557D01*
X163139191Y-60207222D01*
X163152275Y-60217960D01*
X163276386Y-60319814D01*
X163359648Y-60421271D01*
X163388978Y-60457009D01*
X163472643Y-60613534D01*
X163524163Y-60783373D01*
X163541559Y-60960000D01*
X163524163Y-61136627D01*
X163472643Y-61306466D01*
X163388978Y-61462991D01*
X163373724Y-61481578D01*
X163276386Y-61600186D01*
X163174929Y-61683448D01*
X163139191Y-61712778D01*
X162982666Y-61796443D01*
X162812827Y-61847963D01*
X162746643Y-61854481D01*
X162680460Y-61861000D01*
X162591940Y-61861000D01*
X162525757Y-61854481D01*
X162459573Y-61847963D01*
X162289734Y-61796443D01*
X162133209Y-61712778D01*
X162097471Y-61683448D01*
X161996014Y-61600186D01*
X161898676Y-61481578D01*
X161883422Y-61462991D01*
X161799757Y-61306466D01*
X161748237Y-61136627D01*
X161730841Y-60960000D01*
X161748237Y-60783373D01*
X161799757Y-60613534D01*
X161883422Y-60457009D01*
X161912752Y-60421271D01*
X161996014Y-60319814D01*
X162120125Y-60217960D01*
X162133209Y-60207222D01*
X162289734Y-60123557D01*
X162459573Y-60072037D01*
X162525758Y-60065518D01*
X162591940Y-60059000D01*
X162680460Y-60059000D01*
X162746642Y-60065518D01*
X162746642Y-60065518D01*
G37*
M02*
