M48
; DRILL file {KiCad (5.1.2)-1} date 2019/10/09 0:52:51
; FORMAT={3:3/ absolute / metric / suppress leading zeros}
; #@! TF.CreationDate,2019-10-09T00:52:51+09:00
; #@! TF.GenerationSoftware,Kicad,Pcbnew,(5.1.2)-1
FMAT,2
METRIC,TZ
T1C0.300
T2C0.400
T3C0.500
T4C0.800
T5C1.000
T6C3.200
%
G90
G05
T1
X7725Y-22973
X8098Y-22211
X8479Y-51421
X8606Y-12305
X8606Y-15734
X8670Y-35292
X8674Y-52310
X8733Y-18020
X9114Y-16496
X9495Y-27799
X9952Y-82155
X10019Y-95363
X10130Y-10400
X10206Y-40499
X10400Y-165975
X10511Y-165086
X10587Y-58181
X10587Y-76850
X10587Y-111111
X10587Y-145401
X10587Y-149084
X10587Y-160895
X10781Y-140321
X10892Y-118350
X11019Y-9511
X11079Y-86600
X11146Y-49643
X11146Y-67931
X11146Y-104380
X11333Y-117715
X11341Y-113270
X11394Y-122795
X11527Y-119044
X11721Y-104888
X11781Y-49770
X11781Y-86473
X11781Y-161276
X11797Y-148703
X11797Y-150227
X11818Y-67816
X11908Y-11543
X11908Y-12559
X11908Y-26529
X11908Y-119620
X11908Y-139305
X12051Y-165848
X12289Y-58025
X12289Y-76567
X12289Y-94982
X12305Y-153910
X12543Y-122795
X12559Y-52818
X12559Y-159244
X12670Y-12940
X12670Y-116191
X12670Y-129018
X12797Y-58406
X12797Y-76948
X12797Y-95363
X12924Y-120128
X12940Y-161022
X12940Y-164773
X13067Y-144131
X13067Y-151116
X13119Y-120724
X13194Y-40372
X13238Y-86600
X13238Y-67864
X13245Y-104761
X13305Y-8749
X13432Y-12686
X13492Y-41261
X13559Y-77710
X13642Y-49770
X13686Y-11289
X13813Y-59295
X13940Y-123049
X13956Y-138416
X14067Y-128577
X14067Y-139746
X14126Y-116445
X14155Y-77904
X14321Y-12940
X14321Y-148957
X14337Y-40245
X14337Y-161022
X14464Y-30593
X14464Y-33514
X14464Y-95490
X14575Y-67804
X14591Y-59930
X14591Y-96506
X14591Y-137781
X14632Y-11727
X14651Y-41206
X14651Y-86346
X14845Y-27545
X14972Y-121398
X15016Y-104761
X15075Y-49516
X15083Y-9257
X15083Y-12813
X15151Y-125843
X15151Y-128197
X15210Y-122414
X15226Y-138289
X15270Y-116191
X15270Y-120128
X15353Y-145528
X15353Y-152005
X15591Y-161149
X15607Y-140708
X15607Y-138797
X15707Y-35646
X15734Y-27418
X16099Y-26656
X16369Y-86092
X16418Y-120317
X16421Y-125462
X16540Y-49389
X16540Y-67931
X16540Y-104507
X16540Y-122783
X16607Y-116191
X16623Y-128129
X16623Y-144131
X16693Y-140439
X16734Y-12813
X16734Y-119620
X16817Y-139746
X16861Y-9765
X16861Y-26529
X16861Y-161149
X16877Y-150735
X16883Y-148785
X16934Y-29393
X17131Y-77837
X17325Y-73519
X17385Y-49643
X17496Y-11289
X17496Y-12940
X17623Y-67423
X17623Y-86219
X17623Y-92061
X17623Y-96760
X17623Y-104634
X17750Y-117969
X17750Y-36816
X17750Y-41261
X17750Y-54977
X17750Y-59803
X17750Y-119493
X17810Y-113441
X17815Y-111173
X17877Y-29450
X18020Y-34657
X18131Y-68058
X18147Y-49643
X18147Y-138797
X18207Y-148636
X18258Y-11603
X18258Y-12940
X18258Y-104761
X18309Y-26606
X18528Y-140321
X18639Y-71741
X18655Y-86346
X18655Y-144258
X18909Y-126224
X19020Y-113524
X19080Y-71231
X19087Y-27672
X19147Y-26647
X19163Y-127875
X19290Y-111492
X19334Y-70628
X19401Y-117910
X19544Y-154545
X19588Y-52691
X19655Y-61454
X19671Y-86346
X19671Y-160133
X19798Y-140321
X19909Y-26529
X19909Y-89267
X20036Y-67804
X20163Y-71801
X20163Y-76694
X20163Y-91934
X20163Y-104761
X20223Y-55104
X20350Y-49516
X20350Y-51929
X20350Y-36705
X20350Y-40515
X20417Y-28113
X20544Y-12051
X21068Y-25132
X21298Y-28113
X21302Y-35161
X21306Y-52251
X21433Y-37070
X21433Y-46214
X21433Y-54977
X21433Y-62089
X21433Y-67423
X21433Y-71166
X21433Y-76821
X21576Y-113143
X21687Y-12940
X22068Y-52251
X22211Y-115556
X22211Y-129145
X22254Y-120974
X22576Y-70852
X22678Y-46314
X22703Y-53199
X22703Y-58279
X22703Y-62530
X22703Y-67550
X22703Y-76694
X22703Y-83044
X22830Y-15734
X22897Y-28815
X22973Y-121525
X23017Y-16623
X23338Y-35800
X23338Y-45833
X23398Y-17395
X23457Y-22973
X23465Y-27291
X23465Y-63105
X23481Y-91807
X23535Y-22268
X23608Y-129272
X23658Y-36733
X23778Y-18147
X23862Y-88505
X23862Y-122261
X23862Y-125462
X23897Y-23862
X23973Y-95109
X23973Y-101586
X24026Y-27011
X24100Y-91045
X24116Y-99681
X24160Y-52251
X24160Y-54977
X24160Y-61526
X24160Y-67550
X24160Y-76567
X24167Y-36368
X24227Y-18655
X24243Y-71868
X24243Y-160514
X24591Y-61981
X24608Y-62724
X24878Y-116318
X25108Y-53072
X25132Y-120509
X25243Y-92061
X25259Y-137400
X25295Y-54957
X25370Y-160514
X25386Y-165975
X25513Y-116953
X25513Y-145528
X25513Y-149084
X25640Y-82536
X25751Y-80123
X25767Y-76694
X25767Y-113143
X25767Y-151811
X26021Y-72630
X26021Y-91045
X26061Y-166543
X26132Y-41388
X26216Y-167186
X26259Y-155180
X26275Y-22084
X26275Y-71995
X26335Y-118858
X26335Y-122668
X26335Y-128002
X26386Y-99300
X26386Y-116191
X26453Y-34784
X26656Y-160387
X26656Y-164578
X26783Y-137019
X26783Y-149084
X26894Y-12178
X27021Y-88632
X27148Y-89521
X27529Y-122668
X27529Y-128637
X27529Y-167753
X27612Y-35800
X27738Y-12399
X27783Y-116318
X27783Y-119366
X27783Y-140702
X27910Y-23608
X27926Y-137527
X27926Y-150100
X27926Y-164070
X27970Y-40626
X28037Y-148830
X28037Y-165467
X28053Y-34530
X28164Y-13194
X28180Y-39991
X28561Y-51421
X28561Y-73773
X28688Y-137781
X28815Y-120890
X28926Y-116064
X28926Y-123049
X28926Y-166670
X29053Y-163816
X29196Y-151370
X29196Y-155434
X29434Y-149211
X29450Y-129018
X30085Y-121144
X30136Y-120061
X30196Y-123049
X30196Y-167178
X30212Y-151370
X30267Y-116263
X30406Y-159117
X30450Y-129145
X30577Y-148957
X30593Y-137527
X30593Y-140575
X30914Y-145401
X30974Y-165340
X31332Y-111178
X31462Y-119497
X31466Y-116064
X31466Y-117469
X31466Y-125716
X31482Y-137908
X31593Y-129145
X31736Y-111746
X31847Y-140575
X31923Y-160641
X31990Y-168261
X32057Y-118367
X32101Y-39483
X32101Y-57644
X32101Y-76186
X32101Y-94855
X32117Y-152513
X32244Y-129145
X32371Y-137781
X32736Y-148957
X32752Y-116318
X32863Y-117715
X32990Y-52886
X33006Y-150735
X33006Y-155561
X33117Y-76567
X33260Y-80123
X33371Y-39610
X33371Y-46595
X33371Y-48881
X33371Y-57898
X33498Y-168701
X33514Y-54977
X33514Y-110476
X33574Y-21576
X33574Y-28815
X33768Y-132701
X34006Y-27545
X34006Y-99173
X34201Y-28815
X34260Y-144131
X34276Y-113270
X34387Y-30085
X34403Y-115429
X34514Y-21449
X34641Y-35419
X34641Y-42658
X34641Y-44690
X34641Y-51929
X34641Y-54020
X34641Y-61073
X34641Y-76694
X34641Y-81647
X34641Y-33641
X34768Y-27545
X34768Y-62283
X34911Y-162546
X35038Y-149592
X35673Y-16115
X35987Y-24243
X35987Y-29069
X35987Y-33387
X35987Y-35673
X35987Y-42912
X35987Y-44944
X35987Y-51675
X35987Y-54469
X35987Y-61200
X35987Y-62791
X35987Y-67296
X35987Y-71360
X35987Y-76440
X36054Y-138797
X36302Y-137917
X36419Y-28180
X36689Y-73265
X36800Y-54910
X36868Y-24269
X36927Y-67042
X37010Y-76059
X37054Y-21322
X37181Y-39864
X37197Y-64502
X37264Y-46147
X37264Y-48627
X37435Y-57771
X37689Y-17131
X37705Y-38594
X37749Y-121652
X37749Y-125843
X37756Y-81393
X37816Y-137976
X38026Y-29069
X38324Y-58025
X38340Y-133463
X38387Y-64375
X38387Y-67296
X38400Y-81207
X38451Y-39864
X38451Y-94982
X38511Y-49008
X38518Y-76313
X38578Y-14210
X38578Y-44817
X38589Y-125970
X38594Y-113397
X38594Y-159498
X38637Y-85584
X38721Y-16369
X38721Y-153529
X39162Y-71614
X39213Y-34911
X39356Y-101586
X39483Y-121652
X39594Y-35927
X39610Y-133463
X39610Y-137019
X39610Y-145909
X39610Y-152894
X39721Y-33514
X39721Y-42912
X39721Y-45706
X39721Y-51802
X39721Y-53774
X39721Y-58152
X39721Y-61962
X39721Y-76440
X39721Y-80885
X39721Y-85584
X39721Y-89013
X39721Y-94982
X39721Y-98665
X39737Y-73773
X39737Y-132574
X39796Y-131685
X39864Y-55612
X39932Y-160514
X39975Y-120061
X39991Y-113016
X39991Y-151370
X40102Y-122922
X40185Y-155815
X40229Y-169277
X40499Y-74408
X40737Y-72122
X40864Y-91426
X40864Y-128256
X40864Y-133463
X40991Y-30466
X40991Y-34149
X40991Y-36308
X40991Y-39610
X40991Y-45833
X40991Y-48881
X40991Y-53326
X40991Y-70217
X40991Y-76567
X40991Y-88632
X40991Y-92188
X40991Y-94982
X40991Y-137976
X40991Y-143369
X41067Y-146036
X41118Y-72884
X41118Y-119874
X41134Y-55612
X41134Y-61200
X41245Y-164899
X41372Y-122795
X41388Y-127748
X41499Y-160641
X41642Y-17385
X41642Y-29577
X41753Y-35673
X41753Y-117655
X41880Y-131939
X41896Y-169785
X41896Y-54910
X41896Y-113016
X42007Y-85584
X42007Y-94347
X42023Y-138797
X42023Y-151370
X42150Y-61200
X42150Y-133463
X42261Y-17512
X42261Y-30339
X42261Y-39610
X42261Y-48754
X42261Y-67296
X42261Y-71868
X42261Y-73138
X42261Y-143242
X42277Y-63613
X42277Y-146036
X42277Y-148830
X42291Y-117977
X42388Y-76567
X42404Y-119112
X42599Y-122670
X42658Y-163816
X42702Y-39102
X42702Y-159879
X42785Y-55104
X42785Y-62724
X42979Y-84441
X43023Y-16822
X43023Y-45833
X43039Y-151811
X43150Y-18401
X43404Y-131558
X43420Y-118350
X43420Y-133463
X43420Y-159312
X43531Y-140702
X43547Y-48754
X43547Y-62343
X43547Y-70471
X43547Y-122795
X43547Y-137781
X43547Y-148703
X43590Y-88886
X43674Y-30339
X44055Y-118731
X44055Y-155688
X44309Y-33641
X44309Y-164011
X44674Y-53707
X44674Y-128256
X44674Y-131812
X44690Y-102602
X44690Y-107174
X44690Y-118028
X44690Y-133209
X44690Y-140575
X44695Y-158736
X44817Y-146036
X44817Y-148957
X44885Y-137527
X45055Y-69963
X45133Y-163688
X45138Y-54155
X45182Y-77329
X45182Y-111178
X45182Y-113524
X45198Y-120382
X45198Y-122922
X45279Y-160214
X45309Y-53453
X45309Y-155561
X45496Y-68947
X45690Y-99300
X45690Y-128256
X45833Y-73646
X45841Y-131700
X45944Y-163689
X46071Y-68566
X46087Y-30593
X46130Y-152961
X46130Y-143496
X46130Y-145909
X46341Y-127748
X46452Y-113397
X46468Y-111365
X46579Y-155815
X46595Y-58660
X46595Y-73138
X46595Y-78083
X46722Y-66915
X46722Y-131558
X46722Y-138797
X46722Y-153910
X46849Y-20814
X46849Y-126224
X46849Y-137527
X46960Y-129780
X46976Y-36943
X46976Y-110984
X47103Y-22592
X47230Y-143369
X47290Y-62792
X47357Y-59676
X47468Y-47357
X47468Y-50024
X47611Y-51675
X47611Y-129018
X47849Y-57263
X47865Y-130669
X47865Y-133463
X47865Y-135368
X47865Y-157720
X47976Y-46087
X47976Y-49516
X48119Y-151370
X48373Y-58406
X48373Y-63673
X48484Y-57263
X48500Y-51675
X48611Y-26910
X48611Y-82087
X48865Y-65518
X48865Y-66788
X49052Y-44817
X49246Y-49770
X49373Y-81647
X49389Y-38340
X49500Y-88124
X50151Y-78599
X50151Y-88378
X50643Y-49643
X50643Y-80123
X50659Y-60819
X50786Y-149084
X50897Y-88378
X50913Y-144639
X50913Y-162546
X51167Y-155180
X51294Y-160895
X51532Y-84314
X51532Y-87997
X51802Y-60819
X51802Y-165526
X52310Y-123811
X52564Y-138035
X52623Y-134477
X52691Y-165848
X53072Y-159625
X53199Y-166991
X53453Y-155688
X53580Y-138289
X53834Y-161403
X53939Y-152626
X54215Y-155434
X54707Y-161419
X54723Y-164832
X55104Y-153021
X55357Y-161404
X55512Y-166700
X55612Y-12940
X55612Y-14210
X55612Y-59676
X55612Y-70598
X55739Y-15988
X55739Y-17258
X55739Y-18528
X55739Y-19798
X55739Y-74408
X55993Y-153596
X56007Y-161516
X56120Y-63250
X56194Y-62369
X56358Y-70471
X56358Y-75424
X56374Y-59168
X56755Y-153910
X56865Y-58457
X56882Y-62216
X56993Y-13575
X56993Y-74154
X57136Y-11289
X57247Y-71868
X57263Y-12305
X57390Y-15353
X57517Y-16623
X57517Y-19163
X57517Y-20433
X57578Y-70662
X57644Y-17893
X57771Y-161784
X57882Y-10146
X57898Y-61200
X57898Y-163054
X58025Y-65518
X58390Y-8241
X58390Y-50405
X58406Y-159752
X58533Y-162098
X58914Y-73646
X59025Y-64756
X59025Y-8622
X59130Y-50546
X59295Y-159625
X59295Y-162546
X59466Y-9183
X59549Y-83298
X59660Y-50211
X59803Y-55485
X59940Y-50771
X60041Y-64502
X60080Y-9444
X60184Y-51362
X60311Y-39737
X60422Y-23227
X60549Y-61708
X60565Y-16496
X60692Y-52310
X60930Y-50211
X61057Y-9698
X61438Y-64629
X61565Y-39991
X61692Y-13702
X61692Y-15226
X61692Y-33895
X61692Y-34784
X61708Y-87362
X61819Y-50913
X61819Y-61708
X62089Y-73519
X62394Y-17627
X62394Y-20052
X62649Y-59041
X62724Y-140448
X62835Y-13829
X62835Y-15353
X62835Y-34022
X62835Y-35225
X62835Y-40118
X62962Y-50786
X62978Y-67804
X63089Y-61708
X63105Y-64756
X63665Y-18068
X63665Y-20179
X63807Y-50211
X63994Y-116513
X64105Y-13956
X64105Y-33895
X64105Y-39991
X64232Y-35478
X64359Y-61708
X64375Y-63232
X64375Y-64883
X64502Y-14972
X64502Y-67931
X64754Y-68505
X64756Y-103618
X64756Y-118477
X64756Y-129653
X64756Y-151624
X64867Y-82790
X64935Y-18508
X64935Y-20306
X65248Y-39991
X65264Y-80123
X65375Y-13829
X65375Y-33641
X65375Y-61835
X65502Y-141591
X65502Y-148068
X65705Y-64629
X65772Y-14591
X65823Y-130034
X65899Y-55739
X66010Y-82917
X66010Y-104380
X66010Y-145655
X66010Y-151751
X66108Y-140355
X66166Y-139730
X66197Y-19290
X66197Y-30085
X66205Y-20179
X66264Y-147179
X66451Y-149877
X66518Y-39991
X66518Y-140829
X66518Y-142099
X66534Y-64502
X66645Y-14083
X66645Y-15921
X66645Y-33768
X66899Y-128764
X66915Y-61581
X67026Y-147687
X67042Y-53326
X67169Y-67550
X67221Y-82663
X67280Y-76948
X67280Y-151624
X67340Y-30145
X67347Y-104253
X67423Y-98665
X67474Y-18401
X67474Y-20052
X67495Y-141081
X67534Y-145782
X67661Y-35800
X67661Y-149779
X67697Y-124724
X67788Y-16242
X67915Y-13956
X67915Y-33641
X67915Y-39864
X68058Y-61581
X68058Y-68058
X68058Y-98538
X68169Y-146290
X68229Y-125095
X68296Y-30145
X68296Y-148068
X68379Y-77082
X68483Y-82917
X68550Y-130161
X68550Y-151878
X68630Y-140938
X68677Y-128764
X68737Y-104253
X68931Y-146671
X68931Y-150033
X68998Y-76986
X69061Y-139499
X69066Y-98539
X69185Y-13829
X69185Y-16429
X69185Y-33641
X69185Y-39991
X69364Y-124446
X69566Y-148195
X69566Y-151497
X69582Y-61454
X69623Y-103815
X69820Y-76440
X69820Y-98030
X69820Y-141591
X69820Y-145655
X69880Y-82790
X70038Y-129458
X70134Y-30720
X70201Y-146417
X70201Y-150287
X70226Y-125209
X70328Y-39864
X70455Y-13956
X70455Y-33895
X70582Y-16683
X70598Y-51802
X70709Y-76948
X70834Y-124542
X70836Y-98411
X70836Y-145782
X70963Y-82917
X70963Y-151751
X71090Y-148262
X71158Y-125911
X71233Y-36943
X71233Y-72884
X71284Y-104126
X71598Y-76948
X71598Y-145782
X71598Y-150541
X71602Y-126355
X71927Y-98411
X71979Y-124319
X71995Y-27418
X71995Y-53072
X72106Y-148516
X72106Y-151624
X72278Y-94855
X72300Y-125208
X72376Y-26402
X72419Y-82917
X72419Y-104253
X72503Y-29069
X72554Y-98411
X72677Y-127494
X72741Y-145857
X72808Y-120001
X72868Y-77075
X72868Y-150795
X73094Y-55529
X73122Y-142286
X73392Y-59168
X73392Y-64186
X73558Y-127240
X73630Y-82917
X73630Y-151894
X73944Y-103872
X73944Y-126538
X74011Y-76948
X74197Y-125208
X74206Y-127120
X74408Y-93204
X74408Y-102094
X74459Y-151049
X74646Y-104253
X74662Y-99427
X74709Y-142417
X74789Y-59041
X74900Y-83044
X75027Y-145909
X75157Y-128502
X75170Y-151878
X75468Y-127367
X75678Y-21195
X75916Y-125208
X75932Y-62343
X75932Y-64121
X76186Y-27037
X76551Y-128958
X77075Y-159879
X77202Y-59168
X77202Y-62724
X77456Y-120255
X77567Y-129332
X77583Y-143369
X77837Y-67931
X77837Y-122287
X77948Y-124573
X78218Y-73265
X78599Y-12051
X78599Y-21195
X79361Y-27291
X79742Y-59168
X79742Y-62470
X80361Y-50719
X80488Y-39864
X80615Y-23227
X80631Y-29069
X80996Y-14278
X81012Y-59168
X81139Y-52432
X81266Y-152640
X81393Y-145020
X81647Y-19925
X81774Y-39610
X81885Y-6717
X81885Y-13829
X81885Y-15674
X81885Y-33895
X82012Y-35987
X82536Y-51548
X82536Y-56247
X82663Y-62470
X82707Y-19417
X82707Y-20179
X82917Y-80123
X83044Y-78158
X83155Y-6463
X83155Y-13829
X83155Y-15674
X83155Y-33641
X83155Y-36435
X83155Y-39864
X83155Y-86219
X83171Y-151497
X83171Y-154926
X83298Y-107301
X83425Y-129780
X83552Y-118477
X83679Y-116445
X83933Y-53072
X84425Y-13829
X84425Y-15540
X84425Y-33768
X84425Y-39991
X84425Y-104253
X84524Y-55529
X84552Y-6336
X84552Y-36943
X84552Y-83044
X84552Y-130161
X84552Y-151878
X84568Y-54215
X84806Y-145782
X84806Y-100951
X84806Y-101713
X84993Y-116191
X85060Y-102983
X85187Y-76821
X85302Y-102184
X85568Y-104126
X85568Y-115175
X85568Y-130034
X85695Y-13702
X85695Y-14897
X85695Y-33641
X85695Y-37384
X85695Y-39864
X85695Y-151751
X85763Y-82536
X85822Y-114413
X85949Y-6336
X86076Y-145655
X86182Y-98350
X86203Y-115810
X86271Y-124457
X86397Y-129907
X86584Y-142353
X86644Y-120255
X86711Y-103872
X86778Y-98157
X86795Y-76975
X86838Y-37638
X86838Y-39864
X86965Y-13956
X86965Y-15099
X86965Y-33768
X86965Y-151751
X86977Y-124302
X87032Y-100824
X87185Y-61453
X87219Y-72503
X87235Y-82536
X87235Y-94474
X87346Y-6082
X87346Y-145528
X87413Y-76875
X87473Y-98411
X87600Y-14897
X87727Y-124827
X87787Y-20112
X87981Y-103043
X88235Y-13956
X88235Y-15151
X88235Y-33895
X88235Y-39864
X88235Y-98284
X88302Y-130161
X88362Y-76567
X88362Y-145528
X88362Y-151751
X88378Y-64883
X88378Y-37959
X88422Y-82917
X88489Y-116639
X88525Y-104293
X88563Y-114615
X88743Y-6209
X88774Y-115750
X88870Y-15151
X88938Y-124156
X89057Y-20239
X89184Y-113905
X89251Y-76821
X89251Y-100570
X89267Y-151624
X89378Y-145655
X89466Y-124495
X89505Y-68646
X89505Y-39229
X89505Y-13956
X89505Y-15405
X89505Y-33768
X89517Y-62216
X89565Y-82790
X89565Y-93458
X89632Y-98538
X89660Y-104206
X89692Y-130288
X89886Y-6082
X89953Y-124019
X89984Y-69080
X90140Y-77075
X90140Y-145655
X90156Y-151751
X90208Y-61298
X90267Y-98284
X90267Y-15405
X90327Y-20239
X90334Y-92696
X90521Y-69403
X90602Y-62343
X90648Y-39737
X90775Y-13829
X90775Y-15861
X90775Y-33895
X90829Y-94674
X91029Y-53199
X91029Y-77075
X91029Y-124700
X91172Y-81901
X91216Y-130161
X91245Y-145588
X91283Y-57390
X91283Y-99046
X91399Y-100429
X91410Y-6082
X91503Y-93713
X91664Y-53199
X91776Y-103297
X91791Y-77202
X91791Y-94855
X91807Y-146036
X91891Y-57542
X91918Y-92883
X91940Y-99127
X92045Y-120636
X92045Y-142480
X92105Y-101450
X92224Y-82917
X92299Y-52945
X92315Y-70662
X92426Y-61454
X92468Y-57789
X92553Y-130034
X92569Y-17706
X92605Y-104102
X92700Y-145907
X92739Y-92890
X92740Y-69201
X92867Y-98345
X92934Y-23100
X93061Y-50278
X93061Y-53199
X93077Y-129145
X93136Y-104435
X93204Y-151497
X93212Y-57703
X93391Y-40427
X93442Y-82917
X93569Y-16115
X93585Y-28053
X93585Y-29190
X93585Y-50913
X93823Y-26021
X93835Y-94160
X93839Y-98411
X94077Y-13067
X94093Y-28815
X94220Y-41261
X94220Y-124446
X94243Y-16589
X94347Y-38975
X94474Y-27545
X94474Y-129653
X94474Y-136892
X94474Y-151751
X94475Y-113649
X94585Y-30653
X94585Y-112254
X94585Y-138924
X94712Y-114286
X94839Y-17258
X94839Y-112889
X94855Y-98157
X94863Y-19103
X94982Y-38594
X94982Y-40118
X95093Y-29069
X95097Y-14845
X95160Y-141972
X95160Y-134151
X95220Y-108698
X95236Y-11924
X95236Y-59041
X95279Y-26275
X95347Y-13448
X95363Y-91807
X95474Y-145782
X95597Y-15223
X95728Y-17258
X95728Y-95363
X95728Y-108063
X95743Y-19357
X95800Y-20747
X95982Y-29831
X95990Y-114368
X95998Y-91680
X96038Y-115391
X96066Y-129209
X96109Y-133717
X96109Y-107301
X96176Y-25259
X96236Y-13702
X96236Y-109460
X96236Y-134606
X96456Y-144482
X96478Y-15299
X96490Y-18214
X96490Y-128383
X96490Y-135241
X96586Y-9718
X96617Y-12373
X96617Y-114381
X96617Y-138670
X96652Y-115262
X96677Y-29390
X96684Y-27672
X96744Y-19417
X96744Y-119045
X96760Y-39483
X96871Y-155434
X96887Y-69455
X96897Y-145655
X96906Y-149515
X97014Y-53453
X97125Y-109460
X97252Y-115937
X97325Y-15674
X97337Y-145182
X97367Y-147590
X97379Y-36689
X97395Y-21195
X97395Y-97903
X97522Y-10400
X97522Y-59041
X97533Y-149526
X97633Y-118731
X97711Y-155074
X97760Y-119431
X97878Y-21703
X97903Y-105015
X97958Y-145267
X98006Y-35941
X98014Y-115937
X98059Y-154552
X98073Y-144471
X98141Y-71995
X98141Y-76567
X98141Y-109714
X98156Y-149458
X98157Y-25259
X98157Y-156196
X98161Y-164197
X98284Y-79869
X98387Y-119457
X98395Y-33387
X98411Y-14845
X98423Y-29537
X98455Y-120128
X98538Y-39102
X98538Y-70408
X98542Y-154152
X98674Y-144708
X98747Y-86325
X98776Y-149846
X98874Y-35935
X98895Y-120890
X98903Y-150481
X98919Y-96633
X98919Y-164638
X98958Y-42023
X98965Y-26558
X99030Y-123557
X99030Y-36816
X99030Y-121652
X99030Y-154545
X99046Y-156831
X99093Y-144241
X99173Y-88886
X99300Y-103999
X99300Y-111238
X99343Y-81393
X99367Y-86413
X99367Y-131812
X99427Y-70344
X99427Y-109714
X99538Y-33006
X99621Y-132853
X99665Y-164197
X99681Y-68566
X99681Y-115937
X99681Y-119620
X99688Y-153870
X99719Y-144278
X99808Y-40245
X99875Y-73138
X99919Y-149973
X99935Y-83044
X99975Y-114246
X100046Y-36181
X100062Y-52437
X100062Y-71487
X100062Y-138986
X100134Y-37024
X100248Y-50913
X100316Y-51675
X100383Y-151243
X100383Y-150481
X100383Y-153290
X100383Y-154003
X100383Y-156517
X100443Y-23160
X100443Y-78218
X100623Y-138661
X100630Y-168963
X100697Y-20500
X100951Y-164578
X101062Y-32371
X101078Y-18401
X101078Y-62216
X101189Y-46849
X101189Y-63486
X101586Y-15480
X101951Y-43293
X101951Y-63486
X101967Y-21830
X102197Y-35935
X102221Y-12051
X102221Y-25508
X102332Y-42150
X102332Y-74535
X102392Y-53453
X102399Y-43801
X102459Y-29510
X102459Y-39991
X102459Y-46976
X102459Y-60692
X102459Y-64248
X102459Y-67677
X102516Y-62851
X102586Y-42785
X102856Y-144893
X102967Y-34784
X102983Y-135876
X103094Y-74662
X103110Y-80123
X103124Y-62503
X103237Y-41896
X103348Y-19992
X103348Y-53767
X103348Y-31990
X103364Y-98284
X103364Y-112254
X103364Y-18147
X103374Y-63440
X103423Y-28628
X103475Y-12051
X103475Y-25513
X103602Y-36435
X103729Y-47103
X103729Y-60692
X103729Y-67677
X103745Y-15480
X103977Y-74922
X104110Y-34784
X104110Y-42912
X104126Y-79234
X104126Y-148195
X104364Y-63994
X104507Y-22973
X104507Y-85711
X104634Y-109333
X104675Y-35762
X104761Y-115810
X104761Y-144639
X104761Y-159752
X104802Y-74719
X104821Y-18147
X104872Y-43293
X104999Y-40118
X104999Y-60946
X104999Y-64435
X105007Y-148354
X105142Y-86152
X105142Y-131177
X105253Y-54021
X105269Y-98284
X105284Y-141677
X105380Y-67677
X105396Y-124827
X105440Y-46849
X105523Y-79107
X105630Y-28122
X105650Y-62073
X105650Y-86600
X105777Y-159625
X105879Y-149476
X105884Y-131197
X105888Y-29704
X105888Y-34590
X105888Y-144639
X105904Y-89648
X105904Y-95871
X105904Y-98986
X105904Y-102475
X105904Y-105142
X105904Y-138162
X106015Y-18401
X106015Y-19738
X106142Y-54342
X106269Y-39991
X106269Y-41710
X106269Y-43039
X106269Y-46976
X106269Y-60692
X106269Y-62978
X106269Y-67804
X106269Y-125462
X106285Y-108952
X106285Y-112254
X106412Y-161657
X106539Y-86668
X106650Y-19544
X106650Y-74475
X106666Y-78980
X106666Y-106031
X106722Y-148642
X106822Y-62514
X106904Y-108003
X107047Y-159625
X107114Y-138162
X107114Y-144385
X107129Y-134340
X107158Y-29704
X107158Y-96125
X107158Y-98919
X107158Y-102983
X107158Y-105015
X107158Y-109333
X107158Y-124700
X107158Y-131050
X107158Y-133650
X107285Y-12305
X107301Y-162546
X107412Y-27740
X107412Y-54596
X107428Y-62978
X107428Y-88759
X107539Y-19671
X107539Y-39864
X107539Y-46976
X107539Y-60565
X107539Y-67677
X107555Y-149338
X107575Y-42904
X107596Y-141450
X107682Y-18468
X107682Y-121652
X107809Y-41769
X107809Y-108003
X107936Y-133717
X108063Y-12305
X108174Y-64121
X108248Y-105116
X108301Y-74535
X108301Y-95871
X108301Y-98868
X108317Y-19544
X108317Y-79107
X108317Y-112127
X108317Y-159752
X108368Y-36453
X108368Y-43166
X108428Y-25386
X108428Y-89775
X108428Y-109206
X108444Y-86600
X108503Y-149211
X108555Y-18274
X108555Y-29704
X108555Y-46849
X108555Y-92255
X108571Y-128256
X108571Y-131812
X108571Y-144512
X108682Y-27291
X108682Y-54783
X108698Y-107174
X108698Y-129145
X108809Y-40118
X108809Y-60819
X108809Y-67677
X108824Y-42210
X108825Y-62470
X108825Y-102856
X108936Y-94728
X108952Y-115810
X109063Y-34590
X109079Y-89140
X109178Y-19059
X109206Y-92442
X109206Y-113778
X109257Y-145401
X109265Y-127316
X109431Y-20627
X109443Y-94280
X109460Y-161094
X109460Y-162419
X109464Y-86659
X109587Y-159752
X109698Y-89775
X109698Y-98157
X109698Y-102983
X109698Y-109349
X109698Y-124827
X109698Y-129145
X109698Y-138162
X109698Y-144512
X109714Y-79107
X109825Y-25386
X109825Y-74475
X109830Y-127043
X109841Y-62978
X109952Y-92883
X110079Y-39991
X110079Y-46849
X110079Y-55231
X110079Y-60946
X110079Y-67677
X110095Y-42023
X110095Y-148195
X110104Y-19009
X110206Y-34470
X110222Y-12686
X110460Y-42912
X110519Y-64121
X110587Y-74094
X110592Y-139451
X110603Y-136043
X110730Y-159752
X110730Y-162038
X110841Y-100189
X110857Y-31863
X110968Y-89775
X110968Y-92883
X110968Y-96125
X110968Y-124954
X110968Y-129137
X110968Y-138035
X110968Y-142607
X111035Y-114667
X111035Y-126605
X111095Y-109333
X111111Y-22338
X111111Y-140829
X111238Y-131685
X111259Y-88198
X111349Y-40118
X111349Y-46849
X111349Y-60819
X111349Y-67677
X111409Y-42207
X111409Y-43547
X111476Y-55291
X111730Y-114219
X111790Y-62089
X111813Y-116191
X111820Y-88479
X111857Y-36562
X112000Y-84060
X112000Y-114794
X112000Y-158482
X112000Y-159752
X112127Y-79869
X112127Y-122795
X112238Y-89902
X112238Y-102856
X112254Y-41642
X112254Y-71995
X112381Y-77837
X112381Y-88759
X112508Y-49262
X112508Y-111873
X112508Y-135495
X112619Y-72630
X112635Y-128510
X112762Y-51929
X112889Y-120636
X113143Y-88699
X113143Y-143496
X113270Y-50913
X113651Y-70471
X113905Y-32117
X114395Y-53123
X114413Y-22338
X114413Y-26275
X114651Y-46722
X114667Y-12559
X114794Y-86727
X114890Y-82282
X115021Y-53153
X115048Y-79488
X115159Y-47162
X115175Y-81012
X115302Y-169404
X115360Y-53681
X115402Y-86574
X115429Y-18401
X115429Y-143369
X115556Y-97014
X115556Y-144385
X115556Y-162038
X115683Y-15988
X115683Y-81520
X115683Y-92823
X115683Y-121906
X115810Y-29450
X115810Y-79615
X115810Y-131685
X115838Y-86123
X115881Y-47063
X115937Y-106539
X116016Y-53521
X116112Y-47646
X116175Y-160641
X116191Y-36689
X116191Y-77456
X116191Y-135495
X116302Y-18222
X116302Y-31863
X116302Y-19865
X116314Y-54073
X116318Y-80631
X116318Y-85584
X116429Y-25513
X116429Y-28501
X116429Y-33514
X116699Y-12178
X116731Y-47770
X116826Y-162038
X116937Y-53707
X117064Y-59295
X117080Y-37070
X117157Y-57124
X117191Y-48246
X117191Y-54342
X117207Y-78339
X117318Y-20119
X117445Y-18274
X117461Y-33260
X117461Y-87743
X117572Y-25513
X117588Y-96127
X117726Y-59482
X117749Y-57330
X117826Y-12178
X117842Y-165086
X117852Y-48545
X117953Y-54215
X117969Y-99300
X117969Y-109206
X117969Y-128764
X117969Y-144580
X118068Y-33417
X118096Y-140575
X118156Y-102666
X118223Y-169404
X118231Y-28195
X118334Y-59736
X118376Y-57330
X118477Y-48500
X118588Y-32625
X118715Y-29704
X118731Y-160514
X118842Y-14658
X118858Y-83679
X118858Y-92061
X118979Y-95496
X118985Y-18274
X118985Y-18909
X118985Y-12051
X118997Y-57241
X119096Y-59990
X119112Y-28053
X119112Y-124954
X119223Y-144512
X119223Y-148957
X119239Y-128891
X119239Y-135876
X119239Y-138356
X119239Y-162292
X119493Y-14718
X119601Y-57515
X119604Y-60438
X119620Y-91934
X119620Y-160387
X119715Y-18369
X119747Y-55358
X119874Y-78345
X119874Y-121525
X120001Y-80885
X120112Y-57878
X120128Y-70471
X120128Y-149906
X120239Y-60946
X120255Y-19104
X120382Y-13829
X120382Y-101713
X120382Y-125081
X120382Y-162292
X120449Y-134665
X120449Y-138162
X120449Y-140702
X120449Y-144512
X120493Y-102983
X120509Y-14591
X120636Y-112254
X120734Y-57956
X120874Y-60946
X120890Y-78091
X120890Y-81647
X121083Y-100780
X121144Y-149465
X121223Y-58348
X121255Y-25386
X121271Y-101959
X121382Y-16226
X121398Y-160260
X121499Y-19110
X121509Y-61200
X121525Y-93331
X121525Y-140321
X121636Y-109079
X121763Y-103110
X121763Y-144639
X121779Y-169150
X122033Y-25386
X122033Y-121525
X122160Y-78218
X122160Y-95363
X122160Y-99681
X122160Y-101713
X122287Y-81072
X122414Y-95998
X122414Y-140448
X122668Y-53580
X122668Y-83679
X122668Y-113270
X122668Y-139559
X122668Y-144639
X122906Y-101137
X122906Y-126283
X123033Y-41642
X123033Y-92315
X123033Y-103237
X123033Y-109206
X123033Y-124827
X123033Y-138289
X123041Y-99927
X123160Y-45900
X123176Y-55104
X123176Y-18274
X123232Y-119747
X123470Y-78336
X123557Y-86854
X123684Y-139559
X123684Y-142607
X123922Y-116445
X123938Y-82282
X123998Y-95490
X124049Y-100951
X124065Y-91807
X124176Y-96125
X124176Y-136003
X124192Y-160387
X124303Y-54977
X124303Y-102983
X124319Y-67169
X124319Y-89140
X124430Y-33963
X124430Y-37451
X124430Y-40626
X124430Y-43404
X124430Y-52310
X124430Y-54088
X124446Y-62343
X124573Y-77710
X124624Y-78472
X124684Y-114854
X124700Y-109206
X124700Y-128764
X124700Y-145274
X125081Y-40626
X125319Y-66534
X125335Y-116572
X125446Y-135876
X125504Y-115183
X125573Y-102856
X125573Y-124827
X125589Y-92823
X125648Y-72249
X125648Y-77837
X125648Y-87048
X125700Y-43182
X125700Y-49770
X125700Y-54088
X125700Y-55418
X125700Y-67677
X125745Y-91968
X125827Y-37832
X125837Y-89200
X125970Y-61259
X126336Y-61768
X126351Y-157974
X126351Y-158736
X126370Y-90278
X126454Y-37832
X126478Y-91426
X126716Y-9511
X126732Y-73321
X126732Y-98919
X126732Y-100951
X126843Y-62851
X126859Y-67550
X126970Y-45833
X126986Y-42404
X126986Y-79361
X127351Y-61895
X127494Y-73583
X127605Y-162165
X127875Y-62978
X127875Y-137527
X127986Y-9384
X128002Y-67677
X128002Y-140702
X128002Y-143242
X128002Y-170106
X128129Y-72249
X128129Y-150100
X128129Y-152513
X128240Y-54850
X128256Y-49770
X128256Y-53707
X128256Y-173595
X128427Y-37705
X128427Y-43420
X128510Y-79361
X128621Y-8936
X128637Y-66534
X128637Y-160260
X128637Y-162098
X128764Y-41642
X128764Y-53199
X128764Y-128256
X128764Y-130034
X129212Y-43293
X129272Y-120636
X129383Y-67550
X129510Y-49897
X129510Y-53199
X129526Y-79869
X129637Y-61895
X129907Y-162038
X129967Y-160133
X130018Y-8689
X130034Y-77389
X130161Y-37705
X130288Y-132320
X130415Y-41575
X130529Y-142559
X130542Y-48694
X130542Y-49897
X130542Y-94220
X130542Y-117842
X130570Y-66122
X130669Y-126986
X130669Y-137146
X130669Y-138289
X130699Y-67653
X130736Y-81901
X130796Y-37959
X130796Y-72309
X130796Y-166543
X130837Y-62403
X130923Y-130034
X130983Y-77142
X131050Y-86981
X131177Y-105396
X131177Y-160260
X131177Y-162048
X131187Y-142797
X131304Y-66280
X131304Y-66982
X131431Y-81139
X131431Y-91934
X131498Y-156136
X131558Y-52945
X131685Y-126859
X131939Y-54088
X131939Y-134352
X131939Y-148382
X131999Y-121525
X131999Y-124700
X132006Y-76948
X132066Y-50786
X132066Y-62851
X132141Y-142700
X132193Y-32879
X132320Y-38721
X132380Y-84187
X132447Y-160387
X132574Y-39991
X132574Y-43547
X132574Y-105269
X132701Y-124573
X132820Y-133908
X132828Y-80885
X132955Y-45198
X132955Y-118223
X133022Y-139582
X133022Y-142607
X133023Y-121525
X133082Y-49897
X133142Y-91358
X133193Y-113524
X133193Y-126986
X133209Y-56882
X133209Y-161911
X133336Y-84314
X133447Y-77456
X133463Y-134352
X133717Y-64883
X133717Y-105269
X133766Y-156885
X133971Y-145020
X134098Y-29831
X134098Y-82155
X134098Y-84060
X134098Y-117774
X134098Y-126351
X134225Y-124446
X134225Y-129526
X134352Y-70344
X134352Y-105269
X134352Y-137400
X134412Y-156210
X134479Y-121398
X134606Y-77456
X134733Y-84314
X134776Y-81350
X134800Y-87743
X134800Y-107936
X135324Y-73944
X135368Y-76821
X135495Y-65645
X135606Y-21068
X135733Y-137273
X135809Y-133717
X136003Y-77710
X136003Y-82917
X136003Y-84187
X136003Y-124319
X136130Y-55739
X136130Y-118731
X136241Y-107936
X136257Y-139813
X136325Y-119874
X136384Y-117715
X136384Y-152259
X136511Y-72824
X136638Y-37451
X136638Y-41642
X136638Y-159625
X136638Y-163689
X136749Y-45900
X136765Y-40880
X136892Y-55612
X136892Y-52564
X137003Y-124176
X137019Y-80885
X137019Y-117080
X137130Y-125656
X137146Y-82409
X137257Y-84060
X137273Y-164324
X137654Y-124192
X137892Y-76694
X137908Y-97903
X138019Y-41896
X138019Y-45900
X138035Y-37062
X138035Y-40880
X138035Y-103745
X138035Y-137527
X138035Y-143750
X138162Y-131558
X138289Y-82222
X138289Y-92950
X138527Y-84060
X138543Y-77456
X138797Y-67423
X138797Y-70979
X138924Y-71868
X139178Y-36622
X139178Y-41007
X139178Y-45833
X139305Y-55866
X139432Y-77075
X139432Y-120763
X139499Y-28053
X139506Y-80605
X139599Y-27331
X139686Y-72249
X139813Y-84187
X139813Y-127494
X140067Y-70852
X140194Y-67236
X140575Y-40880
X140575Y-45900
X140575Y-53453
X140575Y-82409
X140667Y-159336
X140686Y-131304
X140702Y-55739
X140829Y-73392
X140914Y-77426
X140956Y-41896
X141083Y-84441
X141210Y-87743
X141299Y-70979
X141336Y-159370
X141337Y-72884
X141348Y-82088
X141591Y-36689
X141702Y-77262
X141718Y-162165
X141845Y-45833
X141845Y-80758
X141972Y-159371
X142032Y-40753
X142039Y-83933
X142099Y-136384
X142180Y-70827
X142226Y-127113
X142417Y-117394
X142591Y-73900
X142607Y-81797
X142607Y-126097
X142607Y-161784
X142636Y-159342
X142704Y-71457
X142801Y-133149
X142804Y-66604
X142861Y-140321
X142988Y-152259
X143055Y-72630
X143115Y-40880
X143369Y-105142
X143369Y-139118
X143496Y-142861
X143667Y-136892
X143683Y-121525
X143683Y-129467
X143750Y-149338
X143877Y-159625
X143877Y-163308
X143877Y-37705
X144004Y-40880
X144004Y-117080
X144004Y-126097
X144004Y-131304
X144004Y-132320
X144004Y-137983
X144115Y-113778
X144183Y-134555
X144258Y-81266
X144360Y-140321
X144369Y-108063
X144512Y-85965
X144623Y-114226
X144760Y-79615
X144766Y-117842
X144766Y-121525
X144867Y-136796
X144993Y-131065
X145004Y-77964
X145004Y-108317
X145020Y-126224
X145087Y-82028
X145131Y-73833
X145147Y-71106
X145147Y-82663
X145147Y-83298
X145147Y-83933
X145274Y-132828
X145274Y-142734
X145274Y-145020
X145274Y-137273
X145326Y-99173
X145441Y-78596
X145528Y-43420
X145528Y-139940
X145639Y-108063
X145655Y-50532
X145655Y-51421
X145655Y-114286
X145766Y-99681
X145782Y-87743
X145782Y-117271
X145782Y-164705
X145909Y-163816
X146005Y-130423
X146020Y-126859
X146021Y-114795
X146036Y-37959
X146161Y-84681
X146163Y-49389
X146163Y-67296
X146274Y-108317
X146290Y-140067
X146348Y-99274
X146357Y-70852
X146357Y-78599
X146409Y-142624
X146528Y-85457
X146528Y-145468
X146544Y-42150
X146544Y-45579
X146544Y-118096
X146544Y-169912
X146671Y-148195
X146782Y-84187
X146782Y-115048
X146798Y-67296
X146798Y-83171
X146909Y-82409
X146909Y-99554
X146992Y-137146
X146993Y-129653
X147036Y-108698
X147036Y-126859
X147052Y-166356
X147239Y-145137
X147290Y-115429
X147306Y-121398
X147306Y-150100
X147306Y-161978
X147425Y-83171
X147433Y-156831
X147433Y-162673
X147433Y-164324
X147560Y-165527
X147597Y-108037
X147613Y-166636
X147671Y-81647
X147671Y-98919
X147687Y-148830
X147927Y-82407
X148068Y-115810
X148068Y-117334
X148068Y-150481
X148068Y-168896
X148306Y-28958
X148306Y-99173
X148306Y-108190
X148322Y-139118
X148322Y-166610
X148385Y-136067
X148449Y-121271
X148449Y-144893
X148449Y-167626
X148560Y-54540
X148576Y-41896
X148703Y-124573
X148703Y-71233
X148703Y-78980
X148703Y-170674
X148703Y-172198
X148814Y-116318
X148830Y-70090
X148830Y-149338
X148941Y-98538
X148941Y-108063
X148957Y-21068
X149076Y-168761
X149084Y-141718
X149084Y-173341
X149191Y-87469
X149195Y-97903
X149211Y-43293
X149211Y-126224
X149332Y-170233
X149381Y-42505
X149449Y-55485
X149465Y-162800
X149533Y-169190
X149576Y-54723
X149652Y-24751
X149779Y-132895
X149830Y-87489
X149830Y-88759
X149838Y-20997
X149846Y-121398
X149846Y-156831
X149846Y-171690
X149973Y-41769
X149973Y-70344
X149973Y-148957
X150033Y-84695
X150054Y-20408
X150159Y-41134
X150227Y-10146
X150227Y-49135
X150227Y-118604
X150227Y-124640
X150227Y-166991
X150285Y-48212
X150287Y-84060
X150354Y-42785
X150354Y-106793
X150398Y-171182
X150465Y-78726
X150465Y-87489
X150502Y-88862
X150608Y-126859
X150628Y-83358
X150681Y-20396
X150730Y-31228
X150735Y-65010
X150735Y-70725
X150735Y-129213
X150735Y-142988
X150735Y-166356
X150795Y-149211
X150862Y-9765
X150862Y-41007
X151100Y-79107
X151100Y-87235
X151100Y-89140
X151116Y-119112
X151124Y-19858
X151168Y-48482
X151241Y-40120
X151243Y-151243
X151370Y-124640
X151370Y-152386
X151481Y-83679
X151556Y-40789
X151624Y-37197
X151691Y-19544
X151733Y-48754
X151735Y-87362
X151818Y-78613
X151862Y-89394
X151878Y-142226
X151878Y-152894
X152049Y-63105
X152132Y-44563
X152243Y-18782
X152243Y-83679
X152259Y-39737
X152370Y-87489
X152386Y-40372
X152386Y-57390
X152386Y-153402
X152386Y-167118
X152459Y-89770
X152491Y-79177
X152513Y-53707
X152513Y-144826
X152624Y-156704
X152814Y-81965
X152834Y-165213
X152938Y-63691
X153005Y-87489
X153021Y-44563
X153107Y-89849
X153117Y-19142
X153132Y-47805
X153148Y-114413
X153148Y-127113
X153148Y-134352
X153148Y-142480
X153199Y-57263
X153402Y-121271
X153592Y-90245
X153626Y-33372
X153640Y-81901
X153656Y-54342
X153726Y-39387
X153767Y-83238
X153767Y-87235
X153954Y-51996
X154021Y-63673
X154061Y-33823
X154081Y-57390
X154179Y-90467
X154217Y-38996
X154260Y-64553
X154275Y-47992
X154291Y-166737
X154402Y-81901
X154402Y-87616
X154418Y-54215
X154418Y-73011
X154418Y-27605
X154545Y-25640
X154545Y-142988
X154548Y-51796
X154656Y-34022
X154656Y-82984
X154672Y-31101
X154688Y-65011
X154723Y-58152
X154799Y-39229
X154926Y-54596
X154926Y-67042
X154926Y-73962
X154926Y-139305
X155084Y-82280
X155164Y-48119
X155164Y-51996
X155307Y-71360
X155307Y-160641
X155343Y-81709
X155434Y-68439
X155545Y-34276
X155545Y-39102
X155561Y-54596
X155561Y-138605
X155561Y-157085
X155605Y-58025
X155688Y-20433
X155688Y-134352
X155688Y-158736
X155797Y-64755
X155799Y-48373
X155807Y-51675
X155815Y-74027
X155926Y-57390
X156025Y-34680
X156053Y-58660
X156069Y-153275
X156196Y-132895
X156196Y-142480
X156210Y-82217
X156240Y-39356
X156340Y-35222
X156379Y-64988
X156434Y-51675
X156577Y-53707
X156577Y-86092
X156704Y-79361
X156815Y-39102
X156831Y-161530
X156942Y-138670
X156958Y-134352
X156967Y-139673
X157001Y-57517
X157002Y-58914
X157005Y-64943
X157069Y-51675
X157085Y-82469
X157272Y-149405
X157323Y-35479
X157323Y-157974
X157323Y-159371
X157442Y-58047
X157466Y-53961
X157466Y-152380
X157577Y-39102
X157577Y-59676
X157720Y-110984
X157831Y-51802
X157847Y-149846
X157882Y-57390
X157958Y-158228
X157958Y-159117
X157958Y-167769
X157974Y-165340
X158085Y-35860
X158212Y-59295
X158212Y-134352
X158228Y-54088
X158228Y-86981
X158272Y-39483
X158355Y-80504
X158407Y-67591
X158466Y-51802
X158567Y-61020
X158593Y-149973
X158593Y-157974
X158593Y-162800
X158736Y-165340
X158775Y-133642
X158974Y-61521
X158990Y-54342
X158990Y-122541
X158990Y-143877
X159070Y-56120
X159213Y-71137
X159228Y-149719
X159228Y-158228
X159228Y-163181
X159292Y-139750
X159355Y-148703
X159482Y-60438
X159511Y-56622
X159625Y-86092
X159625Y-126859
X159625Y-129653
X159625Y-163756
X159752Y-73900
X159752Y-135876
X159804Y-157929
X159871Y-140190
X159879Y-37705
X159879Y-51294
X159879Y-67931
X159879Y-70852
X159879Y-79361
X159879Y-144131
X159923Y-61708
X159951Y-57263
X160012Y-138029
X160133Y-41769
X160133Y-54977
X160133Y-69201
X160260Y-161403
X160305Y-158306
X160455Y-167753
X160509Y-73519
X160625Y-61962
X160625Y-149973
X160641Y-70725
X160768Y-87616
X160768Y-105777
X160790Y-57068
X160879Y-163502
X160879Y-144385
X161065Y-57688
X161133Y-158101
X161149Y-67804
X161149Y-152640
X161260Y-61962
X161276Y-165086
X161387Y-149973
X161403Y-43801
X161403Y-54342
X161514Y-62724
X161514Y-143810
X161530Y-39356
X161530Y-50278
X161530Y-73587
X161530Y-87489
X161707Y-70869
X161795Y-168423
X161832Y-158165
X161895Y-148516
X161911Y-152640
X162038Y-58914
X162038Y-60819
X162041Y-62384
X162165Y-166356
X162292Y-110222
X162292Y-165467
X162403Y-144452
X162419Y-73646
X162546Y-72376
X162546Y-149906
X162546Y-152640
X162546Y-158427
X162594Y-62821
X162927Y-167753
X163038Y-131939
X163054Y-174230
X163118Y-121843
X163181Y-120509
X163217Y-62885
X163232Y-123430
X163435Y-117969
X163435Y-139559
X163576Y-63550
X163622Y-110990
X163629Y-156196
X163673Y-111746
X163673Y-133336
X163673Y-162232
X164070Y-51167
X164114Y-161784
X164197Y-31101
X164197Y-36054
X164198Y-63467
X164253Y-64195
X164308Y-115429
X164324Y-51802
X164451Y-49008
X164451Y-132955
X164492Y-110682
X164578Y-52437
X164626Y-139813
X164703Y-111272
X164705Y-31736
X164705Y-57577
X164705Y-64756
X164892Y-69134
X164943Y-115937
X165116Y-61043
X165213Y-32752
X165263Y-132791
X165280Y-136578
X165340Y-157085
X165340Y-166804
X165400Y-76059
X165400Y-87489
X165400Y-92061
X165534Y-132160
X165578Y-109206
X165589Y-110214
X165721Y-45960
X165721Y-121215
X165781Y-139694
X165789Y-26723
X165832Y-149465
X165848Y-105777
X165896Y-116813
X165959Y-116128
X165959Y-143115
X165975Y-18782
X165975Y-41896
X166086Y-109587
X166086Y-110603
X166102Y-60184
X166166Y-121842
X166340Y-6149
X166380Y-123049
X166407Y-120573
X166407Y-139665
X166423Y-122414
X166467Y-149211
X166483Y-157593
X166609Y-33708
X166721Y-41896
X166737Y-46095
X166761Y-33056
X166911Y-81774
X166975Y-51802
X166991Y-152386
X167035Y-149652
X167051Y-23145
X167183Y-60062
X167229Y-10527
X167305Y-36308
X167333Y-76567
X167333Y-73396
X167411Y-6403
X167418Y-51359
X167435Y-77186
X167475Y-42023
X167507Y-39192
X167511Y-22718
X167540Y-148963
X167577Y-81817
X167672Y-10084
X167712Y-60398
X167741Y-33340
X167753Y-156577
X167753Y-162292
X168033Y-6657
X168069Y-149299
X168112Y-35853
X168114Y-82346
X168134Y-41642
X168138Y-22725
X168245Y-51675
X168273Y-148384
X168313Y-77456
X168321Y-61073
X168347Y-10141
X168388Y-164705
X168499Y-165908
X168642Y-34022
X168642Y-39356
X168656Y-6585
X168686Y-42052
X168701Y-158355
X168701Y-159684
X168762Y-22665
X168787Y-148742
X168807Y-9715
X168813Y-142988
X168817Y-81901
X168901Y-139835
X168926Y-51733
X169007Y-145468
X169067Y-117461
X169067Y-122033
X169068Y-121179
X169134Y-115556
X169239Y-82409
X169261Y-7165
X169261Y-34471
X169261Y-164578
X169367Y-41515
X169383Y-39356
X169481Y-22569
X169515Y-143750
X169515Y-148195
X169519Y-139940
X169531Y-153148
X169531Y-57009
X169642Y-110222
X169685Y-150180
X169697Y-51892
X169697Y-10345
X169702Y-54850
X169702Y-77710
X169710Y-61073
X169741Y-132809
X169769Y-78472
X169769Y-145147
X169822Y-41946
X169837Y-60311
X169883Y-81934
X169896Y-159625
X169941Y-51315
X170011Y-166296
X170023Y-7352
X170178Y-22643
X170252Y-144360
X170291Y-10144
X170343Y-41598
X170344Y-115683
X170404Y-39483
X170404Y-110095
X170420Y-117588
X170445Y-121515
X170471Y-34729
X170506Y-82002
X170531Y-139876
X170652Y-22233
X170658Y-157831
X170658Y-167245
X170670Y-55425
X170674Y-115149
X170674Y-116826
X170731Y-9698
X170785Y-122287
X170912Y-109333
X170912Y-112381
X170912Y-144198
X170918Y-51668
X170972Y-77583
X171039Y-7352
X171039Y-61200
X171076Y-41757
X171111Y-51072
X171150Y-132761
X171166Y-60438
X171166Y-78599
X171176Y-148455
X171273Y-137968
X171325Y-133363
X171353Y-39229
X171361Y-35360
X171411Y-22341
X171420Y-81711
X171604Y-9962
X171606Y-55866
X171928Y-168515
X172055Y-7479
X172242Y-35800
X172242Y-38975
X172309Y-56501
X172436Y-132955
X172499Y-139940
X172579Y-167499
X172684Y-164462
X172817Y-143623
X172833Y-156831
X172960Y-40626
X173087Y-132320
X173214Y-34911
X173325Y-71239
X173341Y-138483
X173468Y-45071
X173468Y-164324
X173744Y-162766
X173849Y-22973
X173952Y-71239
X173960Y-65264
X173976Y-68439
X173976Y-148322
X174103Y-33895
X174468Y-168515
X174569Y-65116
X174611Y-77075
X174611Y-148957
X174865Y-28180
X174865Y-38340
X174865Y-61327
X175025Y-9444
X175119Y-67804
X175119Y-76626
X175246Y-71233
X175373Y-36943
X175504Y-27803
X175552Y-12559
X175611Y-9190
X175738Y-164451
X175754Y-135495
X175754Y-141718
X175754Y-142988
X175812Y-67804
X175814Y-33963
X175881Y-25386
X175933Y-13198
X176008Y-69582
X176135Y-55993
X176183Y-150290
X176246Y-162800
X176262Y-33387
X176373Y-8997
X176373Y-167118
X176389Y-140575
X176439Y-67804
X176643Y-34784
X176643Y-69201
X176754Y-18214
X176754Y-73586
X176770Y-105396
X176897Y-55739
X177008Y-8749
X177008Y-143750
X177008Y-144385
X177008Y-166483
X177008Y-168642
X177135Y-67931
X177189Y-104721
X177279Y-32572
X177389Y-17960
X177417Y-33768
X177516Y-149973
X177516Y-162292
X177516Y-164445
X177603Y-55170
X177659Y-56060
X177913Y-32523
X178040Y-31228
X178046Y-166616
X178167Y-77075
X178201Y-31892
X178397Y-54810
X178421Y-69455
X178467Y-53685
X178548Y-52945
X178548Y-60819
X178675Y-52183
X178723Y-150414
X178786Y-162546
X178786Y-164578
X178786Y-165975
X178802Y-54215
X178802Y-76694
X178802Y-138797
X179183Y-142226
X179183Y-153402
X179310Y-149338
X179421Y-157466
X179548Y-124640
X179548Y-168515
X179675Y-139813
X179691Y-138289
X179870Y-136384
X180056Y-149211
X180072Y-133463
X180183Y-122922
X180326Y-136892
X180326Y-153148
X180437Y-17385
X180437Y-139940
X180453Y-138289
X180504Y-138924
X180648Y-49508
X180894Y-27291
X180945Y-47671
X180951Y-164445
X180961Y-124894
X181072Y-118350
X181088Y-142480
X181088Y-106031
X181155Y-132287
X181453Y-37070
X181453Y-43039
X181453Y-46535
X181453Y-167753
X181469Y-86854
X181521Y-27418
X181580Y-123557
X181586Y-164947
X181596Y-136638
X181684Y-106224
X181707Y-10781
X181707Y-119493
X181723Y-68185
X181723Y-73392
X181799Y-139589
X181834Y-12559
X181834Y-14972
X181834Y-23608
X181850Y-133142
X181850Y-142226
X181934Y-74430
X181961Y-109460
X181961Y-157974
X182088Y-168261
X182104Y-124065
X182215Y-82028
X182215Y-83679
X182215Y-87235
X182469Y-91553
X182469Y-118477
X182475Y-136383
X182485Y-139940
X182485Y-145401
X182596Y-75043
X182596Y-133844
X182664Y-78278
X182723Y-41896
X182723Y-43039
X182723Y-123176
X182723Y-158482
X182977Y-14845
X182977Y-27291
X183104Y-108892
X183104Y-136511
X183109Y-132260
X183231Y-159117
X183231Y-168388
X183247Y-36308
X183247Y-145401
X183247Y-152640
X183358Y-109841
X183485Y-167626
X183612Y-86981
X183628Y-17512
X183934Y-118350
X183993Y-165340
X184009Y-50151
X184009Y-60819
X184053Y-123049
X184120Y-37848
X184120Y-42785
X184120Y-63740
X184136Y-145147
X184247Y-109333
X184374Y-17004
X184374Y-18214
X184374Y-27418
X184390Y-133396
X184390Y-151116
X184501Y-86854
X184628Y-74214
X184882Y-55104
X184898Y-105015
X184898Y-142099
X185031Y-134860
X185069Y-82028
X185136Y-88172
X185136Y-101840
X185136Y-123176
X185152Y-61378
X185152Y-125462
X185196Y-96379
X185263Y-46341
X185263Y-108952
X185263Y-118223
X185279Y-59803
X185390Y-63740
X185406Y-139940
X185457Y-89307
X185533Y-150100
X185644Y-14845
X185644Y-17774
X185644Y-27164
X185660Y-99427
X185771Y-61819
X185898Y-109841
X185914Y-55799
X185929Y-136877
X186025Y-82155
X186025Y-83425
X186025Y-87291
X186041Y-157085
X186261Y-37286
X186279Y-74849
X186295Y-49584
X186422Y-46214
X186422Y-159244
X186533Y-41515
X186533Y-104634
X186533Y-119620
X186549Y-50786
X186553Y-91367
X186593Y-114921
X186660Y-63740
X186676Y-59930
X186719Y-78278
X186803Y-88172
X186914Y-27291
X186930Y-19604
X187057Y-133971
X187184Y-91807
X187251Y-86981
X187274Y-88644
X187295Y-96379
X187438Y-50786
X187549Y-109714
X187549Y-137654
X187549Y-142480
X187565Y-99427
X187565Y-104761
X187676Y-163435
X187803Y-41261
X187803Y-123049
X187803Y-145722
X187803Y-150100
X187803Y-159244
X187819Y-62470
X187930Y-60057
X188057Y-108952
X188057Y-118350
X188200Y-83044
X188200Y-87037
X188438Y-51100
X188438Y-145401
X188454Y-14337
X188565Y-82028
X188565Y-167753
X188565Y-89013
X188692Y-163816
X188708Y-142480
X188819Y-101713
X188819Y-123684
X188819Y-137384
X188835Y-133717
X188946Y-144445
X188946Y-145976
X189006Y-89532
X189006Y-96506
X189073Y-115048
X189073Y-150033
X189073Y-159371
X189216Y-57517
X189216Y-60057
X189216Y-62470
X189327Y-128189
X189343Y-63867
X189581Y-167118
X189724Y-157974
X189822Y-139359
X189851Y-16496
X189962Y-164324
X190096Y-137266
X190105Y-86219
X190212Y-128938
X190216Y-104634
X190216Y-106218
X190216Y-144893
X190216Y-146230
X190232Y-55425
X190343Y-63740
X190343Y-150033
X190343Y-159244
X190359Y-14337
X190510Y-139486
X190613Y-59930
X190613Y-142480
X190851Y-167245
X190867Y-138035
X190978Y-128189
X190994Y-56501
X191027Y-137244
X191232Y-96506
X191248Y-106158
X191359Y-145401
X191375Y-77329
X191486Y-146484
X191486Y-164578
X191510Y-55172
X191613Y-159244
X191613Y-150033
X191740Y-59803
X191756Y-166737
X191883Y-142480
X192137Y-143496
X192264Y-153148
X192375Y-145782
X192629Y-146671
X192815Y-143945
X192883Y-150033
X192883Y-162165
X192883Y-164705
X192883Y-167753
X193010Y-18318
X193026Y-139365
X193093Y-47450
X193661Y-86854
X193712Y-27672
X193772Y-17385
X193899Y-142210
X193969Y-146992
X193975Y-50592
X194026Y-123684
X194026Y-166864
X194086Y-42912
X194129Y-125431
X194153Y-150100
X194153Y-162165
X194280Y-48814
X194340Y-46535
X194373Y-74224
X194483Y-137908
X194677Y-144385
X194804Y-124954
X194915Y-86854
X194915Y-75297
X195117Y-27428
X195161Y-23608
X195169Y-10908
X195169Y-12559
X195169Y-14845
X195169Y-48627
X195169Y-109841
X195169Y-137654
X195169Y-166229
X195185Y-37959
X195252Y-74154
X195423Y-119874
X195423Y-147052
X195423Y-150033
X195423Y-162165
X195439Y-114667
X195462Y-110531
X195566Y-98665
X195646Y-75845
X195931Y-109079
X196007Y-143055
X196058Y-82028
X196074Y-134606
X196074Y-153148
X196185Y-77202
X196185Y-87291
X196201Y-27291
X196439Y-14718
X196439Y-20433
X196455Y-38086
X196455Y-46341
X196693Y-109206
X196693Y-123176
X196693Y-147433
X196693Y-150033
X196693Y-162165
X196963Y-57263
X196963Y-118096
X197074Y-50846
X197074Y-78278
X197201Y-20687
X197217Y-163562
X197328Y-90921
X197328Y-109647
X197328Y-124446
X197455Y-86981
X197455Y-89775
X197582Y-96252
X197598Y-37959
X197709Y-17131
X197709Y-27291
X197709Y-46028
X197709Y-55425
X197709Y-18318
X197836Y-101713
X197836Y-118350
X197836Y-146671
X197963Y-109206
X197979Y-60946
X197979Y-63740
X198031Y-36435
X198217Y-123049
X198233Y-82155
X198344Y-86981
X198471Y-20119
X198539Y-50846
X198606Y-109012
X198609Y-77627
X198614Y-14210
X198661Y-89648
X198725Y-64010
X198801Y-57628
X198852Y-163562
X198979Y-17877
X198979Y-27291
X198995Y-37959
X198995Y-46214
X198995Y-61962
X199106Y-168007
X199233Y-109012
X199233Y-118350
X199233Y-123176
X199249Y-96379
X199360Y-51742
X199741Y-21001
X199741Y-109460
X199778Y-49407
X199884Y-46214
X199884Y-164705
X199951Y-82155
X199995Y-59676
X199995Y-63994
X199995Y-144893
X200011Y-87235
X200011Y-104634
X200019Y-142459
X200122Y-17131
X200122Y-77897
X200249Y-27291
X200249Y-37959
X200392Y-137527
X200503Y-99173
X200503Y-101459
X200503Y-114921
X200503Y-119890
X200630Y-19290
X200630Y-48373
X200630Y-124446
X200680Y-90768
X200757Y-50532
X200773Y-142480
X201027Y-14210
X201027Y-82028
X201138Y-164070
X201141Y-90343
X201154Y-59803
X201265Y-42912
X201265Y-86981
X201281Y-70598
X201281Y-155882
X201333Y-96379
X201392Y-133844
X201392Y-136876
X201519Y-38086
X201535Y-114794
X201646Y-89648
X201773Y-101713
X201789Y-143877
X201900Y-50913
X202154Y-124065
X202170Y-55425
X202170Y-150862
X202297Y-82028
X202408Y-59803
X202408Y-109012
X202551Y-63740
X202662Y-114667
X202662Y-130990
X202662Y-136892
X202662Y-139702
X202805Y-152259
X203043Y-101840
X203170Y-109079
X203186Y-54469
X203297Y-146223
X203440Y-147941
X203694Y-59803
X203805Y-63867
X203805Y-167505
X203821Y-55866
X203932Y-109460
X203932Y-131685
X203932Y-137019
X204075Y-16750
X204075Y-86600
X204075Y-144004
X204202Y-79234
X204313Y-99173
X204583Y-54342
X204710Y-59803
X204837Y-123176
X204948Y-139111
X204964Y-147687
X205091Y-143877
X205202Y-129026
X205202Y-136765
X205202Y-139813
X205456Y-145147
X205964Y-129467
X205980Y-149846
X206107Y-136892
X206345Y-143750
X206449Y-48560
X206472Y-139559
X206599Y-128637
X206853Y-76186
X206980Y-149846
X206980Y-162419
X206980Y-163562
X207107Y-46789
X207107Y-17512
X207107Y-42023
X207234Y-27545
X207250Y-82790
X207564Y-144538
X207564Y-145165
X207615Y-86854
X207615Y-88572
X207698Y-76694
X207801Y-136892
X207869Y-129907
X208144Y-144775
X208183Y-27418
X208250Y-162165
X208250Y-163943
X208266Y-149973
X208306Y-49487
X208478Y-130055
X208504Y-10908
X208504Y-12559
X208504Y-14718
X208504Y-23608
X208504Y-46214
X208504Y-83425
X208520Y-127875
X208758Y-48373
X208885Y-77897
X208960Y-49524
X209028Y-135241
X209028Y-137019
X209028Y-139813
X209155Y-104634
X209266Y-145274
X209266Y-171055
X209363Y-105858
X209393Y-119747
X209409Y-63105
X209452Y-114727
X209520Y-47230
X209520Y-162038
X209536Y-149846
X209588Y-101332
X209663Y-60184
X209774Y-14861
X209774Y-27418
X209834Y-107876
X209901Y-41388
X209901Y-46214
X209901Y-76059
X210028Y-107174
X210155Y-78599
X210171Y-67931
X210171Y-87235
X210282Y-47484
X210536Y-19611
X210663Y-123176
X210663Y-144766
X210790Y-162165
X210790Y-169150
X210806Y-61140
X210806Y-63740
X210806Y-149846
X210926Y-106132
X210966Y-78694
X211044Y-17131
X211044Y-27545
X211044Y-99300
X211044Y-101773
X211074Y-18536
X211104Y-114667
X211171Y-43039
X211171Y-48881
X211171Y-107809
X211399Y-143325
X211425Y-37832
X211425Y-86854
X211425Y-144766
X211441Y-175119
X211552Y-47230
X211552Y-109841
X211643Y-139940
X211679Y-19599
X211679Y-106285
X211933Y-118477
X211933Y-123303
X211949Y-75551
X212016Y-133717
X212016Y-143436
X212060Y-162038
X212076Y-78218
X212076Y-149846
X212119Y-63486
X212135Y-57390
X212187Y-107809
X212187Y-167499
X212203Y-61962
X212270Y-129907
X212270Y-139940
X212270Y-144326
X212314Y-27291
X212314Y-41515
X212314Y-46595
X212314Y-50913
X212330Y-17893
X212532Y-110587
X212644Y-99046
X212644Y-100951
X212644Y-104507
X212695Y-86854
X212695Y-109706
X212711Y-78853
X212822Y-19858
X212838Y-14210
X212895Y-49213
X212929Y-105964
X213200Y-107563
X213203Y-168007
X213256Y-104642
X213330Y-149779
X213330Y-162165
X213457Y-26783
X213524Y-18655
X213584Y-17004
X213584Y-37959
X213584Y-48627
X213584Y-99300
X213600Y-145274
X213660Y-57390
X213660Y-63486
X213711Y-42785
X213727Y-87108
X213838Y-20560
X213952Y-78659
X213965Y-109714
X213992Y-49770
X214041Y-118389
X214041Y-123303
X214092Y-168515
X214219Y-47230
X214346Y-107123
X214473Y-59803
X214473Y-139813
X214540Y-63613
X214600Y-119620
X214600Y-131050
X214600Y-162292
X214616Y-149846
X214743Y-145655
X214803Y-114794
X214854Y-99300
X214854Y-104634
X214854Y-106733
X214968Y-78659
X214981Y-37959
X214981Y-41769
X214981Y-46214
X214981Y-77075
X214981Y-105837
X215235Y-48246
X215235Y-86727
X215489Y-123176
X215549Y-132515
X215616Y-50024
X215743Y-118350
X215743Y-119747
X215743Y-139813
X215759Y-149465
X215844Y-106211
X215870Y-59803
X215997Y-41515
X216013Y-63613
X216124Y-96506
X216124Y-54977
X216124Y-101713
X216124Y-105650
X216140Y-100570
X216140Y-133209
X216267Y-46214
X216505Y-82028
X216648Y-59676
X216759Y-106920
X216886Y-51742
X216902Y-55993
X217013Y-63740
X217013Y-110603
X217013Y-118350
X217013Y-132768
X217013Y-139940
X217029Y-54342
X217073Y-137019
X217267Y-37832
X217267Y-107555
X217394Y-99173
X217410Y-53707
X217918Y-133082
X218029Y-137273
X218045Y-57644
X218283Y-139686
X218410Y-130415
X218934Y-85838
X219061Y-59930
X219188Y-53961
X219188Y-131939
X219315Y-57517
X219553Y-137019
X221597Y-17258
X221597Y-49202
X221712Y-11035
X221728Y-137527
X221851Y-30027
X221851Y-48246
X221855Y-140702
X221855Y-142226
X221982Y-87108
X221982Y-156390
X221982Y-160514
X222153Y-12559
X222153Y-14591
X222153Y-23735
X222236Y-77202
X222236Y-88505
X222236Y-100824
X222236Y-104761
X222359Y-27291
X222617Y-77710
X222728Y-107428
X223068Y-78311
X223109Y-107999
X223125Y-123557
X223236Y-14591
X223236Y-27418
X223252Y-143623
X223252Y-156831
X223252Y-160514
X223363Y-99427
X223363Y-118350
X223363Y-119366
X223390Y-109266
X223617Y-104634
X223633Y-123049
X223887Y-87108
X224014Y-88632
X224125Y-118858
X224141Y-78853
X224252Y-105015
X224455Y-55485
X224455Y-60184
X224455Y-63740
X224455Y-77075
X224506Y-17004
X224506Y-18715
X224506Y-27291
X224522Y-46468
X224522Y-160641
X224573Y-109266
X224573Y-118223
X224582Y-139305
X224649Y-41642
X224709Y-77710
X224760Y-123049
X224776Y-87743
X224776Y-100951
X224887Y-107555
X224903Y-96506
X225141Y-78345
X225141Y-134352
X225157Y-49135
X225157Y-60311
X225284Y-104634
X225284Y-138543
X225336Y-86981
X225338Y-143820
X225395Y-123176
X225411Y-46595
X225411Y-54977
X225522Y-63613
X225538Y-18401
X225739Y-138989
X225776Y-27418
X225903Y-109266
X225903Y-117842
X225919Y-41515
X226030Y-122735
X226030Y-144639
X226284Y-19417
X226300Y-47484
X226433Y-109601
X226479Y-82028
X226487Y-99300
X226487Y-108377
X226487Y-106793
X226554Y-137448
X226665Y-86981
X226665Y-146417
X226681Y-55612
X226681Y-59930
X226681Y-76440
X226681Y-139432
X226681Y-144004
X226919Y-14591
X226919Y-20052
X226919Y-26783
X226935Y-41769
X226935Y-49516
X227046Y-160641
X227046Y-165975
X227189Y-62978
X227189Y-46468
X227300Y-99300
X227427Y-104634
X227427Y-108571
X227427Y-117969
X227554Y-109206
X227681Y-54977
X227697Y-48500
X227697Y-138543
X227808Y-59930
X227824Y-87743
X227935Y-123557
X227951Y-134479
X228205Y-41769
X228205Y-49897
X228205Y-63486
X228332Y-46214
X228443Y-117969
X228443Y-119112
X228570Y-104634
X228570Y-122922
X228713Y-96506
X228713Y-100824
X229010Y-106920
X229078Y-59930
X229078Y-78472
X229205Y-86727
X229221Y-50151
X229221Y-63740
X229332Y-107555
X229348Y-41642
X229713Y-99173
X229713Y-108190
X229713Y-110095
X229713Y-122922
X229840Y-117969
X229878Y-55844
X230094Y-109079
X230110Y-145655
X230237Y-110857
X230348Y-63486
X230348Y-82028
X230431Y-142734
X230491Y-52818
X230491Y-59930
X230872Y-52183
X230872Y-145147
X231745Y-57644
X231745Y-137654
T2
X6336Y-19163
X6336Y-37070
X6336Y-54723
X6336Y-73646
X6336Y-91172
X8591Y-143527
X8591Y-157878
X13829Y-17893
X16877Y-5574
X21068Y-125462
X21068Y-142480
X21068Y-157847
X28561Y-26148
X28688Y-83679
X28688Y-90156
X30212Y-18274
X30212Y-30339
X30593Y-87997
X30720Y-66534
X30974Y-48754
X31720Y-4939
X34657Y-122738
X35038Y-129780
X36943Y-142226
X45706Y-20052
X45706Y-83298
X47230Y-88759
X49389Y-125716
X49389Y-156323
X49389Y-162800
X53199Y-54596
X53707Y-61073
X72122Y-60057
X73280Y-23750
X73900Y-44055
X79234Y-84695
X79234Y-105904
X79234Y-131558
X79234Y-153275
X85838Y-56091
X98284Y-23513
X98728Y-10844
X101713Y-85584
X101713Y-90664
X101713Y-105142
X102094Y-153021
X102602Y-160006
X112635Y-10781
X112635Y-23481
X113618Y-44850
X126986Y-135241
X128510Y-86219
X128510Y-98792
X139817Y-134983
X145909Y-23481
X147687Y-37103
X147687Y-50024
X147687Y-72376
X147687Y-79488
X153910Y-151145
X155180Y-165115
X156958Y-66280
X157212Y-71106
X158101Y-29577
X161022Y-113524
X161022Y-135368
X161276Y-30466
X163039Y-37466
X163039Y-55246
X164451Y-10273
X164451Y-25259
X165699Y-78875
X177771Y-136272
X178675Y-23862
X178802Y-8114
X179183Y-38975
X180168Y-97999
X180168Y-114255
X180218Y-59822
X180218Y-82263
X181596Y-148425
X184390Y-161911
X186636Y-148425
X192010Y-11162
X192010Y-23608
X192010Y-38721
X192772Y-58279
X192772Y-79234
X192772Y-97395
X192772Y-114413
X199122Y-135622
X201344Y-161721
X205599Y-8241
X205599Y-24243
X205599Y-38975
X205853Y-79107
X205853Y-97268
X205853Y-118477
X205929Y-58660
X210171Y-136765
X220458Y-11670
X220458Y-23862
X220458Y-38848
X220458Y-59803
X220458Y-82155
X220458Y-99681
X220458Y-117334
X220458Y-135368
X220458Y-154418
X220458Y-161657
T3
X2018Y-44309
X2145Y-63359
X2399Y-167753
X2526Y-152513
X2653Y-17258
X2653Y-81901
X2780Y-118350
X3161Y-91553
X3161Y-130034
X3288Y-72376
X3288Y-100697
X3415Y-24243
X3415Y-136130
X3669Y-34784
X3923Y-54088
X5955Y-143750
X5955Y-160641
X6844Y-107301
X6844Y-126351
X7098Y-115683
X7352Y-95998
X10654Y-169531
X13575Y-1891
X13829Y-21703
X14464Y-172198
X17893Y-21703
X18020Y-17893
X18147Y-169150
X19290Y-136892
X20941Y-6082
X21068Y-1891
X21703Y-79107
X22211Y-96506
X22592Y-162800
X22719Y-154545
X22846Y-136892
X22846Y-144893
X22846Y-147560
X22973Y-108698
X23227Y-86854
X24116Y-13829
X24116Y-97649
X24497Y-126986
X24624Y-171055
X25005Y-15607
X27799Y-100697
X27926Y-96379
X28180Y-107555
X28688Y-14718
X28688Y-16496
X28688Y-31101
X28688Y-42658
X28688Y-48119
X28688Y-56501
X28688Y-65391
X28688Y-79107
X28815Y-22465
X29196Y-59803
X29196Y-173595
X29958Y-93204
X30847Y-73519
X31228Y-103618
X31609Y-37832
X31863Y-22465
X32625Y-15861
X33895Y-172579
X34784Y-154418
X36054Y-12305
X37070Y-10400
X39737Y-19417
X39991Y-10527
X39991Y-23735
X40372Y-7098
X40880Y-107174
X41388Y-173468
X43293Y-10273
X44817Y-22719
X45198Y-36943
X45198Y-93585
X45833Y-172325
X46341Y-42150
X46722Y-25005
X46976Y-32625
X47230Y-120763
X47992Y-6844
X49643Y-106412
X50786Y-138035
X51421Y-10400
X52310Y-24116
X52437Y-100316
X52564Y-67804
X53072Y-31609
X53199Y-112127
X53199Y-171944
X54723Y-94728
X55358Y-6844
X55866Y-147941
X56120Y-42785
X56120Y-86600
X56120Y-106412
X56755Y-130796
X57009Y-52945
X57136Y-46595
X57263Y-23735
X57390Y-28942
X57644Y-35673
X57771Y-67423
X58660Y-100316
X58660Y-173468
X59041Y-124446
X59422Y-142734
X59676Y-93712
X59676Y-112889
X59803Y-155815
X60692Y-136638
X60819Y-75805
X61200Y-150735
X61327Y-146163
X61454Y-130415
X61708Y-106158
X62470Y-6590
X62978Y-159117
X64629Y-171817
X68693Y-6717
X69455Y-59295
X70090Y-67296
X70471Y-173595
X71868Y-65391
X72122Y-61581
X75551Y-171944
X75805Y-33133
X76186Y-12051
X76440Y-46214
X76694Y-36943
X76948Y-53580
X77075Y-87235
X77075Y-103110
X77202Y-92696
X77202Y-98919
X77202Y-109587
X77202Y-113524
X77202Y-134606
X77202Y-156831
X77456Y-6971
X77456Y-137273
X77583Y-144893
X77710Y-24116
X78091Y-41642
X78472Y-48119
X78599Y-32117
X78980Y-53580
X79488Y-5701
X79869Y-37070
X80250Y-82790
X80504Y-75170
X80631Y-121144
X81012Y-88632
X81012Y-143496
X81393Y-113143
X81393Y-123557
X81393Y-137527
X81393Y-156069
X81520Y-109587
X82282Y-93204
X82282Y-100062
X82409Y-159371
X82536Y-135114
X82663Y-173468
X84441Y-65010
X85838Y-67423
X88251Y-171817
X93839Y-173468
X93966Y-11797
X94474Y-33133
X94982Y-44817
X95363Y-54215
X95617Y-49770
X95617Y-65137
X95617Y-156958
X95871Y-88124
X96252Y-5193
X96252Y-75043
X96379Y-61327
X96379Y-159879
X96760Y-82536
X96887Y-46468
X97014Y-89902
X97141Y-31736
X97649Y-67677
X99046Y-171690
X100189Y-53961
X100316Y-59041
X101713Y-124192
X101713Y-131939
X101713Y-138035
X102729Y-5193
X103110Y-82790
X103364Y-108952
X103364Y-131812
X103491Y-105777
X104126Y-151878
X105015Y-121398
X105269Y-172071
X107809Y-22465
X108317Y-173468
X108444Y-120001
X109206Y-5193
X111238Y-16750
X111238Y-82028
X111365Y-30720
X111365Y-171944
X111746Y-152259
X112381Y-162800
X112381Y-164070
X113016Y-63359
X113651Y-67169
X114158Y-103365
X114158Y-124826
X114158Y-137274
X114158Y-158608
X114201Y-89988
X115683Y-151751
X115810Y-112000
X115810Y-119747
X115810Y-128510
X116064Y-5320
X116318Y-39102
X116445Y-61835
X116572Y-68185
X116699Y-43166
X118477Y-38848
X118858Y-65010
X118985Y-44309
X119239Y-152132
X119874Y-53580
X119874Y-106412
X120763Y-83679
X120890Y-120128
X121398Y-32879
X121525Y-38086
X121525Y-50278
X122033Y-27291
X122287Y-131812
X122668Y-62597
X122795Y-150100
X123811Y-5320
X124319Y-152259
X124446Y-15734
X124827Y-162800
X124827Y-164197
X124954Y-174230
X125589Y-24116
X125716Y-12686
X126478Y-160260
X126859Y-83679
X127240Y-122287
X129018Y-104634
X129145Y-111619
X129399Y-125208
X129907Y-84060
X129907Y-85457
X129907Y-108825
X130034Y-5320
X130415Y-97014
X130796Y-12178
X131304Y-23862
X131685Y-16115
X134352Y-174357
X134987Y-41261
X134987Y-51773
X134987Y-63613
X136130Y-15353
X136511Y-157466
X136638Y-69328
X137400Y-174103
X137527Y-5193
X137654Y-149973
X138035Y-109587
X138162Y-30466
X138543Y-23227
X139432Y-12432
X139559Y-95617
X139559Y-112254
X141312Y-102119
X141312Y-122439
X141845Y-29196
X142353Y-24878
X142353Y-143750
X142607Y-5193
X142734Y-15480
X143369Y-165213
X143623Y-32371
X143877Y-156958
X145528Y-56882
X145909Y-173976
X146036Y-39610
X146798Y-103237
X147306Y-12051
X147433Y-25513
X147687Y-32244
X150354Y-5193
X153148Y-101586
X153148Y-111238
X153275Y-96125
X153910Y-11797
X156069Y-16242
X156323Y-120382
X156704Y-127748
X157593Y-98411
X158101Y-114667
X158355Y-103110
X159625Y-5193
X160260Y-16115
X160641Y-12051
X160641Y-95744
X160768Y-21703
X165594Y-151116
X165848Y-67931
X165848Y-92950
X165975Y-160768
X170801Y-5320
X171690Y-98157
X172325Y-103745
X173595Y-11416
X173595Y-14210
X173849Y-42658
X173849Y-63486
X173976Y-79869
X174103Y-53326
X174357Y-59295
X174611Y-6844
X174611Y-17258
X174611Y-94093
X174992Y-85711
X174992Y-118985
X175119Y-82790
X175119Y-113651
X175373Y-126605
X175500Y-100443
X175881Y-133082
X176770Y-63867
X177151Y-58279
X177532Y-110730
X178548Y-72249
X183247Y-6717
X185533Y-32752
X185533Y-69963
X186803Y-126478
X187819Y-6463
X188835Y-67296
X189216Y-25640
X189343Y-77456
X189597Y-34657
X189597Y-40245
X189851Y-30720
X189978Y-72249
X190232Y-44563
X190486Y-81774
X190486Y-94474
X190613Y-126224
X190867Y-84441
X190867Y-117969
X190994Y-92442
X190994Y-110857
X192137Y-121398
X192772Y-70090
X194677Y-95617
X194804Y-102856
X195185Y-92950
X195439Y-158228
X196709Y-59930
X196836Y-6336
X197725Y-70979
X199630Y-126351
X200392Y-32879
X201027Y-6717
X202043Y-158736
X202424Y-113016
X202678Y-34784
X202678Y-125843
X202932Y-25259
X202932Y-30593
X203313Y-73646
X203440Y-15226
X203440Y-68058
X203440Y-118985
X203948Y-111873
X204075Y-91172
X204202Y-83298
X204202Y-94093
X207504Y-100316
X207504Y-111873
X207504Y-118985
X207631Y-158355
X207758Y-102983
X208266Y-90791
X208266Y-95109
X209790Y-93331
X209790Y-141845
X210298Y-72630
X210679Y-6463
X213473Y-170928
X213727Y-158355
X215124Y-35927
X215251Y-6590
X216521Y-70344
X216775Y-16496
X216775Y-32117
X216902Y-172579
X217029Y-127748
X217156Y-163816
X217664Y-14591
X217918Y-79615
X218172Y-74281
X218172Y-91045
X218172Y-151243
X218172Y-158609
X218299Y-67423
X218426Y-82790
X218553Y-94855
X218680Y-35927
X218680Y-46341
X219569Y-125589
X220458Y-168134
X222236Y-148322
X222998Y-6336
X223252Y-150735
X223633Y-174611
X225919Y-5320
X225919Y-170674
X226935Y-148576
X227824Y-69074
X227951Y-73011
X228332Y-33006
X228332Y-174484
X229094Y-126224
X229983Y-163816
X230110Y-150862
X230237Y-13321
X230745Y-20560
X231507Y-130669
X231634Y-69074
X231888Y-35419
X232269Y-25640
X232650Y-157339
X232904Y-73519
X232904Y-108952
X233031Y-47611
X233031Y-90283
X233158Y-42150
X233539Y-147941
X233793Y-126097
X234047Y-16369
X234047Y-101078
X234174Y-81012
X234174Y-143242
X234301Y-52564
X234301Y-164959
X234555Y-119493
X234555Y-153656
X234682Y-21957
X234682Y-66153
X234682Y-136892
X235063Y-130542
T4
X118628Y-173341
X121128Y-173341
T5
X25920Y-7460
X25920Y-10000
X28460Y-7460
X28460Y-10000
X31000Y-7460
X31000Y-10000
X156688Y-170060
X156688Y-172600
X159228Y-170060
X159228Y-172600
X161768Y-170060
X161768Y-172600
X164308Y-170060
X164308Y-172600
X166848Y-170060
X166848Y-172600
X169388Y-170060
X169388Y-172600
X171928Y-170060
X171928Y-172600
X174468Y-170060
X174468Y-172600
X177008Y-170060
X177008Y-172600
X179548Y-170060
X179548Y-172600
X182088Y-170060
X182088Y-172600
X184628Y-170060
X184628Y-172600
X187168Y-170060
X187168Y-172600
X189708Y-170060
X189708Y-172600
X192248Y-170060
X192248Y-172600
X194788Y-170060
X194788Y-172600
X197328Y-170060
X197328Y-172600
X199868Y-170060
X199868Y-172600
X202408Y-170060
X202408Y-172600
X204948Y-170060
X204948Y-172600
T6
X235000Y-175000
X131000Y-175000
X235000Y-5000
X235000Y-30000
X5000Y-175000
X131000Y-30000
X5000Y-5000
T0
M30
