G04 #@! TF.GenerationSoftware,KiCad,Pcbnew,(5.1.2)-1*
G04 #@! TF.CreationDate,2020-02-06T13:24:46+09:00*
G04 #@! TF.ProjectId,o2_breakout,6f325f62-7265-4616-9b6f-75742e6b6963,rev?*
G04 #@! TF.SameCoordinates,Original*
G04 #@! TF.FileFunction,Legend,Top*
G04 #@! TF.FilePolarity,Positive*
%FSLAX46Y46*%
G04 Gerber Fmt 4.6, Leading zero omitted, Abs format (unit mm)*
G04 Created by KiCad (PCBNEW (5.1.2)-1) date 2020-02-06 13:24:46*
%MOMM*%
%LPD*%
G04 APERTURE LIST*
%ADD10C,0.150000*%
%ADD11C,0.120000*%
%ADD12C,0.300000*%
%ADD13C,0.200000*%
%ADD14C,0.127000*%
%ADD15C,0.100000*%
%ADD16C,0.254000*%
G04 APERTURE END LIST*
D10*
X148781166Y-117482880D02*
X148781166Y-116482880D01*
X149162119Y-116482880D01*
X149257357Y-116530500D01*
X149304976Y-116578119D01*
X149352595Y-116673357D01*
X149352595Y-116816214D01*
X149304976Y-116911452D01*
X149257357Y-116959071D01*
X149162119Y-117006690D01*
X148781166Y-117006690D01*
X149781166Y-117482880D02*
X149781166Y-116816214D01*
X149781166Y-117006690D02*
X149828785Y-116911452D01*
X149876404Y-116863833D01*
X149971642Y-116816214D01*
X150066880Y-116816214D01*
X150543071Y-117482880D02*
X150447833Y-117435261D01*
X150400214Y-117387642D01*
X150352595Y-117292404D01*
X150352595Y-117006690D01*
X150400214Y-116911452D01*
X150447833Y-116863833D01*
X150543071Y-116816214D01*
X150685928Y-116816214D01*
X150781166Y-116863833D01*
X150828785Y-116911452D01*
X150876404Y-117006690D01*
X150876404Y-117292404D01*
X150828785Y-117387642D01*
X150781166Y-117435261D01*
X150685928Y-117482880D01*
X150543071Y-117482880D01*
X151162119Y-116816214D02*
X151543071Y-116816214D01*
X151304976Y-116482880D02*
X151304976Y-117340023D01*
X151352595Y-117435261D01*
X151447833Y-117482880D01*
X151543071Y-117482880D01*
X152019261Y-117482880D02*
X151924023Y-117435261D01*
X151876404Y-117387642D01*
X151828785Y-117292404D01*
X151828785Y-117006690D01*
X151876404Y-116911452D01*
X151924023Y-116863833D01*
X152019261Y-116816214D01*
X152162119Y-116816214D01*
X152257357Y-116863833D01*
X152304976Y-116911452D01*
X152352595Y-117006690D01*
X152352595Y-117292404D01*
X152304976Y-117387642D01*
X152257357Y-117435261D01*
X152162119Y-117482880D01*
X152019261Y-117482880D01*
X152638309Y-116816214D02*
X153019261Y-116816214D01*
X152781166Y-116482880D02*
X152781166Y-117340023D01*
X152828785Y-117435261D01*
X152924023Y-117482880D01*
X153019261Y-117482880D01*
X153257357Y-116816214D02*
X153495452Y-117482880D01*
X153733547Y-116816214D02*
X153495452Y-117482880D01*
X153400214Y-117720976D01*
X153352595Y-117768595D01*
X153257357Y-117816214D01*
X154114500Y-116816214D02*
X154114500Y-117816214D01*
X154114500Y-116863833D02*
X154209738Y-116816214D01*
X154400214Y-116816214D01*
X154495452Y-116863833D01*
X154543071Y-116911452D01*
X154590690Y-117006690D01*
X154590690Y-117292404D01*
X154543071Y-117387642D01*
X154495452Y-117435261D01*
X154400214Y-117482880D01*
X154209738Y-117482880D01*
X154114500Y-117435261D01*
X155400214Y-117435261D02*
X155304976Y-117482880D01*
X155114500Y-117482880D01*
X155019261Y-117435261D01*
X154971642Y-117340023D01*
X154971642Y-116959071D01*
X155019261Y-116863833D01*
X155114500Y-116816214D01*
X155304976Y-116816214D01*
X155400214Y-116863833D01*
X155447833Y-116959071D01*
X155447833Y-117054309D01*
X154971642Y-117149547D01*
X157066880Y-117482880D02*
X157066880Y-116959071D01*
X157019261Y-116863833D01*
X156924023Y-116816214D01*
X156733547Y-116816214D01*
X156638309Y-116863833D01*
X157066880Y-117435261D02*
X156971642Y-117482880D01*
X156733547Y-117482880D01*
X156638309Y-117435261D01*
X156590690Y-117340023D01*
X156590690Y-117244785D01*
X156638309Y-117149547D01*
X156733547Y-117101928D01*
X156971642Y-117101928D01*
X157066880Y-117054309D01*
X157543071Y-117482880D02*
X157543071Y-116816214D01*
X157543071Y-117006690D02*
X157590690Y-116911452D01*
X157638309Y-116863833D01*
X157733547Y-116816214D01*
X157828785Y-116816214D01*
X158543071Y-117435261D02*
X158447833Y-117482880D01*
X158257357Y-117482880D01*
X158162119Y-117435261D01*
X158114500Y-117340023D01*
X158114500Y-116959071D01*
X158162119Y-116863833D01*
X158257357Y-116816214D01*
X158447833Y-116816214D01*
X158543071Y-116863833D01*
X158590690Y-116959071D01*
X158590690Y-117054309D01*
X158114500Y-117149547D01*
X159447833Y-117482880D02*
X159447833Y-116959071D01*
X159400214Y-116863833D01*
X159304976Y-116816214D01*
X159114500Y-116816214D01*
X159019261Y-116863833D01*
X159447833Y-117435261D02*
X159352595Y-117482880D01*
X159114500Y-117482880D01*
X159019261Y-117435261D01*
X158971642Y-117340023D01*
X158971642Y-117244785D01*
X159019261Y-117149547D01*
X159114500Y-117101928D01*
X159352595Y-117101928D01*
X159447833Y-117054309D01*
D11*
X151361700Y-121333000D02*
X152301500Y-121333000D01*
X151831600Y-120863100D02*
X151361700Y-121333000D01*
X152301500Y-121333000D02*
X151831600Y-120863100D01*
D10*
X168219380Y-99942638D02*
X167743190Y-100275971D01*
X168219380Y-100514066D02*
X167219380Y-100514066D01*
X167219380Y-100133114D01*
X167267000Y-100037876D01*
X167314619Y-99990257D01*
X167409857Y-99942638D01*
X167552714Y-99942638D01*
X167647952Y-99990257D01*
X167695571Y-100037876D01*
X167743190Y-100133114D01*
X167743190Y-100514066D01*
X168219380Y-99609304D02*
X167552714Y-99085495D01*
X167552714Y-99609304D02*
X168219380Y-99085495D01*
X168730680Y-100521600D02*
X168730680Y-99921600D01*
X169730680Y-100221600D02*
X168730680Y-100221600D01*
X169730680Y-99671600D02*
X169064014Y-99121600D01*
X169064014Y-99671600D02*
X169730680Y-99121600D01*
D11*
X119214900Y-123850660D02*
X119214900Y-124063760D01*
X119214900Y-123200160D02*
X119214900Y-123454160D01*
X118808500Y-123860560D02*
X119621300Y-123860560D01*
X119570500Y-123454160D02*
X119214900Y-123850660D01*
X118859300Y-123454160D02*
X119570500Y-123454160D01*
X119214900Y-123850660D02*
X118859300Y-123454160D01*
D12*
X164561128Y-66071785D02*
X164561128Y-65214642D01*
X164561128Y-65643214D02*
X166061128Y-65643214D01*
X165846842Y-65500357D01*
X165703985Y-65357500D01*
X165632557Y-65214642D01*
X166061128Y-67000357D02*
X166061128Y-67143214D01*
X165989700Y-67286071D01*
X165918271Y-67357500D01*
X165775414Y-67428928D01*
X165489700Y-67500357D01*
X165132557Y-67500357D01*
X164846842Y-67428928D01*
X164703985Y-67357500D01*
X164632557Y-67286071D01*
X164561128Y-67143214D01*
X164561128Y-67000357D01*
X164632557Y-66857500D01*
X164703985Y-66786071D01*
X164846842Y-66714642D01*
X165132557Y-66643214D01*
X165489700Y-66643214D01*
X165775414Y-66714642D01*
X165918271Y-66786071D01*
X165989700Y-66857500D01*
X166061128Y-67000357D01*
X125007108Y-124726771D02*
X124935680Y-124869628D01*
X124792822Y-125012485D01*
X124578537Y-125226771D01*
X124507108Y-125369628D01*
X124507108Y-125512485D01*
X124864251Y-125441057D02*
X124792822Y-125583914D01*
X124649965Y-125726771D01*
X124364251Y-125798200D01*
X123864251Y-125798200D01*
X123578537Y-125726771D01*
X123435680Y-125583914D01*
X123364251Y-125441057D01*
X123364251Y-125155342D01*
X123435680Y-125012485D01*
X123578537Y-124869628D01*
X123864251Y-124798200D01*
X124364251Y-124798200D01*
X124649965Y-124869628D01*
X124792822Y-125012485D01*
X124864251Y-125155342D01*
X124864251Y-125441057D01*
X118885162Y-125749168D02*
X118885162Y-125249168D01*
X118099448Y-125034882D02*
X118099448Y-125749168D01*
X119599448Y-125749168D01*
X119599448Y-125034882D01*
D10*
X179241604Y-123587260D02*
X179860652Y-123587260D01*
X179527319Y-123968213D01*
X179670176Y-123968213D01*
X179765414Y-124015832D01*
X179813033Y-124063451D01*
X179860652Y-124158689D01*
X179860652Y-124396784D01*
X179813033Y-124492022D01*
X179765414Y-124539641D01*
X179670176Y-124587260D01*
X179384461Y-124587260D01*
X179289223Y-124539641D01*
X179241604Y-124492022D01*
X180146366Y-123587260D02*
X180479700Y-124587260D01*
X180813033Y-123587260D01*
X181051128Y-123587260D02*
X181670176Y-123587260D01*
X181336842Y-123968213D01*
X181479700Y-123968213D01*
X181574938Y-124015832D01*
X181622557Y-124063451D01*
X181670176Y-124158689D01*
X181670176Y-124396784D01*
X181622557Y-124492022D01*
X181574938Y-124539641D01*
X181479700Y-124587260D01*
X181193985Y-124587260D01*
X181098747Y-124539641D01*
X181051128Y-124492022D01*
D11*
X153984960Y-76309220D02*
X153984960Y-75496420D01*
X153324560Y-75902820D02*
X153578560Y-75902820D01*
X153975060Y-75902820D02*
X154188160Y-75902820D01*
X153975060Y-75902820D02*
X153578560Y-76258420D01*
X153578560Y-76258420D02*
X153578560Y-75547220D01*
X153578560Y-75547220D02*
X153975060Y-75902820D01*
X108615480Y-109001560D02*
X109077760Y-109463840D01*
X110743740Y-101333300D02*
X111140240Y-100977700D01*
X111140240Y-100977700D02*
X111140240Y-101688900D01*
X111140240Y-101688900D02*
X110743740Y-101333300D01*
X110733840Y-100926900D02*
X110733840Y-101739700D01*
X111394240Y-101333300D02*
X111140240Y-101333300D01*
X110743740Y-101333300D02*
X110530640Y-101333300D01*
X178805840Y-125206760D02*
X178450240Y-125603260D01*
X178092100Y-125204220D02*
X178803300Y-125204220D01*
X178450240Y-125603260D02*
X178094640Y-125206760D01*
X178450240Y-125603260D02*
X178450240Y-125816360D01*
X178447700Y-124950220D02*
X178447700Y-125204220D01*
X178051460Y-125633480D02*
X178864260Y-125633480D01*
X183558740Y-120604020D02*
X183088840Y-120134120D01*
X182618940Y-120604020D02*
X183558740Y-120604020D01*
X183088840Y-120134120D02*
X182618940Y-120604020D01*
X105579620Y-94259660D02*
X106049520Y-94729560D01*
X106049520Y-94729560D02*
X106519420Y-94259660D01*
X106519420Y-94259660D02*
X105579620Y-94259660D01*
X105486760Y-110687860D02*
X105016860Y-110217960D01*
X105016860Y-110217960D02*
X104546960Y-110687860D01*
X104546960Y-110687860D02*
X105486760Y-110687860D01*
X108621120Y-109003840D02*
X108151220Y-109473740D01*
X108151220Y-109473740D02*
X109091020Y-109473740D01*
X150429520Y-103159300D02*
X149959620Y-102689400D01*
X149959620Y-102689400D02*
X149489720Y-103159300D01*
X149489720Y-103159300D02*
X150429520Y-103159300D01*
X189148160Y-110315000D02*
X189618060Y-110784900D01*
X189626240Y-110779560D02*
X190096140Y-110309660D01*
X190087960Y-110315000D02*
X189148160Y-110315000D01*
X180349900Y-110436100D02*
X179880000Y-110906000D01*
X179880000Y-110906000D02*
X180349900Y-111375900D01*
X180349900Y-111375900D02*
X180349900Y-110436100D01*
X185633100Y-98167900D02*
X185163200Y-98637800D01*
X185163200Y-98637800D02*
X185633100Y-99107700D01*
X185633100Y-99107700D02*
X185633100Y-98167900D01*
X150396200Y-90300100D02*
X150866100Y-89830200D01*
X150866100Y-89830200D02*
X150396200Y-89360300D01*
X150396200Y-89360300D02*
X150396200Y-90300100D01*
D12*
X125966600Y-120768371D02*
X125966600Y-121839800D01*
X125895171Y-122054085D01*
X125752314Y-122196942D01*
X125538028Y-122268371D01*
X125395171Y-122268371D01*
X127466600Y-122268371D02*
X126609457Y-122268371D01*
X127038028Y-122268371D02*
X127038028Y-120768371D01*
X126895171Y-120982657D01*
X126752314Y-121125514D01*
X126609457Y-121196942D01*
X161814771Y-122397685D02*
X161814771Y-121469114D01*
X162386200Y-121969114D01*
X162386200Y-121754828D01*
X162457628Y-121611971D01*
X162529057Y-121540542D01*
X162671914Y-121469114D01*
X163029057Y-121469114D01*
X163171914Y-121540542D01*
X163243342Y-121611971D01*
X163314771Y-121754828D01*
X163314771Y-122183400D01*
X163243342Y-122326257D01*
X163171914Y-122397685D01*
X161814771Y-120540542D02*
X161814771Y-120397685D01*
X161886200Y-120254828D01*
X161957628Y-120183400D01*
X162100485Y-120111971D01*
X162386200Y-120040542D01*
X162743342Y-120040542D01*
X163029057Y-120111971D01*
X163171914Y-120183400D01*
X163243342Y-120254828D01*
X163314771Y-120397685D01*
X163314771Y-120540542D01*
X163243342Y-120683400D01*
X163171914Y-120754828D01*
X163029057Y-120826257D01*
X162743342Y-120897685D01*
X162386200Y-120897685D01*
X162100485Y-120826257D01*
X161957628Y-120754828D01*
X161886200Y-120683400D01*
X161814771Y-120540542D01*
X137889371Y-121545314D02*
X137889371Y-122402457D01*
X137889371Y-121973885D02*
X136389371Y-121973885D01*
X136603657Y-122116742D01*
X136746514Y-122259600D01*
X136817942Y-122402457D01*
X136389371Y-120616742D02*
X136389371Y-120473885D01*
X136460800Y-120331028D01*
X136532228Y-120259600D01*
X136675085Y-120188171D01*
X136960800Y-120116742D01*
X137317942Y-120116742D01*
X137603657Y-120188171D01*
X137746514Y-120259600D01*
X137817942Y-120331028D01*
X137889371Y-120473885D01*
X137889371Y-120616742D01*
X137817942Y-120759600D01*
X137746514Y-120831028D01*
X137603657Y-120902457D01*
X137317942Y-120973885D01*
X136960800Y-120973885D01*
X136675085Y-120902457D01*
X136532228Y-120831028D01*
X136460800Y-120759600D01*
X136389371Y-120616742D01*
X149308428Y-122377057D02*
X149237000Y-122305628D01*
X149165571Y-122162771D01*
X149165571Y-121805628D01*
X149237000Y-121662771D01*
X149308428Y-121591342D01*
X149451285Y-121519914D01*
X149594142Y-121519914D01*
X149808428Y-121591342D01*
X150665571Y-122448485D01*
X150665571Y-121519914D01*
X149165571Y-120591342D02*
X149165571Y-120448485D01*
X149237000Y-120305628D01*
X149308428Y-120234200D01*
X149451285Y-120162771D01*
X149737000Y-120091342D01*
X150094142Y-120091342D01*
X150379857Y-120162771D01*
X150522714Y-120234200D01*
X150594142Y-120305628D01*
X150665571Y-120448485D01*
X150665571Y-120591342D01*
X150594142Y-120734200D01*
X150522714Y-120805628D01*
X150379857Y-120877057D01*
X150094142Y-120948485D01*
X149737000Y-120948485D01*
X149451285Y-120877057D01*
X149308428Y-120805628D01*
X149237000Y-120734200D01*
X149165571Y-120591342D01*
X175014771Y-121637371D02*
X176014771Y-121637371D01*
X174443342Y-121994514D02*
X175514771Y-122351657D01*
X175514771Y-121423085D01*
X174514771Y-120565942D02*
X174514771Y-120423085D01*
X174586200Y-120280228D01*
X174657628Y-120208800D01*
X174800485Y-120137371D01*
X175086200Y-120065942D01*
X175443342Y-120065942D01*
X175729057Y-120137371D01*
X175871914Y-120208800D01*
X175943342Y-120280228D01*
X176014771Y-120423085D01*
X176014771Y-120565942D01*
X175943342Y-120708800D01*
X175871914Y-120780228D01*
X175729057Y-120851657D01*
X175443342Y-120923085D01*
X175086200Y-120923085D01*
X174800485Y-120851657D01*
X174657628Y-120780228D01*
X174586200Y-120708800D01*
X174514771Y-120565942D01*
X127448428Y-66398828D02*
X126448428Y-66398828D01*
X128019857Y-66041685D02*
X126948428Y-65684542D01*
X126948428Y-66613114D01*
X127948428Y-67470257D02*
X127948428Y-67613114D01*
X127877000Y-67755971D01*
X127805571Y-67827400D01*
X127662714Y-67898828D01*
X127377000Y-67970257D01*
X127019857Y-67970257D01*
X126734142Y-67898828D01*
X126591285Y-67827400D01*
X126519857Y-67755971D01*
X126448428Y-67613114D01*
X126448428Y-67470257D01*
X126519857Y-67327400D01*
X126591285Y-67255971D01*
X126734142Y-67184542D01*
X127019857Y-67113114D01*
X127377000Y-67113114D01*
X127662714Y-67184542D01*
X127805571Y-67255971D01*
X127877000Y-67327400D01*
X127948428Y-67470257D01*
X140623028Y-65663914D02*
X140623028Y-66592485D01*
X140051600Y-66092485D01*
X140051600Y-66306771D01*
X139980171Y-66449628D01*
X139908742Y-66521057D01*
X139765885Y-66592485D01*
X139408742Y-66592485D01*
X139265885Y-66521057D01*
X139194457Y-66449628D01*
X139123028Y-66306771D01*
X139123028Y-65878200D01*
X139194457Y-65735342D01*
X139265885Y-65663914D01*
X140623028Y-67521057D02*
X140623028Y-67663914D01*
X140551600Y-67806771D01*
X140480171Y-67878200D01*
X140337314Y-67949628D01*
X140051600Y-68021057D01*
X139694457Y-68021057D01*
X139408742Y-67949628D01*
X139265885Y-67878200D01*
X139194457Y-67806771D01*
X139123028Y-67663914D01*
X139123028Y-67521057D01*
X139194457Y-67378200D01*
X139265885Y-67306771D01*
X139408742Y-67235342D01*
X139694457Y-67163914D01*
X140051600Y-67163914D01*
X140337314Y-67235342D01*
X140480171Y-67306771D01*
X140551600Y-67378200D01*
X140623028Y-67521057D01*
X179192928Y-61857000D02*
X178121500Y-61857000D01*
X177907214Y-61785571D01*
X177764357Y-61642714D01*
X177692928Y-61428428D01*
X177692928Y-61285571D01*
X179050071Y-62499857D02*
X179121500Y-62571285D01*
X179192928Y-62714142D01*
X179192928Y-63071285D01*
X179121500Y-63214142D01*
X179050071Y-63285571D01*
X178907214Y-63357000D01*
X178764357Y-63357000D01*
X178550071Y-63285571D01*
X177692928Y-62428428D01*
X177692928Y-63357000D01*
X153129371Y-65633742D02*
X153200800Y-65705171D01*
X153272228Y-65848028D01*
X153272228Y-66205171D01*
X153200800Y-66348028D01*
X153129371Y-66419457D01*
X152986514Y-66490885D01*
X152843657Y-66490885D01*
X152629371Y-66419457D01*
X151772228Y-65562314D01*
X151772228Y-66490885D01*
X153272228Y-67419457D02*
X153272228Y-67562314D01*
X153200800Y-67705171D01*
X153129371Y-67776600D01*
X152986514Y-67848028D01*
X152700800Y-67919457D01*
X152343657Y-67919457D01*
X152057942Y-67848028D01*
X151915085Y-67776600D01*
X151843657Y-67705171D01*
X151772228Y-67562314D01*
X151772228Y-67419457D01*
X151843657Y-67276600D01*
X151915085Y-67205171D01*
X152057942Y-67133742D01*
X152343657Y-67062314D01*
X152700800Y-67062314D01*
X152986514Y-67133742D01*
X153129371Y-67205171D01*
X153200800Y-67276600D01*
X153272228Y-67419457D01*
D13*
X121465879Y-59436997D02*
X121503974Y-59389378D01*
X121618260Y-59341759D01*
X121694450Y-59341759D01*
X121808736Y-59389378D01*
X121884926Y-59484616D01*
X121923021Y-59579854D01*
X121961117Y-59770330D01*
X121961117Y-59913187D01*
X121923021Y-60103663D01*
X121884926Y-60198901D01*
X121808736Y-60294140D01*
X121694450Y-60341759D01*
X121618260Y-60341759D01*
X121503974Y-60294140D01*
X121465879Y-60246520D01*
X121123021Y-59341759D02*
X121123021Y-60341759D01*
X120818260Y-60341759D01*
X120742069Y-60294140D01*
X120703974Y-60246520D01*
X120665879Y-60151282D01*
X120665879Y-60008425D01*
X120703974Y-59913187D01*
X120742069Y-59865568D01*
X120818260Y-59817949D01*
X121123021Y-59817949D01*
X120323021Y-60341759D02*
X120323021Y-59532235D01*
X120284926Y-59436997D01*
X120246831Y-59389378D01*
X120170640Y-59341759D01*
X120018260Y-59341759D01*
X119942069Y-59389378D01*
X119903974Y-59436997D01*
X119865879Y-59532235D01*
X119865879Y-60341759D01*
X119523021Y-60246520D02*
X119484926Y-60294140D01*
X119408736Y-60341759D01*
X119218260Y-60341759D01*
X119142069Y-60294140D01*
X119103974Y-60246520D01*
X119065879Y-60151282D01*
X119065879Y-60056044D01*
X119103974Y-59913187D01*
X119561117Y-59341759D01*
X119065879Y-59341759D01*
X118684926Y-59341759D02*
X118532545Y-59341759D01*
X118456355Y-59389378D01*
X118418260Y-59436997D01*
X118342069Y-59579854D01*
X118303974Y-59770330D01*
X118303974Y-60151282D01*
X118342069Y-60246520D01*
X118380164Y-60294140D01*
X118456355Y-60341759D01*
X118608736Y-60341759D01*
X118684926Y-60294140D01*
X118723021Y-60246520D01*
X118761117Y-60151282D01*
X118761117Y-59913187D01*
X118723021Y-59817949D01*
X118684926Y-59770330D01*
X118608736Y-59722711D01*
X118456355Y-59722711D01*
X118380164Y-59770330D01*
X118342069Y-59817949D01*
X118303974Y-59913187D01*
X117808736Y-60341759D02*
X117732545Y-60341759D01*
X117656355Y-60294140D01*
X117618260Y-60246520D01*
X117580164Y-60151282D01*
X117542069Y-59960806D01*
X117542069Y-59722711D01*
X117580164Y-59532235D01*
X117618260Y-59436997D01*
X117656355Y-59389378D01*
X117732545Y-59341759D01*
X117808736Y-59341759D01*
X117884926Y-59389378D01*
X117923021Y-59436997D01*
X117961117Y-59532235D01*
X117999212Y-59722711D01*
X117999212Y-59960806D01*
X117961117Y-60151282D01*
X117923021Y-60246520D01*
X117884926Y-60294140D01*
X117808736Y-60341759D01*
X117084926Y-59913187D02*
X117161117Y-59960806D01*
X117199212Y-60008425D01*
X117237307Y-60103663D01*
X117237307Y-60151282D01*
X117199212Y-60246520D01*
X117161117Y-60294140D01*
X117084926Y-60341759D01*
X116932545Y-60341759D01*
X116856355Y-60294140D01*
X116818260Y-60246520D01*
X116780164Y-60151282D01*
X116780164Y-60103663D01*
X116818260Y-60008425D01*
X116856355Y-59960806D01*
X116932545Y-59913187D01*
X117084926Y-59913187D01*
X117161117Y-59865568D01*
X117199212Y-59817949D01*
X117237307Y-59722711D01*
X117237307Y-59532235D01*
X117199212Y-59436997D01*
X117161117Y-59389378D01*
X117084926Y-59341759D01*
X116932545Y-59341759D01*
X116856355Y-59389378D01*
X116818260Y-59436997D01*
X116780164Y-59532235D01*
X116780164Y-59722711D01*
X116818260Y-59817949D01*
X116856355Y-59865568D01*
X116932545Y-59913187D01*
X115903974Y-60341759D02*
X115370640Y-59341759D01*
X115370640Y-60341759D02*
X115903974Y-59341759D01*
X114913498Y-60341759D02*
X114761117Y-60341759D01*
X114684926Y-60294140D01*
X114608736Y-60198901D01*
X114570640Y-60008425D01*
X114570640Y-59675092D01*
X114608736Y-59484616D01*
X114684926Y-59389378D01*
X114761117Y-59341759D01*
X114913498Y-59341759D01*
X114989688Y-59389378D01*
X115065879Y-59484616D01*
X115103974Y-59675092D01*
X115103974Y-60008425D01*
X115065879Y-60198901D01*
X114989688Y-60294140D01*
X114913498Y-60341759D01*
X114265879Y-60246520D02*
X114227783Y-60294140D01*
X114151593Y-60341759D01*
X113961117Y-60341759D01*
X113884926Y-60294140D01*
X113846831Y-60246520D01*
X113808736Y-60151282D01*
X113808736Y-60056044D01*
X113846831Y-59913187D01*
X114303974Y-59341759D01*
X113808736Y-59341759D01*
X112399212Y-59341759D02*
X112665879Y-59817949D01*
X112856355Y-59341759D02*
X112856355Y-60341759D01*
X112551593Y-60341759D01*
X112475402Y-60294140D01*
X112437307Y-60246520D01*
X112399212Y-60151282D01*
X112399212Y-60008425D01*
X112437307Y-59913187D01*
X112475402Y-59865568D01*
X112551593Y-59817949D01*
X112856355Y-59817949D01*
X111751593Y-59389378D02*
X111827783Y-59341759D01*
X111980164Y-59341759D01*
X112056355Y-59389378D01*
X112094450Y-59484616D01*
X112094450Y-59865568D01*
X112056355Y-59960806D01*
X111980164Y-60008425D01*
X111827783Y-60008425D01*
X111751593Y-59960806D01*
X111713498Y-59865568D01*
X111713498Y-59770330D01*
X112094450Y-59675092D01*
X111446831Y-60008425D02*
X111256355Y-59341759D01*
X111065879Y-60008425D01*
X110761117Y-59436997D02*
X110723021Y-59389378D01*
X110761117Y-59341759D01*
X110799212Y-59389378D01*
X110761117Y-59436997D01*
X110761117Y-59341759D01*
X110418260Y-59627473D02*
X110037307Y-59627473D01*
X110494450Y-59341759D02*
X110227783Y-60341759D01*
X109961117Y-59341759D01*
X109732545Y-60246520D02*
X109694450Y-60294140D01*
X109618260Y-60341759D01*
X109427783Y-60341759D01*
X109351593Y-60294140D01*
X109313498Y-60246520D01*
X109275402Y-60151282D01*
X109275402Y-60056044D01*
X109313498Y-59913187D01*
X109770640Y-59341759D01*
X109275402Y-59341759D01*
D11*
X117459200Y-95430600D02*
X117459200Y-96370400D01*
X117929100Y-95900500D02*
X117459200Y-95430600D01*
X117459200Y-96370400D02*
X117929100Y-95900500D01*
X138477700Y-70729100D02*
X138947600Y-70259200D01*
X138007800Y-70259200D02*
X138477700Y-70729100D01*
X138947600Y-70259200D02*
X138007800Y-70259200D01*
D13*
X190098220Y-103713440D02*
G75*
G03X190098220Y-103713440I-100000J0D01*
G01*
D11*
X168554300Y-104423400D02*
X168554300Y-104923400D01*
X169494300Y-104923400D02*
X169494300Y-104423400D01*
X167411300Y-104423400D02*
X167411300Y-104923400D01*
X168351300Y-104923400D02*
X168351300Y-104423400D01*
X111164000Y-118634000D02*
X111164000Y-114134000D01*
X107164000Y-119884000D02*
X108664000Y-119884000D01*
X104664000Y-114134000D02*
X104664000Y-118634000D01*
X108664000Y-112884000D02*
X107164000Y-112884000D01*
X104583600Y-76895200D02*
X104583600Y-81395200D01*
X108583600Y-75645200D02*
X107083600Y-75645200D01*
X111083600Y-81395200D02*
X111083600Y-76895200D01*
X107083600Y-82645200D02*
X108583600Y-82645200D01*
X104542400Y-85229600D02*
X104042400Y-85229600D01*
X104042400Y-86169600D02*
X104542400Y-86169600D01*
D14*
X192576500Y-87986000D02*
X190976500Y-87986000D01*
D13*
X178426500Y-78236000D02*
G75*
G03X178426500Y-78236000I-250000J0D01*
G01*
D14*
X179426500Y-74136000D02*
X193576500Y-74136000D01*
X179426500Y-75986000D02*
X179426500Y-74136000D01*
X179426500Y-87986000D02*
X179976500Y-87986000D01*
X179426500Y-87536000D02*
X179426500Y-87986000D01*
X200476500Y-86986000D02*
G75*
G03X200976500Y-86486000I0J500000D01*
G01*
X196976500Y-86986000D02*
X200476500Y-86986000D01*
X196476500Y-86986000D02*
G75*
G03X196976500Y-86486000I0J500000D01*
G01*
X196176500Y-86986000D02*
X196476500Y-86986000D01*
X195676500Y-86986000D02*
G75*
G03X196176500Y-86486000I0J500000D01*
G01*
X195376500Y-86986000D02*
X195676500Y-86986000D01*
X200476500Y-75986000D02*
G75*
G02X200976500Y-76486000I0J-500000D01*
G01*
X196976500Y-75986000D02*
X200476500Y-75986000D01*
X196476500Y-75986000D02*
G75*
G02X196976500Y-76486000I0J-500000D01*
G01*
X196176500Y-75986000D02*
X196476500Y-75986000D01*
X195676500Y-75986000D02*
G75*
G02X196176500Y-76486000I0J-500000D01*
G01*
X195376500Y-75986000D02*
X195676500Y-75986000D01*
X200976500Y-76486000D02*
X200976500Y-86486000D01*
X195376500Y-86986000D02*
X195376500Y-75986000D01*
X196976500Y-86986000D02*
X196476500Y-86986000D01*
X196976500Y-86486000D02*
X196976500Y-86986000D01*
X196976500Y-76486000D02*
X196976500Y-86486000D01*
X196976500Y-75986000D02*
X196976500Y-76486000D01*
X196476500Y-75986000D02*
X196976500Y-75986000D01*
X196176500Y-86986000D02*
X195676500Y-86986000D01*
X196176500Y-86486000D02*
X196176500Y-86986000D01*
X196176500Y-76486000D02*
X196176500Y-86486000D01*
X196176500Y-75986000D02*
X196176500Y-76486000D01*
X195676500Y-75986000D02*
X196176500Y-75986000D01*
D10*
X149283980Y-100660020D02*
X149333980Y-100660020D01*
X149283980Y-96510020D02*
X149428980Y-96510020D01*
X154433980Y-96510020D02*
X154288980Y-96510020D01*
X154433980Y-100660020D02*
X154288980Y-100660020D01*
X149283980Y-100660020D02*
X149283980Y-96510020D01*
X154433980Y-100660020D02*
X154433980Y-96510020D01*
X149333980Y-100660020D02*
X149333980Y-102060020D01*
D11*
X139025000Y-72086000D02*
X139025000Y-71726000D01*
X139525000Y-72086000D02*
X139025000Y-72086000D01*
X139525000Y-77676000D02*
X139525000Y-72486000D01*
X139525000Y-83266000D02*
X139025000Y-83266000D01*
X139525000Y-77676000D02*
X139525000Y-82866000D01*
X115815000Y-72486000D02*
X116315000Y-72486000D01*
X115815000Y-77676000D02*
X115815000Y-72486000D01*
X115815000Y-82866000D02*
X116315000Y-82866000D01*
X115815000Y-77676000D02*
X115815000Y-82866000D01*
X183113160Y-95019420D02*
X182413160Y-95019420D01*
X182413160Y-93819420D02*
X183113160Y-93819420D01*
X182776420Y-105298760D02*
X182776420Y-105998760D01*
X181576420Y-105998760D02*
X181576420Y-105298760D01*
X185731900Y-104371700D02*
X185031900Y-104371700D01*
X185031900Y-103171700D02*
X185731900Y-103171700D01*
X184248540Y-102626720D02*
X183548540Y-102626720D01*
X183548540Y-101426720D02*
X184248540Y-101426720D01*
X108872800Y-106500700D02*
X108872800Y-108400700D01*
X111192800Y-107900700D02*
X111192800Y-106500700D01*
X187572780Y-95873200D02*
X186572780Y-95873200D01*
X186572780Y-97573200D02*
X187572780Y-97573200D01*
X178885440Y-114732580D02*
X178885440Y-114462580D01*
X178885440Y-114462580D02*
X182485440Y-114462580D01*
X182485440Y-114462580D02*
X182485440Y-114732580D01*
X178885440Y-117432580D02*
X178885440Y-116892580D01*
X183485440Y-119592580D02*
X182485440Y-119592580D01*
X182485440Y-119592580D02*
X182485440Y-119862580D01*
X182485440Y-119862580D02*
X178885440Y-119862580D01*
X178885440Y-119862580D02*
X178885440Y-119592580D01*
X182485440Y-116892580D02*
X182485440Y-117432580D01*
X182485440Y-117432580D02*
X183485440Y-117432580D01*
D15*
X178390000Y-105070000D02*
X178390000Y-104570000D01*
X178390000Y-104570000D02*
X177890000Y-104570000D01*
X171190000Y-105070000D02*
X171190000Y-104570000D01*
X171190000Y-104570000D02*
X171690000Y-104570000D01*
X171690000Y-111770000D02*
X171190000Y-111770000D01*
X171190000Y-111770000D02*
X171190000Y-111270000D01*
X177890000Y-111770000D02*
X178390000Y-111270000D01*
X178390000Y-111270000D02*
X178390000Y-111170000D01*
X178390000Y-111170000D02*
X178890000Y-111170000D01*
D10*
X190319100Y-112733000D02*
X190269100Y-112733000D01*
X190319100Y-116883000D02*
X190174100Y-116883000D01*
X185169100Y-116883000D02*
X185314100Y-116883000D01*
X185169100Y-112733000D02*
X185314100Y-112733000D01*
X190319100Y-112733000D02*
X190319100Y-116883000D01*
X185169100Y-112733000D02*
X185169100Y-116883000D01*
X190269100Y-112733000D02*
X190269100Y-111333000D01*
D11*
X149267280Y-83263360D02*
X149267280Y-82263360D01*
X147567280Y-82263360D02*
X147567280Y-83263360D01*
X149926600Y-78974200D02*
X149926600Y-79674200D01*
X148726600Y-79674200D02*
X148726600Y-78974200D01*
X150609400Y-82524500D02*
X150609400Y-82024500D01*
X149669400Y-82024500D02*
X149669400Y-82524500D01*
X155329700Y-77889000D02*
X154829700Y-77889000D01*
X154829700Y-78829000D02*
X155329700Y-78829000D01*
X147806600Y-75603200D02*
X148306600Y-75603200D01*
X148306600Y-74663200D02*
X147806600Y-74663200D01*
X158229200Y-75289600D02*
X158229200Y-75789600D01*
X159169200Y-75789600D02*
X159169200Y-75289600D01*
X176500600Y-87718800D02*
X176000600Y-87718800D01*
X176000600Y-88658800D02*
X176500600Y-88658800D01*
X186497480Y-109097520D02*
X187197480Y-109097520D01*
X187197480Y-110297520D02*
X186497480Y-110297520D01*
X111270160Y-128342760D02*
X112270160Y-128342760D01*
X112270160Y-126642760D02*
X111270160Y-126642760D01*
X184107780Y-68706200D02*
X185497780Y-68706200D01*
X184107780Y-68706200D02*
X184107780Y-68581200D01*
X185497780Y-68706200D02*
X185497780Y-68581200D01*
X184107780Y-68706200D02*
X184194504Y-68706200D01*
X185411056Y-68706200D02*
X185497780Y-68706200D01*
X184107780Y-68021200D02*
X184107780Y-67336200D01*
X184107780Y-67336200D02*
X184802780Y-67336200D01*
D15*
X104306100Y-107163100D02*
X104606100Y-107163100D01*
X104306100Y-107538100D02*
X104306100Y-107163100D01*
X107606100Y-107163100D02*
X107606100Y-107613100D01*
X107306100Y-107163100D02*
X107606100Y-107163100D01*
X107381100Y-107163100D02*
X107256100Y-107163100D01*
X107606100Y-108813100D02*
X107256100Y-108813100D01*
X107606100Y-108338100D02*
X107606100Y-108813100D01*
X104631100Y-108813100D02*
X104631100Y-109588100D01*
X104581100Y-108813100D02*
X104631100Y-108813100D01*
X104306100Y-108438100D02*
X104581100Y-108813100D01*
X104306100Y-108163100D02*
X104306100Y-108438100D01*
D11*
X109191200Y-100074600D02*
X109191200Y-100464600D01*
X109191200Y-100464600D02*
X105591200Y-100464600D01*
X105591200Y-100464600D02*
X105591200Y-100074600D01*
X109191200Y-97394600D02*
X109191200Y-98134600D01*
X104891200Y-95454600D02*
X105591200Y-95454600D01*
X105591200Y-95454600D02*
X105591200Y-95064600D01*
X105591200Y-95064600D02*
X109191200Y-95064600D01*
X109191200Y-95064600D02*
X109191200Y-95454600D01*
X105591200Y-98134600D02*
X105591200Y-97394600D01*
X105591200Y-97394600D02*
X104891200Y-97394600D01*
X150922800Y-93581120D02*
X150422800Y-93581120D01*
X150422800Y-94521120D02*
X150922800Y-94521120D01*
X178665580Y-96595680D02*
X178665580Y-95895680D01*
X179865580Y-95895680D02*
X179865580Y-96595680D01*
X166687600Y-103907400D02*
X166687600Y-103407400D01*
X165747600Y-103407400D02*
X165747600Y-103907400D01*
X166335900Y-109461400D02*
X166835900Y-109461400D01*
X166835900Y-108521400D02*
X166335900Y-108521400D01*
X166348600Y-108254900D02*
X166848600Y-108254900D01*
X166848600Y-107314900D02*
X166348600Y-107314900D01*
X166335900Y-107048400D02*
X166835900Y-107048400D01*
X166835900Y-106108400D02*
X166335900Y-106108400D01*
X123211400Y-126352200D02*
X122711400Y-126352200D01*
X122711400Y-127292200D02*
X123211400Y-127292200D01*
X106633200Y-105651400D02*
X107133200Y-105651400D01*
X107133200Y-104711400D02*
X106633200Y-104711400D01*
X119739600Y-127266800D02*
X120239600Y-127266800D01*
X120239600Y-126326800D02*
X119739600Y-126326800D01*
X106633200Y-103327300D02*
X107133200Y-103327300D01*
X107133200Y-102387300D02*
X106633200Y-102387300D01*
X155800500Y-75699100D02*
X155800500Y-74999100D01*
X157000500Y-74999100D02*
X157000500Y-75699100D01*
X174888600Y-82546940D02*
X174888600Y-81846940D01*
X176088600Y-81846940D02*
X176088600Y-82546940D01*
X174433600Y-82983200D02*
X174433600Y-81983200D01*
X172733600Y-81983200D02*
X172733600Y-82983200D01*
X181275800Y-120408600D02*
X180775800Y-120408600D01*
X180775800Y-121348600D02*
X181275800Y-121348600D01*
X188063620Y-128575360D02*
X187363620Y-128575360D01*
X187363620Y-127375360D02*
X188063620Y-127375360D01*
X188556000Y-100576000D02*
X188556000Y-99576000D01*
X186856000Y-99576000D02*
X186856000Y-100576000D01*
X114299440Y-117969780D02*
X114299440Y-117269780D01*
X115499440Y-117269780D02*
X115499440Y-117969780D01*
X131245800Y-91859200D02*
X131745800Y-91859200D01*
X131745800Y-90919200D02*
X131245800Y-90919200D01*
D16*
X161483355Y-73147545D02*
G75*
G03X161483355Y-73147545I-58665J0D01*
G01*
X169676020Y-75239880D02*
G75*
G03X169676020Y-75239880I-3400000J0D01*
G01*
D11*
X122977200Y-124110000D02*
X122977200Y-124810000D01*
X121777200Y-124810000D02*
X121777200Y-124110000D01*
X110433600Y-104892400D02*
X109733600Y-104892400D01*
X109733600Y-103692400D02*
X110433600Y-103692400D01*
X121148400Y-124110000D02*
X121148400Y-124810000D01*
X119948400Y-124810000D02*
X119948400Y-124110000D01*
X110445600Y-103165200D02*
X109745600Y-103165200D01*
X109745600Y-101965200D02*
X110445600Y-101965200D01*
X181917900Y-125870220D02*
X181917900Y-126570220D01*
X180717900Y-126570220D02*
X180717900Y-125870220D01*
X180292300Y-125870220D02*
X180292300Y-126570220D01*
X179092300Y-126570220D02*
X179092300Y-125870220D01*
X103949600Y-95677800D02*
X103949600Y-95177800D01*
X103009600Y-95177800D02*
X103009600Y-95677800D01*
X154096200Y-75237900D02*
X153396200Y-75237900D01*
X153396200Y-74037900D02*
X154096200Y-74037900D01*
X118977600Y-93002200D02*
X119477600Y-93002200D01*
X119477600Y-92062200D02*
X118977600Y-92062200D01*
X183296460Y-107931140D02*
X183296460Y-108431140D01*
X184236460Y-108431140D02*
X184236460Y-107931140D01*
X111476600Y-109346900D02*
X110976600Y-109346900D01*
X110976600Y-110286900D02*
X111476600Y-110286900D01*
X185455000Y-107553240D02*
X185455000Y-106853240D01*
X186655000Y-106853240D02*
X186655000Y-107553240D01*
X174269500Y-115248500D02*
X174269500Y-114748500D01*
X173329500Y-114748500D02*
X173329500Y-115248500D01*
X184290780Y-99600920D02*
X183790780Y-99600920D01*
X183790780Y-100540920D02*
X184290780Y-100540920D01*
X190725960Y-118187660D02*
X190725960Y-118687660D01*
X191665960Y-118687660D02*
X191665960Y-118187660D01*
X177346800Y-103124100D02*
X177846800Y-103124100D01*
X177846800Y-102184100D02*
X177346800Y-102184100D01*
X118202900Y-112128400D02*
X118702900Y-112128400D01*
X118702900Y-111188400D02*
X118202900Y-111188400D01*
X147459600Y-94822200D02*
X147459600Y-95322200D01*
X148399600Y-95322200D02*
X148399600Y-94822200D01*
X134201000Y-112213200D02*
X134201000Y-111713200D01*
X133261000Y-111713200D02*
X133261000Y-112213200D01*
D10*
X151130500Y-88853500D02*
X151380500Y-88853500D01*
X151130500Y-81103500D02*
X151465500Y-81103500D01*
X164280500Y-81103500D02*
X163945500Y-81103500D01*
X164280500Y-88853500D02*
X163945500Y-88853500D01*
X151130500Y-88853500D02*
X151130500Y-81103500D01*
X164280500Y-88853500D02*
X164280500Y-81103500D01*
X151380500Y-88853500D02*
X151380500Y-90653500D01*
D11*
X113986500Y-101625500D02*
X114486500Y-101625500D01*
X114486500Y-100685500D02*
X113986500Y-100685500D01*
X183983200Y-95710100D02*
X182183200Y-95710100D01*
X182183200Y-98930100D02*
X184633200Y-98930100D01*
D15*
X134262000Y-94760000D02*
X133962000Y-94760000D01*
X134262000Y-94760000D02*
X134262000Y-95010000D01*
X134262000Y-108960000D02*
X134262000Y-108660000D01*
X134262000Y-108960000D02*
X134012000Y-108960000D01*
X120062000Y-108960000D02*
X120412000Y-108960000D01*
X120062000Y-108960000D02*
X120062000Y-108660000D01*
X120062000Y-95660000D02*
X118787000Y-95660000D01*
X120062000Y-95335000D02*
X120062000Y-95660000D01*
X120637000Y-94760000D02*
X120062000Y-95335000D01*
X120637000Y-94760000D02*
X120937000Y-94760000D01*
D11*
X125746200Y-59630000D02*
X125746200Y-64830000D01*
X174066200Y-59630000D02*
X125746200Y-59630000D01*
X176666200Y-64830000D02*
X125746200Y-64830000D01*
X174066200Y-59630000D02*
X174066200Y-62230000D01*
X174066200Y-62230000D02*
X176666200Y-62230000D01*
X176666200Y-62230000D02*
X176666200Y-64830000D01*
X175336200Y-59630000D02*
X176666200Y-59630000D01*
X176666200Y-59630000D02*
X176666200Y-60960000D01*
X125746200Y-128330000D02*
X125746200Y-127000000D01*
X127076200Y-128330000D02*
X125746200Y-128330000D01*
X125746200Y-125730000D02*
X125746200Y-123130000D01*
X128346200Y-125730000D02*
X125746200Y-125730000D01*
X128346200Y-128330000D02*
X128346200Y-125730000D01*
X125746200Y-123130000D02*
X176666200Y-123130000D01*
X128346200Y-128330000D02*
X176666200Y-128330000D01*
X176666200Y-128330000D02*
X176666200Y-123130000D01*
D10*
X193626146Y-98502220D02*
X193626146Y-99216506D01*
X193578527Y-99359363D01*
X193483289Y-99454601D01*
X193340432Y-99502220D01*
X193245194Y-99502220D01*
X194007099Y-98502220D02*
X194626146Y-98502220D01*
X194292813Y-98883173D01*
X194435670Y-98883173D01*
X194530908Y-98930792D01*
X194578527Y-98978411D01*
X194626146Y-99073649D01*
X194626146Y-99311744D01*
X194578527Y-99406982D01*
X194530908Y-99454601D01*
X194435670Y-99502220D01*
X194149956Y-99502220D01*
X194054718Y-99454601D01*
X194007099Y-99406982D01*
X169667180Y-102566695D02*
X168667180Y-102566695D01*
X168667180Y-102328600D01*
X168714800Y-102185742D01*
X168810038Y-102090504D01*
X168905276Y-102042885D01*
X169095752Y-101995266D01*
X169238609Y-101995266D01*
X169429085Y-102042885D01*
X169524323Y-102090504D01*
X169619561Y-102185742D01*
X169667180Y-102328600D01*
X169667180Y-102566695D01*
X169095752Y-101423838D02*
X169048133Y-101519076D01*
X169000514Y-101566695D01*
X168905276Y-101614314D01*
X168857657Y-101614314D01*
X168762419Y-101566695D01*
X168714800Y-101519076D01*
X168667180Y-101423838D01*
X168667180Y-101233361D01*
X168714800Y-101138123D01*
X168762419Y-101090504D01*
X168857657Y-101042885D01*
X168905276Y-101042885D01*
X169000514Y-101090504D01*
X169048133Y-101138123D01*
X169095752Y-101233361D01*
X169095752Y-101423838D01*
X169143371Y-101519076D01*
X169190990Y-101566695D01*
X169286228Y-101614314D01*
X169476704Y-101614314D01*
X169571942Y-101566695D01*
X169619561Y-101519076D01*
X169667180Y-101423838D01*
X169667180Y-101233361D01*
X169619561Y-101138123D01*
X169571942Y-101090504D01*
X169476704Y-101042885D01*
X169286228Y-101042885D01*
X169190990Y-101090504D01*
X169143371Y-101138123D01*
X169095752Y-101233361D01*
X168295580Y-102579395D02*
X167295580Y-102579395D01*
X167295580Y-102341300D01*
X167343200Y-102198442D01*
X167438438Y-102103204D01*
X167533676Y-102055585D01*
X167724152Y-102007966D01*
X167867009Y-102007966D01*
X168057485Y-102055585D01*
X168152723Y-102103204D01*
X168247961Y-102198442D01*
X168295580Y-102341300D01*
X168295580Y-102579395D01*
X167295580Y-101674633D02*
X167295580Y-101007966D01*
X168295580Y-101436538D01*
X113015661Y-117639933D02*
X113063280Y-117497076D01*
X113063280Y-117258980D01*
X113015661Y-117163742D01*
X112968042Y-117116123D01*
X112872804Y-117068504D01*
X112777566Y-117068504D01*
X112682328Y-117116123D01*
X112634709Y-117163742D01*
X112587090Y-117258980D01*
X112539471Y-117449457D01*
X112491852Y-117544695D01*
X112444233Y-117592314D01*
X112348995Y-117639933D01*
X112253757Y-117639933D01*
X112158519Y-117592314D01*
X112110900Y-117544695D01*
X112063280Y-117449457D01*
X112063280Y-117211361D01*
X112110900Y-117068504D01*
X112063280Y-116735171D02*
X113063280Y-116497076D01*
X112348995Y-116306600D01*
X113063280Y-116116123D01*
X112063280Y-115878028D01*
X112158519Y-115544695D02*
X112110900Y-115497076D01*
X112063280Y-115401838D01*
X112063280Y-115163742D01*
X112110900Y-115068504D01*
X112158519Y-115020885D01*
X112253757Y-114973266D01*
X112348995Y-114973266D01*
X112491852Y-115020885D01*
X113063280Y-115592314D01*
X113063280Y-114973266D01*
X102796079Y-115225984D02*
X103272269Y-114892651D01*
X102796079Y-114654556D02*
X103796079Y-114654556D01*
X103796079Y-115035508D01*
X103748460Y-115130746D01*
X103700840Y-115178365D01*
X103605602Y-115225984D01*
X103462745Y-115225984D01*
X103367507Y-115178365D01*
X103319888Y-115130746D01*
X103272269Y-115035508D01*
X103272269Y-114654556D01*
X102843698Y-116035508D02*
X102796079Y-115940270D01*
X102796079Y-115749794D01*
X102843698Y-115654556D01*
X102938936Y-115606937D01*
X103319888Y-115606937D01*
X103415126Y-115654556D01*
X103462745Y-115749794D01*
X103462745Y-115940270D01*
X103415126Y-116035508D01*
X103319888Y-116083127D01*
X103224650Y-116083127D01*
X103129412Y-115606937D01*
X102843698Y-116464080D02*
X102796079Y-116559318D01*
X102796079Y-116749794D01*
X102843698Y-116845032D01*
X102938936Y-116892651D01*
X102986555Y-116892651D01*
X103081793Y-116845032D01*
X103129412Y-116749794D01*
X103129412Y-116606937D01*
X103177031Y-116511699D01*
X103272269Y-116464080D01*
X103319888Y-116464080D01*
X103415126Y-116511699D01*
X103462745Y-116606937D01*
X103462745Y-116749794D01*
X103415126Y-116845032D01*
X102843698Y-117702175D02*
X102796079Y-117606937D01*
X102796079Y-117416460D01*
X102843698Y-117321222D01*
X102938936Y-117273603D01*
X103319888Y-117273603D01*
X103415126Y-117321222D01*
X103462745Y-117416460D01*
X103462745Y-117606937D01*
X103415126Y-117702175D01*
X103319888Y-117749794D01*
X103224650Y-117749794D01*
X103129412Y-117273603D01*
X103462745Y-118035508D02*
X103462745Y-118416460D01*
X103796079Y-118178365D02*
X102938936Y-118178365D01*
X102843698Y-118225984D01*
X102796079Y-118321222D01*
X102796079Y-118416460D01*
X112850561Y-80276533D02*
X112898180Y-80133676D01*
X112898180Y-79895580D01*
X112850561Y-79800342D01*
X112802942Y-79752723D01*
X112707704Y-79705104D01*
X112612466Y-79705104D01*
X112517228Y-79752723D01*
X112469609Y-79800342D01*
X112421990Y-79895580D01*
X112374371Y-80086057D01*
X112326752Y-80181295D01*
X112279133Y-80228914D01*
X112183895Y-80276533D01*
X112088657Y-80276533D01*
X111993419Y-80228914D01*
X111945800Y-80181295D01*
X111898180Y-80086057D01*
X111898180Y-79847961D01*
X111945800Y-79705104D01*
X111898180Y-79371771D02*
X112898180Y-79133676D01*
X112183895Y-78943200D01*
X112898180Y-78752723D01*
X111898180Y-78514628D01*
X112898180Y-77609866D02*
X112898180Y-78181295D01*
X112898180Y-77895580D02*
X111898180Y-77895580D01*
X112041038Y-77990819D01*
X112136276Y-78086057D01*
X112183895Y-78181295D01*
X102652580Y-81343285D02*
X103462104Y-81343285D01*
X103557342Y-81295666D01*
X103604961Y-81248047D01*
X103652580Y-81152809D01*
X103652580Y-80962333D01*
X103604961Y-80867095D01*
X103557342Y-80819476D01*
X103462104Y-80771857D01*
X102652580Y-80771857D01*
X103604961Y-80343285D02*
X103652580Y-80200428D01*
X103652580Y-79962333D01*
X103604961Y-79867095D01*
X103557342Y-79819476D01*
X103462104Y-79771857D01*
X103366866Y-79771857D01*
X103271628Y-79819476D01*
X103224009Y-79867095D01*
X103176390Y-79962333D01*
X103128771Y-80152809D01*
X103081152Y-80248047D01*
X103033533Y-80295666D01*
X102938295Y-80343285D01*
X102843057Y-80343285D01*
X102747819Y-80295666D01*
X102700200Y-80248047D01*
X102652580Y-80152809D01*
X102652580Y-79914714D01*
X102700200Y-79771857D01*
X103128771Y-79343285D02*
X103128771Y-79009952D01*
X103652580Y-78867095D02*
X103652580Y-79343285D01*
X102652580Y-79343285D01*
X102652580Y-78867095D01*
X103652580Y-77867095D02*
X103176390Y-78200428D01*
X103652580Y-78438523D02*
X102652580Y-78438523D01*
X102652580Y-78057571D01*
X102700200Y-77962333D01*
X102747819Y-77914714D01*
X102843057Y-77867095D01*
X102985914Y-77867095D01*
X103081152Y-77914714D01*
X103128771Y-77962333D01*
X103176390Y-78057571D01*
X103176390Y-78438523D01*
X103166942Y-87377542D02*
X103119323Y-87425161D01*
X102976466Y-87472780D01*
X102881228Y-87472780D01*
X102738371Y-87425161D01*
X102643133Y-87329923D01*
X102595514Y-87234685D01*
X102547895Y-87044209D01*
X102547895Y-86901352D01*
X102595514Y-86710876D01*
X102643133Y-86615638D01*
X102738371Y-86520400D01*
X102881228Y-86472780D01*
X102976466Y-86472780D01*
X103119323Y-86520400D01*
X103166942Y-86568019D01*
X103500276Y-86472780D02*
X104119323Y-86472780D01*
X103785990Y-86853733D01*
X103928847Y-86853733D01*
X104024085Y-86901352D01*
X104071704Y-86948971D01*
X104119323Y-87044209D01*
X104119323Y-87282304D01*
X104071704Y-87377542D01*
X104024085Y-87425161D01*
X103928847Y-87472780D01*
X103643133Y-87472780D01*
X103547895Y-87425161D01*
X103500276Y-87377542D01*
X104690752Y-86901352D02*
X104595514Y-86853733D01*
X104547895Y-86806114D01*
X104500276Y-86710876D01*
X104500276Y-86663257D01*
X104547895Y-86568019D01*
X104595514Y-86520400D01*
X104690752Y-86472780D01*
X104881228Y-86472780D01*
X104976466Y-86520400D01*
X105024085Y-86568019D01*
X105071704Y-86663257D01*
X105071704Y-86710876D01*
X105024085Y-86806114D01*
X104976466Y-86853733D01*
X104881228Y-86901352D01*
X104690752Y-86901352D01*
X104595514Y-86948971D01*
X104547895Y-86996590D01*
X104500276Y-87091828D01*
X104500276Y-87282304D01*
X104547895Y-87377542D01*
X104595514Y-87425161D01*
X104690752Y-87472780D01*
X104881228Y-87472780D01*
X104976466Y-87425161D01*
X105024085Y-87377542D01*
X105071704Y-87282304D01*
X105071704Y-87091828D01*
X105024085Y-86996590D01*
X104976466Y-86948971D01*
X104881228Y-86901352D01*
X179854266Y-72705980D02*
X179854266Y-73420266D01*
X179806647Y-73563123D01*
X179711409Y-73658361D01*
X179568552Y-73705980D01*
X179473314Y-73705980D01*
X180759028Y-73039314D02*
X180759028Y-73705980D01*
X180520933Y-72658361D02*
X180282838Y-73372647D01*
X180901885Y-73372647D01*
X154956260Y-99400264D02*
X155765784Y-99400264D01*
X155861022Y-99352645D01*
X155908641Y-99305026D01*
X155956260Y-99209788D01*
X155956260Y-99019312D01*
X155908641Y-98924074D01*
X155861022Y-98876455D01*
X155765784Y-98828836D01*
X154956260Y-98828836D01*
X155956260Y-98305026D02*
X155956260Y-98114550D01*
X155908641Y-98019312D01*
X155861022Y-97971693D01*
X155718165Y-97876455D01*
X155527689Y-97828836D01*
X155146737Y-97828836D01*
X155051499Y-97876455D01*
X155003880Y-97924074D01*
X154956260Y-98019312D01*
X154956260Y-98209788D01*
X155003880Y-98305026D01*
X155051499Y-98352645D01*
X155146737Y-98400264D01*
X155384832Y-98400264D01*
X155480070Y-98352645D01*
X155527689Y-98305026D01*
X155575308Y-98209788D01*
X155575308Y-98019312D01*
X155527689Y-97924074D01*
X155480070Y-97876455D01*
X155384832Y-97828836D01*
X140460480Y-74815604D02*
X141270004Y-74815604D01*
X141365242Y-74767985D01*
X141412861Y-74720366D01*
X141460480Y-74625128D01*
X141460480Y-74434652D01*
X141412861Y-74339414D01*
X141365242Y-74291795D01*
X141270004Y-74244176D01*
X140460480Y-74244176D01*
X140460480Y-73291795D02*
X140460480Y-73767985D01*
X140936671Y-73815604D01*
X140889052Y-73767985D01*
X140841433Y-73672747D01*
X140841433Y-73434652D01*
X140889052Y-73339414D01*
X140936671Y-73291795D01*
X141031909Y-73244176D01*
X141270004Y-73244176D01*
X141365242Y-73291795D01*
X141412861Y-73339414D01*
X141460480Y-73434652D01*
X141460480Y-73672747D01*
X141412861Y-73767985D01*
X141365242Y-73815604D01*
X182120302Y-93276562D02*
X182072683Y-93324181D01*
X181929826Y-93371800D01*
X181834588Y-93371800D01*
X181691731Y-93324181D01*
X181596493Y-93228943D01*
X181548874Y-93133705D01*
X181501255Y-92943229D01*
X181501255Y-92800372D01*
X181548874Y-92609896D01*
X181596493Y-92514658D01*
X181691731Y-92419420D01*
X181834588Y-92371800D01*
X181929826Y-92371800D01*
X182072683Y-92419420D01*
X182120302Y-92467039D01*
X182501255Y-92467039D02*
X182548874Y-92419420D01*
X182644112Y-92371800D01*
X182882207Y-92371800D01*
X182977445Y-92419420D01*
X183025064Y-92467039D01*
X183072683Y-92562277D01*
X183072683Y-92657515D01*
X183025064Y-92800372D01*
X182453636Y-93371800D01*
X183072683Y-93371800D01*
X183406017Y-92371800D02*
X184072683Y-92371800D01*
X183644112Y-93371800D01*
X180669512Y-91054940D02*
X180764750Y-91054940D01*
X180859988Y-91102560D01*
X180907607Y-91150179D01*
X180955226Y-91245417D01*
X181002845Y-91435893D01*
X181002845Y-91673988D01*
X180955226Y-91864464D01*
X180907607Y-91959702D01*
X180859988Y-92007321D01*
X180764750Y-92054940D01*
X180669512Y-92054940D01*
X180574274Y-92007321D01*
X180526655Y-91959702D01*
X180479036Y-91864464D01*
X180431417Y-91673988D01*
X180431417Y-91435893D01*
X180479036Y-91245417D01*
X180526655Y-91150179D01*
X180574274Y-91102560D01*
X180669512Y-91054940D01*
X181431417Y-91959702D02*
X181479036Y-92007321D01*
X181431417Y-92054940D01*
X181383798Y-92007321D01*
X181431417Y-91959702D01*
X181431417Y-92054940D01*
X182098083Y-91054940D02*
X182193321Y-91054940D01*
X182288560Y-91102560D01*
X182336179Y-91150179D01*
X182383798Y-91245417D01*
X182431417Y-91435893D01*
X182431417Y-91673988D01*
X182383798Y-91864464D01*
X182336179Y-91959702D01*
X182288560Y-92007321D01*
X182193321Y-92054940D01*
X182098083Y-92054940D01*
X182002845Y-92007321D01*
X181955226Y-91959702D01*
X181907607Y-91864464D01*
X181859988Y-91673988D01*
X181859988Y-91435893D01*
X181907607Y-91245417D01*
X181955226Y-91150179D01*
X182002845Y-91102560D01*
X182098083Y-91054940D01*
X183383798Y-92054940D02*
X182812369Y-92054940D01*
X183098083Y-92054940D02*
X183098083Y-91054940D01*
X183002845Y-91197798D01*
X182907607Y-91293036D01*
X182812369Y-91340655D01*
X184240940Y-91388274D02*
X184240940Y-92054940D01*
X183812369Y-91388274D02*
X183812369Y-91912083D01*
X183859988Y-92007321D01*
X183955226Y-92054940D01*
X184098083Y-92054940D01*
X184193321Y-92007321D01*
X184240940Y-91959702D01*
X185050464Y-91531131D02*
X184717131Y-91531131D01*
X184717131Y-92054940D02*
X184717131Y-91054940D01*
X185193321Y-91054940D01*
X183941980Y-105373466D02*
X183465790Y-105706800D01*
X183941980Y-105944895D02*
X182941980Y-105944895D01*
X182941980Y-105563942D01*
X182989600Y-105468704D01*
X183037219Y-105421085D01*
X183132457Y-105373466D01*
X183275314Y-105373466D01*
X183370552Y-105421085D01*
X183418171Y-105468704D01*
X183465790Y-105563942D01*
X183465790Y-105944895D01*
X182941980Y-104516323D02*
X182941980Y-104706800D01*
X182989600Y-104802038D01*
X183037219Y-104849657D01*
X183180076Y-104944895D01*
X183370552Y-104992514D01*
X183751504Y-104992514D01*
X183846742Y-104944895D01*
X183894361Y-104897276D01*
X183941980Y-104802038D01*
X183941980Y-104611561D01*
X183894361Y-104516323D01*
X183846742Y-104468704D01*
X183751504Y-104421085D01*
X183513409Y-104421085D01*
X183418171Y-104468704D01*
X183370552Y-104516323D01*
X183322933Y-104611561D01*
X183322933Y-104802038D01*
X183370552Y-104897276D01*
X183418171Y-104944895D01*
X183513409Y-104992514D01*
X181328320Y-106795771D02*
X181328320Y-107367200D01*
X181328320Y-107081485D02*
X180328320Y-107081485D01*
X180471178Y-107176723D01*
X180566416Y-107271961D01*
X180614035Y-107367200D01*
X181233082Y-106367200D02*
X181280701Y-106319580D01*
X181328320Y-106367200D01*
X181280701Y-106414819D01*
X181233082Y-106367200D01*
X181328320Y-106367200D01*
X180328320Y-105414819D02*
X180328320Y-105891009D01*
X180804511Y-105938628D01*
X180756892Y-105891009D01*
X180709273Y-105795771D01*
X180709273Y-105557676D01*
X180756892Y-105462438D01*
X180804511Y-105414819D01*
X180899749Y-105367200D01*
X181137844Y-105367200D01*
X181233082Y-105414819D01*
X181280701Y-105462438D01*
X181328320Y-105557676D01*
X181328320Y-105795771D01*
X181280701Y-105891009D01*
X181233082Y-105938628D01*
X181328320Y-104938628D02*
X180328320Y-104938628D01*
X181328320Y-104367200D02*
X180756892Y-104795771D01*
X180328320Y-104367200D02*
X180899749Y-104938628D01*
X182637133Y-103982780D02*
X182303800Y-103506590D01*
X182065704Y-103982780D02*
X182065704Y-102982780D01*
X182446657Y-102982780D01*
X182541895Y-103030400D01*
X182589514Y-103078019D01*
X182637133Y-103173257D01*
X182637133Y-103316114D01*
X182589514Y-103411352D01*
X182541895Y-103458971D01*
X182446657Y-103506590D01*
X182065704Y-103506590D01*
X183541895Y-102982780D02*
X183065704Y-102982780D01*
X183018085Y-103458971D01*
X183065704Y-103411352D01*
X183160942Y-103363733D01*
X183399038Y-103363733D01*
X183494276Y-103411352D01*
X183541895Y-103458971D01*
X183589514Y-103554209D01*
X183589514Y-103792304D01*
X183541895Y-103887542D01*
X183494276Y-103935161D01*
X183399038Y-103982780D01*
X183160942Y-103982780D01*
X183065704Y-103935161D01*
X183018085Y-103887542D01*
X181202033Y-102598480D02*
X180868700Y-102122290D01*
X180630604Y-102598480D02*
X180630604Y-101598480D01*
X181011557Y-101598480D01*
X181106795Y-101646100D01*
X181154414Y-101693719D01*
X181202033Y-101788957D01*
X181202033Y-101931814D01*
X181154414Y-102027052D01*
X181106795Y-102074671D01*
X181011557Y-102122290D01*
X180630604Y-102122290D01*
X182059176Y-101931814D02*
X182059176Y-102598480D01*
X181821080Y-101550861D02*
X181582985Y-102265147D01*
X182202033Y-102265147D01*
X111720380Y-107492704D02*
X112529904Y-107492704D01*
X112625142Y-107445085D01*
X112672761Y-107397466D01*
X112720380Y-107302228D01*
X112720380Y-107111752D01*
X112672761Y-107016514D01*
X112625142Y-106968895D01*
X112529904Y-106921276D01*
X111720380Y-106921276D01*
X112148952Y-106302228D02*
X112101333Y-106397466D01*
X112053714Y-106445085D01*
X111958476Y-106492704D01*
X111910857Y-106492704D01*
X111815619Y-106445085D01*
X111768000Y-106397466D01*
X111720380Y-106302228D01*
X111720380Y-106111752D01*
X111768000Y-106016514D01*
X111815619Y-105968895D01*
X111910857Y-105921276D01*
X111958476Y-105921276D01*
X112053714Y-105968895D01*
X112101333Y-106016514D01*
X112148952Y-106111752D01*
X112148952Y-106302228D01*
X112196571Y-106397466D01*
X112244190Y-106445085D01*
X112339428Y-106492704D01*
X112529904Y-106492704D01*
X112625142Y-106445085D01*
X112672761Y-106397466D01*
X112720380Y-106302228D01*
X112720380Y-106111752D01*
X112672761Y-106016514D01*
X112625142Y-105968895D01*
X112529904Y-105921276D01*
X112339428Y-105921276D01*
X112244190Y-105968895D01*
X112196571Y-106016514D01*
X112148952Y-106111752D01*
X189476166Y-96232671D02*
X189142833Y-96232671D01*
X189142833Y-96756480D02*
X189142833Y-95756480D01*
X189619023Y-95756480D01*
X190333309Y-96232671D02*
X190476166Y-96280290D01*
X190523785Y-96327909D01*
X190571404Y-96423147D01*
X190571404Y-96566004D01*
X190523785Y-96661242D01*
X190476166Y-96708861D01*
X190380928Y-96756480D01*
X189999976Y-96756480D01*
X189999976Y-95756480D01*
X190333309Y-95756480D01*
X190428547Y-95804100D01*
X190476166Y-95851719D01*
X190523785Y-95946957D01*
X190523785Y-96042195D01*
X190476166Y-96137433D01*
X190428547Y-96185052D01*
X190333309Y-96232671D01*
X189999976Y-96232671D01*
X191523785Y-96756480D02*
X190952357Y-96756480D01*
X191238071Y-96756480D02*
X191238071Y-95756480D01*
X191142833Y-95899338D01*
X191047595Y-95994576D01*
X190952357Y-96042195D01*
X180325496Y-113112300D02*
X180992162Y-114112300D01*
X180992162Y-113112300D02*
X180325496Y-114112300D01*
X181325496Y-113207539D02*
X181373115Y-113159920D01*
X181468353Y-113112300D01*
X181706448Y-113112300D01*
X181801686Y-113159920D01*
X181849305Y-113207539D01*
X181896924Y-113302777D01*
X181896924Y-113398015D01*
X181849305Y-113540872D01*
X181277877Y-114112300D01*
X181896924Y-114112300D01*
X172161295Y-101966780D02*
X172161295Y-102776304D01*
X172208914Y-102871542D01*
X172256533Y-102919161D01*
X172351771Y-102966780D01*
X172542247Y-102966780D01*
X172637485Y-102919161D01*
X172685104Y-102871542D01*
X172732723Y-102776304D01*
X172732723Y-101966780D01*
X173161295Y-102062019D02*
X173208914Y-102014400D01*
X173304152Y-101966780D01*
X173542247Y-101966780D01*
X173637485Y-102014400D01*
X173685104Y-102062019D01*
X173732723Y-102157257D01*
X173732723Y-102252495D01*
X173685104Y-102395352D01*
X173113676Y-102966780D01*
X173732723Y-102966780D01*
X190696480Y-115569904D02*
X191506004Y-115569904D01*
X191601242Y-115522285D01*
X191648861Y-115474666D01*
X191696480Y-115379428D01*
X191696480Y-115188952D01*
X191648861Y-115093714D01*
X191601242Y-115046095D01*
X191506004Y-114998476D01*
X190696480Y-114998476D01*
X191029814Y-114093714D02*
X191696480Y-114093714D01*
X190648861Y-114331809D02*
X191363147Y-114569904D01*
X191363147Y-113950857D01*
X147098022Y-86873317D02*
X147145641Y-86920936D01*
X147193260Y-87063793D01*
X147193260Y-87159031D01*
X147145641Y-87301888D01*
X147050403Y-87397126D01*
X146955165Y-87444745D01*
X146764689Y-87492364D01*
X146621832Y-87492364D01*
X146431356Y-87444745D01*
X146336118Y-87397126D01*
X146240880Y-87301888D01*
X146193260Y-87159031D01*
X146193260Y-87063793D01*
X146240880Y-86920936D01*
X146288499Y-86873317D01*
X146288499Y-86492364D02*
X146240880Y-86444745D01*
X146193260Y-86349507D01*
X146193260Y-86111412D01*
X146240880Y-86016174D01*
X146288499Y-85968555D01*
X146383737Y-85920936D01*
X146478975Y-85920936D01*
X146621832Y-85968555D01*
X147193260Y-86539983D01*
X147193260Y-85920936D01*
X146193260Y-85016174D02*
X146193260Y-85492364D01*
X146669451Y-85539983D01*
X146621832Y-85492364D01*
X146574213Y-85397126D01*
X146574213Y-85159031D01*
X146621832Y-85063793D01*
X146669451Y-85016174D01*
X146764689Y-84968555D01*
X147002784Y-84968555D01*
X147098022Y-85016174D01*
X147145641Y-85063793D01*
X147193260Y-85159031D01*
X147193260Y-85397126D01*
X147145641Y-85492364D01*
X147098022Y-85539983D01*
X147526760Y-88079721D02*
X147526760Y-88270198D01*
X147574380Y-88365436D01*
X147621999Y-88413055D01*
X147764856Y-88508293D01*
X147955332Y-88555912D01*
X148336284Y-88555912D01*
X148431522Y-88508293D01*
X148479141Y-88460674D01*
X148526760Y-88365436D01*
X148526760Y-88174960D01*
X148479141Y-88079721D01*
X148431522Y-88032102D01*
X148336284Y-87984483D01*
X148098189Y-87984483D01*
X148002951Y-88032102D01*
X147955332Y-88079721D01*
X147907713Y-88174960D01*
X147907713Y-88365436D01*
X147955332Y-88460674D01*
X148002951Y-88508293D01*
X148098189Y-88555912D01*
X148431522Y-87555912D02*
X148479141Y-87508293D01*
X148526760Y-87555912D01*
X148479141Y-87603531D01*
X148431522Y-87555912D01*
X148526760Y-87555912D01*
X147955332Y-86936864D02*
X147907713Y-87032102D01*
X147860094Y-87079721D01*
X147764856Y-87127340D01*
X147717237Y-87127340D01*
X147621999Y-87079721D01*
X147574380Y-87032102D01*
X147526760Y-86936864D01*
X147526760Y-86746388D01*
X147574380Y-86651150D01*
X147621999Y-86603531D01*
X147717237Y-86555912D01*
X147764856Y-86555912D01*
X147860094Y-86603531D01*
X147907713Y-86651150D01*
X147955332Y-86746388D01*
X147955332Y-86936864D01*
X148002951Y-87032102D01*
X148050570Y-87079721D01*
X148145808Y-87127340D01*
X148336284Y-87127340D01*
X148431522Y-87079721D01*
X148479141Y-87032102D01*
X148526760Y-86936864D01*
X148526760Y-86746388D01*
X148479141Y-86651150D01*
X148431522Y-86603531D01*
X148336284Y-86555912D01*
X148145808Y-86555912D01*
X148050570Y-86603531D01*
X148002951Y-86651150D01*
X147955332Y-86746388D01*
X147860094Y-85698769D02*
X148526760Y-85698769D01*
X147860094Y-86127340D02*
X148383903Y-86127340D01*
X148479141Y-86079721D01*
X148526760Y-85984483D01*
X148526760Y-85841626D01*
X148479141Y-85746388D01*
X148431522Y-85698769D01*
X148002951Y-84889245D02*
X148002951Y-85222579D01*
X148526760Y-85222579D02*
X147526760Y-85222579D01*
X147526760Y-84746388D01*
X147200880Y-79490866D02*
X146724690Y-79824200D01*
X147200880Y-80062295D02*
X146200880Y-80062295D01*
X146200880Y-79681342D01*
X146248500Y-79586104D01*
X146296119Y-79538485D01*
X146391357Y-79490866D01*
X146534214Y-79490866D01*
X146629452Y-79538485D01*
X146677071Y-79586104D01*
X146724690Y-79681342D01*
X146724690Y-80062295D01*
X147200880Y-79014676D02*
X147200880Y-78824200D01*
X147153261Y-78728961D01*
X147105642Y-78681342D01*
X146962785Y-78586104D01*
X146772309Y-78538485D01*
X146391357Y-78538485D01*
X146296119Y-78586104D01*
X146248500Y-78633723D01*
X146200880Y-78728961D01*
X146200880Y-78919438D01*
X146248500Y-79014676D01*
X146296119Y-79062295D01*
X146391357Y-79109914D01*
X146629452Y-79109914D01*
X146724690Y-79062295D01*
X146772309Y-79014676D01*
X146819928Y-78919438D01*
X146819928Y-78728961D01*
X146772309Y-78633723D01*
X146724690Y-78586104D01*
X146629452Y-78538485D01*
X147483580Y-80457514D02*
X147483580Y-79838466D01*
X147864533Y-80171800D01*
X147864533Y-80028942D01*
X147912152Y-79933704D01*
X147959771Y-79886085D01*
X148055009Y-79838466D01*
X148293104Y-79838466D01*
X148388342Y-79886085D01*
X148435961Y-79933704D01*
X148483580Y-80028942D01*
X148483580Y-80314657D01*
X148435961Y-80409895D01*
X148388342Y-80457514D01*
X147483580Y-79505133D02*
X147483580Y-78886085D01*
X147864533Y-79219419D01*
X147864533Y-79076561D01*
X147912152Y-78981323D01*
X147959771Y-78933704D01*
X148055009Y-78886085D01*
X148293104Y-78886085D01*
X148388342Y-78933704D01*
X148435961Y-78981323D01*
X148483580Y-79076561D01*
X148483580Y-79362276D01*
X148435961Y-79457514D01*
X148388342Y-79505133D01*
X147483580Y-78267038D02*
X147483580Y-78171800D01*
X147531200Y-78076561D01*
X147578819Y-78028942D01*
X147674057Y-77981323D01*
X147864533Y-77933704D01*
X148102628Y-77933704D01*
X148293104Y-77981323D01*
X148388342Y-78028942D01*
X148435961Y-78076561D01*
X148483580Y-78171800D01*
X148483580Y-78267038D01*
X148435961Y-78362276D01*
X148388342Y-78409895D01*
X148293104Y-78457514D01*
X148102628Y-78505133D01*
X147864533Y-78505133D01*
X147674057Y-78457514D01*
X147578819Y-78409895D01*
X147531200Y-78362276D01*
X147483580Y-78267038D01*
X150572742Y-85542357D02*
X150620361Y-85589976D01*
X150667980Y-85732833D01*
X150667980Y-85828071D01*
X150620361Y-85970928D01*
X150525123Y-86066166D01*
X150429885Y-86113785D01*
X150239409Y-86161404D01*
X150096552Y-86161404D01*
X149906076Y-86113785D01*
X149810838Y-86066166D01*
X149715600Y-85970928D01*
X149667980Y-85828071D01*
X149667980Y-85732833D01*
X149715600Y-85589976D01*
X149763219Y-85542357D01*
X149763219Y-85161404D02*
X149715600Y-85113785D01*
X149667980Y-85018547D01*
X149667980Y-84780452D01*
X149715600Y-84685214D01*
X149763219Y-84637595D01*
X149858457Y-84589976D01*
X149953695Y-84589976D01*
X150096552Y-84637595D01*
X150667980Y-85209023D01*
X150667980Y-84589976D01*
X150667980Y-83637595D02*
X150667980Y-84209023D01*
X150667980Y-83923309D02*
X149667980Y-83923309D01*
X149810838Y-84018547D01*
X149906076Y-84113785D01*
X149953695Y-84209023D01*
X157129242Y-78398642D02*
X157081623Y-78446261D01*
X156938766Y-78493880D01*
X156843528Y-78493880D01*
X156700671Y-78446261D01*
X156605433Y-78351023D01*
X156557814Y-78255785D01*
X156510195Y-78065309D01*
X156510195Y-77922452D01*
X156557814Y-77731976D01*
X156605433Y-77636738D01*
X156700671Y-77541500D01*
X156843528Y-77493880D01*
X156938766Y-77493880D01*
X157081623Y-77541500D01*
X157129242Y-77589119D01*
X157510195Y-77589119D02*
X157557814Y-77541500D01*
X157653052Y-77493880D01*
X157891147Y-77493880D01*
X157986385Y-77541500D01*
X158034004Y-77589119D01*
X158081623Y-77684357D01*
X158081623Y-77779595D01*
X158034004Y-77922452D01*
X157462576Y-78493880D01*
X158081623Y-78493880D01*
X158938766Y-77827214D02*
X158938766Y-78493880D01*
X158700671Y-77446261D02*
X158462576Y-78160547D01*
X159081623Y-78160547D01*
X147413742Y-76855580D02*
X147080409Y-76379390D01*
X146842314Y-76855580D02*
X146842314Y-75855580D01*
X147223266Y-75855580D01*
X147318504Y-75903200D01*
X147366123Y-75950819D01*
X147413742Y-76046057D01*
X147413742Y-76188914D01*
X147366123Y-76284152D01*
X147318504Y-76331771D01*
X147223266Y-76379390D01*
X146842314Y-76379390D01*
X147794695Y-75950819D02*
X147842314Y-75903200D01*
X147937552Y-75855580D01*
X148175647Y-75855580D01*
X148270885Y-75903200D01*
X148318504Y-75950819D01*
X148366123Y-76046057D01*
X148366123Y-76141295D01*
X148318504Y-76284152D01*
X147747076Y-76855580D01*
X148366123Y-76855580D01*
X149270885Y-75855580D02*
X148794695Y-75855580D01*
X148747076Y-76331771D01*
X148794695Y-76284152D01*
X148889933Y-76236533D01*
X149128028Y-76236533D01*
X149223266Y-76284152D01*
X149270885Y-76331771D01*
X149318504Y-76427009D01*
X149318504Y-76665104D01*
X149270885Y-76760342D01*
X149223266Y-76807961D01*
X149128028Y-76855580D01*
X148889933Y-76855580D01*
X148794695Y-76807961D01*
X148747076Y-76760342D01*
X159056342Y-73464657D02*
X159103961Y-73512276D01*
X159151580Y-73655133D01*
X159151580Y-73750371D01*
X159103961Y-73893228D01*
X159008723Y-73988466D01*
X158913485Y-74036085D01*
X158723009Y-74083704D01*
X158580152Y-74083704D01*
X158389676Y-74036085D01*
X158294438Y-73988466D01*
X158199200Y-73893228D01*
X158151580Y-73750371D01*
X158151580Y-73655133D01*
X158199200Y-73512276D01*
X158246819Y-73464657D01*
X158151580Y-73131323D02*
X158151580Y-72512276D01*
X158532533Y-72845609D01*
X158532533Y-72702752D01*
X158580152Y-72607514D01*
X158627771Y-72559895D01*
X158723009Y-72512276D01*
X158961104Y-72512276D01*
X159056342Y-72559895D01*
X159103961Y-72607514D01*
X159151580Y-72702752D01*
X159151580Y-72988466D01*
X159103961Y-73083704D01*
X159056342Y-73131323D01*
X158484914Y-71655133D02*
X159151580Y-71655133D01*
X158103961Y-71893228D02*
X158818247Y-72131323D01*
X158818247Y-71512276D01*
X175607742Y-87371180D02*
X175274409Y-86894990D01*
X175036314Y-87371180D02*
X175036314Y-86371180D01*
X175417266Y-86371180D01*
X175512504Y-86418800D01*
X175560123Y-86466419D01*
X175607742Y-86561657D01*
X175607742Y-86704514D01*
X175560123Y-86799752D01*
X175512504Y-86847371D01*
X175417266Y-86894990D01*
X175036314Y-86894990D01*
X176560123Y-87371180D02*
X175988695Y-87371180D01*
X176274409Y-87371180D02*
X176274409Y-86371180D01*
X176179171Y-86514038D01*
X176083933Y-86609276D01*
X175988695Y-86656895D01*
X177512504Y-87371180D02*
X176941076Y-87371180D01*
X177226790Y-87371180D02*
X177226790Y-86371180D01*
X177131552Y-86514038D01*
X177036314Y-86609276D01*
X176941076Y-86656895D01*
X189037933Y-109558080D02*
X188704600Y-109081890D01*
X188466504Y-109558080D02*
X188466504Y-108558080D01*
X188847457Y-108558080D01*
X188942695Y-108605700D01*
X188990314Y-108653319D01*
X189037933Y-108748557D01*
X189037933Y-108891414D01*
X188990314Y-108986652D01*
X188942695Y-109034271D01*
X188847457Y-109081890D01*
X188466504Y-109081890D01*
X189371266Y-108558080D02*
X189990314Y-108558080D01*
X189656980Y-108939033D01*
X189799838Y-108939033D01*
X189895076Y-108986652D01*
X189942695Y-109034271D01*
X189990314Y-109129509D01*
X189990314Y-109367604D01*
X189942695Y-109462842D01*
X189895076Y-109510461D01*
X189799838Y-109558080D01*
X189514123Y-109558080D01*
X189418885Y-109510461D01*
X189371266Y-109462842D01*
X109791262Y-126021102D02*
X109743643Y-126068721D01*
X109600786Y-126116340D01*
X109505548Y-126116340D01*
X109362691Y-126068721D01*
X109267453Y-125973483D01*
X109219834Y-125878245D01*
X109172215Y-125687769D01*
X109172215Y-125544912D01*
X109219834Y-125354436D01*
X109267453Y-125259198D01*
X109362691Y-125163960D01*
X109505548Y-125116340D01*
X109600786Y-125116340D01*
X109743643Y-125163960D01*
X109791262Y-125211579D01*
X110743643Y-126116340D02*
X110172215Y-126116340D01*
X110457929Y-126116340D02*
X110457929Y-125116340D01*
X110362691Y-125259198D01*
X110267453Y-125354436D01*
X110172215Y-125402055D01*
X111219834Y-126116340D02*
X111410310Y-126116340D01*
X111505548Y-126068721D01*
X111553167Y-126021102D01*
X111648405Y-125878245D01*
X111696024Y-125687769D01*
X111696024Y-125306817D01*
X111648405Y-125211579D01*
X111600786Y-125163960D01*
X111505548Y-125116340D01*
X111315072Y-125116340D01*
X111219834Y-125163960D01*
X111172215Y-125211579D01*
X111124596Y-125306817D01*
X111124596Y-125544912D01*
X111172215Y-125640150D01*
X111219834Y-125687769D01*
X111315072Y-125735388D01*
X111505548Y-125735388D01*
X111600786Y-125687769D01*
X111648405Y-125640150D01*
X111696024Y-125544912D01*
X182451120Y-68930424D02*
X182403500Y-69025662D01*
X182403500Y-69168520D01*
X182451120Y-69311377D01*
X182546358Y-69406615D01*
X182641596Y-69454234D01*
X182832072Y-69501853D01*
X182974929Y-69501853D01*
X183165405Y-69454234D01*
X183260643Y-69406615D01*
X183355881Y-69311377D01*
X183403500Y-69168520D01*
X183403500Y-69073281D01*
X183355881Y-68930424D01*
X183308262Y-68882805D01*
X182974929Y-68882805D01*
X182974929Y-69073281D01*
X183403500Y-68454234D02*
X182403500Y-68454234D01*
X183403500Y-67882805D01*
X182403500Y-67882805D01*
X183403500Y-67406615D02*
X182403500Y-67406615D01*
X182403500Y-67168520D01*
X182451120Y-67025662D01*
X182546358Y-66930424D01*
X182641596Y-66882805D01*
X182832072Y-66835186D01*
X182974929Y-66835186D01*
X183165405Y-66882805D01*
X183260643Y-66930424D01*
X183355881Y-67025662D01*
X183403500Y-67168520D01*
X183403500Y-67406615D01*
X106197495Y-110069380D02*
X106197495Y-110878904D01*
X106245114Y-110974142D01*
X106292733Y-111021761D01*
X106387971Y-111069380D01*
X106578447Y-111069380D01*
X106673685Y-111021761D01*
X106721304Y-110974142D01*
X106768923Y-110878904D01*
X106768923Y-110069380D01*
X107149876Y-110069380D02*
X107768923Y-110069380D01*
X107435590Y-110450333D01*
X107578447Y-110450333D01*
X107673685Y-110497952D01*
X107721304Y-110545571D01*
X107768923Y-110640809D01*
X107768923Y-110878904D01*
X107721304Y-110974142D01*
X107673685Y-111021761D01*
X107578447Y-111069380D01*
X107292733Y-111069380D01*
X107197495Y-111021761D01*
X107149876Y-110974142D01*
X110143580Y-98574123D02*
X111143580Y-97907457D01*
X110143580Y-97907457D02*
X111143580Y-98574123D01*
X111143580Y-97002695D02*
X111143580Y-97574123D01*
X111143580Y-97288409D02*
X110143580Y-97288409D01*
X110286438Y-97383647D01*
X110381676Y-97478885D01*
X110429295Y-97574123D01*
X149687042Y-93271600D02*
X149353709Y-92795410D01*
X149115614Y-93271600D02*
X149115614Y-92271600D01*
X149496566Y-92271600D01*
X149591804Y-92319220D01*
X149639423Y-92366839D01*
X149687042Y-92462077D01*
X149687042Y-92604934D01*
X149639423Y-92700172D01*
X149591804Y-92747791D01*
X149496566Y-92795410D01*
X149115614Y-92795410D01*
X150639423Y-93271600D02*
X150067995Y-93271600D01*
X150353709Y-93271600D02*
X150353709Y-92271600D01*
X150258471Y-92414458D01*
X150163233Y-92509696D01*
X150067995Y-92557315D01*
X150972757Y-92271600D02*
X151591804Y-92271600D01*
X151258471Y-92652553D01*
X151401328Y-92652553D01*
X151496566Y-92700172D01*
X151544185Y-92747791D01*
X151591804Y-92843029D01*
X151591804Y-93081124D01*
X151544185Y-93176362D01*
X151496566Y-93223981D01*
X151401328Y-93271600D01*
X151115614Y-93271600D01*
X151020376Y-93223981D01*
X150972757Y-93176362D01*
X176920162Y-97607357D02*
X176967781Y-97654976D01*
X177015400Y-97797833D01*
X177015400Y-97893071D01*
X176967781Y-98035928D01*
X176872543Y-98131166D01*
X176777305Y-98178785D01*
X176586829Y-98226404D01*
X176443972Y-98226404D01*
X176253496Y-98178785D01*
X176158258Y-98131166D01*
X176063020Y-98035928D01*
X176015400Y-97893071D01*
X176015400Y-97797833D01*
X176063020Y-97654976D01*
X176110639Y-97607357D01*
X176015400Y-97274023D02*
X176015400Y-96654976D01*
X176396353Y-96988309D01*
X176396353Y-96845452D01*
X176443972Y-96750214D01*
X176491591Y-96702595D01*
X176586829Y-96654976D01*
X176824924Y-96654976D01*
X176920162Y-96702595D01*
X176967781Y-96750214D01*
X177015400Y-96845452D01*
X177015400Y-97131166D01*
X176967781Y-97226404D01*
X176920162Y-97274023D01*
X176015400Y-96321642D02*
X176015400Y-95702595D01*
X176396353Y-96035928D01*
X176396353Y-95893071D01*
X176443972Y-95797833D01*
X176491591Y-95750214D01*
X176586829Y-95702595D01*
X176824924Y-95702595D01*
X176920162Y-95750214D01*
X176967781Y-95797833D01*
X177015400Y-95893071D01*
X177015400Y-96178785D01*
X176967781Y-96274023D01*
X176920162Y-96321642D01*
X178254920Y-97453058D02*
X178254920Y-98024486D01*
X178254920Y-97738772D02*
X177254920Y-97738772D01*
X177397778Y-97834010D01*
X177493016Y-97929248D01*
X177540635Y-98024486D01*
X177588254Y-96595915D02*
X178254920Y-96595915D01*
X177588254Y-97024486D02*
X178112063Y-97024486D01*
X178207301Y-96976867D01*
X178254920Y-96881629D01*
X178254920Y-96738772D01*
X178207301Y-96643534D01*
X178159682Y-96595915D01*
X177731111Y-95786391D02*
X177731111Y-96119724D01*
X178254920Y-96119724D02*
X177254920Y-96119724D01*
X177254920Y-95643534D01*
X166606480Y-101747557D02*
X166130290Y-102080890D01*
X166606480Y-102318985D02*
X165606480Y-102318985D01*
X165606480Y-101938033D01*
X165654100Y-101842795D01*
X165701719Y-101795176D01*
X165796957Y-101747557D01*
X165939814Y-101747557D01*
X166035052Y-101795176D01*
X166082671Y-101842795D01*
X166130290Y-101938033D01*
X166130290Y-102318985D01*
X165701719Y-101366604D02*
X165654100Y-101318985D01*
X165606480Y-101223747D01*
X165606480Y-100985652D01*
X165654100Y-100890414D01*
X165701719Y-100842795D01*
X165796957Y-100795176D01*
X165892195Y-100795176D01*
X166035052Y-100842795D01*
X166606480Y-101414223D01*
X166606480Y-100795176D01*
X165939814Y-99938033D02*
X166606480Y-99938033D01*
X165558861Y-100176128D02*
X166273147Y-100414223D01*
X166273147Y-99795176D01*
X163453842Y-110027980D02*
X163120509Y-109551790D01*
X162882414Y-110027980D02*
X162882414Y-109027980D01*
X163263366Y-109027980D01*
X163358604Y-109075600D01*
X163406223Y-109123219D01*
X163453842Y-109218457D01*
X163453842Y-109361314D01*
X163406223Y-109456552D01*
X163358604Y-109504171D01*
X163263366Y-109551790D01*
X162882414Y-109551790D01*
X163834795Y-109123219D02*
X163882414Y-109075600D01*
X163977652Y-109027980D01*
X164215747Y-109027980D01*
X164310985Y-109075600D01*
X164358604Y-109123219D01*
X164406223Y-109218457D01*
X164406223Y-109313695D01*
X164358604Y-109456552D01*
X163787176Y-110027980D01*
X164406223Y-110027980D01*
X164739557Y-109027980D02*
X165358604Y-109027980D01*
X165025271Y-109408933D01*
X165168128Y-109408933D01*
X165263366Y-109456552D01*
X165310985Y-109504171D01*
X165358604Y-109599409D01*
X165358604Y-109837504D01*
X165310985Y-109932742D01*
X165263366Y-109980361D01*
X165168128Y-110027980D01*
X164882414Y-110027980D01*
X164787176Y-109980361D01*
X164739557Y-109932742D01*
X163276042Y-108351580D02*
X162942709Y-107875390D01*
X162704614Y-108351580D02*
X162704614Y-107351580D01*
X163085566Y-107351580D01*
X163180804Y-107399200D01*
X163228423Y-107446819D01*
X163276042Y-107542057D01*
X163276042Y-107684914D01*
X163228423Y-107780152D01*
X163180804Y-107827771D01*
X163085566Y-107875390D01*
X162704614Y-107875390D01*
X163656995Y-107446819D02*
X163704614Y-107399200D01*
X163799852Y-107351580D01*
X164037947Y-107351580D01*
X164133185Y-107399200D01*
X164180804Y-107446819D01*
X164228423Y-107542057D01*
X164228423Y-107637295D01*
X164180804Y-107780152D01*
X163609376Y-108351580D01*
X164228423Y-108351580D01*
X164609376Y-107446819D02*
X164656995Y-107399200D01*
X164752233Y-107351580D01*
X164990328Y-107351580D01*
X165085566Y-107399200D01*
X165133185Y-107446819D01*
X165180804Y-107542057D01*
X165180804Y-107637295D01*
X165133185Y-107780152D01*
X164561757Y-108351580D01*
X165180804Y-108351580D01*
X163418282Y-106789480D02*
X163084949Y-106313290D01*
X162846854Y-106789480D02*
X162846854Y-105789480D01*
X163227806Y-105789480D01*
X163323044Y-105837100D01*
X163370663Y-105884719D01*
X163418282Y-105979957D01*
X163418282Y-106122814D01*
X163370663Y-106218052D01*
X163323044Y-106265671D01*
X163227806Y-106313290D01*
X162846854Y-106313290D01*
X163799235Y-105884719D02*
X163846854Y-105837100D01*
X163942092Y-105789480D01*
X164180187Y-105789480D01*
X164275425Y-105837100D01*
X164323044Y-105884719D01*
X164370663Y-105979957D01*
X164370663Y-106075195D01*
X164323044Y-106218052D01*
X163751616Y-106789480D01*
X164370663Y-106789480D01*
X165323044Y-106789480D02*
X164751616Y-106789480D01*
X165037330Y-106789480D02*
X165037330Y-105789480D01*
X164942092Y-105932338D01*
X164846854Y-106027576D01*
X164751616Y-106075195D01*
X122445542Y-128519180D02*
X122112209Y-128042990D01*
X121874114Y-128519180D02*
X121874114Y-127519180D01*
X122255066Y-127519180D01*
X122350304Y-127566800D01*
X122397923Y-127614419D01*
X122445542Y-127709657D01*
X122445542Y-127852514D01*
X122397923Y-127947752D01*
X122350304Y-127995371D01*
X122255066Y-128042990D01*
X121874114Y-128042990D01*
X122826495Y-127614419D02*
X122874114Y-127566800D01*
X122969352Y-127519180D01*
X123207447Y-127519180D01*
X123302685Y-127566800D01*
X123350304Y-127614419D01*
X123397923Y-127709657D01*
X123397923Y-127804895D01*
X123350304Y-127947752D01*
X122778876Y-128519180D01*
X123397923Y-128519180D01*
X124016971Y-127519180D02*
X124112209Y-127519180D01*
X124207447Y-127566800D01*
X124255066Y-127614419D01*
X124302685Y-127709657D01*
X124350304Y-127900133D01*
X124350304Y-128138228D01*
X124302685Y-128328704D01*
X124255066Y-128423942D01*
X124207447Y-128471561D01*
X124112209Y-128519180D01*
X124016971Y-128519180D01*
X123921733Y-128471561D01*
X123874114Y-128423942D01*
X123826495Y-128328704D01*
X123778876Y-128138228D01*
X123778876Y-127900133D01*
X123826495Y-127709657D01*
X123874114Y-127614419D01*
X123921733Y-127566800D01*
X124016971Y-127519180D01*
X103420942Y-105862380D02*
X103087609Y-105386190D01*
X102849514Y-105862380D02*
X102849514Y-104862380D01*
X103230466Y-104862380D01*
X103325704Y-104910000D01*
X103373323Y-104957619D01*
X103420942Y-105052857D01*
X103420942Y-105195714D01*
X103373323Y-105290952D01*
X103325704Y-105338571D01*
X103230466Y-105386190D01*
X102849514Y-105386190D01*
X104373323Y-105862380D02*
X103801895Y-105862380D01*
X104087609Y-105862380D02*
X104087609Y-104862380D01*
X103992371Y-105005238D01*
X103897133Y-105100476D01*
X103801895Y-105148095D01*
X104849514Y-105862380D02*
X105039990Y-105862380D01*
X105135228Y-105814761D01*
X105182847Y-105767142D01*
X105278085Y-105624285D01*
X105325704Y-105433809D01*
X105325704Y-105052857D01*
X105278085Y-104957619D01*
X105230466Y-104910000D01*
X105135228Y-104862380D01*
X104944752Y-104862380D01*
X104849514Y-104910000D01*
X104801895Y-104957619D01*
X104754276Y-105052857D01*
X104754276Y-105290952D01*
X104801895Y-105386190D01*
X104849514Y-105433809D01*
X104944752Y-105481428D01*
X105135228Y-105481428D01*
X105230466Y-105433809D01*
X105278085Y-105386190D01*
X105325704Y-105290952D01*
X119346742Y-128519180D02*
X119013409Y-128042990D01*
X118775314Y-128519180D02*
X118775314Y-127519180D01*
X119156266Y-127519180D01*
X119251504Y-127566800D01*
X119299123Y-127614419D01*
X119346742Y-127709657D01*
X119346742Y-127852514D01*
X119299123Y-127947752D01*
X119251504Y-127995371D01*
X119156266Y-128042990D01*
X118775314Y-128042990D01*
X120299123Y-128519180D02*
X119727695Y-128519180D01*
X120013409Y-128519180D02*
X120013409Y-127519180D01*
X119918171Y-127662038D01*
X119822933Y-127757276D01*
X119727695Y-127804895D01*
X120870552Y-127947752D02*
X120775314Y-127900133D01*
X120727695Y-127852514D01*
X120680076Y-127757276D01*
X120680076Y-127709657D01*
X120727695Y-127614419D01*
X120775314Y-127566800D01*
X120870552Y-127519180D01*
X121061028Y-127519180D01*
X121156266Y-127566800D01*
X121203885Y-127614419D01*
X121251504Y-127709657D01*
X121251504Y-127757276D01*
X121203885Y-127852514D01*
X121156266Y-127900133D01*
X121061028Y-127947752D01*
X120870552Y-127947752D01*
X120775314Y-127995371D01*
X120727695Y-128042990D01*
X120680076Y-128138228D01*
X120680076Y-128328704D01*
X120727695Y-128423942D01*
X120775314Y-128471561D01*
X120870552Y-128519180D01*
X121061028Y-128519180D01*
X121156266Y-128471561D01*
X121203885Y-128423942D01*
X121251504Y-128328704D01*
X121251504Y-128138228D01*
X121203885Y-128042990D01*
X121156266Y-127995371D01*
X121061028Y-127947752D01*
X103522542Y-103335080D02*
X103189209Y-102858890D01*
X102951114Y-103335080D02*
X102951114Y-102335080D01*
X103332066Y-102335080D01*
X103427304Y-102382700D01*
X103474923Y-102430319D01*
X103522542Y-102525557D01*
X103522542Y-102668414D01*
X103474923Y-102763652D01*
X103427304Y-102811271D01*
X103332066Y-102858890D01*
X102951114Y-102858890D01*
X104474923Y-103335080D02*
X103903495Y-103335080D01*
X104189209Y-103335080D02*
X104189209Y-102335080D01*
X104093971Y-102477938D01*
X103998733Y-102573176D01*
X103903495Y-102620795D01*
X104808257Y-102335080D02*
X105474923Y-102335080D01*
X105046352Y-103335080D01*
X157500580Y-72220057D02*
X157024390Y-72553390D01*
X157500580Y-72791485D02*
X156500580Y-72791485D01*
X156500580Y-72410533D01*
X156548200Y-72315295D01*
X156595819Y-72267676D01*
X156691057Y-72220057D01*
X156833914Y-72220057D01*
X156929152Y-72267676D01*
X156976771Y-72315295D01*
X157024390Y-72410533D01*
X157024390Y-72791485D01*
X157500580Y-71267676D02*
X157500580Y-71839104D01*
X157500580Y-71553390D02*
X156500580Y-71553390D01*
X156643438Y-71648628D01*
X156738676Y-71743866D01*
X156786295Y-71839104D01*
X156500580Y-70362914D02*
X156500580Y-70839104D01*
X156976771Y-70886723D01*
X156929152Y-70839104D01*
X156881533Y-70743866D01*
X156881533Y-70505771D01*
X156929152Y-70410533D01*
X156976771Y-70362914D01*
X157072009Y-70315295D01*
X157310104Y-70315295D01*
X157405342Y-70362914D01*
X157452961Y-70410533D01*
X157500580Y-70505771D01*
X157500580Y-70743866D01*
X157452961Y-70839104D01*
X157405342Y-70886723D01*
X156248360Y-73095716D02*
X156248360Y-73667144D01*
X156248360Y-73381430D02*
X155248360Y-73381430D01*
X155391218Y-73476668D01*
X155486456Y-73571906D01*
X155534075Y-73667144D01*
X156248360Y-72095716D02*
X155772170Y-72429049D01*
X156248360Y-72667144D02*
X155248360Y-72667144D01*
X155248360Y-72286192D01*
X155295980Y-72190954D01*
X155343599Y-72143335D01*
X155438837Y-72095716D01*
X155581694Y-72095716D01*
X155676932Y-72143335D01*
X155724551Y-72190954D01*
X155772170Y-72286192D01*
X155772170Y-72667144D01*
X155248360Y-71476668D02*
X155248360Y-71381430D01*
X155295980Y-71286192D01*
X155343599Y-71238573D01*
X155438837Y-71190954D01*
X155629313Y-71143335D01*
X155867408Y-71143335D01*
X156057884Y-71190954D01*
X156153122Y-71238573D01*
X156200741Y-71286192D01*
X156248360Y-71381430D01*
X156248360Y-71476668D01*
X156200741Y-71571906D01*
X156153122Y-71619525D01*
X156057884Y-71667144D01*
X155867408Y-71714763D01*
X155629313Y-71714763D01*
X155438837Y-71667144D01*
X155343599Y-71619525D01*
X155295980Y-71571906D01*
X155248360Y-71476668D01*
X177312580Y-82287406D02*
X176836390Y-82620740D01*
X177312580Y-82858835D02*
X176312580Y-82858835D01*
X176312580Y-82477882D01*
X176360200Y-82382644D01*
X176407819Y-82335025D01*
X176503057Y-82287406D01*
X176645914Y-82287406D01*
X176741152Y-82335025D01*
X176788771Y-82382644D01*
X176836390Y-82477882D01*
X176836390Y-82858835D01*
X176312580Y-81954073D02*
X176312580Y-81287406D01*
X177312580Y-81715978D01*
X171835771Y-83079933D02*
X171835771Y-83413266D01*
X172359580Y-83413266D02*
X171359580Y-83413266D01*
X171359580Y-82937076D01*
X172359580Y-82032314D02*
X172359580Y-82603742D01*
X172359580Y-82318028D02*
X171359580Y-82318028D01*
X171502438Y-82413266D01*
X171597676Y-82508504D01*
X171645295Y-82603742D01*
X180403262Y-122614962D02*
X180355643Y-122662581D01*
X180212786Y-122710200D01*
X180117548Y-122710200D01*
X179974691Y-122662581D01*
X179879453Y-122567343D01*
X179831834Y-122472105D01*
X179784215Y-122281629D01*
X179784215Y-122138772D01*
X179831834Y-121948296D01*
X179879453Y-121853058D01*
X179974691Y-121757820D01*
X180117548Y-121710200D01*
X180212786Y-121710200D01*
X180355643Y-121757820D01*
X180403262Y-121805439D01*
X180784215Y-121805439D02*
X180831834Y-121757820D01*
X180927072Y-121710200D01*
X181165167Y-121710200D01*
X181260405Y-121757820D01*
X181308024Y-121805439D01*
X181355643Y-121900677D01*
X181355643Y-121995915D01*
X181308024Y-122138772D01*
X180736596Y-122710200D01*
X181355643Y-122710200D01*
X181736596Y-121805439D02*
X181784215Y-121757820D01*
X181879453Y-121710200D01*
X182117548Y-121710200D01*
X182212786Y-121757820D01*
X182260405Y-121805439D01*
X182308024Y-121900677D01*
X182308024Y-121995915D01*
X182260405Y-122138772D01*
X181688977Y-122710200D01*
X182308024Y-122710200D01*
X188721002Y-126228077D02*
X188768621Y-126275696D01*
X188816240Y-126418553D01*
X188816240Y-126513791D01*
X188768621Y-126656648D01*
X188673383Y-126751886D01*
X188578145Y-126799505D01*
X188387669Y-126847124D01*
X188244812Y-126847124D01*
X188054336Y-126799505D01*
X187959098Y-126751886D01*
X187863860Y-126656648D01*
X187816240Y-126513791D01*
X187816240Y-126418553D01*
X187863860Y-126275696D01*
X187911479Y-126228077D01*
X188816240Y-125275696D02*
X188816240Y-125847124D01*
X188816240Y-125561410D02*
X187816240Y-125561410D01*
X187959098Y-125656648D01*
X188054336Y-125751886D01*
X188101955Y-125847124D01*
X187816240Y-124370934D02*
X187816240Y-124847124D01*
X188292431Y-124894743D01*
X188244812Y-124847124D01*
X188197193Y-124751886D01*
X188197193Y-124513791D01*
X188244812Y-124418553D01*
X188292431Y-124370934D01*
X188387669Y-124323315D01*
X188625764Y-124323315D01*
X188721002Y-124370934D01*
X188768621Y-124418553D01*
X188816240Y-124513791D01*
X188816240Y-124751886D01*
X188768621Y-124847124D01*
X188721002Y-124894743D01*
X189364311Y-100168033D02*
X189364311Y-100501366D01*
X189888120Y-100501366D02*
X188888120Y-100501366D01*
X188888120Y-100025176D01*
X188983359Y-99691842D02*
X188935740Y-99644223D01*
X188888120Y-99548985D01*
X188888120Y-99310890D01*
X188935740Y-99215652D01*
X188983359Y-99168033D01*
X189078597Y-99120414D01*
X189173835Y-99120414D01*
X189316692Y-99168033D01*
X189888120Y-99739461D01*
X189888120Y-99120414D01*
X116854242Y-119527557D02*
X116901861Y-119575176D01*
X116949480Y-119718033D01*
X116949480Y-119813271D01*
X116901861Y-119956128D01*
X116806623Y-120051366D01*
X116711385Y-120098985D01*
X116520909Y-120146604D01*
X116378052Y-120146604D01*
X116187576Y-120098985D01*
X116092338Y-120051366D01*
X115997100Y-119956128D01*
X115949480Y-119813271D01*
X115949480Y-119718033D01*
X115997100Y-119575176D01*
X116044719Y-119527557D01*
X115949480Y-119194223D02*
X115949480Y-118575176D01*
X116330433Y-118908509D01*
X116330433Y-118765652D01*
X116378052Y-118670414D01*
X116425671Y-118622795D01*
X116520909Y-118575176D01*
X116759004Y-118575176D01*
X116854242Y-118622795D01*
X116901861Y-118670414D01*
X116949480Y-118765652D01*
X116949480Y-119051366D01*
X116901861Y-119146604D01*
X116854242Y-119194223D01*
X115949480Y-117718033D02*
X115949480Y-117908509D01*
X115997100Y-118003747D01*
X116044719Y-118051366D01*
X116187576Y-118146604D01*
X116378052Y-118194223D01*
X116759004Y-118194223D01*
X116854242Y-118146604D01*
X116901861Y-118098985D01*
X116949480Y-118003747D01*
X116949480Y-117813271D01*
X116901861Y-117718033D01*
X116854242Y-117670414D01*
X116759004Y-117622795D01*
X116520909Y-117622795D01*
X116425671Y-117670414D01*
X116378052Y-117718033D01*
X116330433Y-117813271D01*
X116330433Y-118003747D01*
X116378052Y-118098985D01*
X116425671Y-118146604D01*
X116520909Y-118194223D01*
X130929142Y-90400142D02*
X130881523Y-90447761D01*
X130738666Y-90495380D01*
X130643428Y-90495380D01*
X130500571Y-90447761D01*
X130405333Y-90352523D01*
X130357714Y-90257285D01*
X130310095Y-90066809D01*
X130310095Y-89923952D01*
X130357714Y-89733476D01*
X130405333Y-89638238D01*
X130500571Y-89543000D01*
X130643428Y-89495380D01*
X130738666Y-89495380D01*
X130881523Y-89543000D01*
X130929142Y-89590619D01*
X131310095Y-89590619D02*
X131357714Y-89543000D01*
X131452952Y-89495380D01*
X131691047Y-89495380D01*
X131786285Y-89543000D01*
X131833904Y-89590619D01*
X131881523Y-89685857D01*
X131881523Y-89781095D01*
X131833904Y-89923952D01*
X131262476Y-90495380D01*
X131881523Y-90495380D01*
X132452952Y-89923952D02*
X132357714Y-89876333D01*
X132310095Y-89828714D01*
X132262476Y-89733476D01*
X132262476Y-89685857D01*
X132310095Y-89590619D01*
X132357714Y-89543000D01*
X132452952Y-89495380D01*
X132643428Y-89495380D01*
X132738666Y-89543000D01*
X132786285Y-89590619D01*
X132833904Y-89685857D01*
X132833904Y-89733476D01*
X132786285Y-89828714D01*
X132738666Y-89876333D01*
X132643428Y-89923952D01*
X132452952Y-89923952D01*
X132357714Y-89971571D01*
X132310095Y-90019190D01*
X132262476Y-90114428D01*
X132262476Y-90304904D01*
X132310095Y-90400142D01*
X132357714Y-90447761D01*
X132452952Y-90495380D01*
X132643428Y-90495380D01*
X132738666Y-90447761D01*
X132786285Y-90400142D01*
X132833904Y-90304904D01*
X132833904Y-90114428D01*
X132786285Y-90019190D01*
X132738666Y-89971571D01*
X132643428Y-89923952D01*
X141654280Y-77922333D02*
X142368566Y-77922333D01*
X142511423Y-77969952D01*
X142606661Y-78065190D01*
X142654280Y-78208047D01*
X142654280Y-78303285D01*
X142654280Y-77446142D02*
X141654280Y-77446142D01*
X141654280Y-77065190D01*
X141701900Y-76969952D01*
X141749519Y-76922333D01*
X141844757Y-76874714D01*
X141987614Y-76874714D01*
X142082852Y-76922333D01*
X142130471Y-76969952D01*
X142178090Y-77065190D01*
X142178090Y-77446142D01*
X141749519Y-76493761D02*
X141701900Y-76446142D01*
X141654280Y-76350904D01*
X141654280Y-76112809D01*
X141701900Y-76017571D01*
X141749519Y-75969952D01*
X141844757Y-75922333D01*
X141939995Y-75922333D01*
X142082852Y-75969952D01*
X142654280Y-76541380D01*
X142654280Y-75922333D01*
X166395162Y-71025022D02*
X166347543Y-71072641D01*
X166204686Y-71120260D01*
X166109448Y-71120260D01*
X165966591Y-71072641D01*
X165871353Y-70977403D01*
X165823734Y-70882165D01*
X165776115Y-70691689D01*
X165776115Y-70548832D01*
X165823734Y-70358356D01*
X165871353Y-70263118D01*
X165966591Y-70167880D01*
X166109448Y-70120260D01*
X166204686Y-70120260D01*
X166347543Y-70167880D01*
X166395162Y-70215499D01*
X166728496Y-70120260D02*
X167347543Y-70120260D01*
X167014210Y-70501213D01*
X167157067Y-70501213D01*
X167252305Y-70548832D01*
X167299924Y-70596451D01*
X167347543Y-70691689D01*
X167347543Y-70929784D01*
X167299924Y-71025022D01*
X167252305Y-71072641D01*
X167157067Y-71120260D01*
X166871353Y-71120260D01*
X166776115Y-71072641D01*
X166728496Y-71025022D01*
X167966591Y-70120260D02*
X168061829Y-70120260D01*
X168157067Y-70167880D01*
X168204686Y-70215499D01*
X168252305Y-70310737D01*
X168299924Y-70501213D01*
X168299924Y-70739308D01*
X168252305Y-70929784D01*
X168204686Y-71025022D01*
X168157067Y-71072641D01*
X168061829Y-71120260D01*
X167966591Y-71120260D01*
X167871353Y-71072641D01*
X167823734Y-71025022D01*
X167776115Y-70929784D01*
X167728496Y-70739308D01*
X167728496Y-70501213D01*
X167776115Y-70310737D01*
X167823734Y-70215499D01*
X167871353Y-70167880D01*
X167966591Y-70120260D01*
X123065800Y-122708895D02*
X122065800Y-122708895D01*
X122065800Y-122470800D01*
X122113420Y-122327942D01*
X122208658Y-122232704D01*
X122303896Y-122185085D01*
X122494372Y-122137466D01*
X122637229Y-122137466D01*
X122827705Y-122185085D01*
X122922943Y-122232704D01*
X123018181Y-122327942D01*
X123065800Y-122470800D01*
X123065800Y-122708895D01*
X122065800Y-121280323D02*
X122065800Y-121470800D01*
X122113420Y-121566038D01*
X122161039Y-121613657D01*
X122303896Y-121708895D01*
X122494372Y-121756514D01*
X122875324Y-121756514D01*
X122970562Y-121708895D01*
X123018181Y-121661276D01*
X123065800Y-121566038D01*
X123065800Y-121375561D01*
X123018181Y-121280323D01*
X122970562Y-121232704D01*
X122875324Y-121185085D01*
X122637229Y-121185085D01*
X122541991Y-121232704D01*
X122494372Y-121280323D01*
X122446753Y-121375561D01*
X122446753Y-121566038D01*
X122494372Y-121661276D01*
X122541991Y-121708895D01*
X122637229Y-121756514D01*
X111733104Y-104846380D02*
X111733104Y-103846380D01*
X111971200Y-103846380D01*
X112114057Y-103894000D01*
X112209295Y-103989238D01*
X112256914Y-104084476D01*
X112304533Y-104274952D01*
X112304533Y-104417809D01*
X112256914Y-104608285D01*
X112209295Y-104703523D01*
X112114057Y-104798761D01*
X111971200Y-104846380D01*
X111733104Y-104846380D01*
X113209295Y-103846380D02*
X112733104Y-103846380D01*
X112685485Y-104322571D01*
X112733104Y-104274952D01*
X112828342Y-104227333D01*
X113066438Y-104227333D01*
X113161676Y-104274952D01*
X113209295Y-104322571D01*
X113256914Y-104417809D01*
X113256914Y-104655904D01*
X113209295Y-104751142D01*
X113161676Y-104798761D01*
X113066438Y-104846380D01*
X112828342Y-104846380D01*
X112733104Y-104798761D01*
X112685485Y-104751142D01*
X121000780Y-122716515D02*
X120000780Y-122716515D01*
X120000780Y-122478420D01*
X120048400Y-122335562D01*
X120143638Y-122240324D01*
X120238876Y-122192705D01*
X120429352Y-122145086D01*
X120572209Y-122145086D01*
X120762685Y-122192705D01*
X120857923Y-122240324D01*
X120953161Y-122335562D01*
X121000780Y-122478420D01*
X121000780Y-122716515D01*
X120334114Y-121287943D02*
X121000780Y-121287943D01*
X119953161Y-121526039D02*
X120667447Y-121764134D01*
X120667447Y-121145086D01*
X111771204Y-103004880D02*
X111771204Y-102004880D01*
X112009300Y-102004880D01*
X112152157Y-102052500D01*
X112247395Y-102147738D01*
X112295014Y-102242976D01*
X112342633Y-102433452D01*
X112342633Y-102576309D01*
X112295014Y-102766785D01*
X112247395Y-102862023D01*
X112152157Y-102957261D01*
X112009300Y-103004880D01*
X111771204Y-103004880D01*
X112675966Y-102004880D02*
X113295014Y-102004880D01*
X112961680Y-102385833D01*
X113104538Y-102385833D01*
X113199776Y-102433452D01*
X113247395Y-102481071D01*
X113295014Y-102576309D01*
X113295014Y-102814404D01*
X113247395Y-102909642D01*
X113199776Y-102957261D01*
X113104538Y-103004880D01*
X112818823Y-103004880D01*
X112723585Y-102957261D01*
X112675966Y-102909642D01*
X183243480Y-126913877D02*
X182767290Y-127247210D01*
X183243480Y-127485305D02*
X182243480Y-127485305D01*
X182243480Y-127104353D01*
X182291100Y-127009115D01*
X182338719Y-126961496D01*
X182433957Y-126913877D01*
X182576814Y-126913877D01*
X182672052Y-126961496D01*
X182719671Y-127009115D01*
X182767290Y-127104353D01*
X182767290Y-127485305D01*
X183243480Y-125961496D02*
X183243480Y-126532924D01*
X183243480Y-126247210D02*
X182243480Y-126247210D01*
X182386338Y-126342448D01*
X182481576Y-126437686D01*
X182529195Y-126532924D01*
X182243480Y-125104353D02*
X182243480Y-125294829D01*
X182291100Y-125390067D01*
X182338719Y-125437686D01*
X182481576Y-125532924D01*
X182672052Y-125580543D01*
X183053004Y-125580543D01*
X183148242Y-125532924D01*
X183195861Y-125485305D01*
X183243480Y-125390067D01*
X183243480Y-125199591D01*
X183195861Y-125104353D01*
X183148242Y-125056734D01*
X183053004Y-125009115D01*
X182814909Y-125009115D01*
X182719671Y-125056734D01*
X182672052Y-125104353D01*
X182624433Y-125199591D01*
X182624433Y-125390067D01*
X182672052Y-125485305D01*
X182719671Y-125532924D01*
X182814909Y-125580543D01*
X178671480Y-127821915D02*
X177671480Y-127821915D01*
X177671480Y-127583820D01*
X177719100Y-127440962D01*
X177814338Y-127345724D01*
X177909576Y-127298105D01*
X178100052Y-127250486D01*
X178242909Y-127250486D01*
X178433385Y-127298105D01*
X178528623Y-127345724D01*
X178623861Y-127440962D01*
X178671480Y-127583820D01*
X178671480Y-127821915D01*
X177766719Y-126869534D02*
X177719100Y-126821915D01*
X177671480Y-126726677D01*
X177671480Y-126488581D01*
X177719100Y-126393343D01*
X177766719Y-126345724D01*
X177861957Y-126298105D01*
X177957195Y-126298105D01*
X178100052Y-126345724D01*
X178671480Y-126917153D01*
X178671480Y-126298105D01*
X104370142Y-98483657D02*
X104417761Y-98531276D01*
X104465380Y-98674133D01*
X104465380Y-98769371D01*
X104417761Y-98912228D01*
X104322523Y-99007466D01*
X104227285Y-99055085D01*
X104036809Y-99102704D01*
X103893952Y-99102704D01*
X103703476Y-99055085D01*
X103608238Y-99007466D01*
X103513000Y-98912228D01*
X103465380Y-98769371D01*
X103465380Y-98674133D01*
X103513000Y-98531276D01*
X103560619Y-98483657D01*
X103465380Y-98150323D02*
X103465380Y-97531276D01*
X103846333Y-97864609D01*
X103846333Y-97721752D01*
X103893952Y-97626514D01*
X103941571Y-97578895D01*
X104036809Y-97531276D01*
X104274904Y-97531276D01*
X104370142Y-97578895D01*
X104417761Y-97626514D01*
X104465380Y-97721752D01*
X104465380Y-98007466D01*
X104417761Y-98102704D01*
X104370142Y-98150323D01*
X104465380Y-96578895D02*
X104465380Y-97150323D01*
X104465380Y-96864609D02*
X103465380Y-96864609D01*
X103608238Y-96959847D01*
X103703476Y-97055085D01*
X103751095Y-97150323D01*
X153097004Y-73672960D02*
X153097004Y-72672960D01*
X153335100Y-72672960D01*
X153477957Y-72720580D01*
X153573195Y-72815818D01*
X153620814Y-72911056D01*
X153668433Y-73101532D01*
X153668433Y-73244389D01*
X153620814Y-73434865D01*
X153573195Y-73530103D01*
X153477957Y-73625341D01*
X153335100Y-73672960D01*
X153097004Y-73672960D01*
X154620814Y-73672960D02*
X154049385Y-73672960D01*
X154335100Y-73672960D02*
X154335100Y-72672960D01*
X154239861Y-72815818D01*
X154144623Y-72911056D01*
X154049385Y-72958675D01*
X119956342Y-91454242D02*
X119908723Y-91501861D01*
X119765866Y-91549480D01*
X119670628Y-91549480D01*
X119527771Y-91501861D01*
X119432533Y-91406623D01*
X119384914Y-91311385D01*
X119337295Y-91120909D01*
X119337295Y-90978052D01*
X119384914Y-90787576D01*
X119432533Y-90692338D01*
X119527771Y-90597100D01*
X119670628Y-90549480D01*
X119765866Y-90549480D01*
X119908723Y-90597100D01*
X119956342Y-90644719D01*
X120337295Y-90644719D02*
X120384914Y-90597100D01*
X120480152Y-90549480D01*
X120718247Y-90549480D01*
X120813485Y-90597100D01*
X120861104Y-90644719D01*
X120908723Y-90739957D01*
X120908723Y-90835195D01*
X120861104Y-90978052D01*
X120289676Y-91549480D01*
X120908723Y-91549480D01*
X121384914Y-91549480D02*
X121575390Y-91549480D01*
X121670628Y-91501861D01*
X121718247Y-91454242D01*
X121813485Y-91311385D01*
X121861104Y-91120909D01*
X121861104Y-90739957D01*
X121813485Y-90644719D01*
X121765866Y-90597100D01*
X121670628Y-90549480D01*
X121480152Y-90549480D01*
X121384914Y-90597100D01*
X121337295Y-90644719D01*
X121289676Y-90739957D01*
X121289676Y-90978052D01*
X121337295Y-91073290D01*
X121384914Y-91120909D01*
X121480152Y-91168528D01*
X121670628Y-91168528D01*
X121765866Y-91120909D01*
X121813485Y-91073290D01*
X121861104Y-90978052D01*
X183760382Y-111437657D02*
X183808001Y-111485276D01*
X183855620Y-111628133D01*
X183855620Y-111723371D01*
X183808001Y-111866228D01*
X183712763Y-111961466D01*
X183617525Y-112009085D01*
X183427049Y-112056704D01*
X183284192Y-112056704D01*
X183093716Y-112009085D01*
X182998478Y-111961466D01*
X182903240Y-111866228D01*
X182855620Y-111723371D01*
X182855620Y-111628133D01*
X182903240Y-111485276D01*
X182950859Y-111437657D01*
X183855620Y-110485276D02*
X183855620Y-111056704D01*
X183855620Y-110770990D02*
X182855620Y-110770990D01*
X182998478Y-110866228D01*
X183093716Y-110961466D01*
X183141335Y-111056704D01*
X183284192Y-109913847D02*
X183236573Y-110009085D01*
X183188954Y-110056704D01*
X183093716Y-110104323D01*
X183046097Y-110104323D01*
X182950859Y-110056704D01*
X182903240Y-110009085D01*
X182855620Y-109913847D01*
X182855620Y-109723371D01*
X182903240Y-109628133D01*
X182950859Y-109580514D01*
X183046097Y-109532895D01*
X183093716Y-109532895D01*
X183188954Y-109580514D01*
X183236573Y-109628133D01*
X183284192Y-109723371D01*
X183284192Y-109913847D01*
X183331811Y-110009085D01*
X183379430Y-110056704D01*
X183474668Y-110104323D01*
X183665144Y-110104323D01*
X183760382Y-110056704D01*
X183808001Y-110009085D01*
X183855620Y-109913847D01*
X183855620Y-109723371D01*
X183808001Y-109628133D01*
X183760382Y-109580514D01*
X183665144Y-109532895D01*
X183474668Y-109532895D01*
X183379430Y-109580514D01*
X183331811Y-109628133D01*
X183284192Y-109723371D01*
X109999542Y-111355142D02*
X109951923Y-111402761D01*
X109809066Y-111450380D01*
X109713828Y-111450380D01*
X109570971Y-111402761D01*
X109475733Y-111307523D01*
X109428114Y-111212285D01*
X109380495Y-111021809D01*
X109380495Y-110878952D01*
X109428114Y-110688476D01*
X109475733Y-110593238D01*
X109570971Y-110498000D01*
X109713828Y-110450380D01*
X109809066Y-110450380D01*
X109951923Y-110498000D01*
X109999542Y-110545619D01*
X110380495Y-110545619D02*
X110428114Y-110498000D01*
X110523352Y-110450380D01*
X110761447Y-110450380D01*
X110856685Y-110498000D01*
X110904304Y-110545619D01*
X110951923Y-110640857D01*
X110951923Y-110736095D01*
X110904304Y-110878952D01*
X110332876Y-111450380D01*
X110951923Y-111450380D01*
X111809066Y-110450380D02*
X111618590Y-110450380D01*
X111523352Y-110498000D01*
X111475733Y-110545619D01*
X111380495Y-110688476D01*
X111332876Y-110878952D01*
X111332876Y-111259904D01*
X111380495Y-111355142D01*
X111428114Y-111402761D01*
X111523352Y-111450380D01*
X111713828Y-111450380D01*
X111809066Y-111402761D01*
X111856685Y-111355142D01*
X111904304Y-111259904D01*
X111904304Y-111021809D01*
X111856685Y-110926571D01*
X111809066Y-110878952D01*
X111713828Y-110831333D01*
X111523352Y-110831333D01*
X111428114Y-110878952D01*
X111380495Y-110926571D01*
X111332876Y-111021809D01*
X187955180Y-107964266D02*
X187478990Y-108297600D01*
X187955180Y-108535695D02*
X186955180Y-108535695D01*
X186955180Y-108154742D01*
X187002800Y-108059504D01*
X187050419Y-108011885D01*
X187145657Y-107964266D01*
X187288514Y-107964266D01*
X187383752Y-108011885D01*
X187431371Y-108059504D01*
X187478990Y-108154742D01*
X187478990Y-108535695D01*
X187050419Y-107583314D02*
X187002800Y-107535695D01*
X186955180Y-107440457D01*
X186955180Y-107202361D01*
X187002800Y-107107123D01*
X187050419Y-107059504D01*
X187145657Y-107011885D01*
X187240895Y-107011885D01*
X187383752Y-107059504D01*
X187955180Y-107630933D01*
X187955180Y-107011885D01*
X175375842Y-115209557D02*
X175423461Y-115257176D01*
X175471080Y-115400033D01*
X175471080Y-115495271D01*
X175423461Y-115638128D01*
X175328223Y-115733366D01*
X175232985Y-115780985D01*
X175042509Y-115828604D01*
X174899652Y-115828604D01*
X174709176Y-115780985D01*
X174613938Y-115733366D01*
X174518700Y-115638128D01*
X174471080Y-115495271D01*
X174471080Y-115400033D01*
X174518700Y-115257176D01*
X174566319Y-115209557D01*
X174566319Y-114828604D02*
X174518700Y-114780985D01*
X174471080Y-114685747D01*
X174471080Y-114447652D01*
X174518700Y-114352414D01*
X174566319Y-114304795D01*
X174661557Y-114257176D01*
X174756795Y-114257176D01*
X174899652Y-114304795D01*
X175471080Y-114876223D01*
X175471080Y-114257176D01*
X174471080Y-113638128D02*
X174471080Y-113542890D01*
X174518700Y-113447652D01*
X174566319Y-113400033D01*
X174661557Y-113352414D01*
X174852033Y-113304795D01*
X175090128Y-113304795D01*
X175280604Y-113352414D01*
X175375842Y-113400033D01*
X175423461Y-113447652D01*
X175471080Y-113542890D01*
X175471080Y-113638128D01*
X175423461Y-113733366D01*
X175375842Y-113780985D01*
X175280604Y-113828604D01*
X175090128Y-113876223D01*
X174852033Y-113876223D01*
X174661557Y-113828604D01*
X174566319Y-113780985D01*
X174518700Y-113733366D01*
X174471080Y-113638128D01*
X180809662Y-100298522D02*
X180762043Y-100346141D01*
X180619186Y-100393760D01*
X180523948Y-100393760D01*
X180381091Y-100346141D01*
X180285853Y-100250903D01*
X180238234Y-100155665D01*
X180190615Y-99965189D01*
X180190615Y-99822332D01*
X180238234Y-99631856D01*
X180285853Y-99536618D01*
X180381091Y-99441380D01*
X180523948Y-99393760D01*
X180619186Y-99393760D01*
X180762043Y-99441380D01*
X180809662Y-99488999D01*
X181762043Y-100393760D02*
X181190615Y-100393760D01*
X181476329Y-100393760D02*
X181476329Y-99393760D01*
X181381091Y-99536618D01*
X181285853Y-99631856D01*
X181190615Y-99679475D01*
X182095377Y-99393760D02*
X182762043Y-99393760D01*
X182333472Y-100393760D01*
X193026302Y-119182117D02*
X193073921Y-119229736D01*
X193121540Y-119372593D01*
X193121540Y-119467831D01*
X193073921Y-119610688D01*
X192978683Y-119705926D01*
X192883445Y-119753545D01*
X192692969Y-119801164D01*
X192550112Y-119801164D01*
X192359636Y-119753545D01*
X192264398Y-119705926D01*
X192169160Y-119610688D01*
X192121540Y-119467831D01*
X192121540Y-119372593D01*
X192169160Y-119229736D01*
X192216779Y-119182117D01*
X193121540Y-118229736D02*
X193121540Y-118801164D01*
X193121540Y-118515450D02*
X192121540Y-118515450D01*
X192264398Y-118610688D01*
X192359636Y-118705926D01*
X192407255Y-118801164D01*
X192121540Y-117372593D02*
X192121540Y-117563069D01*
X192169160Y-117658307D01*
X192216779Y-117705926D01*
X192359636Y-117801164D01*
X192550112Y-117848783D01*
X192931064Y-117848783D01*
X193026302Y-117801164D01*
X193073921Y-117753545D01*
X193121540Y-117658307D01*
X193121540Y-117467831D01*
X193073921Y-117372593D01*
X193026302Y-117324974D01*
X192931064Y-117277355D01*
X192692969Y-117277355D01*
X192597731Y-117324974D01*
X192550112Y-117372593D01*
X192502493Y-117467831D01*
X192502493Y-117658307D01*
X192550112Y-117753545D01*
X192597731Y-117801164D01*
X192692969Y-117848783D01*
X176357042Y-101766642D02*
X176309423Y-101814261D01*
X176166566Y-101861880D01*
X176071328Y-101861880D01*
X175928471Y-101814261D01*
X175833233Y-101719023D01*
X175785614Y-101623785D01*
X175737995Y-101433309D01*
X175737995Y-101290452D01*
X175785614Y-101099976D01*
X175833233Y-101004738D01*
X175928471Y-100909500D01*
X176071328Y-100861880D01*
X176166566Y-100861880D01*
X176309423Y-100909500D01*
X176357042Y-100957119D01*
X177309423Y-101861880D02*
X176737995Y-101861880D01*
X177023709Y-101861880D02*
X177023709Y-100861880D01*
X176928471Y-101004738D01*
X176833233Y-101099976D01*
X176737995Y-101147595D01*
X177642757Y-100861880D02*
X178261804Y-100861880D01*
X177928471Y-101242833D01*
X178071328Y-101242833D01*
X178166566Y-101290452D01*
X178214185Y-101338071D01*
X178261804Y-101433309D01*
X178261804Y-101671404D01*
X178214185Y-101766642D01*
X178166566Y-101814261D01*
X178071328Y-101861880D01*
X177785614Y-101861880D01*
X177690376Y-101814261D01*
X177642757Y-101766642D01*
X117759242Y-113222042D02*
X117711623Y-113269661D01*
X117568766Y-113317280D01*
X117473528Y-113317280D01*
X117330671Y-113269661D01*
X117235433Y-113174423D01*
X117187814Y-113079185D01*
X117140195Y-112888709D01*
X117140195Y-112745852D01*
X117187814Y-112555376D01*
X117235433Y-112460138D01*
X117330671Y-112364900D01*
X117473528Y-112317280D01*
X117568766Y-112317280D01*
X117711623Y-112364900D01*
X117759242Y-112412519D01*
X118711623Y-113317280D02*
X118140195Y-113317280D01*
X118425909Y-113317280D02*
X118425909Y-112317280D01*
X118330671Y-112460138D01*
X118235433Y-112555376D01*
X118140195Y-112602995D01*
X119092576Y-112412519D02*
X119140195Y-112364900D01*
X119235433Y-112317280D01*
X119473528Y-112317280D01*
X119568766Y-112364900D01*
X119616385Y-112412519D01*
X119664004Y-112507757D01*
X119664004Y-112602995D01*
X119616385Y-112745852D01*
X119044957Y-113317280D01*
X119664004Y-113317280D01*
X147070082Y-95208386D02*
X147117701Y-95256005D01*
X147165320Y-95398862D01*
X147165320Y-95494100D01*
X147117701Y-95636958D01*
X147022463Y-95732196D01*
X146927225Y-95779815D01*
X146736749Y-95827434D01*
X146593892Y-95827434D01*
X146403416Y-95779815D01*
X146308178Y-95732196D01*
X146212940Y-95636958D01*
X146165320Y-95494100D01*
X146165320Y-95398862D01*
X146212940Y-95256005D01*
X146260559Y-95208386D01*
X147165320Y-94732196D02*
X147165320Y-94541720D01*
X147117701Y-94446481D01*
X147070082Y-94398862D01*
X146927225Y-94303624D01*
X146736749Y-94256005D01*
X146355797Y-94256005D01*
X146260559Y-94303624D01*
X146212940Y-94351243D01*
X146165320Y-94446481D01*
X146165320Y-94636958D01*
X146212940Y-94732196D01*
X146260559Y-94779815D01*
X146355797Y-94827434D01*
X146593892Y-94827434D01*
X146689130Y-94779815D01*
X146736749Y-94732196D01*
X146784368Y-94636958D01*
X146784368Y-94446481D01*
X146736749Y-94351243D01*
X146689130Y-94303624D01*
X146593892Y-94256005D01*
X135398782Y-112830906D02*
X135446401Y-112878525D01*
X135494020Y-113021382D01*
X135494020Y-113116620D01*
X135446401Y-113259478D01*
X135351163Y-113354716D01*
X135255925Y-113402335D01*
X135065449Y-113449954D01*
X134922592Y-113449954D01*
X134732116Y-113402335D01*
X134636878Y-113354716D01*
X134541640Y-113259478D01*
X134494020Y-113116620D01*
X134494020Y-113021382D01*
X134541640Y-112878525D01*
X134589259Y-112830906D01*
X134922592Y-112259478D02*
X134874973Y-112354716D01*
X134827354Y-112402335D01*
X134732116Y-112449954D01*
X134684497Y-112449954D01*
X134589259Y-112402335D01*
X134541640Y-112354716D01*
X134494020Y-112259478D01*
X134494020Y-112069001D01*
X134541640Y-111973763D01*
X134589259Y-111926144D01*
X134684497Y-111878525D01*
X134732116Y-111878525D01*
X134827354Y-111926144D01*
X134874973Y-111973763D01*
X134922592Y-112069001D01*
X134922592Y-112259478D01*
X134970211Y-112354716D01*
X135017830Y-112402335D01*
X135113068Y-112449954D01*
X135303544Y-112449954D01*
X135398782Y-112402335D01*
X135446401Y-112354716D01*
X135494020Y-112259478D01*
X135494020Y-112069001D01*
X135446401Y-111973763D01*
X135398782Y-111926144D01*
X135303544Y-111878525D01*
X135113068Y-111878525D01*
X135017830Y-111926144D01*
X134970211Y-111973763D01*
X134922592Y-112069001D01*
X149744180Y-89026904D02*
X150553704Y-89026904D01*
X150648942Y-88979285D01*
X150696561Y-88931666D01*
X150744180Y-88836428D01*
X150744180Y-88645952D01*
X150696561Y-88550714D01*
X150648942Y-88503095D01*
X150553704Y-88455476D01*
X149744180Y-88455476D01*
X149744180Y-88074523D02*
X149744180Y-87407857D01*
X150744180Y-87836428D01*
X114260333Y-100306142D02*
X114212714Y-100353761D01*
X114069857Y-100401380D01*
X113974619Y-100401380D01*
X113831761Y-100353761D01*
X113736523Y-100258523D01*
X113688904Y-100163285D01*
X113641285Y-99972809D01*
X113641285Y-99829952D01*
X113688904Y-99639476D01*
X113736523Y-99544238D01*
X113831761Y-99449000D01*
X113974619Y-99401380D01*
X114069857Y-99401380D01*
X114212714Y-99449000D01*
X114260333Y-99496619D01*
X115117476Y-99734714D02*
X115117476Y-100401380D01*
X114879380Y-99353761D02*
X114641285Y-100068047D01*
X115260333Y-100068047D01*
X180048920Y-98317203D02*
X181048920Y-97983870D01*
X180048920Y-97650537D01*
X181048920Y-96745775D02*
X180572730Y-97079108D01*
X181048920Y-97317203D02*
X180048920Y-97317203D01*
X180048920Y-96936251D01*
X180096540Y-96841013D01*
X180144159Y-96793394D01*
X180239397Y-96745775D01*
X180382254Y-96745775D01*
X180477492Y-96793394D01*
X180525111Y-96841013D01*
X180572730Y-96936251D01*
X180572730Y-97317203D01*
X181048920Y-95793394D02*
X181048920Y-96364822D01*
X181048920Y-96079108D02*
X180048920Y-96079108D01*
X180191778Y-96174346D01*
X180287016Y-96269584D01*
X180334635Y-96364822D01*
X126619095Y-91476580D02*
X126619095Y-92286104D01*
X126666714Y-92381342D01*
X126714333Y-92428961D01*
X126809571Y-92476580D01*
X127000047Y-92476580D01*
X127095285Y-92428961D01*
X127142904Y-92381342D01*
X127190523Y-92286104D01*
X127190523Y-91476580D01*
X128190523Y-92476580D02*
X127619095Y-92476580D01*
X127904809Y-92476580D02*
X127904809Y-91476580D01*
X127809571Y-91619438D01*
X127714333Y-91714676D01*
X127619095Y-91762295D01*
M02*
