M48
; DRILL file {KiCad (5.1.2)-1} date 2020/02/06 13:24:53
; FORMAT={-:-/ absolute / metric / decimal}
; #@! TF.CreationDate,2020-02-06T13:24:53+09:00
; #@! TF.GenerationSoftware,Kicad,Pcbnew,(5.1.2)-1
FMAT,2
METRIC
T1C0.400
T2C0.500
T3C0.800
T4C1.000
T5C1.100
T6C1.000
T7C3.200
%
G90
G05
T1
X102.197Y-108.217
X102.621Y-97.521
X103.358Y-114.021
X103.429Y-109.474
X103.505Y-93.32
X103.586Y-119.167
X104.14Y-110.363
X105.423Y-90.513
X105.448Y-92.164
X105.448Y-93.789
X105.537Y-77.927
X105.562Y-80.213
X105.588Y-84.353
X105.689Y-87.249
X106.172Y-67.297
X106.299Y-69.063
X106.782Y-101.371
X109.333Y-64.909
X109.4Y-109.548
X109.563Y-66.751
X109.677Y-63.754
X110.629Y-70.603
X110.655Y-62.509
X110.846Y-96.037
X111.354Y-69.761
X111.557Y-97.866
X111.608Y-94.323
X112.039Y-105.232
X112.243Y-97.079
X112.433Y-100.559
X112.497Y-62.179
X112.822Y-124.912
X112.827Y-109.004
X112.827Y-110.49
X112.973Y-107.71
X112.979Y-87.389
X113.221Y-88.405
X113.271Y-99.911
X113.668Y-112.525
X113.796Y-89.405
X113.861Y-123.845
X114.123Y-102.942
X114.452Y-103.886
X114.604Y-111.34
X114.617Y-90.246
X114.643Y-92.253
X114.932Y-122.814
X115.008Y-112.255
X115.113Y-110.134
X115.118Y-109.043
X115.418Y-128.905
X115.483Y-89.745
X115.491Y-126.111
X115.835Y-69.571
X116.055Y-101.472
X116.154Y-116.863
X116.154Y-121.478
X116.472Y-63.538
X116.479Y-68.435
X116.484Y-62.484
X116.5Y-125.037
X116.558Y-90.887
X116.738Y-97.561
X116.977Y-107.241
X117.078Y-104.38
X117.383Y-110.569
X117.496Y-113.864
X117.511Y-123.96
X117.934Y-90.693
X118.773Y-91.646
X118.897Y-93.777
X119.15Y-115.995
X119.298Y-69.261
X119.866Y-70.677
X119.99Y-64.656
X120.04Y-89.865
X120.193Y-93.777
X120.269Y-111.468
X120.688Y-118.631
X120.746Y-69.667
X120.751Y-120.045
X120.881Y-88.42
X120.937Y-92.177
X120.997Y-84.85
X121.056Y-80.785
X121.056Y-89.764
X121.107Y-121.285
X121.183Y-64.631
X121.701Y-88.999
X121.92Y-97.028
X121.92Y-99.568
X121.92Y-102.108
X121.92Y-104.648
X121.92Y-107.188
X122.016Y-84.856
X122.044Y-121.993
X123.14Y-119.315
X123.209Y-122.115
X123.22Y-66.105
X123.271Y-84.615
X123.952Y-124.054
X124.063Y-117.887
X124.46Y-97.028
X124.46Y-99.568
X124.46Y-102.108
X124.46Y-104.648
X124.46Y-107.188
X124.876Y-87.426
X124.892Y-92.405
X124.917Y-124.079
X124.955Y-79.858
X124.993Y-75.184
X125.007Y-117.557
X125.026Y-77.247
X125.12Y-115.443
X125.387Y-61.836
X125.4Y-116.637
X125.771Y-113.461
X126.496Y-115.316
X127.0Y-99.568
X127.0Y-102.108
X127.0Y-104.648
X127.0Y-107.188
X127.061Y-128.905
X127.686Y-80.34
X127.813Y-96.19
X127.859Y-116.864
X128.018Y-115.867
X128.067Y-68.741
X128.305Y-74.501
X128.396Y-114.888
X128.524Y-97.536
X128.844Y-96.148
X129.274Y-91.184
X129.54Y-102.108
X129.54Y-99.568
X129.54Y-104.648
X129.54Y-107.188
X129.56Y-75.618
X129.56Y-77.216
X129.565Y-115.706
X129.565Y-78.753
X129.759Y-88.845
X129.87Y-95.91
X129.882Y-90.295
X129.896Y-68.962
X130.429Y-114.402
X130.62Y-115.383
X130.758Y-88.89
X130.785Y-111.152
X130.945Y-92.164
X131.064Y-97.536
X131.166Y-70.46
X131.59Y-85.359
X131.902Y-69.748
X132.08Y-99.568
X132.08Y-102.108
X132.08Y-104.648
X132.08Y-107.188
X132.524Y-85.852
X132.744Y-70.327
X132.828Y-114.402
X133.139Y-78.153
X133.162Y-76.5
X133.162Y-79.865
X133.172Y-96.825
X133.476Y-69.641
X133.604Y-85.103
X134.112Y-90.678
X134.163Y-93.751
X134.426Y-69.952
X134.431Y-88.682
X134.547Y-114.319
X134.671Y-85.127
X134.823Y-111.152
X135.352Y-70.358
X135.382Y-94.742
X135.646Y-84.902
X135.692Y-114.74
X135.966Y-125.73
X136.533Y-93.451
X136.83Y-114.986
X136.855Y-110.109
X137.003Y-99.635
X137.06Y-105.914
X137.427Y-113.161
X137.449Y-94.313
X137.49Y-112.014
X137.541Y-96.075
X137.541Y-96.965
X137.801Y-116.595
X137.972Y-99.389
X138.468Y-84.595
X138.558Y-115.87
X138.587Y-104.731
X138.592Y-91.138
X138.781Y-90.122
X138.905Y-98.823
X139.476Y-117.165
X139.53Y-99.728
X139.563Y-73.022
X139.573Y-113.983
X139.576Y-104.899
X140.09Y-97.098
X140.138Y-105.726
X140.277Y-109.22
X140.306Y-76.19
X140.306Y-78.222
X140.306Y-80.381
X140.417Y-72.088
X140.441Y-113.486
X140.487Y-70.637
X140.538Y-85.331
X140.589Y-98.742
X141.16Y-110.49
X141.58Y-71.691
X141.961Y-115.468
X143.015Y-108.547
X143.421Y-89.649
X143.975Y-117.909
X144.018Y-110.49
X144.018Y-102.298
X144.638Y-90.13
X144.894Y-96.19
X144.907Y-98.425
X144.92Y-94.272
X144.945Y-92.469
X144.984Y-89.112
X145.009Y-110.36
X145.339Y-108.547
X145.872Y-68.491
X146.088Y-89.433
X146.86Y-108.725
X146.944Y-105.624
X146.969Y-117.881
X147.85Y-108.582
X147.927Y-96.586
X147.971Y-66.427
X148.218Y-101.473
X148.252Y-103.274
X148.399Y-106.261
X149.263Y-102.667
X149.454Y-72.86
X150.132Y-117.909
X150.444Y-71.882
X150.571Y-109.614
X150.847Y-74.967
X150.847Y-78.184
X150.876Y-99.543
X151.511Y-70.841
X151.765Y-97.599
X151.917Y-118.707
X151.917Y-119.977
X151.956Y-115.519
X151.973Y-91.427
X152.456Y-128.91
X153.077Y-106.12
X153.187Y-118.707
X153.187Y-119.977
X153.543Y-83.248
X153.543Y-86.741
X153.612Y-97.602
X153.612Y-99.057
X153.737Y-93.064
X153.746Y-65.405
X154.064Y-92.119
X154.114Y-106.453
X154.457Y-118.707
X154.457Y-119.977
X154.6Y-93.835
X155.535Y-103.274
X155.644Y-92.674
X155.727Y-118.707
X155.727Y-119.977
X155.969Y-104.773
X156.07Y-106.223
X156.273Y-83.248
X156.273Y-86.741
X156.299Y-125.743
X156.764Y-73.134
X156.972Y-104.851
X157.236Y-118.412
X157.388Y-91.767
X157.651Y-104.019
X157.874Y-69.761
X157.959Y-95.456
X158.232Y-106.774
X158.455Y-109.79
X158.496Y-97.79
X158.496Y-99.631
X158.496Y-101.409
X159.017Y-118.415
X159.131Y-83.248
X159.131Y-86.741
X159.614Y-91.694
X159.804Y-69.787
X160.096Y-120.828
X160.365Y-106.774
X160.762Y-111.155
X161.486Y-96.129
X161.696Y-114.706
X161.709Y-72.466
X161.925Y-91.967
X161.963Y-69.393
X162.052Y-83.248
X162.052Y-86.741
X162.888Y-108.659
X163.182Y-69.609
X163.297Y-114.122
X163.573Y-118.252
X163.575Y-107.123
X163.865Y-100.905
X163.878Y-121.952
X163.937Y-111.78
X164.075Y-120.852
X164.325Y-68.478
X164.329Y-108.062
X164.528Y-96.139
X164.719Y-115.39
X164.909Y-91.967
X164.965Y-101.903
X165.04Y-100.906
X165.341Y-103.099
X165.43Y-68.618
X165.636Y-118.252
X166.129Y-67.869
X166.136Y-114.859
X166.205Y-66.015
X166.878Y-110.566
X167.198Y-111.699
X167.259Y-96.139
X167.831Y-91.967
X168.25Y-103.175
X168.465Y-107.785
X169.393Y-79.985
X169.393Y-82.271
X169.418Y-84.684
X169.418Y-86.97
X169.502Y-92.776
X169.507Y-103.264
X169.926Y-96.139
X170.028Y-78.029
X170.038Y-73.134
X170.383Y-102.298
X170.434Y-112.649
X170.637Y-71.857
X170.739Y-89.408
X170.786Y-93.742
X170.84Y-77.013
X170.866Y-74.498
X170.896Y-116.134
X171.132Y-103.06
X171.286Y-88.344
X171.298Y-118.262
X171.501Y-75.692
X171.643Y-80.815
X171.867Y-117.135
X171.914Y-93.83
X172.093Y-71.854
X172.105Y-68.263
X172.11Y-70.053
X172.212Y-74.498
X172.372Y-94.719
X172.493Y-79.629
X172.763Y-108.158
X172.763Y-110.19
X172.771Y-106.108
X173.114Y-86.98
X173.609Y-93.604
X174.142Y-85.014
X174.142Y-88.316
X174.727Y-115.976
X174.795Y-106.126
X174.795Y-108.158
X174.795Y-110.19
X175.171Y-101.867
X175.313Y-78.583
X175.353Y-73.136
X175.438Y-91.44
X175.753Y-84.343
X176.286Y-78.583
X176.352Y-92.532
X176.395Y-98.479
X176.479Y-97.561
X176.619Y-94.844
X176.827Y-106.126
X176.827Y-108.158
X176.827Y-110.19
X177.112Y-117.196
X177.112Y-118.466
X177.14Y-66.802
X177.14Y-70.053
X177.162Y-114.038
X177.19Y-73.558
X177.292Y-93.599
X177.673Y-85.979
X177.708Y-120.406
X177.708Y-125.435
X177.787Y-99.479
X178.022Y-81.191
X178.089Y-82.692
X178.999Y-112.227
X179.07Y-100.889
X179.095Y-99.619
X179.23Y-124.021
X179.248Y-121.691
X180.95Y-89.56
X180.973Y-112.833
X181.293Y-108.134
X181.543Y-86.172
X181.559Y-81.712
X181.559Y-83.312
X181.559Y-84.76
X181.844Y-99.741
X181.859Y-100.833
X182.608Y-109.022
X182.618Y-112.319
X182.677Y-89.56
X182.875Y-113.604
X183.321Y-86.172
X183.477Y-106.393
X183.947Y-126.492
X183.972Y-127.622
X184.429Y-119.852
X184.434Y-109.581
X184.439Y-116.259
X184.824Y-105.592
X184.942Y-121.737
X184.942Y-123.007
X185.316Y-94.912
X185.318Y-93.574
X185.42Y-89.535
X185.5Y-124.9
X185.979Y-100.533
X186.149Y-115.479
X186.924Y-126.738
X186.928Y-125.707
X187.249Y-89.535
X187.338Y-95.23
X187.747Y-115.481
X188.049Y-106.299
X188.346Y-95.242
X188.976Y-89.535
X189.314Y-107.711
X189.319Y-109.004
X189.327Y-106.302
X189.362Y-115.473
X189.484Y-101.016
X189.497Y-102.113
X189.662Y-119.507
X190.739Y-98.412
X190.739Y-99.809
X190.848Y-109.997
X190.866Y-111.608
X192.161Y-99.792
X192.169Y-98.387
X192.199Y-111.597
X192.225Y-109.99
T2
X184.803Y-68.021
T3
X144.094Y-75.959
X144.094Y-78.499
T4
X127.076Y-124.46
X127.076Y-127.0
X129.616Y-124.46
X129.616Y-127.0
X132.156Y-124.46
X132.156Y-127.0
X134.696Y-124.46
X134.696Y-127.0
X137.236Y-124.46
X137.236Y-127.0
X139.776Y-124.46
X139.776Y-127.0
X142.316Y-124.46
X142.316Y-127.0
X144.856Y-124.46
X144.856Y-127.0
X147.396Y-124.46
X147.396Y-127.0
X149.936Y-124.46
X149.936Y-127.0
X152.476Y-124.46
X152.476Y-127.0
X155.016Y-124.46
X155.016Y-127.0
X157.556Y-124.46
X157.556Y-127.0
X160.096Y-124.46
X160.096Y-127.0
X162.636Y-124.46
X162.636Y-127.0
X165.176Y-124.46
X165.176Y-127.0
X167.716Y-124.46
X167.716Y-127.0
X170.256Y-124.46
X170.256Y-127.0
X172.796Y-124.46
X172.796Y-127.0
X175.336Y-124.46
X175.336Y-127.0
X127.076Y-60.96
X127.076Y-63.5
X129.616Y-60.96
X129.616Y-63.5
X132.156Y-60.96
X132.156Y-63.5
X134.696Y-60.96
X134.696Y-63.5
X137.236Y-60.96
X137.236Y-63.5
X139.776Y-60.96
X139.776Y-63.5
X142.316Y-60.96
X142.316Y-63.5
X144.856Y-60.96
X144.856Y-63.5
X147.396Y-60.96
X147.396Y-63.5
X149.936Y-60.96
X149.936Y-63.5
X152.476Y-60.96
X152.476Y-63.5
X155.016Y-60.96
X155.016Y-63.5
X157.556Y-60.96
X157.556Y-63.5
X160.096Y-60.96
X160.096Y-63.5
X162.636Y-60.96
X162.636Y-63.5
X165.176Y-60.96
X165.176Y-63.5
X167.716Y-60.96
X167.716Y-63.5
X170.256Y-60.96
X170.256Y-63.5
X172.796Y-60.96
X172.796Y-63.5
X175.336Y-60.96
X175.336Y-63.5
T5
X105.584Y-75.895
X105.584Y-82.395
X110.084Y-75.895
X110.084Y-82.395
X105.664Y-113.134
X105.664Y-119.634
X110.164Y-113.134
X110.164Y-119.634
T6
X194.881Y-102.616
X194.881Y-107.366
T7
X193.0Y-61.0
X104.0Y-61.0
X104.0Y-127.0
X193.0Y-127.0
T0
M30
