G04 #@! TF.GenerationSoftware,KiCad,Pcbnew,(5.1.2)-1*
G04 #@! TF.CreationDate,2019-12-23T07:02:49+09:00*
G04 #@! TF.ProjectId,o2_breakout,6f325f62-7265-4616-9b6f-75742e6b6963,rev?*
G04 #@! TF.SameCoordinates,Original*
G04 #@! TF.FileFunction,Paste,Top*
G04 #@! TF.FilePolarity,Positive*
%FSLAX46Y46*%
G04 Gerber Fmt 4.6, Leading zero omitted, Abs format (unit mm)*
G04 Created by KiCad (PCBNEW (5.1.2)-1) date 2019-12-23 07:02:49*
%MOMM*%
%LPD*%
G04 APERTURE LIST*
%ADD10R,0.600000X1.300000*%
%ADD11R,1.800000X1.540000*%
%ADD12R,0.600000X0.500000*%
%ADD13R,0.750000X0.800000*%
%ADD14R,2.000000X2.500000*%
%ADD15R,0.300000X1.400000*%
%ADD16R,1.400000X0.300000*%
%ADD17R,1.250000X1.000000*%
%ADD18R,1.000000X1.250000*%
%ADD19R,0.800000X0.750000*%
%ADD20R,0.500000X0.600000*%
%ADD21R,2.000000X0.600000*%
%ADD22R,1.200000X0.750000*%
%ADD23C,0.100000*%
%ADD24C,0.600000*%
%ADD25R,0.400000X0.650000*%
%ADD26R,2.250000X1.760000*%
%ADD27R,1.900000X1.200000*%
%ADD28R,1.350000X0.400000*%
%ADD29R,1.900000X1.600000*%
%ADD30R,2.000000X2.100000*%
%ADD31R,0.600000X1.950000*%
%ADD32R,1.200000X0.700000*%
%ADD33R,1.200000X1.000000*%
%ADD34R,0.800000X1.000000*%
%ADD35R,2.800000X1.000000*%
%ADD36R,1.900000X1.300000*%
%ADD37R,0.550000X1.750000*%
%ADD38R,1.060000X0.650000*%
%ADD39R,1.500000X0.300000*%
%ADD40R,0.300000X1.500000*%
G04 APERTURE END LIST*
D10*
X105006100Y-109038100D03*
X106906100Y-109038100D03*
X105956100Y-106938100D03*
D11*
X105696560Y-97521880D03*
X105696560Y-100201880D03*
X108496560Y-100201880D03*
X108496560Y-97521880D03*
D12*
X147024000Y-98475800D03*
X148124000Y-98475800D03*
X147491360Y-93146880D03*
X148591360Y-93146880D03*
D13*
X179171600Y-96927100D03*
X179171600Y-95427100D03*
D14*
X113023400Y-127508000D03*
X109023400Y-127508000D03*
D15*
X172040000Y-104295000D03*
X172540000Y-104295000D03*
X173040000Y-104295000D03*
X173540000Y-104295000D03*
X174040000Y-104295000D03*
X174540000Y-104295000D03*
X175040000Y-104295000D03*
X175540000Y-104295000D03*
X176040000Y-104295000D03*
X176540000Y-104295000D03*
X177040000Y-104295000D03*
D16*
X178665000Y-105420000D03*
X178665000Y-105920000D03*
X178665000Y-106420000D03*
X178665000Y-106920000D03*
X178665000Y-107420000D03*
X178665000Y-107920000D03*
X178665000Y-108420000D03*
X178665000Y-108920000D03*
X178665000Y-109420000D03*
X178665000Y-109920000D03*
X178665000Y-110420000D03*
D15*
X177540000Y-112045000D03*
X177040000Y-112045000D03*
X176540000Y-112045000D03*
X176040000Y-112045000D03*
X175540000Y-112045000D03*
X175040000Y-112045000D03*
X174540000Y-112045000D03*
X174040000Y-112045000D03*
X173540000Y-112045000D03*
X173040000Y-112045000D03*
X172540000Y-112045000D03*
X172040000Y-112045000D03*
D16*
X170915000Y-110920000D03*
X170915000Y-110420000D03*
X170915000Y-109920000D03*
X170915000Y-109420000D03*
X170915000Y-108920000D03*
X170915000Y-108420000D03*
X170915000Y-107920000D03*
X170915000Y-107420000D03*
X170915000Y-106920000D03*
X170915000Y-106420000D03*
X170915000Y-105920000D03*
X170915000Y-105420000D03*
D15*
X177540000Y-104295000D03*
D16*
X178665000Y-110920000D03*
D17*
X182392320Y-106824020D03*
X182392320Y-104824020D03*
D18*
X184430160Y-103921560D03*
X186430160Y-103921560D03*
X183116980Y-101963220D03*
X185116980Y-101963220D03*
X186121800Y-109743240D03*
X188121800Y-109743240D03*
D19*
X187465400Y-97282000D03*
X185965400Y-97282000D03*
D12*
X165345200Y-103479600D03*
X164245200Y-103479600D03*
D20*
X166674800Y-105418800D03*
X166674800Y-106518800D03*
X165506400Y-105418800D03*
X165506400Y-106518800D03*
X164338000Y-105418800D03*
X164338000Y-106518800D03*
D12*
X148352600Y-77038200D03*
X147252600Y-77038200D03*
X122411400Y-126822200D03*
X123511400Y-126822200D03*
X107445900Y-104813100D03*
X106345900Y-104813100D03*
X120539600Y-126796800D03*
X119439600Y-126796800D03*
X107433200Y-102857300D03*
X106333200Y-102857300D03*
D13*
X156400500Y-76099100D03*
X156400500Y-74599100D03*
X175488600Y-82946940D03*
X175488600Y-81446940D03*
D17*
X173583600Y-81483200D03*
X173583600Y-83483200D03*
D12*
X180475800Y-120878600D03*
X181575800Y-120878600D03*
D19*
X188463620Y-127975360D03*
X186963620Y-127975360D03*
X183477600Y-94564200D03*
X181977600Y-94564200D03*
D17*
X187477400Y-98847400D03*
X187477400Y-100847400D03*
D13*
X114950240Y-117069300D03*
X114950240Y-115569300D03*
D20*
X131419600Y-91456600D03*
X131419600Y-90356600D03*
D17*
X158610300Y-76133200D03*
X158610300Y-74133200D03*
D21*
X161176020Y-76089880D03*
X161176020Y-74389880D03*
D13*
X122377200Y-123710000D03*
X122377200Y-125210000D03*
D19*
X110833600Y-104292400D03*
X109333600Y-104292400D03*
D13*
X120548400Y-123710000D03*
X120548400Y-125210000D03*
D19*
X110845600Y-102565200D03*
X109345600Y-102565200D03*
D13*
X180797200Y-125488000D03*
X180797200Y-126988000D03*
X179171600Y-125488000D03*
X179171600Y-126988000D03*
D20*
X103860600Y-95998120D03*
X103860600Y-94898120D03*
D22*
X154696200Y-74637900D03*
X152796200Y-74637900D03*
D12*
X119777600Y-92532200D03*
X118677600Y-92532200D03*
D23*
G36*
X150123203Y-95120722D02*
G01*
X150137764Y-95122882D01*
X150152043Y-95126459D01*
X150165903Y-95131418D01*
X150179210Y-95137712D01*
X150191836Y-95145280D01*
X150203659Y-95154048D01*
X150214566Y-95163934D01*
X150224452Y-95174841D01*
X150233220Y-95186664D01*
X150240788Y-95199290D01*
X150247082Y-95212597D01*
X150252041Y-95226457D01*
X150255618Y-95240736D01*
X150257778Y-95255297D01*
X150258500Y-95270000D01*
X150258500Y-96570000D01*
X150257778Y-96584703D01*
X150255618Y-96599264D01*
X150252041Y-96613543D01*
X150247082Y-96627403D01*
X150240788Y-96640710D01*
X150233220Y-96653336D01*
X150224452Y-96665159D01*
X150214566Y-96676066D01*
X150203659Y-96685952D01*
X150191836Y-96694720D01*
X150179210Y-96702288D01*
X150165903Y-96708582D01*
X150152043Y-96713541D01*
X150137764Y-96717118D01*
X150123203Y-96719278D01*
X150108500Y-96720000D01*
X149808500Y-96720000D01*
X149793797Y-96719278D01*
X149779236Y-96717118D01*
X149764957Y-96713541D01*
X149751097Y-96708582D01*
X149737790Y-96702288D01*
X149725164Y-96694720D01*
X149713341Y-96685952D01*
X149702434Y-96676066D01*
X149692548Y-96665159D01*
X149683780Y-96653336D01*
X149676212Y-96640710D01*
X149669918Y-96627403D01*
X149664959Y-96613543D01*
X149661382Y-96599264D01*
X149659222Y-96584703D01*
X149658500Y-96570000D01*
X149658500Y-95270000D01*
X149659222Y-95255297D01*
X149661382Y-95240736D01*
X149664959Y-95226457D01*
X149669918Y-95212597D01*
X149676212Y-95199290D01*
X149683780Y-95186664D01*
X149692548Y-95174841D01*
X149702434Y-95163934D01*
X149713341Y-95154048D01*
X149725164Y-95145280D01*
X149737790Y-95137712D01*
X149751097Y-95131418D01*
X149764957Y-95126459D01*
X149779236Y-95122882D01*
X149793797Y-95120722D01*
X149808500Y-95120000D01*
X150108500Y-95120000D01*
X150123203Y-95120722D01*
X150123203Y-95120722D01*
G37*
D24*
X149958500Y-95920000D03*
D23*
G36*
X151393203Y-95120722D02*
G01*
X151407764Y-95122882D01*
X151422043Y-95126459D01*
X151435903Y-95131418D01*
X151449210Y-95137712D01*
X151461836Y-95145280D01*
X151473659Y-95154048D01*
X151484566Y-95163934D01*
X151494452Y-95174841D01*
X151503220Y-95186664D01*
X151510788Y-95199290D01*
X151517082Y-95212597D01*
X151522041Y-95226457D01*
X151525618Y-95240736D01*
X151527778Y-95255297D01*
X151528500Y-95270000D01*
X151528500Y-96570000D01*
X151527778Y-96584703D01*
X151525618Y-96599264D01*
X151522041Y-96613543D01*
X151517082Y-96627403D01*
X151510788Y-96640710D01*
X151503220Y-96653336D01*
X151494452Y-96665159D01*
X151484566Y-96676066D01*
X151473659Y-96685952D01*
X151461836Y-96694720D01*
X151449210Y-96702288D01*
X151435903Y-96708582D01*
X151422043Y-96713541D01*
X151407764Y-96717118D01*
X151393203Y-96719278D01*
X151378500Y-96720000D01*
X151078500Y-96720000D01*
X151063797Y-96719278D01*
X151049236Y-96717118D01*
X151034957Y-96713541D01*
X151021097Y-96708582D01*
X151007790Y-96702288D01*
X150995164Y-96694720D01*
X150983341Y-96685952D01*
X150972434Y-96676066D01*
X150962548Y-96665159D01*
X150953780Y-96653336D01*
X150946212Y-96640710D01*
X150939918Y-96627403D01*
X150934959Y-96613543D01*
X150931382Y-96599264D01*
X150929222Y-96584703D01*
X150928500Y-96570000D01*
X150928500Y-95270000D01*
X150929222Y-95255297D01*
X150931382Y-95240736D01*
X150934959Y-95226457D01*
X150939918Y-95212597D01*
X150946212Y-95199290D01*
X150953780Y-95186664D01*
X150962548Y-95174841D01*
X150972434Y-95163934D01*
X150983341Y-95154048D01*
X150995164Y-95145280D01*
X151007790Y-95137712D01*
X151021097Y-95131418D01*
X151034957Y-95126459D01*
X151049236Y-95122882D01*
X151063797Y-95120722D01*
X151078500Y-95120000D01*
X151378500Y-95120000D01*
X151393203Y-95120722D01*
X151393203Y-95120722D01*
G37*
D24*
X151228500Y-95920000D03*
D23*
G36*
X152663203Y-95120722D02*
G01*
X152677764Y-95122882D01*
X152692043Y-95126459D01*
X152705903Y-95131418D01*
X152719210Y-95137712D01*
X152731836Y-95145280D01*
X152743659Y-95154048D01*
X152754566Y-95163934D01*
X152764452Y-95174841D01*
X152773220Y-95186664D01*
X152780788Y-95199290D01*
X152787082Y-95212597D01*
X152792041Y-95226457D01*
X152795618Y-95240736D01*
X152797778Y-95255297D01*
X152798500Y-95270000D01*
X152798500Y-96570000D01*
X152797778Y-96584703D01*
X152795618Y-96599264D01*
X152792041Y-96613543D01*
X152787082Y-96627403D01*
X152780788Y-96640710D01*
X152773220Y-96653336D01*
X152764452Y-96665159D01*
X152754566Y-96676066D01*
X152743659Y-96685952D01*
X152731836Y-96694720D01*
X152719210Y-96702288D01*
X152705903Y-96708582D01*
X152692043Y-96713541D01*
X152677764Y-96717118D01*
X152663203Y-96719278D01*
X152648500Y-96720000D01*
X152348500Y-96720000D01*
X152333797Y-96719278D01*
X152319236Y-96717118D01*
X152304957Y-96713541D01*
X152291097Y-96708582D01*
X152277790Y-96702288D01*
X152265164Y-96694720D01*
X152253341Y-96685952D01*
X152242434Y-96676066D01*
X152232548Y-96665159D01*
X152223780Y-96653336D01*
X152216212Y-96640710D01*
X152209918Y-96627403D01*
X152204959Y-96613543D01*
X152201382Y-96599264D01*
X152199222Y-96584703D01*
X152198500Y-96570000D01*
X152198500Y-95270000D01*
X152199222Y-95255297D01*
X152201382Y-95240736D01*
X152204959Y-95226457D01*
X152209918Y-95212597D01*
X152216212Y-95199290D01*
X152223780Y-95186664D01*
X152232548Y-95174841D01*
X152242434Y-95163934D01*
X152253341Y-95154048D01*
X152265164Y-95145280D01*
X152277790Y-95137712D01*
X152291097Y-95131418D01*
X152304957Y-95126459D01*
X152319236Y-95122882D01*
X152333797Y-95120722D01*
X152348500Y-95120000D01*
X152648500Y-95120000D01*
X152663203Y-95120722D01*
X152663203Y-95120722D01*
G37*
D24*
X152498500Y-95920000D03*
D23*
G36*
X153933203Y-95120722D02*
G01*
X153947764Y-95122882D01*
X153962043Y-95126459D01*
X153975903Y-95131418D01*
X153989210Y-95137712D01*
X154001836Y-95145280D01*
X154013659Y-95154048D01*
X154024566Y-95163934D01*
X154034452Y-95174841D01*
X154043220Y-95186664D01*
X154050788Y-95199290D01*
X154057082Y-95212597D01*
X154062041Y-95226457D01*
X154065618Y-95240736D01*
X154067778Y-95255297D01*
X154068500Y-95270000D01*
X154068500Y-96570000D01*
X154067778Y-96584703D01*
X154065618Y-96599264D01*
X154062041Y-96613543D01*
X154057082Y-96627403D01*
X154050788Y-96640710D01*
X154043220Y-96653336D01*
X154034452Y-96665159D01*
X154024566Y-96676066D01*
X154013659Y-96685952D01*
X154001836Y-96694720D01*
X153989210Y-96702288D01*
X153975903Y-96708582D01*
X153962043Y-96713541D01*
X153947764Y-96717118D01*
X153933203Y-96719278D01*
X153918500Y-96720000D01*
X153618500Y-96720000D01*
X153603797Y-96719278D01*
X153589236Y-96717118D01*
X153574957Y-96713541D01*
X153561097Y-96708582D01*
X153547790Y-96702288D01*
X153535164Y-96694720D01*
X153523341Y-96685952D01*
X153512434Y-96676066D01*
X153502548Y-96665159D01*
X153493780Y-96653336D01*
X153486212Y-96640710D01*
X153479918Y-96627403D01*
X153474959Y-96613543D01*
X153471382Y-96599264D01*
X153469222Y-96584703D01*
X153468500Y-96570000D01*
X153468500Y-95270000D01*
X153469222Y-95255297D01*
X153471382Y-95240736D01*
X153474959Y-95226457D01*
X153479918Y-95212597D01*
X153486212Y-95199290D01*
X153493780Y-95186664D01*
X153502548Y-95174841D01*
X153512434Y-95163934D01*
X153523341Y-95154048D01*
X153535164Y-95145280D01*
X153547790Y-95137712D01*
X153561097Y-95131418D01*
X153574957Y-95126459D01*
X153589236Y-95122882D01*
X153603797Y-95120722D01*
X153618500Y-95120000D01*
X153918500Y-95120000D01*
X153933203Y-95120722D01*
X153933203Y-95120722D01*
G37*
D24*
X153768500Y-95920000D03*
D23*
G36*
X153933203Y-102320722D02*
G01*
X153947764Y-102322882D01*
X153962043Y-102326459D01*
X153975903Y-102331418D01*
X153989210Y-102337712D01*
X154001836Y-102345280D01*
X154013659Y-102354048D01*
X154024566Y-102363934D01*
X154034452Y-102374841D01*
X154043220Y-102386664D01*
X154050788Y-102399290D01*
X154057082Y-102412597D01*
X154062041Y-102426457D01*
X154065618Y-102440736D01*
X154067778Y-102455297D01*
X154068500Y-102470000D01*
X154068500Y-103770000D01*
X154067778Y-103784703D01*
X154065618Y-103799264D01*
X154062041Y-103813543D01*
X154057082Y-103827403D01*
X154050788Y-103840710D01*
X154043220Y-103853336D01*
X154034452Y-103865159D01*
X154024566Y-103876066D01*
X154013659Y-103885952D01*
X154001836Y-103894720D01*
X153989210Y-103902288D01*
X153975903Y-103908582D01*
X153962043Y-103913541D01*
X153947764Y-103917118D01*
X153933203Y-103919278D01*
X153918500Y-103920000D01*
X153618500Y-103920000D01*
X153603797Y-103919278D01*
X153589236Y-103917118D01*
X153574957Y-103913541D01*
X153561097Y-103908582D01*
X153547790Y-103902288D01*
X153535164Y-103894720D01*
X153523341Y-103885952D01*
X153512434Y-103876066D01*
X153502548Y-103865159D01*
X153493780Y-103853336D01*
X153486212Y-103840710D01*
X153479918Y-103827403D01*
X153474959Y-103813543D01*
X153471382Y-103799264D01*
X153469222Y-103784703D01*
X153468500Y-103770000D01*
X153468500Y-102470000D01*
X153469222Y-102455297D01*
X153471382Y-102440736D01*
X153474959Y-102426457D01*
X153479918Y-102412597D01*
X153486212Y-102399290D01*
X153493780Y-102386664D01*
X153502548Y-102374841D01*
X153512434Y-102363934D01*
X153523341Y-102354048D01*
X153535164Y-102345280D01*
X153547790Y-102337712D01*
X153561097Y-102331418D01*
X153574957Y-102326459D01*
X153589236Y-102322882D01*
X153603797Y-102320722D01*
X153618500Y-102320000D01*
X153918500Y-102320000D01*
X153933203Y-102320722D01*
X153933203Y-102320722D01*
G37*
D24*
X153768500Y-103120000D03*
D23*
G36*
X152663203Y-102320722D02*
G01*
X152677764Y-102322882D01*
X152692043Y-102326459D01*
X152705903Y-102331418D01*
X152719210Y-102337712D01*
X152731836Y-102345280D01*
X152743659Y-102354048D01*
X152754566Y-102363934D01*
X152764452Y-102374841D01*
X152773220Y-102386664D01*
X152780788Y-102399290D01*
X152787082Y-102412597D01*
X152792041Y-102426457D01*
X152795618Y-102440736D01*
X152797778Y-102455297D01*
X152798500Y-102470000D01*
X152798500Y-103770000D01*
X152797778Y-103784703D01*
X152795618Y-103799264D01*
X152792041Y-103813543D01*
X152787082Y-103827403D01*
X152780788Y-103840710D01*
X152773220Y-103853336D01*
X152764452Y-103865159D01*
X152754566Y-103876066D01*
X152743659Y-103885952D01*
X152731836Y-103894720D01*
X152719210Y-103902288D01*
X152705903Y-103908582D01*
X152692043Y-103913541D01*
X152677764Y-103917118D01*
X152663203Y-103919278D01*
X152648500Y-103920000D01*
X152348500Y-103920000D01*
X152333797Y-103919278D01*
X152319236Y-103917118D01*
X152304957Y-103913541D01*
X152291097Y-103908582D01*
X152277790Y-103902288D01*
X152265164Y-103894720D01*
X152253341Y-103885952D01*
X152242434Y-103876066D01*
X152232548Y-103865159D01*
X152223780Y-103853336D01*
X152216212Y-103840710D01*
X152209918Y-103827403D01*
X152204959Y-103813543D01*
X152201382Y-103799264D01*
X152199222Y-103784703D01*
X152198500Y-103770000D01*
X152198500Y-102470000D01*
X152199222Y-102455297D01*
X152201382Y-102440736D01*
X152204959Y-102426457D01*
X152209918Y-102412597D01*
X152216212Y-102399290D01*
X152223780Y-102386664D01*
X152232548Y-102374841D01*
X152242434Y-102363934D01*
X152253341Y-102354048D01*
X152265164Y-102345280D01*
X152277790Y-102337712D01*
X152291097Y-102331418D01*
X152304957Y-102326459D01*
X152319236Y-102322882D01*
X152333797Y-102320722D01*
X152348500Y-102320000D01*
X152648500Y-102320000D01*
X152663203Y-102320722D01*
X152663203Y-102320722D01*
G37*
D24*
X152498500Y-103120000D03*
D23*
G36*
X151393203Y-102320722D02*
G01*
X151407764Y-102322882D01*
X151422043Y-102326459D01*
X151435903Y-102331418D01*
X151449210Y-102337712D01*
X151461836Y-102345280D01*
X151473659Y-102354048D01*
X151484566Y-102363934D01*
X151494452Y-102374841D01*
X151503220Y-102386664D01*
X151510788Y-102399290D01*
X151517082Y-102412597D01*
X151522041Y-102426457D01*
X151525618Y-102440736D01*
X151527778Y-102455297D01*
X151528500Y-102470000D01*
X151528500Y-103770000D01*
X151527778Y-103784703D01*
X151525618Y-103799264D01*
X151522041Y-103813543D01*
X151517082Y-103827403D01*
X151510788Y-103840710D01*
X151503220Y-103853336D01*
X151494452Y-103865159D01*
X151484566Y-103876066D01*
X151473659Y-103885952D01*
X151461836Y-103894720D01*
X151449210Y-103902288D01*
X151435903Y-103908582D01*
X151422043Y-103913541D01*
X151407764Y-103917118D01*
X151393203Y-103919278D01*
X151378500Y-103920000D01*
X151078500Y-103920000D01*
X151063797Y-103919278D01*
X151049236Y-103917118D01*
X151034957Y-103913541D01*
X151021097Y-103908582D01*
X151007790Y-103902288D01*
X150995164Y-103894720D01*
X150983341Y-103885952D01*
X150972434Y-103876066D01*
X150962548Y-103865159D01*
X150953780Y-103853336D01*
X150946212Y-103840710D01*
X150939918Y-103827403D01*
X150934959Y-103813543D01*
X150931382Y-103799264D01*
X150929222Y-103784703D01*
X150928500Y-103770000D01*
X150928500Y-102470000D01*
X150929222Y-102455297D01*
X150931382Y-102440736D01*
X150934959Y-102426457D01*
X150939918Y-102412597D01*
X150946212Y-102399290D01*
X150953780Y-102386664D01*
X150962548Y-102374841D01*
X150972434Y-102363934D01*
X150983341Y-102354048D01*
X150995164Y-102345280D01*
X151007790Y-102337712D01*
X151021097Y-102331418D01*
X151034957Y-102326459D01*
X151049236Y-102322882D01*
X151063797Y-102320722D01*
X151078500Y-102320000D01*
X151378500Y-102320000D01*
X151393203Y-102320722D01*
X151393203Y-102320722D01*
G37*
D24*
X151228500Y-103120000D03*
D23*
G36*
X150123203Y-102320722D02*
G01*
X150137764Y-102322882D01*
X150152043Y-102326459D01*
X150165903Y-102331418D01*
X150179210Y-102337712D01*
X150191836Y-102345280D01*
X150203659Y-102354048D01*
X150214566Y-102363934D01*
X150224452Y-102374841D01*
X150233220Y-102386664D01*
X150240788Y-102399290D01*
X150247082Y-102412597D01*
X150252041Y-102426457D01*
X150255618Y-102440736D01*
X150257778Y-102455297D01*
X150258500Y-102470000D01*
X150258500Y-103770000D01*
X150257778Y-103784703D01*
X150255618Y-103799264D01*
X150252041Y-103813543D01*
X150247082Y-103827403D01*
X150240788Y-103840710D01*
X150233220Y-103853336D01*
X150224452Y-103865159D01*
X150214566Y-103876066D01*
X150203659Y-103885952D01*
X150191836Y-103894720D01*
X150179210Y-103902288D01*
X150165903Y-103908582D01*
X150152043Y-103913541D01*
X150137764Y-103917118D01*
X150123203Y-103919278D01*
X150108500Y-103920000D01*
X149808500Y-103920000D01*
X149793797Y-103919278D01*
X149779236Y-103917118D01*
X149764957Y-103913541D01*
X149751097Y-103908582D01*
X149737790Y-103902288D01*
X149725164Y-103894720D01*
X149713341Y-103885952D01*
X149702434Y-103876066D01*
X149692548Y-103865159D01*
X149683780Y-103853336D01*
X149676212Y-103840710D01*
X149669918Y-103827403D01*
X149664959Y-103813543D01*
X149661382Y-103799264D01*
X149659222Y-103784703D01*
X149658500Y-103770000D01*
X149658500Y-102470000D01*
X149659222Y-102455297D01*
X149661382Y-102440736D01*
X149664959Y-102426457D01*
X149669918Y-102412597D01*
X149676212Y-102399290D01*
X149683780Y-102386664D01*
X149692548Y-102374841D01*
X149702434Y-102363934D01*
X149713341Y-102354048D01*
X149725164Y-102345280D01*
X149737790Y-102337712D01*
X149751097Y-102331418D01*
X149764957Y-102326459D01*
X149779236Y-102322882D01*
X149793797Y-102320722D01*
X149808500Y-102320000D01*
X150108500Y-102320000D01*
X150123203Y-102320722D01*
X150123203Y-102320722D01*
G37*
D24*
X149958500Y-103120000D03*
D25*
X109382800Y-108150700D03*
X110682800Y-108150700D03*
X110032800Y-108150700D03*
X110682800Y-106250700D03*
X109382800Y-106250700D03*
D20*
X183766460Y-108731140D03*
X183766460Y-107631140D03*
D19*
X177315000Y-88344000D03*
X175815000Y-88344000D03*
D26*
X182160440Y-118512580D03*
X182160440Y-115812580D03*
X179210440Y-115812580D03*
X179210440Y-118512580D03*
D12*
X110676600Y-109816900D03*
X111776600Y-109816900D03*
D19*
X146437920Y-101655880D03*
X147937920Y-101655880D03*
D13*
X186055000Y-107953240D03*
X186055000Y-106453240D03*
D20*
X151914860Y-77489140D03*
X151914860Y-76389140D03*
D12*
X183490780Y-100070920D03*
X184590780Y-100070920D03*
X190389600Y-121780300D03*
X189289600Y-121780300D03*
X177029200Y-102590600D03*
X175929200Y-102590600D03*
X119980800Y-111531400D03*
X118880800Y-111531400D03*
X147910640Y-94206060D03*
X146810640Y-94206060D03*
D20*
X133731000Y-111413200D03*
X133731000Y-112513200D03*
D27*
X193992500Y-104179000D03*
X193992500Y-105879000D03*
D28*
X191317500Y-106329000D03*
X191317500Y-105679000D03*
X191317500Y-105029000D03*
X191317500Y-104379000D03*
X191317500Y-103729000D03*
D29*
X193992500Y-100929000D03*
X193992500Y-109129000D03*
D30*
X191642500Y-101929000D03*
X191642500Y-108129000D03*
D23*
G36*
X138629703Y-81526722D02*
G01*
X138644264Y-81528882D01*
X138658543Y-81532459D01*
X138672403Y-81537418D01*
X138685710Y-81543712D01*
X138698336Y-81551280D01*
X138710159Y-81560048D01*
X138721066Y-81569934D01*
X138730952Y-81580841D01*
X138739720Y-81592664D01*
X138747288Y-81605290D01*
X138753582Y-81618597D01*
X138758541Y-81632457D01*
X138762118Y-81646736D01*
X138764278Y-81661297D01*
X138765000Y-81676000D01*
X138765000Y-83076000D01*
X138764278Y-83090703D01*
X138762118Y-83105264D01*
X138758541Y-83119543D01*
X138753582Y-83133403D01*
X138747288Y-83146710D01*
X138739720Y-83159336D01*
X138730952Y-83171159D01*
X138721066Y-83182066D01*
X138710159Y-83191952D01*
X138698336Y-83200720D01*
X138685710Y-83208288D01*
X138672403Y-83214582D01*
X138658543Y-83219541D01*
X138644264Y-83223118D01*
X138629703Y-83225278D01*
X138615000Y-83226000D01*
X138315000Y-83226000D01*
X138300297Y-83225278D01*
X138285736Y-83223118D01*
X138271457Y-83219541D01*
X138257597Y-83214582D01*
X138244290Y-83208288D01*
X138231664Y-83200720D01*
X138219841Y-83191952D01*
X138208934Y-83182066D01*
X138199048Y-83171159D01*
X138190280Y-83159336D01*
X138182712Y-83146710D01*
X138176418Y-83133403D01*
X138171459Y-83119543D01*
X138167882Y-83105264D01*
X138165722Y-83090703D01*
X138165000Y-83076000D01*
X138165000Y-81676000D01*
X138165722Y-81661297D01*
X138167882Y-81646736D01*
X138171459Y-81632457D01*
X138176418Y-81618597D01*
X138182712Y-81605290D01*
X138190280Y-81592664D01*
X138199048Y-81580841D01*
X138208934Y-81569934D01*
X138219841Y-81560048D01*
X138231664Y-81551280D01*
X138244290Y-81543712D01*
X138257597Y-81537418D01*
X138271457Y-81532459D01*
X138285736Y-81528882D01*
X138300297Y-81526722D01*
X138315000Y-81526000D01*
X138615000Y-81526000D01*
X138629703Y-81526722D01*
X138629703Y-81526722D01*
G37*
D24*
X138465000Y-82376000D03*
D23*
G36*
X137359703Y-81526722D02*
G01*
X137374264Y-81528882D01*
X137388543Y-81532459D01*
X137402403Y-81537418D01*
X137415710Y-81543712D01*
X137428336Y-81551280D01*
X137440159Y-81560048D01*
X137451066Y-81569934D01*
X137460952Y-81580841D01*
X137469720Y-81592664D01*
X137477288Y-81605290D01*
X137483582Y-81618597D01*
X137488541Y-81632457D01*
X137492118Y-81646736D01*
X137494278Y-81661297D01*
X137495000Y-81676000D01*
X137495000Y-83076000D01*
X137494278Y-83090703D01*
X137492118Y-83105264D01*
X137488541Y-83119543D01*
X137483582Y-83133403D01*
X137477288Y-83146710D01*
X137469720Y-83159336D01*
X137460952Y-83171159D01*
X137451066Y-83182066D01*
X137440159Y-83191952D01*
X137428336Y-83200720D01*
X137415710Y-83208288D01*
X137402403Y-83214582D01*
X137388543Y-83219541D01*
X137374264Y-83223118D01*
X137359703Y-83225278D01*
X137345000Y-83226000D01*
X137045000Y-83226000D01*
X137030297Y-83225278D01*
X137015736Y-83223118D01*
X137001457Y-83219541D01*
X136987597Y-83214582D01*
X136974290Y-83208288D01*
X136961664Y-83200720D01*
X136949841Y-83191952D01*
X136938934Y-83182066D01*
X136929048Y-83171159D01*
X136920280Y-83159336D01*
X136912712Y-83146710D01*
X136906418Y-83133403D01*
X136901459Y-83119543D01*
X136897882Y-83105264D01*
X136895722Y-83090703D01*
X136895000Y-83076000D01*
X136895000Y-81676000D01*
X136895722Y-81661297D01*
X136897882Y-81646736D01*
X136901459Y-81632457D01*
X136906418Y-81618597D01*
X136912712Y-81605290D01*
X136920280Y-81592664D01*
X136929048Y-81580841D01*
X136938934Y-81569934D01*
X136949841Y-81560048D01*
X136961664Y-81551280D01*
X136974290Y-81543712D01*
X136987597Y-81537418D01*
X137001457Y-81532459D01*
X137015736Y-81528882D01*
X137030297Y-81526722D01*
X137045000Y-81526000D01*
X137345000Y-81526000D01*
X137359703Y-81526722D01*
X137359703Y-81526722D01*
G37*
D24*
X137195000Y-82376000D03*
D23*
G36*
X136089703Y-81526722D02*
G01*
X136104264Y-81528882D01*
X136118543Y-81532459D01*
X136132403Y-81537418D01*
X136145710Y-81543712D01*
X136158336Y-81551280D01*
X136170159Y-81560048D01*
X136181066Y-81569934D01*
X136190952Y-81580841D01*
X136199720Y-81592664D01*
X136207288Y-81605290D01*
X136213582Y-81618597D01*
X136218541Y-81632457D01*
X136222118Y-81646736D01*
X136224278Y-81661297D01*
X136225000Y-81676000D01*
X136225000Y-83076000D01*
X136224278Y-83090703D01*
X136222118Y-83105264D01*
X136218541Y-83119543D01*
X136213582Y-83133403D01*
X136207288Y-83146710D01*
X136199720Y-83159336D01*
X136190952Y-83171159D01*
X136181066Y-83182066D01*
X136170159Y-83191952D01*
X136158336Y-83200720D01*
X136145710Y-83208288D01*
X136132403Y-83214582D01*
X136118543Y-83219541D01*
X136104264Y-83223118D01*
X136089703Y-83225278D01*
X136075000Y-83226000D01*
X135775000Y-83226000D01*
X135760297Y-83225278D01*
X135745736Y-83223118D01*
X135731457Y-83219541D01*
X135717597Y-83214582D01*
X135704290Y-83208288D01*
X135691664Y-83200720D01*
X135679841Y-83191952D01*
X135668934Y-83182066D01*
X135659048Y-83171159D01*
X135650280Y-83159336D01*
X135642712Y-83146710D01*
X135636418Y-83133403D01*
X135631459Y-83119543D01*
X135627882Y-83105264D01*
X135625722Y-83090703D01*
X135625000Y-83076000D01*
X135625000Y-81676000D01*
X135625722Y-81661297D01*
X135627882Y-81646736D01*
X135631459Y-81632457D01*
X135636418Y-81618597D01*
X135642712Y-81605290D01*
X135650280Y-81592664D01*
X135659048Y-81580841D01*
X135668934Y-81569934D01*
X135679841Y-81560048D01*
X135691664Y-81551280D01*
X135704290Y-81543712D01*
X135717597Y-81537418D01*
X135731457Y-81532459D01*
X135745736Y-81528882D01*
X135760297Y-81526722D01*
X135775000Y-81526000D01*
X136075000Y-81526000D01*
X136089703Y-81526722D01*
X136089703Y-81526722D01*
G37*
D24*
X135925000Y-82376000D03*
D23*
G36*
X134819703Y-81526722D02*
G01*
X134834264Y-81528882D01*
X134848543Y-81532459D01*
X134862403Y-81537418D01*
X134875710Y-81543712D01*
X134888336Y-81551280D01*
X134900159Y-81560048D01*
X134911066Y-81569934D01*
X134920952Y-81580841D01*
X134929720Y-81592664D01*
X134937288Y-81605290D01*
X134943582Y-81618597D01*
X134948541Y-81632457D01*
X134952118Y-81646736D01*
X134954278Y-81661297D01*
X134955000Y-81676000D01*
X134955000Y-83076000D01*
X134954278Y-83090703D01*
X134952118Y-83105264D01*
X134948541Y-83119543D01*
X134943582Y-83133403D01*
X134937288Y-83146710D01*
X134929720Y-83159336D01*
X134920952Y-83171159D01*
X134911066Y-83182066D01*
X134900159Y-83191952D01*
X134888336Y-83200720D01*
X134875710Y-83208288D01*
X134862403Y-83214582D01*
X134848543Y-83219541D01*
X134834264Y-83223118D01*
X134819703Y-83225278D01*
X134805000Y-83226000D01*
X134505000Y-83226000D01*
X134490297Y-83225278D01*
X134475736Y-83223118D01*
X134461457Y-83219541D01*
X134447597Y-83214582D01*
X134434290Y-83208288D01*
X134421664Y-83200720D01*
X134409841Y-83191952D01*
X134398934Y-83182066D01*
X134389048Y-83171159D01*
X134380280Y-83159336D01*
X134372712Y-83146710D01*
X134366418Y-83133403D01*
X134361459Y-83119543D01*
X134357882Y-83105264D01*
X134355722Y-83090703D01*
X134355000Y-83076000D01*
X134355000Y-81676000D01*
X134355722Y-81661297D01*
X134357882Y-81646736D01*
X134361459Y-81632457D01*
X134366418Y-81618597D01*
X134372712Y-81605290D01*
X134380280Y-81592664D01*
X134389048Y-81580841D01*
X134398934Y-81569934D01*
X134409841Y-81560048D01*
X134421664Y-81551280D01*
X134434290Y-81543712D01*
X134447597Y-81537418D01*
X134461457Y-81532459D01*
X134475736Y-81528882D01*
X134490297Y-81526722D01*
X134505000Y-81526000D01*
X134805000Y-81526000D01*
X134819703Y-81526722D01*
X134819703Y-81526722D01*
G37*
D24*
X134655000Y-82376000D03*
D23*
G36*
X133549703Y-81526722D02*
G01*
X133564264Y-81528882D01*
X133578543Y-81532459D01*
X133592403Y-81537418D01*
X133605710Y-81543712D01*
X133618336Y-81551280D01*
X133630159Y-81560048D01*
X133641066Y-81569934D01*
X133650952Y-81580841D01*
X133659720Y-81592664D01*
X133667288Y-81605290D01*
X133673582Y-81618597D01*
X133678541Y-81632457D01*
X133682118Y-81646736D01*
X133684278Y-81661297D01*
X133685000Y-81676000D01*
X133685000Y-83076000D01*
X133684278Y-83090703D01*
X133682118Y-83105264D01*
X133678541Y-83119543D01*
X133673582Y-83133403D01*
X133667288Y-83146710D01*
X133659720Y-83159336D01*
X133650952Y-83171159D01*
X133641066Y-83182066D01*
X133630159Y-83191952D01*
X133618336Y-83200720D01*
X133605710Y-83208288D01*
X133592403Y-83214582D01*
X133578543Y-83219541D01*
X133564264Y-83223118D01*
X133549703Y-83225278D01*
X133535000Y-83226000D01*
X133235000Y-83226000D01*
X133220297Y-83225278D01*
X133205736Y-83223118D01*
X133191457Y-83219541D01*
X133177597Y-83214582D01*
X133164290Y-83208288D01*
X133151664Y-83200720D01*
X133139841Y-83191952D01*
X133128934Y-83182066D01*
X133119048Y-83171159D01*
X133110280Y-83159336D01*
X133102712Y-83146710D01*
X133096418Y-83133403D01*
X133091459Y-83119543D01*
X133087882Y-83105264D01*
X133085722Y-83090703D01*
X133085000Y-83076000D01*
X133085000Y-81676000D01*
X133085722Y-81661297D01*
X133087882Y-81646736D01*
X133091459Y-81632457D01*
X133096418Y-81618597D01*
X133102712Y-81605290D01*
X133110280Y-81592664D01*
X133119048Y-81580841D01*
X133128934Y-81569934D01*
X133139841Y-81560048D01*
X133151664Y-81551280D01*
X133164290Y-81543712D01*
X133177597Y-81537418D01*
X133191457Y-81532459D01*
X133205736Y-81528882D01*
X133220297Y-81526722D01*
X133235000Y-81526000D01*
X133535000Y-81526000D01*
X133549703Y-81526722D01*
X133549703Y-81526722D01*
G37*
D24*
X133385000Y-82376000D03*
D23*
G36*
X132279703Y-81526722D02*
G01*
X132294264Y-81528882D01*
X132308543Y-81532459D01*
X132322403Y-81537418D01*
X132335710Y-81543712D01*
X132348336Y-81551280D01*
X132360159Y-81560048D01*
X132371066Y-81569934D01*
X132380952Y-81580841D01*
X132389720Y-81592664D01*
X132397288Y-81605290D01*
X132403582Y-81618597D01*
X132408541Y-81632457D01*
X132412118Y-81646736D01*
X132414278Y-81661297D01*
X132415000Y-81676000D01*
X132415000Y-83076000D01*
X132414278Y-83090703D01*
X132412118Y-83105264D01*
X132408541Y-83119543D01*
X132403582Y-83133403D01*
X132397288Y-83146710D01*
X132389720Y-83159336D01*
X132380952Y-83171159D01*
X132371066Y-83182066D01*
X132360159Y-83191952D01*
X132348336Y-83200720D01*
X132335710Y-83208288D01*
X132322403Y-83214582D01*
X132308543Y-83219541D01*
X132294264Y-83223118D01*
X132279703Y-83225278D01*
X132265000Y-83226000D01*
X131965000Y-83226000D01*
X131950297Y-83225278D01*
X131935736Y-83223118D01*
X131921457Y-83219541D01*
X131907597Y-83214582D01*
X131894290Y-83208288D01*
X131881664Y-83200720D01*
X131869841Y-83191952D01*
X131858934Y-83182066D01*
X131849048Y-83171159D01*
X131840280Y-83159336D01*
X131832712Y-83146710D01*
X131826418Y-83133403D01*
X131821459Y-83119543D01*
X131817882Y-83105264D01*
X131815722Y-83090703D01*
X131815000Y-83076000D01*
X131815000Y-81676000D01*
X131815722Y-81661297D01*
X131817882Y-81646736D01*
X131821459Y-81632457D01*
X131826418Y-81618597D01*
X131832712Y-81605290D01*
X131840280Y-81592664D01*
X131849048Y-81580841D01*
X131858934Y-81569934D01*
X131869841Y-81560048D01*
X131881664Y-81551280D01*
X131894290Y-81543712D01*
X131907597Y-81537418D01*
X131921457Y-81532459D01*
X131935736Y-81528882D01*
X131950297Y-81526722D01*
X131965000Y-81526000D01*
X132265000Y-81526000D01*
X132279703Y-81526722D01*
X132279703Y-81526722D01*
G37*
D24*
X132115000Y-82376000D03*
D23*
G36*
X131009703Y-81526722D02*
G01*
X131024264Y-81528882D01*
X131038543Y-81532459D01*
X131052403Y-81537418D01*
X131065710Y-81543712D01*
X131078336Y-81551280D01*
X131090159Y-81560048D01*
X131101066Y-81569934D01*
X131110952Y-81580841D01*
X131119720Y-81592664D01*
X131127288Y-81605290D01*
X131133582Y-81618597D01*
X131138541Y-81632457D01*
X131142118Y-81646736D01*
X131144278Y-81661297D01*
X131145000Y-81676000D01*
X131145000Y-83076000D01*
X131144278Y-83090703D01*
X131142118Y-83105264D01*
X131138541Y-83119543D01*
X131133582Y-83133403D01*
X131127288Y-83146710D01*
X131119720Y-83159336D01*
X131110952Y-83171159D01*
X131101066Y-83182066D01*
X131090159Y-83191952D01*
X131078336Y-83200720D01*
X131065710Y-83208288D01*
X131052403Y-83214582D01*
X131038543Y-83219541D01*
X131024264Y-83223118D01*
X131009703Y-83225278D01*
X130995000Y-83226000D01*
X130695000Y-83226000D01*
X130680297Y-83225278D01*
X130665736Y-83223118D01*
X130651457Y-83219541D01*
X130637597Y-83214582D01*
X130624290Y-83208288D01*
X130611664Y-83200720D01*
X130599841Y-83191952D01*
X130588934Y-83182066D01*
X130579048Y-83171159D01*
X130570280Y-83159336D01*
X130562712Y-83146710D01*
X130556418Y-83133403D01*
X130551459Y-83119543D01*
X130547882Y-83105264D01*
X130545722Y-83090703D01*
X130545000Y-83076000D01*
X130545000Y-81676000D01*
X130545722Y-81661297D01*
X130547882Y-81646736D01*
X130551459Y-81632457D01*
X130556418Y-81618597D01*
X130562712Y-81605290D01*
X130570280Y-81592664D01*
X130579048Y-81580841D01*
X130588934Y-81569934D01*
X130599841Y-81560048D01*
X130611664Y-81551280D01*
X130624290Y-81543712D01*
X130637597Y-81537418D01*
X130651457Y-81532459D01*
X130665736Y-81528882D01*
X130680297Y-81526722D01*
X130695000Y-81526000D01*
X130995000Y-81526000D01*
X131009703Y-81526722D01*
X131009703Y-81526722D01*
G37*
D24*
X130845000Y-82376000D03*
D23*
G36*
X129739703Y-81526722D02*
G01*
X129754264Y-81528882D01*
X129768543Y-81532459D01*
X129782403Y-81537418D01*
X129795710Y-81543712D01*
X129808336Y-81551280D01*
X129820159Y-81560048D01*
X129831066Y-81569934D01*
X129840952Y-81580841D01*
X129849720Y-81592664D01*
X129857288Y-81605290D01*
X129863582Y-81618597D01*
X129868541Y-81632457D01*
X129872118Y-81646736D01*
X129874278Y-81661297D01*
X129875000Y-81676000D01*
X129875000Y-83076000D01*
X129874278Y-83090703D01*
X129872118Y-83105264D01*
X129868541Y-83119543D01*
X129863582Y-83133403D01*
X129857288Y-83146710D01*
X129849720Y-83159336D01*
X129840952Y-83171159D01*
X129831066Y-83182066D01*
X129820159Y-83191952D01*
X129808336Y-83200720D01*
X129795710Y-83208288D01*
X129782403Y-83214582D01*
X129768543Y-83219541D01*
X129754264Y-83223118D01*
X129739703Y-83225278D01*
X129725000Y-83226000D01*
X129425000Y-83226000D01*
X129410297Y-83225278D01*
X129395736Y-83223118D01*
X129381457Y-83219541D01*
X129367597Y-83214582D01*
X129354290Y-83208288D01*
X129341664Y-83200720D01*
X129329841Y-83191952D01*
X129318934Y-83182066D01*
X129309048Y-83171159D01*
X129300280Y-83159336D01*
X129292712Y-83146710D01*
X129286418Y-83133403D01*
X129281459Y-83119543D01*
X129277882Y-83105264D01*
X129275722Y-83090703D01*
X129275000Y-83076000D01*
X129275000Y-81676000D01*
X129275722Y-81661297D01*
X129277882Y-81646736D01*
X129281459Y-81632457D01*
X129286418Y-81618597D01*
X129292712Y-81605290D01*
X129300280Y-81592664D01*
X129309048Y-81580841D01*
X129318934Y-81569934D01*
X129329841Y-81560048D01*
X129341664Y-81551280D01*
X129354290Y-81543712D01*
X129367597Y-81537418D01*
X129381457Y-81532459D01*
X129395736Y-81528882D01*
X129410297Y-81526722D01*
X129425000Y-81526000D01*
X129725000Y-81526000D01*
X129739703Y-81526722D01*
X129739703Y-81526722D01*
G37*
D24*
X129575000Y-82376000D03*
D23*
G36*
X128469703Y-81526722D02*
G01*
X128484264Y-81528882D01*
X128498543Y-81532459D01*
X128512403Y-81537418D01*
X128525710Y-81543712D01*
X128538336Y-81551280D01*
X128550159Y-81560048D01*
X128561066Y-81569934D01*
X128570952Y-81580841D01*
X128579720Y-81592664D01*
X128587288Y-81605290D01*
X128593582Y-81618597D01*
X128598541Y-81632457D01*
X128602118Y-81646736D01*
X128604278Y-81661297D01*
X128605000Y-81676000D01*
X128605000Y-83076000D01*
X128604278Y-83090703D01*
X128602118Y-83105264D01*
X128598541Y-83119543D01*
X128593582Y-83133403D01*
X128587288Y-83146710D01*
X128579720Y-83159336D01*
X128570952Y-83171159D01*
X128561066Y-83182066D01*
X128550159Y-83191952D01*
X128538336Y-83200720D01*
X128525710Y-83208288D01*
X128512403Y-83214582D01*
X128498543Y-83219541D01*
X128484264Y-83223118D01*
X128469703Y-83225278D01*
X128455000Y-83226000D01*
X128155000Y-83226000D01*
X128140297Y-83225278D01*
X128125736Y-83223118D01*
X128111457Y-83219541D01*
X128097597Y-83214582D01*
X128084290Y-83208288D01*
X128071664Y-83200720D01*
X128059841Y-83191952D01*
X128048934Y-83182066D01*
X128039048Y-83171159D01*
X128030280Y-83159336D01*
X128022712Y-83146710D01*
X128016418Y-83133403D01*
X128011459Y-83119543D01*
X128007882Y-83105264D01*
X128005722Y-83090703D01*
X128005000Y-83076000D01*
X128005000Y-81676000D01*
X128005722Y-81661297D01*
X128007882Y-81646736D01*
X128011459Y-81632457D01*
X128016418Y-81618597D01*
X128022712Y-81605290D01*
X128030280Y-81592664D01*
X128039048Y-81580841D01*
X128048934Y-81569934D01*
X128059841Y-81560048D01*
X128071664Y-81551280D01*
X128084290Y-81543712D01*
X128097597Y-81537418D01*
X128111457Y-81532459D01*
X128125736Y-81528882D01*
X128140297Y-81526722D01*
X128155000Y-81526000D01*
X128455000Y-81526000D01*
X128469703Y-81526722D01*
X128469703Y-81526722D01*
G37*
D24*
X128305000Y-82376000D03*
D23*
G36*
X127199703Y-81526722D02*
G01*
X127214264Y-81528882D01*
X127228543Y-81532459D01*
X127242403Y-81537418D01*
X127255710Y-81543712D01*
X127268336Y-81551280D01*
X127280159Y-81560048D01*
X127291066Y-81569934D01*
X127300952Y-81580841D01*
X127309720Y-81592664D01*
X127317288Y-81605290D01*
X127323582Y-81618597D01*
X127328541Y-81632457D01*
X127332118Y-81646736D01*
X127334278Y-81661297D01*
X127335000Y-81676000D01*
X127335000Y-83076000D01*
X127334278Y-83090703D01*
X127332118Y-83105264D01*
X127328541Y-83119543D01*
X127323582Y-83133403D01*
X127317288Y-83146710D01*
X127309720Y-83159336D01*
X127300952Y-83171159D01*
X127291066Y-83182066D01*
X127280159Y-83191952D01*
X127268336Y-83200720D01*
X127255710Y-83208288D01*
X127242403Y-83214582D01*
X127228543Y-83219541D01*
X127214264Y-83223118D01*
X127199703Y-83225278D01*
X127185000Y-83226000D01*
X126885000Y-83226000D01*
X126870297Y-83225278D01*
X126855736Y-83223118D01*
X126841457Y-83219541D01*
X126827597Y-83214582D01*
X126814290Y-83208288D01*
X126801664Y-83200720D01*
X126789841Y-83191952D01*
X126778934Y-83182066D01*
X126769048Y-83171159D01*
X126760280Y-83159336D01*
X126752712Y-83146710D01*
X126746418Y-83133403D01*
X126741459Y-83119543D01*
X126737882Y-83105264D01*
X126735722Y-83090703D01*
X126735000Y-83076000D01*
X126735000Y-81676000D01*
X126735722Y-81661297D01*
X126737882Y-81646736D01*
X126741459Y-81632457D01*
X126746418Y-81618597D01*
X126752712Y-81605290D01*
X126760280Y-81592664D01*
X126769048Y-81580841D01*
X126778934Y-81569934D01*
X126789841Y-81560048D01*
X126801664Y-81551280D01*
X126814290Y-81543712D01*
X126827597Y-81537418D01*
X126841457Y-81532459D01*
X126855736Y-81528882D01*
X126870297Y-81526722D01*
X126885000Y-81526000D01*
X127185000Y-81526000D01*
X127199703Y-81526722D01*
X127199703Y-81526722D01*
G37*
D24*
X127035000Y-82376000D03*
D23*
G36*
X125929703Y-81526722D02*
G01*
X125944264Y-81528882D01*
X125958543Y-81532459D01*
X125972403Y-81537418D01*
X125985710Y-81543712D01*
X125998336Y-81551280D01*
X126010159Y-81560048D01*
X126021066Y-81569934D01*
X126030952Y-81580841D01*
X126039720Y-81592664D01*
X126047288Y-81605290D01*
X126053582Y-81618597D01*
X126058541Y-81632457D01*
X126062118Y-81646736D01*
X126064278Y-81661297D01*
X126065000Y-81676000D01*
X126065000Y-83076000D01*
X126064278Y-83090703D01*
X126062118Y-83105264D01*
X126058541Y-83119543D01*
X126053582Y-83133403D01*
X126047288Y-83146710D01*
X126039720Y-83159336D01*
X126030952Y-83171159D01*
X126021066Y-83182066D01*
X126010159Y-83191952D01*
X125998336Y-83200720D01*
X125985710Y-83208288D01*
X125972403Y-83214582D01*
X125958543Y-83219541D01*
X125944264Y-83223118D01*
X125929703Y-83225278D01*
X125915000Y-83226000D01*
X125615000Y-83226000D01*
X125600297Y-83225278D01*
X125585736Y-83223118D01*
X125571457Y-83219541D01*
X125557597Y-83214582D01*
X125544290Y-83208288D01*
X125531664Y-83200720D01*
X125519841Y-83191952D01*
X125508934Y-83182066D01*
X125499048Y-83171159D01*
X125490280Y-83159336D01*
X125482712Y-83146710D01*
X125476418Y-83133403D01*
X125471459Y-83119543D01*
X125467882Y-83105264D01*
X125465722Y-83090703D01*
X125465000Y-83076000D01*
X125465000Y-81676000D01*
X125465722Y-81661297D01*
X125467882Y-81646736D01*
X125471459Y-81632457D01*
X125476418Y-81618597D01*
X125482712Y-81605290D01*
X125490280Y-81592664D01*
X125499048Y-81580841D01*
X125508934Y-81569934D01*
X125519841Y-81560048D01*
X125531664Y-81551280D01*
X125544290Y-81543712D01*
X125557597Y-81537418D01*
X125571457Y-81532459D01*
X125585736Y-81528882D01*
X125600297Y-81526722D01*
X125615000Y-81526000D01*
X125915000Y-81526000D01*
X125929703Y-81526722D01*
X125929703Y-81526722D01*
G37*
D24*
X125765000Y-82376000D03*
D23*
G36*
X124659703Y-81526722D02*
G01*
X124674264Y-81528882D01*
X124688543Y-81532459D01*
X124702403Y-81537418D01*
X124715710Y-81543712D01*
X124728336Y-81551280D01*
X124740159Y-81560048D01*
X124751066Y-81569934D01*
X124760952Y-81580841D01*
X124769720Y-81592664D01*
X124777288Y-81605290D01*
X124783582Y-81618597D01*
X124788541Y-81632457D01*
X124792118Y-81646736D01*
X124794278Y-81661297D01*
X124795000Y-81676000D01*
X124795000Y-83076000D01*
X124794278Y-83090703D01*
X124792118Y-83105264D01*
X124788541Y-83119543D01*
X124783582Y-83133403D01*
X124777288Y-83146710D01*
X124769720Y-83159336D01*
X124760952Y-83171159D01*
X124751066Y-83182066D01*
X124740159Y-83191952D01*
X124728336Y-83200720D01*
X124715710Y-83208288D01*
X124702403Y-83214582D01*
X124688543Y-83219541D01*
X124674264Y-83223118D01*
X124659703Y-83225278D01*
X124645000Y-83226000D01*
X124345000Y-83226000D01*
X124330297Y-83225278D01*
X124315736Y-83223118D01*
X124301457Y-83219541D01*
X124287597Y-83214582D01*
X124274290Y-83208288D01*
X124261664Y-83200720D01*
X124249841Y-83191952D01*
X124238934Y-83182066D01*
X124229048Y-83171159D01*
X124220280Y-83159336D01*
X124212712Y-83146710D01*
X124206418Y-83133403D01*
X124201459Y-83119543D01*
X124197882Y-83105264D01*
X124195722Y-83090703D01*
X124195000Y-83076000D01*
X124195000Y-81676000D01*
X124195722Y-81661297D01*
X124197882Y-81646736D01*
X124201459Y-81632457D01*
X124206418Y-81618597D01*
X124212712Y-81605290D01*
X124220280Y-81592664D01*
X124229048Y-81580841D01*
X124238934Y-81569934D01*
X124249841Y-81560048D01*
X124261664Y-81551280D01*
X124274290Y-81543712D01*
X124287597Y-81537418D01*
X124301457Y-81532459D01*
X124315736Y-81528882D01*
X124330297Y-81526722D01*
X124345000Y-81526000D01*
X124645000Y-81526000D01*
X124659703Y-81526722D01*
X124659703Y-81526722D01*
G37*
D24*
X124495000Y-82376000D03*
D23*
G36*
X123389703Y-81526722D02*
G01*
X123404264Y-81528882D01*
X123418543Y-81532459D01*
X123432403Y-81537418D01*
X123445710Y-81543712D01*
X123458336Y-81551280D01*
X123470159Y-81560048D01*
X123481066Y-81569934D01*
X123490952Y-81580841D01*
X123499720Y-81592664D01*
X123507288Y-81605290D01*
X123513582Y-81618597D01*
X123518541Y-81632457D01*
X123522118Y-81646736D01*
X123524278Y-81661297D01*
X123525000Y-81676000D01*
X123525000Y-83076000D01*
X123524278Y-83090703D01*
X123522118Y-83105264D01*
X123518541Y-83119543D01*
X123513582Y-83133403D01*
X123507288Y-83146710D01*
X123499720Y-83159336D01*
X123490952Y-83171159D01*
X123481066Y-83182066D01*
X123470159Y-83191952D01*
X123458336Y-83200720D01*
X123445710Y-83208288D01*
X123432403Y-83214582D01*
X123418543Y-83219541D01*
X123404264Y-83223118D01*
X123389703Y-83225278D01*
X123375000Y-83226000D01*
X123075000Y-83226000D01*
X123060297Y-83225278D01*
X123045736Y-83223118D01*
X123031457Y-83219541D01*
X123017597Y-83214582D01*
X123004290Y-83208288D01*
X122991664Y-83200720D01*
X122979841Y-83191952D01*
X122968934Y-83182066D01*
X122959048Y-83171159D01*
X122950280Y-83159336D01*
X122942712Y-83146710D01*
X122936418Y-83133403D01*
X122931459Y-83119543D01*
X122927882Y-83105264D01*
X122925722Y-83090703D01*
X122925000Y-83076000D01*
X122925000Y-81676000D01*
X122925722Y-81661297D01*
X122927882Y-81646736D01*
X122931459Y-81632457D01*
X122936418Y-81618597D01*
X122942712Y-81605290D01*
X122950280Y-81592664D01*
X122959048Y-81580841D01*
X122968934Y-81569934D01*
X122979841Y-81560048D01*
X122991664Y-81551280D01*
X123004290Y-81543712D01*
X123017597Y-81537418D01*
X123031457Y-81532459D01*
X123045736Y-81528882D01*
X123060297Y-81526722D01*
X123075000Y-81526000D01*
X123375000Y-81526000D01*
X123389703Y-81526722D01*
X123389703Y-81526722D01*
G37*
D24*
X123225000Y-82376000D03*
D23*
G36*
X122119703Y-81526722D02*
G01*
X122134264Y-81528882D01*
X122148543Y-81532459D01*
X122162403Y-81537418D01*
X122175710Y-81543712D01*
X122188336Y-81551280D01*
X122200159Y-81560048D01*
X122211066Y-81569934D01*
X122220952Y-81580841D01*
X122229720Y-81592664D01*
X122237288Y-81605290D01*
X122243582Y-81618597D01*
X122248541Y-81632457D01*
X122252118Y-81646736D01*
X122254278Y-81661297D01*
X122255000Y-81676000D01*
X122255000Y-83076000D01*
X122254278Y-83090703D01*
X122252118Y-83105264D01*
X122248541Y-83119543D01*
X122243582Y-83133403D01*
X122237288Y-83146710D01*
X122229720Y-83159336D01*
X122220952Y-83171159D01*
X122211066Y-83182066D01*
X122200159Y-83191952D01*
X122188336Y-83200720D01*
X122175710Y-83208288D01*
X122162403Y-83214582D01*
X122148543Y-83219541D01*
X122134264Y-83223118D01*
X122119703Y-83225278D01*
X122105000Y-83226000D01*
X121805000Y-83226000D01*
X121790297Y-83225278D01*
X121775736Y-83223118D01*
X121761457Y-83219541D01*
X121747597Y-83214582D01*
X121734290Y-83208288D01*
X121721664Y-83200720D01*
X121709841Y-83191952D01*
X121698934Y-83182066D01*
X121689048Y-83171159D01*
X121680280Y-83159336D01*
X121672712Y-83146710D01*
X121666418Y-83133403D01*
X121661459Y-83119543D01*
X121657882Y-83105264D01*
X121655722Y-83090703D01*
X121655000Y-83076000D01*
X121655000Y-81676000D01*
X121655722Y-81661297D01*
X121657882Y-81646736D01*
X121661459Y-81632457D01*
X121666418Y-81618597D01*
X121672712Y-81605290D01*
X121680280Y-81592664D01*
X121689048Y-81580841D01*
X121698934Y-81569934D01*
X121709841Y-81560048D01*
X121721664Y-81551280D01*
X121734290Y-81543712D01*
X121747597Y-81537418D01*
X121761457Y-81532459D01*
X121775736Y-81528882D01*
X121790297Y-81526722D01*
X121805000Y-81526000D01*
X122105000Y-81526000D01*
X122119703Y-81526722D01*
X122119703Y-81526722D01*
G37*
D24*
X121955000Y-82376000D03*
D23*
G36*
X120849703Y-81526722D02*
G01*
X120864264Y-81528882D01*
X120878543Y-81532459D01*
X120892403Y-81537418D01*
X120905710Y-81543712D01*
X120918336Y-81551280D01*
X120930159Y-81560048D01*
X120941066Y-81569934D01*
X120950952Y-81580841D01*
X120959720Y-81592664D01*
X120967288Y-81605290D01*
X120973582Y-81618597D01*
X120978541Y-81632457D01*
X120982118Y-81646736D01*
X120984278Y-81661297D01*
X120985000Y-81676000D01*
X120985000Y-83076000D01*
X120984278Y-83090703D01*
X120982118Y-83105264D01*
X120978541Y-83119543D01*
X120973582Y-83133403D01*
X120967288Y-83146710D01*
X120959720Y-83159336D01*
X120950952Y-83171159D01*
X120941066Y-83182066D01*
X120930159Y-83191952D01*
X120918336Y-83200720D01*
X120905710Y-83208288D01*
X120892403Y-83214582D01*
X120878543Y-83219541D01*
X120864264Y-83223118D01*
X120849703Y-83225278D01*
X120835000Y-83226000D01*
X120535000Y-83226000D01*
X120520297Y-83225278D01*
X120505736Y-83223118D01*
X120491457Y-83219541D01*
X120477597Y-83214582D01*
X120464290Y-83208288D01*
X120451664Y-83200720D01*
X120439841Y-83191952D01*
X120428934Y-83182066D01*
X120419048Y-83171159D01*
X120410280Y-83159336D01*
X120402712Y-83146710D01*
X120396418Y-83133403D01*
X120391459Y-83119543D01*
X120387882Y-83105264D01*
X120385722Y-83090703D01*
X120385000Y-83076000D01*
X120385000Y-81676000D01*
X120385722Y-81661297D01*
X120387882Y-81646736D01*
X120391459Y-81632457D01*
X120396418Y-81618597D01*
X120402712Y-81605290D01*
X120410280Y-81592664D01*
X120419048Y-81580841D01*
X120428934Y-81569934D01*
X120439841Y-81560048D01*
X120451664Y-81551280D01*
X120464290Y-81543712D01*
X120477597Y-81537418D01*
X120491457Y-81532459D01*
X120505736Y-81528882D01*
X120520297Y-81526722D01*
X120535000Y-81526000D01*
X120835000Y-81526000D01*
X120849703Y-81526722D01*
X120849703Y-81526722D01*
G37*
D24*
X120685000Y-82376000D03*
D23*
G36*
X119579703Y-81526722D02*
G01*
X119594264Y-81528882D01*
X119608543Y-81532459D01*
X119622403Y-81537418D01*
X119635710Y-81543712D01*
X119648336Y-81551280D01*
X119660159Y-81560048D01*
X119671066Y-81569934D01*
X119680952Y-81580841D01*
X119689720Y-81592664D01*
X119697288Y-81605290D01*
X119703582Y-81618597D01*
X119708541Y-81632457D01*
X119712118Y-81646736D01*
X119714278Y-81661297D01*
X119715000Y-81676000D01*
X119715000Y-83076000D01*
X119714278Y-83090703D01*
X119712118Y-83105264D01*
X119708541Y-83119543D01*
X119703582Y-83133403D01*
X119697288Y-83146710D01*
X119689720Y-83159336D01*
X119680952Y-83171159D01*
X119671066Y-83182066D01*
X119660159Y-83191952D01*
X119648336Y-83200720D01*
X119635710Y-83208288D01*
X119622403Y-83214582D01*
X119608543Y-83219541D01*
X119594264Y-83223118D01*
X119579703Y-83225278D01*
X119565000Y-83226000D01*
X119265000Y-83226000D01*
X119250297Y-83225278D01*
X119235736Y-83223118D01*
X119221457Y-83219541D01*
X119207597Y-83214582D01*
X119194290Y-83208288D01*
X119181664Y-83200720D01*
X119169841Y-83191952D01*
X119158934Y-83182066D01*
X119149048Y-83171159D01*
X119140280Y-83159336D01*
X119132712Y-83146710D01*
X119126418Y-83133403D01*
X119121459Y-83119543D01*
X119117882Y-83105264D01*
X119115722Y-83090703D01*
X119115000Y-83076000D01*
X119115000Y-81676000D01*
X119115722Y-81661297D01*
X119117882Y-81646736D01*
X119121459Y-81632457D01*
X119126418Y-81618597D01*
X119132712Y-81605290D01*
X119140280Y-81592664D01*
X119149048Y-81580841D01*
X119158934Y-81569934D01*
X119169841Y-81560048D01*
X119181664Y-81551280D01*
X119194290Y-81543712D01*
X119207597Y-81537418D01*
X119221457Y-81532459D01*
X119235736Y-81528882D01*
X119250297Y-81526722D01*
X119265000Y-81526000D01*
X119565000Y-81526000D01*
X119579703Y-81526722D01*
X119579703Y-81526722D01*
G37*
D24*
X119415000Y-82376000D03*
D23*
G36*
X118309703Y-81526722D02*
G01*
X118324264Y-81528882D01*
X118338543Y-81532459D01*
X118352403Y-81537418D01*
X118365710Y-81543712D01*
X118378336Y-81551280D01*
X118390159Y-81560048D01*
X118401066Y-81569934D01*
X118410952Y-81580841D01*
X118419720Y-81592664D01*
X118427288Y-81605290D01*
X118433582Y-81618597D01*
X118438541Y-81632457D01*
X118442118Y-81646736D01*
X118444278Y-81661297D01*
X118445000Y-81676000D01*
X118445000Y-83076000D01*
X118444278Y-83090703D01*
X118442118Y-83105264D01*
X118438541Y-83119543D01*
X118433582Y-83133403D01*
X118427288Y-83146710D01*
X118419720Y-83159336D01*
X118410952Y-83171159D01*
X118401066Y-83182066D01*
X118390159Y-83191952D01*
X118378336Y-83200720D01*
X118365710Y-83208288D01*
X118352403Y-83214582D01*
X118338543Y-83219541D01*
X118324264Y-83223118D01*
X118309703Y-83225278D01*
X118295000Y-83226000D01*
X117995000Y-83226000D01*
X117980297Y-83225278D01*
X117965736Y-83223118D01*
X117951457Y-83219541D01*
X117937597Y-83214582D01*
X117924290Y-83208288D01*
X117911664Y-83200720D01*
X117899841Y-83191952D01*
X117888934Y-83182066D01*
X117879048Y-83171159D01*
X117870280Y-83159336D01*
X117862712Y-83146710D01*
X117856418Y-83133403D01*
X117851459Y-83119543D01*
X117847882Y-83105264D01*
X117845722Y-83090703D01*
X117845000Y-83076000D01*
X117845000Y-81676000D01*
X117845722Y-81661297D01*
X117847882Y-81646736D01*
X117851459Y-81632457D01*
X117856418Y-81618597D01*
X117862712Y-81605290D01*
X117870280Y-81592664D01*
X117879048Y-81580841D01*
X117888934Y-81569934D01*
X117899841Y-81560048D01*
X117911664Y-81551280D01*
X117924290Y-81543712D01*
X117937597Y-81537418D01*
X117951457Y-81532459D01*
X117965736Y-81528882D01*
X117980297Y-81526722D01*
X117995000Y-81526000D01*
X118295000Y-81526000D01*
X118309703Y-81526722D01*
X118309703Y-81526722D01*
G37*
D24*
X118145000Y-82376000D03*
D23*
G36*
X117039703Y-81526722D02*
G01*
X117054264Y-81528882D01*
X117068543Y-81532459D01*
X117082403Y-81537418D01*
X117095710Y-81543712D01*
X117108336Y-81551280D01*
X117120159Y-81560048D01*
X117131066Y-81569934D01*
X117140952Y-81580841D01*
X117149720Y-81592664D01*
X117157288Y-81605290D01*
X117163582Y-81618597D01*
X117168541Y-81632457D01*
X117172118Y-81646736D01*
X117174278Y-81661297D01*
X117175000Y-81676000D01*
X117175000Y-83076000D01*
X117174278Y-83090703D01*
X117172118Y-83105264D01*
X117168541Y-83119543D01*
X117163582Y-83133403D01*
X117157288Y-83146710D01*
X117149720Y-83159336D01*
X117140952Y-83171159D01*
X117131066Y-83182066D01*
X117120159Y-83191952D01*
X117108336Y-83200720D01*
X117095710Y-83208288D01*
X117082403Y-83214582D01*
X117068543Y-83219541D01*
X117054264Y-83223118D01*
X117039703Y-83225278D01*
X117025000Y-83226000D01*
X116725000Y-83226000D01*
X116710297Y-83225278D01*
X116695736Y-83223118D01*
X116681457Y-83219541D01*
X116667597Y-83214582D01*
X116654290Y-83208288D01*
X116641664Y-83200720D01*
X116629841Y-83191952D01*
X116618934Y-83182066D01*
X116609048Y-83171159D01*
X116600280Y-83159336D01*
X116592712Y-83146710D01*
X116586418Y-83133403D01*
X116581459Y-83119543D01*
X116577882Y-83105264D01*
X116575722Y-83090703D01*
X116575000Y-83076000D01*
X116575000Y-81676000D01*
X116575722Y-81661297D01*
X116577882Y-81646736D01*
X116581459Y-81632457D01*
X116586418Y-81618597D01*
X116592712Y-81605290D01*
X116600280Y-81592664D01*
X116609048Y-81580841D01*
X116618934Y-81569934D01*
X116629841Y-81560048D01*
X116641664Y-81551280D01*
X116654290Y-81543712D01*
X116667597Y-81537418D01*
X116681457Y-81532459D01*
X116695736Y-81528882D01*
X116710297Y-81526722D01*
X116725000Y-81526000D01*
X117025000Y-81526000D01*
X117039703Y-81526722D01*
X117039703Y-81526722D01*
G37*
D24*
X116875000Y-82376000D03*
D23*
G36*
X117039703Y-72126722D02*
G01*
X117054264Y-72128882D01*
X117068543Y-72132459D01*
X117082403Y-72137418D01*
X117095710Y-72143712D01*
X117108336Y-72151280D01*
X117120159Y-72160048D01*
X117131066Y-72169934D01*
X117140952Y-72180841D01*
X117149720Y-72192664D01*
X117157288Y-72205290D01*
X117163582Y-72218597D01*
X117168541Y-72232457D01*
X117172118Y-72246736D01*
X117174278Y-72261297D01*
X117175000Y-72276000D01*
X117175000Y-73676000D01*
X117174278Y-73690703D01*
X117172118Y-73705264D01*
X117168541Y-73719543D01*
X117163582Y-73733403D01*
X117157288Y-73746710D01*
X117149720Y-73759336D01*
X117140952Y-73771159D01*
X117131066Y-73782066D01*
X117120159Y-73791952D01*
X117108336Y-73800720D01*
X117095710Y-73808288D01*
X117082403Y-73814582D01*
X117068543Y-73819541D01*
X117054264Y-73823118D01*
X117039703Y-73825278D01*
X117025000Y-73826000D01*
X116725000Y-73826000D01*
X116710297Y-73825278D01*
X116695736Y-73823118D01*
X116681457Y-73819541D01*
X116667597Y-73814582D01*
X116654290Y-73808288D01*
X116641664Y-73800720D01*
X116629841Y-73791952D01*
X116618934Y-73782066D01*
X116609048Y-73771159D01*
X116600280Y-73759336D01*
X116592712Y-73746710D01*
X116586418Y-73733403D01*
X116581459Y-73719543D01*
X116577882Y-73705264D01*
X116575722Y-73690703D01*
X116575000Y-73676000D01*
X116575000Y-72276000D01*
X116575722Y-72261297D01*
X116577882Y-72246736D01*
X116581459Y-72232457D01*
X116586418Y-72218597D01*
X116592712Y-72205290D01*
X116600280Y-72192664D01*
X116609048Y-72180841D01*
X116618934Y-72169934D01*
X116629841Y-72160048D01*
X116641664Y-72151280D01*
X116654290Y-72143712D01*
X116667597Y-72137418D01*
X116681457Y-72132459D01*
X116695736Y-72128882D01*
X116710297Y-72126722D01*
X116725000Y-72126000D01*
X117025000Y-72126000D01*
X117039703Y-72126722D01*
X117039703Y-72126722D01*
G37*
D24*
X116875000Y-72976000D03*
D23*
G36*
X118309703Y-72126722D02*
G01*
X118324264Y-72128882D01*
X118338543Y-72132459D01*
X118352403Y-72137418D01*
X118365710Y-72143712D01*
X118378336Y-72151280D01*
X118390159Y-72160048D01*
X118401066Y-72169934D01*
X118410952Y-72180841D01*
X118419720Y-72192664D01*
X118427288Y-72205290D01*
X118433582Y-72218597D01*
X118438541Y-72232457D01*
X118442118Y-72246736D01*
X118444278Y-72261297D01*
X118445000Y-72276000D01*
X118445000Y-73676000D01*
X118444278Y-73690703D01*
X118442118Y-73705264D01*
X118438541Y-73719543D01*
X118433582Y-73733403D01*
X118427288Y-73746710D01*
X118419720Y-73759336D01*
X118410952Y-73771159D01*
X118401066Y-73782066D01*
X118390159Y-73791952D01*
X118378336Y-73800720D01*
X118365710Y-73808288D01*
X118352403Y-73814582D01*
X118338543Y-73819541D01*
X118324264Y-73823118D01*
X118309703Y-73825278D01*
X118295000Y-73826000D01*
X117995000Y-73826000D01*
X117980297Y-73825278D01*
X117965736Y-73823118D01*
X117951457Y-73819541D01*
X117937597Y-73814582D01*
X117924290Y-73808288D01*
X117911664Y-73800720D01*
X117899841Y-73791952D01*
X117888934Y-73782066D01*
X117879048Y-73771159D01*
X117870280Y-73759336D01*
X117862712Y-73746710D01*
X117856418Y-73733403D01*
X117851459Y-73719543D01*
X117847882Y-73705264D01*
X117845722Y-73690703D01*
X117845000Y-73676000D01*
X117845000Y-72276000D01*
X117845722Y-72261297D01*
X117847882Y-72246736D01*
X117851459Y-72232457D01*
X117856418Y-72218597D01*
X117862712Y-72205290D01*
X117870280Y-72192664D01*
X117879048Y-72180841D01*
X117888934Y-72169934D01*
X117899841Y-72160048D01*
X117911664Y-72151280D01*
X117924290Y-72143712D01*
X117937597Y-72137418D01*
X117951457Y-72132459D01*
X117965736Y-72128882D01*
X117980297Y-72126722D01*
X117995000Y-72126000D01*
X118295000Y-72126000D01*
X118309703Y-72126722D01*
X118309703Y-72126722D01*
G37*
D24*
X118145000Y-72976000D03*
D23*
G36*
X119579703Y-72126722D02*
G01*
X119594264Y-72128882D01*
X119608543Y-72132459D01*
X119622403Y-72137418D01*
X119635710Y-72143712D01*
X119648336Y-72151280D01*
X119660159Y-72160048D01*
X119671066Y-72169934D01*
X119680952Y-72180841D01*
X119689720Y-72192664D01*
X119697288Y-72205290D01*
X119703582Y-72218597D01*
X119708541Y-72232457D01*
X119712118Y-72246736D01*
X119714278Y-72261297D01*
X119715000Y-72276000D01*
X119715000Y-73676000D01*
X119714278Y-73690703D01*
X119712118Y-73705264D01*
X119708541Y-73719543D01*
X119703582Y-73733403D01*
X119697288Y-73746710D01*
X119689720Y-73759336D01*
X119680952Y-73771159D01*
X119671066Y-73782066D01*
X119660159Y-73791952D01*
X119648336Y-73800720D01*
X119635710Y-73808288D01*
X119622403Y-73814582D01*
X119608543Y-73819541D01*
X119594264Y-73823118D01*
X119579703Y-73825278D01*
X119565000Y-73826000D01*
X119265000Y-73826000D01*
X119250297Y-73825278D01*
X119235736Y-73823118D01*
X119221457Y-73819541D01*
X119207597Y-73814582D01*
X119194290Y-73808288D01*
X119181664Y-73800720D01*
X119169841Y-73791952D01*
X119158934Y-73782066D01*
X119149048Y-73771159D01*
X119140280Y-73759336D01*
X119132712Y-73746710D01*
X119126418Y-73733403D01*
X119121459Y-73719543D01*
X119117882Y-73705264D01*
X119115722Y-73690703D01*
X119115000Y-73676000D01*
X119115000Y-72276000D01*
X119115722Y-72261297D01*
X119117882Y-72246736D01*
X119121459Y-72232457D01*
X119126418Y-72218597D01*
X119132712Y-72205290D01*
X119140280Y-72192664D01*
X119149048Y-72180841D01*
X119158934Y-72169934D01*
X119169841Y-72160048D01*
X119181664Y-72151280D01*
X119194290Y-72143712D01*
X119207597Y-72137418D01*
X119221457Y-72132459D01*
X119235736Y-72128882D01*
X119250297Y-72126722D01*
X119265000Y-72126000D01*
X119565000Y-72126000D01*
X119579703Y-72126722D01*
X119579703Y-72126722D01*
G37*
D24*
X119415000Y-72976000D03*
D23*
G36*
X120849703Y-72126722D02*
G01*
X120864264Y-72128882D01*
X120878543Y-72132459D01*
X120892403Y-72137418D01*
X120905710Y-72143712D01*
X120918336Y-72151280D01*
X120930159Y-72160048D01*
X120941066Y-72169934D01*
X120950952Y-72180841D01*
X120959720Y-72192664D01*
X120967288Y-72205290D01*
X120973582Y-72218597D01*
X120978541Y-72232457D01*
X120982118Y-72246736D01*
X120984278Y-72261297D01*
X120985000Y-72276000D01*
X120985000Y-73676000D01*
X120984278Y-73690703D01*
X120982118Y-73705264D01*
X120978541Y-73719543D01*
X120973582Y-73733403D01*
X120967288Y-73746710D01*
X120959720Y-73759336D01*
X120950952Y-73771159D01*
X120941066Y-73782066D01*
X120930159Y-73791952D01*
X120918336Y-73800720D01*
X120905710Y-73808288D01*
X120892403Y-73814582D01*
X120878543Y-73819541D01*
X120864264Y-73823118D01*
X120849703Y-73825278D01*
X120835000Y-73826000D01*
X120535000Y-73826000D01*
X120520297Y-73825278D01*
X120505736Y-73823118D01*
X120491457Y-73819541D01*
X120477597Y-73814582D01*
X120464290Y-73808288D01*
X120451664Y-73800720D01*
X120439841Y-73791952D01*
X120428934Y-73782066D01*
X120419048Y-73771159D01*
X120410280Y-73759336D01*
X120402712Y-73746710D01*
X120396418Y-73733403D01*
X120391459Y-73719543D01*
X120387882Y-73705264D01*
X120385722Y-73690703D01*
X120385000Y-73676000D01*
X120385000Y-72276000D01*
X120385722Y-72261297D01*
X120387882Y-72246736D01*
X120391459Y-72232457D01*
X120396418Y-72218597D01*
X120402712Y-72205290D01*
X120410280Y-72192664D01*
X120419048Y-72180841D01*
X120428934Y-72169934D01*
X120439841Y-72160048D01*
X120451664Y-72151280D01*
X120464290Y-72143712D01*
X120477597Y-72137418D01*
X120491457Y-72132459D01*
X120505736Y-72128882D01*
X120520297Y-72126722D01*
X120535000Y-72126000D01*
X120835000Y-72126000D01*
X120849703Y-72126722D01*
X120849703Y-72126722D01*
G37*
D24*
X120685000Y-72976000D03*
D23*
G36*
X122119703Y-72126722D02*
G01*
X122134264Y-72128882D01*
X122148543Y-72132459D01*
X122162403Y-72137418D01*
X122175710Y-72143712D01*
X122188336Y-72151280D01*
X122200159Y-72160048D01*
X122211066Y-72169934D01*
X122220952Y-72180841D01*
X122229720Y-72192664D01*
X122237288Y-72205290D01*
X122243582Y-72218597D01*
X122248541Y-72232457D01*
X122252118Y-72246736D01*
X122254278Y-72261297D01*
X122255000Y-72276000D01*
X122255000Y-73676000D01*
X122254278Y-73690703D01*
X122252118Y-73705264D01*
X122248541Y-73719543D01*
X122243582Y-73733403D01*
X122237288Y-73746710D01*
X122229720Y-73759336D01*
X122220952Y-73771159D01*
X122211066Y-73782066D01*
X122200159Y-73791952D01*
X122188336Y-73800720D01*
X122175710Y-73808288D01*
X122162403Y-73814582D01*
X122148543Y-73819541D01*
X122134264Y-73823118D01*
X122119703Y-73825278D01*
X122105000Y-73826000D01*
X121805000Y-73826000D01*
X121790297Y-73825278D01*
X121775736Y-73823118D01*
X121761457Y-73819541D01*
X121747597Y-73814582D01*
X121734290Y-73808288D01*
X121721664Y-73800720D01*
X121709841Y-73791952D01*
X121698934Y-73782066D01*
X121689048Y-73771159D01*
X121680280Y-73759336D01*
X121672712Y-73746710D01*
X121666418Y-73733403D01*
X121661459Y-73719543D01*
X121657882Y-73705264D01*
X121655722Y-73690703D01*
X121655000Y-73676000D01*
X121655000Y-72276000D01*
X121655722Y-72261297D01*
X121657882Y-72246736D01*
X121661459Y-72232457D01*
X121666418Y-72218597D01*
X121672712Y-72205290D01*
X121680280Y-72192664D01*
X121689048Y-72180841D01*
X121698934Y-72169934D01*
X121709841Y-72160048D01*
X121721664Y-72151280D01*
X121734290Y-72143712D01*
X121747597Y-72137418D01*
X121761457Y-72132459D01*
X121775736Y-72128882D01*
X121790297Y-72126722D01*
X121805000Y-72126000D01*
X122105000Y-72126000D01*
X122119703Y-72126722D01*
X122119703Y-72126722D01*
G37*
D24*
X121955000Y-72976000D03*
D23*
G36*
X123389703Y-72126722D02*
G01*
X123404264Y-72128882D01*
X123418543Y-72132459D01*
X123432403Y-72137418D01*
X123445710Y-72143712D01*
X123458336Y-72151280D01*
X123470159Y-72160048D01*
X123481066Y-72169934D01*
X123490952Y-72180841D01*
X123499720Y-72192664D01*
X123507288Y-72205290D01*
X123513582Y-72218597D01*
X123518541Y-72232457D01*
X123522118Y-72246736D01*
X123524278Y-72261297D01*
X123525000Y-72276000D01*
X123525000Y-73676000D01*
X123524278Y-73690703D01*
X123522118Y-73705264D01*
X123518541Y-73719543D01*
X123513582Y-73733403D01*
X123507288Y-73746710D01*
X123499720Y-73759336D01*
X123490952Y-73771159D01*
X123481066Y-73782066D01*
X123470159Y-73791952D01*
X123458336Y-73800720D01*
X123445710Y-73808288D01*
X123432403Y-73814582D01*
X123418543Y-73819541D01*
X123404264Y-73823118D01*
X123389703Y-73825278D01*
X123375000Y-73826000D01*
X123075000Y-73826000D01*
X123060297Y-73825278D01*
X123045736Y-73823118D01*
X123031457Y-73819541D01*
X123017597Y-73814582D01*
X123004290Y-73808288D01*
X122991664Y-73800720D01*
X122979841Y-73791952D01*
X122968934Y-73782066D01*
X122959048Y-73771159D01*
X122950280Y-73759336D01*
X122942712Y-73746710D01*
X122936418Y-73733403D01*
X122931459Y-73719543D01*
X122927882Y-73705264D01*
X122925722Y-73690703D01*
X122925000Y-73676000D01*
X122925000Y-72276000D01*
X122925722Y-72261297D01*
X122927882Y-72246736D01*
X122931459Y-72232457D01*
X122936418Y-72218597D01*
X122942712Y-72205290D01*
X122950280Y-72192664D01*
X122959048Y-72180841D01*
X122968934Y-72169934D01*
X122979841Y-72160048D01*
X122991664Y-72151280D01*
X123004290Y-72143712D01*
X123017597Y-72137418D01*
X123031457Y-72132459D01*
X123045736Y-72128882D01*
X123060297Y-72126722D01*
X123075000Y-72126000D01*
X123375000Y-72126000D01*
X123389703Y-72126722D01*
X123389703Y-72126722D01*
G37*
D24*
X123225000Y-72976000D03*
D23*
G36*
X124659703Y-72126722D02*
G01*
X124674264Y-72128882D01*
X124688543Y-72132459D01*
X124702403Y-72137418D01*
X124715710Y-72143712D01*
X124728336Y-72151280D01*
X124740159Y-72160048D01*
X124751066Y-72169934D01*
X124760952Y-72180841D01*
X124769720Y-72192664D01*
X124777288Y-72205290D01*
X124783582Y-72218597D01*
X124788541Y-72232457D01*
X124792118Y-72246736D01*
X124794278Y-72261297D01*
X124795000Y-72276000D01*
X124795000Y-73676000D01*
X124794278Y-73690703D01*
X124792118Y-73705264D01*
X124788541Y-73719543D01*
X124783582Y-73733403D01*
X124777288Y-73746710D01*
X124769720Y-73759336D01*
X124760952Y-73771159D01*
X124751066Y-73782066D01*
X124740159Y-73791952D01*
X124728336Y-73800720D01*
X124715710Y-73808288D01*
X124702403Y-73814582D01*
X124688543Y-73819541D01*
X124674264Y-73823118D01*
X124659703Y-73825278D01*
X124645000Y-73826000D01*
X124345000Y-73826000D01*
X124330297Y-73825278D01*
X124315736Y-73823118D01*
X124301457Y-73819541D01*
X124287597Y-73814582D01*
X124274290Y-73808288D01*
X124261664Y-73800720D01*
X124249841Y-73791952D01*
X124238934Y-73782066D01*
X124229048Y-73771159D01*
X124220280Y-73759336D01*
X124212712Y-73746710D01*
X124206418Y-73733403D01*
X124201459Y-73719543D01*
X124197882Y-73705264D01*
X124195722Y-73690703D01*
X124195000Y-73676000D01*
X124195000Y-72276000D01*
X124195722Y-72261297D01*
X124197882Y-72246736D01*
X124201459Y-72232457D01*
X124206418Y-72218597D01*
X124212712Y-72205290D01*
X124220280Y-72192664D01*
X124229048Y-72180841D01*
X124238934Y-72169934D01*
X124249841Y-72160048D01*
X124261664Y-72151280D01*
X124274290Y-72143712D01*
X124287597Y-72137418D01*
X124301457Y-72132459D01*
X124315736Y-72128882D01*
X124330297Y-72126722D01*
X124345000Y-72126000D01*
X124645000Y-72126000D01*
X124659703Y-72126722D01*
X124659703Y-72126722D01*
G37*
D24*
X124495000Y-72976000D03*
D23*
G36*
X125929703Y-72126722D02*
G01*
X125944264Y-72128882D01*
X125958543Y-72132459D01*
X125972403Y-72137418D01*
X125985710Y-72143712D01*
X125998336Y-72151280D01*
X126010159Y-72160048D01*
X126021066Y-72169934D01*
X126030952Y-72180841D01*
X126039720Y-72192664D01*
X126047288Y-72205290D01*
X126053582Y-72218597D01*
X126058541Y-72232457D01*
X126062118Y-72246736D01*
X126064278Y-72261297D01*
X126065000Y-72276000D01*
X126065000Y-73676000D01*
X126064278Y-73690703D01*
X126062118Y-73705264D01*
X126058541Y-73719543D01*
X126053582Y-73733403D01*
X126047288Y-73746710D01*
X126039720Y-73759336D01*
X126030952Y-73771159D01*
X126021066Y-73782066D01*
X126010159Y-73791952D01*
X125998336Y-73800720D01*
X125985710Y-73808288D01*
X125972403Y-73814582D01*
X125958543Y-73819541D01*
X125944264Y-73823118D01*
X125929703Y-73825278D01*
X125915000Y-73826000D01*
X125615000Y-73826000D01*
X125600297Y-73825278D01*
X125585736Y-73823118D01*
X125571457Y-73819541D01*
X125557597Y-73814582D01*
X125544290Y-73808288D01*
X125531664Y-73800720D01*
X125519841Y-73791952D01*
X125508934Y-73782066D01*
X125499048Y-73771159D01*
X125490280Y-73759336D01*
X125482712Y-73746710D01*
X125476418Y-73733403D01*
X125471459Y-73719543D01*
X125467882Y-73705264D01*
X125465722Y-73690703D01*
X125465000Y-73676000D01*
X125465000Y-72276000D01*
X125465722Y-72261297D01*
X125467882Y-72246736D01*
X125471459Y-72232457D01*
X125476418Y-72218597D01*
X125482712Y-72205290D01*
X125490280Y-72192664D01*
X125499048Y-72180841D01*
X125508934Y-72169934D01*
X125519841Y-72160048D01*
X125531664Y-72151280D01*
X125544290Y-72143712D01*
X125557597Y-72137418D01*
X125571457Y-72132459D01*
X125585736Y-72128882D01*
X125600297Y-72126722D01*
X125615000Y-72126000D01*
X125915000Y-72126000D01*
X125929703Y-72126722D01*
X125929703Y-72126722D01*
G37*
D24*
X125765000Y-72976000D03*
D23*
G36*
X127199703Y-72126722D02*
G01*
X127214264Y-72128882D01*
X127228543Y-72132459D01*
X127242403Y-72137418D01*
X127255710Y-72143712D01*
X127268336Y-72151280D01*
X127280159Y-72160048D01*
X127291066Y-72169934D01*
X127300952Y-72180841D01*
X127309720Y-72192664D01*
X127317288Y-72205290D01*
X127323582Y-72218597D01*
X127328541Y-72232457D01*
X127332118Y-72246736D01*
X127334278Y-72261297D01*
X127335000Y-72276000D01*
X127335000Y-73676000D01*
X127334278Y-73690703D01*
X127332118Y-73705264D01*
X127328541Y-73719543D01*
X127323582Y-73733403D01*
X127317288Y-73746710D01*
X127309720Y-73759336D01*
X127300952Y-73771159D01*
X127291066Y-73782066D01*
X127280159Y-73791952D01*
X127268336Y-73800720D01*
X127255710Y-73808288D01*
X127242403Y-73814582D01*
X127228543Y-73819541D01*
X127214264Y-73823118D01*
X127199703Y-73825278D01*
X127185000Y-73826000D01*
X126885000Y-73826000D01*
X126870297Y-73825278D01*
X126855736Y-73823118D01*
X126841457Y-73819541D01*
X126827597Y-73814582D01*
X126814290Y-73808288D01*
X126801664Y-73800720D01*
X126789841Y-73791952D01*
X126778934Y-73782066D01*
X126769048Y-73771159D01*
X126760280Y-73759336D01*
X126752712Y-73746710D01*
X126746418Y-73733403D01*
X126741459Y-73719543D01*
X126737882Y-73705264D01*
X126735722Y-73690703D01*
X126735000Y-73676000D01*
X126735000Y-72276000D01*
X126735722Y-72261297D01*
X126737882Y-72246736D01*
X126741459Y-72232457D01*
X126746418Y-72218597D01*
X126752712Y-72205290D01*
X126760280Y-72192664D01*
X126769048Y-72180841D01*
X126778934Y-72169934D01*
X126789841Y-72160048D01*
X126801664Y-72151280D01*
X126814290Y-72143712D01*
X126827597Y-72137418D01*
X126841457Y-72132459D01*
X126855736Y-72128882D01*
X126870297Y-72126722D01*
X126885000Y-72126000D01*
X127185000Y-72126000D01*
X127199703Y-72126722D01*
X127199703Y-72126722D01*
G37*
D24*
X127035000Y-72976000D03*
D23*
G36*
X128469703Y-72126722D02*
G01*
X128484264Y-72128882D01*
X128498543Y-72132459D01*
X128512403Y-72137418D01*
X128525710Y-72143712D01*
X128538336Y-72151280D01*
X128550159Y-72160048D01*
X128561066Y-72169934D01*
X128570952Y-72180841D01*
X128579720Y-72192664D01*
X128587288Y-72205290D01*
X128593582Y-72218597D01*
X128598541Y-72232457D01*
X128602118Y-72246736D01*
X128604278Y-72261297D01*
X128605000Y-72276000D01*
X128605000Y-73676000D01*
X128604278Y-73690703D01*
X128602118Y-73705264D01*
X128598541Y-73719543D01*
X128593582Y-73733403D01*
X128587288Y-73746710D01*
X128579720Y-73759336D01*
X128570952Y-73771159D01*
X128561066Y-73782066D01*
X128550159Y-73791952D01*
X128538336Y-73800720D01*
X128525710Y-73808288D01*
X128512403Y-73814582D01*
X128498543Y-73819541D01*
X128484264Y-73823118D01*
X128469703Y-73825278D01*
X128455000Y-73826000D01*
X128155000Y-73826000D01*
X128140297Y-73825278D01*
X128125736Y-73823118D01*
X128111457Y-73819541D01*
X128097597Y-73814582D01*
X128084290Y-73808288D01*
X128071664Y-73800720D01*
X128059841Y-73791952D01*
X128048934Y-73782066D01*
X128039048Y-73771159D01*
X128030280Y-73759336D01*
X128022712Y-73746710D01*
X128016418Y-73733403D01*
X128011459Y-73719543D01*
X128007882Y-73705264D01*
X128005722Y-73690703D01*
X128005000Y-73676000D01*
X128005000Y-72276000D01*
X128005722Y-72261297D01*
X128007882Y-72246736D01*
X128011459Y-72232457D01*
X128016418Y-72218597D01*
X128022712Y-72205290D01*
X128030280Y-72192664D01*
X128039048Y-72180841D01*
X128048934Y-72169934D01*
X128059841Y-72160048D01*
X128071664Y-72151280D01*
X128084290Y-72143712D01*
X128097597Y-72137418D01*
X128111457Y-72132459D01*
X128125736Y-72128882D01*
X128140297Y-72126722D01*
X128155000Y-72126000D01*
X128455000Y-72126000D01*
X128469703Y-72126722D01*
X128469703Y-72126722D01*
G37*
D24*
X128305000Y-72976000D03*
D23*
G36*
X129739703Y-72126722D02*
G01*
X129754264Y-72128882D01*
X129768543Y-72132459D01*
X129782403Y-72137418D01*
X129795710Y-72143712D01*
X129808336Y-72151280D01*
X129820159Y-72160048D01*
X129831066Y-72169934D01*
X129840952Y-72180841D01*
X129849720Y-72192664D01*
X129857288Y-72205290D01*
X129863582Y-72218597D01*
X129868541Y-72232457D01*
X129872118Y-72246736D01*
X129874278Y-72261297D01*
X129875000Y-72276000D01*
X129875000Y-73676000D01*
X129874278Y-73690703D01*
X129872118Y-73705264D01*
X129868541Y-73719543D01*
X129863582Y-73733403D01*
X129857288Y-73746710D01*
X129849720Y-73759336D01*
X129840952Y-73771159D01*
X129831066Y-73782066D01*
X129820159Y-73791952D01*
X129808336Y-73800720D01*
X129795710Y-73808288D01*
X129782403Y-73814582D01*
X129768543Y-73819541D01*
X129754264Y-73823118D01*
X129739703Y-73825278D01*
X129725000Y-73826000D01*
X129425000Y-73826000D01*
X129410297Y-73825278D01*
X129395736Y-73823118D01*
X129381457Y-73819541D01*
X129367597Y-73814582D01*
X129354290Y-73808288D01*
X129341664Y-73800720D01*
X129329841Y-73791952D01*
X129318934Y-73782066D01*
X129309048Y-73771159D01*
X129300280Y-73759336D01*
X129292712Y-73746710D01*
X129286418Y-73733403D01*
X129281459Y-73719543D01*
X129277882Y-73705264D01*
X129275722Y-73690703D01*
X129275000Y-73676000D01*
X129275000Y-72276000D01*
X129275722Y-72261297D01*
X129277882Y-72246736D01*
X129281459Y-72232457D01*
X129286418Y-72218597D01*
X129292712Y-72205290D01*
X129300280Y-72192664D01*
X129309048Y-72180841D01*
X129318934Y-72169934D01*
X129329841Y-72160048D01*
X129341664Y-72151280D01*
X129354290Y-72143712D01*
X129367597Y-72137418D01*
X129381457Y-72132459D01*
X129395736Y-72128882D01*
X129410297Y-72126722D01*
X129425000Y-72126000D01*
X129725000Y-72126000D01*
X129739703Y-72126722D01*
X129739703Y-72126722D01*
G37*
D24*
X129575000Y-72976000D03*
D23*
G36*
X131009703Y-72126722D02*
G01*
X131024264Y-72128882D01*
X131038543Y-72132459D01*
X131052403Y-72137418D01*
X131065710Y-72143712D01*
X131078336Y-72151280D01*
X131090159Y-72160048D01*
X131101066Y-72169934D01*
X131110952Y-72180841D01*
X131119720Y-72192664D01*
X131127288Y-72205290D01*
X131133582Y-72218597D01*
X131138541Y-72232457D01*
X131142118Y-72246736D01*
X131144278Y-72261297D01*
X131145000Y-72276000D01*
X131145000Y-73676000D01*
X131144278Y-73690703D01*
X131142118Y-73705264D01*
X131138541Y-73719543D01*
X131133582Y-73733403D01*
X131127288Y-73746710D01*
X131119720Y-73759336D01*
X131110952Y-73771159D01*
X131101066Y-73782066D01*
X131090159Y-73791952D01*
X131078336Y-73800720D01*
X131065710Y-73808288D01*
X131052403Y-73814582D01*
X131038543Y-73819541D01*
X131024264Y-73823118D01*
X131009703Y-73825278D01*
X130995000Y-73826000D01*
X130695000Y-73826000D01*
X130680297Y-73825278D01*
X130665736Y-73823118D01*
X130651457Y-73819541D01*
X130637597Y-73814582D01*
X130624290Y-73808288D01*
X130611664Y-73800720D01*
X130599841Y-73791952D01*
X130588934Y-73782066D01*
X130579048Y-73771159D01*
X130570280Y-73759336D01*
X130562712Y-73746710D01*
X130556418Y-73733403D01*
X130551459Y-73719543D01*
X130547882Y-73705264D01*
X130545722Y-73690703D01*
X130545000Y-73676000D01*
X130545000Y-72276000D01*
X130545722Y-72261297D01*
X130547882Y-72246736D01*
X130551459Y-72232457D01*
X130556418Y-72218597D01*
X130562712Y-72205290D01*
X130570280Y-72192664D01*
X130579048Y-72180841D01*
X130588934Y-72169934D01*
X130599841Y-72160048D01*
X130611664Y-72151280D01*
X130624290Y-72143712D01*
X130637597Y-72137418D01*
X130651457Y-72132459D01*
X130665736Y-72128882D01*
X130680297Y-72126722D01*
X130695000Y-72126000D01*
X130995000Y-72126000D01*
X131009703Y-72126722D01*
X131009703Y-72126722D01*
G37*
D24*
X130845000Y-72976000D03*
D23*
G36*
X132279703Y-72126722D02*
G01*
X132294264Y-72128882D01*
X132308543Y-72132459D01*
X132322403Y-72137418D01*
X132335710Y-72143712D01*
X132348336Y-72151280D01*
X132360159Y-72160048D01*
X132371066Y-72169934D01*
X132380952Y-72180841D01*
X132389720Y-72192664D01*
X132397288Y-72205290D01*
X132403582Y-72218597D01*
X132408541Y-72232457D01*
X132412118Y-72246736D01*
X132414278Y-72261297D01*
X132415000Y-72276000D01*
X132415000Y-73676000D01*
X132414278Y-73690703D01*
X132412118Y-73705264D01*
X132408541Y-73719543D01*
X132403582Y-73733403D01*
X132397288Y-73746710D01*
X132389720Y-73759336D01*
X132380952Y-73771159D01*
X132371066Y-73782066D01*
X132360159Y-73791952D01*
X132348336Y-73800720D01*
X132335710Y-73808288D01*
X132322403Y-73814582D01*
X132308543Y-73819541D01*
X132294264Y-73823118D01*
X132279703Y-73825278D01*
X132265000Y-73826000D01*
X131965000Y-73826000D01*
X131950297Y-73825278D01*
X131935736Y-73823118D01*
X131921457Y-73819541D01*
X131907597Y-73814582D01*
X131894290Y-73808288D01*
X131881664Y-73800720D01*
X131869841Y-73791952D01*
X131858934Y-73782066D01*
X131849048Y-73771159D01*
X131840280Y-73759336D01*
X131832712Y-73746710D01*
X131826418Y-73733403D01*
X131821459Y-73719543D01*
X131817882Y-73705264D01*
X131815722Y-73690703D01*
X131815000Y-73676000D01*
X131815000Y-72276000D01*
X131815722Y-72261297D01*
X131817882Y-72246736D01*
X131821459Y-72232457D01*
X131826418Y-72218597D01*
X131832712Y-72205290D01*
X131840280Y-72192664D01*
X131849048Y-72180841D01*
X131858934Y-72169934D01*
X131869841Y-72160048D01*
X131881664Y-72151280D01*
X131894290Y-72143712D01*
X131907597Y-72137418D01*
X131921457Y-72132459D01*
X131935736Y-72128882D01*
X131950297Y-72126722D01*
X131965000Y-72126000D01*
X132265000Y-72126000D01*
X132279703Y-72126722D01*
X132279703Y-72126722D01*
G37*
D24*
X132115000Y-72976000D03*
D23*
G36*
X133549703Y-72126722D02*
G01*
X133564264Y-72128882D01*
X133578543Y-72132459D01*
X133592403Y-72137418D01*
X133605710Y-72143712D01*
X133618336Y-72151280D01*
X133630159Y-72160048D01*
X133641066Y-72169934D01*
X133650952Y-72180841D01*
X133659720Y-72192664D01*
X133667288Y-72205290D01*
X133673582Y-72218597D01*
X133678541Y-72232457D01*
X133682118Y-72246736D01*
X133684278Y-72261297D01*
X133685000Y-72276000D01*
X133685000Y-73676000D01*
X133684278Y-73690703D01*
X133682118Y-73705264D01*
X133678541Y-73719543D01*
X133673582Y-73733403D01*
X133667288Y-73746710D01*
X133659720Y-73759336D01*
X133650952Y-73771159D01*
X133641066Y-73782066D01*
X133630159Y-73791952D01*
X133618336Y-73800720D01*
X133605710Y-73808288D01*
X133592403Y-73814582D01*
X133578543Y-73819541D01*
X133564264Y-73823118D01*
X133549703Y-73825278D01*
X133535000Y-73826000D01*
X133235000Y-73826000D01*
X133220297Y-73825278D01*
X133205736Y-73823118D01*
X133191457Y-73819541D01*
X133177597Y-73814582D01*
X133164290Y-73808288D01*
X133151664Y-73800720D01*
X133139841Y-73791952D01*
X133128934Y-73782066D01*
X133119048Y-73771159D01*
X133110280Y-73759336D01*
X133102712Y-73746710D01*
X133096418Y-73733403D01*
X133091459Y-73719543D01*
X133087882Y-73705264D01*
X133085722Y-73690703D01*
X133085000Y-73676000D01*
X133085000Y-72276000D01*
X133085722Y-72261297D01*
X133087882Y-72246736D01*
X133091459Y-72232457D01*
X133096418Y-72218597D01*
X133102712Y-72205290D01*
X133110280Y-72192664D01*
X133119048Y-72180841D01*
X133128934Y-72169934D01*
X133139841Y-72160048D01*
X133151664Y-72151280D01*
X133164290Y-72143712D01*
X133177597Y-72137418D01*
X133191457Y-72132459D01*
X133205736Y-72128882D01*
X133220297Y-72126722D01*
X133235000Y-72126000D01*
X133535000Y-72126000D01*
X133549703Y-72126722D01*
X133549703Y-72126722D01*
G37*
D24*
X133385000Y-72976000D03*
D23*
G36*
X134819703Y-72126722D02*
G01*
X134834264Y-72128882D01*
X134848543Y-72132459D01*
X134862403Y-72137418D01*
X134875710Y-72143712D01*
X134888336Y-72151280D01*
X134900159Y-72160048D01*
X134911066Y-72169934D01*
X134920952Y-72180841D01*
X134929720Y-72192664D01*
X134937288Y-72205290D01*
X134943582Y-72218597D01*
X134948541Y-72232457D01*
X134952118Y-72246736D01*
X134954278Y-72261297D01*
X134955000Y-72276000D01*
X134955000Y-73676000D01*
X134954278Y-73690703D01*
X134952118Y-73705264D01*
X134948541Y-73719543D01*
X134943582Y-73733403D01*
X134937288Y-73746710D01*
X134929720Y-73759336D01*
X134920952Y-73771159D01*
X134911066Y-73782066D01*
X134900159Y-73791952D01*
X134888336Y-73800720D01*
X134875710Y-73808288D01*
X134862403Y-73814582D01*
X134848543Y-73819541D01*
X134834264Y-73823118D01*
X134819703Y-73825278D01*
X134805000Y-73826000D01*
X134505000Y-73826000D01*
X134490297Y-73825278D01*
X134475736Y-73823118D01*
X134461457Y-73819541D01*
X134447597Y-73814582D01*
X134434290Y-73808288D01*
X134421664Y-73800720D01*
X134409841Y-73791952D01*
X134398934Y-73782066D01*
X134389048Y-73771159D01*
X134380280Y-73759336D01*
X134372712Y-73746710D01*
X134366418Y-73733403D01*
X134361459Y-73719543D01*
X134357882Y-73705264D01*
X134355722Y-73690703D01*
X134355000Y-73676000D01*
X134355000Y-72276000D01*
X134355722Y-72261297D01*
X134357882Y-72246736D01*
X134361459Y-72232457D01*
X134366418Y-72218597D01*
X134372712Y-72205290D01*
X134380280Y-72192664D01*
X134389048Y-72180841D01*
X134398934Y-72169934D01*
X134409841Y-72160048D01*
X134421664Y-72151280D01*
X134434290Y-72143712D01*
X134447597Y-72137418D01*
X134461457Y-72132459D01*
X134475736Y-72128882D01*
X134490297Y-72126722D01*
X134505000Y-72126000D01*
X134805000Y-72126000D01*
X134819703Y-72126722D01*
X134819703Y-72126722D01*
G37*
D24*
X134655000Y-72976000D03*
D23*
G36*
X136089703Y-72126722D02*
G01*
X136104264Y-72128882D01*
X136118543Y-72132459D01*
X136132403Y-72137418D01*
X136145710Y-72143712D01*
X136158336Y-72151280D01*
X136170159Y-72160048D01*
X136181066Y-72169934D01*
X136190952Y-72180841D01*
X136199720Y-72192664D01*
X136207288Y-72205290D01*
X136213582Y-72218597D01*
X136218541Y-72232457D01*
X136222118Y-72246736D01*
X136224278Y-72261297D01*
X136225000Y-72276000D01*
X136225000Y-73676000D01*
X136224278Y-73690703D01*
X136222118Y-73705264D01*
X136218541Y-73719543D01*
X136213582Y-73733403D01*
X136207288Y-73746710D01*
X136199720Y-73759336D01*
X136190952Y-73771159D01*
X136181066Y-73782066D01*
X136170159Y-73791952D01*
X136158336Y-73800720D01*
X136145710Y-73808288D01*
X136132403Y-73814582D01*
X136118543Y-73819541D01*
X136104264Y-73823118D01*
X136089703Y-73825278D01*
X136075000Y-73826000D01*
X135775000Y-73826000D01*
X135760297Y-73825278D01*
X135745736Y-73823118D01*
X135731457Y-73819541D01*
X135717597Y-73814582D01*
X135704290Y-73808288D01*
X135691664Y-73800720D01*
X135679841Y-73791952D01*
X135668934Y-73782066D01*
X135659048Y-73771159D01*
X135650280Y-73759336D01*
X135642712Y-73746710D01*
X135636418Y-73733403D01*
X135631459Y-73719543D01*
X135627882Y-73705264D01*
X135625722Y-73690703D01*
X135625000Y-73676000D01*
X135625000Y-72276000D01*
X135625722Y-72261297D01*
X135627882Y-72246736D01*
X135631459Y-72232457D01*
X135636418Y-72218597D01*
X135642712Y-72205290D01*
X135650280Y-72192664D01*
X135659048Y-72180841D01*
X135668934Y-72169934D01*
X135679841Y-72160048D01*
X135691664Y-72151280D01*
X135704290Y-72143712D01*
X135717597Y-72137418D01*
X135731457Y-72132459D01*
X135745736Y-72128882D01*
X135760297Y-72126722D01*
X135775000Y-72126000D01*
X136075000Y-72126000D01*
X136089703Y-72126722D01*
X136089703Y-72126722D01*
G37*
D24*
X135925000Y-72976000D03*
D23*
G36*
X137359703Y-72126722D02*
G01*
X137374264Y-72128882D01*
X137388543Y-72132459D01*
X137402403Y-72137418D01*
X137415710Y-72143712D01*
X137428336Y-72151280D01*
X137440159Y-72160048D01*
X137451066Y-72169934D01*
X137460952Y-72180841D01*
X137469720Y-72192664D01*
X137477288Y-72205290D01*
X137483582Y-72218597D01*
X137488541Y-72232457D01*
X137492118Y-72246736D01*
X137494278Y-72261297D01*
X137495000Y-72276000D01*
X137495000Y-73676000D01*
X137494278Y-73690703D01*
X137492118Y-73705264D01*
X137488541Y-73719543D01*
X137483582Y-73733403D01*
X137477288Y-73746710D01*
X137469720Y-73759336D01*
X137460952Y-73771159D01*
X137451066Y-73782066D01*
X137440159Y-73791952D01*
X137428336Y-73800720D01*
X137415710Y-73808288D01*
X137402403Y-73814582D01*
X137388543Y-73819541D01*
X137374264Y-73823118D01*
X137359703Y-73825278D01*
X137345000Y-73826000D01*
X137045000Y-73826000D01*
X137030297Y-73825278D01*
X137015736Y-73823118D01*
X137001457Y-73819541D01*
X136987597Y-73814582D01*
X136974290Y-73808288D01*
X136961664Y-73800720D01*
X136949841Y-73791952D01*
X136938934Y-73782066D01*
X136929048Y-73771159D01*
X136920280Y-73759336D01*
X136912712Y-73746710D01*
X136906418Y-73733403D01*
X136901459Y-73719543D01*
X136897882Y-73705264D01*
X136895722Y-73690703D01*
X136895000Y-73676000D01*
X136895000Y-72276000D01*
X136895722Y-72261297D01*
X136897882Y-72246736D01*
X136901459Y-72232457D01*
X136906418Y-72218597D01*
X136912712Y-72205290D01*
X136920280Y-72192664D01*
X136929048Y-72180841D01*
X136938934Y-72169934D01*
X136949841Y-72160048D01*
X136961664Y-72151280D01*
X136974290Y-72143712D01*
X136987597Y-72137418D01*
X137001457Y-72132459D01*
X137015736Y-72128882D01*
X137030297Y-72126722D01*
X137045000Y-72126000D01*
X137345000Y-72126000D01*
X137359703Y-72126722D01*
X137359703Y-72126722D01*
G37*
D24*
X137195000Y-72976000D03*
D23*
G36*
X138629703Y-72126722D02*
G01*
X138644264Y-72128882D01*
X138658543Y-72132459D01*
X138672403Y-72137418D01*
X138685710Y-72143712D01*
X138698336Y-72151280D01*
X138710159Y-72160048D01*
X138721066Y-72169934D01*
X138730952Y-72180841D01*
X138739720Y-72192664D01*
X138747288Y-72205290D01*
X138753582Y-72218597D01*
X138758541Y-72232457D01*
X138762118Y-72246736D01*
X138764278Y-72261297D01*
X138765000Y-72276000D01*
X138765000Y-73676000D01*
X138764278Y-73690703D01*
X138762118Y-73705264D01*
X138758541Y-73719543D01*
X138753582Y-73733403D01*
X138747288Y-73746710D01*
X138739720Y-73759336D01*
X138730952Y-73771159D01*
X138721066Y-73782066D01*
X138710159Y-73791952D01*
X138698336Y-73800720D01*
X138685710Y-73808288D01*
X138672403Y-73814582D01*
X138658543Y-73819541D01*
X138644264Y-73823118D01*
X138629703Y-73825278D01*
X138615000Y-73826000D01*
X138315000Y-73826000D01*
X138300297Y-73825278D01*
X138285736Y-73823118D01*
X138271457Y-73819541D01*
X138257597Y-73814582D01*
X138244290Y-73808288D01*
X138231664Y-73800720D01*
X138219841Y-73791952D01*
X138208934Y-73782066D01*
X138199048Y-73771159D01*
X138190280Y-73759336D01*
X138182712Y-73746710D01*
X138176418Y-73733403D01*
X138171459Y-73719543D01*
X138167882Y-73705264D01*
X138165722Y-73690703D01*
X138165000Y-73676000D01*
X138165000Y-72276000D01*
X138165722Y-72261297D01*
X138167882Y-72246736D01*
X138171459Y-72232457D01*
X138176418Y-72218597D01*
X138182712Y-72205290D01*
X138190280Y-72192664D01*
X138199048Y-72180841D01*
X138208934Y-72169934D01*
X138219841Y-72160048D01*
X138231664Y-72151280D01*
X138244290Y-72143712D01*
X138257597Y-72137418D01*
X138271457Y-72132459D01*
X138285736Y-72128882D01*
X138300297Y-72126722D01*
X138315000Y-72126000D01*
X138615000Y-72126000D01*
X138629703Y-72126722D01*
X138629703Y-72126722D01*
G37*
D24*
X138465000Y-72976000D03*
D31*
X151990500Y-89678500D03*
X153260500Y-89678500D03*
X154530500Y-89678500D03*
X155800500Y-89678500D03*
X157070500Y-89678500D03*
X158340500Y-89678500D03*
X159610500Y-89678500D03*
X160880500Y-89678500D03*
X162150500Y-89678500D03*
X163420500Y-89678500D03*
X163420500Y-80278500D03*
X162150500Y-80278500D03*
X160880500Y-80278500D03*
X159610500Y-80278500D03*
X158340500Y-80278500D03*
X157070500Y-80278500D03*
X155800500Y-80278500D03*
X154530500Y-80278500D03*
X153260500Y-80278500D03*
X151990500Y-80278500D03*
D32*
X179676500Y-78286000D03*
X179676500Y-79386000D03*
X179676500Y-80486000D03*
X179676500Y-81586000D03*
X179676500Y-82686000D03*
X179676500Y-83786000D03*
X179676500Y-84886000D03*
X179676500Y-85986000D03*
X179676500Y-86936000D03*
D33*
X179676500Y-76736000D03*
X183976500Y-87886000D03*
D34*
X190176500Y-87886000D03*
D35*
X194326500Y-87886000D03*
D36*
X194776500Y-74386000D03*
D12*
X126996100Y-85077300D03*
X128096100Y-85077300D03*
X115037960Y-101056440D03*
X113937960Y-101056440D03*
D37*
X189649100Y-112162100D03*
X188379100Y-112162100D03*
X187109100Y-112162100D03*
X185839100Y-112162100D03*
X185839100Y-119562100D03*
X187109100Y-119562100D03*
X188379100Y-119562100D03*
X189649100Y-119562100D03*
D38*
X184183200Y-98270100D03*
X184183200Y-97320100D03*
X184183200Y-96370100D03*
X181983200Y-96370100D03*
X181983200Y-98270100D03*
D39*
X119462000Y-95860000D03*
D40*
X133162000Y-94160000D03*
D39*
X134862000Y-107860000D03*
D40*
X121162000Y-109560000D03*
X121662000Y-109560000D03*
X122162000Y-109560000D03*
X122662000Y-109560000D03*
X123162000Y-109560000D03*
X123662000Y-109560000D03*
X124162000Y-109560000D03*
X124662000Y-109560000D03*
X125162000Y-109560000D03*
X125662000Y-109560000D03*
X126162000Y-109560000D03*
X126662000Y-109560000D03*
X127162000Y-109560000D03*
X127662000Y-109560000D03*
X128162000Y-109560000D03*
X128662000Y-109560000D03*
X129162000Y-109560000D03*
X129662000Y-109560000D03*
X130162000Y-109560000D03*
X130662000Y-109560000D03*
X131162000Y-109560000D03*
X131662000Y-109560000D03*
X132162000Y-109560000D03*
X132662000Y-109560000D03*
X133162000Y-109560000D03*
D39*
X134862000Y-107360000D03*
X134862000Y-106860000D03*
X134862000Y-106360000D03*
X134862000Y-105860000D03*
X134862000Y-105360000D03*
X134862000Y-104860000D03*
X134862000Y-104360000D03*
X134862000Y-103860000D03*
X134862000Y-103360000D03*
X134862000Y-102860000D03*
X134862000Y-102360000D03*
X134862000Y-101860000D03*
X134862000Y-101360000D03*
X134862000Y-100860000D03*
X134862000Y-100360000D03*
X134862000Y-99860000D03*
X134862000Y-99360000D03*
X134862000Y-98860000D03*
X134862000Y-98360000D03*
X134862000Y-97860000D03*
X134862000Y-97360000D03*
X134862000Y-96860000D03*
X134862000Y-96360000D03*
X134862000Y-95860000D03*
D40*
X132662000Y-94160000D03*
X132162000Y-94160000D03*
X131662000Y-94160000D03*
X131162000Y-94160000D03*
X130662000Y-94160000D03*
X130162000Y-94160000D03*
X129662000Y-94160000D03*
X129162000Y-94160000D03*
X128662000Y-94160000D03*
X128162000Y-94160000D03*
X127662000Y-94160000D03*
X127162000Y-94160000D03*
X126662000Y-94160000D03*
X126162000Y-94160000D03*
X125662000Y-94160000D03*
X125162000Y-94160000D03*
X124662000Y-94160000D03*
X124162000Y-94160000D03*
X123662000Y-94160000D03*
X123162000Y-94160000D03*
X122662000Y-94160000D03*
X122162000Y-94160000D03*
X121662000Y-94160000D03*
X121162000Y-94160000D03*
D39*
X119462000Y-96360000D03*
X119462000Y-96860000D03*
X119462000Y-97360000D03*
X119462000Y-97860000D03*
X119462000Y-98360000D03*
X119462000Y-98860000D03*
X119462000Y-99360000D03*
X119462000Y-99860000D03*
X119462000Y-100360000D03*
X119462000Y-100860000D03*
X119462000Y-101360000D03*
X119462000Y-101860000D03*
X119462000Y-102360000D03*
X119462000Y-102860000D03*
X119462000Y-103360000D03*
X119462000Y-103860000D03*
X119462000Y-104360000D03*
X119462000Y-104860000D03*
X119462000Y-105360000D03*
X119462000Y-105860000D03*
X119462000Y-106360000D03*
X119462000Y-106860000D03*
X119462000Y-107360000D03*
X119462000Y-107860000D03*
M02*
