M48
; DRILL file {KiCad (5.1.2)-1} date 2019/12/23 7:02:52
; FORMAT={-:-/ absolute / metric / decimal}
; #@! TF.CreationDate,2019-12-23T07:02:52+09:00
; #@! TF.GenerationSoftware,Kicad,Pcbnew,(5.1.2)-1
FMAT,2
METRIC
T1C0.400
T2C0.500
T3C0.800
T4C1.000
T5C1.100
T6C3.200
%
G90
G05
T1
X102.197Y-108.217
X102.621Y-97.521
X103.358Y-114.021
X103.416Y-111.77
X103.429Y-109.474
X103.586Y-119.167
X107.074Y-83.312
X107.074Y-87.262
X107.95Y-67.653
X108.001Y-70.904
X108.001Y-74.308
X108.039Y-91.389
X108.064Y-93.04
X108.064Y-94.666
X110.338Y-77.889
X111.633Y-96.088
X111.76Y-65.786
X111.918Y-97.272
X112.065Y-103.416
X112.268Y-100.66
X112.808Y-68.631
X112.811Y-97.997
X112.822Y-124.912
X112.827Y-109.004
X112.827Y-110.49
X112.973Y-107.71
X113.051Y-95.305
X113.081Y-69.799
X113.156Y-66.972
X113.271Y-99.911
X113.54Y-65.727
X114.123Y-102.942
X114.173Y-123.561
X114.452Y-103.886
X114.681Y-63.843
X114.998Y-112.331
X115.118Y-108.956
X115.264Y-111.082
X115.296Y-129.375
X115.491Y-126.111
X115.588Y-122.199
X115.677Y-113.939
X115.732Y-86.376
X115.824Y-78.74
X115.824Y-80.67
X115.837Y-69.571
X115.859Y-91.646
X115.922Y-87.519
X116.055Y-101.472
X116.154Y-115.555
X116.319Y-63.83
X116.5Y-125.037
X116.738Y-97.561
X116.752Y-68.707
X116.875Y-120.904
X116.977Y-107.241
X117.043Y-84.315
X117.078Y-103.822
X117.192Y-87.519
X117.383Y-110.569
X117.462Y-105.912
X117.511Y-123.96
X118.401Y-112.918
X118.897Y-93.777
X119.262Y-113.592
X119.792Y-69.616
X119.796Y-91.646
X120.04Y-89.865
X120.05Y-80.724
X120.193Y-93.777
X120.284Y-64.955
X120.548Y-75.133
X120.696Y-70.811
X120.797Y-112.679
X120.964Y-84.436
X121.031Y-120.078
X121.056Y-89.764
X121.056Y-118.466
X121.235Y-88.78
X121.244Y-111.465
X121.453Y-114.209
X121.691Y-64.599
X121.831Y-120.863
X121.961Y-84.289
X122.044Y-121.993
X122.174Y-89.56
X122.603Y-97.858
X122.603Y-100.498
X122.603Y-103.165
X122.603Y-106.086
X123.209Y-121.901
X123.225Y-84.153
X123.342Y-65.889
X123.761Y-118.364
X123.977Y-123.195
X124.749Y-75.898
X124.749Y-78.755
X124.876Y-87.426
X124.876Y-92.142
X125.349Y-118.11
X125.397Y-97.858
X125.397Y-100.498
X125.397Y-103.165
X125.397Y-106.086
X125.4Y-116.637
X125.557Y-123.195
X125.603Y-113.792
X126.496Y-115.316
X126.746Y-70.015
X127.035Y-80.787
X127.061Y-129.375
X127.813Y-96.19
X128.018Y-115.867
X128.208Y-116.849
X128.305Y-74.501
X128.435Y-83.998
X128.448Y-71.183
X128.737Y-97.896
X128.737Y-100.536
X128.737Y-103.203
X128.737Y-106.124
X128.844Y-96.148
X128.945Y-114.472
X129.179Y-115.445
X129.215Y-68.411
X129.388Y-91.186
X129.476Y-76.517
X129.476Y-79.883
X129.759Y-88.688
X129.87Y-95.91
X129.937Y-90.263
X130.629Y-115.745
X130.739Y-88.889
X130.785Y-111.152
X130.785Y-114.757
X130.83Y-68.588
X131.416Y-92.408
X131.775Y-70.51
X131.861Y-97.896
X131.861Y-100.536
X131.861Y-103.203
X131.861Y-106.124
X132.143Y-85.09
X132.169Y-89.789
X132.524Y-74.549
X132.651Y-76.517
X132.651Y-79.883
X132.933Y-114.82
X133.067Y-70.627
X133.164Y-85.085
X133.172Y-96.825
X133.248Y-89.814
X133.525Y-69.651
X133.729Y-84.005
X133.891Y-114.534
X134.188Y-92.735
X134.188Y-94.221
X134.264Y-89.027
X134.464Y-69.992
X134.709Y-84.204
X134.823Y-111.152
X134.885Y-114.833
X134.968Y-70.966
X135.37Y-85.021
X136.179Y-71.008
X136.533Y-93.451
X136.632Y-111.526
X137.003Y-99.635
X137.06Y-105.914
X137.363Y-110.439
X137.427Y-113.161
X137.449Y-94.313
X137.557Y-71.293
X137.705Y-116.626
X137.972Y-99.389
X138.318Y-84.38
X138.481Y-117.488
X138.481Y-121.653
X138.558Y-115.87
X138.587Y-104.731
X138.592Y-91.138
X138.846Y-90.122
X138.905Y-98.823
X139.227Y-71.629
X139.421Y-122.669
X139.573Y-99.771
X139.573Y-113.983
X139.576Y-104.899
X139.582Y-72.85
X140.09Y-97.098
X140.208Y-85.649
X140.277Y-109.22
X140.453Y-105.655
X140.624Y-76.381
X140.624Y-78.413
X140.624Y-80.572
X140.665Y-99.568
X140.677Y-88.544
X140.716Y-87.503
X140.716Y-113.792
X141.129Y-86.304
X141.52Y-98.718
X142.329Y-99.305
X142.481Y-67.818
X142.746Y-89.296
X142.748Y-71.78
X142.85Y-108.986
X143.1Y-98.313
X143.492Y-102.387
X143.545Y-97.297
X143.866Y-115.011
X144.286Y-101.679
X144.419Y-117.973
X144.699Y-110.211
X145.161Y-108.976
X145.196Y-101.108
X145.375Y-111.038
X145.758Y-67.513
X145.91Y-69.723
X146.05Y-71.78
X146.099Y-100.554
X146.139Y-99.538
X146.177Y-108.458
X146.749Y-95.435
X146.749Y-96.863
X147.161Y-105.613
X147.163Y-109.102
X147.414Y-117.945
X147.926Y-100.155
X147.927Y-95.272
X147.985Y-108.533
X148.453Y-102.794
X148.504Y-106.756
X148.742Y-67.488
X148.755Y-65.811
X150.149Y-98.441
X150.213Y-100.663
X150.576Y-117.973
X150.847Y-74.967
X150.847Y-78.184
X151.216Y-67.076
X151.531Y-114.993
X152.197Y-71.222
X152.456Y-129.375
X152.816Y-92.445
X153.006Y-98.441
X153.006Y-100.663
X153.543Y-83.248
X153.543Y-86.741
X153.619Y-70.714
X153.641Y-91.582
X153.695Y-67.081
X153.782Y-94.026
X153.887Y-107.292
X154.653Y-108.017
X155.308Y-118.44
X155.515Y-94.404
X156.24Y-105.131
X156.273Y-83.248
X156.273Y-86.741
X156.308Y-106.759
X156.372Y-92.09
X156.672Y-109.939
X157.226Y-106.108
X157.48Y-68.478
X157.651Y-104.019
X157.959Y-95.456
X158.318Y-107.315
X158.496Y-97.79
X158.496Y-99.631
X158.496Y-101.409
X158.907Y-91.791
X159.017Y-118.415
X159.029Y-68.478
X159.131Y-83.248
X159.131Y-86.741
X160.182Y-72.772
X160.452Y-107.315
X160.762Y-111.155
X161.154Y-72.467
X161.686Y-121.686
X161.696Y-114.706
X161.925Y-92.392
X161.925Y-96.139
X162.052Y-83.248
X162.052Y-86.741
X162.097Y-72.018
X162.56Y-109.982
X162.585Y-107.34
X162.814Y-72.796
X163.231Y-121.121
X163.297Y-114.122
X163.573Y-118.252
X163.937Y-111.78
X164.287Y-121.214
X164.528Y-96.139
X164.633Y-115.385
X164.643Y-107.95
X164.69Y-71.263
X164.909Y-92.392
X164.927Y-108.909
X165.071Y-70.246
X165.516Y-101.108
X165.636Y-118.252
X165.694Y-109.55
X165.964Y-111.785
X166.083Y-114.744
X166.878Y-110.566
X167.04Y-101.996
X167.259Y-96.139
X167.357Y-103.393
X167.738Y-101.108
X167.831Y-92.392
X168.6Y-105.359
X168.6Y-108.4
X168.6Y-111.513
X169.393Y-79.985
X169.393Y-82.271
X169.418Y-84.684
X169.418Y-86.97
X169.926Y-96.139
X170.434Y-112.649
X170.674Y-73.136
X170.739Y-89.408
X170.786Y-93.742
X170.896Y-116.134
X171.286Y-88.344
X171.298Y-118.262
X171.643Y-80.815
X171.867Y-117.135
X171.914Y-93.83
X172.093Y-71.854
X172.105Y-68.263
X172.105Y-70.145
X172.372Y-94.719
X172.493Y-79.629
X173.104Y-86.99
X173.48Y-94.758
X173.5Y-106.9
X173.5Y-109.3
X174.1Y-114.3
X174.142Y-85.014
X174.157Y-88.355
X175.313Y-78.583
X175.353Y-73.136
X175.438Y-91.44
X175.753Y-84.343
X176.286Y-78.583
X176.3Y-106.9
X176.3Y-109.3
X176.352Y-92.532
X176.456Y-128.171
X176.479Y-97.561
X176.505Y-98.704
X176.538Y-125.672
X177.112Y-117.196
X177.112Y-118.466
X177.14Y-66.802
X177.14Y-70.053
X177.159Y-101.225
X177.165Y-95.225
X177.19Y-73.558
X177.201Y-114.47
X177.292Y-93.599
X177.673Y-85.979
X177.708Y-120.406
X177.708Y-125.435
X177.775Y-98.273
X178.026Y-81.613
X178.089Y-82.692
X178.841Y-112.157
X179.07Y-100.889
X179.095Y-99.619
X179.23Y-124.021
X179.248Y-121.691
X180.21Y-103.713
X180.95Y-89.56
X180.973Y-112.833
X181.003Y-102.766
X181.348Y-108.161
X181.543Y-86.172
X181.844Y-99.741
X181.859Y-100.833
X182.5Y-109.17
X182.618Y-112.319
X182.677Y-89.56
X182.875Y-113.604
X183.321Y-86.172
X183.779Y-105.296
X183.947Y-126.492
X183.972Y-127.622
X184.424Y-109.576
X184.429Y-119.852
X184.439Y-116.259
X184.824Y-105.592
X184.836Y-94.894
X184.861Y-93.553
X184.942Y-121.737
X184.942Y-123.007
X185.5Y-124.9
X185.979Y-100.533
X186.121Y-115.641
X186.121Y-117.282
X186.665Y-96.037
X186.924Y-126.738
X186.928Y-125.707
X187.554Y-89.459
X187.604Y-85.547
X187.673Y-96.05
X187.711Y-117.297
X187.719Y-115.644
X188.45Y-106.205
X189.334Y-115.636
X189.342Y-117.282
X189.382Y-85.547
X189.382Y-89.459
X189.484Y-101.016
X189.484Y-102.26
X189.674Y-107.632
X189.674Y-109.029
X189.687Y-106.223
X191.054Y-96.604
X191.054Y-98.001
X191.11Y-85.547
X191.11Y-89.459
X191.719Y-111.531
X191.729Y-112.865
X191.8Y-120.1
X192.476Y-97.983
X192.484Y-96.578
X193.33Y-111.514
X193.337Y-112.89
T2
X146.152Y-82.029
T3
X142.672Y-76.911
X145.212Y-76.911
T4
X127.076Y-60.96
X127.076Y-63.5
X129.616Y-60.96
X129.616Y-63.5
X132.156Y-60.96
X132.156Y-63.5
X134.696Y-60.96
X134.696Y-63.5
X137.236Y-60.96
X137.236Y-63.5
X139.776Y-60.96
X139.776Y-63.5
X142.316Y-60.96
X142.316Y-63.5
X144.856Y-60.96
X144.856Y-63.5
X147.396Y-60.96
X147.396Y-63.5
X149.936Y-60.96
X149.936Y-63.5
X152.476Y-60.96
X152.476Y-63.5
X155.016Y-60.96
X155.016Y-63.5
X157.556Y-60.96
X157.556Y-63.5
X160.096Y-60.96
X160.096Y-63.5
X162.636Y-60.96
X162.636Y-63.5
X165.176Y-60.96
X165.176Y-63.5
X167.716Y-60.96
X167.716Y-63.5
X170.256Y-60.96
X170.256Y-63.5
X172.796Y-60.96
X172.796Y-63.5
X175.336Y-60.96
X175.336Y-63.5
X127.076Y-124.46
X127.076Y-127.0
X129.616Y-124.46
X129.616Y-127.0
X132.156Y-124.46
X132.156Y-127.0
X134.696Y-124.46
X134.696Y-127.0
X137.236Y-124.46
X137.236Y-127.0
X139.776Y-124.46
X139.776Y-127.0
X142.316Y-124.46
X142.316Y-127.0
X144.856Y-124.46
X144.856Y-127.0
X147.396Y-124.46
X147.396Y-127.0
X149.936Y-124.46
X149.936Y-127.0
X152.476Y-124.46
X152.476Y-127.0
X155.016Y-124.46
X155.016Y-127.0
X157.556Y-124.46
X157.556Y-127.0
X160.096Y-124.46
X160.096Y-127.0
X162.636Y-124.46
X162.636Y-127.0
X165.176Y-124.46
X165.176Y-127.0
X167.716Y-124.46
X167.716Y-127.0
X170.256Y-124.46
X170.256Y-127.0
X172.796Y-124.46
X172.796Y-127.0
X175.336Y-124.46
X175.336Y-127.0
T5
X105.664Y-113.134
X105.664Y-119.634
X110.164Y-113.134
X110.164Y-119.634
T6
X104.0Y-127.0
X193.0Y-127.0
X104.0Y-61.0
X193.0Y-61.0
T0
M30
